<?xml version="1.0" encoding="utf-8" standalone="no"?>
<!DOCTYPE svg PUBLIC "-//W3C//DTD SVG 1.1//EN"
  "http://www.w3.org/Graphics/SVG/1.1/DTD/svg11.dtd">
<svg xmlns:xlink="http://www.w3.org/1999/xlink" width="720pt" height="424.8pt" viewBox="0 0 720 424.8" xmlns="http://www.w3.org/2000/svg" version="1.1">
 <metadata>
  <rdf:RDF xmlns:dc="http://purl.org/dc/elements/1.1/" xmlns:cc="http://creativecommons.org/ns#" xmlns:rdf="http://www.w3.org/1999/02/22-rdf-syntax-ns#">
   <cc:Work>
    <dc:type rdf:resource="http://purl.org/dc/dcmitype/StillImage"/>
    <dc:date>2023-06-08T11:43:33.082849</dc:date>
    <dc:format>image/svg+xml</dc:format>
    <dc:creator>
     <cc:Agent>
      <dc:title>Matplotlib v3.5.3, https://matplotlib.org/</dc:title>
     </cc:Agent>
    </dc:creator>
   </cc:Work>
  </rdf:RDF>
 </metadata>
 <defs>
  <style type="text/css">*{stroke-linejoin: round; stroke-linecap: butt}</style>
 </defs>
 <g id="figure_1">
  <g id="patch_1">
   <path d="M 0 424.8 
L 720 424.8 
L 720 0 
L 0 0 
z
" style="fill: #ffffff"/>
  </g>
  <g id="axes_1">
   <g id="patch_2">
    <path d="M 75.459375 126.272548 
L 660.58875 126.272548 
L 660.58875 38.324062 
L 75.459375 38.324062 
z
" style="fill: #ffffff"/>
   </g>
   <g id="patch_3">
    <path d="M 102.056165 126.272548 
L 102.056165 38.324062 
L 279.368097 38.324062 
L 279.368097 126.272548 
z
" clip-path="url(#pdd0341cba5)" style="fill: #808080; opacity: 0.2; stroke: #808080; stroke-width: 2; stroke-linejoin: miter"/>
   </g>
   <g id="patch_4">
    <path d="M 456.680028 126.272548 
L 456.680028 38.324062 
L 633.99196 38.324062 
L 633.99196 126.272548 
z
" clip-path="url(#pdd0341cba5)" style="fill: #808080; opacity: 0.2; stroke: #808080; stroke-width: 2; stroke-linejoin: miter"/>
   </g>
   <g id="matplotlib.axis_1">
    <g id="xtick_1">
     <g id="line2d_1">
      <defs>
       <path id="m58df9072a6" d="M 0 0 
L 0 6 
" style="stroke: #000000"/>
      </defs>
      <g>
       <use xlink:href="#m58df9072a6" x="190.712131" y="126.272548" style="stroke: #000000"/>
      </g>
     </g>
    </g>
    <g id="xtick_2">
     <g id="line2d_2">
      <g>
       <use xlink:href="#m58df9072a6" x="368.024062" y="126.272548" style="stroke: #000000"/>
      </g>
     </g>
    </g>
    <g id="xtick_3">
     <g id="line2d_3">
      <g>
       <use xlink:href="#m58df9072a6" x="545.335994" y="126.272548" style="stroke: #000000"/>
      </g>
     </g>
    </g>
   </g>
   <g id="matplotlib.axis_2">
    <g id="ytick_1">
     <g id="line2d_4">
      <defs>
       <path id="m2e532ddf29" d="M 0 0 
L -6 0 
" style="stroke: #000000"/>
      </defs>
      <g>
       <use xlink:href="#m2e532ddf29" x="75.459375" y="122.274889" style="stroke: #000000"/>
      </g>
     </g>
     <g id="text_1">
      <!-- 0 -->
      <g transform="translate(55.949687 128.716921)scale(0.18 -0.18)">
       <defs>
        <path id="ArialMT-30" d="M 266 2259 
Q 266 3072 433 3567 
Q 600 4063 929 4331 
Q 1259 4600 1759 4600 
Q 2128 4600 2406 4451 
Q 2684 4303 2865 4023 
Q 3047 3744 3150 3342 
Q 3253 2941 3253 2259 
Q 3253 1453 3087 958 
Q 2922 463 2592 192 
Q 2263 -78 1759 -78 
Q 1097 -78 719 397 
Q 266 969 266 2259 
z
M 844 2259 
Q 844 1131 1108 757 
Q 1372 384 1759 384 
Q 2147 384 2411 759 
Q 2675 1134 2675 2259 
Q 2675 3391 2411 3762 
Q 2147 4134 1753 4134 
Q 1366 4134 1134 3806 
Q 844 3388 844 2259 
z
" transform="scale(0.015625)"/>
       </defs>
       <use xlink:href="#ArialMT-30"/>
      </g>
     </g>
    </g>
    <g id="ytick_2">
     <g id="line2d_5">
      <g>
       <use xlink:href="#m2e532ddf29" x="75.459375" y="82.298305" style="stroke: #000000"/>
      </g>
     </g>
     <g id="text_2">
      <!-- 5 -->
      <g transform="translate(55.949687 88.740336)scale(0.18 -0.18)">
       <defs>
        <path id="ArialMT-35" d="M 266 1200 
L 856 1250 
Q 922 819 1161 601 
Q 1400 384 1738 384 
Q 2144 384 2425 690 
Q 2706 997 2706 1503 
Q 2706 1984 2436 2262 
Q 2166 2541 1728 2541 
Q 1456 2541 1237 2417 
Q 1019 2294 894 2097 
L 366 2166 
L 809 4519 
L 3088 4519 
L 3088 3981 
L 1259 3981 
L 1013 2750 
Q 1425 3038 1878 3038 
Q 2478 3038 2890 2622 
Q 3303 2206 3303 1553 
Q 3303 931 2941 478 
Q 2500 -78 1738 -78 
Q 1113 -78 717 272 
Q 322 622 266 1200 
z
" transform="scale(0.015625)"/>
       </defs>
       <use xlink:href="#ArialMT-35"/>
      </g>
     </g>
    </g>
    <g id="ytick_3">
     <g id="line2d_6">
      <g>
       <use xlink:href="#m2e532ddf29" x="75.459375" y="42.321721" style="stroke: #000000"/>
      </g>
     </g>
     <g id="text_3">
      <!-- 10 -->
      <g transform="translate(45.94 48.763752)scale(0.18 -0.18)">
       <defs>
        <path id="ArialMT-31" d="M 2384 0 
L 1822 0 
L 1822 3584 
Q 1619 3391 1289 3197 
Q 959 3003 697 2906 
L 697 3450 
Q 1169 3672 1522 3987 
Q 1875 4303 2022 4600 
L 2384 4600 
L 2384 0 
z
" transform="scale(0.015625)"/>
       </defs>
       <use xlink:href="#ArialMT-31"/>
       <use xlink:href="#ArialMT-30" x="55.615234"/>
      </g>
     </g>
    </g>
    <g id="text_4">
     <!-- $\dot{Q}_{\mathrm{WP}}$ in kW -->
     <g transform="translate(38.3625 124.778305)rotate(-90)scale(0.18 -0.18)">
      <defs>
       <path id="DejaVuSans-307" d="M -1894 4863 
L -1319 4863 
L -1319 4134 
L -1894 4134 
L -1894 4863 
z
M -1600 3584 
L -1600 3584 
z
" transform="scale(0.015625)"/>
       <path id="DejaVuSans-Oblique-51" d="M 2309 -84 
Q 2275 -88 2237 -89 
Q 2200 -91 2125 -91 
Q 1250 -91 756 411 
Q 263 913 263 1797 
Q 263 2319 452 2844 
Q 641 3369 978 3788 
Q 1369 4269 1858 4509 
Q 2347 4750 2938 4750 
Q 3794 4750 4287 4245 
Q 4781 3741 4781 2869 
Q 4781 1928 4265 1147 
Q 3750 366 2919 44 
L 3553 -825 
L 2847 -825 
L 2309 -84 
z
M 2919 4238 
Q 2400 4238 2003 3986 
Q 1606 3734 1313 3219 
Q 1125 2891 1026 2522 
Q 928 2153 928 1778 
Q 928 1128 1239 775 
Q 1550 422 2119 422 
Q 2631 422 3032 676 
Q 3434 931 3719 1434 
Q 3909 1772 4009 2142 
Q 4109 2513 4109 2881 
Q 4109 3528 3796 3883 
Q 3484 4238 2919 4238 
z
" transform="scale(0.015625)"/>
       <path id="DejaVuSans-57" d="M 213 4666 
L 850 4666 
L 1831 722 
L 2809 4666 
L 3519 4666 
L 4500 722 
L 5478 4666 
L 6119 4666 
L 4947 0 
L 4153 0 
L 3169 4050 
L 2175 0 
L 1381 0 
L 213 4666 
z
" transform="scale(0.015625)"/>
       <path id="DejaVuSans-50" d="M 1259 4147 
L 1259 2394 
L 2053 2394 
Q 2494 2394 2734 2622 
Q 2975 2850 2975 3272 
Q 2975 3691 2734 3919 
Q 2494 4147 2053 4147 
L 1259 4147 
z
M 628 4666 
L 2053 4666 
Q 2838 4666 3239 4311 
Q 3641 3956 3641 3272 
Q 3641 2581 3239 2228 
Q 2838 1875 2053 1875 
L 1259 1875 
L 1259 0 
L 628 0 
L 628 4666 
z
" transform="scale(0.015625)"/>
       <path id="ArialMT-20" transform="scale(0.015625)"/>
       <path id="ArialMT-69" d="M 425 3934 
L 425 4581 
L 988 4581 
L 988 3934 
L 425 3934 
z
M 425 0 
L 425 3319 
L 988 3319 
L 988 0 
L 425 0 
z
" transform="scale(0.015625)"/>
       <path id="ArialMT-6e" d="M 422 0 
L 422 3319 
L 928 3319 
L 928 2847 
Q 1294 3394 1984 3394 
Q 2284 3394 2536 3286 
Q 2788 3178 2913 3003 
Q 3038 2828 3088 2588 
Q 3119 2431 3119 2041 
L 3119 0 
L 2556 0 
L 2556 2019 
Q 2556 2363 2490 2533 
Q 2425 2703 2258 2804 
Q 2091 2906 1866 2906 
Q 1506 2906 1245 2678 
Q 984 2450 984 1813 
L 984 0 
L 422 0 
z
" transform="scale(0.015625)"/>
       <path id="ArialMT-6b" d="M 425 0 
L 425 4581 
L 988 4581 
L 988 1969 
L 2319 3319 
L 3047 3319 
L 1778 2088 
L 3175 0 
L 2481 0 
L 1384 1697 
L 988 1316 
L 988 0 
L 425 0 
z
" transform="scale(0.015625)"/>
       <path id="ArialMT-57" d="M 1294 0 
L 78 4581 
L 700 4581 
L 1397 1578 
Q 1509 1106 1591 641 
Q 1766 1375 1797 1488 
L 2669 4581 
L 3400 4581 
L 4056 2263 
Q 4303 1400 4413 641 
Q 4500 1075 4641 1638 
L 5359 4581 
L 5969 4581 
L 4713 0 
L 4128 0 
L 3163 3491 
Q 3041 3928 3019 4028 
Q 2947 3713 2884 3491 
L 1913 0 
L 1294 0 
z
" transform="scale(0.015625)"/>
      </defs>
      <use xlink:href="#DejaVuSans-307" transform="translate(74.271484 31.015625)"/>
      <use xlink:href="#DejaVuSans-Oblique-51" transform="translate(0 0.296875)"/>
      <use xlink:href="#DejaVuSans-57" transform="translate(79.667969 -16.109375)scale(0.7)"/>
      <use xlink:href="#DejaVuSans-50" transform="translate(148.881836 -16.109375)scale(0.7)"/>
      <use xlink:href="#ArialMT-20" transform="translate(193.828125 0.296875)"/>
      <use xlink:href="#ArialMT-69" transform="translate(221.611328 0.296875)"/>
      <use xlink:href="#ArialMT-6e" transform="translate(243.828125 0.296875)"/>
      <use xlink:href="#ArialMT-20" transform="translate(299.443359 0.296875)"/>
      <use xlink:href="#ArialMT-6b" transform="translate(327.226562 0.296875)"/>
      <use xlink:href="#ArialMT-57" transform="translate(377.226562 0.296875)"/>
     </g>
    </g>
   </g>
   <g id="line2d_7">
    <path d="M 102.056165 84.357899 
L 105.750163 84.690504 
L 109.444162 85.087072 
L 113.138161 85.278959 
L 118.679158 85.573187 
L 131.608153 86.052906 
L 135.302152 86.110472 
L 137.149151 49.776554 
L 138.996151 96.609922 
L 140.84315 86.171237 
L 153.772145 86.343935 
L 155.619144 86.973966 
L 161.160142 87.984574 
L 163.007141 87.498459 
L 168.548139 87.280987 
L 170.395138 84.760863 
L 172.242138 43.015714 
L 174.089137 102.286597 
L 175.936136 79.787776 
L 177.783136 42.344108 
L 179.630135 85.05509 
L 181.477134 81.821784 
L 183.324134 81.738633 
L 185.171133 82.314296 
L 190.712131 83.049865 
L 192.55913 44.726712 
L 194.406129 102.286597 
L 196.253129 84.162813 
L 198.100128 84.498616 
L 199.947127 47.275619 
L 201.794126 102.286597 
L 203.641126 48.500502 
L 205.488125 44.131861 
L 207.335124 49.20409 
L 209.182124 42.344108 
L 211.029123 50.010018 
L 212.876122 42.344108 
L 214.723121 50.355415 
L 216.570121 99.990342 
L 218.41712 86.622172 
L 223.958118 86.846041 
L 227.652116 86.996353 
L 229.499116 87.626384 
L 235.040114 88.684964 
L 236.887113 87.588007 
L 238.734112 51.493948 
L 240.581112 86.60938 
L 242.428111 86.465464 
L 244.27511 83.539178 
L 249.816108 78.562893 
L 251.663107 79.560709 
L 253.510107 71.677326 
L 255.357106 42.344108 
L 257.204105 122.274889 
L 259.051104 79.192924 
L 264.592102 79.634266 
L 266.439102 80.126777 
L 270.1331 80.769601 
L 271.980099 78.962659 
L 273.827099 42.344108 
L 275.674098 102.286597 
L 277.521097 81.805794 
L 279.368097 82.074436 
L 281.215096 82.023266 
L 297.838089 83.046667 
L 308.920085 84.041284 
L 310.767085 46.031548 
L 312.614084 102.286597 
L 314.461083 84.568975 
L 327.390078 85.758678 
L 329.237077 49.453544 
L 331.084077 102.286597 
L 332.931076 87.028335 
L 338.472074 88.697757 
L 340.319073 88.224434 
L 345.860071 88.352359 
L 347.70707 47.333186 
L 349.55407 93.83075 
L 351.401069 82.93793 
L 353.248068 81.594717 
L 355.095067 82.889959 
L 358.789066 82.851581 
L 360.636065 43.930379 
L 362.483065 102.286597 
L 364.330064 84.098851 
L 368.024062 84.923967 
L 371.718061 85.96016 
L 373.56506 86.439879 
L 375.41206 61.52967 
L 377.259059 42.344108 
L 379.106058 100.988158 
L 380.953058 42.344108 
L 382.800057 79.122565 
L 384.647056 42.344108 
L 390.188054 42.344108 
L 392.035053 101.237612 
L 393.882053 89.279816 
L 395.729052 56.489422 
L 397.576051 89.420533 
L 399.42305 102.286597 
L 401.27005 89.820299 
L 403.117049 57.493634 
L 404.964048 122.274889 
L 406.811048 91.921469 
L 410.505046 93.901109 
L 412.352045 67.088014 
L 414.199045 122.274889 
L 417.893043 68.866173 
L 419.740043 122.274889 
L 421.587042 92.036601 
L 427.12804 86.849239 
L 428.975039 87.706337 
L 430.822038 87.277788 
L 432.669038 50.707209 
L 434.516037 102.286597 
L 436.363036 51.429986 
L 438.210036 122.274889 
L 440.057035 87.082703 
L 441.904034 87.143467 
L 443.751033 52.837162 
L 445.598033 102.286597 
L 447.445032 88.064528 
L 449.292031 54.35947 
L 451.139031 122.274889 
L 452.98603 88.864059 
L 462.221026 90.085744 
L 469.609023 90.952436 
L 475.150021 91.512108 
L 484.385018 92.36281 
L 486.232017 62.69059 
L 488.079016 81.514764 
L 489.926016 92.810548 
L 499.161012 93.453371 
L 508.396009 94.048223 
L 510.243008 96.763432 
L 512.090007 98.484025 
L 513.937006 102.286597 
L 515.784006 99.625756 
L 517.631005 100.524429 
L 523.172003 101.883633 
L 525.019002 97.924352 
L 526.866001 99.558595 
L 528.713001 92.708208 
L 530.56 92.637849 
L 532.406999 93.42139 
L 537.947997 91.96944 
L 539.794996 92.490735 
L 545.335994 92.541905 
L 547.182994 92.935275 
L 560.111989 94.447989 
L 561.958988 66.841759 
L 563.805987 102.286597 
L 565.652987 94.934104 
L 569.346985 95.183558 
L 571.193984 68.245736 
L 573.040984 47.678583 
L 574.887983 95.548144 
L 578.581982 95.679267 
L 580.428981 71.450259 
L 582.27598 65.393007 
L 584.122979 102.286597 
L 585.969979 77.37319 
L 587.816978 42.344108 
L 589.663977 102.286597 
L 591.510977 101.064913 
L 593.357976 86.670144 
L 595.204975 42.344108 
L 597.051974 102.286597 
L 598.898974 101.221621 
L 600.745973 97.767644 
L 602.592972 99.577784 
L 604.439972 92.12295 
L 606.286971 94.515149 
L 608.13397 64.507126 
L 609.980969 101.806878 
L 611.827969 92.500329 
L 613.674968 92.842529 
L 619.215966 92.353216 
L 621.062965 92.615462 
L 626.603963 92.765774 
L 628.450962 92.992841 
L 630.297962 63.896284 
L 632.144961 90.095338 
L 632.144961 90.095338 
" clip-path="url(#pdd0341cba5)" style="fill: none; stroke: #cc071e; stroke-width: 2; stroke-linecap: square"/>
   </g>
   <g id="patch_5">
    <path d="M 75.459375 126.272548 
L 75.459375 38.324062 
" style="fill: none; stroke: #000000; stroke-linejoin: miter; stroke-linecap: square"/>
   </g>
   <g id="patch_6">
    <path d="M 660.58875 126.272548 
L 660.58875 38.324062 
" style="fill: none; stroke: #000000; stroke-linejoin: miter; stroke-linecap: square"/>
   </g>
   <g id="patch_7">
    <path d="M 75.459375 126.272548 
L 660.58875 126.272548 
" style="fill: none; stroke: #000000; stroke-linejoin: miter; stroke-linecap: square"/>
   </g>
   <g id="patch_8">
    <path d="M 75.459375 38.324062 
L 660.58875 38.324062 
" style="fill: none; stroke: #000000; stroke-linejoin: miter; stroke-linecap: square"/>
   </g>
   <g id="text_5">
    <!-- $~$ -->
    <g transform="translate(75.459375 32.324062)scale(0.18 -0.18)"/>
   </g>
  </g>
  <g id="axes_2">
   <g id="patch_9">
    <path d="M 75.459375 242.604711 
L 660.58875 242.604711 
L 660.58875 154.656226 
L 75.459375 154.656226 
z
" style="fill: #ffffff"/>
   </g>
   <g id="patch_10">
    <path d="M 102.056165 242.604711 
L 102.056165 154.656226 
L 279.368097 154.656226 
L 279.368097 242.604711 
z
" clip-path="url(#p42aad3807f)" style="fill: #808080; opacity: 0.2; stroke: #808080; stroke-width: 2; stroke-linejoin: miter"/>
   </g>
   <g id="patch_11">
    <path d="M 456.680028 242.604711 
L 456.680028 154.656226 
L 633.99196 154.656226 
L 633.99196 242.604711 
z
" clip-path="url(#p42aad3807f)" style="fill: #808080; opacity: 0.2; stroke: #808080; stroke-width: 2; stroke-linejoin: miter"/>
   </g>
   <g id="matplotlib.axis_3">
    <g id="xtick_4">
     <g id="line2d_8">
      <g>
       <use xlink:href="#m58df9072a6" x="190.712131" y="242.604711" style="stroke: #000000"/>
      </g>
     </g>
    </g>
    <g id="xtick_5">
     <g id="line2d_9">
      <g>
       <use xlink:href="#m58df9072a6" x="368.024062" y="242.604711" style="stroke: #000000"/>
      </g>
     </g>
    </g>
    <g id="xtick_6">
     <g id="line2d_10">
      <g>
       <use xlink:href="#m58df9072a6" x="545.335994" y="242.604711" style="stroke: #000000"/>
      </g>
     </g>
    </g>
   </g>
   <g id="matplotlib.axis_4">
    <g id="ytick_4">
     <g id="line2d_11">
      <g>
       <use xlink:href="#m2e532ddf29" x="75.459375" y="237.807521" style="stroke: #000000"/>
      </g>
     </g>
     <g id="text_6">
      <!-- 20 -->
      <g transform="translate(45.94 244.249553)scale(0.18 -0.18)">
       <defs>
        <path id="ArialMT-32" d="M 3222 541 
L 3222 0 
L 194 0 
Q 188 203 259 391 
Q 375 700 629 1000 
Q 884 1300 1366 1694 
Q 2113 2306 2375 2664 
Q 2638 3022 2638 3341 
Q 2638 3675 2398 3904 
Q 2159 4134 1775 4134 
Q 1369 4134 1125 3890 
Q 881 3647 878 3216 
L 300 3275 
Q 359 3922 746 4261 
Q 1134 4600 1788 4600 
Q 2447 4600 2831 4234 
Q 3216 3869 3216 3328 
Q 3216 3053 3103 2787 
Q 2991 2522 2730 2228 
Q 2469 1934 1863 1422 
Q 1356 997 1212 845 
Q 1069 694 975 541 
L 3222 541 
z
" transform="scale(0.015625)"/>
       </defs>
       <use xlink:href="#ArialMT-32"/>
       <use xlink:href="#ArialMT-30" x="55.615234"/>
      </g>
     </g>
    </g>
    <g id="ytick_5">
     <g id="line2d_12">
      <g>
       <use xlink:href="#m2e532ddf29" x="75.459375" y="197.830937" style="stroke: #000000"/>
      </g>
     </g>
     <g id="text_7">
      <!-- 45 -->
      <g transform="translate(45.94 204.272968)scale(0.18 -0.18)">
       <defs>
        <path id="ArialMT-34" d="M 2069 0 
L 2069 1097 
L 81 1097 
L 81 1613 
L 2172 4581 
L 2631 4581 
L 2631 1613 
L 3250 1613 
L 3250 1097 
L 2631 1097 
L 2631 0 
L 2069 0 
z
M 2069 1613 
L 2069 3678 
L 634 1613 
L 2069 1613 
z
" transform="scale(0.015625)"/>
       </defs>
       <use xlink:href="#ArialMT-34"/>
       <use xlink:href="#ArialMT-35" x="55.615234"/>
      </g>
     </g>
    </g>
    <g id="ytick_6">
     <g id="line2d_13">
      <g>
       <use xlink:href="#m2e532ddf29" x="75.459375" y="157.854353" style="stroke: #000000"/>
      </g>
     </g>
     <g id="text_8">
      <!-- 70 -->
      <g transform="translate(45.94 164.296384)scale(0.18 -0.18)">
       <defs>
        <path id="ArialMT-37" d="M 303 3981 
L 303 4522 
L 3269 4522 
L 3269 4084 
Q 2831 3619 2401 2847 
Q 1972 2075 1738 1259 
Q 1569 684 1522 0 
L 944 0 
Q 953 541 1156 1306 
Q 1359 2072 1739 2783 
Q 2119 3494 2547 3981 
L 303 3981 
z
" transform="scale(0.015625)"/>
       </defs>
       <use xlink:href="#ArialMT-37"/>
       <use xlink:href="#ArialMT-30" x="55.615234"/>
      </g>
     </g>
    </g>
    <g id="text_9">
     <!-- $T$ in °C -->
     <g transform="translate(38.3625 226.260469)rotate(-90)scale(0.18 -0.18)">
      <defs>
       <path id="DejaVuSans-Oblique-54" d="M 378 4666 
L 4325 4666 
L 4225 4134 
L 2559 4134 
L 1759 0 
L 1125 0 
L 1925 4134 
L 275 4134 
L 378 4666 
z
" transform="scale(0.015625)"/>
       <path id="ArialMT-b0" d="M 400 3794 
Q 400 4153 654 4406 
Q 909 4659 1266 4659 
Q 1628 4659 1881 4406 
Q 2134 4153 2134 3794 
Q 2134 3434 1879 3179 
Q 1625 2925 1266 2925 
Q 909 2925 654 3178 
Q 400 3431 400 3794 
z
M 741 3794 
Q 741 3575 895 3420 
Q 1050 3266 1269 3266 
Q 1484 3266 1639 3420 
Q 1794 3575 1794 3794 
Q 1794 4013 1639 4167 
Q 1484 4322 1269 4322 
Q 1050 4322 895 4167 
Q 741 4013 741 3794 
z
" transform="scale(0.015625)"/>
       <path id="ArialMT-43" d="M 3763 1606 
L 4369 1453 
Q 4178 706 3683 314 
Q 3188 -78 2472 -78 
Q 1731 -78 1267 223 
Q 803 525 561 1097 
Q 319 1669 319 2325 
Q 319 3041 592 3573 
Q 866 4106 1370 4382 
Q 1875 4659 2481 4659 
Q 3169 4659 3637 4309 
Q 4106 3959 4291 3325 
L 3694 3184 
Q 3534 3684 3231 3912 
Q 2928 4141 2469 4141 
Q 1941 4141 1586 3887 
Q 1231 3634 1087 3207 
Q 944 2781 944 2328 
Q 944 1744 1114 1308 
Q 1284 872 1643 656 
Q 2003 441 2422 441 
Q 2931 441 3284 734 
Q 3638 1028 3763 1606 
z
" transform="scale(0.015625)"/>
      </defs>
      <use xlink:href="#DejaVuSans-Oblique-54" transform="translate(0 0.09375)"/>
      <use xlink:href="#ArialMT-20" transform="translate(61.083984 0.09375)"/>
      <use xlink:href="#ArialMT-69" transform="translate(88.867188 0.09375)"/>
      <use xlink:href="#ArialMT-6e" transform="translate(111.083984 0.09375)"/>
      <use xlink:href="#ArialMT-20" transform="translate(166.699219 0.09375)"/>
      <use xlink:href="#ArialMT-b0" transform="translate(194.482422 0.09375)"/>
      <use xlink:href="#ArialMT-43" transform="translate(234.472656 0.09375)"/>
     </g>
    </g>
   </g>
   <g id="line2d_14">
    <path d="M 102.056165 196.935462 
L 109.444162 197.39919 
L 127.914155 197.958862 
L 135.302152 198.070797 
L 137.149151 177.266982 
L 138.996151 198.118768 
L 153.772145 198.214712 
L 161.160142 198.966272 
L 168.548139 198.806366 
L 170.395138 198.054806 
L 172.242138 174.164799 
L 174.089137 196.567677 
L 175.936136 195.208473 
L 177.783136 172.485783 
L 179.630135 195.736164 
L 183.324134 195.64022 
L 190.712131 196.199892 
L 192.55913 174.212771 
L 194.406129 196.599658 
L 198.100128 196.983433 
L 199.947127 175.683909 
L 201.794126 197.335227 
L 203.641126 176.387497 
L 205.488125 197.687021 
L 207.335124 176.851226 
L 209.182124 197.91089 
L 211.029123 177.314954 
L 212.876122 198.134759 
L 214.723121 177.570804 
L 216.570121 198.262684 
L 229.499116 198.758394 
L 235.040114 199.366038 
L 236.887113 199.15816 
L 238.734112 178.498261 
L 240.581112 198.726413 
L 242.428111 198.502544 
L 249.816108 194.712763 
L 251.663107 194.536867 
L 253.510107 190.027508 
L 255.357106 168.935862 
L 257.204105 193.961204 
L 266.439102 194.488895 
L 270.1331 194.856679 
L 271.980099 193.817288 
L 273.827099 171.686251 
L 275.674098 195.336398 
L 281.215096 195.688192 
L 305.226087 196.615649 
L 308.920085 196.807537 
L 310.767085 175.044284 
L 312.614084 197.015415 
L 327.390078 197.798956 
L 329.237077 177.011132 
L 331.084077 197.990843 
L 338.472074 199.254103 
L 345.860071 199.350047 
L 347.70707 176.659338 
L 349.55407 197.814946 
L 353.248068 196.279846 
L 358.789066 196.247864 
L 360.636065 173.956921 
L 362.483065 196.471733 
L 373.56506 198.006834 
L 375.41206 183.759179 
L 377.259059 158.414025 
L 380.953058 198.90231 
L 382.800057 193.897241 
L 384.647056 167.736564 
L 386.494055 187.421035 
L 388.341055 161.05248 
L 392.035053 199.733822 
L 393.882053 199.813776 
L 395.729052 181.056762 
L 397.576051 181.200678 
L 399.42305 200.069626 
L 401.27005 200.149579 
L 403.117049 181.648416 
L 404.964048 200.293495 
L 410.505046 201.988502 
L 412.352045 186.637493 
L 414.199045 202.788034 
L 416.046044 203.011902 
L 417.893043 187.996697 
L 419.740043 203.45964 
L 427.12804 199.493963 
L 430.822038 199.014244 
L 432.669038 178.066514 
L 434.516037 198.518534 
L 436.363036 178.21043 
L 438.210036 198.582497 
L 441.904034 198.646459 
L 443.751033 178.914017 
L 445.598033 198.934291 
L 447.445032 199.078206 
L 449.292031 179.777512 
L 451.139031 199.366038 
L 462.221026 200.229532 
L 471.456023 200.869157 
L 484.385018 201.572745 
L 486.232017 184.590692 
L 488.079016 201.764633 
L 508.396009 202.564165 
L 512.090007 204.291153 
L 513.937006 205.826254 
L 515.784006 205.826254 
L 523.172003 206.865645 
L 525.019002 205.858235 
L 526.866001 205.826254 
L 528.713001 203.843415 
L 530.56 202.836005 
L 537.947997 201.732652 
L 545.335994 201.764633 
L 560.111989 202.740062 
L 561.958988 186.957306 
L 563.805987 202.94794 
L 569.346985 203.219781 
L 571.193984 187.80481 
L 573.040984 203.363696 
L 578.581982 203.523603 
L 580.428981 189.659723 
L 582.27598 204.291153 
L 584.122979 205.826254 
L 585.969979 193.561438 
L 587.816978 206.22602 
L 589.663977 206.497861 
L 591.510977 205.826254 
L 593.357976 196.695602 
L 595.204975 207.793102 
L 597.051974 207.121495 
L 598.898974 206.929608 
L 600.745973 205.842245 
L 602.592972 205.826254 
L 604.439972 203.667518 
L 606.286971 203.283743 
L 608.13397 186.109803 
L 609.980969 202.516193 
L 611.827969 202.132418 
L 619.215966 201.764633 
L 628.450962 201.956521 
L 630.297962 185.29428 
L 632.144961 202.116427 
L 632.144961 202.116427 
" clip-path="url(#p42aad3807f)" style="fill: none; stroke: #f6a800; stroke-width: 2; stroke-linecap: square"/>
   </g>
   <g id="line2d_15">
    <path d="M 102.056165 187.405044 
L 137.149151 189.755667 
L 138.996151 184.350833 
L 146.384148 184.878524 
L 150.078146 186.605512 
L 163.007141 187.453016 
L 164.854141 188.31651 
L 168.548139 188.57236 
L 170.395138 189.419864 
L 172.242138 189.547789 
L 174.089137 185.342252 
L 177.783136 185.614093 
L 179.630135 187.373063 
L 181.477134 188.236557 
L 190.712131 188.81222 
L 192.55913 189.659723 
L 194.406129 185.470177 
L 196.253129 186.333671 
L 199.947127 186.589522 
L 201.794126 183.135545 
L 203.641126 183.27946 
L 205.488125 167.272836 
L 207.335124 168.168312 
L 209.182124 175.971741 
L 211.029123 181.216669 
L 212.876122 188.988117 
L 214.723121 189.83562 
L 216.570121 185.869943 
L 222.111119 186.221737 
L 223.958118 187.069241 
L 225.805117 187.197166 
L 227.652116 188.06066 
L 236.887113 188.684295 
L 238.734112 189.531798 
L 240.581112 181.968228 
L 244.27511 182.240069 
L 246.122109 183.119554 
L 255.357106 183.759179 
L 259.051104 185.470177 
L 260.898104 185.614093 
L 262.745103 186.461597 
L 270.1331 186.989287 
L 271.980099 189.291939 
L 273.827099 189.419864 
L 275.674098 185.230318 
L 310.767085 187.628913 
L 312.614084 183.455357 
L 323.69608 184.27088 
L 327.390078 185.997868 
L 329.237077 186.125793 
L 331.084077 181.936247 
L 340.319073 182.607854 
L 342.166072 183.471348 
L 345.860071 183.743189 
L 347.70707 184.606683 
L 349.55407 178.594205 
L 355.095067 179.041942 
L 356.942067 188.860192 
L 358.789066 189.707695 
L 360.636065 189.83562 
L 362.483065 185.646074 
L 368.024062 185.997868 
L 369.871062 186.845372 
L 371.718061 186.973297 
L 373.56506 187.836791 
L 377.259059 188.092641 
L 379.106058 184.350833 
L 380.953058 167.224864 
L 384.647056 169.031806 
L 386.494055 176.835235 
L 388.341055 182.064172 
L 390.188054 189.83562 
L 392.035053 186.141784 
L 393.882053 187.005278 
L 397.576051 187.213156 
L 399.42305 183.039601 
L 401.27005 183.903095 
L 403.117049 184.03102 
L 404.964048 184.894514 
L 414.199045 185.566121 
L 416.046044 186.429615 
L 421.587042 186.81339 
L 423.434041 187.676885 
L 432.669038 188.268538 
L 434.516037 184.814561 
L 436.363036 185.662065 
L 438.210036 185.805981 
L 440.057035 186.653484 
L 443.751033 186.925325 
L 445.598033 182.735779 
L 447.445032 182.879695 
L 449.292031 185.182346 
L 458.527028 185.805981 
L 486.232017 187.708866 
L 488.079016 179.041942 
L 526.866001 182.048182 
L 528.713001 182.911676 
L 536.100998 183.455357 
L 537.947997 184.318852 
L 539.794996 184.462767 
L 541.641996 185.326262 
L 554.570991 186.205746 
L 560.111989 188.764248 
L 561.958988 188.892173 
L 563.805987 185.422205 
L 567.499986 187.149194 
L 571.193984 187.405044 
L 573.040984 171.430401 
L 574.887983 177.986561 
L 576.734982 178.866046 
L 578.581982 179.009961 
L 580.428981 181.344594 
L 582.27598 169.927281 
L 585.969979 170.263085 
L 587.816978 178.066514 
L 589.663977 178.945999 
L 593.357976 179.249821 
L 595.204975 187.021269 
L 597.051974 187.884763 
L 598.898974 188.012688 
L 600.745973 188.860192 
L 602.592972 188.988117 
L 604.439972 189.547789 
L 608.13397 189.803639 
L 609.980969 185.502158 
L 615.521967 185.901924 
L 617.368967 186.765419 
L 624.756964 187.277119 
L 630.297962 189.83562 
L 632.144961 188.092641 
L 632.144961 188.092641 
" clip-path="url(#p42aad3807f)" style="fill: none; stroke: #0098a1; stroke-width: 2; stroke-linecap: square"/>
   </g>
   <g id="patch_12">
    <path d="M 75.459375 242.604711 
L 75.459375 154.656226 
" style="fill: none; stroke: #000000; stroke-linejoin: miter; stroke-linecap: square"/>
   </g>
   <g id="patch_13">
    <path d="M 660.58875 242.604711 
L 660.58875 154.656226 
" style="fill: none; stroke: #000000; stroke-linejoin: miter; stroke-linecap: square"/>
   </g>
   <g id="patch_14">
    <path d="M 75.459375 242.604711 
L 660.58875 242.604711 
" style="fill: none; stroke: #000000; stroke-linejoin: miter; stroke-linecap: square"/>
   </g>
   <g id="patch_15">
    <path d="M 75.459375 154.656226 
L 660.58875 154.656226 
" style="fill: none; stroke: #000000; stroke-linejoin: miter; stroke-linecap: square"/>
   </g>
  </g>
  <g id="axes_3">
   <g id="patch_16">
    <path d="M 75.459375 358.936875 
L 660.58875 358.936875 
L 660.58875 270.98839 
L 75.459375 270.98839 
z
" style="fill: #ffffff"/>
   </g>
   <g id="patch_17">
    <path d="M 102.056165 358.936875 
L 102.056165 270.98839 
L 279.368097 270.98839 
L 279.368097 358.936875 
z
" clip-path="url(#p71b469e5cf)" style="fill: #808080; opacity: 0.2; stroke: #808080; stroke-width: 2; stroke-linejoin: miter"/>
   </g>
   <g id="patch_18">
    <path d="M 456.680028 358.936875 
L 456.680028 270.98839 
L 633.99196 270.98839 
L 633.99196 358.936875 
z
" clip-path="url(#p71b469e5cf)" style="fill: #808080; opacity: 0.2; stroke: #808080; stroke-width: 2; stroke-linejoin: miter"/>
   </g>
   <g id="matplotlib.axis_5">
    <g id="xtick_7">
     <g id="line2d_16">
      <g>
       <use xlink:href="#m58df9072a6" x="190.712131" y="358.936875" style="stroke: #000000"/>
      </g>
     </g>
     <g id="text_10">
      <!-- 14.1 -->
      <g transform="translate(173.197287 381.320938)scale(0.18 -0.18)">
       <defs>
        <path id="ArialMT-2e" d="M 581 0 
L 581 641 
L 1222 641 
L 1222 0 
L 581 0 
z
" transform="scale(0.015625)"/>
       </defs>
       <use xlink:href="#ArialMT-31"/>
       <use xlink:href="#ArialMT-34" x="55.615234"/>
       <use xlink:href="#ArialMT-2e" x="111.230469"/>
       <use xlink:href="#ArialMT-31" x="139.013672"/>
      </g>
     </g>
    </g>
    <g id="xtick_8">
     <g id="line2d_17">
      <g>
       <use xlink:href="#m58df9072a6" x="368.024062" y="358.936875" style="stroke: #000000"/>
      </g>
     </g>
     <g id="text_11">
      <!-- 15.1 -->
      <g transform="translate(350.509219 381.320938)scale(0.18 -0.18)">
       <use xlink:href="#ArialMT-31"/>
       <use xlink:href="#ArialMT-35" x="55.615234"/>
       <use xlink:href="#ArialMT-2e" x="111.230469"/>
       <use xlink:href="#ArialMT-31" x="139.013672"/>
      </g>
     </g>
    </g>
    <g id="xtick_9">
     <g id="line2d_18">
      <g>
       <use xlink:href="#m58df9072a6" x="545.335994" y="358.936875" style="stroke: #000000"/>
      </g>
     </g>
     <g id="text_12">
      <!-- 16.1 -->
      <g transform="translate(527.821151 381.320938)scale(0.18 -0.18)">
       <defs>
        <path id="ArialMT-36" d="M 3184 3459 
L 2625 3416 
Q 2550 3747 2413 3897 
Q 2184 4138 1850 4138 
Q 1581 4138 1378 3988 
Q 1113 3794 959 3422 
Q 806 3050 800 2363 
Q 1003 2672 1297 2822 
Q 1591 2972 1913 2972 
Q 2475 2972 2870 2558 
Q 3266 2144 3266 1488 
Q 3266 1056 3080 686 
Q 2894 316 2569 119 
Q 2244 -78 1831 -78 
Q 1128 -78 684 439 
Q 241 956 241 2144 
Q 241 3472 731 4075 
Q 1159 4600 1884 4600 
Q 2425 4600 2770 4297 
Q 3116 3994 3184 3459 
z
M 888 1484 
Q 888 1194 1011 928 
Q 1134 663 1356 523 
Q 1578 384 1822 384 
Q 2178 384 2434 671 
Q 2691 959 2691 1453 
Q 2691 1928 2437 2201 
Q 2184 2475 1800 2475 
Q 1419 2475 1153 2201 
Q 888 1928 888 1484 
z
" transform="scale(0.015625)"/>
       </defs>
       <use xlink:href="#ArialMT-31"/>
       <use xlink:href="#ArialMT-36" x="55.615234"/>
       <use xlink:href="#ArialMT-2e" x="111.230469"/>
       <use xlink:href="#ArialMT-31" x="139.013672"/>
      </g>
     </g>
    </g>
    <g id="text_13">
     <!-- Zeit in d -->
     <g transform="translate(336.012187 401.7825)scale(0.18 -0.18)">
      <defs>
       <path id="ArialMT-5a" d="M 128 0 
L 128 563 
L 2475 3497 
Q 2725 3809 2950 4041 
L 394 4041 
L 394 4581 
L 3675 4581 
L 3675 4041 
L 1103 863 
L 825 541 
L 3750 541 
L 3750 0 
L 128 0 
z
" transform="scale(0.015625)"/>
       <path id="ArialMT-65" d="M 2694 1069 
L 3275 997 
Q 3138 488 2766 206 
Q 2394 -75 1816 -75 
Q 1088 -75 661 373 
Q 234 822 234 1631 
Q 234 2469 665 2931 
Q 1097 3394 1784 3394 
Q 2450 3394 2872 2941 
Q 3294 2488 3294 1666 
Q 3294 1616 3291 1516 
L 816 1516 
Q 847 969 1125 678 
Q 1403 388 1819 388 
Q 2128 388 2347 550 
Q 2566 713 2694 1069 
z
M 847 1978 
L 2700 1978 
Q 2663 2397 2488 2606 
Q 2219 2931 1791 2931 
Q 1403 2931 1139 2672 
Q 875 2413 847 1978 
z
" transform="scale(0.015625)"/>
       <path id="ArialMT-74" d="M 1650 503 
L 1731 6 
Q 1494 -44 1306 -44 
Q 1000 -44 831 53 
Q 663 150 594 308 
Q 525 466 525 972 
L 525 2881 
L 113 2881 
L 113 3319 
L 525 3319 
L 525 4141 
L 1084 4478 
L 1084 3319 
L 1650 3319 
L 1650 2881 
L 1084 2881 
L 1084 941 
Q 1084 700 1114 631 
Q 1144 563 1211 522 
Q 1278 481 1403 481 
Q 1497 481 1650 503 
z
" transform="scale(0.015625)"/>
       <path id="ArialMT-64" d="M 2575 0 
L 2575 419 
Q 2259 -75 1647 -75 
Q 1250 -75 917 144 
Q 584 363 401 755 
Q 219 1147 219 1656 
Q 219 2153 384 2558 
Q 550 2963 881 3178 
Q 1213 3394 1622 3394 
Q 1922 3394 2156 3267 
Q 2391 3141 2538 2938 
L 2538 4581 
L 3097 4581 
L 3097 0 
L 2575 0 
z
M 797 1656 
Q 797 1019 1065 703 
Q 1334 388 1700 388 
Q 2069 388 2326 689 
Q 2584 991 2584 1609 
Q 2584 2291 2321 2609 
Q 2059 2928 1675 2928 
Q 1300 2928 1048 2622 
Q 797 2316 797 1656 
z
" transform="scale(0.015625)"/>
      </defs>
      <use xlink:href="#ArialMT-5a"/>
      <use xlink:href="#ArialMT-65" x="61.083984"/>
      <use xlink:href="#ArialMT-69" x="116.699219"/>
      <use xlink:href="#ArialMT-74" x="138.916016"/>
      <use xlink:href="#ArialMT-20" x="166.699219"/>
      <use xlink:href="#ArialMT-69" x="194.482422"/>
      <use xlink:href="#ArialMT-6e" x="216.699219"/>
      <use xlink:href="#ArialMT-20" x="272.314453"/>
      <use xlink:href="#ArialMT-64" x="300.097656"/>
     </g>
    </g>
   </g>
   <g id="matplotlib.axis_6">
    <g id="ytick_7">
     <g id="line2d_19">
      <g>
       <use xlink:href="#m2e532ddf29" x="75.459375" y="354.939217" style="stroke: #000000"/>
      </g>
     </g>
     <g id="text_14">
      <!-- 0 -->
      <g transform="translate(55.949687 361.381248)scale(0.18 -0.18)">
       <use xlink:href="#ArialMT-30"/>
      </g>
     </g>
    </g>
    <g id="ytick_8">
     <g id="line2d_20">
      <g>
       <use xlink:href="#m2e532ddf29" x="75.459375" y="314.962632" style="stroke: #000000"/>
      </g>
     </g>
     <g id="text_15">
      <!-- 5 -->
      <g transform="translate(55.949687 321.404664)scale(0.18 -0.18)">
       <use xlink:href="#ArialMT-35"/>
      </g>
     </g>
    </g>
    <g id="ytick_9">
     <g id="line2d_21">
      <g>
       <use xlink:href="#m2e532ddf29" x="75.459375" y="274.986048" style="stroke: #000000"/>
      </g>
     </g>
     <g id="text_16">
      <!-- 10 -->
      <g transform="translate(45.94 281.428079)scale(0.18 -0.18)">
       <use xlink:href="#ArialMT-31"/>
       <use xlink:href="#ArialMT-30" x="55.615234"/>
      </g>
     </g>
    </g>
    <g id="text_17">
     <!-- $\dot{Q}_{\mathrm{Haus}}$ in kW -->
     <g transform="translate(38.3625 363.292632)rotate(-90)scale(0.18 -0.18)">
      <defs>
       <path id="DejaVuSans-48" d="M 628 4666 
L 1259 4666 
L 1259 2753 
L 3553 2753 
L 3553 4666 
L 4184 4666 
L 4184 0 
L 3553 0 
L 3553 2222 
L 1259 2222 
L 1259 0 
L 628 0 
L 628 4666 
z
" transform="scale(0.015625)"/>
       <path id="DejaVuSans-61" d="M 2194 1759 
Q 1497 1759 1228 1600 
Q 959 1441 959 1056 
Q 959 750 1161 570 
Q 1363 391 1709 391 
Q 2188 391 2477 730 
Q 2766 1069 2766 1631 
L 2766 1759 
L 2194 1759 
z
M 3341 1997 
L 3341 0 
L 2766 0 
L 2766 531 
Q 2569 213 2275 61 
Q 1981 -91 1556 -91 
Q 1019 -91 701 211 
Q 384 513 384 1019 
Q 384 1609 779 1909 
Q 1175 2209 1959 2209 
L 2766 2209 
L 2766 2266 
Q 2766 2663 2505 2880 
Q 2244 3097 1772 3097 
Q 1472 3097 1187 3025 
Q 903 2953 641 2809 
L 641 3341 
Q 956 3463 1253 3523 
Q 1550 3584 1831 3584 
Q 2591 3584 2966 3190 
Q 3341 2797 3341 1997 
z
" transform="scale(0.015625)"/>
       <path id="DejaVuSans-75" d="M 544 1381 
L 544 3500 
L 1119 3500 
L 1119 1403 
Q 1119 906 1312 657 
Q 1506 409 1894 409 
Q 2359 409 2629 706 
Q 2900 1003 2900 1516 
L 2900 3500 
L 3475 3500 
L 3475 0 
L 2900 0 
L 2900 538 
Q 2691 219 2414 64 
Q 2138 -91 1772 -91 
Q 1169 -91 856 284 
Q 544 659 544 1381 
z
M 1991 3584 
L 1991 3584 
z
" transform="scale(0.015625)"/>
       <path id="DejaVuSans-73" d="M 2834 3397 
L 2834 2853 
Q 2591 2978 2328 3040 
Q 2066 3103 1784 3103 
Q 1356 3103 1142 2972 
Q 928 2841 928 2578 
Q 928 2378 1081 2264 
Q 1234 2150 1697 2047 
L 1894 2003 
Q 2506 1872 2764 1633 
Q 3022 1394 3022 966 
Q 3022 478 2636 193 
Q 2250 -91 1575 -91 
Q 1294 -91 989 -36 
Q 684 19 347 128 
L 347 722 
Q 666 556 975 473 
Q 1284 391 1588 391 
Q 1994 391 2212 530 
Q 2431 669 2431 922 
Q 2431 1156 2273 1281 
Q 2116 1406 1581 1522 
L 1381 1569 
Q 847 1681 609 1914 
Q 372 2147 372 2553 
Q 372 3047 722 3315 
Q 1072 3584 1716 3584 
Q 2034 3584 2315 3537 
Q 2597 3491 2834 3397 
z
" transform="scale(0.015625)"/>
      </defs>
      <use xlink:href="#DejaVuSans-307" transform="translate(74.271484 31.015625)"/>
      <use xlink:href="#DejaVuSans-Oblique-51" transform="translate(0 0.296875)"/>
      <use xlink:href="#DejaVuSans-48" transform="translate(79.667969 -16.109375)scale(0.7)"/>
      <use xlink:href="#DejaVuSans-61" transform="translate(132.304688 -16.109375)scale(0.7)"/>
      <use xlink:href="#DejaVuSans-75" transform="translate(175.200195 -16.109375)scale(0.7)"/>
      <use xlink:href="#DejaVuSans-73" transform="translate(219.56543 -16.109375)scale(0.7)"/>
      <use xlink:href="#ArialMT-20" transform="translate(258.769531 0.296875)"/>
      <use xlink:href="#ArialMT-69" transform="translate(286.552734 0.296875)"/>
      <use xlink:href="#ArialMT-6e" transform="translate(308.769531 0.296875)"/>
      <use xlink:href="#ArialMT-20" transform="translate(364.384766 0.296875)"/>
      <use xlink:href="#ArialMT-6b" transform="translate(392.167969 0.296875)"/>
      <use xlink:href="#ArialMT-57" transform="translate(442.167969 0.296875)"/>
     </g>
    </g>
   </g>
   <g id="line2d_22">
    <path d="M 102.056165 317.37466 
L 111.291161 318.290923 
L 120.526158 318.841001 
L 131.608153 319.253239 
L 144.537148 319.444167 
L 153.772145 319.574011 
L 161.160142 320.892279 
L 168.548139 320.606047 
L 175.936136 315.439473 
L 183.324134 315.116142 
L 192.55913 316.437289 
L 203.641126 318.350408 
L 207.335124 318.852194 
L 214.723121 319.557381 
L 225.805117 320.103941 
L 227.652116 320.178457 
L 235.040114 321.578597 
L 242.428111 320.092428 
L 249.816108 313.522516 
L 257.204105 312.220239 
L 264.592102 312.802298 
L 273.827099 314.3342 
L 279.368097 315.105269 
L 301.532088 316.484301 
L 331.084077 319.191515 
L 338.472074 321.384791 
L 345.860071 321.553972 
L 353.248068 316.215658 
L 360.636065 316.139863 
L 369.871062 318.272054 
L 375.41206 319.704815 
L 382.800057 321.121265 
L 392.035053 322.206709 
L 404.964048 323.182458 
L 412.352045 327.109757 
L 419.740043 328.671083 
L 427.12804 321.804065 
L 434.516037 320.102981 
L 441.904034 320.338364 
L 471.456023 324.176755 
L 486.232017 325.577215 
L 501.008011 326.656583 
L 508.396009 327.128626 
L 515.784006 332.775239 
L 523.172003 334.574505 
L 530.56 327.58244 
L 537.947997 325.662605 
L 545.335994 325.742878 
L 569.346985 328.250209 
L 578.581982 328.782697 
L 582.27598 328.946122 
L 589.663977 334.973951 
L 597.051974 336.575253 
L 604.439972 329.038548 
L 611.827969 326.373229 
L 619.215966 325.726248 
L 628.450962 326.062691 
L 632.144961 326.339648 
L 632.144961 326.339648 
" clip-path="url(#p71b469e5cf)" style="fill: none; stroke: #57ab27; stroke-width: 2; stroke-linecap: square"/>
   </g>
   <g id="patch_19">
    <path d="M 75.459375 358.936875 
L 75.459375 270.98839 
" style="fill: none; stroke: #000000; stroke-linejoin: miter; stroke-linecap: square"/>
   </g>
   <g id="patch_20">
    <path d="M 660.58875 358.936875 
L 660.58875 270.98839 
" style="fill: none; stroke: #000000; stroke-linejoin: miter; stroke-linecap: square"/>
   </g>
   <g id="patch_21">
    <path d="M 75.459375 358.936875 
L 660.58875 358.936875 
" style="fill: none; stroke: #000000; stroke-linejoin: miter; stroke-linecap: square"/>
   </g>
   <g id="patch_22">
    <path d="M 75.459375 270.98839 
L 660.58875 270.98839 
" style="fill: none; stroke: #000000; stroke-linejoin: miter; stroke-linecap: square"/>
   </g>
  </g>
  <g id="axes_4">
   <g id="matplotlib.axis_7">
    <g id="ytick_10">
     <g id="line2d_23">
      <defs>
       <path id="m3e2bab2941" d="M 0 0 
L 6 0 
" style="stroke: #000000"/>
      </defs>
      <g>
       <use xlink:href="#m3e2bab2941" x="660.58875" y="122.274889" style="stroke: #000000"/>
      </g>
     </g>
     <g id="text_18">
      <!-- 0 -->
      <g transform="translate(670.08875 128.716921)scale(0.18 -0.18)">
       <use xlink:href="#ArialMT-30"/>
      </g>
     </g>
    </g>
    <g id="ytick_11">
     <g id="line2d_24">
      <g>
       <use xlink:href="#m3e2bab2941" x="660.58875" y="95.623833" style="stroke: #000000"/>
      </g>
     </g>
     <g id="text_19">
      <!-- 1 -->
      <g transform="translate(670.08875 102.065864)scale(0.18 -0.18)">
       <use xlink:href="#ArialMT-31"/>
      </g>
     </g>
    </g>
    <g id="ytick_12">
     <g id="line2d_25">
      <g>
       <use xlink:href="#m3e2bab2941" x="660.58875" y="68.972777" style="stroke: #000000"/>
      </g>
     </g>
     <g id="text_20">
      <!-- 2 -->
      <g transform="translate(670.08875 75.414808)scale(0.18 -0.18)">
       <use xlink:href="#ArialMT-32"/>
      </g>
     </g>
    </g>
    <g id="ytick_13">
     <g id="line2d_26">
      <g>
       <use xlink:href="#m3e2bab2941" x="660.58875" y="42.321721" style="stroke: #000000"/>
      </g>
     </g>
     <g id="text_21">
      <!-- 3 -->
      <g transform="translate(670.08875 48.763752)scale(0.18 -0.18)">
       <defs>
        <path id="ArialMT-33" d="M 269 1209 
L 831 1284 
Q 928 806 1161 595 
Q 1394 384 1728 384 
Q 2125 384 2398 659 
Q 2672 934 2672 1341 
Q 2672 1728 2419 1979 
Q 2166 2231 1775 2231 
Q 1616 2231 1378 2169 
L 1441 2663 
Q 1497 2656 1531 2656 
Q 1891 2656 2178 2843 
Q 2466 3031 2466 3422 
Q 2466 3731 2256 3934 
Q 2047 4138 1716 4138 
Q 1388 4138 1169 3931 
Q 950 3725 888 3313 
L 325 3413 
Q 428 3978 793 4289 
Q 1159 4600 1703 4600 
Q 2078 4600 2393 4439 
Q 2709 4278 2876 4000 
Q 3044 3722 3044 3409 
Q 3044 3113 2884 2869 
Q 2725 2625 2413 2481 
Q 2819 2388 3044 2092 
Q 3269 1797 3269 1353 
Q 3269 753 2831 336 
Q 2394 -81 1725 -81 
Q 1122 -81 723 278 
Q 325 638 269 1209 
z
" transform="scale(0.015625)"/>
       </defs>
       <use xlink:href="#ArialMT-33"/>
      </g>
     </g>
    </g>
    <g id="text_22">
     <!-- Modus -->
     <g transform="translate(696.9825 109.309555)rotate(-90)scale(0.18 -0.18)">
      <defs>
       <path id="ArialMT-4d" d="M 475 0 
L 475 4581 
L 1388 4581 
L 2472 1338 
Q 2622 884 2691 659 
Q 2769 909 2934 1394 
L 4031 4581 
L 4847 4581 
L 4847 0 
L 4263 0 
L 4263 3834 
L 2931 0 
L 2384 0 
L 1059 3900 
L 1059 0 
L 475 0 
z
" transform="scale(0.015625)"/>
       <path id="ArialMT-6f" d="M 213 1659 
Q 213 2581 725 3025 
Q 1153 3394 1769 3394 
Q 2453 3394 2887 2945 
Q 3322 2497 3322 1706 
Q 3322 1066 3130 698 
Q 2938 331 2570 128 
Q 2203 -75 1769 -75 
Q 1072 -75 642 372 
Q 213 819 213 1659 
z
M 791 1659 
Q 791 1022 1069 705 
Q 1347 388 1769 388 
Q 2188 388 2466 706 
Q 2744 1025 2744 1678 
Q 2744 2294 2464 2611 
Q 2184 2928 1769 2928 
Q 1347 2928 1069 2612 
Q 791 2297 791 1659 
z
" transform="scale(0.015625)"/>
       <path id="ArialMT-75" d="M 2597 0 
L 2597 488 
Q 2209 -75 1544 -75 
Q 1250 -75 995 37 
Q 741 150 617 320 
Q 494 491 444 738 
Q 409 903 409 1263 
L 409 3319 
L 972 3319 
L 972 1478 
Q 972 1038 1006 884 
Q 1059 663 1231 536 
Q 1403 409 1656 409 
Q 1909 409 2131 539 
Q 2353 669 2445 892 
Q 2538 1116 2538 1541 
L 2538 3319 
L 3100 3319 
L 3100 0 
L 2597 0 
z
" transform="scale(0.015625)"/>
       <path id="ArialMT-73" d="M 197 991 
L 753 1078 
Q 800 744 1014 566 
Q 1228 388 1613 388 
Q 2000 388 2187 545 
Q 2375 703 2375 916 
Q 2375 1106 2209 1216 
Q 2094 1291 1634 1406 
Q 1016 1563 777 1677 
Q 538 1791 414 1992 
Q 291 2194 291 2438 
Q 291 2659 392 2848 
Q 494 3038 669 3163 
Q 800 3259 1026 3326 
Q 1253 3394 1513 3394 
Q 1903 3394 2198 3281 
Q 2494 3169 2634 2976 
Q 2775 2784 2828 2463 
L 2278 2388 
Q 2241 2644 2061 2787 
Q 1881 2931 1553 2931 
Q 1166 2931 1000 2803 
Q 834 2675 834 2503 
Q 834 2394 903 2306 
Q 972 2216 1119 2156 
Q 1203 2125 1616 2013 
Q 2213 1853 2448 1751 
Q 2684 1650 2818 1456 
Q 2953 1263 2953 975 
Q 2953 694 2789 445 
Q 2625 197 2315 61 
Q 2006 -75 1616 -75 
Q 969 -75 630 194 
Q 291 463 197 991 
z
" transform="scale(0.015625)"/>
      </defs>
      <use xlink:href="#ArialMT-4d"/>
      <use xlink:href="#ArialMT-6f" x="83.300781"/>
      <use xlink:href="#ArialMT-64" x="138.916016"/>
      <use xlink:href="#ArialMT-75" x="194.53125"/>
      <use xlink:href="#ArialMT-73" x="250.146484"/>
     </g>
    </g>
   </g>
   <g id="line2d_27">
    <path d="M 102.056165 68.972777 
L 137.149151 68.972777 
L 137.149151 42.321721 
L 138.996151 42.321721 
L 138.996151 68.972777 
L 172.242138 68.972777 
L 172.242138 42.321721 
L 174.089137 42.321721 
L 174.089137 68.972777 
L 177.783136 68.972777 
L 177.783136 42.321721 
L 179.630135 42.321721 
L 179.630135 68.972777 
L 192.55913 68.972777 
L 192.55913 42.321721 
L 194.406129 42.321721 
L 194.406129 68.972777 
L 199.947127 68.972777 
L 199.947127 42.321721 
L 201.794126 42.321721 
L 201.794126 68.972777 
L 203.641126 68.972777 
L 203.641126 42.321721 
L 205.488125 42.321721 
L 205.488125 68.972777 
L 207.335124 68.972777 
L 207.335124 42.321721 
L 209.182124 42.321721 
L 209.182124 68.972777 
L 211.029123 68.972777 
L 211.029123 42.321721 
L 212.876122 42.321721 
L 212.876122 68.972777 
L 214.723121 68.972777 
L 214.723121 42.321721 
L 216.570121 42.321721 
L 216.570121 68.972777 
L 238.734112 68.972777 
L 238.734112 42.321721 
L 240.581112 42.321721 
L 240.581112 68.972777 
L 255.357106 68.972777 
L 255.357106 122.274889 
L 257.204105 122.274889 
L 257.204105 68.972777 
L 273.827099 68.972777 
L 273.827099 42.321721 
L 275.674098 42.321721 
L 275.674098 68.972777 
L 310.767085 68.972777 
L 310.767085 42.321721 
L 312.614084 42.321721 
L 312.614084 68.972777 
L 329.237077 68.972777 
L 329.237077 42.321721 
L 331.084077 42.321721 
L 331.084077 68.972777 
L 347.70707 68.972777 
L 347.70707 42.321721 
L 349.55407 42.321721 
L 349.55407 68.972777 
L 360.636065 68.972777 
L 360.636065 42.321721 
L 362.483065 42.321721 
L 362.483065 68.972777 
L 377.259059 68.972777 
L 377.259059 42.321721 
L 380.953058 42.321721 
L 380.953058 68.972777 
L 384.647056 68.972777 
L 384.647056 42.321721 
L 386.494055 42.321721 
L 386.494055 68.972777 
L 388.341055 68.972777 
L 388.341055 42.321721 
L 392.035053 42.321721 
L 392.035053 68.972777 
L 397.576051 68.972777 
L 397.576051 42.321721 
L 399.42305 42.321721 
L 399.42305 68.972777 
L 403.117049 68.972777 
L 403.117049 122.274889 
L 404.964048 122.274889 
L 404.964048 68.972777 
L 412.352045 68.972777 
L 412.352045 122.274889 
L 414.199045 122.274889 
L 414.199045 68.972777 
L 417.893043 68.972777 
L 417.893043 122.274889 
L 419.740043 122.274889 
L 419.740043 68.972777 
L 432.669038 68.972777 
L 432.669038 42.321721 
L 434.516037 42.321721 
L 434.516037 68.972777 
L 436.363036 68.972777 
L 436.363036 122.274889 
L 438.210036 122.274889 
L 438.210036 68.972777 
L 443.751033 68.972777 
L 443.751033 42.321721 
L 445.598033 42.321721 
L 445.598033 68.972777 
L 449.292031 68.972777 
L 449.292031 122.274889 
L 451.139031 122.274889 
L 451.139031 68.972777 
L 486.232017 68.972777 
L 486.232017 42.321721 
L 488.079016 42.321721 
L 488.079016 68.972777 
L 512.090007 68.972777 
L 512.090007 95.623833 
L 526.866001 95.623833 
L 526.866001 68.972777 
L 561.958988 68.972777 
L 561.958988 42.321721 
L 563.805987 42.321721 
L 563.805987 68.972777 
L 571.193984 68.972777 
L 571.193984 42.321721 
L 573.040984 42.321721 
L 573.040984 68.972777 
L 580.428981 68.972777 
L 580.428981 42.321721 
L 582.27598 42.321721 
L 582.27598 95.623833 
L 584.122979 95.623833 
L 584.122979 68.972777 
L 585.969979 68.972777 
L 585.969979 42.321721 
L 587.816978 42.321721 
L 587.816978 95.623833 
L 591.510977 95.623833 
L 591.510977 68.972777 
L 593.357976 68.972777 
L 593.357976 42.321721 
L 595.204975 42.321721 
L 595.204975 95.623833 
L 602.592972 95.623833 
L 602.592972 68.972777 
L 608.13397 68.972777 
L 608.13397 42.321721 
L 609.980969 42.321721 
L 609.980969 68.972777 
L 630.297962 68.972777 
L 630.297962 42.321721 
L 632.144961 42.321721 
L 632.144961 42.321721 
" clip-path="url(#pdd0341cba5)" style="fill: none; stroke: #407fb7; stroke-width: 2; stroke-linecap: square"/>
   </g>
   <g id="patch_23">
    <path d="M 75.459375 126.272548 
L 75.459375 38.324062 
" style="fill: none; stroke: #000000; stroke-linejoin: miter; stroke-linecap: square"/>
   </g>
   <g id="patch_24">
    <path d="M 660.58875 126.272548 
L 660.58875 38.324062 
" style="fill: none; stroke: #000000; stroke-linejoin: miter; stroke-linecap: square"/>
   </g>
   <g id="patch_25">
    <path d="M 75.459375 126.272548 
L 660.58875 126.272548 
" style="fill: none; stroke: #000000; stroke-linejoin: miter; stroke-linecap: square"/>
   </g>
   <g id="patch_26">
    <path d="M 75.459375 38.324062 
L 660.58875 38.324062 
" style="fill: none; stroke: #000000; stroke-linejoin: miter; stroke-linecap: square"/>
   </g>
  </g>
  <g id="axes_5">
   <g id="matplotlib.axis_8">
    <g id="ytick_14">
     <g id="line2d_28">
      <g>
       <use xlink:href="#m3e2bab2941" x="660.58875" y="356.842863" style="stroke: #000000"/>
      </g>
     </g>
     <g id="text_23">
      <!-- 0 -->
      <g transform="translate(670.08875 363.284895)scale(0.18 -0.18)">
       <use xlink:href="#ArialMT-30"/>
      </g>
     </g>
    </g>
    <g id="ytick_15">
     <g id="line2d_29">
      <g>
       <use xlink:href="#m3e2bab2941" x="660.58875" y="287.042478" style="stroke: #000000"/>
      </g>
     </g>
     <g id="text_24">
      <!-- 5 -->
      <g transform="translate(670.08875 293.48451)scale(0.18 -0.18)">
       <use xlink:href="#ArialMT-35"/>
      </g>
     </g>
    </g>
    <g id="text_25">
     <!-- $P_\mathrm{PV}$ in kW -->
     <g transform="translate(696.9825 353.752632)rotate(-90)scale(0.18 -0.18)">
      <defs>
       <path id="DejaVuSans-Oblique-50" d="M 1081 4666 
L 2541 4666 
Q 3178 4666 3512 4369 
Q 3847 4072 3847 3500 
Q 3847 2731 3353 2303 
Q 2859 1875 1966 1875 
L 1172 1875 
L 806 0 
L 172 0 
L 1081 4666 
z
M 1613 4147 
L 1275 2394 
L 2069 2394 
Q 2606 2394 2893 2669 
Q 3181 2944 3181 3456 
Q 3181 3784 2986 3965 
Q 2791 4147 2438 4147 
L 1613 4147 
z
" transform="scale(0.015625)"/>
       <path id="DejaVuSans-56" d="M 1831 0 
L 50 4666 
L 709 4666 
L 2188 738 
L 3669 4666 
L 4325 4666 
L 2547 0 
L 1831 0 
z
" transform="scale(0.015625)"/>
      </defs>
      <use xlink:href="#DejaVuSans-Oblique-50" transform="translate(0 0.09375)"/>
      <use xlink:href="#DejaVuSans-50" transform="translate(60.302734 -16.3125)scale(0.7)"/>
      <use xlink:href="#DejaVuSans-56" transform="translate(102.514648 -16.3125)scale(0.7)"/>
      <use xlink:href="#ArialMT-20" transform="translate(153.134766 0.09375)"/>
      <use xlink:href="#ArialMT-69" transform="translate(180.917969 0.09375)"/>
      <use xlink:href="#ArialMT-6e" transform="translate(203.134766 0.09375)"/>
      <use xlink:href="#ArialMT-20" transform="translate(258.75 0.09375)"/>
      <use xlink:href="#ArialMT-6b" transform="translate(286.533203 0.09375)"/>
      <use xlink:href="#ArialMT-57" transform="translate(336.533203 0.09375)"/>
     </g>
    </g>
   </g>
   <g id="line2d_30">
    <path d="M 102.056165 356.842863 
L 161.160142 356.842863 
L 168.548139 353.444422 
L 175.936136 352.264517 
L 183.324134 354.029629 
L 190.712131 354.776772 
L 201.794126 354.996783 
L 205.488125 355.130241 
L 214.723121 356.309589 
L 220.264119 356.842863 
L 338.472074 356.842863 
L 345.860071 353.433813 
L 355.095067 353.203192 
L 360.636065 352.921199 
L 368.024062 351.239847 
L 375.41206 351.51514 
L 382.800057 354.963837 
L 390.188054 356.140392 
L 397.576051 356.842863 
L 515.784006 356.842863 
L 525.019002 355.420611 
L 530.56 354.390357 
L 537.947997 354.210551 
L 558.264989 355.575847 
L 563.805987 356.10968 
L 569.346985 356.578739 
L 576.734982 356.842863 
L 632.144961 356.842863 
L 632.144961 356.842863 
" clip-path="url(#p71b469e5cf)" style="fill: none; stroke: #612158; stroke-width: 2; stroke-linecap: square"/>
   </g>
   <g id="patch_27">
    <path d="M 75.459375 358.936875 
L 75.459375 270.98839 
" style="fill: none; stroke: #000000; stroke-linejoin: miter; stroke-linecap: square"/>
   </g>
   <g id="patch_28">
    <path d="M 660.58875 358.936875 
L 660.58875 270.98839 
" style="fill: none; stroke: #000000; stroke-linejoin: miter; stroke-linecap: square"/>
   </g>
   <g id="patch_29">
    <path d="M 75.459375 358.936875 
L 660.58875 358.936875 
" style="fill: none; stroke: #000000; stroke-linejoin: miter; stroke-linecap: square"/>
   </g>
   <g id="patch_30">
    <path d="M 75.459375 270.98839 
L 660.58875 270.98839 
" style="fill: none; stroke: #000000; stroke-linejoin: miter; stroke-linecap: square"/>
   </g>
  </g>
  <g id="legend_1">
   <g id="line2d_31">
    <path d="M 71.626298 14.888543 
L 86.620298 14.888543 
L 101.614298 14.888543 
" style="fill: none; stroke: #cc071e; stroke-width: 2; stroke-linecap: square"/>
   </g>
   <g id="text_26">
    <!-- $\dot{Q}_{\mathrm{WP}}$ -->
    <g transform="translate(113.609498 20.136443)scale(0.14994 -0.14994)">
     <use xlink:href="#DejaVuSans-307" transform="translate(74.271484 31.015625)"/>
     <use xlink:href="#DejaVuSans-Oblique-51" transform="translate(0 0.296875)"/>
     <use xlink:href="#DejaVuSans-57" transform="translate(79.667969 -16.109375)scale(0.7)"/>
     <use xlink:href="#DejaVuSans-50" transform="translate(148.881836 -16.109375)scale(0.7)"/>
    </g>
   </g>
   <g id="line2d_32">
    <path d="M 172.685858 14.888543 
L 187.679858 14.888543 
L 202.673858 14.888543 
" style="fill: none; stroke: #407fb7; stroke-width: 2; stroke-linecap: square"/>
   </g>
   <g id="text_27">
    <!-- Modus -->
    <g transform="translate(214.669058 20.136443)scale(0.14994 -0.14994)">
     <use xlink:href="#ArialMT-4d"/>
     <use xlink:href="#ArialMT-6f" x="83.300781"/>
     <use xlink:href="#ArialMT-64" x="138.916016"/>
     <use xlink:href="#ArialMT-75" x="194.53125"/>
     <use xlink:href="#ArialMT-73" x="250.146484"/>
    </g>
   </g>
   <g id="line2d_33">
    <path d="M 289.6578 14.888543 
L 304.6518 14.888543 
L 319.6458 14.888543 
" style="fill: none; stroke: #f6a800; stroke-width: 2; stroke-linecap: square"/>
   </g>
   <g id="text_28">
    <!-- $T_{\mathrm{PS}}$ -->
    <g transform="translate(331.641 20.136443)scale(0.14994 -0.14994)">
     <defs>
      <path id="DejaVuSans-53" d="M 3425 4513 
L 3425 3897 
Q 3066 4069 2747 4153 
Q 2428 4238 2131 4238 
Q 1616 4238 1336 4038 
Q 1056 3838 1056 3469 
Q 1056 3159 1242 3001 
Q 1428 2844 1947 2747 
L 2328 2669 
Q 3034 2534 3370 2195 
Q 3706 1856 3706 1288 
Q 3706 609 3251 259 
Q 2797 -91 1919 -91 
Q 1588 -91 1214 -16 
Q 841 59 441 206 
L 441 856 
Q 825 641 1194 531 
Q 1563 422 1919 422 
Q 2459 422 2753 634 
Q 3047 847 3047 1241 
Q 3047 1584 2836 1778 
Q 2625 1972 2144 2069 
L 1759 2144 
Q 1053 2284 737 2584 
Q 422 2884 422 3419 
Q 422 4038 858 4394 
Q 1294 4750 2059 4750 
Q 2388 4750 2728 4690 
Q 3069 4631 3425 4513 
z
" transform="scale(0.015625)"/>
     </defs>
     <use xlink:href="#DejaVuSans-Oblique-54" transform="translate(0 0.09375)"/>
     <use xlink:href="#DejaVuSans-50" transform="translate(61.083984 -16.3125)scale(0.7)"/>
     <use xlink:href="#DejaVuSans-53" transform="translate(103.295898 -16.3125)scale(0.7)"/>
    </g>
   </g>
   <g id="line2d_34">
    <path d="M 384.26994 14.888543 
L 399.26394 14.888543 
L 414.25794 14.888543 
" style="fill: none; stroke: #0098a1; stroke-width: 2; stroke-linecap: square"/>
   </g>
   <g id="text_29">
    <!-- $T_{\mathrm{TWW}}$ -->
    <g transform="translate(426.25314 20.136443)scale(0.14994 -0.14994)">
     <defs>
      <path id="DejaVuSans-54" d="M -19 4666 
L 3928 4666 
L 3928 4134 
L 2272 4134 
L 2272 0 
L 1638 0 
L 1638 4134 
L -19 4134 
L -19 4666 
z
" transform="scale(0.015625)"/>
     </defs>
     <use xlink:href="#DejaVuSans-Oblique-54" transform="translate(0 0.09375)"/>
     <use xlink:href="#DejaVuSans-54" transform="translate(61.083984 -16.3125)scale(0.7)"/>
     <use xlink:href="#DejaVuSans-57" transform="translate(103.842773 -16.3125)scale(0.7)"/>
     <use xlink:href="#DejaVuSans-57" transform="translate(173.056641 -16.3125)scale(0.7)"/>
    </g>
   </g>
   <g id="line2d_35">
    <path d="M 493.12638 14.888543 
L 508.12038 14.888543 
L 523.11438 14.888543 
" style="fill: none; stroke: #57ab27; stroke-width: 2; stroke-linecap: square"/>
   </g>
   <g id="text_30">
    <!-- $\dot{Q}_{\mathrm{Haus}}$ -->
    <g transform="translate(535.10958 20.136443)scale(0.14994 -0.14994)">
     <use xlink:href="#DejaVuSans-307" transform="translate(74.271484 31.015625)"/>
     <use xlink:href="#DejaVuSans-Oblique-51" transform="translate(0 0.296875)"/>
     <use xlink:href="#DejaVuSans-48" transform="translate(79.667969 -16.109375)scale(0.7)"/>
     <use xlink:href="#DejaVuSans-61" transform="translate(132.304688 -16.109375)scale(0.7)"/>
     <use xlink:href="#DejaVuSans-75" transform="translate(175.200195 -16.109375)scale(0.7)"/>
     <use xlink:href="#DejaVuSans-73" transform="translate(219.56543 -16.109375)scale(0.7)"/>
    </g>
   </g>
   <g id="line2d_36">
    <path d="M 603.93204 14.888543 
L 618.92604 14.888543 
L 633.92004 14.888543 
" style="fill: none; stroke: #612158; stroke-width: 2; stroke-linecap: square"/>
   </g>
   <g id="text_31">
    <!-- $P_{\mathrm{PV}}$ -->
    <g transform="translate(645.91524 20.136443)scale(0.14994 -0.14994)">
     <use xlink:href="#DejaVuSans-Oblique-50" transform="translate(0 0.09375)"/>
     <use xlink:href="#DejaVuSans-50" transform="translate(60.302734 -16.3125)scale(0.7)"/>
     <use xlink:href="#DejaVuSans-56" transform="translate(102.514648 -16.3125)scale(0.7)"/>
    </g>
   </g>
  </g>
 </g>
 <defs>
  <clipPath id="pdd0341cba5">
   <rect x="75.459375" y="38.324062" width="585.129375" height="87.948485"/>
  </clipPath>
  <clipPath id="p42aad3807f">
   <rect x="75.459375" y="154.656226" width="585.129375" height="87.948485"/>
  </clipPath>
  <clipPath id="p71b469e5cf">
   <rect x="75.459375" y="270.98839" width="585.129375" height="87.948485"/>
  </clipPath>
 </defs>
</svg>
