<?xml version="1.0" encoding="utf-8" standalone="no"?>
<!DOCTYPE svg PUBLIC "-//W3C//DTD SVG 1.1//EN"
  "http://www.w3.org/Graphics/SVG/1.1/DTD/svg11.dtd">
<svg xmlns:xlink="http://www.w3.org/1999/xlink" width="720pt" height="424.8pt" viewBox="0 0 720 424.8" xmlns="http://www.w3.org/2000/svg" version="1.1">
 <metadata>
  <rdf:RDF xmlns:dc="http://purl.org/dc/elements/1.1/" xmlns:cc="http://creativecommons.org/ns#" xmlns:rdf="http://www.w3.org/1999/02/22-rdf-syntax-ns#">
   <cc:Work>
    <dc:type rdf:resource="http://purl.org/dc/dcmitype/StillImage"/>
    <dc:date>2023-06-08T11:43:47.373989</dc:date>
    <dc:format>image/svg+xml</dc:format>
    <dc:creator>
     <cc:Agent>
      <dc:title>Matplotlib v3.5.3, https://matplotlib.org/</dc:title>
     </cc:Agent>
    </dc:creator>
   </cc:Work>
  </rdf:RDF>
 </metadata>
 <defs>
  <style type="text/css">*{stroke-linejoin: round; stroke-linecap: butt}</style>
 </defs>
 <g id="figure_1">
  <g id="patch_1">
   <path d="M 0 424.8 
L 720 424.8 
L 720 0 
L 0 0 
z
" style="fill: #ffffff"/>
  </g>
  <g id="axes_1">
   <g id="patch_2">
    <path d="M 75.459375 126.272548 
L 660.58875 126.272548 
L 660.58875 38.324062 
L 75.459375 38.324062 
z
" style="fill: #ffffff"/>
   </g>
   <g id="patch_3">
    <path d="M 102.056165 126.272548 
L 102.056165 38.324062 
L 279.368097 38.324062 
L 279.368097 126.272548 
z
" clip-path="url(#p4aa005673e)" style="fill: #808080; opacity: 0.2; stroke: #808080; stroke-width: 2; stroke-linejoin: miter"/>
   </g>
   <g id="patch_4">
    <path d="M 456.680028 126.272548 
L 456.680028 38.324062 
L 633.99196 38.324062 
L 633.99196 126.272548 
z
" clip-path="url(#p4aa005673e)" style="fill: #808080; opacity: 0.2; stroke: #808080; stroke-width: 2; stroke-linejoin: miter"/>
   </g>
   <g id="matplotlib.axis_1">
    <g id="xtick_1">
     <g id="line2d_1">
      <defs>
       <path id="m4a1cccbdb5" d="M 0 0 
L 0 6 
" style="stroke: #000000"/>
      </defs>
      <g>
       <use xlink:href="#m4a1cccbdb5" x="190.712131" y="126.272548" style="stroke: #000000"/>
      </g>
     </g>
    </g>
    <g id="xtick_2">
     <g id="line2d_2">
      <g>
       <use xlink:href="#m4a1cccbdb5" x="368.024062" y="126.272548" style="stroke: #000000"/>
      </g>
     </g>
    </g>
    <g id="xtick_3">
     <g id="line2d_3">
      <g>
       <use xlink:href="#m4a1cccbdb5" x="545.335994" y="126.272548" style="stroke: #000000"/>
      </g>
     </g>
    </g>
   </g>
   <g id="matplotlib.axis_2">
    <g id="ytick_1">
     <g id="line2d_4">
      <defs>
       <path id="mfb3362f5db" d="M 0 0 
L -6 0 
" style="stroke: #000000"/>
      </defs>
      <g>
       <use xlink:href="#mfb3362f5db" x="75.459375" y="122.274889" style="stroke: #000000"/>
      </g>
     </g>
     <g id="text_1">
      <!-- 0 -->
      <g transform="translate(55.949687 128.716921)scale(0.18 -0.18)">
       <defs>
        <path id="ArialMT-30" d="M 266 2259 
Q 266 3072 433 3567 
Q 600 4063 929 4331 
Q 1259 4600 1759 4600 
Q 2128 4600 2406 4451 
Q 2684 4303 2865 4023 
Q 3047 3744 3150 3342 
Q 3253 2941 3253 2259 
Q 3253 1453 3087 958 
Q 2922 463 2592 192 
Q 2263 -78 1759 -78 
Q 1097 -78 719 397 
Q 266 969 266 2259 
z
M 844 2259 
Q 844 1131 1108 757 
Q 1372 384 1759 384 
Q 2147 384 2411 759 
Q 2675 1134 2675 2259 
Q 2675 3391 2411 3762 
Q 2147 4134 1753 4134 
Q 1366 4134 1134 3806 
Q 844 3388 844 2259 
z
" transform="scale(0.015625)"/>
       </defs>
       <use xlink:href="#ArialMT-30"/>
      </g>
     </g>
    </g>
    <g id="ytick_2">
     <g id="line2d_5">
      <g>
       <use xlink:href="#mfb3362f5db" x="75.459375" y="82.298305" style="stroke: #000000"/>
      </g>
     </g>
     <g id="text_2">
      <!-- 5 -->
      <g transform="translate(55.949687 88.740336)scale(0.18 -0.18)">
       <defs>
        <path id="ArialMT-35" d="M 266 1200 
L 856 1250 
Q 922 819 1161 601 
Q 1400 384 1738 384 
Q 2144 384 2425 690 
Q 2706 997 2706 1503 
Q 2706 1984 2436 2262 
Q 2166 2541 1728 2541 
Q 1456 2541 1237 2417 
Q 1019 2294 894 2097 
L 366 2166 
L 809 4519 
L 3088 4519 
L 3088 3981 
L 1259 3981 
L 1013 2750 
Q 1425 3038 1878 3038 
Q 2478 3038 2890 2622 
Q 3303 2206 3303 1553 
Q 3303 931 2941 478 
Q 2500 -78 1738 -78 
Q 1113 -78 717 272 
Q 322 622 266 1200 
z
" transform="scale(0.015625)"/>
       </defs>
       <use xlink:href="#ArialMT-35"/>
      </g>
     </g>
    </g>
    <g id="ytick_3">
     <g id="line2d_6">
      <g>
       <use xlink:href="#mfb3362f5db" x="75.459375" y="42.321721" style="stroke: #000000"/>
      </g>
     </g>
     <g id="text_3">
      <!-- 10 -->
      <g transform="translate(45.94 48.763752)scale(0.18 -0.18)">
       <defs>
        <path id="ArialMT-31" d="M 2384 0 
L 1822 0 
L 1822 3584 
Q 1619 3391 1289 3197 
Q 959 3003 697 2906 
L 697 3450 
Q 1169 3672 1522 3987 
Q 1875 4303 2022 4600 
L 2384 4600 
L 2384 0 
z
" transform="scale(0.015625)"/>
       </defs>
       <use xlink:href="#ArialMT-31"/>
       <use xlink:href="#ArialMT-30" x="55.615234"/>
      </g>
     </g>
    </g>
    <g id="text_4">
     <!-- $\dot{Q}_{\mathrm{WP}}$ in kW -->
     <g transform="translate(38.3625 124.778305)rotate(-90)scale(0.18 -0.18)">
      <defs>
       <path id="DejaVuSans-307" d="M -1894 4863 
L -1319 4863 
L -1319 4134 
L -1894 4134 
L -1894 4863 
z
M -1600 3584 
L -1600 3584 
z
" transform="scale(0.015625)"/>
       <path id="DejaVuSans-Oblique-51" d="M 2309 -84 
Q 2275 -88 2237 -89 
Q 2200 -91 2125 -91 
Q 1250 -91 756 411 
Q 263 913 263 1797 
Q 263 2319 452 2844 
Q 641 3369 978 3788 
Q 1369 4269 1858 4509 
Q 2347 4750 2938 4750 
Q 3794 4750 4287 4245 
Q 4781 3741 4781 2869 
Q 4781 1928 4265 1147 
Q 3750 366 2919 44 
L 3553 -825 
L 2847 -825 
L 2309 -84 
z
M 2919 4238 
Q 2400 4238 2003 3986 
Q 1606 3734 1313 3219 
Q 1125 2891 1026 2522 
Q 928 2153 928 1778 
Q 928 1128 1239 775 
Q 1550 422 2119 422 
Q 2631 422 3032 676 
Q 3434 931 3719 1434 
Q 3909 1772 4009 2142 
Q 4109 2513 4109 2881 
Q 4109 3528 3796 3883 
Q 3484 4238 2919 4238 
z
" transform="scale(0.015625)"/>
       <path id="DejaVuSans-57" d="M 213 4666 
L 850 4666 
L 1831 722 
L 2809 4666 
L 3519 4666 
L 4500 722 
L 5478 4666 
L 6119 4666 
L 4947 0 
L 4153 0 
L 3169 4050 
L 2175 0 
L 1381 0 
L 213 4666 
z
" transform="scale(0.015625)"/>
       <path id="DejaVuSans-50" d="M 1259 4147 
L 1259 2394 
L 2053 2394 
Q 2494 2394 2734 2622 
Q 2975 2850 2975 3272 
Q 2975 3691 2734 3919 
Q 2494 4147 2053 4147 
L 1259 4147 
z
M 628 4666 
L 2053 4666 
Q 2838 4666 3239 4311 
Q 3641 3956 3641 3272 
Q 3641 2581 3239 2228 
Q 2838 1875 2053 1875 
L 1259 1875 
L 1259 0 
L 628 0 
L 628 4666 
z
" transform="scale(0.015625)"/>
       <path id="ArialMT-20" transform="scale(0.015625)"/>
       <path id="ArialMT-69" d="M 425 3934 
L 425 4581 
L 988 4581 
L 988 3934 
L 425 3934 
z
M 425 0 
L 425 3319 
L 988 3319 
L 988 0 
L 425 0 
z
" transform="scale(0.015625)"/>
       <path id="ArialMT-6e" d="M 422 0 
L 422 3319 
L 928 3319 
L 928 2847 
Q 1294 3394 1984 3394 
Q 2284 3394 2536 3286 
Q 2788 3178 2913 3003 
Q 3038 2828 3088 2588 
Q 3119 2431 3119 2041 
L 3119 0 
L 2556 0 
L 2556 2019 
Q 2556 2363 2490 2533 
Q 2425 2703 2258 2804 
Q 2091 2906 1866 2906 
Q 1506 2906 1245 2678 
Q 984 2450 984 1813 
L 984 0 
L 422 0 
z
" transform="scale(0.015625)"/>
       <path id="ArialMT-6b" d="M 425 0 
L 425 4581 
L 988 4581 
L 988 1969 
L 2319 3319 
L 3047 3319 
L 1778 2088 
L 3175 0 
L 2481 0 
L 1384 1697 
L 988 1316 
L 988 0 
L 425 0 
z
" transform="scale(0.015625)"/>
       <path id="ArialMT-57" d="M 1294 0 
L 78 4581 
L 700 4581 
L 1397 1578 
Q 1509 1106 1591 641 
Q 1766 1375 1797 1488 
L 2669 4581 
L 3400 4581 
L 4056 2263 
Q 4303 1400 4413 641 
Q 4500 1075 4641 1638 
L 5359 4581 
L 5969 4581 
L 4713 0 
L 4128 0 
L 3163 3491 
Q 3041 3928 3019 4028 
Q 2947 3713 2884 3491 
L 1913 0 
L 1294 0 
z
" transform="scale(0.015625)"/>
      </defs>
      <use xlink:href="#DejaVuSans-307" transform="translate(74.271484 31.015625)"/>
      <use xlink:href="#DejaVuSans-Oblique-51" transform="translate(0 0.296875)"/>
      <use xlink:href="#DejaVuSans-57" transform="translate(79.667969 -16.109375)scale(0.7)"/>
      <use xlink:href="#DejaVuSans-50" transform="translate(148.881836 -16.109375)scale(0.7)"/>
      <use xlink:href="#ArialMT-20" transform="translate(193.828125 0.296875)"/>
      <use xlink:href="#ArialMT-69" transform="translate(221.611328 0.296875)"/>
      <use xlink:href="#ArialMT-6e" transform="translate(243.828125 0.296875)"/>
      <use xlink:href="#ArialMT-20" transform="translate(299.443359 0.296875)"/>
      <use xlink:href="#ArialMT-6b" transform="translate(327.226562 0.296875)"/>
      <use xlink:href="#ArialMT-57" transform="translate(377.226562 0.296875)"/>
     </g>
    </g>
   </g>
   <g id="line2d_7">
    <path d="M 102.056165 122.274889 
L 150.078146 122.274889 
L 151.925146 100.556411 
L 153.772145 122.274889 
L 168.548139 122.274889 
L 170.395138 69.614535 
L 172.242138 122.274889 
L 194.406129 122.274889 
L 196.253129 102.286597 
L 198.100128 102.286597 
L 199.947127 57.823041 
L 201.794126 122.274889 
L 203.641126 102.286597 
L 205.488125 122.274889 
L 220.264119 122.274889 
L 222.111119 84.511409 
L 223.958118 122.274889 
L 233.193114 122.274889 
L 235.040114 102.286597 
L 236.887113 122.274889 
L 238.734112 122.274889 
L 240.581112 85.333327 
L 242.428111 42.344108 
L 244.27511 67.257515 
L 246.122109 122.274889 
L 323.69608 122.274889 
L 325.543079 102.286597 
L 327.390078 102.286597 
L 329.237077 122.274889 
L 345.860071 122.274889 
L 347.70707 82.474202 
L 349.55407 122.274889 
L 371.718061 122.274889 
L 373.56506 102.286597 
L 375.41206 122.274889 
L 377.259059 102.286597 
L 379.106058 122.274889 
L 380.953058 102.286597 
L 382.800057 61.638406 
L 384.647056 122.274889 
L 386.494055 102.286597 
L 388.341055 122.274889 
L 393.882053 122.274889 
L 395.729052 102.286597 
L 397.576051 122.274889 
L 410.505046 122.274889 
L 412.352045 42.344108 
L 414.199045 72.355329 
L 416.046044 122.274889 
L 419.740043 122.274889 
L 421.587042 46.776711 
L 423.434041 122.274889 
L 512.090007 122.274889 
L 513.937006 102.286597 
L 515.784006 122.274889 
L 523.172003 122.274889 
L 525.019002 74.94901 
L 526.866001 122.274889 
L 543.488995 122.274889 
L 545.335994 101.29198 
L 547.182994 122.274889 
L 556.41799 122.274889 
L 558.264989 86.513436 
L 560.111989 42.344108 
L 561.958988 122.274889 
L 563.805987 102.286597 
L 565.652987 122.274889 
L 582.27598 122.274889 
L 584.122979 101.797284 
L 585.969979 122.274889 
L 587.816978 122.274889 
L 589.663977 42.344108 
L 591.510977 80.334655 
L 593.357976 122.274889 
L 597.051974 122.274889 
L 598.898974 61.209857 
L 600.745973 122.274889 
L 632.144961 122.274889 
L 632.144961 122.274889 
" clip-path="url(#p4aa005673e)" style="fill: none; stroke: #cc071e; stroke-width: 2; stroke-linecap: square"/>
   </g>
   <g id="patch_5">
    <path d="M 75.459375 126.272548 
L 75.459375 38.324062 
" style="fill: none; stroke: #000000; stroke-linejoin: miter; stroke-linecap: square"/>
   </g>
   <g id="patch_6">
    <path d="M 660.58875 126.272548 
L 660.58875 38.324062 
" style="fill: none; stroke: #000000; stroke-linejoin: miter; stroke-linecap: square"/>
   </g>
   <g id="patch_7">
    <path d="M 75.459375 126.272548 
L 660.58875 126.272548 
" style="fill: none; stroke: #000000; stroke-linejoin: miter; stroke-linecap: square"/>
   </g>
   <g id="patch_8">
    <path d="M 75.459375 38.324062 
L 660.58875 38.324062 
" style="fill: none; stroke: #000000; stroke-linejoin: miter; stroke-linecap: square"/>
   </g>
   <g id="text_5">
    <!-- $~$ -->
    <g transform="translate(75.459375 32.324062)scale(0.18 -0.18)"/>
   </g>
  </g>
  <g id="axes_2">
   <g id="patch_9">
    <path d="M 75.459375 242.604711 
L 660.58875 242.604711 
L 660.58875 154.656226 
L 75.459375 154.656226 
z
" style="fill: #ffffff"/>
   </g>
   <g id="patch_10">
    <path d="M 102.056165 242.604711 
L 102.056165 154.656226 
L 279.368097 154.656226 
L 279.368097 242.604711 
z
" clip-path="url(#p9b9555dc92)" style="fill: #808080; opacity: 0.2; stroke: #808080; stroke-width: 2; stroke-linejoin: miter"/>
   </g>
   <g id="patch_11">
    <path d="M 456.680028 242.604711 
L 456.680028 154.656226 
L 633.99196 154.656226 
L 633.99196 242.604711 
z
" clip-path="url(#p9b9555dc92)" style="fill: #808080; opacity: 0.2; stroke: #808080; stroke-width: 2; stroke-linejoin: miter"/>
   </g>
   <g id="matplotlib.axis_3">
    <g id="xtick_4">
     <g id="line2d_8">
      <g>
       <use xlink:href="#m4a1cccbdb5" x="190.712131" y="242.604711" style="stroke: #000000"/>
      </g>
     </g>
    </g>
    <g id="xtick_5">
     <g id="line2d_9">
      <g>
       <use xlink:href="#m4a1cccbdb5" x="368.024062" y="242.604711" style="stroke: #000000"/>
      </g>
     </g>
    </g>
    <g id="xtick_6">
     <g id="line2d_10">
      <g>
       <use xlink:href="#m4a1cccbdb5" x="545.335994" y="242.604711" style="stroke: #000000"/>
      </g>
     </g>
    </g>
   </g>
   <g id="matplotlib.axis_4">
    <g id="ytick_4">
     <g id="line2d_11">
      <g>
       <use xlink:href="#mfb3362f5db" x="75.459375" y="237.807521" style="stroke: #000000"/>
      </g>
     </g>
     <g id="text_6">
      <!-- 20 -->
      <g transform="translate(45.94 244.249553)scale(0.18 -0.18)">
       <defs>
        <path id="ArialMT-32" d="M 3222 541 
L 3222 0 
L 194 0 
Q 188 203 259 391 
Q 375 700 629 1000 
Q 884 1300 1366 1694 
Q 2113 2306 2375 2664 
Q 2638 3022 2638 3341 
Q 2638 3675 2398 3904 
Q 2159 4134 1775 4134 
Q 1369 4134 1125 3890 
Q 881 3647 878 3216 
L 300 3275 
Q 359 3922 746 4261 
Q 1134 4600 1788 4600 
Q 2447 4600 2831 4234 
Q 3216 3869 3216 3328 
Q 3216 3053 3103 2787 
Q 2991 2522 2730 2228 
Q 2469 1934 1863 1422 
Q 1356 997 1212 845 
Q 1069 694 975 541 
L 3222 541 
z
" transform="scale(0.015625)"/>
       </defs>
       <use xlink:href="#ArialMT-32"/>
       <use xlink:href="#ArialMT-30" x="55.615234"/>
      </g>
     </g>
    </g>
    <g id="ytick_5">
     <g id="line2d_12">
      <g>
       <use xlink:href="#mfb3362f5db" x="75.459375" y="197.830937" style="stroke: #000000"/>
      </g>
     </g>
     <g id="text_7">
      <!-- 45 -->
      <g transform="translate(45.94 204.272968)scale(0.18 -0.18)">
       <defs>
        <path id="ArialMT-34" d="M 2069 0 
L 2069 1097 
L 81 1097 
L 81 1613 
L 2172 4581 
L 2631 4581 
L 2631 1613 
L 3250 1613 
L 3250 1097 
L 2631 1097 
L 2631 0 
L 2069 0 
z
M 2069 1613 
L 2069 3678 
L 634 1613 
L 2069 1613 
z
" transform="scale(0.015625)"/>
       </defs>
       <use xlink:href="#ArialMT-34"/>
       <use xlink:href="#ArialMT-35" x="55.615234"/>
      </g>
     </g>
    </g>
    <g id="ytick_6">
     <g id="line2d_13">
      <g>
       <use xlink:href="#mfb3362f5db" x="75.459375" y="157.854353" style="stroke: #000000"/>
      </g>
     </g>
     <g id="text_8">
      <!-- 70 -->
      <g transform="translate(45.94 164.296384)scale(0.18 -0.18)">
       <defs>
        <path id="ArialMT-37" d="M 303 3981 
L 303 4522 
L 3269 4522 
L 3269 4084 
Q 2831 3619 2401 2847 
Q 1972 2075 1738 1259 
Q 1569 684 1522 0 
L 944 0 
Q 953 541 1156 1306 
Q 1359 2072 1739 2783 
Q 2119 3494 2547 3981 
L 303 3981 
z
" transform="scale(0.015625)"/>
       </defs>
       <use xlink:href="#ArialMT-37"/>
       <use xlink:href="#ArialMT-30" x="55.615234"/>
      </g>
     </g>
    </g>
    <g id="text_9">
     <!-- $T$ in °C -->
     <g transform="translate(38.3625 226.260469)rotate(-90)scale(0.18 -0.18)">
      <defs>
       <path id="DejaVuSans-Oblique-54" d="M 378 4666 
L 4325 4666 
L 4225 4134 
L 2559 4134 
L 1759 0 
L 1125 0 
L 1925 4134 
L 275 4134 
L 378 4666 
z
" transform="scale(0.015625)"/>
       <path id="ArialMT-b0" d="M 400 3794 
Q 400 4153 654 4406 
Q 909 4659 1266 4659 
Q 1628 4659 1881 4406 
Q 2134 4153 2134 3794 
Q 2134 3434 1879 3179 
Q 1625 2925 1266 2925 
Q 909 2925 654 3178 
Q 400 3431 400 3794 
z
M 741 3794 
Q 741 3575 895 3420 
Q 1050 3266 1269 3266 
Q 1484 3266 1639 3420 
Q 1794 3575 1794 3794 
Q 1794 4013 1639 4167 
Q 1484 4322 1269 4322 
Q 1050 4322 895 4167 
Q 741 4013 741 3794 
z
" transform="scale(0.015625)"/>
       <path id="ArialMT-43" d="M 3763 1606 
L 4369 1453 
Q 4178 706 3683 314 
Q 3188 -78 2472 -78 
Q 1731 -78 1267 223 
Q 803 525 561 1097 
Q 319 1669 319 2325 
Q 319 3041 592 3573 
Q 866 4106 1370 4382 
Q 1875 4659 2481 4659 
Q 3169 4659 3637 4309 
Q 4106 3959 4291 3325 
L 3694 3184 
Q 3534 3684 3231 3912 
Q 2928 4141 2469 4141 
Q 1941 4141 1586 3887 
Q 1231 3634 1087 3207 
Q 944 2781 944 2328 
Q 944 1744 1114 1308 
Q 1284 872 1643 656 
Q 2003 441 2422 441 
Q 2931 441 3284 734 
Q 3638 1028 3763 1606 
z
" transform="scale(0.015625)"/>
      </defs>
      <use xlink:href="#DejaVuSans-Oblique-54" transform="translate(0 0.09375)"/>
      <use xlink:href="#ArialMT-20" transform="translate(61.083984 0.09375)"/>
      <use xlink:href="#ArialMT-69" transform="translate(88.867188 0.09375)"/>
      <use xlink:href="#ArialMT-6e" transform="translate(111.083984 0.09375)"/>
      <use xlink:href="#ArialMT-20" transform="translate(166.699219 0.09375)"/>
      <use xlink:href="#ArialMT-b0" transform="translate(194.482422 0.09375)"/>
      <use xlink:href="#ArialMT-43" transform="translate(234.472656 0.09375)"/>
     </g>
    </g>
   </g>
   <g id="line2d_14">
    <path d="M 102.056165 234.561423 
L 166.70114 236.144495 
L 284.909094 238.095353 
L 316.308082 238.463137 
L 332.931076 238.655025 
L 456.680028 239.630454 
L 475.150021 239.726397 
L 502.855011 239.870313 
L 525.019002 239.966257 
L 547.182994 240.062201 
L 574.887983 240.158144 
L 595.204975 240.238098 
L 630.297962 240.334041 
L 632.144961 240.350032 
L 632.144961 240.350032 
" clip-path="url(#p9b9555dc92)" style="fill: none; stroke: #f6a800; stroke-width: 2; stroke-linecap: square"/>
   </g>
   <g id="line2d_15">
    <path d="M 102.056165 185.582112 
L 146.384148 188.636323 
L 148.231147 189.483826 
L 150.078146 189.611751 
L 151.925146 185.773999 
L 157.466143 186.157774 
L 159.313143 187.021269 
L 163.007141 187.229147 
L 164.854141 187.373063 
L 166.70114 189.675714 
L 168.548139 189.787648 
L 170.395138 188.220566 
L 185.171133 189.211986 
L 194.406129 189.803639 
L 198.100128 182.863704 
L 199.947127 169.095768 
L 201.794126 169.991244 
L 203.641126 165.84967 
L 205.488125 166.761136 
L 207.335124 166.937033 
L 209.182124 172.181961 
L 211.029123 172.357858 
L 212.876122 173.237342 
L 220.264119 173.844987 
L 222.111119 165.84967 
L 225.805117 166.217454 
L 227.652116 167.11293 
L 229.499116 167.288827 
L 231.346115 168.200293 
L 233.193114 168.360199 
L 235.040114 189.116042 
L 238.734112 189.371892 
L 240.581112 182.240069 
L 242.428111 165.84967 
L 244.27511 179.041942 
L 257.204105 180.033362 
L 264.592102 183.503329 
L 268.286101 183.77517 
L 270.1331 184.638664 
L 271.980099 184.78258 
L 273.827099 185.630084 
L 275.674098 185.773999 
L 277.521097 186.621503 
L 281.215096 186.845372 
L 323.69608 189.707695 
L 325.543079 186.253718 
L 327.390078 182.064172 
L 329.237077 182.927666 
L 334.778075 183.343423 
L 336.625075 184.206917 
L 342.166072 184.574702 
L 344.013072 186.877353 
L 345.860071 187.005278 
L 347.70707 188.220566 
L 362.483065 189.211986 
L 371.718061 189.803639 
L 373.56506 186.333671 
L 375.41206 187.181175 
L 377.259059 183.00762 
L 379.106058 183.871114 
L 380.953058 179.681568 
L 382.800057 167.464724 
L 384.647056 167.640621 
L 386.494055 168.584068 
L 388.341055 168.759965 
L 390.188054 169.655441 
L 393.882053 169.991244 
L 395.729052 165.84967 
L 401.27005 166.329389 
L 403.117049 166.505286 
L 404.964048 167.416752 
L 406.811048 167.592649 
L 408.658047 168.488124 
L 410.505046 168.664021 
L 412.352045 176.46745 
L 414.199045 165.84967 
L 416.046044 166.025567 
L 419.740043 167.832508 
L 421.587042 176.595376 
L 434.516037 177.634767 
L 441.904034 181.120725 
L 445.598033 181.408556 
L 447.445032 182.27205 
L 449.292031 182.415966 
L 451.139031 183.27946 
L 452.98603 183.423376 
L 454.833029 184.28687 
L 460.374027 184.654655 
L 501.008011 187.500988 
L 502.855011 188.364482 
L 504.70201 188.492407 
L 506.549009 189.339911 
L 512.090007 189.707695 
L 513.937006 186.237728 
L 517.631005 186.461597 
L 519.478004 186.589522 
L 521.325004 188.892173 
L 523.172003 189.020098 
L 525.019002 188.588351 
L 543.488995 189.83562 
L 545.335994 186.893344 
L 549.029993 187.149194 
L 552.723991 188.860192 
L 554.570991 188.988117 
L 556.41799 189.83562 
L 558.264989 182.240069 
L 560.111989 165.84967 
L 561.958988 166.025567 
L 563.805987 166.969014 
L 565.652987 167.144911 
L 567.499986 168.056377 
L 580.428981 169.207703 
L 582.27598 170.103178 
L 584.122979 165.84967 
L 585.969979 166.761136 
L 587.816978 166.937033 
L 589.663977 174.740462 
L 591.510977 165.84967 
L 593.357976 166.025567 
L 597.051974 167.832508 
L 598.898974 179.713549 
L 606.286971 180.257231 
L 611.827969 180.704968 
L 619.215966 184.158945 
L 622.909964 184.430786 
L 624.756964 185.29428 
L 626.603963 185.422205 
L 628.450962 186.2857 
L 630.297962 186.413625 
L 632.144961 187.277119 
L 632.144961 187.277119 
" clip-path="url(#p9b9555dc92)" style="fill: none; stroke: #0098a1; stroke-width: 2; stroke-linecap: square"/>
   </g>
   <g id="patch_12">
    <path d="M 75.459375 242.604711 
L 75.459375 154.656226 
" style="fill: none; stroke: #000000; stroke-linejoin: miter; stroke-linecap: square"/>
   </g>
   <g id="patch_13">
    <path d="M 660.58875 242.604711 
L 660.58875 154.656226 
" style="fill: none; stroke: #000000; stroke-linejoin: miter; stroke-linecap: square"/>
   </g>
   <g id="patch_14">
    <path d="M 75.459375 242.604711 
L 660.58875 242.604711 
" style="fill: none; stroke: #000000; stroke-linejoin: miter; stroke-linecap: square"/>
   </g>
   <g id="patch_15">
    <path d="M 75.459375 154.656226 
L 660.58875 154.656226 
" style="fill: none; stroke: #000000; stroke-linejoin: miter; stroke-linecap: square"/>
   </g>
  </g>
  <g id="axes_3">
   <g id="patch_16">
    <path d="M 75.459375 358.936875 
L 660.58875 358.936875 
L 660.58875 270.98839 
L 75.459375 270.98839 
z
" style="fill: #ffffff"/>
   </g>
   <g id="patch_17">
    <path d="M 102.056165 358.936875 
L 102.056165 270.98839 
L 279.368097 270.98839 
L 279.368097 358.936875 
z
" clip-path="url(#p7cf0675df8)" style="fill: #808080; opacity: 0.2; stroke: #808080; stroke-width: 2; stroke-linejoin: miter"/>
   </g>
   <g id="patch_18">
    <path d="M 456.680028 358.936875 
L 456.680028 270.98839 
L 633.99196 270.98839 
L 633.99196 358.936875 
z
" clip-path="url(#p7cf0675df8)" style="fill: #808080; opacity: 0.2; stroke: #808080; stroke-width: 2; stroke-linejoin: miter"/>
   </g>
   <g id="matplotlib.axis_5">
    <g id="xtick_7">
     <g id="line2d_16">
      <g>
       <use xlink:href="#m4a1cccbdb5" x="190.712131" y="358.936875" style="stroke: #000000"/>
      </g>
     </g>
     <g id="text_10">
      <!-- 1.7 -->
      <g transform="translate(178.202131 381.320938)scale(0.18 -0.18)">
       <defs>
        <path id="ArialMT-2e" d="M 581 0 
L 581 641 
L 1222 641 
L 1222 0 
L 581 0 
z
" transform="scale(0.015625)"/>
       </defs>
       <use xlink:href="#ArialMT-31"/>
       <use xlink:href="#ArialMT-2e" x="55.615234"/>
       <use xlink:href="#ArialMT-37" x="83.398438"/>
      </g>
     </g>
    </g>
    <g id="xtick_8">
     <g id="line2d_17">
      <g>
       <use xlink:href="#m4a1cccbdb5" x="368.024062" y="358.936875" style="stroke: #000000"/>
      </g>
     </g>
     <g id="text_11">
      <!-- 2.7 -->
      <g transform="translate(355.514062 381.320938)scale(0.18 -0.18)">
       <use xlink:href="#ArialMT-32"/>
       <use xlink:href="#ArialMT-2e" x="55.615234"/>
       <use xlink:href="#ArialMT-37" x="83.398438"/>
      </g>
     </g>
    </g>
    <g id="xtick_9">
     <g id="line2d_18">
      <g>
       <use xlink:href="#m4a1cccbdb5" x="545.335994" y="358.936875" style="stroke: #000000"/>
      </g>
     </g>
     <g id="text_12">
      <!-- 3.7 -->
      <g transform="translate(532.825994 381.320938)scale(0.18 -0.18)">
       <defs>
        <path id="ArialMT-33" d="M 269 1209 
L 831 1284 
Q 928 806 1161 595 
Q 1394 384 1728 384 
Q 2125 384 2398 659 
Q 2672 934 2672 1341 
Q 2672 1728 2419 1979 
Q 2166 2231 1775 2231 
Q 1616 2231 1378 2169 
L 1441 2663 
Q 1497 2656 1531 2656 
Q 1891 2656 2178 2843 
Q 2466 3031 2466 3422 
Q 2466 3731 2256 3934 
Q 2047 4138 1716 4138 
Q 1388 4138 1169 3931 
Q 950 3725 888 3313 
L 325 3413 
Q 428 3978 793 4289 
Q 1159 4600 1703 4600 
Q 2078 4600 2393 4439 
Q 2709 4278 2876 4000 
Q 3044 3722 3044 3409 
Q 3044 3113 2884 2869 
Q 2725 2625 2413 2481 
Q 2819 2388 3044 2092 
Q 3269 1797 3269 1353 
Q 3269 753 2831 336 
Q 2394 -81 1725 -81 
Q 1122 -81 723 278 
Q 325 638 269 1209 
z
" transform="scale(0.015625)"/>
       </defs>
       <use xlink:href="#ArialMT-33"/>
       <use xlink:href="#ArialMT-2e" x="55.615234"/>
       <use xlink:href="#ArialMT-37" x="83.398438"/>
      </g>
     </g>
    </g>
    <g id="text_13">
     <!-- Zeit in d -->
     <g transform="translate(336.012187 401.7825)scale(0.18 -0.18)">
      <defs>
       <path id="ArialMT-5a" d="M 128 0 
L 128 563 
L 2475 3497 
Q 2725 3809 2950 4041 
L 394 4041 
L 394 4581 
L 3675 4581 
L 3675 4041 
L 1103 863 
L 825 541 
L 3750 541 
L 3750 0 
L 128 0 
z
" transform="scale(0.015625)"/>
       <path id="ArialMT-65" d="M 2694 1069 
L 3275 997 
Q 3138 488 2766 206 
Q 2394 -75 1816 -75 
Q 1088 -75 661 373 
Q 234 822 234 1631 
Q 234 2469 665 2931 
Q 1097 3394 1784 3394 
Q 2450 3394 2872 2941 
Q 3294 2488 3294 1666 
Q 3294 1616 3291 1516 
L 816 1516 
Q 847 969 1125 678 
Q 1403 388 1819 388 
Q 2128 388 2347 550 
Q 2566 713 2694 1069 
z
M 847 1978 
L 2700 1978 
Q 2663 2397 2488 2606 
Q 2219 2931 1791 2931 
Q 1403 2931 1139 2672 
Q 875 2413 847 1978 
z
" transform="scale(0.015625)"/>
       <path id="ArialMT-74" d="M 1650 503 
L 1731 6 
Q 1494 -44 1306 -44 
Q 1000 -44 831 53 
Q 663 150 594 308 
Q 525 466 525 972 
L 525 2881 
L 113 2881 
L 113 3319 
L 525 3319 
L 525 4141 
L 1084 4478 
L 1084 3319 
L 1650 3319 
L 1650 2881 
L 1084 2881 
L 1084 941 
Q 1084 700 1114 631 
Q 1144 563 1211 522 
Q 1278 481 1403 481 
Q 1497 481 1650 503 
z
" transform="scale(0.015625)"/>
       <path id="ArialMT-64" d="M 2575 0 
L 2575 419 
Q 2259 -75 1647 -75 
Q 1250 -75 917 144 
Q 584 363 401 755 
Q 219 1147 219 1656 
Q 219 2153 384 2558 
Q 550 2963 881 3178 
Q 1213 3394 1622 3394 
Q 1922 3394 2156 3267 
Q 2391 3141 2538 2938 
L 2538 4581 
L 3097 4581 
L 3097 0 
L 2575 0 
z
M 797 1656 
Q 797 1019 1065 703 
Q 1334 388 1700 388 
Q 2069 388 2326 689 
Q 2584 991 2584 1609 
Q 2584 2291 2321 2609 
Q 2059 2928 1675 2928 
Q 1300 2928 1048 2622 
Q 797 2316 797 1656 
z
" transform="scale(0.015625)"/>
      </defs>
      <use xlink:href="#ArialMT-5a"/>
      <use xlink:href="#ArialMT-65" x="61.083984"/>
      <use xlink:href="#ArialMT-69" x="116.699219"/>
      <use xlink:href="#ArialMT-74" x="138.916016"/>
      <use xlink:href="#ArialMT-20" x="166.699219"/>
      <use xlink:href="#ArialMT-69" x="194.482422"/>
      <use xlink:href="#ArialMT-6e" x="216.699219"/>
      <use xlink:href="#ArialMT-20" x="272.314453"/>
      <use xlink:href="#ArialMT-64" x="300.097656"/>
     </g>
    </g>
   </g>
   <g id="matplotlib.axis_6">
    <g id="ytick_7">
     <g id="line2d_19">
      <g>
       <use xlink:href="#mfb3362f5db" x="75.459375" y="354.939217" style="stroke: #000000"/>
      </g>
     </g>
     <g id="text_14">
      <!-- 0 -->
      <g transform="translate(55.949687 361.381248)scale(0.18 -0.18)">
       <use xlink:href="#ArialMT-30"/>
      </g>
     </g>
    </g>
    <g id="ytick_8">
     <g id="line2d_20">
      <g>
       <use xlink:href="#mfb3362f5db" x="75.459375" y="314.962632" style="stroke: #000000"/>
      </g>
     </g>
     <g id="text_15">
      <!-- 5 -->
      <g transform="translate(55.949687 321.404664)scale(0.18 -0.18)">
       <use xlink:href="#ArialMT-35"/>
      </g>
     </g>
    </g>
    <g id="ytick_9">
     <g id="line2d_21">
      <g>
       <use xlink:href="#mfb3362f5db" x="75.459375" y="274.986048" style="stroke: #000000"/>
      </g>
     </g>
     <g id="text_16">
      <!-- 10 -->
      <g transform="translate(45.94 281.428079)scale(0.18 -0.18)">
       <use xlink:href="#ArialMT-31"/>
       <use xlink:href="#ArialMT-30" x="55.615234"/>
      </g>
     </g>
    </g>
    <g id="text_17">
     <!-- $\dot{Q}_{\mathrm{Haus}}$ in kW -->
     <g transform="translate(38.3625 363.292632)rotate(-90)scale(0.18 -0.18)">
      <defs>
       <path id="DejaVuSans-48" d="M 628 4666 
L 1259 4666 
L 1259 2753 
L 3553 2753 
L 3553 4666 
L 4184 4666 
L 4184 0 
L 3553 0 
L 3553 2222 
L 1259 2222 
L 1259 0 
L 628 0 
L 628 4666 
z
" transform="scale(0.015625)"/>
       <path id="DejaVuSans-61" d="M 2194 1759 
Q 1497 1759 1228 1600 
Q 959 1441 959 1056 
Q 959 750 1161 570 
Q 1363 391 1709 391 
Q 2188 391 2477 730 
Q 2766 1069 2766 1631 
L 2766 1759 
L 2194 1759 
z
M 3341 1997 
L 3341 0 
L 2766 0 
L 2766 531 
Q 2569 213 2275 61 
Q 1981 -91 1556 -91 
Q 1019 -91 701 211 
Q 384 513 384 1019 
Q 384 1609 779 1909 
Q 1175 2209 1959 2209 
L 2766 2209 
L 2766 2266 
Q 2766 2663 2505 2880 
Q 2244 3097 1772 3097 
Q 1472 3097 1187 3025 
Q 903 2953 641 2809 
L 641 3341 
Q 956 3463 1253 3523 
Q 1550 3584 1831 3584 
Q 2591 3584 2966 3190 
Q 3341 2797 3341 1997 
z
" transform="scale(0.015625)"/>
       <path id="DejaVuSans-75" d="M 544 1381 
L 544 3500 
L 1119 3500 
L 1119 1403 
Q 1119 906 1312 657 
Q 1506 409 1894 409 
Q 2359 409 2629 706 
Q 2900 1003 2900 1516 
L 2900 3500 
L 3475 3500 
L 3475 0 
L 2900 0 
L 2900 538 
Q 2691 219 2414 64 
Q 2138 -91 1772 -91 
Q 1169 -91 856 284 
Q 544 659 544 1381 
z
M 1991 3584 
L 1991 3584 
z
" transform="scale(0.015625)"/>
       <path id="DejaVuSans-73" d="M 2834 3397 
L 2834 2853 
Q 2591 2978 2328 3040 
Q 2066 3103 1784 3103 
Q 1356 3103 1142 2972 
Q 928 2841 928 2578 
Q 928 2378 1081 2264 
Q 1234 2150 1697 2047 
L 1894 2003 
Q 2506 1872 2764 1633 
Q 3022 1394 3022 966 
Q 3022 478 2636 193 
Q 2250 -91 1575 -91 
Q 1294 -91 989 -36 
Q 684 19 347 128 
L 347 722 
Q 666 556 975 473 
Q 1284 391 1588 391 
Q 1994 391 2212 530 
Q 2431 669 2431 922 
Q 2431 1156 2273 1281 
Q 2116 1406 1581 1522 
L 1381 1569 
Q 847 1681 609 1914 
Q 372 2147 372 2553 
Q 372 3047 722 3315 
Q 1072 3584 1716 3584 
Q 2034 3584 2315 3537 
Q 2597 3491 2834 3397 
z
" transform="scale(0.015625)"/>
      </defs>
      <use xlink:href="#DejaVuSans-307" transform="translate(74.271484 31.015625)"/>
      <use xlink:href="#DejaVuSans-Oblique-51" transform="translate(0 0.296875)"/>
      <use xlink:href="#DejaVuSans-48" transform="translate(79.667969 -16.109375)scale(0.7)"/>
      <use xlink:href="#DejaVuSans-61" transform="translate(132.304688 -16.109375)scale(0.7)"/>
      <use xlink:href="#DejaVuSans-75" transform="translate(175.200195 -16.109375)scale(0.7)"/>
      <use xlink:href="#DejaVuSans-73" transform="translate(219.56543 -16.109375)scale(0.7)"/>
      <use xlink:href="#ArialMT-20" transform="translate(258.769531 0.296875)"/>
      <use xlink:href="#ArialMT-69" transform="translate(286.552734 0.296875)"/>
      <use xlink:href="#ArialMT-6e" transform="translate(308.769531 0.296875)"/>
      <use xlink:href="#ArialMT-20" transform="translate(364.384766 0.296875)"/>
      <use xlink:href="#ArialMT-6b" transform="translate(392.167969 0.296875)"/>
      <use xlink:href="#ArialMT-57" transform="translate(442.167969 0.296875)"/>
     </g>
    </g>
   </g>
   <g id="line2d_22">
    <path d="M 102.056165 354.939217 
L 632.144961 354.939217 
L 632.144961 354.939217 
" clip-path="url(#p7cf0675df8)" style="fill: none; stroke: #57ab27; stroke-width: 2; stroke-linecap: square"/>
   </g>
   <g id="patch_19">
    <path d="M 75.459375 358.936875 
L 75.459375 270.98839 
" style="fill: none; stroke: #000000; stroke-linejoin: miter; stroke-linecap: square"/>
   </g>
   <g id="patch_20">
    <path d="M 660.58875 358.936875 
L 660.58875 270.98839 
" style="fill: none; stroke: #000000; stroke-linejoin: miter; stroke-linecap: square"/>
   </g>
   <g id="patch_21">
    <path d="M 75.459375 358.936875 
L 660.58875 358.936875 
" style="fill: none; stroke: #000000; stroke-linejoin: miter; stroke-linecap: square"/>
   </g>
   <g id="patch_22">
    <path d="M 75.459375 270.98839 
L 660.58875 270.98839 
" style="fill: none; stroke: #000000; stroke-linejoin: miter; stroke-linecap: square"/>
   </g>
  </g>
  <g id="axes_4">
   <g id="matplotlib.axis_7">
    <g id="ytick_10">
     <g id="line2d_23">
      <defs>
       <path id="m4181308c1c" d="M 0 0 
L 6 0 
" style="stroke: #000000"/>
      </defs>
      <g>
       <use xlink:href="#m4181308c1c" x="660.58875" y="122.274889" style="stroke: #000000"/>
      </g>
     </g>
     <g id="text_18">
      <!-- 0 -->
      <g transform="translate(670.08875 128.716921)scale(0.18 -0.18)">
       <use xlink:href="#ArialMT-30"/>
      </g>
     </g>
    </g>
    <g id="ytick_11">
     <g id="line2d_24">
      <g>
       <use xlink:href="#m4181308c1c" x="660.58875" y="95.623833" style="stroke: #000000"/>
      </g>
     </g>
     <g id="text_19">
      <!-- 1 -->
      <g transform="translate(670.08875 102.065864)scale(0.18 -0.18)">
       <use xlink:href="#ArialMT-31"/>
      </g>
     </g>
    </g>
    <g id="ytick_12">
     <g id="line2d_25">
      <g>
       <use xlink:href="#m4181308c1c" x="660.58875" y="68.972777" style="stroke: #000000"/>
      </g>
     </g>
     <g id="text_20">
      <!-- 2 -->
      <g transform="translate(670.08875 75.414808)scale(0.18 -0.18)">
       <use xlink:href="#ArialMT-32"/>
      </g>
     </g>
    </g>
    <g id="ytick_13">
     <g id="line2d_26">
      <g>
       <use xlink:href="#m4181308c1c" x="660.58875" y="42.321721" style="stroke: #000000"/>
      </g>
     </g>
     <g id="text_21">
      <!-- 3 -->
      <g transform="translate(670.08875 48.763752)scale(0.18 -0.18)">
       <use xlink:href="#ArialMT-33"/>
      </g>
     </g>
    </g>
    <g id="text_22">
     <!-- Modus -->
     <g transform="translate(696.9825 109.309555)rotate(-90)scale(0.18 -0.18)">
      <defs>
       <path id="ArialMT-4d" d="M 475 0 
L 475 4581 
L 1388 4581 
L 2472 1338 
Q 2622 884 2691 659 
Q 2769 909 2934 1394 
L 4031 4581 
L 4847 4581 
L 4847 0 
L 4263 0 
L 4263 3834 
L 2931 0 
L 2384 0 
L 1059 3900 
L 1059 0 
L 475 0 
z
" transform="scale(0.015625)"/>
       <path id="ArialMT-6f" d="M 213 1659 
Q 213 2581 725 3025 
Q 1153 3394 1769 3394 
Q 2453 3394 2887 2945 
Q 3322 2497 3322 1706 
Q 3322 1066 3130 698 
Q 2938 331 2570 128 
Q 2203 -75 1769 -75 
Q 1072 -75 642 372 
Q 213 819 213 1659 
z
M 791 1659 
Q 791 1022 1069 705 
Q 1347 388 1769 388 
Q 2188 388 2466 706 
Q 2744 1025 2744 1678 
Q 2744 2294 2464 2611 
Q 2184 2928 1769 2928 
Q 1347 2928 1069 2612 
Q 791 2297 791 1659 
z
" transform="scale(0.015625)"/>
       <path id="ArialMT-75" d="M 2597 0 
L 2597 488 
Q 2209 -75 1544 -75 
Q 1250 -75 995 37 
Q 741 150 617 320 
Q 494 491 444 738 
Q 409 903 409 1263 
L 409 3319 
L 972 3319 
L 972 1478 
Q 972 1038 1006 884 
Q 1059 663 1231 536 
Q 1403 409 1656 409 
Q 1909 409 2131 539 
Q 2353 669 2445 892 
Q 2538 1116 2538 1541 
L 2538 3319 
L 3100 3319 
L 3100 0 
L 2597 0 
z
" transform="scale(0.015625)"/>
       <path id="ArialMT-73" d="M 197 991 
L 753 1078 
Q 800 744 1014 566 
Q 1228 388 1613 388 
Q 2000 388 2187 545 
Q 2375 703 2375 916 
Q 2375 1106 2209 1216 
Q 2094 1291 1634 1406 
Q 1016 1563 777 1677 
Q 538 1791 414 1992 
Q 291 2194 291 2438 
Q 291 2659 392 2848 
Q 494 3038 669 3163 
Q 800 3259 1026 3326 
Q 1253 3394 1513 3394 
Q 1903 3394 2198 3281 
Q 2494 3169 2634 2976 
Q 2775 2784 2828 2463 
L 2278 2388 
Q 2241 2644 2061 2787 
Q 1881 2931 1553 2931 
Q 1166 2931 1000 2803 
Q 834 2675 834 2503 
Q 834 2394 903 2306 
Q 972 2216 1119 2156 
Q 1203 2125 1616 2013 
Q 2213 1853 2448 1751 
Q 2684 1650 2818 1456 
Q 2953 1263 2953 975 
Q 2953 694 2789 445 
Q 2625 197 2315 61 
Q 2006 -75 1616 -75 
Q 969 -75 630 194 
Q 291 463 197 991 
z
" transform="scale(0.015625)"/>
      </defs>
      <use xlink:href="#ArialMT-4d"/>
      <use xlink:href="#ArialMT-6f" x="83.300781"/>
      <use xlink:href="#ArialMT-64" x="138.916016"/>
      <use xlink:href="#ArialMT-75" x="194.53125"/>
      <use xlink:href="#ArialMT-73" x="250.146484"/>
     </g>
    </g>
   </g>
   <g id="line2d_27">
    <path d="M 102.056165 122.274889 
L 150.078146 122.274889 
L 150.078146 42.321721 
L 151.925146 42.321721 
L 151.925146 122.274889 
L 168.548139 122.274889 
L 168.548139 42.321721 
L 170.395138 42.321721 
L 170.395138 122.274889 
L 194.406129 122.274889 
L 194.406129 42.321721 
L 199.947127 42.321721 
L 199.947127 122.274889 
L 201.794126 122.274889 
L 201.794126 42.321721 
L 203.641126 42.321721 
L 203.641126 122.274889 
L 220.264119 122.274889 
L 220.264119 42.321721 
L 222.111119 42.321721 
L 222.111119 122.274889 
L 233.193114 122.274889 
L 233.193114 42.321721 
L 235.040114 42.321721 
L 235.040114 122.274889 
L 238.734112 122.274889 
L 238.734112 42.321721 
L 244.27511 42.321721 
L 244.27511 122.274889 
L 323.69608 122.274889 
L 323.69608 42.321721 
L 327.390078 42.321721 
L 327.390078 122.274889 
L 345.860071 122.274889 
L 345.860071 42.321721 
L 347.70707 42.321721 
L 347.70707 122.274889 
L 371.718061 122.274889 
L 371.718061 42.321721 
L 373.56506 42.321721 
L 373.56506 122.274889 
L 375.41206 122.274889 
L 375.41206 42.321721 
L 377.259059 42.321721 
L 377.259059 122.274889 
L 379.106058 122.274889 
L 379.106058 42.321721 
L 382.800057 42.321721 
L 382.800057 122.274889 
L 384.647056 122.274889 
L 384.647056 42.321721 
L 386.494055 42.321721 
L 386.494055 122.274889 
L 393.882053 122.274889 
L 393.882053 42.321721 
L 395.729052 42.321721 
L 395.729052 122.274889 
L 410.505046 122.274889 
L 410.505046 42.321721 
L 414.199045 42.321721 
L 414.199045 122.274889 
L 419.740043 122.274889 
L 419.740043 42.321721 
L 421.587042 42.321721 
L 421.587042 122.274889 
L 512.090007 122.274889 
L 512.090007 42.321721 
L 513.937006 42.321721 
L 513.937006 122.274889 
L 523.172003 122.274889 
L 523.172003 42.321721 
L 525.019002 42.321721 
L 525.019002 122.274889 
L 543.488995 122.274889 
L 543.488995 42.321721 
L 545.335994 42.321721 
L 545.335994 122.274889 
L 556.41799 122.274889 
L 556.41799 42.321721 
L 560.111989 42.321721 
L 560.111989 122.274889 
L 561.958988 122.274889 
L 561.958988 42.321721 
L 563.805987 42.321721 
L 563.805987 122.274889 
L 582.27598 122.274889 
L 582.27598 42.321721 
L 584.122979 42.321721 
L 584.122979 122.274889 
L 587.816978 122.274889 
L 587.816978 42.321721 
L 591.510977 42.321721 
L 591.510977 122.274889 
L 597.051974 122.274889 
L 597.051974 42.321721 
L 598.898974 42.321721 
L 598.898974 122.274889 
L 632.144961 122.274889 
L 632.144961 122.274889 
" clip-path="url(#p4aa005673e)" style="fill: none; stroke: #407fb7; stroke-width: 2; stroke-linecap: square"/>
   </g>
   <g id="patch_23">
    <path d="M 75.459375 126.272548 
L 75.459375 38.324062 
" style="fill: none; stroke: #000000; stroke-linejoin: miter; stroke-linecap: square"/>
   </g>
   <g id="patch_24">
    <path d="M 660.58875 126.272548 
L 660.58875 38.324062 
" style="fill: none; stroke: #000000; stroke-linejoin: miter; stroke-linecap: square"/>
   </g>
   <g id="patch_25">
    <path d="M 75.459375 126.272548 
L 660.58875 126.272548 
" style="fill: none; stroke: #000000; stroke-linejoin: miter; stroke-linecap: square"/>
   </g>
   <g id="patch_26">
    <path d="M 75.459375 38.324062 
L 660.58875 38.324062 
" style="fill: none; stroke: #000000; stroke-linejoin: miter; stroke-linecap: square"/>
   </g>
  </g>
  <g id="axes_5">
   <g id="matplotlib.axis_8">
    <g id="ytick_14">
     <g id="line2d_28">
      <g>
       <use xlink:href="#m4181308c1c" x="660.58875" y="356.842863" style="stroke: #000000"/>
      </g>
     </g>
     <g id="text_23">
      <!-- 0 -->
      <g transform="translate(670.08875 363.284895)scale(0.18 -0.18)">
       <use xlink:href="#ArialMT-30"/>
      </g>
     </g>
    </g>
    <g id="ytick_15">
     <g id="line2d_29">
      <g>
       <use xlink:href="#m4181308c1c" x="660.58875" y="287.042478" style="stroke: #000000"/>
      </g>
     </g>
     <g id="text_24">
      <!-- 5 -->
      <g transform="translate(670.08875 293.48451)scale(0.18 -0.18)">
       <use xlink:href="#ArialMT-35"/>
      </g>
     </g>
    </g>
    <g id="text_25">
     <!-- $P_\mathrm{PV}$ in kW -->
     <g transform="translate(696.9825 353.752632)rotate(-90)scale(0.18 -0.18)">
      <defs>
       <path id="DejaVuSans-Oblique-50" d="M 1081 4666 
L 2541 4666 
Q 3178 4666 3512 4369 
Q 3847 4072 3847 3500 
Q 3847 2731 3353 2303 
Q 2859 1875 1966 1875 
L 1172 1875 
L 806 0 
L 172 0 
L 1081 4666 
z
M 1613 4147 
L 1275 2394 
L 2069 2394 
Q 2606 2394 2893 2669 
Q 3181 2944 3181 3456 
Q 3181 3784 2986 3965 
Q 2791 4147 2438 4147 
L 1613 4147 
z
" transform="scale(0.015625)"/>
       <path id="DejaVuSans-56" d="M 1831 0 
L 50 4666 
L 709 4666 
L 2188 738 
L 3669 4666 
L 4325 4666 
L 2547 0 
L 1831 0 
z
" transform="scale(0.015625)"/>
      </defs>
      <use xlink:href="#DejaVuSans-Oblique-50" transform="translate(0 0.09375)"/>
      <use xlink:href="#DejaVuSans-50" transform="translate(60.302734 -16.3125)scale(0.7)"/>
      <use xlink:href="#DejaVuSans-56" transform="translate(102.514648 -16.3125)scale(0.7)"/>
      <use xlink:href="#ArialMT-20" transform="translate(153.134766 0.09375)"/>
      <use xlink:href="#ArialMT-69" transform="translate(180.917969 0.09375)"/>
      <use xlink:href="#ArialMT-6e" transform="translate(203.134766 0.09375)"/>
      <use xlink:href="#ArialMT-20" transform="translate(258.75 0.09375)"/>
      <use xlink:href="#ArialMT-6b" transform="translate(286.533203 0.09375)"/>
      <use xlink:href="#ArialMT-57" transform="translate(336.533203 0.09375)"/>
     </g>
    </g>
   </g>
   <g id="line2d_30">
    <path d="M 102.056165 356.842863 
L 131.608153 356.798191 
L 138.996151 353.159078 
L 146.384148 345.675919 
L 153.772145 334.865793 
L 161.160142 321.091665 
L 168.548139 310.177118 
L 175.936136 302.891075 
L 183.324134 306.827258 
L 190.712131 306.810506 
L 198.100128 305.877973 
L 205.488125 344.073302 
L 212.876122 349.719315 
L 222.111119 352.864241 
L 227.652116 354.583565 
L 244.27511 356.604425 
L 251.663107 356.842863 
L 308.920085 356.842863 
L 316.308082 352.968104 
L 323.69608 347.498546 
L 332.931076 330.603503 
L 338.472074 320.00222 
L 345.860071 312.597237 
L 353.248068 309.734863 
L 360.636065 316.502708 
L 368.024062 319.312034 
L 375.41206 320.35178 
L 382.800057 318.446509 
L 390.188054 335.756446 
L 397.576051 349.839372 
L 404.964048 352.317565 
L 412.352045 352.29132 
L 419.740043 355.396041 
L 427.12804 356.842863 
L 486.232017 356.842863 
L 493.620014 354.948202 
L 501.008011 347.915673 
L 510.243008 332.538369 
L 515.784006 323.825606 
L 523.172003 309.289815 
L 530.56 297.804581 
L 537.947997 291.596814 
L 545.335994 289.430768 
L 552.723991 289.990847 
L 560.111989 292.658896 
L 567.499986 300.391662 
L 574.887983 315.508192 
L 582.27598 335.768731 
L 589.663977 350.511131 
L 597.051974 355.664633 
L 604.439972 356.842863 
L 632.144961 356.842863 
L 632.144961 356.842863 
" clip-path="url(#p7cf0675df8)" style="fill: none; stroke: #612158; stroke-width: 2; stroke-linecap: square"/>
   </g>
   <g id="patch_27">
    <path d="M 75.459375 358.936875 
L 75.459375 270.98839 
" style="fill: none; stroke: #000000; stroke-linejoin: miter; stroke-linecap: square"/>
   </g>
   <g id="patch_28">
    <path d="M 660.58875 358.936875 
L 660.58875 270.98839 
" style="fill: none; stroke: #000000; stroke-linejoin: miter; stroke-linecap: square"/>
   </g>
   <g id="patch_29">
    <path d="M 75.459375 358.936875 
L 660.58875 358.936875 
" style="fill: none; stroke: #000000; stroke-linejoin: miter; stroke-linecap: square"/>
   </g>
   <g id="patch_30">
    <path d="M 75.459375 270.98839 
L 660.58875 270.98839 
" style="fill: none; stroke: #000000; stroke-linejoin: miter; stroke-linecap: square"/>
   </g>
  </g>
  <g id="legend_1">
   <g id="line2d_31">
    <path d="M 71.626298 14.888543 
L 86.620298 14.888543 
L 101.614298 14.888543 
" style="fill: none; stroke: #cc071e; stroke-width: 2; stroke-linecap: square"/>
   </g>
   <g id="text_26">
    <!-- $\dot{Q}_{\mathrm{WP}}$ -->
    <g transform="translate(113.609498 20.136443)scale(0.14994 -0.14994)">
     <use xlink:href="#DejaVuSans-307" transform="translate(74.271484 31.015625)"/>
     <use xlink:href="#DejaVuSans-Oblique-51" transform="translate(0 0.296875)"/>
     <use xlink:href="#DejaVuSans-57" transform="translate(79.667969 -16.109375)scale(0.7)"/>
     <use xlink:href="#DejaVuSans-50" transform="translate(148.881836 -16.109375)scale(0.7)"/>
    </g>
   </g>
   <g id="line2d_32">
    <path d="M 172.685858 14.888543 
L 187.679858 14.888543 
L 202.673858 14.888543 
" style="fill: none; stroke: #407fb7; stroke-width: 2; stroke-linecap: square"/>
   </g>
   <g id="text_27">
    <!-- Modus -->
    <g transform="translate(214.669058 20.136443)scale(0.14994 -0.14994)">
     <use xlink:href="#ArialMT-4d"/>
     <use xlink:href="#ArialMT-6f" x="83.300781"/>
     <use xlink:href="#ArialMT-64" x="138.916016"/>
     <use xlink:href="#ArialMT-75" x="194.53125"/>
     <use xlink:href="#ArialMT-73" x="250.146484"/>
    </g>
   </g>
   <g id="line2d_33">
    <path d="M 289.6578 14.888543 
L 304.6518 14.888543 
L 319.6458 14.888543 
" style="fill: none; stroke: #f6a800; stroke-width: 2; stroke-linecap: square"/>
   </g>
   <g id="text_28">
    <!-- $T_{\mathrm{PS}}$ -->
    <g transform="translate(331.641 20.136443)scale(0.14994 -0.14994)">
     <defs>
      <path id="DejaVuSans-53" d="M 3425 4513 
L 3425 3897 
Q 3066 4069 2747 4153 
Q 2428 4238 2131 4238 
Q 1616 4238 1336 4038 
Q 1056 3838 1056 3469 
Q 1056 3159 1242 3001 
Q 1428 2844 1947 2747 
L 2328 2669 
Q 3034 2534 3370 2195 
Q 3706 1856 3706 1288 
Q 3706 609 3251 259 
Q 2797 -91 1919 -91 
Q 1588 -91 1214 -16 
Q 841 59 441 206 
L 441 856 
Q 825 641 1194 531 
Q 1563 422 1919 422 
Q 2459 422 2753 634 
Q 3047 847 3047 1241 
Q 3047 1584 2836 1778 
Q 2625 1972 2144 2069 
L 1759 2144 
Q 1053 2284 737 2584 
Q 422 2884 422 3419 
Q 422 4038 858 4394 
Q 1294 4750 2059 4750 
Q 2388 4750 2728 4690 
Q 3069 4631 3425 4513 
z
" transform="scale(0.015625)"/>
     </defs>
     <use xlink:href="#DejaVuSans-Oblique-54" transform="translate(0 0.09375)"/>
     <use xlink:href="#DejaVuSans-50" transform="translate(61.083984 -16.3125)scale(0.7)"/>
     <use xlink:href="#DejaVuSans-53" transform="translate(103.295898 -16.3125)scale(0.7)"/>
    </g>
   </g>
   <g id="line2d_34">
    <path d="M 384.26994 14.888543 
L 399.26394 14.888543 
L 414.25794 14.888543 
" style="fill: none; stroke: #0098a1; stroke-width: 2; stroke-linecap: square"/>
   </g>
   <g id="text_29">
    <!-- $T_{\mathrm{TWW}}$ -->
    <g transform="translate(426.25314 20.136443)scale(0.14994 -0.14994)">
     <defs>
      <path id="DejaVuSans-54" d="M -19 4666 
L 3928 4666 
L 3928 4134 
L 2272 4134 
L 2272 0 
L 1638 0 
L 1638 4134 
L -19 4134 
L -19 4666 
z
" transform="scale(0.015625)"/>
     </defs>
     <use xlink:href="#DejaVuSans-Oblique-54" transform="translate(0 0.09375)"/>
     <use xlink:href="#DejaVuSans-54" transform="translate(61.083984 -16.3125)scale(0.7)"/>
     <use xlink:href="#DejaVuSans-57" transform="translate(103.842773 -16.3125)scale(0.7)"/>
     <use xlink:href="#DejaVuSans-57" transform="translate(173.056641 -16.3125)scale(0.7)"/>
    </g>
   </g>
   <g id="line2d_35">
    <path d="M 493.12638 14.888543 
L 508.12038 14.888543 
L 523.11438 14.888543 
" style="fill: none; stroke: #57ab27; stroke-width: 2; stroke-linecap: square"/>
   </g>
   <g id="text_30">
    <!-- $\dot{Q}_{\mathrm{Haus}}$ -->
    <g transform="translate(535.10958 20.136443)scale(0.14994 -0.14994)">
     <use xlink:href="#DejaVuSans-307" transform="translate(74.271484 31.015625)"/>
     <use xlink:href="#DejaVuSans-Oblique-51" transform="translate(0 0.296875)"/>
     <use xlink:href="#DejaVuSans-48" transform="translate(79.667969 -16.109375)scale(0.7)"/>
     <use xlink:href="#DejaVuSans-61" transform="translate(132.304688 -16.109375)scale(0.7)"/>
     <use xlink:href="#DejaVuSans-75" transform="translate(175.200195 -16.109375)scale(0.7)"/>
     <use xlink:href="#DejaVuSans-73" transform="translate(219.56543 -16.109375)scale(0.7)"/>
    </g>
   </g>
   <g id="line2d_36">
    <path d="M 603.93204 14.888543 
L 618.92604 14.888543 
L 633.92004 14.888543 
" style="fill: none; stroke: #612158; stroke-width: 2; stroke-linecap: square"/>
   </g>
   <g id="text_31">
    <!-- $P_{\mathrm{PV}}$ -->
    <g transform="translate(645.91524 20.136443)scale(0.14994 -0.14994)">
     <use xlink:href="#DejaVuSans-Oblique-50" transform="translate(0 0.09375)"/>
     <use xlink:href="#DejaVuSans-50" transform="translate(60.302734 -16.3125)scale(0.7)"/>
     <use xlink:href="#DejaVuSans-56" transform="translate(102.514648 -16.3125)scale(0.7)"/>
    </g>
   </g>
  </g>
 </g>
 <defs>
  <clipPath id="p4aa005673e">
   <rect x="75.459375" y="38.324062" width="585.129375" height="87.948485"/>
  </clipPath>
  <clipPath id="p9b9555dc92">
   <rect x="75.459375" y="154.656226" width="585.129375" height="87.948485"/>
  </clipPath>
  <clipPath id="p7cf0675df8">
   <rect x="75.459375" y="270.98839" width="585.129375" height="87.948485"/>
  </clipPath>
 </defs>
</svg>
