<?xml version="1.0" encoding="utf-8" standalone="no"?>
<!DOCTYPE svg PUBLIC "-//W3C//DTD SVG 1.1//EN"
  "http://www.w3.org/Graphics/SVG/1.1/DTD/svg11.dtd">
<svg xmlns:xlink="http://www.w3.org/1999/xlink" width="447.84pt" height="252pt" viewBox="0 0 447.84 252" xmlns="http://www.w3.org/2000/svg" version="1.1">
 <metadata>
  <rdf:RDF xmlns:dc="http://purl.org/dc/elements/1.1/" xmlns:cc="http://creativecommons.org/ns#" xmlns:rdf="http://www.w3.org/1999/02/22-rdf-syntax-ns#">
   <cc:Work>
    <dc:type rdf:resource="http://purl.org/dc/dcmitype/StillImage"/>
    <dc:date>2023-05-14T13:37:03.089437</dc:date>
    <dc:format>image/svg+xml</dc:format>
    <dc:creator>
     <cc:Agent>
      <dc:title>Matplotlib v3.5.3, https://matplotlib.org/</dc:title>
     </cc:Agent>
    </dc:creator>
   </cc:Work>
  </rdf:RDF>
 </metadata>
 <defs>
  <style type="text/css">*{stroke-linejoin: round; stroke-linecap: butt}</style>
 </defs>
 <g id="figure_1">
  <g id="patch_1">
   <path d="M 0 252 
L 447.84 252 
L 447.84 0 
L 0 0 
z
" style="fill: #ffffff"/>
  </g>
  <g id="axes_1">
   <g id="patch_2">
    <path d="M 50.5175 108.857269 
L 407.315312 108.857269 
L 407.315312 26.238281 
L 50.5175 26.238281 
z
" style="fill: #ffffff"/>
   </g>
   <g id="patch_3">
    <path d="M 66.735582 108.857269 
L 66.735582 26.238281 
L 174.856132 26.238281 
L 174.856132 108.857269 
z
" clip-path="url(#p4d1fa3db24)" style="fill: #808080; opacity: 0.2; stroke: #808080; stroke-width: 1.5; stroke-linejoin: miter"/>
   </g>
   <g id="patch_4">
    <path d="M 282.976681 108.857269 
L 282.976681 26.238281 
L 391.09723 26.238281 
L 391.09723 108.857269 
z
" clip-path="url(#p4d1fa3db24)" style="fill: #808080; opacity: 0.2; stroke: #808080; stroke-width: 1.5; stroke-linejoin: miter"/>
   </g>
   <g id="matplotlib.axis_1">
    <g id="xtick_1">
     <g id="line2d_1">
      <defs>
       <path id="m3f1c6f7a2f" d="M 0 0 
L 0 3.5 
" style="stroke: #000000; stroke-width: 0.8"/>
      </defs>
      <g>
       <use xlink:href="#m3f1c6f7a2f" x="120.795857" y="108.857269" style="stroke: #000000; stroke-width: 0.8"/>
      </g>
     </g>
    </g>
    <g id="xtick_2">
     <g id="line2d_2">
      <g>
       <use xlink:href="#m3f1c6f7a2f" x="228.916406" y="108.857269" style="stroke: #000000; stroke-width: 0.8"/>
      </g>
     </g>
    </g>
    <g id="xtick_3">
     <g id="line2d_3">
      <g>
       <use xlink:href="#m3f1c6f7a2f" x="337.036955" y="108.857269" style="stroke: #000000; stroke-width: 0.8"/>
      </g>
     </g>
    </g>
   </g>
   <g id="matplotlib.axis_2">
    <g id="ytick_1">
     <g id="line2d_4">
      <defs>
       <path id="mbd316f159b" d="M 0 0 
L -3.5 0 
" style="stroke: #000000; stroke-width: 0.8"/>
      </defs>
      <g>
       <use xlink:href="#mbd316f159b" x="50.5175" y="105.101861" style="stroke: #000000; stroke-width: 0.8"/>
      </g>
     </g>
     <g id="text_1">
      <!-- 0 -->
      <g transform="translate(36.51875 109.281001)scale(0.11 -0.11)">
       <defs>
        <path id="DejaVuSerif-30" d="M 2034 219 
Q 2513 219 2750 744 
Q 2988 1269 2988 2328 
Q 2988 3391 2750 3916 
Q 2513 4441 2034 4441 
Q 1556 4441 1318 3916 
Q 1081 3391 1081 2328 
Q 1081 1269 1318 744 
Q 1556 219 2034 219 
z
M 2034 -91 
Q 1275 -91 848 546 
Q 422 1184 422 2328 
Q 422 3475 848 4112 
Q 1275 4750 2034 4750 
Q 2797 4750 3222 4112 
Q 3647 3475 3647 2328 
Q 3647 1184 3222 546 
Q 2797 -91 2034 -91 
z
" transform="scale(0.015625)"/>
       </defs>
       <use xlink:href="#DejaVuSerif-30"/>
      </g>
     </g>
    </g>
    <g id="ytick_2">
     <g id="line2d_5">
      <g>
       <use xlink:href="#mbd316f159b" x="50.5175" y="67.547775" style="stroke: #000000; stroke-width: 0.8"/>
      </g>
     </g>
     <g id="text_2">
      <!-- 5 -->
      <g transform="translate(36.51875 71.726916)scale(0.11 -0.11)">
       <defs>
        <path id="DejaVuSerif-35" d="M 3219 4666 
L 3219 4153 
L 1081 4153 
L 1081 2816 
Q 1244 2928 1461 2984 
Q 1678 3041 1947 3041 
Q 2703 3041 3140 2622 
Q 3578 2203 3578 1478 
Q 3578 738 3136 323 
Q 2694 -91 1894 -91 
Q 1572 -91 1234 -12 
Q 897 66 544 225 
L 544 1131 
L 897 1131 
Q 925 688 1179 453 
Q 1434 219 1894 219 
Q 2388 219 2653 544 
Q 2919 869 2919 1478 
Q 2919 2084 2655 2407 
Q 2391 2731 1894 2731 
Q 1613 2731 1398 2631 
Q 1184 2531 1019 2322 
L 750 2322 
L 750 4666 
L 3219 4666 
z
" transform="scale(0.015625)"/>
       </defs>
       <use xlink:href="#DejaVuSerif-35"/>
      </g>
     </g>
    </g>
    <g id="ytick_3">
     <g id="line2d_6">
      <g>
       <use xlink:href="#mbd316f159b" x="50.5175" y="29.99369" style="stroke: #000000; stroke-width: 0.8"/>
      </g>
     </g>
     <g id="text_3">
      <!-- 10 -->
      <g transform="translate(29.52 34.17283)scale(0.11 -0.11)">
       <defs>
        <path id="DejaVuSerif-31" d="M 909 0 
L 909 331 
L 1722 331 
L 1722 4213 
L 781 3603 
L 781 4013 
L 1919 4750 
L 2350 4750 
L 2350 331 
L 3163 331 
L 3163 0 
L 909 0 
z
" transform="scale(0.015625)"/>
       </defs>
       <use xlink:href="#DejaVuSerif-31"/>
       <use xlink:href="#DejaVuSerif-30" x="63.623047"/>
      </g>
     </g>
    </g>
    <g id="text_4">
     <!-- $\dot{Q}_{\mathrm{WP}}$ in kW -->
     <g transform="translate(23.232344 96.037775)rotate(-90)scale(0.11 -0.11)">
      <defs>
       <path id="DejaVuSans-307" d="M -1894 4863 
L -1319 4863 
L -1319 4134 
L -1894 4134 
L -1894 4863 
z
M -1600 3584 
L -1600 3584 
z
" transform="scale(0.015625)"/>
       <path id="DejaVuSans-Oblique-51" d="M 2309 -84 
Q 2275 -88 2237 -89 
Q 2200 -91 2125 -91 
Q 1250 -91 756 411 
Q 263 913 263 1797 
Q 263 2319 452 2844 
Q 641 3369 978 3788 
Q 1369 4269 1858 4509 
Q 2347 4750 2938 4750 
Q 3794 4750 4287 4245 
Q 4781 3741 4781 2869 
Q 4781 1928 4265 1147 
Q 3750 366 2919 44 
L 3553 -825 
L 2847 -825 
L 2309 -84 
z
M 2919 4238 
Q 2400 4238 2003 3986 
Q 1606 3734 1313 3219 
Q 1125 2891 1026 2522 
Q 928 2153 928 1778 
Q 928 1128 1239 775 
Q 1550 422 2119 422 
Q 2631 422 3032 676 
Q 3434 931 3719 1434 
Q 3909 1772 4009 2142 
Q 4109 2513 4109 2881 
Q 4109 3528 3796 3883 
Q 3484 4238 2919 4238 
z
" transform="scale(0.015625)"/>
       <path id="DejaVuSans-57" d="M 213 4666 
L 850 4666 
L 1831 722 
L 2809 4666 
L 3519 4666 
L 4500 722 
L 5478 4666 
L 6119 4666 
L 4947 0 
L 4153 0 
L 3169 4050 
L 2175 0 
L 1381 0 
L 213 4666 
z
" transform="scale(0.015625)"/>
       <path id="DejaVuSans-50" d="M 1259 4147 
L 1259 2394 
L 2053 2394 
Q 2494 2394 2734 2622 
Q 2975 2850 2975 3272 
Q 2975 3691 2734 3919 
Q 2494 4147 2053 4147 
L 1259 4147 
z
M 628 4666 
L 2053 4666 
Q 2838 4666 3239 4311 
Q 3641 3956 3641 3272 
Q 3641 2581 3239 2228 
Q 2838 1875 2053 1875 
L 1259 1875 
L 1259 0 
L 628 0 
L 628 4666 
z
" transform="scale(0.015625)"/>
       <path id="DejaVuSerif-20" transform="scale(0.015625)"/>
       <path id="DejaVuSerif-69" d="M 622 4353 
Q 622 4497 726 4603 
Q 831 4709 978 4709 
Q 1122 4709 1226 4603 
Q 1331 4497 1331 4353 
Q 1331 4206 1228 4103 
Q 1125 4000 978 4000 
Q 831 4000 726 4103 
Q 622 4206 622 4353 
z
M 1356 331 
L 1900 331 
L 1900 0 
L 231 0 
L 231 331 
L 781 331 
L 781 2988 
L 231 2988 
L 231 3322 
L 1356 3322 
L 1356 331 
z
" transform="scale(0.015625)"/>
       <path id="DejaVuSerif-6e" d="M 263 0 
L 263 331 
L 781 331 
L 781 2988 
L 231 2988 
L 231 3322 
L 1356 3322 
L 1356 2731 
Q 1516 3069 1770 3241 
Q 2025 3413 2363 3413 
Q 2913 3413 3172 3097 
Q 3431 2781 3431 2113 
L 3431 331 
L 3944 331 
L 3944 0 
L 2356 0 
L 2356 331 
L 2853 331 
L 2853 1931 
Q 2853 2541 2703 2767 
Q 2553 2994 2175 2994 
Q 1775 2994 1565 2701 
Q 1356 2409 1356 1850 
L 1356 331 
L 1856 331 
L 1856 0 
L 263 0 
z
" transform="scale(0.015625)"/>
       <path id="DejaVuSerif-6b" d="M 1831 0 
L 219 0 
L 219 331 
L 738 331 
L 738 4531 
L 184 4531 
L 184 4863 
L 1313 4863 
L 1313 1697 
L 2713 2988 
L 2234 2988 
L 2234 3322 
L 3738 3322 
L 3738 2988 
L 3169 2988 
L 2181 2075 
L 3444 331 
L 3922 331 
L 3922 0 
L 2284 0 
L 2284 331 
L 2759 331 
L 1766 1697 
L 1313 1275 
L 1313 331 
L 1831 331 
L 1831 0 
z
" transform="scale(0.015625)"/>
       <path id="DejaVuSerif-57" d="M 4878 0 
L 4366 0 
L 3297 3794 
L 2228 0 
L 1716 0 
L 494 4331 
L 31 4331 
L 31 4666 
L 1734 4666 
L 1734 4331 
L 1153 4331 
L 2125 884 
L 3188 4666 
L 3694 4666 
L 4775 844 
L 5753 4331 
L 5216 4331 
L 5216 4666 
L 6559 4666 
L 6559 4331 
L 6100 4331 
L 4878 0 
z
" transform="scale(0.015625)"/>
      </defs>
      <use xlink:href="#DejaVuSans-307" transform="translate(74.271484 31.015625)"/>
      <use xlink:href="#DejaVuSans-Oblique-51" transform="translate(0 0.296875)"/>
      <use xlink:href="#DejaVuSans-57" transform="translate(79.667969 -16.109375)scale(0.7)"/>
      <use xlink:href="#DejaVuSans-50" transform="translate(148.881836 -16.109375)scale(0.7)"/>
      <use xlink:href="#DejaVuSerif-20" transform="translate(193.828125 0.296875)"/>
      <use xlink:href="#DejaVuSerif-69" transform="translate(225.615234 0.296875)"/>
      <use xlink:href="#DejaVuSerif-6e" transform="translate(257.597656 0.296875)"/>
      <use xlink:href="#DejaVuSerif-20" transform="translate(322.001953 0.296875)"/>
      <use xlink:href="#DejaVuSerif-6b" transform="translate(353.789062 0.296875)"/>
      <use xlink:href="#DejaVuSerif-57" transform="translate(414.384766 0.296875)"/>
     </g>
    </g>
   </g>
   <g id="line2d_7">
    <path d="M 66.735582 82.959972 
L 67.861838 83.563842 
L 68.988094 75.91783 
L 70.11435 105.101861 
L 71.240605 86.324818 
L 81.376907 86.324818 
L 82.503162 85.531676 
L 83.629418 84.966862 
L 84.755674 84.750551 
L 87.008185 84.573295 
L 89.260697 84.311919 
L 90.386953 84.927806 
L 93.76572 85.660862 
L 94.891975 86.324818 
L 96.018231 85.567728 
L 97.144487 77.002392 
L 98.270743 105.101861 
L 99.396998 85.585754 
L 100.523254 105.101861 
L 101.64951 86.324818 
L 102.775765 105.101861 
L 103.902021 86.324818 
L 105.028277 105.101861 
L 106.154533 86.324818 
L 107.280788 105.101861 
L 108.407044 105.101861 
L 109.5333 84.984888 
L 110.659556 105.101861 
L 111.785811 86.324818 
L 114.038323 86.324818 
L 115.164578 40.208401 
L 116.290834 105.101861 
L 120.795857 105.101861 
L 121.922113 85.183174 
L 123.048368 105.101861 
L 124.174624 86.324818 
L 125.30088 86.324818 
L 126.427136 70.852535 
L 127.553391 63.717259 
L 128.679647 105.101861 
L 129.805903 86.324818 
L 130.932158 105.101861 
L 132.058414 105.101861 
L 133.18467 54.463932 
L 134.310926 86.324818 
L 135.437181 72.853416 
L 136.563437 69.963254 
L 137.689693 105.101861 
L 138.815949 82.025626 
L 139.942204 79.913584 
L 141.06846 85.799061 
L 142.194716 105.101861 
L 152.331017 105.101861 
L 153.457273 86.324818 
L 154.583529 105.101861 
L 159.088552 105.101861 
L 160.214807 84.738533 
L 161.341063 105.101861 
L 162.467319 105.101861 
L 163.593574 83.242379 
L 164.71983 105.101861 
L 165.846086 105.101861 
L 166.972342 86.324818 
L 168.098597 105.101861 
L 169.224853 86.324818 
L 170.351109 105.101861 
L 171.477364 86.324818 
L 172.60362 105.101861 
L 173.729876 86.324818 
L 174.856132 105.101861 
L 175.982387 85.841121 
L 177.108643 105.101861 
L 178.234899 83.711054 
L 179.361155 105.101861 
L 180.48741 83.605902 
L 181.613666 105.101861 
L 182.739922 83.251392 
L 183.866177 105.101861 
L 184.992433 82.866838 
L 186.118689 105.101861 
L 187.244945 82.512327 
L 188.3712 105.101861 
L 189.497456 82.115756 
L 190.623712 105.101861 
L 191.749967 82.584431 
L 192.876223 86.063441 
L 194.002479 105.101861 
L 195.128735 83.662984 
L 196.25499 85.573736 
L 197.381246 105.101861 
L 198.507502 83.963417 
L 199.633757 73.532394 
L 200.760013 59.775582 
L 201.886269 30.01472 
L 203.012525 84.5072 
L 204.13878 105.101861 
L 205.265036 84.939823 
L 206.391292 105.101861 
L 207.517548 86.324818 
L 208.643803 105.101861 
L 209.770059 86.324818 
L 210.896315 105.101861 
L 213.148826 105.101861 
L 214.275082 86.324818 
L 215.401338 86.324818 
L 216.527593 105.101861 
L 224.411383 105.101861 
L 225.537639 85.907216 
L 226.663895 86.324818 
L 227.790151 79.330745 
L 228.916406 105.101861 
L 232.295173 105.101861 
L 233.421429 86.324818 
L 234.547685 105.101861 
L 240.178963 105.101861 
L 241.305219 86.324818 
L 242.431475 43.726468 
L 243.557731 82.917911 
L 244.683986 83.804188 
L 245.810242 78.910139 
L 246.936498 86.324818 
L 248.062754 83.714058 
L 249.189009 83.113193 
L 250.315265 86.324818 
L 251.441521 86.324818 
L 252.567776 105.101861 
L 266.082845 105.101861 
L 267.209101 85.165148 
L 268.335356 105.101861 
L 269.461612 30.01472 
L 270.587868 69.614752 
L 271.714124 105.101861 
L 275.092891 105.101861 
L 276.219147 84.257841 
L 277.345402 105.101861 
L 279.597914 105.101861 
L 280.724169 84.969867 
L 281.850425 105.101861 
L 282.976681 105.101861 
L 284.102937 83.77114 
L 285.229192 105.101861 
L 286.355448 105.101861 
L 287.481704 85.330386 
L 288.607959 105.101861 
L 289.734215 105.101861 
L 290.860471 86.324818 
L 291.986727 105.101861 
L 293.112982 86.324818 
L 294.239238 105.101861 
L 295.365494 86.324818 
L 296.49175 105.101861 
L 297.618005 86.324818 
L 298.744261 105.101861 
L 299.870517 86.324818 
L 300.996772 105.101861 
L 302.123028 85.660862 
L 303.249284 105.101861 
L 304.37554 83.846248 
L 305.501795 105.101861 
L 306.628051 84.963858 
L 307.754307 105.101861 
L 308.880562 86.324818 
L 310.006818 48.17888 
L 311.133074 86.324818 
L 312.25933 105.101861 
L 313.385585 86.324818 
L 314.511841 105.101861 
L 315.638097 86.324818 
L 316.764353 105.101861 
L 317.890608 105.101861 
L 319.016864 86.324818 
L 320.14312 105.101861 
L 321.269375 105.101861 
L 322.395631 86.324818 
L 323.521887 86.324818 
L 324.648143 105.101861 
L 331.405677 105.101861 
L 332.531933 85.934255 
L 333.658188 105.101861 
L 334.784444 105.101861 
L 335.9107 64.858903 
L 337.036955 105.101861 
L 338.163211 105.101861 
L 339.289467 86.324818 
L 340.415723 105.101861 
L 344.920746 105.101861 
L 346.047001 33.980432 
L 347.173257 84.912784 
L 348.299513 105.101861 
L 349.425768 105.101861 
L 350.552024 86.324818 
L 351.67828 86.324818 
L 352.804536 70.005315 
L 353.930791 105.101861 
L 355.057047 73.496342 
L 356.183303 81.169393 
L 357.309558 83.572855 
L 358.435814 105.101861 
L 359.56207 105.101861 
L 360.688326 86.324818 
L 361.814581 105.101861 
L 374.203394 105.101861 
L 375.32965 85.531676 
L 376.455906 105.101861 
L 377.582161 42.203274 
L 378.708417 83.611911 
L 379.834673 105.101861 
L 380.960929 105.101861 
L 382.087184 86.324818 
L 383.21344 105.101861 
L 384.339696 86.324818 
L 385.465952 105.101861 
L 386.592207 86.324818 
L 387.718463 105.101861 
L 388.844719 86.015372 
L 389.970974 105.101861 
L 389.970974 105.101861 
" clip-path="url(#p4d1fa3db24)" style="fill: none; stroke: #ec635c; stroke-width: 1.5; stroke-linecap: square"/>
   </g>
   <g id="patch_5">
    <path d="M 50.5175 108.857269 
L 50.5175 26.238281 
" style="fill: none; stroke: #000000; stroke-width: 0.5; stroke-linejoin: miter; stroke-linecap: square"/>
   </g>
   <g id="patch_6">
    <path d="M 407.315312 108.857269 
L 407.315312 26.238281 
" style="fill: none; stroke: #000000; stroke-width: 0.5; stroke-linejoin: miter; stroke-linecap: square"/>
   </g>
   <g id="patch_7">
    <path d="M 50.5175 108.857269 
L 407.315312 108.857269 
" style="fill: none; stroke: #000000; stroke-width: 0.5; stroke-linejoin: miter; stroke-linecap: square"/>
   </g>
   <g id="patch_8">
    <path d="M 50.5175 26.238281 
L 407.315312 26.238281 
" style="fill: none; stroke: #000000; stroke-width: 0.5; stroke-linejoin: miter; stroke-linecap: square"/>
   </g>
   <g id="text_5">
    <!-- April -->
    <g transform="translate(50.5175 20.238281)scale(0.11 -0.11)">
     <defs>
      <path id="DejaVuSerif-41" d="M 1281 1691 
L 2994 1691 
L 2138 3909 
L 1281 1691 
z
M -38 0 
L -38 331 
L 372 331 
L 2034 4666 
L 2559 4666 
L 4225 331 
L 4684 331 
L 4684 0 
L 2988 0 
L 2988 331 
L 3506 331 
L 3116 1356 
L 1153 1356 
L 763 331 
L 1275 331 
L 1275 0 
L -38 0 
z
" transform="scale(0.015625)"/>
      <path id="DejaVuSerif-70" d="M 1313 1825 
L 1313 1497 
Q 1313 897 1542 583 
Q 1772 269 2209 269 
Q 2650 269 2876 622 
Q 3103 975 3103 1663 
Q 3103 2353 2876 2703 
Q 2650 3053 2209 3053 
Q 1772 3053 1542 2737 
Q 1313 2422 1313 1825 
z
M 738 2988 
L 184 2988 
L 184 3322 
L 1313 3322 
L 1313 2803 
Q 1481 3116 1742 3264 
Q 2003 3413 2388 3413 
Q 3000 3413 3387 2928 
Q 3775 2444 3775 1663 
Q 3775 881 3387 395 
Q 3000 -91 2388 -91 
Q 2003 -91 1742 57 
Q 1481 206 1313 519 
L 1313 -997 
L 1856 -997 
L 1856 -1331 
L 184 -1331 
L 184 -997 
L 738 -997 
L 738 2988 
z
" transform="scale(0.015625)"/>
      <path id="DejaVuSerif-72" d="M 3059 3328 
L 3059 2497 
L 2728 2497 
Q 2713 2744 2591 2866 
Q 2469 2988 2234 2988 
Q 1809 2988 1582 2694 
Q 1356 2400 1356 1850 
L 1356 331 
L 2022 331 
L 2022 0 
L 263 0 
L 263 331 
L 781 331 
L 781 2994 
L 231 2994 
L 231 3322 
L 1356 3322 
L 1356 2731 
Q 1525 3078 1790 3245 
Q 2056 3413 2438 3413 
Q 2578 3413 2733 3391 
Q 2888 3369 3059 3328 
z
" transform="scale(0.015625)"/>
      <path id="DejaVuSerif-6c" d="M 1313 331 
L 1856 331 
L 1856 0 
L 184 0 
L 184 331 
L 738 331 
L 738 4531 
L 184 4531 
L 184 4863 
L 1313 4863 
L 1313 331 
z
" transform="scale(0.015625)"/>
     </defs>
     <use xlink:href="#DejaVuSerif-41"/>
     <use xlink:href="#DejaVuSerif-70" x="72.216797"/>
     <use xlink:href="#DejaVuSerif-72" x="136.230469"/>
     <use xlink:href="#DejaVuSerif-69" x="184.033203"/>
     <use xlink:href="#DejaVuSerif-6c" x="216.015625"/>
    </g>
   </g>
  </g>
  <g id="axes_2">
   <g id="patch_9">
    <path d="M 50.5175 207.828125 
L 407.315312 207.828125 
L 407.315312 125.209137 
L 50.5175 125.209137 
z
" style="fill: #ffffff"/>
   </g>
   <g id="patch_10">
    <path d="M 66.735582 207.828125 
L 66.735582 125.209137 
L 174.856132 125.209137 
L 174.856132 207.828125 
z
" clip-path="url(#p9786b66101)" style="fill: #808080; opacity: 0.2; stroke: #808080; stroke-width: 1.5; stroke-linejoin: miter"/>
   </g>
   <g id="patch_11">
    <path d="M 282.976681 207.828125 
L 282.976681 125.209137 
L 391.09723 125.209137 
L 391.09723 207.828125 
z
" clip-path="url(#p9786b66101)" style="fill: #808080; opacity: 0.2; stroke: #808080; stroke-width: 1.5; stroke-linejoin: miter"/>
   </g>
   <g id="matplotlib.axis_3">
    <g id="xtick_4">
     <g id="line2d_8">
      <g>
       <use xlink:href="#m3f1c6f7a2f" x="120.795857" y="207.828125" style="stroke: #000000; stroke-width: 0.8"/>
      </g>
     </g>
     <g id="text_6">
      <!-- 1.4 -->
      <g transform="translate(112.049138 223.186406)scale(0.11 -0.11)">
       <defs>
        <path id="DejaVuSerif-2e" d="M 603 325 
Q 603 500 722 622 
Q 841 744 1019 744 
Q 1191 744 1312 622 
Q 1434 500 1434 325 
Q 1434 153 1312 31 
Q 1191 -91 1019 -91 
Q 841 -91 722 29 
Q 603 150 603 325 
z
" transform="scale(0.015625)"/>
        <path id="DejaVuSerif-34" d="M 2234 1581 
L 2234 4063 
L 641 1581 
L 2234 1581 
z
M 3609 0 
L 1484 0 
L 1484 331 
L 2234 331 
L 2234 1247 
L 197 1247 
L 197 1588 
L 2241 4750 
L 2859 4750 
L 2859 1581 
L 3750 1581 
L 3750 1247 
L 2859 1247 
L 2859 331 
L 3609 331 
L 3609 0 
z
" transform="scale(0.015625)"/>
       </defs>
       <use xlink:href="#DejaVuSerif-31"/>
       <use xlink:href="#DejaVuSerif-2e" x="63.623047"/>
       <use xlink:href="#DejaVuSerif-34" x="95.410156"/>
      </g>
     </g>
    </g>
    <g id="xtick_5">
     <g id="line2d_9">
      <g>
       <use xlink:href="#m3f1c6f7a2f" x="228.916406" y="207.828125" style="stroke: #000000; stroke-width: 0.8"/>
      </g>
     </g>
     <g id="text_7">
      <!-- 2.4 -->
      <g transform="translate(220.169688 223.186406)scale(0.11 -0.11)">
       <defs>
        <path id="DejaVuSerif-32" d="M 819 3553 
L 469 3553 
L 469 4384 
Q 803 4563 1142 4656 
Q 1481 4750 1806 4750 
Q 2534 4750 2956 4397 
Q 3378 4044 3378 3438 
Q 3378 2753 2422 1800 
Q 2347 1728 2309 1691 
L 1131 513 
L 3078 513 
L 3078 1088 
L 3444 1088 
L 3444 0 
L 434 0 
L 434 341 
L 1850 1753 
Q 2319 2222 2519 2614 
Q 2719 3006 2719 3438 
Q 2719 3909 2473 4175 
Q 2228 4441 1797 4441 
Q 1350 4441 1106 4219 
Q 863 3997 819 3553 
z
" transform="scale(0.015625)"/>
       </defs>
       <use xlink:href="#DejaVuSerif-32"/>
       <use xlink:href="#DejaVuSerif-2e" x="63.623047"/>
       <use xlink:href="#DejaVuSerif-34" x="95.410156"/>
      </g>
     </g>
    </g>
    <g id="xtick_6">
     <g id="line2d_10">
      <g>
       <use xlink:href="#m3f1c6f7a2f" x="337.036955" y="207.828125" style="stroke: #000000; stroke-width: 0.8"/>
      </g>
     </g>
     <g id="text_8">
      <!-- 3.4 -->
      <g transform="translate(328.290237 223.186406)scale(0.11 -0.11)">
       <defs>
        <path id="DejaVuSerif-33" d="M 622 4469 
Q 988 4606 1323 4678 
Q 1659 4750 1953 4750 
Q 2638 4750 3022 4454 
Q 3406 4159 3406 3634 
Q 3406 3213 3140 2930 
Q 2875 2647 2388 2547 
Q 2963 2466 3280 2130 
Q 3597 1794 3597 1259 
Q 3597 606 3158 257 
Q 2719 -91 1894 -91 
Q 1528 -91 1179 -12 
Q 831 66 488 225 
L 488 1131 
L 838 1131 
Q 869 681 1141 450 
Q 1413 219 1906 219 
Q 2384 219 2661 495 
Q 2938 772 2938 1253 
Q 2938 1803 2653 2086 
Q 2369 2369 1819 2369 
L 1522 2369 
L 1522 2688 
L 1678 2688 
Q 2225 2688 2498 2914 
Q 2772 3141 2772 3597 
Q 2772 4006 2547 4223 
Q 2322 4441 1900 4441 
Q 1478 4441 1245 4241 
Q 1013 4041 972 3647 
L 622 3647 
L 622 4469 
z
" transform="scale(0.015625)"/>
       </defs>
       <use xlink:href="#DejaVuSerif-33"/>
       <use xlink:href="#DejaVuSerif-2e" x="63.623047"/>
       <use xlink:href="#DejaVuSerif-34" x="95.410156"/>
      </g>
     </g>
    </g>
    <g id="text_9">
     <!-- Zeit in d -->
     <g transform="translate(205.551719 237.832344)scale(0.11 -0.11)">
      <defs>
       <path id="DejaVuSerif-5a" d="M 288 0 
L 288 225 
L 3194 4281 
L 781 4281 
L 781 3584 
L 397 3584 
L 397 4666 
L 4084 4666 
L 4084 4441 
L 1178 384 
L 3816 384 
L 3816 1038 
L 4197 1038 
L 4197 0 
L 288 0 
z
" transform="scale(0.015625)"/>
       <path id="DejaVuSerif-65" d="M 3469 1600 
L 991 1600 
L 991 1575 
Q 991 903 1244 561 
Q 1497 219 1991 219 
Q 2369 219 2611 417 
Q 2853 616 2950 1006 
L 3413 1006 
Q 3275 459 2904 184 
Q 2534 -91 1931 -91 
Q 1203 -91 761 389 
Q 319 869 319 1663 
Q 319 2450 753 2931 
Q 1188 3413 1894 3413 
Q 2647 3413 3050 2948 
Q 3453 2484 3469 1600 
z
M 2791 1931 
Q 2772 2513 2545 2808 
Q 2319 3103 1894 3103 
Q 1497 3103 1269 2806 
Q 1041 2509 991 1931 
L 2791 1931 
z
" transform="scale(0.015625)"/>
       <path id="DejaVuSerif-74" d="M 691 2988 
L 184 2988 
L 184 3322 
L 691 3322 
L 691 4353 
L 1269 4353 
L 1269 3322 
L 2350 3322 
L 2350 2988 
L 1269 2988 
L 1269 878 
Q 1269 456 1350 337 
Q 1431 219 1650 219 
Q 1875 219 1978 351 
Q 2081 484 2088 781 
L 2522 781 
Q 2497 328 2275 118 
Q 2053 -91 1600 -91 
Q 1103 -91 897 129 
Q 691 350 691 878 
L 691 2988 
z
" transform="scale(0.015625)"/>
       <path id="DejaVuSerif-64" d="M 3359 331 
L 3909 331 
L 3909 0 
L 2784 0 
L 2784 519 
Q 2616 206 2355 57 
Q 2094 -91 1709 -91 
Q 1097 -91 708 395 
Q 319 881 319 1663 
Q 319 2444 706 2928 
Q 1094 3413 1709 3413 
Q 2094 3413 2355 3264 
Q 2616 3116 2784 2803 
L 2784 4531 
L 2241 4531 
L 2241 4863 
L 3359 4863 
L 3359 331 
z
M 2784 1497 
L 2784 1825 
Q 2784 2422 2554 2737 
Q 2325 3053 1888 3053 
Q 1444 3053 1217 2703 
Q 991 2353 991 1663 
Q 991 975 1217 622 
Q 1444 269 1888 269 
Q 2325 269 2554 583 
Q 2784 897 2784 1497 
z
" transform="scale(0.015625)"/>
      </defs>
      <use xlink:href="#DejaVuSerif-5a"/>
      <use xlink:href="#DejaVuSerif-65" x="69.482422"/>
      <use xlink:href="#DejaVuSerif-69" x="128.662109"/>
      <use xlink:href="#DejaVuSerif-74" x="160.644531"/>
      <use xlink:href="#DejaVuSerif-20" x="200.830078"/>
      <use xlink:href="#DejaVuSerif-69" x="232.617188"/>
      <use xlink:href="#DejaVuSerif-6e" x="264.599609"/>
      <use xlink:href="#DejaVuSerif-20" x="329.003906"/>
      <use xlink:href="#DejaVuSerif-64" x="360.791016"/>
     </g>
    </g>
   </g>
   <g id="matplotlib.axis_4">
    <g id="ytick_4">
     <g id="line2d_11">
      <g>
       <use xlink:href="#mbd316f159b" x="50.5175" y="203.321635" style="stroke: #000000; stroke-width: 0.8"/>
      </g>
     </g>
     <g id="text_10">
      <!-- 20 -->
      <g transform="translate(29.52 207.500775)scale(0.11 -0.11)">
       <use xlink:href="#DejaVuSerif-32"/>
       <use xlink:href="#DejaVuSerif-30" x="63.623047"/>
      </g>
     </g>
    </g>
    <g id="ytick_5">
     <g id="line2d_12">
      <g>
       <use xlink:href="#mbd316f159b" x="50.5175" y="165.767549" style="stroke: #000000; stroke-width: 0.8"/>
      </g>
     </g>
     <g id="text_11">
      <!-- 45 -->
      <g transform="translate(29.52 169.94669)scale(0.11 -0.11)">
       <use xlink:href="#DejaVuSerif-34"/>
       <use xlink:href="#DejaVuSerif-35" x="63.623047"/>
      </g>
     </g>
    </g>
    <g id="ytick_6">
     <g id="line2d_13">
      <g>
       <use xlink:href="#mbd316f159b" x="50.5175" y="128.213464" style="stroke: #000000; stroke-width: 0.8"/>
      </g>
     </g>
     <g id="text_12">
      <!-- 70 -->
      <g transform="translate(29.52 132.392605)scale(0.11 -0.11)">
       <defs>
        <path id="DejaVuSerif-37" d="M 3609 4347 
L 1784 0 
L 1319 0 
L 3059 4153 
L 903 4153 
L 903 3578 
L 538 3578 
L 538 4666 
L 3609 4666 
L 3609 4347 
z
" transform="scale(0.015625)"/>
       </defs>
       <use xlink:href="#DejaVuSerif-37"/>
       <use xlink:href="#DejaVuSerif-30" x="63.623047"/>
      </g>
     </g>
    </g>
    <g id="text_13">
     <!-- $T$ in °C -->
     <g transform="translate(23.232344 185.658631)rotate(-90)scale(0.11 -0.11)">
      <defs>
       <path id="DejaVuSans-Oblique-54" d="M 378 4666 
L 4325 4666 
L 4225 4134 
L 2559 4134 
L 1759 0 
L 1125 0 
L 1925 4134 
L 275 4134 
L 378 4666 
z
" transform="scale(0.015625)"/>
       <path id="DejaVuSerif-b0" d="M 1600 4319 
Q 1363 4319 1200 4155 
Q 1038 3991 1038 3750 
Q 1038 3513 1198 3353 
Q 1359 3194 1600 3194 
Q 1838 3194 2000 3355 
Q 2163 3516 2163 3750 
Q 2163 3984 1997 4151 
Q 1831 4319 1600 4319 
z
M 1600 4750 
Q 1800 4750 1984 4673 
Q 2169 4597 2303 4453 
Q 2447 4313 2519 4134 
Q 2591 3956 2591 3750 
Q 2591 3338 2302 3052 
Q 2013 2766 1594 2766 
Q 1172 2766 890 3047 
Q 609 3328 609 3750 
Q 609 4169 896 4459 
Q 1184 4750 1600 4750 
z
" transform="scale(0.015625)"/>
       <path id="DejaVuSerif-43" d="M 4513 1234 
Q 4306 581 3820 245 
Q 3334 -91 2591 -91 
Q 2134 -91 1743 65 
Q 1353 222 1050 525 
Q 700 875 529 1320 
Q 359 1766 359 2328 
Q 359 3416 987 4083 
Q 1616 4750 2644 4750 
Q 3025 4750 3456 4650 
Q 3888 4550 4384 4347 
L 4384 3272 
L 4031 3272 
Q 3916 3859 3567 4137 
Q 3219 4416 2591 4416 
Q 1844 4416 1459 3886 
Q 1075 3356 1075 2328 
Q 1075 1303 1459 773 
Q 1844 244 2591 244 
Q 3113 244 3450 492 
Q 3788 741 3938 1234 
L 4513 1234 
z
" transform="scale(0.015625)"/>
      </defs>
      <use xlink:href="#DejaVuSans-Oblique-54" transform="translate(0 0.78125)"/>
      <use xlink:href="#DejaVuSerif-20" transform="translate(61.083984 0.78125)"/>
      <use xlink:href="#DejaVuSerif-69" transform="translate(92.871094 0.78125)"/>
      <use xlink:href="#DejaVuSerif-6e" transform="translate(124.853516 0.78125)"/>
      <use xlink:href="#DejaVuSerif-20" transform="translate(189.257812 0.78125)"/>
      <use xlink:href="#DejaVuSerif-b0" transform="translate(221.044922 0.78125)"/>
      <use xlink:href="#DejaVuSerif-43" transform="translate(271.044922 0.78125)"/>
     </g>
    </g>
   </g>
   <g id="line2d_14">
    <path d="M 66.735582 176.07239 
L 67.861838 173.278366 
L 68.988094 166.263263 
L 70.11435 175.907152 
L 72.366861 174.480097 
L 73.493117 173.969362 
L 74.619372 173.608842 
L 75.745628 173.383518 
L 76.871884 173.278366 
L 77.99814 173.30841 
L 79.124395 173.458626 
L 80.250651 173.729015 
L 81.376907 174.119578 
L 82.503162 174.194686 
L 85.88193 173.86421 
L 89.260697 173.638886 
L 94.891975 174.209708 
L 96.018231 173.278366 
L 97.144487 166.939237 
L 98.270743 176.237628 
L 99.396998 173.278366 
L 100.523254 179.392172 
L 101.64951 174.810573 
L 102.775765 179.993037 
L 103.902021 173.563777 
L 105.028277 177.123905 
L 106.154533 179.827799 
L 108.407044 183.342861 
L 109.5333 173.278366 
L 110.659556 174.60027 
L 115.164578 178.986587 
L 118.543346 182.020957 
L 120.795857 183.823554 
L 121.922113 173.278366 
L 126.427136 176.80845 
L 130.932158 179.917929 
L 133.18467 181.344984 
L 134.310926 171.295511 
L 135.437181 172.091657 
L 136.563437 152.773836 
L 137.689693 153.73522 
L 139.942204 128.213464 
L 143.320971 132.239262 
L 144.447227 134.086923 
L 145.573483 136.370211 
L 146.699739 139.104149 
L 148.95225 145.593495 
L 151.204761 152.668684 
L 154.583529 164.250364 
L 159.088552 180.819227 
L 160.214807 173.278366 
L 162.467319 181.480179 
L 163.593574 173.278366 
L 164.71983 177.754813 
L 165.846086 181.630395 
L 166.972342 175.501568 
L 168.098597 180.29347 
L 169.224853 174.404989 
L 170.351109 179.452258 
L 171.477364 173.819145 
L 172.60362 179.10676 
L 173.729876 173.744037 
L 174.856132 179.28702 
L 175.982387 173.894253 
L 177.108643 179.707626 
L 178.234899 173.353475 
L 179.361155 179.437236 
L 180.48741 173.278366 
L 181.613666 179.392172 
L 182.739922 173.278366 
L 183.866177 179.392172 
L 184.992433 173.278366 
L 186.118689 179.392172 
L 187.244945 173.278366 
L 188.3712 179.392172 
L 189.497456 173.278366 
L 190.623712 179.392172 
L 191.749967 173.804124 
L 192.876223 170.364169 
L 194.002479 177.950095 
L 195.128735 173.278366 
L 196.25499 169.838412 
L 197.381246 177.679705 
L 198.507502 173.278366 
L 199.633757 162.853352 
L 201.886269 178.010181 
L 203.012525 173.278366 
L 204.13878 179.392172 
L 205.265036 174.104556 
L 206.391292 179.797756 
L 207.517548 174.465076 
L 208.643803 179.482301 
L 209.770059 173.278366 
L 210.896315 177.439359 
L 212.02257 180.924378 
L 213.148826 183.207667 
L 214.275082 174.615292 
L 216.527593 177.63464 
L 218.780105 180.008059 
L 223.285128 183.628272 
L 224.411383 184.484506 
L 225.537639 174.314859 
L 228.916406 176.943645 
L 232.295173 179.317063 
L 234.547685 180.744119 
L 236.800196 181.990914 
L 240.178963 183.598229 
L 243.557731 184.995241 
L 244.683986 173.278366 
L 245.810242 158.857598 
L 246.936498 148.808124 
L 248.062754 149.649336 
L 249.189009 137.932461 
L 250.315265 128.213464 
L 251.441521 129.37013 
L 252.567776 130.857272 
L 253.694032 132.689911 
L 254.820288 134.853026 
L 258.199055 142.529081 
L 264.956589 158.5121 
L 271.714124 173.909275 
L 275.092891 182.261304 
L 276.219147 173.278366 
L 279.597914 182.561736 
L 280.724169 174.465076 
L 282.976681 181.795633 
L 284.102937 173.368496 
L 286.355448 181.420092 
L 287.481704 174.269794 
L 288.607959 178.596025 
L 289.734215 182.035979 
L 290.860471 175.786979 
L 291.986727 180.443686 
L 293.112982 174.435032 
L 294.239238 179.347107 
L 295.365494 173.608842 
L 296.49175 178.776285 
L 297.618005 173.278366 
L 298.744261 178.701176 
L 299.870517 173.473648 
L 300.996772 179.166847 
L 302.123028 173.77408 
L 303.249284 179.632518 
L 304.37554 173.383518 
L 305.501795 179.452258 
L 306.628051 173.894253 
L 307.754307 179.707626 
L 308.880562 174.855638 
L 310.006818 180.188318 
L 311.133074 175.035898 
L 312.25933 180.263426 
L 313.385585 174.570227 
L 314.511841 179.392172 
L 315.638097 173.278366 
L 316.764353 177.8149 
L 317.890608 181.660438 
L 319.016864 175.095984 
L 320.14312 178.776285 
L 321.269375 181.885763 
L 322.395631 173.653907 
L 323.521887 175.681828 
L 324.648143 177.469402 
L 325.774398 179.016631 
L 326.900654 180.308491 
L 331.405677 184.379354 
L 332.531933 174.359924 
L 335.9107 177.259099 
L 339.289467 179.842821 
L 342.668234 182.171174 
L 346.047001 184.199094 
L 347.173257 173.278366 
L 351.67828 176.057369 
L 352.804536 156.679461 
L 353.930791 157.580759 
L 355.057047 140.396009 
L 356.183303 141.50761 
L 357.309558 130.331514 
L 359.56207 133.005365 
L 360.688326 134.928134 
L 361.814581 137.421726 
L 362.940837 140.471117 
L 366.319604 151.542062 
L 369.698371 163.394131 
L 374.203394 179.872864 
L 375.32965 172.827717 
L 377.582161 181.269876 
L 378.708417 173.278366 
L 379.834673 177.769835 
L 380.960929 181.630395 
L 382.087184 175.531612 
L 383.21344 180.383599 
L 384.339696 174.570227 
L 385.465952 179.677583 
L 386.592207 174.1346 
L 387.718463 179.527366 
L 388.844719 174.119578 
L 389.970974 179.812777 
L 389.970974 179.812777 
" clip-path="url(#p9786b66101)" style="fill: none; stroke-dasharray: 1.5,2.475; stroke-dashoffset: 0; stroke: #f49961; stroke-width: 1.5"/>
   </g>
   <g id="line2d_15">
    <path d="M 66.735582 151.947646 
L 81.376907 153.615047 
L 89.260697 154.456259 
L 93.76572 154.951973 
L 94.891975 155.748119 
L 97.144487 156.003487 
L 98.270743 156.799634 
L 99.396998 156.919807 
L 100.523254 157.715953 
L 105.028277 158.151581 
L 106.154533 156.243833 
L 110.659556 156.724526 
L 112.912067 148.868211 
L 114.038323 145.63856 
L 115.164578 155.147254 
L 116.290834 155.282449 
L 117.41709 156.078595 
L 118.543346 156.198768 
L 119.669601 156.994915 
L 121.922113 157.190196 
L 123.048368 157.986343 
L 124.174624 154.74167 
L 125.30088 150.806002 
L 126.427136 143.550552 
L 127.553391 158.136559 
L 128.679647 158.256732 
L 129.805903 154.997038 
L 132.058414 155.252405 
L 133.18467 144.436829 
L 134.310926 144.587045 
L 135.437181 138.458218 
L 136.563437 139.29943 
L 139.942204 139.735057 
L 141.06846 135.724281 
L 144.447227 136.235017 
L 146.699739 137.932461 
L 147.825994 138.097699 
L 148.95225 138.938911 
L 152.331017 139.419603 
L 154.583529 141.132069 
L 156.83604 141.387437 
L 157.962296 142.228649 
L 159.088552 142.378865 
L 160.214807 143.205055 
L 163.593574 143.670725 
L 164.71983 144.496915 
L 165.846086 153.720199 
L 166.972342 153.855393 
L 168.098597 154.65154 
L 173.729876 155.267427 
L 177.108643 155.597903 
L 199.633757 157.941278 
L 200.760013 148.267346 
L 201.886269 155.582881 
L 207.517548 156.183747 
L 208.643803 156.994915 
L 210.896315 157.190196 
L 212.02257 157.986343 
L 214.275082 158.226689 
L 215.401338 156.333963 
L 225.537639 157.400499 
L 226.663895 153.464831 
L 227.790151 157.100066 
L 231.168918 157.415521 
L 232.295173 158.211667 
L 233.421429 154.951973 
L 234.547685 155.763141 
L 236.800196 156.003487 
L 237.926452 156.799634 
L 239.052708 156.919807 
L 240.178963 157.715953 
L 241.305219 153.780285 
L 242.431475 140.666399 
L 243.557731 136.024714 
L 244.683986 136.204973 
L 245.810242 137.046185 
L 246.936498 137.617007 
L 248.062754 137.932461 
L 249.189009 138.097699 
L 250.315265 138.938911 
L 251.441521 135.724281 
L 252.567776 136.580514 
L 264.956589 138.338045 
L 266.082845 139.179257 
L 267.209101 135.724281 
L 268.335356 135.889519 
L 269.461612 143.235098 
L 270.587868 135.724281 
L 271.714124 136.580514 
L 273.966635 136.91099 
L 275.092891 137.752202 
L 276.219147 137.91744 
L 277.345402 138.758651 
L 278.471658 138.923889 
L 279.597914 139.765101 
L 280.724169 139.930339 
L 281.850425 140.77155 
L 285.229192 141.192156 
L 308.880562 144.346699 
L 310.006818 155.582881 
L 315.638097 156.183747 
L 316.764353 156.994915 
L 319.016864 157.190196 
L 320.14312 157.986343 
L 322.395631 158.226689 
L 323.521887 156.333963 
L 334.784444 157.520672 
L 335.9107 158.031408 
L 338.163211 158.226689 
L 339.289467 154.291021 
L 342.668234 156.694482 
L 344.920746 156.934828 
L 346.047001 142.378865 
L 347.173257 142.529081 
L 348.299513 143.370293 
L 349.425768 143.520509 
L 351.67828 135.724281 
L 352.804536 135.889519 
L 353.930791 136.745752 
L 355.057047 137.316574 
L 356.183303 137.076228 
L 357.309558 137.241466 
L 359.56207 138.938911 
L 360.688326 135.724281 
L 373.077139 137.511855 
L 375.32965 139.2093 
L 376.455906 139.374538 
L 377.582161 149.333882 
L 378.708417 149.469076 
L 379.834673 150.280245 
L 382.087184 150.550634 
L 383.21344 151.361802 
L 384.339696 151.496997 
L 385.465952 152.308165 
L 386.592207 152.44336 
L 387.718463 153.254528 
L 388.844719 153.374701 
L 389.970974 154.185869 
L 389.970974 154.185869 
" clip-path="url(#p9786b66101)" style="fill: none; stroke-dasharray: 9.6,2.4,1.5,2.4; stroke-dashoffset: 0; stroke: #8768b4; stroke-width: 1.5"/>
   </g>
   <g id="patch_12">
    <path d="M 50.5175 207.828125 
L 50.5175 125.209137 
" style="fill: none; stroke: #000000; stroke-width: 0.5; stroke-linejoin: miter; stroke-linecap: square"/>
   </g>
   <g id="patch_13">
    <path d="M 407.315312 207.828125 
L 407.315312 125.209137 
" style="fill: none; stroke: #000000; stroke-width: 0.5; stroke-linejoin: miter; stroke-linecap: square"/>
   </g>
   <g id="patch_14">
    <path d="M 50.5175 207.828125 
L 407.315312 207.828125 
" style="fill: none; stroke: #000000; stroke-width: 0.5; stroke-linejoin: miter; stroke-linecap: square"/>
   </g>
   <g id="patch_15">
    <path d="M 50.5175 125.209137 
L 407.315312 125.209137 
" style="fill: none; stroke: #000000; stroke-width: 0.5; stroke-linejoin: miter; stroke-linecap: square"/>
   </g>
  </g>
  <g id="axes_3">
   <g id="matplotlib.axis_5">
    <g id="ytick_7">
     <g id="line2d_16">
      <defs>
       <path id="mf27919005a" d="M 0 0 
L 3.5 0 
" style="stroke: #000000; stroke-width: 0.8"/>
      </defs>
      <g>
       <use xlink:href="#mf27919005a" x="407.315312" y="105.101861" style="stroke: #000000; stroke-width: 0.8"/>
      </g>
     </g>
     <g id="text_14">
      <!-- 0 -->
      <g transform="translate(414.315312 109.281001)scale(0.11 -0.11)">
       <use xlink:href="#DejaVuSerif-30"/>
      </g>
     </g>
    </g>
    <g id="ytick_8">
     <g id="line2d_17">
      <g>
       <use xlink:href="#mf27919005a" x="407.315312" y="80.065804" style="stroke: #000000; stroke-width: 0.8"/>
      </g>
     </g>
     <g id="text_15">
      <!-- 1 -->
      <g transform="translate(414.315312 84.244944)scale(0.11 -0.11)">
       <use xlink:href="#DejaVuSerif-31"/>
      </g>
     </g>
    </g>
    <g id="ytick_9">
     <g id="line2d_18">
      <g>
       <use xlink:href="#mf27919005a" x="407.315312" y="55.029747" style="stroke: #000000; stroke-width: 0.8"/>
      </g>
     </g>
     <g id="text_16">
      <!-- 2 -->
      <g transform="translate(414.315312 59.208887)scale(0.11 -0.11)">
       <use xlink:href="#DejaVuSerif-32"/>
      </g>
     </g>
    </g>
    <g id="ytick_10">
     <g id="line2d_19">
      <g>
       <use xlink:href="#mf27919005a" x="407.315312" y="29.99369" style="stroke: #000000; stroke-width: 0.8"/>
      </g>
     </g>
     <g id="text_17">
      <!-- 3 -->
      <g transform="translate(414.315312 34.17283)scale(0.11 -0.11)">
       <use xlink:href="#DejaVuSerif-33"/>
      </g>
     </g>
    </g>
    <g id="text_18">
     <!-- Modus -->
     <g transform="translate(433.672344 86.375822)rotate(-90)scale(0.11 -0.11)">
      <defs>
       <path id="DejaVuSerif-4d" d="M 353 0 
L 353 331 
L 947 331 
L 947 4331 
L 319 4331 
L 319 4666 
L 1678 4666 
L 3316 1344 
L 4953 4666 
L 6228 4666 
L 6228 4331 
L 5606 4331 
L 5606 331 
L 6203 331 
L 6203 0 
L 4378 0 
L 4378 331 
L 4972 331 
L 4972 3938 
L 3372 684 
L 2931 684 
L 1331 3938 
L 1331 331 
L 1925 331 
L 1925 0 
L 353 0 
z
" transform="scale(0.015625)"/>
       <path id="DejaVuSerif-6f" d="M 1925 219 
Q 2388 219 2623 584 
Q 2859 950 2859 1663 
Q 2859 2375 2623 2739 
Q 2388 3103 1925 3103 
Q 1463 3103 1227 2739 
Q 991 2375 991 1663 
Q 991 950 1228 584 
Q 1466 219 1925 219 
z
M 1925 -91 
Q 1200 -91 759 389 
Q 319 869 319 1663 
Q 319 2456 758 2934 
Q 1197 3413 1925 3413 
Q 2653 3413 3092 2934 
Q 3531 2456 3531 1663 
Q 3531 869 3092 389 
Q 2653 -91 1925 -91 
z
" transform="scale(0.015625)"/>
       <path id="DejaVuSerif-75" d="M 2266 3322 
L 3341 3322 
L 3341 331 
L 3884 331 
L 3884 0 
L 2766 0 
L 2766 588 
Q 2606 256 2353 82 
Q 2100 -91 1766 -91 
Q 1213 -91 952 223 
Q 691 538 691 1209 
L 691 2988 
L 172 2988 
L 172 3322 
L 1269 3322 
L 1269 1388 
Q 1269 781 1417 556 
Q 1566 331 1947 331 
Q 2347 331 2556 625 
Q 2766 919 2766 1478 
L 2766 2988 
L 2266 2988 
L 2266 3322 
z
" transform="scale(0.015625)"/>
       <path id="DejaVuSerif-73" d="M 359 184 
L 359 959 
L 691 959 
Q 703 588 923 403 
Q 1144 219 1575 219 
Q 1963 219 2166 364 
Q 2369 509 2369 788 
Q 2369 1006 2220 1140 
Q 2072 1275 1594 1428 
L 1178 1569 
Q 750 1706 558 1912 
Q 366 2119 366 2438 
Q 366 2894 700 3153 
Q 1034 3413 1625 3413 
Q 1888 3413 2178 3344 
Q 2469 3275 2778 3144 
L 2778 2419 
L 2447 2419 
Q 2434 2741 2221 2922 
Q 2009 3103 1644 3103 
Q 1281 3103 1095 2975 
Q 909 2847 909 2591 
Q 909 2381 1050 2254 
Q 1191 2128 1613 1997 
L 2069 1856 
Q 2541 1709 2748 1489 
Q 2956 1269 2956 922 
Q 2956 450 2595 179 
Q 2234 -91 1600 -91 
Q 1278 -91 972 -22 
Q 666 47 359 184 
z
" transform="scale(0.015625)"/>
      </defs>
      <use xlink:href="#DejaVuSerif-4d"/>
      <use xlink:href="#DejaVuSerif-6f" x="102.392578"/>
      <use xlink:href="#DejaVuSerif-64" x="162.597656"/>
      <use xlink:href="#DejaVuSerif-75" x="226.611328"/>
      <use xlink:href="#DejaVuSerif-73" x="291.015625"/>
     </g>
    </g>
   </g>
   <g id="line2d_20">
    <path d="M 66.735582 80.065804 
L 67.861838 80.065804 
L 67.861838 55.029747 
L 68.988094 55.029747 
L 68.988094 105.101861 
L 70.11435 105.101861 
L 70.11435 80.065804 
L 96.018231 80.065804 
L 96.018231 55.029747 
L 97.144487 55.029747 
L 97.144487 105.101861 
L 98.270743 105.101861 
L 98.270743 80.065804 
L 99.396998 80.065804 
L 99.396998 105.101861 
L 100.523254 105.101861 
L 100.523254 80.065804 
L 101.64951 80.065804 
L 101.64951 105.101861 
L 102.775765 105.101861 
L 102.775765 80.065804 
L 103.902021 80.065804 
L 103.902021 105.101861 
L 105.028277 105.101861 
L 105.028277 29.99369 
L 106.154533 29.99369 
L 106.154533 105.101861 
L 108.407044 105.101861 
L 108.407044 80.065804 
L 109.5333 80.065804 
L 109.5333 105.101861 
L 110.659556 105.101861 
L 110.659556 29.99369 
L 115.164578 29.99369 
L 115.164578 105.101861 
L 120.795857 105.101861 
L 120.795857 80.065804 
L 121.922113 80.065804 
L 121.922113 105.101861 
L 123.048368 105.101861 
L 123.048368 29.99369 
L 127.553391 29.99369 
L 127.553391 105.101861 
L 128.679647 105.101861 
L 128.679647 29.99369 
L 129.805903 29.99369 
L 129.805903 105.101861 
L 132.058414 105.101861 
L 132.058414 29.99369 
L 133.18467 29.99369 
L 133.18467 55.029747 
L 134.310926 55.029747 
L 134.310926 29.99369 
L 135.437181 29.99369 
L 135.437181 55.029747 
L 136.563437 55.029747 
L 136.563437 105.101861 
L 137.689693 105.101861 
L 137.689693 55.029747 
L 139.942204 55.029747 
L 139.942204 29.99369 
L 141.06846 29.99369 
L 141.06846 105.101861 
L 152.331017 105.101861 
L 152.331017 29.99369 
L 153.457273 29.99369 
L 153.457273 105.101861 
L 159.088552 105.101861 
L 159.088552 80.065804 
L 160.214807 80.065804 
L 160.214807 105.101861 
L 162.467319 105.101861 
L 162.467319 80.065804 
L 163.593574 80.065804 
L 163.593574 105.101861 
L 165.846086 105.101861 
L 165.846086 80.065804 
L 166.972342 80.065804 
L 166.972342 105.101861 
L 168.098597 105.101861 
L 168.098597 80.065804 
L 169.224853 80.065804 
L 169.224853 105.101861 
L 170.351109 105.101861 
L 170.351109 80.065804 
L 171.477364 80.065804 
L 171.477364 105.101861 
L 172.60362 105.101861 
L 172.60362 80.065804 
L 173.729876 80.065804 
L 173.729876 105.101861 
L 174.856132 105.101861 
L 174.856132 80.065804 
L 175.982387 80.065804 
L 175.982387 105.101861 
L 177.108643 105.101861 
L 177.108643 80.065804 
L 178.234899 80.065804 
L 178.234899 105.101861 
L 179.361155 105.101861 
L 179.361155 80.065804 
L 180.48741 80.065804 
L 180.48741 105.101861 
L 181.613666 105.101861 
L 181.613666 80.065804 
L 182.739922 80.065804 
L 182.739922 105.101861 
L 183.866177 105.101861 
L 183.866177 80.065804 
L 184.992433 80.065804 
L 184.992433 105.101861 
L 186.118689 105.101861 
L 186.118689 80.065804 
L 187.244945 80.065804 
L 187.244945 105.101861 
L 188.3712 105.101861 
L 188.3712 80.065804 
L 189.497456 80.065804 
L 189.497456 105.101861 
L 190.623712 105.101861 
L 190.623712 80.065804 
L 191.749967 80.065804 
L 191.749967 55.029747 
L 192.876223 55.029747 
L 192.876223 105.101861 
L 194.002479 105.101861 
L 194.002479 80.065804 
L 195.128735 80.065804 
L 195.128735 55.029747 
L 196.25499 55.029747 
L 196.25499 105.101861 
L 197.381246 105.101861 
L 197.381246 80.065804 
L 198.507502 80.065804 
L 198.507502 55.029747 
L 199.633757 55.029747 
L 199.633757 29.99369 
L 201.886269 29.99369 
L 201.886269 80.065804 
L 203.012525 80.065804 
L 203.012525 105.101861 
L 204.13878 105.101861 
L 204.13878 80.065804 
L 205.265036 80.065804 
L 205.265036 105.101861 
L 206.391292 105.101861 
L 206.391292 80.065804 
L 207.517548 80.065804 
L 207.517548 105.101861 
L 208.643803 105.101861 
L 208.643803 80.065804 
L 209.770059 80.065804 
L 209.770059 105.101861 
L 213.148826 105.101861 
L 213.148826 80.065804 
L 214.275082 80.065804 
L 214.275082 29.99369 
L 215.401338 29.99369 
L 215.401338 105.101861 
L 224.411383 105.101861 
L 224.411383 80.065804 
L 225.537639 80.065804 
L 225.537639 29.99369 
L 227.790151 29.99369 
L 227.790151 105.101861 
L 232.295173 105.101861 
L 232.295173 29.99369 
L 233.421429 29.99369 
L 233.421429 105.101861 
L 240.178963 105.101861 
L 240.178963 29.99369 
L 243.557731 29.99369 
L 243.557731 80.065804 
L 244.683986 80.065804 
L 244.683986 55.029747 
L 246.936498 55.029747 
L 246.936498 29.99369 
L 248.062754 29.99369 
L 248.062754 55.029747 
L 250.315265 55.029747 
L 250.315265 29.99369 
L 251.441521 29.99369 
L 251.441521 105.101861 
L 266.082845 105.101861 
L 266.082845 29.99369 
L 267.209101 29.99369 
L 267.209101 105.101861 
L 268.335356 105.101861 
L 268.335356 29.99369 
L 270.587868 29.99369 
L 270.587868 105.101861 
L 275.092891 105.101861 
L 275.092891 80.065804 
L 276.219147 80.065804 
L 276.219147 105.101861 
L 279.597914 105.101861 
L 279.597914 80.065804 
L 280.724169 80.065804 
L 280.724169 105.101861 
L 282.976681 105.101861 
L 282.976681 80.065804 
L 284.102937 80.065804 
L 284.102937 105.101861 
L 286.355448 105.101861 
L 286.355448 80.065804 
L 287.481704 80.065804 
L 287.481704 105.101861 
L 289.734215 105.101861 
L 289.734215 80.065804 
L 290.860471 80.065804 
L 290.860471 105.101861 
L 291.986727 105.101861 
L 291.986727 80.065804 
L 293.112982 80.065804 
L 293.112982 105.101861 
L 294.239238 105.101861 
L 294.239238 80.065804 
L 295.365494 80.065804 
L 295.365494 105.101861 
L 296.49175 105.101861 
L 296.49175 80.065804 
L 297.618005 80.065804 
L 297.618005 105.101861 
L 298.744261 105.101861 
L 298.744261 80.065804 
L 299.870517 80.065804 
L 299.870517 105.101861 
L 300.996772 105.101861 
L 300.996772 80.065804 
L 302.123028 80.065804 
L 302.123028 105.101861 
L 303.249284 105.101861 
L 303.249284 80.065804 
L 304.37554 80.065804 
L 304.37554 105.101861 
L 305.501795 105.101861 
L 305.501795 80.065804 
L 306.628051 80.065804 
L 306.628051 105.101861 
L 307.754307 105.101861 
L 307.754307 80.065804 
L 308.880562 80.065804 
L 308.880562 29.99369 
L 310.006818 29.99369 
L 310.006818 80.065804 
L 311.133074 80.065804 
L 311.133074 105.101861 
L 312.25933 105.101861 
L 312.25933 80.065804 
L 313.385585 80.065804 
L 313.385585 105.101861 
L 314.511841 105.101861 
L 314.511841 80.065804 
L 315.638097 80.065804 
L 315.638097 105.101861 
L 317.890608 105.101861 
L 317.890608 80.065804 
L 319.016864 80.065804 
L 319.016864 105.101861 
L 321.269375 105.101861 
L 321.269375 80.065804 
L 322.395631 80.065804 
L 322.395631 29.99369 
L 323.521887 29.99369 
L 323.521887 105.101861 
L 331.405677 105.101861 
L 331.405677 80.065804 
L 332.531933 80.065804 
L 332.531933 105.101861 
L 334.784444 105.101861 
L 334.784444 29.99369 
L 335.9107 29.99369 
L 335.9107 105.101861 
L 338.163211 105.101861 
L 338.163211 29.99369 
L 339.289467 29.99369 
L 339.289467 105.101861 
L 344.920746 105.101861 
L 344.920746 29.99369 
L 346.047001 29.99369 
L 346.047001 80.065804 
L 347.173257 80.065804 
L 347.173257 105.101861 
L 349.425768 105.101861 
L 349.425768 29.99369 
L 351.67828 29.99369 
L 351.67828 55.029747 
L 352.804536 55.029747 
L 352.804536 105.101861 
L 353.930791 105.101861 
L 353.930791 55.029747 
L 355.057047 55.029747 
L 355.057047 29.99369 
L 356.183303 29.99369 
L 356.183303 55.029747 
L 357.309558 55.029747 
L 357.309558 105.101861 
L 359.56207 105.101861 
L 359.56207 29.99369 
L 360.688326 29.99369 
L 360.688326 105.101861 
L 374.203394 105.101861 
L 374.203394 55.029747 
L 375.32965 55.029747 
L 375.32965 105.101861 
L 376.455906 105.101861 
L 376.455906 29.99369 
L 377.582161 29.99369 
L 377.582161 80.065804 
L 378.708417 80.065804 
L 378.708417 105.101861 
L 380.960929 105.101861 
L 380.960929 80.065804 
L 382.087184 80.065804 
L 382.087184 105.101861 
L 383.21344 105.101861 
L 383.21344 80.065804 
L 384.339696 80.065804 
L 384.339696 105.101861 
L 385.465952 105.101861 
L 385.465952 80.065804 
L 386.592207 80.065804 
L 386.592207 105.101861 
L 387.718463 105.101861 
L 387.718463 80.065804 
L 388.844719 80.065804 
L 388.844719 105.101861 
L 389.970974 105.101861 
L 389.970974 105.101861 
" clip-path="url(#p4d1fa3db24)" style="fill: none; stroke-dasharray: 5.55,2.4; stroke-dashoffset: 0; stroke: #4b81c4; stroke-width: 1.5"/>
   </g>
   <g id="patch_16">
    <path d="M 50.5175 108.857269 
L 50.5175 26.238281 
" style="fill: none; stroke: #000000; stroke-width: 0.5; stroke-linejoin: miter; stroke-linecap: square"/>
   </g>
   <g id="patch_17">
    <path d="M 407.315312 108.857269 
L 407.315312 26.238281 
" style="fill: none; stroke: #000000; stroke-width: 0.5; stroke-linejoin: miter; stroke-linecap: square"/>
   </g>
   <g id="patch_18">
    <path d="M 50.5175 108.857269 
L 407.315312 108.857269 
" style="fill: none; stroke: #000000; stroke-width: 0.5; stroke-linejoin: miter; stroke-linecap: square"/>
   </g>
   <g id="patch_19">
    <path d="M 50.5175 26.238281 
L 407.315312 26.238281 
" style="fill: none; stroke: #000000; stroke-width: 0.5; stroke-linejoin: miter; stroke-linecap: square"/>
   </g>
  </g>
  <g id="legend_1">
   <g id="line2d_21">
    <path d="M 173.160544 15.412452 
L 182.323544 15.412452 
L 191.486544 15.412452 
" style="fill: none; stroke: #ec635c; stroke-width: 1.5; stroke-linecap: square"/>
   </g>
   <g id="text_19">
    <!-- $\dot{Q}_{\mathrm{WP}}$ -->
    <g transform="translate(198.816944 18.619502)scale(0.09163 -0.09163)">
     <use xlink:href="#DejaVuSans-307" transform="translate(74.271484 31.015625)"/>
     <use xlink:href="#DejaVuSans-Oblique-51" transform="translate(0 0.296875)"/>
     <use xlink:href="#DejaVuSans-57" transform="translate(79.667969 -16.109375)scale(0.7)"/>
     <use xlink:href="#DejaVuSans-50" transform="translate(148.881836 -16.109375)scale(0.7)"/>
    </g>
   </g>
   <g id="line2d_22">
    <path d="M 234.919164 15.412452 
L 244.082164 15.412452 
L 253.245164 15.412452 
" style="fill: none; stroke-dasharray: 1.5,2.475; stroke-dashoffset: 0; stroke: #f49961; stroke-width: 1.5"/>
   </g>
   <g id="text_20">
    <!-- $T_{\mathrm{PS}}$ -->
    <g transform="translate(260.575564 18.619502)scale(0.09163 -0.09163)">
     <defs>
      <path id="DejaVuSans-53" d="M 3425 4513 
L 3425 3897 
Q 3066 4069 2747 4153 
Q 2428 4238 2131 4238 
Q 1616 4238 1336 4038 
Q 1056 3838 1056 3469 
Q 1056 3159 1242 3001 
Q 1428 2844 1947 2747 
L 2328 2669 
Q 3034 2534 3370 2195 
Q 3706 1856 3706 1288 
Q 3706 609 3251 259 
Q 2797 -91 1919 -91 
Q 1588 -91 1214 -16 
Q 841 59 441 206 
L 441 856 
Q 825 641 1194 531 
Q 1563 422 1919 422 
Q 2459 422 2753 634 
Q 3047 847 3047 1241 
Q 3047 1584 2836 1778 
Q 2625 1972 2144 2069 
L 1759 2144 
Q 1053 2284 737 2584 
Q 422 2884 422 3419 
Q 422 4038 858 4394 
Q 1294 4750 2059 4750 
Q 2388 4750 2728 4690 
Q 3069 4631 3425 4513 
z
" transform="scale(0.015625)"/>
     </defs>
     <use xlink:href="#DejaVuSans-Oblique-54" transform="translate(0 0.09375)"/>
     <use xlink:href="#DejaVuSans-50" transform="translate(61.083984 -16.3125)scale(0.7)"/>
     <use xlink:href="#DejaVuSans-53" transform="translate(103.295898 -16.3125)scale(0.7)"/>
    </g>
   </g>
   <g id="line2d_23">
    <path d="M 292.737694 15.412452 
L 301.900694 15.412452 
L 311.063694 15.412452 
" style="fill: none; stroke-dasharray: 9.6,2.4,1.5,2.4; stroke-dashoffset: 0; stroke: #8768b4; stroke-width: 1.5"/>
   </g>
   <g id="text_21">
    <!-- $T_{\mathrm{TWW}}$ -->
    <g transform="translate(318.394094 18.619502)scale(0.09163 -0.09163)">
     <defs>
      <path id="DejaVuSans-54" d="M -19 4666 
L 3928 4666 
L 3928 4134 
L 2272 4134 
L 2272 0 
L 1638 0 
L 1638 4134 
L -19 4134 
L -19 4666 
z
" transform="scale(0.015625)"/>
     </defs>
     <use xlink:href="#DejaVuSans-Oblique-54" transform="translate(0 0.09375)"/>
     <use xlink:href="#DejaVuSans-54" transform="translate(61.083984 -16.3125)scale(0.7)"/>
     <use xlink:href="#DejaVuSans-57" transform="translate(103.842773 -16.3125)scale(0.7)"/>
     <use xlink:href="#DejaVuSans-57" transform="translate(173.056641 -16.3125)scale(0.7)"/>
    </g>
   </g>
   <g id="line2d_24">
    <path d="M 359.261074 15.412452 
L 359.261074 15.412452 
L 368.424074 15.412452 
L 368.424074 15.412452 
L 377.587074 15.412452 
" style="fill: none; stroke-dasharray: 5.55,2.4; stroke-dashoffset: 0; stroke: #4b81c4; stroke-width: 1.5"/>
   </g>
   <g id="text_22">
    <!-- Modus -->
    <g transform="translate(384.917474 18.619502)scale(0.09163 -0.09163)">
     <use xlink:href="#DejaVuSerif-4d"/>
     <use xlink:href="#DejaVuSerif-6f" x="102.392578"/>
     <use xlink:href="#DejaVuSerif-64" x="162.597656"/>
     <use xlink:href="#DejaVuSerif-75" x="226.611328"/>
     <use xlink:href="#DejaVuSerif-73" x="291.015625"/>
    </g>
   </g>
  </g>
 </g>
 <defs>
  <clipPath id="p4d1fa3db24">
   <rect x="50.5175" y="26.238281" width="356.797812" height="82.618988"/>
  </clipPath>
  <clipPath id="p9786b66101">
   <rect x="50.5175" y="125.209137" width="356.797812" height="82.618988"/>
  </clipPath>
 </defs>
</svg>
