<?xml version="1.0" encoding="utf-8" standalone="no"?>
<!DOCTYPE svg PUBLIC "-//W3C//DTD SVG 1.1//EN"
  "http://www.w3.org/Graphics/SVG/1.1/DTD/svg11.dtd">
<svg xmlns:xlink="http://www.w3.org/1999/xlink" width="447.84pt" height="252pt" viewBox="0 0 447.84 252" xmlns="http://www.w3.org/2000/svg" version="1.1">
 <metadata>
  <rdf:RDF xmlns:dc="http://purl.org/dc/elements/1.1/" xmlns:cc="http://creativecommons.org/ns#" xmlns:rdf="http://www.w3.org/1999/02/22-rdf-syntax-ns#">
   <cc:Work>
    <dc:type rdf:resource="http://purl.org/dc/dcmitype/StillImage"/>
    <dc:date>2023-05-14T13:37:02.364832</dc:date>
    <dc:format>image/svg+xml</dc:format>
    <dc:creator>
     <cc:Agent>
      <dc:title>Matplotlib v3.5.3, https://matplotlib.org/</dc:title>
     </cc:Agent>
    </dc:creator>
   </cc:Work>
  </rdf:RDF>
 </metadata>
 <defs>
  <style type="text/css">*{stroke-linejoin: round; stroke-linecap: butt}</style>
 </defs>
 <g id="figure_1">
  <g id="patch_1">
   <path d="M 0 252 
L 447.84 252 
L 447.84 0 
L 0 0 
z
" style="fill: #ffffff"/>
  </g>
  <g id="axes_1">
   <g id="patch_2">
    <path d="M 50.5175 108.857269 
L 407.315312 108.857269 
L 407.315312 26.238281 
L 50.5175 26.238281 
z
" style="fill: #ffffff"/>
   </g>
   <g id="patch_3">
    <path d="M 66.735582 108.857269 
L 66.735582 26.238281 
L 174.856132 26.238281 
L 174.856132 108.857269 
z
" clip-path="url(#p27be46405e)" style="fill: #808080; opacity: 0.2; stroke: #808080; stroke-width: 1.5; stroke-linejoin: miter"/>
   </g>
   <g id="patch_4">
    <path d="M 282.976681 108.857269 
L 282.976681 26.238281 
L 391.09723 26.238281 
L 391.09723 108.857269 
z
" clip-path="url(#p27be46405e)" style="fill: #808080; opacity: 0.2; stroke: #808080; stroke-width: 1.5; stroke-linejoin: miter"/>
   </g>
   <g id="matplotlib.axis_1">
    <g id="xtick_1">
     <g id="line2d_1">
      <defs>
       <path id="ma407c6d885" d="M 0 0 
L 0 3.5 
" style="stroke: #000000; stroke-width: 0.8"/>
      </defs>
      <g>
       <use xlink:href="#ma407c6d885" x="120.795857" y="108.857269" style="stroke: #000000; stroke-width: 0.8"/>
      </g>
     </g>
    </g>
    <g id="xtick_2">
     <g id="line2d_2">
      <g>
       <use xlink:href="#ma407c6d885" x="228.916406" y="108.857269" style="stroke: #000000; stroke-width: 0.8"/>
      </g>
     </g>
    </g>
    <g id="xtick_3">
     <g id="line2d_3">
      <g>
       <use xlink:href="#ma407c6d885" x="337.036955" y="108.857269" style="stroke: #000000; stroke-width: 0.8"/>
      </g>
     </g>
    </g>
   </g>
   <g id="matplotlib.axis_2">
    <g id="ytick_1">
     <g id="line2d_4">
      <defs>
       <path id="m3706f6a41d" d="M 0 0 
L -3.5 0 
" style="stroke: #000000; stroke-width: 0.8"/>
      </defs>
      <g>
       <use xlink:href="#m3706f6a41d" x="50.5175" y="105.101861" style="stroke: #000000; stroke-width: 0.8"/>
      </g>
     </g>
     <g id="text_1">
      <!-- 0 -->
      <g transform="translate(36.51875 109.281001)scale(0.11 -0.11)">
       <defs>
        <path id="DejaVuSerif-30" d="M 2034 219 
Q 2513 219 2750 744 
Q 2988 1269 2988 2328 
Q 2988 3391 2750 3916 
Q 2513 4441 2034 4441 
Q 1556 4441 1318 3916 
Q 1081 3391 1081 2328 
Q 1081 1269 1318 744 
Q 1556 219 2034 219 
z
M 2034 -91 
Q 1275 -91 848 546 
Q 422 1184 422 2328 
Q 422 3475 848 4112 
Q 1275 4750 2034 4750 
Q 2797 4750 3222 4112 
Q 3647 3475 3647 2328 
Q 3647 1184 3222 546 
Q 2797 -91 2034 -91 
z
" transform="scale(0.015625)"/>
       </defs>
       <use xlink:href="#DejaVuSerif-30"/>
      </g>
     </g>
    </g>
    <g id="ytick_2">
     <g id="line2d_5">
      <g>
       <use xlink:href="#m3706f6a41d" x="50.5175" y="67.547775" style="stroke: #000000; stroke-width: 0.8"/>
      </g>
     </g>
     <g id="text_2">
      <!-- 5 -->
      <g transform="translate(36.51875 71.726916)scale(0.11 -0.11)">
       <defs>
        <path id="DejaVuSerif-35" d="M 3219 4666 
L 3219 4153 
L 1081 4153 
L 1081 2816 
Q 1244 2928 1461 2984 
Q 1678 3041 1947 3041 
Q 2703 3041 3140 2622 
Q 3578 2203 3578 1478 
Q 3578 738 3136 323 
Q 2694 -91 1894 -91 
Q 1572 -91 1234 -12 
Q 897 66 544 225 
L 544 1131 
L 897 1131 
Q 925 688 1179 453 
Q 1434 219 1894 219 
Q 2388 219 2653 544 
Q 2919 869 2919 1478 
Q 2919 2084 2655 2407 
Q 2391 2731 1894 2731 
Q 1613 2731 1398 2631 
Q 1184 2531 1019 2322 
L 750 2322 
L 750 4666 
L 3219 4666 
z
" transform="scale(0.015625)"/>
       </defs>
       <use xlink:href="#DejaVuSerif-35"/>
      </g>
     </g>
    </g>
    <g id="ytick_3">
     <g id="line2d_6">
      <g>
       <use xlink:href="#m3706f6a41d" x="50.5175" y="29.99369" style="stroke: #000000; stroke-width: 0.8"/>
      </g>
     </g>
     <g id="text_3">
      <!-- 10 -->
      <g transform="translate(29.52 34.17283)scale(0.11 -0.11)">
       <defs>
        <path id="DejaVuSerif-31" d="M 909 0 
L 909 331 
L 1722 331 
L 1722 4213 
L 781 3603 
L 781 4013 
L 1919 4750 
L 2350 4750 
L 2350 331 
L 3163 331 
L 3163 0 
L 909 0 
z
" transform="scale(0.015625)"/>
       </defs>
       <use xlink:href="#DejaVuSerif-31"/>
       <use xlink:href="#DejaVuSerif-30" x="63.623047"/>
      </g>
     </g>
    </g>
    <g id="text_4">
     <!-- $\dot{Q}_{\mathrm{WP}}$ in kW -->
     <g transform="translate(23.232344 96.037775)rotate(-90)scale(0.11 -0.11)">
      <defs>
       <path id="DejaVuSans-307" d="M -1894 4863 
L -1319 4863 
L -1319 4134 
L -1894 4134 
L -1894 4863 
z
M -1600 3584 
L -1600 3584 
z
" transform="scale(0.015625)"/>
       <path id="DejaVuSans-Oblique-51" d="M 2309 -84 
Q 2275 -88 2237 -89 
Q 2200 -91 2125 -91 
Q 1250 -91 756 411 
Q 263 913 263 1797 
Q 263 2319 452 2844 
Q 641 3369 978 3788 
Q 1369 4269 1858 4509 
Q 2347 4750 2938 4750 
Q 3794 4750 4287 4245 
Q 4781 3741 4781 2869 
Q 4781 1928 4265 1147 
Q 3750 366 2919 44 
L 3553 -825 
L 2847 -825 
L 2309 -84 
z
M 2919 4238 
Q 2400 4238 2003 3986 
Q 1606 3734 1313 3219 
Q 1125 2891 1026 2522 
Q 928 2153 928 1778 
Q 928 1128 1239 775 
Q 1550 422 2119 422 
Q 2631 422 3032 676 
Q 3434 931 3719 1434 
Q 3909 1772 4009 2142 
Q 4109 2513 4109 2881 
Q 4109 3528 3796 3883 
Q 3484 4238 2919 4238 
z
" transform="scale(0.015625)"/>
       <path id="DejaVuSans-57" d="M 213 4666 
L 850 4666 
L 1831 722 
L 2809 4666 
L 3519 4666 
L 4500 722 
L 5478 4666 
L 6119 4666 
L 4947 0 
L 4153 0 
L 3169 4050 
L 2175 0 
L 1381 0 
L 213 4666 
z
" transform="scale(0.015625)"/>
       <path id="DejaVuSans-50" d="M 1259 4147 
L 1259 2394 
L 2053 2394 
Q 2494 2394 2734 2622 
Q 2975 2850 2975 3272 
Q 2975 3691 2734 3919 
Q 2494 4147 2053 4147 
L 1259 4147 
z
M 628 4666 
L 2053 4666 
Q 2838 4666 3239 4311 
Q 3641 3956 3641 3272 
Q 3641 2581 3239 2228 
Q 2838 1875 2053 1875 
L 1259 1875 
L 1259 0 
L 628 0 
L 628 4666 
z
" transform="scale(0.015625)"/>
       <path id="DejaVuSerif-20" transform="scale(0.015625)"/>
       <path id="DejaVuSerif-69" d="M 622 4353 
Q 622 4497 726 4603 
Q 831 4709 978 4709 
Q 1122 4709 1226 4603 
Q 1331 4497 1331 4353 
Q 1331 4206 1228 4103 
Q 1125 4000 978 4000 
Q 831 4000 726 4103 
Q 622 4206 622 4353 
z
M 1356 331 
L 1900 331 
L 1900 0 
L 231 0 
L 231 331 
L 781 331 
L 781 2988 
L 231 2988 
L 231 3322 
L 1356 3322 
L 1356 331 
z
" transform="scale(0.015625)"/>
       <path id="DejaVuSerif-6e" d="M 263 0 
L 263 331 
L 781 331 
L 781 2988 
L 231 2988 
L 231 3322 
L 1356 3322 
L 1356 2731 
Q 1516 3069 1770 3241 
Q 2025 3413 2363 3413 
Q 2913 3413 3172 3097 
Q 3431 2781 3431 2113 
L 3431 331 
L 3944 331 
L 3944 0 
L 2356 0 
L 2356 331 
L 2853 331 
L 2853 1931 
Q 2853 2541 2703 2767 
Q 2553 2994 2175 2994 
Q 1775 2994 1565 2701 
Q 1356 2409 1356 1850 
L 1356 331 
L 1856 331 
L 1856 0 
L 263 0 
z
" transform="scale(0.015625)"/>
       <path id="DejaVuSerif-6b" d="M 1831 0 
L 219 0 
L 219 331 
L 738 331 
L 738 4531 
L 184 4531 
L 184 4863 
L 1313 4863 
L 1313 1697 
L 2713 2988 
L 2234 2988 
L 2234 3322 
L 3738 3322 
L 3738 2988 
L 3169 2988 
L 2181 2075 
L 3444 331 
L 3922 331 
L 3922 0 
L 2284 0 
L 2284 331 
L 2759 331 
L 1766 1697 
L 1313 1275 
L 1313 331 
L 1831 331 
L 1831 0 
z
" transform="scale(0.015625)"/>
       <path id="DejaVuSerif-57" d="M 4878 0 
L 4366 0 
L 3297 3794 
L 2228 0 
L 1716 0 
L 494 4331 
L 31 4331 
L 31 4666 
L 1734 4666 
L 1734 4331 
L 1153 4331 
L 2125 884 
L 3188 4666 
L 3694 4666 
L 4775 844 
L 5753 4331 
L 5216 4331 
L 5216 4666 
L 6559 4666 
L 6559 4331 
L 6100 4331 
L 4878 0 
z
" transform="scale(0.015625)"/>
      </defs>
      <use xlink:href="#DejaVuSans-307" transform="translate(74.271484 31.015625)"/>
      <use xlink:href="#DejaVuSans-Oblique-51" transform="translate(0 0.296875)"/>
      <use xlink:href="#DejaVuSans-57" transform="translate(79.667969 -16.109375)scale(0.7)"/>
      <use xlink:href="#DejaVuSans-50" transform="translate(148.881836 -16.109375)scale(0.7)"/>
      <use xlink:href="#DejaVuSerif-20" transform="translate(193.828125 0.296875)"/>
      <use xlink:href="#DejaVuSerif-69" transform="translate(225.615234 0.296875)"/>
      <use xlink:href="#DejaVuSerif-6e" transform="translate(257.597656 0.296875)"/>
      <use xlink:href="#DejaVuSerif-20" transform="translate(322.001953 0.296875)"/>
      <use xlink:href="#DejaVuSerif-6b" transform="translate(353.789062 0.296875)"/>
      <use xlink:href="#DejaVuSerif-57" transform="translate(414.384766 0.296875)"/>
     </g>
    </g>
   </g>
   <g id="line2d_7">
    <path d="M 66.735582 69.482562 
L 68.988094 69.795012 
L 71.240605 70.167548 
L 73.493117 70.347808 
L 76.871884 70.624206 
L 84.755674 71.074855 
L 87.008185 71.128933 
L 88.134441 36.996776 
L 89.260697 80.992138 
L 90.386953 71.186015 
L 98.270743 71.348249 
L 99.396998 71.940101 
L 102.775765 72.889468 
L 103.902021 72.432811 
L 107.280788 72.228516 
L 108.407044 69.861107 
L 109.5333 30.645629 
L 110.659556 86.324818 
L 111.785811 65.189379 
L 112.912067 30.01472 
L 114.038323 70.137505 
L 115.164578 67.100131 
L 116.290834 67.022018 
L 117.41709 67.562797 
L 120.795857 68.253792 
L 121.922113 32.252944 
L 123.048368 86.324818 
L 124.174624 69.299298 
L 125.30088 69.614752 
L 126.427136 34.647392 
L 127.553391 86.324818 
L 128.679647 35.798049 
L 129.805903 31.694139 
L 130.932158 36.459001 
L 132.058414 30.01472 
L 133.18467 37.216092 
L 134.310926 30.01472 
L 135.437181 37.540559 
L 136.563437 84.167711 
L 137.689693 71.609625 
L 141.06846 71.819928 
L 143.320971 71.961131 
L 144.447227 72.552984 
L 147.825994 73.547416 
L 148.95225 72.516932 
L 150.078506 38.610099 
L 151.204761 71.597608 
L 152.331017 71.462413 
L 153.457273 68.713454 
L 156.83604 64.038721 
L 157.962296 64.976071 
L 159.088552 57.570406 
L 160.214807 30.01472 
L 161.341063 105.101861 
L 162.467319 64.630574 
L 165.846086 65.045171 
L 166.972342 65.507837 
L 169.224853 66.111707 
L 170.351109 64.414262 
L 171.477364 30.01472 
L 172.60362 86.324818 
L 173.729876 67.085109 
L 174.856132 67.337472 
L 175.982387 67.289403 
L 187.244945 68.391991 
L 192.876223 69.185133 
L 194.002479 33.478709 
L 195.128735 86.324818 
L 196.25499 69.680847 
L 204.13878 70.798457 
L 205.265036 36.693339 
L 206.391292 86.324818 
L 207.517548 71.991175 
L 210.896315 73.559433 
L 212.02257 73.114793 
L 215.401338 73.234966 
L 216.527593 34.70147 
L 217.653849 78.381378 
L 218.780105 68.148641 
L 219.90636 66.886823 
L 221.032616 68.103576 
L 223.285128 68.067524 
L 224.411383 31.504866 
L 225.537639 86.324818 
L 226.663895 69.239211 
L 228.916406 70.014328 
L 231.168918 70.987729 
L 232.295173 71.438378 
L 233.421429 48.037677 
L 234.547685 30.01472 
L 235.673941 85.105061 
L 236.800196 30.01472 
L 237.926452 64.564479 
L 239.052708 30.01472 
L 242.431475 30.01472 
L 243.557731 85.339399 
L 244.683986 74.106221 
L 245.810242 43.302858 
L 246.936498 74.238411 
L 248.062754 86.324818 
L 249.189009 74.613952 
L 250.315265 44.246216 
L 251.441521 105.101861 
L 252.567776 76.587795 
L 254.820288 78.447473 
L 255.946544 53.259197 
L 257.072799 105.101861 
L 259.325311 54.929603 
L 260.451566 105.101861 
L 261.577822 76.69595 
L 264.956589 71.822932 
L 266.082845 72.628092 
L 267.209101 72.225512 
L 268.335356 37.871035 
L 269.461612 86.324818 
L 270.587868 38.550013 
L 271.714124 105.101861 
L 272.840379 72.042248 
L 273.966635 72.09933 
L 275.092891 39.871916 
L 276.219147 86.324818 
L 277.345402 72.964576 
L 278.471658 41.301976 
L 279.597914 105.101861 
L 280.724169 73.715658 
L 286.355448 74.863311 
L 291.986727 75.878774 
L 299.870517 77.002392 
L 300.996772 49.128247 
L 302.123028 66.811715 
L 303.249284 77.422998 
L 308.880562 78.026867 
L 314.511841 78.585672 
L 315.638097 81.136345 
L 316.764353 82.752673 
L 317.890608 86.324818 
L 319.016864 83.825218 
L 320.14312 84.669434 
L 323.521887 85.946273 
L 324.648143 82.226916 
L 325.774398 83.762127 
L 326.900654 77.326859 
L 328.02691 77.260764 
L 329.153165 77.996824 
L 332.531933 76.63286 
L 333.658188 77.122565 
L 337.036955 77.170634 
L 338.163211 77.540166 
L 346.047001 78.961213 
L 347.173257 53.027864 
L 348.299513 86.324818 
L 349.425768 79.417871 
L 351.67828 79.652208 
L 352.804536 54.346763 
L 353.930791 35.025937 
L 355.057047 79.994701 
L 357.309558 80.117879 
L 358.435814 57.357099 
L 359.56207 51.666904 
L 360.688326 86.324818 
L 361.814581 62.921112 
L 362.940837 30.01472 
L 364.067093 86.324818 
L 365.193349 85.177165 
L 366.319604 71.65469 
L 367.44586 30.01472 
L 368.572116 86.324818 
L 369.698371 85.324377 
L 370.824627 82.079704 
L 371.950883 83.780153 
L 373.077139 76.777067 
L 374.203394 79.024304 
L 375.32965 50.834705 
L 376.455906 85.874169 
L 377.582161 77.131578 
L 378.708417 77.453041 
L 382.087184 76.993379 
L 383.21344 77.239734 
L 386.592207 77.380937 
L 387.718463 77.594244 
L 388.844719 50.260879 
L 389.970974 74.872324 
L 389.970974 74.872324 
" clip-path="url(#p27be46405e)" style="fill: none; stroke: #ec635c; stroke-width: 1.5; stroke-linecap: square"/>
   </g>
   <g id="patch_5">
    <path d="M 50.5175 108.857269 
L 50.5175 26.238281 
" style="fill: none; stroke: #000000; stroke-width: 0.5; stroke-linejoin: miter; stroke-linecap: square"/>
   </g>
   <g id="patch_6">
    <path d="M 407.315312 108.857269 
L 407.315312 26.238281 
" style="fill: none; stroke: #000000; stroke-width: 0.5; stroke-linejoin: miter; stroke-linecap: square"/>
   </g>
   <g id="patch_7">
    <path d="M 50.5175 108.857269 
L 407.315312 108.857269 
" style="fill: none; stroke: #000000; stroke-width: 0.5; stroke-linejoin: miter; stroke-linecap: square"/>
   </g>
   <g id="patch_8">
    <path d="M 50.5175 26.238281 
L 407.315312 26.238281 
" style="fill: none; stroke: #000000; stroke-width: 0.5; stroke-linejoin: miter; stroke-linecap: square"/>
   </g>
   <g id="text_5">
    <!-- Januar -->
    <g transform="translate(50.5175 20.238281)scale(0.11 -0.11)">
     <defs>
      <path id="DejaVuSerif-4a" d="M -538 -1119 
L -538 -384 
L -181 -384 
Q -172 -694 -34 -845 
Q 103 -997 378 -997 
Q 750 -997 897 -762 
Q 1044 -528 1044 153 
L 1044 4331 
L 319 4331 
L 319 4666 
L 2272 4666 
L 2272 4331 
L 1678 4331 
L 1678 128 
Q 1678 -644 1368 -987 
Q 1059 -1331 372 -1331 
Q 150 -1331 -79 -1278 
Q -309 -1225 -538 -1119 
z
" transform="scale(0.015625)"/>
      <path id="DejaVuSerif-61" d="M 2547 1044 
L 2547 1747 
L 1806 1747 
Q 1378 1747 1168 1562 
Q 959 1378 959 997 
Q 959 650 1171 447 
Q 1384 244 1747 244 
Q 2106 244 2326 466 
Q 2547 688 2547 1044 
z
M 3122 2075 
L 3122 331 
L 3634 331 
L 3634 0 
L 2547 0 
L 2547 359 
Q 2356 128 2106 18 
Q 1856 -91 1522 -91 
Q 969 -91 644 203 
Q 319 497 319 997 
Q 319 1513 691 1797 
Q 1063 2081 1741 2081 
L 2547 2081 
L 2547 2309 
Q 2547 2688 2317 2895 
Q 2088 3103 1672 3103 
Q 1328 3103 1125 2947 
Q 922 2791 872 2484 
L 575 2484 
L 575 3156 
Q 875 3284 1158 3348 
Q 1441 3413 1709 3413 
Q 2400 3413 2761 3070 
Q 3122 2728 3122 2075 
z
" transform="scale(0.015625)"/>
      <path id="DejaVuSerif-75" d="M 2266 3322 
L 3341 3322 
L 3341 331 
L 3884 331 
L 3884 0 
L 2766 0 
L 2766 588 
Q 2606 256 2353 82 
Q 2100 -91 1766 -91 
Q 1213 -91 952 223 
Q 691 538 691 1209 
L 691 2988 
L 172 2988 
L 172 3322 
L 1269 3322 
L 1269 1388 
Q 1269 781 1417 556 
Q 1566 331 1947 331 
Q 2347 331 2556 625 
Q 2766 919 2766 1478 
L 2766 2988 
L 2266 2988 
L 2266 3322 
z
" transform="scale(0.015625)"/>
      <path id="DejaVuSerif-72" d="M 3059 3328 
L 3059 2497 
L 2728 2497 
Q 2713 2744 2591 2866 
Q 2469 2988 2234 2988 
Q 1809 2988 1582 2694 
Q 1356 2400 1356 1850 
L 1356 331 
L 2022 331 
L 2022 0 
L 263 0 
L 263 331 
L 781 331 
L 781 2994 
L 231 2994 
L 231 3322 
L 1356 3322 
L 1356 2731 
Q 1525 3078 1790 3245 
Q 2056 3413 2438 3413 
Q 2578 3413 2733 3391 
Q 2888 3369 3059 3328 
z
" transform="scale(0.015625)"/>
     </defs>
     <use xlink:href="#DejaVuSerif-4a"/>
     <use xlink:href="#DejaVuSerif-61" x="40.087891"/>
     <use xlink:href="#DejaVuSerif-6e" x="99.707031"/>
     <use xlink:href="#DejaVuSerif-75" x="164.111328"/>
     <use xlink:href="#DejaVuSerif-61" x="228.515625"/>
     <use xlink:href="#DejaVuSerif-72" x="288.134766"/>
    </g>
   </g>
  </g>
  <g id="axes_2">
   <g id="patch_9">
    <path d="M 50.5175 207.828125 
L 407.315312 207.828125 
L 407.315312 125.209137 
L 50.5175 125.209137 
z
" style="fill: #ffffff"/>
   </g>
   <g id="patch_10">
    <path d="M 66.735582 207.828125 
L 66.735582 125.209137 
L 174.856132 125.209137 
L 174.856132 207.828125 
z
" clip-path="url(#p5a60e87568)" style="fill: #808080; opacity: 0.2; stroke: #808080; stroke-width: 1.5; stroke-linejoin: miter"/>
   </g>
   <g id="patch_11">
    <path d="M 282.976681 207.828125 
L 282.976681 125.209137 
L 391.09723 125.209137 
L 391.09723 207.828125 
z
" clip-path="url(#p5a60e87568)" style="fill: #808080; opacity: 0.2; stroke: #808080; stroke-width: 1.5; stroke-linejoin: miter"/>
   </g>
   <g id="matplotlib.axis_3">
    <g id="xtick_4">
     <g id="line2d_8">
      <g>
       <use xlink:href="#ma407c6d885" x="120.795857" y="207.828125" style="stroke: #000000; stroke-width: 0.8"/>
      </g>
     </g>
     <g id="text_6">
      <!-- 14.1 -->
      <g transform="translate(108.549763 223.186406)scale(0.11 -0.11)">
       <defs>
        <path id="DejaVuSerif-34" d="M 2234 1581 
L 2234 4063 
L 641 1581 
L 2234 1581 
z
M 3609 0 
L 1484 0 
L 1484 331 
L 2234 331 
L 2234 1247 
L 197 1247 
L 197 1588 
L 2241 4750 
L 2859 4750 
L 2859 1581 
L 3750 1581 
L 3750 1247 
L 2859 1247 
L 2859 331 
L 3609 331 
L 3609 0 
z
" transform="scale(0.015625)"/>
        <path id="DejaVuSerif-2e" d="M 603 325 
Q 603 500 722 622 
Q 841 744 1019 744 
Q 1191 744 1312 622 
Q 1434 500 1434 325 
Q 1434 153 1312 31 
Q 1191 -91 1019 -91 
Q 841 -91 722 29 
Q 603 150 603 325 
z
" transform="scale(0.015625)"/>
       </defs>
       <use xlink:href="#DejaVuSerif-31"/>
       <use xlink:href="#DejaVuSerif-34" x="63.623047"/>
       <use xlink:href="#DejaVuSerif-2e" x="127.246094"/>
       <use xlink:href="#DejaVuSerif-31" x="159.033203"/>
      </g>
     </g>
    </g>
    <g id="xtick_5">
     <g id="line2d_9">
      <g>
       <use xlink:href="#ma407c6d885" x="228.916406" y="207.828125" style="stroke: #000000; stroke-width: 0.8"/>
      </g>
     </g>
     <g id="text_7">
      <!-- 15.1 -->
      <g transform="translate(216.670313 223.186406)scale(0.11 -0.11)">
       <use xlink:href="#DejaVuSerif-31"/>
       <use xlink:href="#DejaVuSerif-35" x="63.623047"/>
       <use xlink:href="#DejaVuSerif-2e" x="127.246094"/>
       <use xlink:href="#DejaVuSerif-31" x="159.033203"/>
      </g>
     </g>
    </g>
    <g id="xtick_6">
     <g id="line2d_10">
      <g>
       <use xlink:href="#ma407c6d885" x="337.036955" y="207.828125" style="stroke: #000000; stroke-width: 0.8"/>
      </g>
     </g>
     <g id="text_8">
      <!-- 16.1 -->
      <g transform="translate(324.790862 223.186406)scale(0.11 -0.11)">
       <defs>
        <path id="DejaVuSerif-36" d="M 2094 219 
Q 2534 219 2771 542 
Q 3009 866 3009 1472 
Q 3009 2078 2771 2401 
Q 2534 2725 2094 2725 
Q 1647 2725 1412 2412 
Q 1178 2100 1178 1509 
Q 1178 888 1415 553 
Q 1653 219 2094 219 
z
M 1075 2569 
Q 1288 2803 1556 2918 
Q 1825 3034 2163 3034 
Q 2859 3034 3264 2615 
Q 3669 2197 3669 1472 
Q 3669 763 3233 336 
Q 2797 -91 2069 -91 
Q 1278 -91 853 498 
Q 428 1088 428 2181 
Q 428 3406 931 4078 
Q 1434 4750 2350 4750 
Q 2597 4750 2869 4703 
Q 3141 4656 3425 4563 
L 3425 3794 
L 3072 3794 
Q 3034 4109 2831 4275 
Q 2628 4441 2284 4441 
Q 1678 4441 1381 3981 
Q 1084 3522 1075 2569 
z
" transform="scale(0.015625)"/>
       </defs>
       <use xlink:href="#DejaVuSerif-31"/>
       <use xlink:href="#DejaVuSerif-36" x="63.623047"/>
       <use xlink:href="#DejaVuSerif-2e" x="127.246094"/>
       <use xlink:href="#DejaVuSerif-31" x="159.033203"/>
      </g>
     </g>
    </g>
    <g id="text_9">
     <!-- Zeit in d -->
     <g transform="translate(205.551719 237.832344)scale(0.11 -0.11)">
      <defs>
       <path id="DejaVuSerif-5a" d="M 288 0 
L 288 225 
L 3194 4281 
L 781 4281 
L 781 3584 
L 397 3584 
L 397 4666 
L 4084 4666 
L 4084 4441 
L 1178 384 
L 3816 384 
L 3816 1038 
L 4197 1038 
L 4197 0 
L 288 0 
z
" transform="scale(0.015625)"/>
       <path id="DejaVuSerif-65" d="M 3469 1600 
L 991 1600 
L 991 1575 
Q 991 903 1244 561 
Q 1497 219 1991 219 
Q 2369 219 2611 417 
Q 2853 616 2950 1006 
L 3413 1006 
Q 3275 459 2904 184 
Q 2534 -91 1931 -91 
Q 1203 -91 761 389 
Q 319 869 319 1663 
Q 319 2450 753 2931 
Q 1188 3413 1894 3413 
Q 2647 3413 3050 2948 
Q 3453 2484 3469 1600 
z
M 2791 1931 
Q 2772 2513 2545 2808 
Q 2319 3103 1894 3103 
Q 1497 3103 1269 2806 
Q 1041 2509 991 1931 
L 2791 1931 
z
" transform="scale(0.015625)"/>
       <path id="DejaVuSerif-74" d="M 691 2988 
L 184 2988 
L 184 3322 
L 691 3322 
L 691 4353 
L 1269 4353 
L 1269 3322 
L 2350 3322 
L 2350 2988 
L 1269 2988 
L 1269 878 
Q 1269 456 1350 337 
Q 1431 219 1650 219 
Q 1875 219 1978 351 
Q 2081 484 2088 781 
L 2522 781 
Q 2497 328 2275 118 
Q 2053 -91 1600 -91 
Q 1103 -91 897 129 
Q 691 350 691 878 
L 691 2988 
z
" transform="scale(0.015625)"/>
       <path id="DejaVuSerif-64" d="M 3359 331 
L 3909 331 
L 3909 0 
L 2784 0 
L 2784 519 
Q 2616 206 2355 57 
Q 2094 -91 1709 -91 
Q 1097 -91 708 395 
Q 319 881 319 1663 
Q 319 2444 706 2928 
Q 1094 3413 1709 3413 
Q 2094 3413 2355 3264 
Q 2616 3116 2784 2803 
L 2784 4531 
L 2241 4531 
L 2241 4863 
L 3359 4863 
L 3359 331 
z
M 2784 1497 
L 2784 1825 
Q 2784 2422 2554 2737 
Q 2325 3053 1888 3053 
Q 1444 3053 1217 2703 
Q 991 2353 991 1663 
Q 991 975 1217 622 
Q 1444 269 1888 269 
Q 2325 269 2554 583 
Q 2784 897 2784 1497 
z
" transform="scale(0.015625)"/>
      </defs>
      <use xlink:href="#DejaVuSerif-5a"/>
      <use xlink:href="#DejaVuSerif-65" x="69.482422"/>
      <use xlink:href="#DejaVuSerif-69" x="128.662109"/>
      <use xlink:href="#DejaVuSerif-74" x="160.644531"/>
      <use xlink:href="#DejaVuSerif-20" x="200.830078"/>
      <use xlink:href="#DejaVuSerif-69" x="232.617188"/>
      <use xlink:href="#DejaVuSerif-6e" x="264.599609"/>
      <use xlink:href="#DejaVuSerif-20" x="329.003906"/>
      <use xlink:href="#DejaVuSerif-64" x="360.791016"/>
     </g>
    </g>
   </g>
   <g id="matplotlib.axis_4">
    <g id="ytick_4">
     <g id="line2d_11">
      <g>
       <use xlink:href="#m3706f6a41d" x="50.5175" y="203.321635" style="stroke: #000000; stroke-width: 0.8"/>
      </g>
     </g>
     <g id="text_10">
      <!-- 20 -->
      <g transform="translate(29.52 207.500775)scale(0.11 -0.11)">
       <defs>
        <path id="DejaVuSerif-32" d="M 819 3553 
L 469 3553 
L 469 4384 
Q 803 4563 1142 4656 
Q 1481 4750 1806 4750 
Q 2534 4750 2956 4397 
Q 3378 4044 3378 3438 
Q 3378 2753 2422 1800 
Q 2347 1728 2309 1691 
L 1131 513 
L 3078 513 
L 3078 1088 
L 3444 1088 
L 3444 0 
L 434 0 
L 434 341 
L 1850 1753 
Q 2319 2222 2519 2614 
Q 2719 3006 2719 3438 
Q 2719 3909 2473 4175 
Q 2228 4441 1797 4441 
Q 1350 4441 1106 4219 
Q 863 3997 819 3553 
z
" transform="scale(0.015625)"/>
       </defs>
       <use xlink:href="#DejaVuSerif-32"/>
       <use xlink:href="#DejaVuSerif-30" x="63.623047"/>
      </g>
     </g>
    </g>
    <g id="ytick_5">
     <g id="line2d_12">
      <g>
       <use xlink:href="#m3706f6a41d" x="50.5175" y="165.767549" style="stroke: #000000; stroke-width: 0.8"/>
      </g>
     </g>
     <g id="text_11">
      <!-- 45 -->
      <g transform="translate(29.52 169.94669)scale(0.11 -0.11)">
       <use xlink:href="#DejaVuSerif-34"/>
       <use xlink:href="#DejaVuSerif-35" x="63.623047"/>
      </g>
     </g>
    </g>
    <g id="ytick_6">
     <g id="line2d_13">
      <g>
       <use xlink:href="#m3706f6a41d" x="50.5175" y="128.213464" style="stroke: #000000; stroke-width: 0.8"/>
      </g>
     </g>
     <g id="text_12">
      <!-- 70 -->
      <g transform="translate(29.52 132.392605)scale(0.11 -0.11)">
       <defs>
        <path id="DejaVuSerif-37" d="M 3609 4347 
L 1784 0 
L 1319 0 
L 3059 4153 
L 903 4153 
L 903 3578 
L 538 3578 
L 538 4666 
L 3609 4666 
L 3609 4347 
z
" transform="scale(0.015625)"/>
       </defs>
       <use xlink:href="#DejaVuSerif-37"/>
       <use xlink:href="#DejaVuSerif-30" x="63.623047"/>
      </g>
     </g>
    </g>
    <g id="text_13">
     <!-- $T$ in °C -->
     <g transform="translate(23.232344 185.658631)rotate(-90)scale(0.11 -0.11)">
      <defs>
       <path id="DejaVuSans-Oblique-54" d="M 378 4666 
L 4325 4666 
L 4225 4134 
L 2559 4134 
L 1759 0 
L 1125 0 
L 1925 4134 
L 275 4134 
L 378 4666 
z
" transform="scale(0.015625)"/>
       <path id="DejaVuSerif-b0" d="M 1600 4319 
Q 1363 4319 1200 4155 
Q 1038 3991 1038 3750 
Q 1038 3513 1198 3353 
Q 1359 3194 1600 3194 
Q 1838 3194 2000 3355 
Q 2163 3516 2163 3750 
Q 2163 3984 1997 4151 
Q 1831 4319 1600 4319 
z
M 1600 4750 
Q 1800 4750 1984 4673 
Q 2169 4597 2303 4453 
Q 2447 4313 2519 4134 
Q 2591 3956 2591 3750 
Q 2591 3338 2302 3052 
Q 2013 2766 1594 2766 
Q 1172 2766 890 3047 
Q 609 3328 609 3750 
Q 609 4169 896 4459 
Q 1184 4750 1600 4750 
z
" transform="scale(0.015625)"/>
       <path id="DejaVuSerif-43" d="M 4513 1234 
Q 4306 581 3820 245 
Q 3334 -91 2591 -91 
Q 2134 -91 1743 65 
Q 1353 222 1050 525 
Q 700 875 529 1320 
Q 359 1766 359 2328 
Q 359 3416 987 4083 
Q 1616 4750 2644 4750 
Q 3025 4750 3456 4650 
Q 3888 4550 4384 4347 
L 4384 3272 
L 4031 3272 
Q 3916 3859 3567 4137 
Q 3219 4416 2591 4416 
Q 1844 4416 1459 3886 
Q 1075 3356 1075 2328 
Q 1075 1303 1459 773 
Q 1844 244 2591 244 
Q 3113 244 3450 492 
Q 3788 741 3938 1234 
L 4513 1234 
z
" transform="scale(0.015625)"/>
      </defs>
      <use xlink:href="#DejaVuSans-Oblique-54" transform="translate(0 0.78125)"/>
      <use xlink:href="#DejaVuSerif-20" transform="translate(61.083984 0.78125)"/>
      <use xlink:href="#DejaVuSerif-69" transform="translate(92.871094 0.78125)"/>
      <use xlink:href="#DejaVuSerif-6e" transform="translate(124.853516 0.78125)"/>
      <use xlink:href="#DejaVuSerif-20" transform="translate(189.257812 0.78125)"/>
      <use xlink:href="#DejaVuSerif-b0" transform="translate(221.044922 0.78125)"/>
      <use xlink:href="#DejaVuSerif-43" transform="translate(271.044922 0.78125)"/>
     </g>
    </g>
   </g>
   <g id="line2d_14">
    <path d="M 66.735582 164.926338 
L 72.366861 165.422052 
L 79.124395 165.767549 
L 87.008185 165.992874 
L 88.134441 146.449728 
L 89.260697 166.037939 
L 98.270743 166.128069 
L 102.775765 166.834085 
L 107.280788 166.683869 
L 108.407044 165.977852 
L 109.5333 143.535531 
L 110.659556 164.58084 
L 111.785811 163.304001 
L 112.912067 141.958259 
L 114.038323 163.799715 
L 116.290834 163.709585 
L 120.795857 164.235343 
L 121.922113 143.580596 
L 123.048368 164.610883 
L 125.30088 164.971403 
L 126.427136 144.962586 
L 127.553391 165.301879 
L 128.679647 145.623538 
L 129.805903 165.632355 
L 130.932158 146.059165 
L 132.058414 165.842657 
L 133.18467 146.494793 
L 134.310926 166.05296 
L 135.437181 146.735139 
L 136.563437 166.173133 
L 144.447227 166.638804 
L 147.825994 167.209626 
L 148.95225 167.014345 
L 150.078506 147.606394 
L 151.204761 166.608761 
L 152.331017 166.398458 
L 156.83604 162.838331 
L 157.962296 162.673093 
L 159.088552 158.436992 
L 160.214807 138.623456 
L 161.341063 162.132314 
L 166.972342 162.628028 
L 169.224853 162.973525 
L 170.351109 161.997119 
L 171.477364 141.207177 
L 172.60362 163.424174 
L 175.982387 163.75465 
L 190.623712 164.625905 
L 192.876223 164.806165 
L 194.002479 144.361721 
L 195.128735 165.001446 
L 204.13878 165.737506 
L 205.265036 146.209382 
L 206.391292 165.917766 
L 210.896315 167.104475 
L 215.401338 167.194605 
L 216.527593 145.878906 
L 217.653849 165.752528 
L 219.90636 164.310451 
L 223.285128 164.280408 
L 224.411383 143.34025 
L 225.537639 164.49071 
L 232.295173 165.932787 
L 233.421429 152.548511 
L 234.547685 128.739221 
L 236.800196 166.773999 
L 237.926452 162.072227 
L 239.052708 137.496834 
L 240.178963 155.988465 
L 241.305219 131.217791 
L 243.557731 167.555124 
L 244.683986 167.630232 
L 245.810242 150.009855 
L 246.936498 150.14505 
L 248.062754 167.870578 
L 249.189009 167.945686 
L 250.315265 150.565656 
L 251.441521 168.080881 
L 254.820288 169.673174 
L 255.946544 155.252405 
L 257.072799 170.424256 
L 258.199055 170.634559 
L 259.325311 156.529244 
L 260.451566 171.055165 
L 264.956589 167.329799 
L 267.209101 166.87915 
L 268.335356 147.200809 
L 269.461612 166.41348 
L 270.587868 147.336004 
L 271.714124 166.473566 
L 273.966635 166.533653 
L 275.092891 147.996956 
L 276.219147 166.804042 
L 277.345402 166.939237 
L 278.471658 148.808124 
L 279.597914 167.209626 
L 287.481704 168.155989 
L 296.49175 169.027244 
L 299.870517 169.282612 
L 300.996772 153.329636 
L 302.123028 169.462871 
L 314.511841 170.213953 
L 316.764353 171.83629 
L 317.890608 173.278366 
L 319.016864 173.278366 
L 323.521887 174.254773 
L 324.648143 173.30841 
L 325.774398 173.278366 
L 326.900654 171.415684 
L 328.02691 170.469321 
L 332.531933 169.432828 
L 337.036955 169.462871 
L 346.047001 170.379191 
L 347.173257 155.552838 
L 348.299513 170.574472 
L 351.67828 170.82984 
L 352.804536 156.348985 
L 353.930791 170.965035 
L 357.309558 171.115251 
L 358.435814 158.091494 
L 359.56207 171.83629 
L 360.688326 173.278366 
L 361.814581 161.756773 
L 362.940837 173.653907 
L 364.067093 173.909275 
L 365.193349 173.278366 
L 366.319604 164.701013 
L 367.44586 175.126027 
L 368.572116 174.495119 
L 369.698371 174.314859 
L 370.824627 173.293388 
L 371.950883 173.278366 
L 373.077139 171.250446 
L 374.203394 170.889927 
L 375.32965 154.756691 
L 376.455906 170.168888 
L 377.582161 169.808369 
L 382.087184 169.462871 
L 387.718463 169.643131 
L 388.844719 153.990588 
L 389.970974 169.793347 
L 389.970974 169.793347 
" clip-path="url(#p5a60e87568)" style="fill: none; stroke-dasharray: 1.5,2.475; stroke-dashoffset: 0; stroke: #f49961; stroke-width: 1.5"/>
   </g>
   <g id="line2d_15">
    <path d="M 66.735582 155.973444 
L 88.134441 158.181624 
L 89.260697 153.104312 
L 93.76572 153.600026 
L 96.018231 155.222362 
L 103.902021 156.018509 
L 105.028277 156.829677 
L 107.280788 157.070023 
L 108.407044 157.86617 
L 109.5333 157.986343 
L 110.659556 154.035653 
L 112.912067 154.291021 
L 114.038323 155.943401 
L 115.164578 156.754569 
L 120.795857 157.295348 
L 121.922113 158.091494 
L 123.048368 154.155826 
L 124.174624 154.966994 
L 126.427136 155.207341 
L 127.553391 151.962668 
L 128.679647 152.097862 
L 129.805903 137.061206 
L 130.932158 137.902418 
L 132.058414 145.232975 
L 133.18467 150.160071 
L 134.310926 157.460586 
L 135.437181 158.256732 
L 136.563437 154.531367 
L 139.942204 154.861843 
L 141.06846 155.65799 
L 142.194716 155.778163 
L 143.320971 156.589331 
L 148.95225 157.175175 
L 150.078506 157.971321 
L 151.204761 150.866088 
L 153.457273 151.121456 
L 154.583529 151.947646 
L 160.214807 152.548511 
L 162.467319 154.155826 
L 163.593574 154.291021 
L 164.71983 155.087167 
L 169.224853 155.582881 
L 170.351109 157.745997 
L 171.477364 157.86617 
L 172.60362 153.930502 
L 194.002479 156.183747 
L 195.128735 152.2631 
L 201.886269 153.029204 
L 204.13878 154.65154 
L 205.265036 154.771713 
L 206.391292 150.836045 
L 212.02257 151.466954 
L 213.148826 152.278122 
L 215.401338 152.53349 
L 216.527593 153.344658 
L 217.653849 147.696523 
L 221.032616 148.117129 
L 222.158872 157.340413 
L 223.285128 158.136559 
L 224.411383 158.256732 
L 225.537639 154.321064 
L 228.916406 154.65154 
L 230.042662 155.447687 
L 231.168918 155.56786 
L 232.295173 156.379028 
L 234.547685 156.619374 
L 235.673941 153.104312 
L 236.800196 137.016142 
L 239.052708 138.713586 
L 240.178963 146.044144 
L 241.305219 150.956218 
L 242.431475 158.256732 
L 243.557731 154.786735 
L 244.683986 155.597903 
L 246.936498 155.793184 
L 248.062754 151.872538 
L 249.189009 152.683706 
L 250.315265 152.803879 
L 251.441521 153.615047 
L 257.072799 154.245956 
L 258.199055 155.057124 
L 261.577822 155.417643 
L 262.704078 156.228812 
L 268.335356 156.784612 
L 269.461612 153.539939 
L 270.587868 154.336086 
L 271.714124 154.47128 
L 272.840379 155.267427 
L 275.092891 155.522795 
L 276.219147 151.587127 
L 277.345402 151.722321 
L 278.471658 153.885437 
L 285.229192 154.591454 
L 300.996772 156.258855 
L 302.123028 148.117129 
L 325.774398 150.941196 
L 326.900654 151.752365 
L 331.405677 152.2631 
L 332.531933 153.074268 
L 333.658188 153.209463 
L 334.784444 154.020631 
L 342.668234 154.846821 
L 346.047001 157.250283 
L 347.173257 157.370456 
L 348.299513 154.110761 
L 350.552024 155.733098 
L 352.804536 155.973444 
L 353.930791 140.966831 
L 355.057047 147.125701 
L 356.183303 147.951891 
L 357.309558 148.087086 
L 358.435814 150.280245 
L 359.56207 139.554798 
L 361.814581 139.870252 
L 362.940837 147.200809 
L 364.067093 148.026999 
L 366.319604 148.31241 
L 367.44586 155.612925 
L 368.572116 156.424093 
L 369.698371 156.544266 
L 370.824627 157.340413 
L 371.950883 157.460586 
L 373.077139 157.986343 
L 375.32965 158.226689 
L 376.455906 154.185869 
L 379.834673 154.56141 
L 380.960929 155.372578 
L 385.465952 155.853271 
L 388.844719 158.256732 
L 389.970974 156.619374 
L 389.970974 156.619374 
" clip-path="url(#p5a60e87568)" style="fill: none; stroke-dasharray: 9.6,2.4,1.5,2.4; stroke-dashoffset: 0; stroke: #8768b4; stroke-width: 1.5"/>
   </g>
   <g id="patch_12">
    <path d="M 50.5175 207.828125 
L 50.5175 125.209137 
" style="fill: none; stroke: #000000; stroke-width: 0.5; stroke-linejoin: miter; stroke-linecap: square"/>
   </g>
   <g id="patch_13">
    <path d="M 407.315312 207.828125 
L 407.315312 125.209137 
" style="fill: none; stroke: #000000; stroke-width: 0.5; stroke-linejoin: miter; stroke-linecap: square"/>
   </g>
   <g id="patch_14">
    <path d="M 50.5175 207.828125 
L 407.315312 207.828125 
" style="fill: none; stroke: #000000; stroke-width: 0.5; stroke-linejoin: miter; stroke-linecap: square"/>
   </g>
   <g id="patch_15">
    <path d="M 50.5175 125.209137 
L 407.315312 125.209137 
" style="fill: none; stroke: #000000; stroke-width: 0.5; stroke-linejoin: miter; stroke-linecap: square"/>
   </g>
  </g>
  <g id="axes_3">
   <g id="matplotlib.axis_5">
    <g id="ytick_7">
     <g id="line2d_16">
      <defs>
       <path id="m8fb8c1007e" d="M 0 0 
L 3.5 0 
" style="stroke: #000000; stroke-width: 0.8"/>
      </defs>
      <g>
       <use xlink:href="#m8fb8c1007e" x="407.315312" y="105.101861" style="stroke: #000000; stroke-width: 0.8"/>
      </g>
     </g>
     <g id="text_14">
      <!-- 0 -->
      <g transform="translate(414.315312 109.281001)scale(0.11 -0.11)">
       <use xlink:href="#DejaVuSerif-30"/>
      </g>
     </g>
    </g>
    <g id="ytick_8">
     <g id="line2d_17">
      <g>
       <use xlink:href="#m8fb8c1007e" x="407.315312" y="80.065804" style="stroke: #000000; stroke-width: 0.8"/>
      </g>
     </g>
     <g id="text_15">
      <!-- 1 -->
      <g transform="translate(414.315312 84.244944)scale(0.11 -0.11)">
       <use xlink:href="#DejaVuSerif-31"/>
      </g>
     </g>
    </g>
    <g id="ytick_9">
     <g id="line2d_18">
      <g>
       <use xlink:href="#m8fb8c1007e" x="407.315312" y="55.029747" style="stroke: #000000; stroke-width: 0.8"/>
      </g>
     </g>
     <g id="text_16">
      <!-- 2 -->
      <g transform="translate(414.315312 59.208887)scale(0.11 -0.11)">
       <use xlink:href="#DejaVuSerif-32"/>
      </g>
     </g>
    </g>
    <g id="ytick_10">
     <g id="line2d_19">
      <g>
       <use xlink:href="#m8fb8c1007e" x="407.315312" y="29.99369" style="stroke: #000000; stroke-width: 0.8"/>
      </g>
     </g>
     <g id="text_17">
      <!-- 3 -->
      <g transform="translate(414.315312 34.17283)scale(0.11 -0.11)">
       <defs>
        <path id="DejaVuSerif-33" d="M 622 4469 
Q 988 4606 1323 4678 
Q 1659 4750 1953 4750 
Q 2638 4750 3022 4454 
Q 3406 4159 3406 3634 
Q 3406 3213 3140 2930 
Q 2875 2647 2388 2547 
Q 2963 2466 3280 2130 
Q 3597 1794 3597 1259 
Q 3597 606 3158 257 
Q 2719 -91 1894 -91 
Q 1528 -91 1179 -12 
Q 831 66 488 225 
L 488 1131 
L 838 1131 
Q 869 681 1141 450 
Q 1413 219 1906 219 
Q 2384 219 2661 495 
Q 2938 772 2938 1253 
Q 2938 1803 2653 2086 
Q 2369 2369 1819 2369 
L 1522 2369 
L 1522 2688 
L 1678 2688 
Q 2225 2688 2498 2914 
Q 2772 3141 2772 3597 
Q 2772 4006 2547 4223 
Q 2322 4441 1900 4441 
Q 1478 4441 1245 4241 
Q 1013 4041 972 3647 
L 622 3647 
L 622 4469 
z
" transform="scale(0.015625)"/>
       </defs>
       <use xlink:href="#DejaVuSerif-33"/>
      </g>
     </g>
    </g>
    <g id="text_18">
     <!-- Modus -->
     <g transform="translate(433.672344 86.375822)rotate(-90)scale(0.11 -0.11)">
      <defs>
       <path id="DejaVuSerif-4d" d="M 353 0 
L 353 331 
L 947 331 
L 947 4331 
L 319 4331 
L 319 4666 
L 1678 4666 
L 3316 1344 
L 4953 4666 
L 6228 4666 
L 6228 4331 
L 5606 4331 
L 5606 331 
L 6203 331 
L 6203 0 
L 4378 0 
L 4378 331 
L 4972 331 
L 4972 3938 
L 3372 684 
L 2931 684 
L 1331 3938 
L 1331 331 
L 1925 331 
L 1925 0 
L 353 0 
z
" transform="scale(0.015625)"/>
       <path id="DejaVuSerif-6f" d="M 1925 219 
Q 2388 219 2623 584 
Q 2859 950 2859 1663 
Q 2859 2375 2623 2739 
Q 2388 3103 1925 3103 
Q 1463 3103 1227 2739 
Q 991 2375 991 1663 
Q 991 950 1228 584 
Q 1466 219 1925 219 
z
M 1925 -91 
Q 1200 -91 759 389 
Q 319 869 319 1663 
Q 319 2456 758 2934 
Q 1197 3413 1925 3413 
Q 2653 3413 3092 2934 
Q 3531 2456 3531 1663 
Q 3531 869 3092 389 
Q 2653 -91 1925 -91 
z
" transform="scale(0.015625)"/>
       <path id="DejaVuSerif-73" d="M 359 184 
L 359 959 
L 691 959 
Q 703 588 923 403 
Q 1144 219 1575 219 
Q 1963 219 2166 364 
Q 2369 509 2369 788 
Q 2369 1006 2220 1140 
Q 2072 1275 1594 1428 
L 1178 1569 
Q 750 1706 558 1912 
Q 366 2119 366 2438 
Q 366 2894 700 3153 
Q 1034 3413 1625 3413 
Q 1888 3413 2178 3344 
Q 2469 3275 2778 3144 
L 2778 2419 
L 2447 2419 
Q 2434 2741 2221 2922 
Q 2009 3103 1644 3103 
Q 1281 3103 1095 2975 
Q 909 2847 909 2591 
Q 909 2381 1050 2254 
Q 1191 2128 1613 1997 
L 2069 1856 
Q 2541 1709 2748 1489 
Q 2956 1269 2956 922 
Q 2956 450 2595 179 
Q 2234 -91 1600 -91 
Q 1278 -91 972 -22 
Q 666 47 359 184 
z
" transform="scale(0.015625)"/>
      </defs>
      <use xlink:href="#DejaVuSerif-4d"/>
      <use xlink:href="#DejaVuSerif-6f" x="102.392578"/>
      <use xlink:href="#DejaVuSerif-64" x="162.597656"/>
      <use xlink:href="#DejaVuSerif-75" x="226.611328"/>
      <use xlink:href="#DejaVuSerif-73" x="291.015625"/>
     </g>
    </g>
   </g>
   <g id="line2d_20">
    <path d="M 66.735582 55.029747 
L 88.134441 55.029747 
L 88.134441 29.99369 
L 89.260697 29.99369 
L 89.260697 55.029747 
L 109.5333 55.029747 
L 109.5333 29.99369 
L 110.659556 29.99369 
L 110.659556 55.029747 
L 112.912067 55.029747 
L 112.912067 29.99369 
L 114.038323 29.99369 
L 114.038323 55.029747 
L 121.922113 55.029747 
L 121.922113 29.99369 
L 123.048368 29.99369 
L 123.048368 55.029747 
L 126.427136 55.029747 
L 126.427136 29.99369 
L 127.553391 29.99369 
L 127.553391 55.029747 
L 128.679647 55.029747 
L 128.679647 29.99369 
L 129.805903 29.99369 
L 129.805903 55.029747 
L 130.932158 55.029747 
L 130.932158 29.99369 
L 132.058414 29.99369 
L 132.058414 55.029747 
L 133.18467 55.029747 
L 133.18467 29.99369 
L 134.310926 29.99369 
L 134.310926 55.029747 
L 135.437181 55.029747 
L 135.437181 29.99369 
L 136.563437 29.99369 
L 136.563437 55.029747 
L 150.078506 55.029747 
L 150.078506 29.99369 
L 151.204761 29.99369 
L 151.204761 55.029747 
L 160.214807 55.029747 
L 160.214807 105.101861 
L 161.341063 105.101861 
L 161.341063 55.029747 
L 171.477364 55.029747 
L 171.477364 29.99369 
L 172.60362 29.99369 
L 172.60362 55.029747 
L 194.002479 55.029747 
L 194.002479 29.99369 
L 195.128735 29.99369 
L 195.128735 55.029747 
L 205.265036 55.029747 
L 205.265036 29.99369 
L 206.391292 29.99369 
L 206.391292 55.029747 
L 216.527593 55.029747 
L 216.527593 29.99369 
L 217.653849 29.99369 
L 217.653849 55.029747 
L 224.411383 55.029747 
L 224.411383 29.99369 
L 225.537639 29.99369 
L 225.537639 55.029747 
L 234.547685 55.029747 
L 234.547685 29.99369 
L 236.800196 29.99369 
L 236.800196 55.029747 
L 239.052708 55.029747 
L 239.052708 29.99369 
L 240.178963 29.99369 
L 240.178963 55.029747 
L 241.305219 55.029747 
L 241.305219 29.99369 
L 243.557731 29.99369 
L 243.557731 55.029747 
L 246.936498 55.029747 
L 246.936498 29.99369 
L 248.062754 29.99369 
L 248.062754 55.029747 
L 250.315265 55.029747 
L 250.315265 105.101861 
L 251.441521 105.101861 
L 251.441521 55.029747 
L 255.946544 55.029747 
L 255.946544 105.101861 
L 257.072799 105.101861 
L 257.072799 55.029747 
L 259.325311 55.029747 
L 259.325311 105.101861 
L 260.451566 105.101861 
L 260.451566 55.029747 
L 268.335356 55.029747 
L 268.335356 29.99369 
L 269.461612 29.99369 
L 269.461612 55.029747 
L 270.587868 55.029747 
L 270.587868 105.101861 
L 271.714124 105.101861 
L 271.714124 55.029747 
L 275.092891 55.029747 
L 275.092891 29.99369 
L 276.219147 29.99369 
L 276.219147 55.029747 
L 278.471658 55.029747 
L 278.471658 105.101861 
L 279.597914 105.101861 
L 279.597914 55.029747 
L 300.996772 55.029747 
L 300.996772 29.99369 
L 302.123028 29.99369 
L 302.123028 55.029747 
L 316.764353 55.029747 
L 316.764353 80.065804 
L 325.774398 80.065804 
L 325.774398 55.029747 
L 347.173257 55.029747 
L 347.173257 29.99369 
L 348.299513 29.99369 
L 348.299513 55.029747 
L 352.804536 55.029747 
L 352.804536 29.99369 
L 353.930791 29.99369 
L 353.930791 55.029747 
L 358.435814 55.029747 
L 358.435814 29.99369 
L 359.56207 29.99369 
L 359.56207 80.065804 
L 360.688326 80.065804 
L 360.688326 55.029747 
L 361.814581 55.029747 
L 361.814581 29.99369 
L 362.940837 29.99369 
L 362.940837 80.065804 
L 365.193349 80.065804 
L 365.193349 55.029747 
L 366.319604 55.029747 
L 366.319604 29.99369 
L 367.44586 29.99369 
L 367.44586 80.065804 
L 371.950883 80.065804 
L 371.950883 55.029747 
L 375.32965 55.029747 
L 375.32965 29.99369 
L 376.455906 29.99369 
L 376.455906 55.029747 
L 388.844719 55.029747 
L 388.844719 29.99369 
L 389.970974 29.99369 
L 389.970974 29.99369 
" clip-path="url(#p27be46405e)" style="fill: none; stroke-dasharray: 5.55,2.4; stroke-dashoffset: 0; stroke: #4b81c4; stroke-width: 1.5"/>
   </g>
   <g id="patch_16">
    <path d="M 50.5175 108.857269 
L 50.5175 26.238281 
" style="fill: none; stroke: #000000; stroke-width: 0.5; stroke-linejoin: miter; stroke-linecap: square"/>
   </g>
   <g id="patch_17">
    <path d="M 407.315312 108.857269 
L 407.315312 26.238281 
" style="fill: none; stroke: #000000; stroke-width: 0.5; stroke-linejoin: miter; stroke-linecap: square"/>
   </g>
   <g id="patch_18">
    <path d="M 50.5175 108.857269 
L 407.315312 108.857269 
" style="fill: none; stroke: #000000; stroke-width: 0.5; stroke-linejoin: miter; stroke-linecap: square"/>
   </g>
   <g id="patch_19">
    <path d="M 50.5175 26.238281 
L 407.315312 26.238281 
" style="fill: none; stroke: #000000; stroke-width: 0.5; stroke-linejoin: miter; stroke-linecap: square"/>
   </g>
  </g>
  <g id="legend_1">
   <g id="line2d_21">
    <path d="M 173.160544 15.412452 
L 182.323544 15.412452 
L 191.486544 15.412452 
" style="fill: none; stroke: #ec635c; stroke-width: 1.5; stroke-linecap: square"/>
   </g>
   <g id="text_19">
    <!-- $\dot{Q}_{\mathrm{WP}}$ -->
    <g transform="translate(198.816944 18.619502)scale(0.09163 -0.09163)">
     <use xlink:href="#DejaVuSans-307" transform="translate(74.271484 31.015625)"/>
     <use xlink:href="#DejaVuSans-Oblique-51" transform="translate(0 0.296875)"/>
     <use xlink:href="#DejaVuSans-57" transform="translate(79.667969 -16.109375)scale(0.7)"/>
     <use xlink:href="#DejaVuSans-50" transform="translate(148.881836 -16.109375)scale(0.7)"/>
    </g>
   </g>
   <g id="line2d_22">
    <path d="M 234.919164 15.412452 
L 244.082164 15.412452 
L 253.245164 15.412452 
" style="fill: none; stroke-dasharray: 1.5,2.475; stroke-dashoffset: 0; stroke: #f49961; stroke-width: 1.5"/>
   </g>
   <g id="text_20">
    <!-- $T_{\mathrm{PS}}$ -->
    <g transform="translate(260.575564 18.619502)scale(0.09163 -0.09163)">
     <defs>
      <path id="DejaVuSans-53" d="M 3425 4513 
L 3425 3897 
Q 3066 4069 2747 4153 
Q 2428 4238 2131 4238 
Q 1616 4238 1336 4038 
Q 1056 3838 1056 3469 
Q 1056 3159 1242 3001 
Q 1428 2844 1947 2747 
L 2328 2669 
Q 3034 2534 3370 2195 
Q 3706 1856 3706 1288 
Q 3706 609 3251 259 
Q 2797 -91 1919 -91 
Q 1588 -91 1214 -16 
Q 841 59 441 206 
L 441 856 
Q 825 641 1194 531 
Q 1563 422 1919 422 
Q 2459 422 2753 634 
Q 3047 847 3047 1241 
Q 3047 1584 2836 1778 
Q 2625 1972 2144 2069 
L 1759 2144 
Q 1053 2284 737 2584 
Q 422 2884 422 3419 
Q 422 4038 858 4394 
Q 1294 4750 2059 4750 
Q 2388 4750 2728 4690 
Q 3069 4631 3425 4513 
z
" transform="scale(0.015625)"/>
     </defs>
     <use xlink:href="#DejaVuSans-Oblique-54" transform="translate(0 0.09375)"/>
     <use xlink:href="#DejaVuSans-50" transform="translate(61.083984 -16.3125)scale(0.7)"/>
     <use xlink:href="#DejaVuSans-53" transform="translate(103.295898 -16.3125)scale(0.7)"/>
    </g>
   </g>
   <g id="line2d_23">
    <path d="M 292.737694 15.412452 
L 301.900694 15.412452 
L 311.063694 15.412452 
" style="fill: none; stroke-dasharray: 9.6,2.4,1.5,2.4; stroke-dashoffset: 0; stroke: #8768b4; stroke-width: 1.5"/>
   </g>
   <g id="text_21">
    <!-- $T_{\mathrm{TWW}}$ -->
    <g transform="translate(318.394094 18.619502)scale(0.09163 -0.09163)">
     <defs>
      <path id="DejaVuSans-54" d="M -19 4666 
L 3928 4666 
L 3928 4134 
L 2272 4134 
L 2272 0 
L 1638 0 
L 1638 4134 
L -19 4134 
L -19 4666 
z
" transform="scale(0.015625)"/>
     </defs>
     <use xlink:href="#DejaVuSans-Oblique-54" transform="translate(0 0.09375)"/>
     <use xlink:href="#DejaVuSans-54" transform="translate(61.083984 -16.3125)scale(0.7)"/>
     <use xlink:href="#DejaVuSans-57" transform="translate(103.842773 -16.3125)scale(0.7)"/>
     <use xlink:href="#DejaVuSans-57" transform="translate(173.056641 -16.3125)scale(0.7)"/>
    </g>
   </g>
   <g id="line2d_24">
    <path d="M 359.261074 15.412452 
L 359.261074 15.412452 
L 368.424074 15.412452 
L 368.424074 15.412452 
L 377.587074 15.412452 
" style="fill: none; stroke-dasharray: 5.55,2.4; stroke-dashoffset: 0; stroke: #4b81c4; stroke-width: 1.5"/>
   </g>
   <g id="text_22">
    <!-- Modus -->
    <g transform="translate(384.917474 18.619502)scale(0.09163 -0.09163)">
     <use xlink:href="#DejaVuSerif-4d"/>
     <use xlink:href="#DejaVuSerif-6f" x="102.392578"/>
     <use xlink:href="#DejaVuSerif-64" x="162.597656"/>
     <use xlink:href="#DejaVuSerif-75" x="226.611328"/>
     <use xlink:href="#DejaVuSerif-73" x="291.015625"/>
    </g>
   </g>
  </g>
 </g>
 <defs>
  <clipPath id="p27be46405e">
   <rect x="50.5175" y="26.238281" width="356.797812" height="82.618988"/>
  </clipPath>
  <clipPath id="p5a60e87568">
   <rect x="50.5175" y="125.209137" width="356.797812" height="82.618988"/>
  </clipPath>
 </defs>
</svg>
