<?xml version="1.0" encoding="utf-8" standalone="no"?>
<!DOCTYPE svg PUBLIC "-//W3C//DTD SVG 1.1//EN"
  "http://www.w3.org/Graphics/SVG/1.1/DTD/svg11.dtd">
<svg xmlns:xlink="http://www.w3.org/1999/xlink" width="720pt" height="425.52pt" viewBox="0 0 720 425.52" xmlns="http://www.w3.org/2000/svg" version="1.1">
 <metadata>
  <rdf:RDF xmlns:dc="http://purl.org/dc/elements/1.1/" xmlns:cc="http://creativecommons.org/ns#" xmlns:rdf="http://www.w3.org/1999/02/22-rdf-syntax-ns#">
   <cc:Work>
    <dc:type rdf:resource="http://purl.org/dc/dcmitype/StillImage"/>
    <dc:date>2023-05-30T22:42:46.204967</dc:date>
    <dc:format>image/svg+xml</dc:format>
    <dc:creator>
     <cc:Agent>
      <dc:title>Matplotlib v3.5.3, https://matplotlib.org/</dc:title>
     </cc:Agent>
    </dc:creator>
   </cc:Work>
  </rdf:RDF>
 </metadata>
 <defs>
  <style type="text/css">*{stroke-linejoin: round; stroke-linecap: butt}</style>
 </defs>
 <g id="figure_1">
  <g id="patch_1">
   <path d="M 0 425.52 
L 720 425.52 
L 720 0 
L 0 0 
z
" style="fill: #ffffff"/>
  </g>
  <g id="axes_1">
   <g id="patch_2">
    <path d="M 90.469688 359.656875 
L 660.58875 359.656875 
L 660.58875 38.324062 
L 90.469688 38.324062 
z
" style="fill: #ffffff"/>
   </g>
   <g id="patch_3">
    <path d="M 116.38419 359.656875 
L 116.38419 38.324062 
L 289.147543 38.324062 
L 289.147543 359.656875 
z
" clip-path="url(#pc701cbd00c)" style="fill: #808080; opacity: 0.2; stroke: #808080; stroke-width: 2; stroke-linejoin: miter"/>
   </g>
   <g id="patch_4">
    <path d="M 461.910895 359.656875 
L 461.910895 38.324062 
L 634.674247 38.324062 
L 634.674247 359.656875 
z
" clip-path="url(#pc701cbd00c)" style="fill: #808080; opacity: 0.2; stroke: #808080; stroke-width: 2; stroke-linejoin: miter"/>
   </g>
   <g id="matplotlib.axis_1">
    <g id="xtick_1">
     <g id="line2d_1">
      <defs>
       <path id="mb1b66801ee" d="M 0 0 
L 0 6 
" style="stroke: #000000"/>
      </defs>
      <g>
       <use xlink:href="#mb1b66801ee" x="202.765866" y="359.656875" style="stroke: #000000"/>
      </g>
     </g>
     <g id="text_1">
      <!-- 1.10 -->
      <g transform="translate(185.251023 382.040938)scale(0.18 -0.18)">
       <defs>
        <path id="ArialMT-31" d="M 2384 0 
L 1822 0 
L 1822 3584 
Q 1619 3391 1289 3197 
Q 959 3003 697 2906 
L 697 3450 
Q 1169 3672 1522 3987 
Q 1875 4303 2022 4600 
L 2384 4600 
L 2384 0 
z
" transform="scale(0.015625)"/>
        <path id="ArialMT-2e" d="M 581 0 
L 581 641 
L 1222 641 
L 1222 0 
L 581 0 
z
" transform="scale(0.015625)"/>
        <path id="ArialMT-30" d="M 266 2259 
Q 266 3072 433 3567 
Q 600 4063 929 4331 
Q 1259 4600 1759 4600 
Q 2128 4600 2406 4451 
Q 2684 4303 2865 4023 
Q 3047 3744 3150 3342 
Q 3253 2941 3253 2259 
Q 3253 1453 3087 958 
Q 2922 463 2592 192 
Q 2263 -78 1759 -78 
Q 1097 -78 719 397 
Q 266 969 266 2259 
z
M 844 2259 
Q 844 1131 1108 757 
Q 1372 384 1759 384 
Q 2147 384 2411 759 
Q 2675 1134 2675 2259 
Q 2675 3391 2411 3762 
Q 2147 4134 1753 4134 
Q 1366 4134 1134 3806 
Q 844 3388 844 2259 
z
" transform="scale(0.015625)"/>
       </defs>
       <use xlink:href="#ArialMT-31"/>
       <use xlink:href="#ArialMT-2e" x="55.615234"/>
       <use xlink:href="#ArialMT-31" x="83.398438"/>
       <use xlink:href="#ArialMT-30" x="139.013672"/>
      </g>
     </g>
    </g>
    <g id="xtick_2">
     <g id="line2d_2">
      <g>
       <use xlink:href="#mb1b66801ee" x="375.529219" y="359.656875" style="stroke: #000000"/>
      </g>
     </g>
     <g id="text_2">
      <!-- 2.10 -->
      <g transform="translate(358.014375 382.040938)scale(0.18 -0.18)">
       <defs>
        <path id="ArialMT-32" d="M 3222 541 
L 3222 0 
L 194 0 
Q 188 203 259 391 
Q 375 700 629 1000 
Q 884 1300 1366 1694 
Q 2113 2306 2375 2664 
Q 2638 3022 2638 3341 
Q 2638 3675 2398 3904 
Q 2159 4134 1775 4134 
Q 1369 4134 1125 3890 
Q 881 3647 878 3216 
L 300 3275 
Q 359 3922 746 4261 
Q 1134 4600 1788 4600 
Q 2447 4600 2831 4234 
Q 3216 3869 3216 3328 
Q 3216 3053 3103 2787 
Q 2991 2522 2730 2228 
Q 2469 1934 1863 1422 
Q 1356 997 1212 845 
Q 1069 694 975 541 
L 3222 541 
z
" transform="scale(0.015625)"/>
       </defs>
       <use xlink:href="#ArialMT-32"/>
       <use xlink:href="#ArialMT-2e" x="55.615234"/>
       <use xlink:href="#ArialMT-31" x="83.398438"/>
       <use xlink:href="#ArialMT-30" x="139.013672"/>
      </g>
     </g>
    </g>
    <g id="xtick_3">
     <g id="line2d_3">
      <g>
       <use xlink:href="#mb1b66801ee" x="548.292571" y="359.656875" style="stroke: #000000"/>
      </g>
     </g>
     <g id="text_3">
      <!-- 3.10 -->
      <g transform="translate(530.777727 382.040938)scale(0.18 -0.18)">
       <defs>
        <path id="ArialMT-33" d="M 269 1209 
L 831 1284 
Q 928 806 1161 595 
Q 1394 384 1728 384 
Q 2125 384 2398 659 
Q 2672 934 2672 1341 
Q 2672 1728 2419 1979 
Q 2166 2231 1775 2231 
Q 1616 2231 1378 2169 
L 1441 2663 
Q 1497 2656 1531 2656 
Q 1891 2656 2178 2843 
Q 2466 3031 2466 3422 
Q 2466 3731 2256 3934 
Q 2047 4138 1716 4138 
Q 1388 4138 1169 3931 
Q 950 3725 888 3313 
L 325 3413 
Q 428 3978 793 4289 
Q 1159 4600 1703 4600 
Q 2078 4600 2393 4439 
Q 2709 4278 2876 4000 
Q 3044 3722 3044 3409 
Q 3044 3113 2884 2869 
Q 2725 2625 2413 2481 
Q 2819 2388 3044 2092 
Q 3269 1797 3269 1353 
Q 3269 753 2831 336 
Q 2394 -81 1725 -81 
Q 1122 -81 723 278 
Q 325 638 269 1209 
z
" transform="scale(0.015625)"/>
       </defs>
       <use xlink:href="#ArialMT-33"/>
       <use xlink:href="#ArialMT-2e" x="55.615234"/>
       <use xlink:href="#ArialMT-31" x="83.398438"/>
       <use xlink:href="#ArialMT-30" x="139.013672"/>
      </g>
     </g>
    </g>
    <g id="text_4">
     <!-- Zeit in d -->
     <g transform="translate(343.517344 402.5025)scale(0.18 -0.18)">
      <defs>
       <path id="ArialMT-5a" d="M 128 0 
L 128 563 
L 2475 3497 
Q 2725 3809 2950 4041 
L 394 4041 
L 394 4581 
L 3675 4581 
L 3675 4041 
L 1103 863 
L 825 541 
L 3750 541 
L 3750 0 
L 128 0 
z
" transform="scale(0.015625)"/>
       <path id="ArialMT-65" d="M 2694 1069 
L 3275 997 
Q 3138 488 2766 206 
Q 2394 -75 1816 -75 
Q 1088 -75 661 373 
Q 234 822 234 1631 
Q 234 2469 665 2931 
Q 1097 3394 1784 3394 
Q 2450 3394 2872 2941 
Q 3294 2488 3294 1666 
Q 3294 1616 3291 1516 
L 816 1516 
Q 847 969 1125 678 
Q 1403 388 1819 388 
Q 2128 388 2347 550 
Q 2566 713 2694 1069 
z
M 847 1978 
L 2700 1978 
Q 2663 2397 2488 2606 
Q 2219 2931 1791 2931 
Q 1403 2931 1139 2672 
Q 875 2413 847 1978 
z
" transform="scale(0.015625)"/>
       <path id="ArialMT-69" d="M 425 3934 
L 425 4581 
L 988 4581 
L 988 3934 
L 425 3934 
z
M 425 0 
L 425 3319 
L 988 3319 
L 988 0 
L 425 0 
z
" transform="scale(0.015625)"/>
       <path id="ArialMT-74" d="M 1650 503 
L 1731 6 
Q 1494 -44 1306 -44 
Q 1000 -44 831 53 
Q 663 150 594 308 
Q 525 466 525 972 
L 525 2881 
L 113 2881 
L 113 3319 
L 525 3319 
L 525 4141 
L 1084 4478 
L 1084 3319 
L 1650 3319 
L 1650 2881 
L 1084 2881 
L 1084 941 
Q 1084 700 1114 631 
Q 1144 563 1211 522 
Q 1278 481 1403 481 
Q 1497 481 1650 503 
z
" transform="scale(0.015625)"/>
       <path id="ArialMT-20" transform="scale(0.015625)"/>
       <path id="ArialMT-6e" d="M 422 0 
L 422 3319 
L 928 3319 
L 928 2847 
Q 1294 3394 1984 3394 
Q 2284 3394 2536 3286 
Q 2788 3178 2913 3003 
Q 3038 2828 3088 2588 
Q 3119 2431 3119 2041 
L 3119 0 
L 2556 0 
L 2556 2019 
Q 2556 2363 2490 2533 
Q 2425 2703 2258 2804 
Q 2091 2906 1866 2906 
Q 1506 2906 1245 2678 
Q 984 2450 984 1813 
L 984 0 
L 422 0 
z
" transform="scale(0.015625)"/>
       <path id="ArialMT-64" d="M 2575 0 
L 2575 419 
Q 2259 -75 1647 -75 
Q 1250 -75 917 144 
Q 584 363 401 755 
Q 219 1147 219 1656 
Q 219 2153 384 2558 
Q 550 2963 881 3178 
Q 1213 3394 1622 3394 
Q 1922 3394 2156 3267 
Q 2391 3141 2538 2938 
L 2538 4581 
L 3097 4581 
L 3097 0 
L 2575 0 
z
M 797 1656 
Q 797 1019 1065 703 
Q 1334 388 1700 388 
Q 2069 388 2326 689 
Q 2584 991 2584 1609 
Q 2584 2291 2321 2609 
Q 2059 2928 1675 2928 
Q 1300 2928 1048 2622 
Q 797 2316 797 1656 
z
" transform="scale(0.015625)"/>
      </defs>
      <use xlink:href="#ArialMT-5a"/>
      <use xlink:href="#ArialMT-65" x="61.083984"/>
      <use xlink:href="#ArialMT-69" x="116.699219"/>
      <use xlink:href="#ArialMT-74" x="138.916016"/>
      <use xlink:href="#ArialMT-20" x="166.699219"/>
      <use xlink:href="#ArialMT-69" x="194.482422"/>
      <use xlink:href="#ArialMT-6e" x="216.699219"/>
      <use xlink:href="#ArialMT-20" x="272.314453"/>
      <use xlink:href="#ArialMT-64" x="300.097656"/>
     </g>
    </g>
   </g>
   <g id="matplotlib.axis_2">
    <g id="ytick_1">
     <g id="line2d_4">
      <defs>
       <path id="m8d85895ffd" d="M 0 0 
L -6 0 
" style="stroke: #000000"/>
      </defs>
      <g>
       <use xlink:href="#m8d85895ffd" x="90.469688" y="345.050838" style="stroke: #000000"/>
      </g>
     </g>
     <g id="text_5">
      <!-- 0,0 -->
      <g transform="translate(55.949688 351.492869)scale(0.18 -0.18)">
       <defs>
        <path id="ArialMT-2c" d="M 569 0 
L 569 641 
L 1209 641 
L 1209 0 
Q 1209 -353 1084 -570 
Q 959 -788 688 -906 
L 531 -666 
Q 709 -588 793 -436 
Q 878 -284 888 0 
L 569 0 
z
" transform="scale(0.015625)"/>
       </defs>
       <use xlink:href="#ArialMT-30"/>
       <use xlink:href="#ArialMT-2c" x="55.615234"/>
       <use xlink:href="#ArialMT-30" x="83.398438"/>
      </g>
     </g>
    </g>
    <g id="ytick_2">
     <g id="line2d_5">
      <g>
       <use xlink:href="#m8d85895ffd" x="90.469688" y="272.020653" style="stroke: #000000"/>
      </g>
     </g>
     <g id="text_6">
      <!-- 2,5 -->
      <g transform="translate(55.949688 278.462685)scale(0.18 -0.18)">
       <defs>
        <path id="ArialMT-35" d="M 266 1200 
L 856 1250 
Q 922 819 1161 601 
Q 1400 384 1738 384 
Q 2144 384 2425 690 
Q 2706 997 2706 1503 
Q 2706 1984 2436 2262 
Q 2166 2541 1728 2541 
Q 1456 2541 1237 2417 
Q 1019 2294 894 2097 
L 366 2166 
L 809 4519 
L 3088 4519 
L 3088 3981 
L 1259 3981 
L 1013 2750 
Q 1425 3038 1878 3038 
Q 2478 3038 2890 2622 
Q 3303 2206 3303 1553 
Q 3303 931 2941 478 
Q 2500 -78 1738 -78 
Q 1113 -78 717 272 
Q 322 622 266 1200 
z
" transform="scale(0.015625)"/>
       </defs>
       <use xlink:href="#ArialMT-32"/>
       <use xlink:href="#ArialMT-2c" x="55.615234"/>
       <use xlink:href="#ArialMT-35" x="83.398438"/>
      </g>
     </g>
    </g>
    <g id="ytick_3">
     <g id="line2d_6">
      <g>
       <use xlink:href="#m8d85895ffd" x="90.469688" y="198.990469" style="stroke: #000000"/>
      </g>
     </g>
     <g id="text_7">
      <!-- 5,0 -->
      <g transform="translate(55.949688 205.4325)scale(0.18 -0.18)">
       <use xlink:href="#ArialMT-35"/>
       <use xlink:href="#ArialMT-2c" x="55.615234"/>
       <use xlink:href="#ArialMT-30" x="83.398438"/>
      </g>
     </g>
    </g>
    <g id="ytick_4">
     <g id="line2d_7">
      <g>
       <use xlink:href="#m8d85895ffd" x="90.469688" y="125.960284" style="stroke: #000000"/>
      </g>
     </g>
     <g id="text_8">
      <!-- 7,5 -->
      <g transform="translate(55.949688 132.402315)scale(0.18 -0.18)">
       <defs>
        <path id="ArialMT-37" d="M 303 3981 
L 303 4522 
L 3269 4522 
L 3269 4084 
Q 2831 3619 2401 2847 
Q 1972 2075 1738 1259 
Q 1569 684 1522 0 
L 944 0 
Q 953 541 1156 1306 
Q 1359 2072 1739 2783 
Q 2119 3494 2547 3981 
L 303 3981 
z
" transform="scale(0.015625)"/>
       </defs>
       <use xlink:href="#ArialMT-37"/>
       <use xlink:href="#ArialMT-2c" x="55.615234"/>
       <use xlink:href="#ArialMT-35" x="83.398438"/>
      </g>
     </g>
    </g>
    <g id="ytick_5">
     <g id="line2d_8">
      <g>
       <use xlink:href="#m8d85895ffd" x="90.469688" y="52.930099" style="stroke: #000000"/>
      </g>
     </g>
     <g id="text_9">
      <!-- 10,0 -->
      <g transform="translate(45.94 59.372131)scale(0.18 -0.18)">
       <use xlink:href="#ArialMT-31"/>
       <use xlink:href="#ArialMT-30" x="55.615234"/>
       <use xlink:href="#ArialMT-2c" x="111.230469"/>
       <use xlink:href="#ArialMT-30" x="139.013672"/>
      </g>
     </g>
    </g>
    <g id="text_10">
     <!-- $\dot{Q}_{\mathrm{Haus}}$ in kW -->
     <g transform="translate(38.3625 247.320469)rotate(-90)scale(0.18 -0.18)">
      <defs>
       <path id="DejaVuSans-307" d="M -1894 4863 
L -1319 4863 
L -1319 4134 
L -1894 4134 
L -1894 4863 
z
M -1600 3584 
L -1600 3584 
z
" transform="scale(0.015625)"/>
       <path id="DejaVuSans-Oblique-51" d="M 2309 -84 
Q 2275 -88 2237 -89 
Q 2200 -91 2125 -91 
Q 1250 -91 756 411 
Q 263 913 263 1797 
Q 263 2319 452 2844 
Q 641 3369 978 3788 
Q 1369 4269 1858 4509 
Q 2347 4750 2938 4750 
Q 3794 4750 4287 4245 
Q 4781 3741 4781 2869 
Q 4781 1928 4265 1147 
Q 3750 366 2919 44 
L 3553 -825 
L 2847 -825 
L 2309 -84 
z
M 2919 4238 
Q 2400 4238 2003 3986 
Q 1606 3734 1313 3219 
Q 1125 2891 1026 2522 
Q 928 2153 928 1778 
Q 928 1128 1239 775 
Q 1550 422 2119 422 
Q 2631 422 3032 676 
Q 3434 931 3719 1434 
Q 3909 1772 4009 2142 
Q 4109 2513 4109 2881 
Q 4109 3528 3796 3883 
Q 3484 4238 2919 4238 
z
" transform="scale(0.015625)"/>
       <path id="DejaVuSans-48" d="M 628 4666 
L 1259 4666 
L 1259 2753 
L 3553 2753 
L 3553 4666 
L 4184 4666 
L 4184 0 
L 3553 0 
L 3553 2222 
L 1259 2222 
L 1259 0 
L 628 0 
L 628 4666 
z
" transform="scale(0.015625)"/>
       <path id="DejaVuSans-61" d="M 2194 1759 
Q 1497 1759 1228 1600 
Q 959 1441 959 1056 
Q 959 750 1161 570 
Q 1363 391 1709 391 
Q 2188 391 2477 730 
Q 2766 1069 2766 1631 
L 2766 1759 
L 2194 1759 
z
M 3341 1997 
L 3341 0 
L 2766 0 
L 2766 531 
Q 2569 213 2275 61 
Q 1981 -91 1556 -91 
Q 1019 -91 701 211 
Q 384 513 384 1019 
Q 384 1609 779 1909 
Q 1175 2209 1959 2209 
L 2766 2209 
L 2766 2266 
Q 2766 2663 2505 2880 
Q 2244 3097 1772 3097 
Q 1472 3097 1187 3025 
Q 903 2953 641 2809 
L 641 3341 
Q 956 3463 1253 3523 
Q 1550 3584 1831 3584 
Q 2591 3584 2966 3190 
Q 3341 2797 3341 1997 
z
" transform="scale(0.015625)"/>
       <path id="DejaVuSans-75" d="M 544 1381 
L 544 3500 
L 1119 3500 
L 1119 1403 
Q 1119 906 1312 657 
Q 1506 409 1894 409 
Q 2359 409 2629 706 
Q 2900 1003 2900 1516 
L 2900 3500 
L 3475 3500 
L 3475 0 
L 2900 0 
L 2900 538 
Q 2691 219 2414 64 
Q 2138 -91 1772 -91 
Q 1169 -91 856 284 
Q 544 659 544 1381 
z
M 1991 3584 
L 1991 3584 
z
" transform="scale(0.015625)"/>
       <path id="DejaVuSans-73" d="M 2834 3397 
L 2834 2853 
Q 2591 2978 2328 3040 
Q 2066 3103 1784 3103 
Q 1356 3103 1142 2972 
Q 928 2841 928 2578 
Q 928 2378 1081 2264 
Q 1234 2150 1697 2047 
L 1894 2003 
Q 2506 1872 2764 1633 
Q 3022 1394 3022 966 
Q 3022 478 2636 193 
Q 2250 -91 1575 -91 
Q 1294 -91 989 -36 
Q 684 19 347 128 
L 347 722 
Q 666 556 975 473 
Q 1284 391 1588 391 
Q 1994 391 2212 530 
Q 2431 669 2431 922 
Q 2431 1156 2273 1281 
Q 2116 1406 1581 1522 
L 1381 1569 
Q 847 1681 609 1914 
Q 372 2147 372 2553 
Q 372 3047 722 3315 
Q 1072 3584 1716 3584 
Q 2034 3584 2315 3537 
Q 2597 3491 2834 3397 
z
" transform="scale(0.015625)"/>
       <path id="ArialMT-6b" d="M 425 0 
L 425 4581 
L 988 4581 
L 988 1969 
L 2319 3319 
L 3047 3319 
L 1778 2088 
L 3175 0 
L 2481 0 
L 1384 1697 
L 988 1316 
L 988 0 
L 425 0 
z
" transform="scale(0.015625)"/>
       <path id="ArialMT-57" d="M 1294 0 
L 78 4581 
L 700 4581 
L 1397 1578 
Q 1509 1106 1591 641 
Q 1766 1375 1797 1488 
L 2669 4581 
L 3400 4581 
L 4056 2263 
Q 4303 1400 4413 641 
Q 4500 1075 4641 1638 
L 5359 4581 
L 5969 4581 
L 4713 0 
L 4128 0 
L 3163 3491 
Q 3041 3928 3019 4028 
Q 2947 3713 2884 3491 
L 1913 0 
L 1294 0 
z
" transform="scale(0.015625)"/>
      </defs>
      <use xlink:href="#DejaVuSans-307" transform="translate(74.271484 31.015625)"/>
      <use xlink:href="#DejaVuSans-Oblique-51" transform="translate(0 0.296875)"/>
      <use xlink:href="#DejaVuSans-48" transform="translate(79.667969 -16.109375)scale(0.7)"/>
      <use xlink:href="#DejaVuSans-61" transform="translate(132.304688 -16.109375)scale(0.7)"/>
      <use xlink:href="#DejaVuSans-75" transform="translate(175.200195 -16.109375)scale(0.7)"/>
      <use xlink:href="#DejaVuSans-73" transform="translate(219.56543 -16.109375)scale(0.7)"/>
      <use xlink:href="#ArialMT-20" transform="translate(258.769531 0.296875)"/>
      <use xlink:href="#ArialMT-69" transform="translate(286.552734 0.296875)"/>
      <use xlink:href="#ArialMT-6e" transform="translate(308.769531 0.296875)"/>
      <use xlink:href="#ArialMT-20" transform="translate(364.384766 0.296875)"/>
      <use xlink:href="#ArialMT-6b" transform="translate(392.167969 0.296875)"/>
      <use xlink:href="#ArialMT-57" transform="translate(442.167969 0.296875)"/>
     </g>
    </g>
   </g>
   <g id="line2d_9">
    <path d="M 116.38419 281.855774 
L 128.981518 282.553359 
L 130.781136 282.635153 
L 139.779228 282.246048 
L 152.376555 281.137157 
L 159.575028 281.280881 
L 166.773501 284.16236 
L 173.971974 307.9702 
L 181.170447 318.602226 
L 188.36892 315.766318 
L 195.567393 323.314718 
L 202.765866 330.150343 
L 209.964339 332.414863 
L 217.162813 333.113616 
L 224.361286 332.74905 
L 231.559759 329.510015 
L 238.758232 322.603112 
L 245.956705 312.696714 
L 253.155178 307.207181 
L 260.353651 289.91597 
L 267.552124 284.045511 
L 274.750597 281.772812 
L 281.94907 280.521367 
L 289.147543 280.394002 
L 312.54258 282.152569 
L 319.741053 282.345369 
L 325.139908 282.316157 
L 332.338381 283.186677 
L 339.536854 287.901505 
L 346.735327 310.696271 
L 353.9338 320.545414 
L 361.132273 313.501798 
L 368.330746 316.89741 
L 382.727692 326.481307 
L 389.926165 329.802136 
L 397.124638 331.485919 
L 404.323111 327.724573 
L 418.720057 308.781127 
L 425.91853 300.440496 
L 433.117003 280.902292 
L 440.315476 274.882268 
L 447.513949 272.428454 
L 456.51204 272.017148 
L 470.908986 271.867582 
L 483.506314 272.469351 
L 492.504405 271.994947 
L 497.90326 271.942365 
L 505.101733 273.433349 
L 512.300206 278.166874 
L 519.498679 304.800106 
L 526.697152 321.71857 
L 533.895625 323.657084 
L 541.094098 333.561145 
L 548.292571 335.369957 
L 555.491044 335.434223 
L 564.489135 334.688731 
L 569.88799 334.078783 
L 577.086463 331.508121 
L 584.284936 326.50234 
L 591.483409 319.886389 
L 598.681882 318.299589 
L 605.880355 306.195274 
L 613.078828 302.13947 
L 620.277301 299.908836 
L 627.475774 297.030863 
L 632.874629 294.219493 
L 632.874629 294.219493 
" clip-path="url(#pc701cbd00c)" style="fill: none; stroke: #ff33cc; stroke-width: 2; stroke-linecap: square"/>
   </g>
   <g id="patch_5">
    <path d="M 90.469688 359.656875 
L 90.469688 38.324062 
" style="fill: none; stroke: #000000; stroke-linejoin: miter; stroke-linecap: square"/>
   </g>
   <g id="patch_6">
    <path d="M 660.58875 359.656875 
L 660.58875 38.324062 
" style="fill: none; stroke: #000000; stroke-linejoin: miter; stroke-linecap: square"/>
   </g>
   <g id="patch_7">
    <path d="M 90.469688 359.656875 
L 660.58875 359.656875 
" style="fill: none; stroke: #000000; stroke-linejoin: miter; stroke-linecap: square"/>
   </g>
   <g id="patch_8">
    <path d="M 90.469688 38.324062 
L 660.58875 38.324062 
" style="fill: none; stroke: #000000; stroke-linejoin: miter; stroke-linecap: square"/>
   </g>
   <g id="text_11">
    <!-- Oktober -->
    <g transform="translate(90.469688 32.324062)scale(0.18 -0.18)">
     <defs>
      <path id="ArialMT-4f" d="M 309 2231 
Q 309 3372 921 4017 
Q 1534 4663 2503 4663 
Q 3138 4663 3647 4359 
Q 4156 4056 4423 3514 
Q 4691 2972 4691 2284 
Q 4691 1588 4409 1038 
Q 4128 488 3612 205 
Q 3097 -78 2500 -78 
Q 1853 -78 1343 234 
Q 834 547 571 1087 
Q 309 1628 309 2231 
z
M 934 2222 
Q 934 1394 1379 917 
Q 1825 441 2497 441 
Q 3181 441 3623 922 
Q 4066 1403 4066 2288 
Q 4066 2847 3877 3264 
Q 3688 3681 3323 3911 
Q 2959 4141 2506 4141 
Q 1863 4141 1398 3698 
Q 934 3256 934 2222 
z
" transform="scale(0.015625)"/>
      <path id="ArialMT-6f" d="M 213 1659 
Q 213 2581 725 3025 
Q 1153 3394 1769 3394 
Q 2453 3394 2887 2945 
Q 3322 2497 3322 1706 
Q 3322 1066 3130 698 
Q 2938 331 2570 128 
Q 2203 -75 1769 -75 
Q 1072 -75 642 372 
Q 213 819 213 1659 
z
M 791 1659 
Q 791 1022 1069 705 
Q 1347 388 1769 388 
Q 2188 388 2466 706 
Q 2744 1025 2744 1678 
Q 2744 2294 2464 2611 
Q 2184 2928 1769 2928 
Q 1347 2928 1069 2612 
Q 791 2297 791 1659 
z
" transform="scale(0.015625)"/>
      <path id="ArialMT-62" d="M 941 0 
L 419 0 
L 419 4581 
L 981 4581 
L 981 2947 
Q 1338 3394 1891 3394 
Q 2197 3394 2470 3270 
Q 2744 3147 2920 2923 
Q 3097 2700 3197 2384 
Q 3297 2069 3297 1709 
Q 3297 856 2875 390 
Q 2453 -75 1863 -75 
Q 1275 -75 941 416 
L 941 0 
z
M 934 1684 
Q 934 1088 1097 822 
Q 1363 388 1816 388 
Q 2184 388 2453 708 
Q 2722 1028 2722 1663 
Q 2722 2313 2464 2622 
Q 2206 2931 1841 2931 
Q 1472 2931 1203 2611 
Q 934 2291 934 1684 
z
" transform="scale(0.015625)"/>
      <path id="ArialMT-72" d="M 416 0 
L 416 3319 
L 922 3319 
L 922 2816 
Q 1116 3169 1280 3281 
Q 1444 3394 1641 3394 
Q 1925 3394 2219 3213 
L 2025 2691 
Q 1819 2813 1613 2813 
Q 1428 2813 1281 2702 
Q 1134 2591 1072 2394 
Q 978 2094 978 1738 
L 978 0 
L 416 0 
z
" transform="scale(0.015625)"/>
     </defs>
     <use xlink:href="#ArialMT-4f"/>
     <use xlink:href="#ArialMT-6b" x="77.783203"/>
     <use xlink:href="#ArialMT-74" x="127.783203"/>
     <use xlink:href="#ArialMT-6f" x="155.566406"/>
     <use xlink:href="#ArialMT-62" x="211.181641"/>
     <use xlink:href="#ArialMT-65" x="266.796875"/>
     <use xlink:href="#ArialMT-72" x="322.412109"/>
    </g>
   </g>
  </g>
  <g id="axes_2">
   <g id="matplotlib.axis_3">
    <g id="ytick_6">
     <g id="line2d_10">
      <defs>
       <path id="me559f8d3cf" d="M 0 0 
L 6 0 
" style="stroke: #000000"/>
      </defs>
      <g>
       <use xlink:href="#me559f8d3cf" x="660.58875" y="342.442617" style="stroke: #000000"/>
      </g>
     </g>
     <g id="text_12">
      <!-- 0 -->
      <g transform="translate(670.08875 348.884648)scale(0.18 -0.18)">
       <use xlink:href="#ArialMT-30"/>
      </g>
     </g>
    </g>
    <g id="ytick_7">
     <g id="line2d_11">
      <g>
       <use xlink:href="#me559f8d3cf" x="660.58875" y="285.061758" style="stroke: #000000"/>
      </g>
     </g>
     <g id="text_13">
      <!-- 1 -->
      <g transform="translate(670.08875 291.503789)scale(0.18 -0.18)">
       <use xlink:href="#ArialMT-31"/>
      </g>
     </g>
    </g>
    <g id="ytick_8">
     <g id="line2d_12">
      <g>
       <use xlink:href="#me559f8d3cf" x="660.58875" y="227.680898" style="stroke: #000000"/>
      </g>
     </g>
     <g id="text_14">
      <!-- 2 -->
      <g transform="translate(670.08875 234.12293)scale(0.18 -0.18)">
       <use xlink:href="#ArialMT-32"/>
      </g>
     </g>
    </g>
    <g id="ytick_9">
     <g id="line2d_13">
      <g>
       <use xlink:href="#me559f8d3cf" x="660.58875" y="170.300039" style="stroke: #000000"/>
      </g>
     </g>
     <g id="text_15">
      <!-- 3 -->
      <g transform="translate(670.08875 176.74207)scale(0.18 -0.18)">
       <use xlink:href="#ArialMT-33"/>
      </g>
     </g>
    </g>
    <g id="ytick_10">
     <g id="line2d_14">
      <g>
       <use xlink:href="#me559f8d3cf" x="660.58875" y="112.91918" style="stroke: #000000"/>
      </g>
     </g>
     <g id="text_16">
      <!-- 4 -->
      <g transform="translate(670.08875 119.361211)scale(0.18 -0.18)">
       <defs>
        <path id="ArialMT-34" d="M 2069 0 
L 2069 1097 
L 81 1097 
L 81 1613 
L 2172 4581 
L 2631 4581 
L 2631 1613 
L 3250 1613 
L 3250 1097 
L 2631 1097 
L 2631 0 
L 2069 0 
z
M 2069 1613 
L 2069 3678 
L 634 1613 
L 2069 1613 
z
" transform="scale(0.015625)"/>
       </defs>
       <use xlink:href="#ArialMT-34"/>
      </g>
     </g>
    </g>
    <g id="ytick_11">
     <g id="line2d_15">
      <g>
       <use xlink:href="#me559f8d3cf" x="660.58875" y="55.53832" style="stroke: #000000"/>
      </g>
     </g>
     <g id="text_17">
      <!-- 5 -->
      <g transform="translate(670.08875 61.980352)scale(0.18 -0.18)">
       <use xlink:href="#ArialMT-35"/>
      </g>
     </g>
    </g>
    <g id="text_18">
     <!-- $P_{\mathrm{PV}}$ in kW -->
     <g transform="translate(696.9825 237.780469)rotate(-90)scale(0.18 -0.18)">
      <defs>
       <path id="DejaVuSans-Oblique-50" d="M 1081 4666 
L 2541 4666 
Q 3178 4666 3512 4369 
Q 3847 4072 3847 3500 
Q 3847 2731 3353 2303 
Q 2859 1875 1966 1875 
L 1172 1875 
L 806 0 
L 172 0 
L 1081 4666 
z
M 1613 4147 
L 1275 2394 
L 2069 2394 
Q 2606 2394 2893 2669 
Q 3181 2944 3181 3456 
Q 3181 3784 2986 3965 
Q 2791 4147 2438 4147 
L 1613 4147 
z
" transform="scale(0.015625)"/>
       <path id="DejaVuSans-50" d="M 1259 4147 
L 1259 2394 
L 2053 2394 
Q 2494 2394 2734 2622 
Q 2975 2850 2975 3272 
Q 2975 3691 2734 3919 
Q 2494 4147 2053 4147 
L 1259 4147 
z
M 628 4666 
L 2053 4666 
Q 2838 4666 3239 4311 
Q 3641 3956 3641 3272 
Q 3641 2581 3239 2228 
Q 2838 1875 2053 1875 
L 1259 1875 
L 1259 0 
L 628 0 
L 628 4666 
z
" transform="scale(0.015625)"/>
       <path id="DejaVuSans-56" d="M 1831 0 
L 50 4666 
L 709 4666 
L 2188 738 
L 3669 4666 
L 4325 4666 
L 2547 0 
L 1831 0 
z
" transform="scale(0.015625)"/>
      </defs>
      <use xlink:href="#DejaVuSans-Oblique-50" transform="translate(0 0.09375)"/>
      <use xlink:href="#DejaVuSans-50" transform="translate(60.302734 -16.3125)scale(0.7)"/>
      <use xlink:href="#DejaVuSans-56" transform="translate(102.514648 -16.3125)scale(0.7)"/>
      <use xlink:href="#ArialMT-20" transform="translate(153.134766 0.09375)"/>
      <use xlink:href="#ArialMT-69" transform="translate(180.917969 0.09375)"/>
      <use xlink:href="#ArialMT-6e" transform="translate(203.134766 0.09375)"/>
      <use xlink:href="#ArialMT-20" transform="translate(258.75 0.09375)"/>
      <use xlink:href="#ArialMT-6b" transform="translate(286.533203 0.09375)"/>
      <use xlink:href="#ArialMT-57" transform="translate(336.533203 0.09375)"/>
     </g>
    </g>
   </g>
   <g id="line2d_16">
    <path d="M 116.38419 342.442617 
L 159.575028 342.442617 
L 159.575028 336.846836 
L 161.374647 336.846836 
L 161.374647 331.248759 
L 163.174265 331.248759 
L 163.174265 325.652978 
L 164.973883 325.652978 
L 164.973883 320.054901 
L 166.773501 320.054901 
L 166.773501 312.730808 
L 168.57312 312.730808 
L 168.57312 305.40442 
L 170.372738 305.40442 
L 170.372738 298.080327 
L 172.172356 298.080327 
L 172.172356 290.756234 
L 173.971974 290.756234 
L 173.971974 281.719897 
L 175.771593 281.719897 
L 175.771593 272.681264 
L 177.571211 272.681264 
L 177.571211 263.644926 
L 179.370829 263.644926 
L 179.370829 254.608588 
L 181.170447 254.608588 
L 181.170447 252.024154 
L 182.970066 252.024154 
L 182.970066 249.43972 
L 184.769684 249.43972 
L 184.769684 246.855286 
L 186.569302 246.855286 
L 186.569302 244.268557 
L 188.36892 244.268557 
L 188.36892 234.353145 
L 190.168539 234.353145 
L 190.168539 224.437732 
L 191.968157 224.437732 
L 191.968157 214.520025 
L 193.767775 214.520025 
L 193.767775 204.604612 
L 195.567393 204.604612 
L 195.567393 199.04785 
L 197.367012 199.04785 
L 197.367012 193.491087 
L 199.16663 193.491087 
L 199.16663 187.934325 
L 200.966248 187.934325 
L 200.966248 182.377562 
L 202.765866 182.377562 
L 202.765866 185.5381 
L 204.565485 185.5381 
L 204.565485 188.696343 
L 206.365103 188.696343 
L 206.365103 191.85688 
L 208.164721 191.85688 
L 208.164721 195.015123 
L 209.964339 195.015123 
L 209.964339 211.983791 
L 211.763958 211.983791 
L 211.763958 228.952458 
L 213.563576 228.952458 
L 213.563576 245.918831 
L 215.363194 245.918831 
L 215.363194 262.887499 
L 217.162813 262.887499 
L 217.162813 265.671618 
L 218.962431 265.671618 
L 218.962431 268.455737 
L 220.762049 268.455737 
L 220.762049 271.237561 
L 222.561667 271.237561 
L 222.561667 274.02168 
L 224.361286 274.02168 
L 224.361286 282.19501 
L 226.160904 282.19501 
L 226.160904 290.36834 
L 227.960522 290.36834 
L 227.960522 298.541669 
L 229.76014 298.541669 
L 229.76014 306.714999 
L 231.559759 306.714999 
L 231.559759 314.447644 
L 233.359377 314.447644 
L 233.359377 322.182583 
L 235.158995 322.182583 
L 235.158995 329.915228 
L 236.958613 329.915228 
L 236.958613 337.650168 
L 238.758232 337.650168 
L 238.758232 338.84828 
L 240.55785 338.84828 
L 240.55785 340.046392 
L 242.357468 340.046392 
L 242.357468 341.244505 
L 244.157086 341.244505 
L 244.157086 342.442617 
L 332.338381 342.442617 
L 332.338381 338.031177 
L 334.137999 338.031177 
L 334.137999 333.619736 
L 335.937617 333.619736 
L 335.937617 329.210591 
L 337.737235 329.210591 
L 337.737235 324.799151 
L 339.536854 324.799151 
L 339.536854 316.313669 
L 341.336472 316.313669 
L 341.336472 307.830483 
L 343.13609 307.830483 
L 343.13609 299.345001 
L 344.935708 299.345001 
L 344.935708 290.85952 
L 346.735327 290.85952 
L 346.735327 284.823053 
L 348.534945 284.823053 
L 348.534945 278.788882 
L 350.334563 278.788882 
L 350.334563 272.752416 
L 352.134181 272.752416 
L 352.134181 266.715949 
L 353.9338 266.715949 
L 353.9338 269.068565 
L 355.733418 269.068565 
L 355.733418 271.42118 
L 357.533036 271.42118 
L 357.533036 273.773795 
L 359.332654 273.773795 
L 359.332654 276.12641 
L 361.132273 276.12641 
L 361.132273 270.721133 
L 362.931891 270.721133 
L 362.931891 265.313561 
L 364.731509 265.313561 
L 364.731509 259.908284 
L 366.531127 259.908284 
L 366.531127 254.500712 
L 368.330746 254.500712 
L 368.330746 256.229024 
L 370.130364 256.229024 
L 370.130364 257.957335 
L 371.929982 257.957335 
L 371.929982 259.685647 
L 373.7296 259.685647 
L 373.7296 261.413958 
L 375.529219 261.413958 
L 375.529219 265.035838 
L 377.328837 265.035838 
L 377.328837 268.660013 
L 379.128455 268.660013 
L 379.128455 272.281893 
L 380.928074 272.281893 
L 380.928074 275.903773 
L 382.727692 275.903773 
L 382.727692 268.063252 
L 384.52731 268.063252 
L 384.52731 260.220436 
L 386.326928 260.220436 
L 386.326928 252.379916 
L 388.126547 252.379916 
L 388.126547 244.539395 
L 389.926165 244.539395 
L 389.926165 247.339581 
L 391.725783 247.339581 
L 391.725783 250.139767 
L 393.525401 250.139767 
L 393.525401 252.939953 
L 395.32502 252.939953 
L 395.32502 255.740139 
L 397.124638 255.740139 
L 397.124638 269.093812 
L 398.924256 269.093812 
L 398.924256 282.447486 
L 400.723874 282.447486 
L 400.723874 295.801159 
L 402.523493 295.801159 
L 402.523493 309.154833 
L 404.323111 309.154833 
L 404.323111 317.410791 
L 406.122729 317.410791 
L 406.122729 325.666749 
L 407.922347 325.666749 
L 407.922347 333.925002 
L 409.721966 333.925002 
L 409.721966 342.18096 
L 413.321202 342.245227 
L 413.321202 342.311789 
L 416.920439 342.376055 
L 416.920439 342.442617 
L 505.101733 342.442617 
L 505.101733 338.253814 
L 506.901351 338.253814 
L 506.901351 334.065012 
L 508.700969 334.065012 
L 508.700969 329.876209 
L 510.500588 329.876209 
L 510.500588 325.687406 
L 512.300206 325.687406 
L 512.300206 317.312096 
L 514.099824 317.312096 
L 514.099824 308.939081 
L 515.899442 308.939081 
L 515.899442 300.563771 
L 517.699061 300.563771 
L 517.699061 292.190756 
L 519.498679 292.190756 
L 519.498679 282.977685 
L 521.298297 282.977685 
L 521.298297 273.766909 
L 523.097915 273.766909 
L 523.097915 264.553839 
L 524.897534 264.553839 
L 524.897534 255.343063 
L 526.697152 255.343063 
L 526.697152 247.220229 
L 528.49677 247.220229 
L 528.49677 239.097394 
L 530.296388 239.097394 
L 530.296388 230.97456 
L 532.096007 230.97456 
L 532.096007 222.851725 
L 533.895625 222.851725 
L 533.895625 210.420736 
L 535.695243 210.420736 
L 535.695243 197.989747 
L 537.494862 197.989747 
L 537.494862 185.558757 
L 539.29448 185.558757 
L 539.29448 173.127768 
L 541.094098 173.127768 
L 541.094098 176.8208 
L 542.893716 176.8208 
L 542.893716 180.511537 
L 544.693335 180.511537 
L 544.693335 184.204569 
L 546.492953 184.204569 
L 546.492953 187.897601 
L 548.292571 187.897601 
L 548.292571 205.596153 
L 550.092189 205.596153 
L 550.092189 223.294706 
L 551.891808 223.294706 
L 551.891808 240.993258 
L 553.691426 240.993258 
L 553.691426 258.694105 
L 555.491044 258.694105 
L 555.491044 266.311988 
L 557.290662 266.311988 
L 557.290662 273.932166 
L 559.090281 273.932166 
L 559.090281 281.552344 
L 560.889899 281.552344 
L 560.889899 289.172523 
L 562.689517 289.172523 
L 562.689517 285.369319 
L 564.489135 285.369319 
L 564.489135 281.566116 
L 566.288754 281.566116 
L 566.288754 277.765208 
L 568.088372 277.765208 
L 568.088372 273.962004 
L 569.88799 273.962004 
L 569.88799 283.842988 
L 571.687608 283.842988 
L 571.687608 293.723972 
L 573.487227 293.723972 
L 573.487227 303.604956 
L 575.286845 303.604956 
L 575.286845 313.48594 
L 577.086463 313.48594 
L 577.086463 320.72511 
L 578.886081 320.72511 
L 578.886081 327.964279 
L 580.6857 327.964279 
L 580.6857 335.203448 
L 582.485318 335.203448 
L 582.485318 342.442617 
L 632.874629 342.442617 
L 632.874629 342.442617 
" clip-path="url(#pc701cbd00c)" style="fill: none; stroke-dasharray: 7.4,3.2; stroke-dashoffset: 0; stroke: #4b81c4; stroke-width: 2"/>
   </g>
   <g id="patch_9">
    <path d="M 90.469688 359.656875 
L 90.469688 38.324062 
" style="fill: none; stroke: #000000; stroke-linejoin: miter; stroke-linecap: square"/>
   </g>
   <g id="patch_10">
    <path d="M 660.58875 359.656875 
L 660.58875 38.324062 
" style="fill: none; stroke: #000000; stroke-linejoin: miter; stroke-linecap: square"/>
   </g>
   <g id="patch_11">
    <path d="M 90.469688 359.656875 
L 660.58875 359.656875 
" style="fill: none; stroke: #000000; stroke-linejoin: miter; stroke-linecap: square"/>
   </g>
   <g id="patch_12">
    <path d="M 90.469688 38.324062 
L 660.58875 38.324062 
" style="fill: none; stroke: #000000; stroke-linejoin: miter; stroke-linecap: square"/>
   </g>
  </g>
  <g id="legend_1">
   <g id="line2d_17">
    <path d="M 493.12638 25.508542 
L 508.12038 25.508542 
L 523.11438 25.508542 
" style="fill: none; stroke: #ff33cc; stroke-width: 2; stroke-linecap: square"/>
   </g>
   <g id="text_19">
    <!-- $\dot{Q}_{\mathrm{Haus}}$ -->
    <g transform="translate(535.10958 30.756442)scale(0.14994 -0.14994)">
     <use xlink:href="#DejaVuSans-307" transform="translate(74.271484 31.015625)"/>
     <use xlink:href="#DejaVuSans-Oblique-51" transform="translate(0 0.296875)"/>
     <use xlink:href="#DejaVuSans-48" transform="translate(79.667969 -16.109375)scale(0.7)"/>
     <use xlink:href="#DejaVuSans-61" transform="translate(132.304688 -16.109375)scale(0.7)"/>
     <use xlink:href="#DejaVuSans-75" transform="translate(175.200195 -16.109375)scale(0.7)"/>
     <use xlink:href="#DejaVuSans-73" transform="translate(219.56543 -16.109375)scale(0.7)"/>
    </g>
   </g>
   <g id="line2d_18">
    <path d="M 603.93204 25.508542 
L 603.93204 25.508542 
L 618.92604 25.508542 
L 618.92604 25.508542 
L 633.92004 25.508542 
" style="fill: none; stroke-dasharray: 7.4,3.2; stroke-dashoffset: 0; stroke: #4b81c4; stroke-width: 2"/>
   </g>
   <g id="text_20">
    <!-- $P_{\mathrm{PV}}$ -->
    <g transform="translate(645.91524 30.756442)scale(0.14994 -0.14994)">
     <use xlink:href="#DejaVuSans-Oblique-50" transform="translate(0 0.09375)"/>
     <use xlink:href="#DejaVuSans-50" transform="translate(60.302734 -16.3125)scale(0.7)"/>
     <use xlink:href="#DejaVuSans-56" transform="translate(102.514648 -16.3125)scale(0.7)"/>
    </g>
   </g>
  </g>
 </g>
 <defs>
  <clipPath id="pc701cbd00c">
   <rect x="90.469688" y="38.324062" width="570.119062" height="321.332813"/>
  </clipPath>
 </defs>
</svg>
