<?xml version="1.0" encoding="utf-8" standalone="no"?>
<!DOCTYPE svg PUBLIC "-//W3C//DTD SVG 1.1//EN"
  "http://www.w3.org/Graphics/SVG/1.1/DTD/svg11.dtd">
<svg xmlns:xlink="http://www.w3.org/1999/xlink" width="447.84pt" height="252pt" viewBox="0 0 447.84 252" xmlns="http://www.w3.org/2000/svg" version="1.1">
 <metadata>
  <rdf:RDF xmlns:dc="http://purl.org/dc/elements/1.1/" xmlns:cc="http://creativecommons.org/ns#" xmlns:rdf="http://www.w3.org/1999/02/22-rdf-syntax-ns#">
   <cc:Work>
    <dc:type rdf:resource="http://purl.org/dc/dcmitype/StillImage"/>
    <dc:date>2023-05-14T13:37:04.110900</dc:date>
    <dc:format>image/svg+xml</dc:format>
    <dc:creator>
     <cc:Agent>
      <dc:title>Matplotlib v3.5.3, https://matplotlib.org/</dc:title>
     </cc:Agent>
    </dc:creator>
   </cc:Work>
  </rdf:RDF>
 </metadata>
 <defs>
  <style type="text/css">*{stroke-linejoin: round; stroke-linecap: butt}</style>
 </defs>
 <g id="figure_1">
  <g id="patch_1">
   <path d="M 0 252 
L 447.84 252 
L 447.84 0 
L 0 0 
z
" style="fill: #ffffff"/>
  </g>
  <g id="axes_1">
   <g id="patch_2">
    <path d="M 50.5175 108.857269 
L 407.315312 108.857269 
L 407.315312 26.238281 
L 50.5175 26.238281 
z
" style="fill: #ffffff"/>
   </g>
   <g id="patch_3">
    <path d="M 66.735582 108.857269 
L 66.735582 26.238281 
L 174.856132 26.238281 
L 174.856132 108.857269 
z
" clip-path="url(#p7c97e10671)" style="fill: #808080; opacity: 0.2; stroke: #808080; stroke-width: 1.5; stroke-linejoin: miter"/>
   </g>
   <g id="patch_4">
    <path d="M 282.976681 108.857269 
L 282.976681 26.238281 
L 391.09723 26.238281 
L 391.09723 108.857269 
z
" clip-path="url(#p7c97e10671)" style="fill: #808080; opacity: 0.2; stroke: #808080; stroke-width: 1.5; stroke-linejoin: miter"/>
   </g>
   <g id="matplotlib.axis_1">
    <g id="xtick_1">
     <g id="line2d_1">
      <defs>
       <path id="ma1d807edbe" d="M 0 0 
L 0 3.5 
" style="stroke: #000000; stroke-width: 0.8"/>
      </defs>
      <g>
       <use xlink:href="#ma1d807edbe" x="120.795857" y="108.857269" style="stroke: #000000; stroke-width: 0.8"/>
      </g>
     </g>
    </g>
    <g id="xtick_2">
     <g id="line2d_2">
      <g>
       <use xlink:href="#ma1d807edbe" x="228.916406" y="108.857269" style="stroke: #000000; stroke-width: 0.8"/>
      </g>
     </g>
    </g>
    <g id="xtick_3">
     <g id="line2d_3">
      <g>
       <use xlink:href="#ma1d807edbe" x="337.036955" y="108.857269" style="stroke: #000000; stroke-width: 0.8"/>
      </g>
     </g>
    </g>
   </g>
   <g id="matplotlib.axis_2">
    <g id="ytick_1">
     <g id="line2d_4">
      <defs>
       <path id="mca43cafefe" d="M 0 0 
L -3.5 0 
" style="stroke: #000000; stroke-width: 0.8"/>
      </defs>
      <g>
       <use xlink:href="#mca43cafefe" x="50.5175" y="105.101861" style="stroke: #000000; stroke-width: 0.8"/>
      </g>
     </g>
     <g id="text_1">
      <!-- 0 -->
      <g transform="translate(36.51875 109.281001)scale(0.11 -0.11)">
       <defs>
        <path id="DejaVuSerif-30" d="M 2034 219 
Q 2513 219 2750 744 
Q 2988 1269 2988 2328 
Q 2988 3391 2750 3916 
Q 2513 4441 2034 4441 
Q 1556 4441 1318 3916 
Q 1081 3391 1081 2328 
Q 1081 1269 1318 744 
Q 1556 219 2034 219 
z
M 2034 -91 
Q 1275 -91 848 546 
Q 422 1184 422 2328 
Q 422 3475 848 4112 
Q 1275 4750 2034 4750 
Q 2797 4750 3222 4112 
Q 3647 3475 3647 2328 
Q 3647 1184 3222 546 
Q 2797 -91 2034 -91 
z
" transform="scale(0.015625)"/>
       </defs>
       <use xlink:href="#DejaVuSerif-30"/>
      </g>
     </g>
    </g>
    <g id="ytick_2">
     <g id="line2d_5">
      <g>
       <use xlink:href="#mca43cafefe" x="50.5175" y="67.547775" style="stroke: #000000; stroke-width: 0.8"/>
      </g>
     </g>
     <g id="text_2">
      <!-- 5 -->
      <g transform="translate(36.51875 71.726916)scale(0.11 -0.11)">
       <defs>
        <path id="DejaVuSerif-35" d="M 3219 4666 
L 3219 4153 
L 1081 4153 
L 1081 2816 
Q 1244 2928 1461 2984 
Q 1678 3041 1947 3041 
Q 2703 3041 3140 2622 
Q 3578 2203 3578 1478 
Q 3578 738 3136 323 
Q 2694 -91 1894 -91 
Q 1572 -91 1234 -12 
Q 897 66 544 225 
L 544 1131 
L 897 1131 
Q 925 688 1179 453 
Q 1434 219 1894 219 
Q 2388 219 2653 544 
Q 2919 869 2919 1478 
Q 2919 2084 2655 2407 
Q 2391 2731 1894 2731 
Q 1613 2731 1398 2631 
Q 1184 2531 1019 2322 
L 750 2322 
L 750 4666 
L 3219 4666 
z
" transform="scale(0.015625)"/>
       </defs>
       <use xlink:href="#DejaVuSerif-35"/>
      </g>
     </g>
    </g>
    <g id="ytick_3">
     <g id="line2d_6">
      <g>
       <use xlink:href="#mca43cafefe" x="50.5175" y="29.99369" style="stroke: #000000; stroke-width: 0.8"/>
      </g>
     </g>
     <g id="text_3">
      <!-- 10 -->
      <g transform="translate(29.52 34.17283)scale(0.11 -0.11)">
       <defs>
        <path id="DejaVuSerif-31" d="M 909 0 
L 909 331 
L 1722 331 
L 1722 4213 
L 781 3603 
L 781 4013 
L 1919 4750 
L 2350 4750 
L 2350 331 
L 3163 331 
L 3163 0 
L 909 0 
z
" transform="scale(0.015625)"/>
       </defs>
       <use xlink:href="#DejaVuSerif-31"/>
       <use xlink:href="#DejaVuSerif-30" x="63.623047"/>
      </g>
     </g>
    </g>
    <g id="text_4">
     <!-- $\dot{Q}_{\mathrm{WP}}$ in kW -->
     <g transform="translate(23.232344 96.037775)rotate(-90)scale(0.11 -0.11)">
      <defs>
       <path id="DejaVuSans-307" d="M -1894 4863 
L -1319 4863 
L -1319 4134 
L -1894 4134 
L -1894 4863 
z
M -1600 3584 
L -1600 3584 
z
" transform="scale(0.015625)"/>
       <path id="DejaVuSans-Oblique-51" d="M 2309 -84 
Q 2275 -88 2237 -89 
Q 2200 -91 2125 -91 
Q 1250 -91 756 411 
Q 263 913 263 1797 
Q 263 2319 452 2844 
Q 641 3369 978 3788 
Q 1369 4269 1858 4509 
Q 2347 4750 2938 4750 
Q 3794 4750 4287 4245 
Q 4781 3741 4781 2869 
Q 4781 1928 4265 1147 
Q 3750 366 2919 44 
L 3553 -825 
L 2847 -825 
L 2309 -84 
z
M 2919 4238 
Q 2400 4238 2003 3986 
Q 1606 3734 1313 3219 
Q 1125 2891 1026 2522 
Q 928 2153 928 1778 
Q 928 1128 1239 775 
Q 1550 422 2119 422 
Q 2631 422 3032 676 
Q 3434 931 3719 1434 
Q 3909 1772 4009 2142 
Q 4109 2513 4109 2881 
Q 4109 3528 3796 3883 
Q 3484 4238 2919 4238 
z
" transform="scale(0.015625)"/>
       <path id="DejaVuSans-57" d="M 213 4666 
L 850 4666 
L 1831 722 
L 2809 4666 
L 3519 4666 
L 4500 722 
L 5478 4666 
L 6119 4666 
L 4947 0 
L 4153 0 
L 3169 4050 
L 2175 0 
L 1381 0 
L 213 4666 
z
" transform="scale(0.015625)"/>
       <path id="DejaVuSans-50" d="M 1259 4147 
L 1259 2394 
L 2053 2394 
Q 2494 2394 2734 2622 
Q 2975 2850 2975 3272 
Q 2975 3691 2734 3919 
Q 2494 4147 2053 4147 
L 1259 4147 
z
M 628 4666 
L 2053 4666 
Q 2838 4666 3239 4311 
Q 3641 3956 3641 3272 
Q 3641 2581 3239 2228 
Q 2838 1875 2053 1875 
L 1259 1875 
L 1259 0 
L 628 0 
L 628 4666 
z
" transform="scale(0.015625)"/>
       <path id="DejaVuSerif-20" transform="scale(0.015625)"/>
       <path id="DejaVuSerif-69" d="M 622 4353 
Q 622 4497 726 4603 
Q 831 4709 978 4709 
Q 1122 4709 1226 4603 
Q 1331 4497 1331 4353 
Q 1331 4206 1228 4103 
Q 1125 4000 978 4000 
Q 831 4000 726 4103 
Q 622 4206 622 4353 
z
M 1356 331 
L 1900 331 
L 1900 0 
L 231 0 
L 231 331 
L 781 331 
L 781 2988 
L 231 2988 
L 231 3322 
L 1356 3322 
L 1356 331 
z
" transform="scale(0.015625)"/>
       <path id="DejaVuSerif-6e" d="M 263 0 
L 263 331 
L 781 331 
L 781 2988 
L 231 2988 
L 231 3322 
L 1356 3322 
L 1356 2731 
Q 1516 3069 1770 3241 
Q 2025 3413 2363 3413 
Q 2913 3413 3172 3097 
Q 3431 2781 3431 2113 
L 3431 331 
L 3944 331 
L 3944 0 
L 2356 0 
L 2356 331 
L 2853 331 
L 2853 1931 
Q 2853 2541 2703 2767 
Q 2553 2994 2175 2994 
Q 1775 2994 1565 2701 
Q 1356 2409 1356 1850 
L 1356 331 
L 1856 331 
L 1856 0 
L 263 0 
z
" transform="scale(0.015625)"/>
       <path id="DejaVuSerif-6b" d="M 1831 0 
L 219 0 
L 219 331 
L 738 331 
L 738 4531 
L 184 4531 
L 184 4863 
L 1313 4863 
L 1313 1697 
L 2713 2988 
L 2234 2988 
L 2234 3322 
L 3738 3322 
L 3738 2988 
L 3169 2988 
L 2181 2075 
L 3444 331 
L 3922 331 
L 3922 0 
L 2284 0 
L 2284 331 
L 2759 331 
L 1766 1697 
L 1313 1275 
L 1313 331 
L 1831 331 
L 1831 0 
z
" transform="scale(0.015625)"/>
       <path id="DejaVuSerif-57" d="M 4878 0 
L 4366 0 
L 3297 3794 
L 2228 0 
L 1716 0 
L 494 4331 
L 31 4331 
L 31 4666 
L 1734 4666 
L 1734 4331 
L 1153 4331 
L 2125 884 
L 3188 4666 
L 3694 4666 
L 4775 844 
L 5753 4331 
L 5216 4331 
L 5216 4666 
L 6559 4666 
L 6559 4331 
L 6100 4331 
L 4878 0 
z
" transform="scale(0.015625)"/>
      </defs>
      <use xlink:href="#DejaVuSans-307" transform="translate(74.271484 31.015625)"/>
      <use xlink:href="#DejaVuSans-Oblique-51" transform="translate(0 0.296875)"/>
      <use xlink:href="#DejaVuSans-57" transform="translate(79.667969 -16.109375)scale(0.7)"/>
      <use xlink:href="#DejaVuSans-50" transform="translate(148.881836 -16.109375)scale(0.7)"/>
      <use xlink:href="#DejaVuSerif-20" transform="translate(193.828125 0.296875)"/>
      <use xlink:href="#DejaVuSerif-69" transform="translate(225.615234 0.296875)"/>
      <use xlink:href="#DejaVuSerif-6e" transform="translate(257.597656 0.296875)"/>
      <use xlink:href="#DejaVuSerif-20" transform="translate(322.001953 0.296875)"/>
      <use xlink:href="#DejaVuSerif-6b" transform="translate(353.789062 0.296875)"/>
      <use xlink:href="#DejaVuSerif-57" transform="translate(414.384766 0.296875)"/>
     </g>
    </g>
   </g>
   <g id="line2d_7">
    <path d="M 66.735582 105.101861 
L 67.861838 86.324818 
L 68.988094 86.000351 
L 70.11435 76.524704 
L 71.240605 105.101861 
L 72.366861 86.324818 
L 73.493117 86.084472 
L 74.619372 80.814883 
L 75.745628 86.324818 
L 79.124395 86.324818 
L 80.250651 76.54273 
L 81.376907 105.101861 
L 82.503162 86.324818 
L 83.629418 85.889191 
L 84.755674 76.07105 
L 85.88193 105.101861 
L 87.008185 86.324818 
L 88.134441 85.720948 
L 89.260697 75.659458 
L 90.386953 86.324818 
L 91.513208 83.825218 
L 92.639464 59.382015 
L 93.76572 105.101861 
L 94.891975 105.101861 
L 96.018231 86.324818 
L 97.144487 86.324818 
L 98.270743 82.374128 
L 99.396998 78.997265 
L 100.523254 86.324818 
L 101.64951 105.101861 
L 102.775765 86.324818 
L 103.902021 86.324818 
L 105.028277 84.66643 
L 106.154533 86.324818 
L 107.280788 83.563842 
L 108.407044 85.582749 
L 109.5333 86.324818 
L 110.659556 85.802065 
L 111.785811 86.324818 
L 112.912067 86.324818 
L 114.038323 83.533798 
L 115.164578 105.101861 
L 116.290834 105.101861 
L 117.41709 86.324818 
L 120.795857 86.324818 
L 121.922113 105.101861 
L 127.553391 105.101861 
L 128.679647 86.156576 
L 129.805903 86.324818 
L 133.18467 86.324818 
L 134.310926 75.965899 
L 135.437181 86.324818 
L 136.563437 105.101861 
L 138.815949 105.101861 
L 139.942204 84.753555 
L 141.06846 105.101861 
L 142.194716 105.101861 
L 143.320971 78.54962 
L 144.447227 105.101861 
L 145.573483 85.835113 
L 146.699739 105.101861 
L 147.825994 83.41663 
L 148.95225 105.101861 
L 150.078506 86.324818 
L 151.204761 105.101861 
L 152.331017 85.15313 
L 153.457273 105.101861 
L 154.583529 82.088717 
L 155.709784 84.645399 
L 156.83604 86.324818 
L 157.962296 85.288325 
L 159.088552 85.654853 
L 160.214807 64.955041 
L 161.341063 86.324818 
L 165.846086 86.324818 
L 166.972342 60.229235 
L 168.098597 105.101861 
L 169.224853 105.101861 
L 170.351109 86.324818 
L 172.60362 86.324818 
L 173.729876 75.073614 
L 174.856132 105.101861 
L 175.982387 86.324818 
L 177.108643 85.64584 
L 178.234899 78.378373 
L 179.361155 105.101861 
L 180.48741 86.324818 
L 182.739922 86.324818 
L 183.866177 76.034999 
L 184.992433 86.324818 
L 186.118689 86.324818 
L 187.244945 85.961294 
L 188.3712 76.413544 
L 189.497456 105.101861 
L 190.623712 86.324818 
L 191.749967 77.990815 
L 192.876223 50.777623 
L 194.002479 105.101861 
L 196.25499 105.101861 
L 197.381246 86.324818 
L 198.507502 86.075459 
L 199.633757 77.011405 
L 200.760013 86.324818 
L 201.886269 83.873287 
L 203.012525 78.765932 
L 204.13878 105.101861 
L 205.265036 84.119642 
L 206.391292 83.867279 
L 207.517548 63.21854 
L 208.643803 85.282317 
L 209.770059 105.101861 
L 210.896315 75.094644 
L 212.02257 105.101861 
L 214.275082 105.101861 
L 215.401338 84.450118 
L 216.527593 105.101861 
L 217.653849 86.324818 
L 219.90636 86.324818 
L 221.032616 84.792611 
L 222.158872 85.805069 
L 223.285128 86.324818 
L 224.411383 77.09853 
L 225.537639 70.58515 
L 226.663895 81.809315 
L 227.790151 79.604139 
L 228.916406 86.324818 
L 230.042662 84.239815 
L 231.168918 84.092603 
L 232.295173 85.93726 
L 233.421429 86.324818 
L 236.800196 86.324818 
L 237.926452 80.51445 
L 239.052708 85.270299 
L 240.178963 86.324818 
L 241.305219 105.101861 
L 253.694032 105.101861 
L 254.820288 83.747106 
L 255.946544 105.101861 
L 257.072799 85.072014 
L 258.199055 105.101861 
L 259.325311 83.107184 
L 260.451566 86.324818 
L 261.577822 73.70965 
L 262.704078 105.101861 
L 263.830334 86.324818 
L 264.956589 86.324818 
L 266.082845 85.877173 
L 267.209101 53.166063 
L 268.335356 86.324818 
L 269.461612 44.558666 
L 270.587868 85.276308 
L 271.714124 86.324818 
L 273.966635 86.324818 
L 275.092891 85.93726 
L 281.850425 85.865156 
L 293.112982 85.955286 
L 297.618005 85.93726 
L 304.37554 85.859147 
L 305.501795 85.856143 
L 307.754307 86.150567 
L 310.006818 86.324818 
L 311.133074 84.137668 
L 312.25933 54.502988 
L 313.385585 105.101861 
L 314.511841 44.564675 
L 315.638097 86.324818 
L 316.764353 86.324818 
L 317.890608 105.101861 
L 319.016864 86.324818 
L 320.14312 105.101861 
L 321.269375 86.324818 
L 322.395631 105.101861 
L 323.521887 105.101861 
L 324.648143 86.324818 
L 325.774398 105.101861 
L 326.900654 86.324818 
L 328.02691 85.399485 
L 329.153165 86.324818 
L 330.279421 74.514809 
L 331.405677 105.101861 
L 332.531933 81.568969 
L 333.658188 47.593036 
L 334.784444 75.44615 
L 335.9107 56.248502 
L 337.036955 86.150567 
L 338.163211 68.193705 
L 339.289467 83.338517 
L 340.415723 105.101861 
L 346.047001 105.101861 
L 347.173257 86.324818 
L 351.67828 86.324818 
L 352.804536 105.101861 
L 368.572116 105.101861 
L 369.698371 86.324818 
L 370.824627 105.101861 
L 371.950883 86.324818 
L 373.077139 105.101861 
L 374.203394 84.023504 
L 375.32965 105.101861 
L 376.455906 83.269418 
L 377.582161 40.755189 
L 378.708417 82.863833 
L 379.834673 86.324818 
L 380.960929 86.144558 
L 382.087184 86.324818 
L 383.21344 105.101861 
L 384.339696 83.629937 
L 385.465952 105.101861 
L 386.592207 81.69515 
L 387.718463 86.324818 
L 388.844719 105.101861 
L 389.970974 84.026508 
L 389.970974 84.026508 
" clip-path="url(#p7c97e10671)" style="fill: none; stroke: #ec635c; stroke-width: 1.5; stroke-linecap: square"/>
   </g>
   <g id="patch_5">
    <path d="M 50.5175 108.857269 
L 50.5175 26.238281 
" style="fill: none; stroke: #000000; stroke-width: 0.5; stroke-linejoin: miter; stroke-linecap: square"/>
   </g>
   <g id="patch_6">
    <path d="M 407.315312 108.857269 
L 407.315312 26.238281 
" style="fill: none; stroke: #000000; stroke-width: 0.5; stroke-linejoin: miter; stroke-linecap: square"/>
   </g>
   <g id="patch_7">
    <path d="M 50.5175 108.857269 
L 407.315312 108.857269 
" style="fill: none; stroke: #000000; stroke-width: 0.5; stroke-linejoin: miter; stroke-linecap: square"/>
   </g>
   <g id="patch_8">
    <path d="M 50.5175 26.238281 
L 407.315312 26.238281 
" style="fill: none; stroke: #000000; stroke-width: 0.5; stroke-linejoin: miter; stroke-linecap: square"/>
   </g>
   <g id="text_5">
    <!-- Oktober -->
    <g transform="translate(50.5175 20.238281)scale(0.11 -0.11)">
     <defs>
      <path id="DejaVuSerif-4f" d="M 2625 244 
Q 3391 244 3781 770 
Q 4172 1297 4172 2328 
Q 4172 3363 3781 3889 
Q 3391 4416 2625 4416 
Q 1856 4416 1465 3889 
Q 1075 3363 1075 2328 
Q 1075 1297 1465 770 
Q 1856 244 2625 244 
z
M 2625 -91 
Q 2150 -91 1751 65 
Q 1353 222 1050 525 
Q 700 875 529 1319 
Q 359 1763 359 2328 
Q 359 2894 529 3339 
Q 700 3784 1050 4134 
Q 1356 4441 1750 4595 
Q 2144 4750 2625 4750 
Q 3641 4750 4266 4084 
Q 4891 3419 4891 2328 
Q 4891 1769 4719 1320 
Q 4547 872 4197 525 
Q 3891 219 3497 64 
Q 3103 -91 2625 -91 
z
" transform="scale(0.015625)"/>
      <path id="DejaVuSerif-74" d="M 691 2988 
L 184 2988 
L 184 3322 
L 691 3322 
L 691 4353 
L 1269 4353 
L 1269 3322 
L 2350 3322 
L 2350 2988 
L 1269 2988 
L 1269 878 
Q 1269 456 1350 337 
Q 1431 219 1650 219 
Q 1875 219 1978 351 
Q 2081 484 2088 781 
L 2522 781 
Q 2497 328 2275 118 
Q 2053 -91 1600 -91 
Q 1103 -91 897 129 
Q 691 350 691 878 
L 691 2988 
z
" transform="scale(0.015625)"/>
      <path id="DejaVuSerif-6f" d="M 1925 219 
Q 2388 219 2623 584 
Q 2859 950 2859 1663 
Q 2859 2375 2623 2739 
Q 2388 3103 1925 3103 
Q 1463 3103 1227 2739 
Q 991 2375 991 1663 
Q 991 950 1228 584 
Q 1466 219 1925 219 
z
M 1925 -91 
Q 1200 -91 759 389 
Q 319 869 319 1663 
Q 319 2456 758 2934 
Q 1197 3413 1925 3413 
Q 2653 3413 3092 2934 
Q 3531 2456 3531 1663 
Q 3531 869 3092 389 
Q 2653 -91 1925 -91 
z
" transform="scale(0.015625)"/>
      <path id="DejaVuSerif-62" d="M 738 331 
L 738 4531 
L 184 4531 
L 184 4863 
L 1313 4863 
L 1313 2803 
Q 1481 3116 1742 3264 
Q 2003 3413 2388 3413 
Q 3000 3413 3387 2928 
Q 3775 2444 3775 1663 
Q 3775 881 3387 395 
Q 3000 -91 2388 -91 
Q 2003 -91 1742 57 
Q 1481 206 1313 519 
L 1313 0 
L 184 0 
L 184 331 
L 738 331 
z
M 1313 1497 
Q 1313 897 1542 583 
Q 1772 269 2209 269 
Q 2650 269 2876 622 
Q 3103 975 3103 1663 
Q 3103 2353 2876 2703 
Q 2650 3053 2209 3053 
Q 1772 3053 1542 2737 
Q 1313 2422 1313 1825 
L 1313 1497 
z
" transform="scale(0.015625)"/>
      <path id="DejaVuSerif-65" d="M 3469 1600 
L 991 1600 
L 991 1575 
Q 991 903 1244 561 
Q 1497 219 1991 219 
Q 2369 219 2611 417 
Q 2853 616 2950 1006 
L 3413 1006 
Q 3275 459 2904 184 
Q 2534 -91 1931 -91 
Q 1203 -91 761 389 
Q 319 869 319 1663 
Q 319 2450 753 2931 
Q 1188 3413 1894 3413 
Q 2647 3413 3050 2948 
Q 3453 2484 3469 1600 
z
M 2791 1931 
Q 2772 2513 2545 2808 
Q 2319 3103 1894 3103 
Q 1497 3103 1269 2806 
Q 1041 2509 991 1931 
L 2791 1931 
z
" transform="scale(0.015625)"/>
      <path id="DejaVuSerif-72" d="M 3059 3328 
L 3059 2497 
L 2728 2497 
Q 2713 2744 2591 2866 
Q 2469 2988 2234 2988 
Q 1809 2988 1582 2694 
Q 1356 2400 1356 1850 
L 1356 331 
L 2022 331 
L 2022 0 
L 263 0 
L 263 331 
L 781 331 
L 781 2994 
L 231 2994 
L 231 3322 
L 1356 3322 
L 1356 2731 
Q 1525 3078 1790 3245 
Q 2056 3413 2438 3413 
Q 2578 3413 2733 3391 
Q 2888 3369 3059 3328 
z
" transform="scale(0.015625)"/>
     </defs>
     <use xlink:href="#DejaVuSerif-4f"/>
     <use xlink:href="#DejaVuSerif-6b" x="81.982422"/>
     <use xlink:href="#DejaVuSerif-74" x="142.578125"/>
     <use xlink:href="#DejaVuSerif-6f" x="182.763672"/>
     <use xlink:href="#DejaVuSerif-62" x="242.96875"/>
     <use xlink:href="#DejaVuSerif-65" x="306.982422"/>
     <use xlink:href="#DejaVuSerif-72" x="366.162109"/>
    </g>
   </g>
  </g>
  <g id="axes_2">
   <g id="patch_9">
    <path d="M 50.5175 207.828125 
L 407.315312 207.828125 
L 407.315312 125.209137 
L 50.5175 125.209137 
z
" style="fill: #ffffff"/>
   </g>
   <g id="patch_10">
    <path d="M 66.735582 207.828125 
L 66.735582 125.209137 
L 174.856132 125.209137 
L 174.856132 207.828125 
z
" clip-path="url(#p0f2c087982)" style="fill: #808080; opacity: 0.2; stroke: #808080; stroke-width: 1.5; stroke-linejoin: miter"/>
   </g>
   <g id="patch_11">
    <path d="M 282.976681 207.828125 
L 282.976681 125.209137 
L 391.09723 125.209137 
L 391.09723 207.828125 
z
" clip-path="url(#p0f2c087982)" style="fill: #808080; opacity: 0.2; stroke: #808080; stroke-width: 1.5; stroke-linejoin: miter"/>
   </g>
   <g id="matplotlib.axis_3">
    <g id="xtick_4">
     <g id="line2d_8">
      <g>
       <use xlink:href="#ma1d807edbe" x="120.795857" y="207.828125" style="stroke: #000000; stroke-width: 0.8"/>
      </g>
     </g>
     <g id="text_6">
      <!-- 1.10 -->
      <g transform="translate(108.549763 223.186406)scale(0.11 -0.11)">
       <defs>
        <path id="DejaVuSerif-2e" d="M 603 325 
Q 603 500 722 622 
Q 841 744 1019 744 
Q 1191 744 1312 622 
Q 1434 500 1434 325 
Q 1434 153 1312 31 
Q 1191 -91 1019 -91 
Q 841 -91 722 29 
Q 603 150 603 325 
z
" transform="scale(0.015625)"/>
       </defs>
       <use xlink:href="#DejaVuSerif-31"/>
       <use xlink:href="#DejaVuSerif-2e" x="63.623047"/>
       <use xlink:href="#DejaVuSerif-31" x="95.410156"/>
       <use xlink:href="#DejaVuSerif-30" x="159.033203"/>
      </g>
     </g>
    </g>
    <g id="xtick_5">
     <g id="line2d_9">
      <g>
       <use xlink:href="#ma1d807edbe" x="228.916406" y="207.828125" style="stroke: #000000; stroke-width: 0.8"/>
      </g>
     </g>
     <g id="text_7">
      <!-- 2.10 -->
      <g transform="translate(216.670313 223.186406)scale(0.11 -0.11)">
       <defs>
        <path id="DejaVuSerif-32" d="M 819 3553 
L 469 3553 
L 469 4384 
Q 803 4563 1142 4656 
Q 1481 4750 1806 4750 
Q 2534 4750 2956 4397 
Q 3378 4044 3378 3438 
Q 3378 2753 2422 1800 
Q 2347 1728 2309 1691 
L 1131 513 
L 3078 513 
L 3078 1088 
L 3444 1088 
L 3444 0 
L 434 0 
L 434 341 
L 1850 1753 
Q 2319 2222 2519 2614 
Q 2719 3006 2719 3438 
Q 2719 3909 2473 4175 
Q 2228 4441 1797 4441 
Q 1350 4441 1106 4219 
Q 863 3997 819 3553 
z
" transform="scale(0.015625)"/>
       </defs>
       <use xlink:href="#DejaVuSerif-32"/>
       <use xlink:href="#DejaVuSerif-2e" x="63.623047"/>
       <use xlink:href="#DejaVuSerif-31" x="95.410156"/>
       <use xlink:href="#DejaVuSerif-30" x="159.033203"/>
      </g>
     </g>
    </g>
    <g id="xtick_6">
     <g id="line2d_10">
      <g>
       <use xlink:href="#ma1d807edbe" x="337.036955" y="207.828125" style="stroke: #000000; stroke-width: 0.8"/>
      </g>
     </g>
     <g id="text_8">
      <!-- 3.10 -->
      <g transform="translate(324.790862 223.186406)scale(0.11 -0.11)">
       <defs>
        <path id="DejaVuSerif-33" d="M 622 4469 
Q 988 4606 1323 4678 
Q 1659 4750 1953 4750 
Q 2638 4750 3022 4454 
Q 3406 4159 3406 3634 
Q 3406 3213 3140 2930 
Q 2875 2647 2388 2547 
Q 2963 2466 3280 2130 
Q 3597 1794 3597 1259 
Q 3597 606 3158 257 
Q 2719 -91 1894 -91 
Q 1528 -91 1179 -12 
Q 831 66 488 225 
L 488 1131 
L 838 1131 
Q 869 681 1141 450 
Q 1413 219 1906 219 
Q 2384 219 2661 495 
Q 2938 772 2938 1253 
Q 2938 1803 2653 2086 
Q 2369 2369 1819 2369 
L 1522 2369 
L 1522 2688 
L 1678 2688 
Q 2225 2688 2498 2914 
Q 2772 3141 2772 3597 
Q 2772 4006 2547 4223 
Q 2322 4441 1900 4441 
Q 1478 4441 1245 4241 
Q 1013 4041 972 3647 
L 622 3647 
L 622 4469 
z
" transform="scale(0.015625)"/>
       </defs>
       <use xlink:href="#DejaVuSerif-33"/>
       <use xlink:href="#DejaVuSerif-2e" x="63.623047"/>
       <use xlink:href="#DejaVuSerif-31" x="95.410156"/>
       <use xlink:href="#DejaVuSerif-30" x="159.033203"/>
      </g>
     </g>
    </g>
    <g id="text_9">
     <!-- Zeit in d -->
     <g transform="translate(205.551719 237.832344)scale(0.11 -0.11)">
      <defs>
       <path id="DejaVuSerif-5a" d="M 288 0 
L 288 225 
L 3194 4281 
L 781 4281 
L 781 3584 
L 397 3584 
L 397 4666 
L 4084 4666 
L 4084 4441 
L 1178 384 
L 3816 384 
L 3816 1038 
L 4197 1038 
L 4197 0 
L 288 0 
z
" transform="scale(0.015625)"/>
       <path id="DejaVuSerif-64" d="M 3359 331 
L 3909 331 
L 3909 0 
L 2784 0 
L 2784 519 
Q 2616 206 2355 57 
Q 2094 -91 1709 -91 
Q 1097 -91 708 395 
Q 319 881 319 1663 
Q 319 2444 706 2928 
Q 1094 3413 1709 3413 
Q 2094 3413 2355 3264 
Q 2616 3116 2784 2803 
L 2784 4531 
L 2241 4531 
L 2241 4863 
L 3359 4863 
L 3359 331 
z
M 2784 1497 
L 2784 1825 
Q 2784 2422 2554 2737 
Q 2325 3053 1888 3053 
Q 1444 3053 1217 2703 
Q 991 2353 991 1663 
Q 991 975 1217 622 
Q 1444 269 1888 269 
Q 2325 269 2554 583 
Q 2784 897 2784 1497 
z
" transform="scale(0.015625)"/>
      </defs>
      <use xlink:href="#DejaVuSerif-5a"/>
      <use xlink:href="#DejaVuSerif-65" x="69.482422"/>
      <use xlink:href="#DejaVuSerif-69" x="128.662109"/>
      <use xlink:href="#DejaVuSerif-74" x="160.644531"/>
      <use xlink:href="#DejaVuSerif-20" x="200.830078"/>
      <use xlink:href="#DejaVuSerif-69" x="232.617188"/>
      <use xlink:href="#DejaVuSerif-6e" x="264.599609"/>
      <use xlink:href="#DejaVuSerif-20" x="329.003906"/>
      <use xlink:href="#DejaVuSerif-64" x="360.791016"/>
     </g>
    </g>
   </g>
   <g id="matplotlib.axis_4">
    <g id="ytick_4">
     <g id="line2d_11">
      <g>
       <use xlink:href="#mca43cafefe" x="50.5175" y="203.321635" style="stroke: #000000; stroke-width: 0.8"/>
      </g>
     </g>
     <g id="text_10">
      <!-- 20 -->
      <g transform="translate(29.52 207.500775)scale(0.11 -0.11)">
       <use xlink:href="#DejaVuSerif-32"/>
       <use xlink:href="#DejaVuSerif-30" x="63.623047"/>
      </g>
     </g>
    </g>
    <g id="ytick_5">
     <g id="line2d_12">
      <g>
       <use xlink:href="#mca43cafefe" x="50.5175" y="165.767549" style="stroke: #000000; stroke-width: 0.8"/>
      </g>
     </g>
     <g id="text_11">
      <!-- 45 -->
      <g transform="translate(29.52 169.94669)scale(0.11 -0.11)">
       <defs>
        <path id="DejaVuSerif-34" d="M 2234 1581 
L 2234 4063 
L 641 1581 
L 2234 1581 
z
M 3609 0 
L 1484 0 
L 1484 331 
L 2234 331 
L 2234 1247 
L 197 1247 
L 197 1588 
L 2241 4750 
L 2859 4750 
L 2859 1581 
L 3750 1581 
L 3750 1247 
L 2859 1247 
L 2859 331 
L 3609 331 
L 3609 0 
z
" transform="scale(0.015625)"/>
       </defs>
       <use xlink:href="#DejaVuSerif-34"/>
       <use xlink:href="#DejaVuSerif-35" x="63.623047"/>
      </g>
     </g>
    </g>
    <g id="ytick_6">
     <g id="line2d_13">
      <g>
       <use xlink:href="#mca43cafefe" x="50.5175" y="128.213464" style="stroke: #000000; stroke-width: 0.8"/>
      </g>
     </g>
     <g id="text_12">
      <!-- 70 -->
      <g transform="translate(29.52 132.392605)scale(0.11 -0.11)">
       <defs>
        <path id="DejaVuSerif-37" d="M 3609 4347 
L 1784 0 
L 1319 0 
L 3059 4153 
L 903 4153 
L 903 3578 
L 538 3578 
L 538 4666 
L 3609 4666 
L 3609 4347 
z
" transform="scale(0.015625)"/>
       </defs>
       <use xlink:href="#DejaVuSerif-37"/>
       <use xlink:href="#DejaVuSerif-30" x="63.623047"/>
      </g>
     </g>
    </g>
    <g id="text_13">
     <!-- $T$ in °C -->
     <g transform="translate(23.232344 185.658631)rotate(-90)scale(0.11 -0.11)">
      <defs>
       <path id="DejaVuSans-Oblique-54" d="M 378 4666 
L 4325 4666 
L 4225 4134 
L 2559 4134 
L 1759 0 
L 1125 0 
L 1925 4134 
L 275 4134 
L 378 4666 
z
" transform="scale(0.015625)"/>
       <path id="DejaVuSerif-b0" d="M 1600 4319 
Q 1363 4319 1200 4155 
Q 1038 3991 1038 3750 
Q 1038 3513 1198 3353 
Q 1359 3194 1600 3194 
Q 1838 3194 2000 3355 
Q 2163 3516 2163 3750 
Q 2163 3984 1997 4151 
Q 1831 4319 1600 4319 
z
M 1600 4750 
Q 1800 4750 1984 4673 
Q 2169 4597 2303 4453 
Q 2447 4313 2519 4134 
Q 2591 3956 2591 3750 
Q 2591 3338 2302 3052 
Q 2013 2766 1594 2766 
Q 1172 2766 890 3047 
Q 609 3328 609 3750 
Q 609 4169 896 4459 
Q 1184 4750 1600 4750 
z
" transform="scale(0.015625)"/>
       <path id="DejaVuSerif-43" d="M 4513 1234 
Q 4306 581 3820 245 
Q 3334 -91 2591 -91 
Q 2134 -91 1743 65 
Q 1353 222 1050 525 
Q 700 875 529 1320 
Q 359 1766 359 2328 
Q 359 3416 987 4083 
Q 1616 4750 2644 4750 
Q 3025 4750 3456 4650 
Q 3888 4550 4384 4347 
L 4384 3272 
L 4031 3272 
Q 3916 3859 3567 4137 
Q 3219 4416 2591 4416 
Q 1844 4416 1459 3886 
Q 1075 3356 1075 2328 
Q 1075 1303 1459 773 
Q 1844 244 2591 244 
Q 3113 244 3450 492 
Q 3788 741 3938 1234 
L 4513 1234 
z
" transform="scale(0.015625)"/>
      </defs>
      <use xlink:href="#DejaVuSans-Oblique-54" transform="translate(0 0.78125)"/>
      <use xlink:href="#DejaVuSerif-20" transform="translate(61.083984 0.78125)"/>
      <use xlink:href="#DejaVuSerif-69" transform="translate(92.871094 0.78125)"/>
      <use xlink:href="#DejaVuSerif-6e" transform="translate(124.853516 0.78125)"/>
      <use xlink:href="#DejaVuSerif-20" transform="translate(189.257812 0.78125)"/>
      <use xlink:href="#DejaVuSerif-b0" transform="translate(221.044922 0.78125)"/>
      <use xlink:href="#DejaVuSerif-43" transform="translate(271.044922 0.78125)"/>
     </g>
    </g>
   </g>
   <g id="line2d_14">
    <path d="M 66.735582 175.907152 
L 67.861838 174.6904 
L 68.988094 173.278366 
L 70.11435 166.428501 
L 71.240605 175.982261 
L 73.493117 173.278366 
L 74.619372 168.831963 
L 75.745628 177.183991 
L 79.124395 173.278366 
L 80.250651 166.41348 
L 81.376907 175.982261 
L 82.503162 174.735465 
L 83.629418 173.278366 
L 84.755674 166.23322 
L 85.88193 175.892131 
L 87.008185 174.735465 
L 88.134441 173.278366 
L 89.260697 166.098025 
L 90.386953 175.817023 
L 91.513208 173.278366 
L 92.639464 156.754569 
L 94.891975 176.042347 
L 97.144487 173.278366 
L 98.270743 169.492915 
L 99.396998 177.514467 
L 100.523254 174.194686 
L 101.64951 179.857842 
L 102.775765 174.78053 
L 103.902021 180.098188 
L 106.154533 167.074432 
L 109.5333 179.902907 
L 110.659556 173.278366 
L 111.785811 177.844943 
L 112.912067 181.67546 
L 114.038323 173.278366 
L 116.290834 180.458708 
L 117.41709 182.96732 
L 119.669601 167.044388 
L 121.922113 171.956463 
L 124.174624 176.447931 
L 127.553391 182.621823 
L 128.679647 173.744037 
L 134.310926 183.643294 
L 135.437181 175.005854 
L 137.689693 179.692604 
L 138.815949 182.186195 
L 139.942204 173.278366 
L 142.194716 179.632518 
L 143.320971 167.945686 
L 145.573483 176.222607 
L 146.699739 180.864292 
L 147.825994 173.413561 
L 148.95225 178.64109 
L 150.078506 173.278366 
L 151.204761 178.911479 
L 152.331017 173.278366 
L 153.457273 179.392172 
L 154.583529 173.278366 
L 155.709784 169.312655 
L 156.83604 166.96928 
L 157.962296 175.621741 
L 159.088552 173.278366 
L 160.214807 159.323268 
L 161.341063 168.681746 
L 162.467319 177.108883 
L 164.71983 174.465076 
L 165.846086 173.278366 
L 166.972342 157.220239 
L 169.224853 176.267672 
L 172.60362 173.278366 
L 173.729876 165.857679 
L 174.856132 175.69685 
L 175.982387 174.6904 
L 177.108643 173.278366 
L 178.234899 167.70534 
L 179.361155 176.613169 
L 182.739922 173.278366 
L 183.866177 166.248242 
L 184.992433 175.892131 
L 186.118689 174.6904 
L 187.244945 173.278366 
L 188.3712 166.383436 
L 189.497456 175.967239 
L 190.623712 174.705422 
L 191.749967 168.681746 
L 192.876223 147.11068 
L 196.25499 175.982261 
L 197.381246 174.720443 
L 198.507502 173.278366 
L 199.633757 166.623782 
L 200.760013 176.087412 
L 201.886269 173.278366 
L 203.012525 167.404907 
L 204.13878 176.462953 
L 206.391292 169.793347 
L 207.517548 177.664684 
L 208.643803 173.278366 
L 209.770059 179.392172 
L 210.896315 167.480016 
L 213.148826 177.093861 
L 214.275082 181.299919 
L 215.401338 173.278366 
L 217.653849 181.450135 
L 218.780105 175.291265 
L 219.90636 180.173296 
L 221.032616 173.278366 
L 222.158872 177.935073 
L 223.285128 171.686073 
L 225.537639 180.308491 
L 226.663895 170.965035 
L 227.790151 174.855638 
L 228.916406 167.780448 
L 231.168918 174.705422 
L 233.421429 180.834248 
L 236.800196 156.844699 
L 237.926452 145.413235 
L 239.052708 136.73073 
L 246.936498 155.718076 
L 249.189009 162.643049 
L 251.441521 170.844862 
L 253.694032 180.308491 
L 254.820288 173.278366 
L 255.946544 178.881436 
L 257.072799 173.278366 
L 258.199055 179.392172 
L 259.325311 173.278366 
L 260.451566 179.392172 
L 261.577822 168.922093 
L 262.704078 177.229056 
L 263.830334 175.42646 
L 266.082845 173.278366 
L 267.209101 153.690155 
L 269.461612 174.885681 
L 270.587868 174.209708 
L 272.840379 174.329881 
L 273.966635 174.525162 
L 288.607959 174.435032 
L 299.870517 174.480097 
L 305.501795 174.450054 
L 310.006818 174.660357 
L 311.133074 173.278366 
L 312.25933 154.771713 
L 314.511841 175.366374 
L 315.638097 173.729015 
L 316.764353 171.130273 
L 317.890608 178.310614 
L 319.016864 173.713994 
L 320.14312 179.271998 
L 321.269375 173.413561 
L 322.395631 177.739792 
L 323.521887 181.40507 
L 324.648143 174.209708 
L 326.900654 181.209789 
L 328.02691 173.278366 
L 329.153165 176.327758 
L 330.279421 161.471362 
L 331.405677 163.889845 
L 333.658188 167.870578 
L 334.784444 169.733261 
L 335.9107 143.550552 
L 337.036955 134.627702 
L 343.79449 146.389641 
L 347.173257 152.278122 
L 349.425768 134.853026 
L 350.552024 137.031163 
L 351.67828 128.54394 
L 355.057047 136.039735 
L 357.309558 141.68787 
L 359.56207 147.966913 
L 361.814581 155.057124 
L 364.067093 163.01859 
L 368.572116 179.602474 
L 369.698371 173.443604 
L 370.824627 178.535938 
L 371.950883 173.278366 
L 373.077139 179.256977 
L 374.203394 173.278366 
L 375.32965 179.392172 
L 376.455906 173.278366 
L 377.582161 179.392172 
L 378.708417 173.278366 
L 379.834673 179.392172 
L 382.087184 171.460749 
L 383.21344 178.490873 
L 384.339696 173.278366 
L 385.465952 179.392172 
L 386.592207 173.278366 
L 387.718463 170.00365 
L 388.844719 177.63464 
L 389.970974 173.278366 
L 389.970974 173.278366 
" clip-path="url(#p0f2c087982)" style="fill: none; stroke-dasharray: 1.5,2.475; stroke-dashoffset: 0; stroke: #f49961; stroke-width: 1.5"/>
   </g>
   <g id="line2d_15">
    <path d="M 66.735582 154.786735 
L 74.619372 155.642968 
L 75.745628 151.7073 
L 89.260697 153.224485 
L 90.386953 149.288817 
L 92.639464 149.574228 
L 96.018231 152.007732 
L 97.144487 152.142927 
L 98.270743 154.321064 
L 99.396998 148.808124 
L 100.523254 158.031408 
L 102.775765 158.211667 
L 103.902021 154.951973 
L 106.154533 155.207341 
L 107.280788 150.670807 
L 109.5333 142.679298 
L 110.659556 142.844536 
L 111.785811 139.614884 
L 112.912067 135.724281 
L 115.164578 136.069779 
L 116.290834 136.91099 
L 117.41709 156.409071 
L 119.669601 156.649417 
L 120.795857 154.486302 
L 128.679647 155.342535 
L 133.18467 142.393887 
L 134.310926 136.250038 
L 136.563437 136.595536 
L 137.689693 137.436747 
L 138.815949 137.541899 
L 139.942204 138.398132 
L 143.320971 138.878824 
L 144.447227 139.720036 
L 145.573483 135.724281 
L 147.825994 136.069779 
L 148.95225 136.91099 
L 154.583529 137.73718 
L 155.709784 138.593413 
L 156.83604 141.883151 
L 157.962296 137.767223 
L 159.088552 138.608435 
L 160.214807 138.773673 
L 161.341063 158.256732 
L 162.467319 154.997038 
L 164.71983 155.252405 
L 165.846086 156.048552 
L 183.866177 157.911235 
L 184.992433 153.975567 
L 199.633757 155.552838 
L 200.760013 151.61717 
L 204.13878 154.050675 
L 205.265036 154.170848 
L 206.391292 156.333963 
L 207.517548 147.411112 
L 208.643803 156.634396 
L 210.896315 156.829677 
L 212.02257 157.640845 
L 216.527593 158.106516 
L 217.653849 154.155826 
L 218.780105 154.291021 
L 219.90636 151.046348 
L 221.032616 151.166521 
L 222.158872 147.140723 
L 223.285128 147.275918 
L 224.411383 142.063411 
L 225.537639 158.136559 
L 226.663895 158.256732 
L 227.790151 152.863966 
L 228.916406 153.404744 
L 232.295173 140.636355 
L 233.421429 136.745752 
L 236.800196 137.241466 
L 239.052708 138.938911 
L 240.178963 135.724281 
L 241.305219 136.580514 
L 244.683986 137.076228 
L 245.810242 137.91744 
L 246.936498 138.022591 
L 248.062754 138.878824 
L 251.441521 139.359516 
L 252.567776 140.200728 
L 255.946544 140.666399 
L 257.072799 141.50761 
L 259.325311 141.823064 
L 260.451566 137.91744 
L 262.704078 138.247916 
L 263.830334 139.089127 
L 264.956589 142.378865 
L 266.082845 142.529081 
L 267.209101 143.370293 
L 268.335356 139.464668 
L 269.461612 149.934747 
L 270.587868 150.745915 
L 272.840379 151.016305 
L 273.966635 151.827473 
L 287.481704 153.344658 
L 308.880562 155.673011 
L 312.25933 158.076473 
L 313.385585 158.181624 
L 314.511841 147.275918 
L 315.638097 147.411112 
L 316.764353 156.634396 
L 319.016864 156.829677 
L 320.14312 157.640845 
L 325.774398 158.211667 
L 326.900654 154.275999 
L 328.02691 155.087167 
L 329.153165 151.151499 
L 331.405677 151.421889 
L 332.531933 147.155745 
L 333.658188 158.256732 
L 334.784444 151.962668 
L 335.9107 152.097862 
L 337.036955 152.638641 
L 338.163211 144.797348 
L 339.289467 140.245793 
L 344.920746 141.041939 
L 346.047001 141.883151 
L 347.173257 138.6535 
L 349.425768 140.335923 
L 350.552024 136.445319 
L 352.804536 136.775795 
L 353.930791 137.632029 
L 355.057047 137.73718 
L 356.183303 138.593413 
L 359.56207 139.074105 
L 360.688326 139.915317 
L 364.067093 140.396009 
L 365.193349 141.237221 
L 370.824627 142.003324 
L 371.950883 142.844536 
L 373.077139 146.119252 
L 374.203394 146.269468 
L 375.32965 147.095658 
L 376.455906 147.230853 
L 377.582161 156.874742 
L 378.708417 157.670889 
L 379.834673 153.73522 
L 380.960929 153.855393 
L 382.087184 154.666562 
L 389.970974 155.522795 
L 389.970974 155.522795 
" clip-path="url(#p0f2c087982)" style="fill: none; stroke-dasharray: 9.6,2.4,1.5,2.4; stroke-dashoffset: 0; stroke: #8768b4; stroke-width: 1.5"/>
   </g>
   <g id="patch_12">
    <path d="M 50.5175 207.828125 
L 50.5175 125.209137 
" style="fill: none; stroke: #000000; stroke-width: 0.5; stroke-linejoin: miter; stroke-linecap: square"/>
   </g>
   <g id="patch_13">
    <path d="M 407.315312 207.828125 
L 407.315312 125.209137 
" style="fill: none; stroke: #000000; stroke-width: 0.5; stroke-linejoin: miter; stroke-linecap: square"/>
   </g>
   <g id="patch_14">
    <path d="M 50.5175 207.828125 
L 407.315312 207.828125 
" style="fill: none; stroke: #000000; stroke-width: 0.5; stroke-linejoin: miter; stroke-linecap: square"/>
   </g>
   <g id="patch_15">
    <path d="M 50.5175 125.209137 
L 407.315312 125.209137 
" style="fill: none; stroke: #000000; stroke-width: 0.5; stroke-linejoin: miter; stroke-linecap: square"/>
   </g>
  </g>
  <g id="axes_3">
   <g id="matplotlib.axis_5">
    <g id="ytick_7">
     <g id="line2d_16">
      <defs>
       <path id="me4e165ed98" d="M 0 0 
L 3.5 0 
" style="stroke: #000000; stroke-width: 0.8"/>
      </defs>
      <g>
       <use xlink:href="#me4e165ed98" x="407.315312" y="105.101861" style="stroke: #000000; stroke-width: 0.8"/>
      </g>
     </g>
     <g id="text_14">
      <!-- 0 -->
      <g transform="translate(414.315312 109.281001)scale(0.11 -0.11)">
       <use xlink:href="#DejaVuSerif-30"/>
      </g>
     </g>
    </g>
    <g id="ytick_8">
     <g id="line2d_17">
      <g>
       <use xlink:href="#me4e165ed98" x="407.315312" y="80.065804" style="stroke: #000000; stroke-width: 0.8"/>
      </g>
     </g>
     <g id="text_15">
      <!-- 1 -->
      <g transform="translate(414.315312 84.244944)scale(0.11 -0.11)">
       <use xlink:href="#DejaVuSerif-31"/>
      </g>
     </g>
    </g>
    <g id="ytick_9">
     <g id="line2d_18">
      <g>
       <use xlink:href="#me4e165ed98" x="407.315312" y="55.029747" style="stroke: #000000; stroke-width: 0.8"/>
      </g>
     </g>
     <g id="text_16">
      <!-- 2 -->
      <g transform="translate(414.315312 59.208887)scale(0.11 -0.11)">
       <use xlink:href="#DejaVuSerif-32"/>
      </g>
     </g>
    </g>
    <g id="ytick_10">
     <g id="line2d_19">
      <g>
       <use xlink:href="#me4e165ed98" x="407.315312" y="29.99369" style="stroke: #000000; stroke-width: 0.8"/>
      </g>
     </g>
     <g id="text_17">
      <!-- 3 -->
      <g transform="translate(414.315312 34.17283)scale(0.11 -0.11)">
       <use xlink:href="#DejaVuSerif-33"/>
      </g>
     </g>
    </g>
    <g id="text_18">
     <!-- Modus -->
     <g transform="translate(433.672344 86.375822)rotate(-90)scale(0.11 -0.11)">
      <defs>
       <path id="DejaVuSerif-4d" d="M 353 0 
L 353 331 
L 947 331 
L 947 4331 
L 319 4331 
L 319 4666 
L 1678 4666 
L 3316 1344 
L 4953 4666 
L 6228 4666 
L 6228 4331 
L 5606 4331 
L 5606 331 
L 6203 331 
L 6203 0 
L 4378 0 
L 4378 331 
L 4972 331 
L 4972 3938 
L 3372 684 
L 2931 684 
L 1331 3938 
L 1331 331 
L 1925 331 
L 1925 0 
L 353 0 
z
" transform="scale(0.015625)"/>
       <path id="DejaVuSerif-75" d="M 2266 3322 
L 3341 3322 
L 3341 331 
L 3884 331 
L 3884 0 
L 2766 0 
L 2766 588 
Q 2606 256 2353 82 
Q 2100 -91 1766 -91 
Q 1213 -91 952 223 
Q 691 538 691 1209 
L 691 2988 
L 172 2988 
L 172 3322 
L 1269 3322 
L 1269 1388 
Q 1269 781 1417 556 
Q 1566 331 1947 331 
Q 2347 331 2556 625 
Q 2766 919 2766 1478 
L 2766 2988 
L 2266 2988 
L 2266 3322 
z
" transform="scale(0.015625)"/>
       <path id="DejaVuSerif-73" d="M 359 184 
L 359 959 
L 691 959 
Q 703 588 923 403 
Q 1144 219 1575 219 
Q 1963 219 2166 364 
Q 2369 509 2369 788 
Q 2369 1006 2220 1140 
Q 2072 1275 1594 1428 
L 1178 1569 
Q 750 1706 558 1912 
Q 366 2119 366 2438 
Q 366 2894 700 3153 
Q 1034 3413 1625 3413 
Q 1888 3413 2178 3344 
Q 2469 3275 2778 3144 
L 2778 2419 
L 2447 2419 
Q 2434 2741 2221 2922 
Q 2009 3103 1644 3103 
Q 1281 3103 1095 2975 
Q 909 2847 909 2591 
Q 909 2381 1050 2254 
Q 1191 2128 1613 1997 
L 2069 1856 
Q 2541 1709 2748 1489 
Q 2956 1269 2956 922 
Q 2956 450 2595 179 
Q 2234 -91 1600 -91 
Q 1278 -91 972 -22 
Q 666 47 359 184 
z
" transform="scale(0.015625)"/>
      </defs>
      <use xlink:href="#DejaVuSerif-4d"/>
      <use xlink:href="#DejaVuSerif-6f" x="102.392578"/>
      <use xlink:href="#DejaVuSerif-64" x="162.597656"/>
      <use xlink:href="#DejaVuSerif-75" x="226.611328"/>
      <use xlink:href="#DejaVuSerif-73" x="291.015625"/>
     </g>
    </g>
   </g>
   <g id="line2d_20">
    <path d="M 66.735582 105.101861 
L 66.735582 80.065804 
L 68.988094 80.065804 
L 68.988094 55.029747 
L 70.11435 55.029747 
L 70.11435 105.101861 
L 71.240605 105.101861 
L 71.240605 80.065804 
L 73.493117 80.065804 
L 73.493117 55.029747 
L 74.619372 55.029747 
L 74.619372 29.99369 
L 75.745628 29.99369 
L 75.745628 80.065804 
L 79.124395 80.065804 
L 79.124395 55.029747 
L 80.250651 55.029747 
L 80.250651 105.101861 
L 81.376907 105.101861 
L 81.376907 80.065804 
L 83.629418 80.065804 
L 83.629418 55.029747 
L 84.755674 55.029747 
L 84.755674 105.101861 
L 85.88193 105.101861 
L 85.88193 80.065804 
L 88.134441 80.065804 
L 88.134441 55.029747 
L 89.260697 55.029747 
L 89.260697 29.99369 
L 90.386953 29.99369 
L 90.386953 80.065804 
L 91.513208 80.065804 
L 91.513208 55.029747 
L 92.639464 55.029747 
L 92.639464 105.101861 
L 94.891975 105.101861 
L 94.891975 80.065804 
L 97.144487 80.065804 
L 97.144487 55.029747 
L 98.270743 55.029747 
L 98.270743 29.99369 
L 99.396998 29.99369 
L 99.396998 80.065804 
L 100.523254 80.065804 
L 100.523254 105.101861 
L 101.64951 105.101861 
L 101.64951 80.065804 
L 102.775765 80.065804 
L 102.775765 29.99369 
L 103.902021 29.99369 
L 103.902021 80.065804 
L 105.028277 80.065804 
L 105.028277 55.029747 
L 106.154533 55.029747 
L 106.154533 29.99369 
L 109.5333 29.99369 
L 109.5333 80.065804 
L 110.659556 80.065804 
L 110.659556 29.99369 
L 112.912067 29.99369 
L 112.912067 80.065804 
L 114.038323 80.065804 
L 114.038323 105.101861 
L 116.290834 105.101861 
L 116.290834 29.99369 
L 117.41709 29.99369 
L 117.41709 80.065804 
L 118.543346 80.065804 
L 118.543346 55.029747 
L 119.669601 55.029747 
L 119.669601 29.99369 
L 120.795857 29.99369 
L 120.795857 105.101861 
L 127.553391 105.101861 
L 127.553391 80.065804 
L 128.679647 80.065804 
L 128.679647 29.99369 
L 134.310926 29.99369 
L 134.310926 80.065804 
L 135.437181 80.065804 
L 135.437181 105.101861 
L 138.815949 105.101861 
L 138.815949 80.065804 
L 139.942204 80.065804 
L 139.942204 105.101861 
L 142.194716 105.101861 
L 142.194716 55.029747 
L 143.320971 55.029747 
L 143.320971 105.101861 
L 144.447227 105.101861 
L 144.447227 29.99369 
L 145.573483 29.99369 
L 145.573483 105.101861 
L 146.699739 105.101861 
L 146.699739 80.065804 
L 147.825994 80.065804 
L 147.825994 105.101861 
L 148.95225 105.101861 
L 148.95225 80.065804 
L 150.078506 80.065804 
L 150.078506 105.101861 
L 151.204761 105.101861 
L 151.204761 80.065804 
L 152.331017 80.065804 
L 152.331017 105.101861 
L 153.457273 105.101861 
L 153.457273 80.065804 
L 154.583529 80.065804 
L 154.583529 55.029747 
L 156.83604 55.029747 
L 156.83604 29.99369 
L 157.962296 29.99369 
L 157.962296 80.065804 
L 159.088552 80.065804 
L 159.088552 55.029747 
L 160.214807 55.029747 
L 160.214807 29.99369 
L 162.467319 29.99369 
L 162.467319 80.065804 
L 165.846086 80.065804 
L 165.846086 55.029747 
L 166.972342 55.029747 
L 166.972342 105.101861 
L 169.224853 105.101861 
L 169.224853 80.065804 
L 172.60362 80.065804 
L 172.60362 55.029747 
L 173.729876 55.029747 
L 173.729876 105.101861 
L 174.856132 105.101861 
L 174.856132 80.065804 
L 177.108643 80.065804 
L 177.108643 55.029747 
L 178.234899 55.029747 
L 178.234899 105.101861 
L 179.361155 105.101861 
L 179.361155 80.065804 
L 182.739922 80.065804 
L 182.739922 55.029747 
L 183.866177 55.029747 
L 183.866177 29.99369 
L 184.992433 29.99369 
L 184.992433 80.065804 
L 187.244945 80.065804 
L 187.244945 55.029747 
L 188.3712 55.029747 
L 188.3712 105.101861 
L 189.497456 105.101861 
L 189.497456 55.029747 
L 192.876223 55.029747 
L 192.876223 105.101861 
L 196.25499 105.101861 
L 196.25499 80.065804 
L 198.507502 80.065804 
L 198.507502 55.029747 
L 199.633757 55.029747 
L 199.633757 29.99369 
L 200.760013 29.99369 
L 200.760013 80.065804 
L 201.886269 80.065804 
L 201.886269 55.029747 
L 203.012525 55.029747 
L 203.012525 105.101861 
L 204.13878 105.101861 
L 204.13878 80.065804 
L 205.265036 80.065804 
L 205.265036 55.029747 
L 206.391292 55.029747 
L 206.391292 29.99369 
L 207.517548 29.99369 
L 207.517548 80.065804 
L 208.643803 80.065804 
L 208.643803 105.101861 
L 209.770059 105.101861 
L 209.770059 55.029747 
L 210.896315 55.029747 
L 210.896315 105.101861 
L 214.275082 105.101861 
L 214.275082 80.065804 
L 215.401338 80.065804 
L 215.401338 105.101861 
L 216.527593 105.101861 
L 216.527593 29.99369 
L 217.653849 29.99369 
L 217.653849 80.065804 
L 218.780105 80.065804 
L 218.780105 29.99369 
L 219.90636 29.99369 
L 219.90636 80.065804 
L 221.032616 80.065804 
L 221.032616 29.99369 
L 222.158872 29.99369 
L 222.158872 55.029747 
L 223.285128 55.029747 
L 223.285128 29.99369 
L 225.537639 29.99369 
L 225.537639 55.029747 
L 226.663895 55.029747 
L 226.663895 29.99369 
L 227.790151 29.99369 
L 227.790151 55.029747 
L 228.916406 55.029747 
L 228.916406 29.99369 
L 233.421429 29.99369 
L 233.421429 55.029747 
L 239.052708 55.029747 
L 239.052708 29.99369 
L 240.178963 29.99369 
L 240.178963 105.101861 
L 253.694032 105.101861 
L 253.694032 80.065804 
L 254.820288 80.065804 
L 254.820288 105.101861 
L 255.946544 105.101861 
L 255.946544 80.065804 
L 257.072799 80.065804 
L 257.072799 105.101861 
L 258.199055 105.101861 
L 258.199055 80.065804 
L 259.325311 80.065804 
L 259.325311 29.99369 
L 260.451566 29.99369 
L 260.451566 55.029747 
L 261.577822 55.029747 
L 261.577822 105.101861 
L 262.704078 105.101861 
L 262.704078 80.065804 
L 266.082845 80.065804 
L 266.082845 55.029747 
L 267.209101 55.029747 
L 267.209101 29.99369 
L 269.461612 29.99369 
L 269.461612 80.065804 
L 311.133074 80.065804 
L 311.133074 55.029747 
L 312.25933 55.029747 
L 312.25933 105.101861 
L 313.385585 105.101861 
L 313.385585 29.99369 
L 314.511841 29.99369 
L 314.511841 80.065804 
L 315.638097 80.065804 
L 315.638097 55.029747 
L 316.764353 55.029747 
L 316.764353 105.101861 
L 317.890608 105.101861 
L 317.890608 80.065804 
L 319.016864 80.065804 
L 319.016864 105.101861 
L 320.14312 105.101861 
L 320.14312 80.065804 
L 321.269375 80.065804 
L 321.269375 105.101861 
L 323.521887 105.101861 
L 323.521887 80.065804 
L 324.648143 80.065804 
L 324.648143 105.101861 
L 325.774398 105.101861 
L 325.774398 29.99369 
L 326.900654 29.99369 
L 326.900654 80.065804 
L 328.02691 80.065804 
L 328.02691 29.99369 
L 329.153165 29.99369 
L 329.153165 55.029747 
L 330.279421 55.029747 
L 330.279421 105.101861 
L 331.405677 105.101861 
L 331.405677 29.99369 
L 334.784444 29.99369 
L 334.784444 55.029747 
L 337.036955 55.029747 
L 337.036955 29.99369 
L 339.289467 29.99369 
L 339.289467 105.101861 
L 346.047001 105.101861 
L 346.047001 29.99369 
L 347.173257 29.99369 
L 347.173257 55.029747 
L 349.425768 55.029747 
L 349.425768 29.99369 
L 350.552024 29.99369 
L 350.552024 55.029747 
L 351.67828 55.029747 
L 351.67828 105.101861 
L 368.572116 105.101861 
L 368.572116 80.065804 
L 369.698371 80.065804 
L 369.698371 105.101861 
L 370.824627 105.101861 
L 370.824627 80.065804 
L 371.950883 80.065804 
L 371.950883 105.101861 
L 373.077139 105.101861 
L 373.077139 80.065804 
L 374.203394 80.065804 
L 374.203394 105.101861 
L 375.32965 105.101861 
L 375.32965 80.065804 
L 376.455906 80.065804 
L 376.455906 29.99369 
L 377.582161 29.99369 
L 377.582161 80.065804 
L 378.708417 80.065804 
L 378.708417 29.99369 
L 379.834673 29.99369 
L 379.834673 80.065804 
L 380.960929 80.065804 
L 380.960929 55.029747 
L 382.087184 55.029747 
L 382.087184 105.101861 
L 383.21344 105.101861 
L 383.21344 80.065804 
L 384.339696 80.065804 
L 384.339696 105.101861 
L 385.465952 105.101861 
L 385.465952 80.065804 
L 386.592207 80.065804 
L 386.592207 55.029747 
L 387.718463 55.029747 
L 387.718463 105.101861 
L 388.844719 105.101861 
L 388.844719 80.065804 
L 389.970974 80.065804 
L 389.970974 80.065804 
" clip-path="url(#p7c97e10671)" style="fill: none; stroke-dasharray: 5.55,2.4; stroke-dashoffset: 0; stroke: #4b81c4; stroke-width: 1.5"/>
   </g>
   <g id="patch_16">
    <path d="M 50.5175 108.857269 
L 50.5175 26.238281 
" style="fill: none; stroke: #000000; stroke-width: 0.5; stroke-linejoin: miter; stroke-linecap: square"/>
   </g>
   <g id="patch_17">
    <path d="M 407.315312 108.857269 
L 407.315312 26.238281 
" style="fill: none; stroke: #000000; stroke-width: 0.5; stroke-linejoin: miter; stroke-linecap: square"/>
   </g>
   <g id="patch_18">
    <path d="M 50.5175 108.857269 
L 407.315312 108.857269 
" style="fill: none; stroke: #000000; stroke-width: 0.5; stroke-linejoin: miter; stroke-linecap: square"/>
   </g>
   <g id="patch_19">
    <path d="M 50.5175 26.238281 
L 407.315312 26.238281 
" style="fill: none; stroke: #000000; stroke-width: 0.5; stroke-linejoin: miter; stroke-linecap: square"/>
   </g>
  </g>
  <g id="legend_1">
   <g id="line2d_21">
    <path d="M 173.160544 15.412452 
L 182.323544 15.412452 
L 191.486544 15.412452 
" style="fill: none; stroke: #ec635c; stroke-width: 1.5; stroke-linecap: square"/>
   </g>
   <g id="text_19">
    <!-- $\dot{Q}_{\mathrm{WP}}$ -->
    <g transform="translate(198.816944 18.619502)scale(0.09163 -0.09163)">
     <use xlink:href="#DejaVuSans-307" transform="translate(74.271484 31.015625)"/>
     <use xlink:href="#DejaVuSans-Oblique-51" transform="translate(0 0.296875)"/>
     <use xlink:href="#DejaVuSans-57" transform="translate(79.667969 -16.109375)scale(0.7)"/>
     <use xlink:href="#DejaVuSans-50" transform="translate(148.881836 -16.109375)scale(0.7)"/>
    </g>
   </g>
   <g id="line2d_22">
    <path d="M 234.919164 15.412452 
L 244.082164 15.412452 
L 253.245164 15.412452 
" style="fill: none; stroke-dasharray: 1.5,2.475; stroke-dashoffset: 0; stroke: #f49961; stroke-width: 1.5"/>
   </g>
   <g id="text_20">
    <!-- $T_{\mathrm{PS}}$ -->
    <g transform="translate(260.575564 18.619502)scale(0.09163 -0.09163)">
     <defs>
      <path id="DejaVuSans-53" d="M 3425 4513 
L 3425 3897 
Q 3066 4069 2747 4153 
Q 2428 4238 2131 4238 
Q 1616 4238 1336 4038 
Q 1056 3838 1056 3469 
Q 1056 3159 1242 3001 
Q 1428 2844 1947 2747 
L 2328 2669 
Q 3034 2534 3370 2195 
Q 3706 1856 3706 1288 
Q 3706 609 3251 259 
Q 2797 -91 1919 -91 
Q 1588 -91 1214 -16 
Q 841 59 441 206 
L 441 856 
Q 825 641 1194 531 
Q 1563 422 1919 422 
Q 2459 422 2753 634 
Q 3047 847 3047 1241 
Q 3047 1584 2836 1778 
Q 2625 1972 2144 2069 
L 1759 2144 
Q 1053 2284 737 2584 
Q 422 2884 422 3419 
Q 422 4038 858 4394 
Q 1294 4750 2059 4750 
Q 2388 4750 2728 4690 
Q 3069 4631 3425 4513 
z
" transform="scale(0.015625)"/>
     </defs>
     <use xlink:href="#DejaVuSans-Oblique-54" transform="translate(0 0.09375)"/>
     <use xlink:href="#DejaVuSans-50" transform="translate(61.083984 -16.3125)scale(0.7)"/>
     <use xlink:href="#DejaVuSans-53" transform="translate(103.295898 -16.3125)scale(0.7)"/>
    </g>
   </g>
   <g id="line2d_23">
    <path d="M 292.737694 15.412452 
L 301.900694 15.412452 
L 311.063694 15.412452 
" style="fill: none; stroke-dasharray: 9.6,2.4,1.5,2.4; stroke-dashoffset: 0; stroke: #8768b4; stroke-width: 1.5"/>
   </g>
   <g id="text_21">
    <!-- $T_{\mathrm{TWW}}$ -->
    <g transform="translate(318.394094 18.619502)scale(0.09163 -0.09163)">
     <defs>
      <path id="DejaVuSans-54" d="M -19 4666 
L 3928 4666 
L 3928 4134 
L 2272 4134 
L 2272 0 
L 1638 0 
L 1638 4134 
L -19 4134 
L -19 4666 
z
" transform="scale(0.015625)"/>
     </defs>
     <use xlink:href="#DejaVuSans-Oblique-54" transform="translate(0 0.09375)"/>
     <use xlink:href="#DejaVuSans-54" transform="translate(61.083984 -16.3125)scale(0.7)"/>
     <use xlink:href="#DejaVuSans-57" transform="translate(103.842773 -16.3125)scale(0.7)"/>
     <use xlink:href="#DejaVuSans-57" transform="translate(173.056641 -16.3125)scale(0.7)"/>
    </g>
   </g>
   <g id="line2d_24">
    <path d="M 359.261074 15.412452 
L 359.261074 15.412452 
L 368.424074 15.412452 
L 368.424074 15.412452 
L 377.587074 15.412452 
" style="fill: none; stroke-dasharray: 5.55,2.4; stroke-dashoffset: 0; stroke: #4b81c4; stroke-width: 1.5"/>
   </g>
   <g id="text_22">
    <!-- Modus -->
    <g transform="translate(384.917474 18.619502)scale(0.09163 -0.09163)">
     <use xlink:href="#DejaVuSerif-4d"/>
     <use xlink:href="#DejaVuSerif-6f" x="102.392578"/>
     <use xlink:href="#DejaVuSerif-64" x="162.597656"/>
     <use xlink:href="#DejaVuSerif-75" x="226.611328"/>
     <use xlink:href="#DejaVuSerif-73" x="291.015625"/>
    </g>
   </g>
  </g>
 </g>
 <defs>
  <clipPath id="p7c97e10671">
   <rect x="50.5175" y="26.238281" width="356.797812" height="82.618988"/>
  </clipPath>
  <clipPath id="p0f2c087982">
   <rect x="50.5175" y="125.209137" width="356.797812" height="82.618988"/>
  </clipPath>
 </defs>
</svg>
