<?xml version="1.0" encoding="utf-8" standalone="no"?>
<!DOCTYPE svg PUBLIC "-//W3C//DTD SVG 1.1//EN"
  "http://www.w3.org/Graphics/SVG/1.1/DTD/svg11.dtd">
<svg xmlns:xlink="http://www.w3.org/1999/xlink" width="447.84pt" height="180pt" viewBox="0 0 447.84 180" xmlns="http://www.w3.org/2000/svg" version="1.1">
 <metadata>
  <rdf:RDF xmlns:dc="http://purl.org/dc/elements/1.1/" xmlns:cc="http://creativecommons.org/ns#" xmlns:rdf="http://www.w3.org/1999/02/22-rdf-syntax-ns#">
   <cc:Work>
    <dc:type rdf:resource="http://purl.org/dc/dcmitype/StillImage"/>
    <dc:date>2023-05-02T11:37:54.607232</dc:date>
    <dc:format>image/svg+xml</dc:format>
    <dc:creator>
     <cc:Agent>
      <dc:title>Matplotlib v3.5.3, https://matplotlib.org/</dc:title>
     </cc:Agent>
    </dc:creator>
   </cc:Work>
  </rdf:RDF>
 </metadata>
 <defs>
  <style type="text/css">*{stroke-linejoin: round; stroke-linecap: butt}</style>
 </defs>
 <g id="figure_1">
  <g id="patch_1">
   <path d="M 0 180 
L 447.84 180 
L 447.84 0 
L 0 0 
z
" style="fill: #ffffff"/>
  </g>
  <g id="axes_1">
   <g id="patch_2">
    <path d="M 47.523438 135.828125 
L 400.316562 135.828125 
L 400.316562 11.88 
L 47.523438 11.88 
z
" style="fill: #ffffff"/>
   </g>
   <g id="matplotlib.axis_1">
    <g id="xtick_1">
     <g id="line2d_1">
      <defs>
       <path id="m1fc65f5d02" d="M 0 0 
L 0 3.5 
" style="stroke: #000000; stroke-width: 0.8"/>
      </defs>
      <g>
       <use xlink:href="#m1fc65f5d02" x="63.559489" y="135.828125" style="stroke: #000000; stroke-width: 0.8"/>
      </g>
     </g>
     <g id="text_1">
      <!-- 0 -->
      <g transform="translate(60.060114 151.186406)scale(0.11 -0.11)">
       <defs>
        <path id="DejaVuSerif-30" d="M 2034 219 
Q 2513 219 2750 744 
Q 2988 1269 2988 2328 
Q 2988 3391 2750 3916 
Q 2513 4441 2034 4441 
Q 1556 4441 1318 3916 
Q 1081 3391 1081 2328 
Q 1081 1269 1318 744 
Q 1556 219 2034 219 
z
M 2034 -91 
Q 1275 -91 848 546 
Q 422 1184 422 2328 
Q 422 3475 848 4112 
Q 1275 4750 2034 4750 
Q 2797 4750 3222 4112 
Q 3647 3475 3647 2328 
Q 3647 1184 3222 546 
Q 2797 -91 2034 -91 
z
" transform="scale(0.015625)"/>
       </defs>
       <use xlink:href="#DejaVuSerif-30"/>
      </g>
     </g>
    </g>
    <g id="xtick_2">
     <g id="line2d_2">
      <g>
       <use xlink:href="#m1fc65f5d02" x="131.079704" y="135.828125" style="stroke: #000000; stroke-width: 0.8"/>
      </g>
     </g>
     <g id="text_2">
      <!-- 5 -->
      <g transform="translate(127.580329 151.186406)scale(0.11 -0.11)">
       <defs>
        <path id="DejaVuSerif-35" d="M 3219 4666 
L 3219 4153 
L 1081 4153 
L 1081 2816 
Q 1244 2928 1461 2984 
Q 1678 3041 1947 3041 
Q 2703 3041 3140 2622 
Q 3578 2203 3578 1478 
Q 3578 738 3136 323 
Q 2694 -91 1894 -91 
Q 1572 -91 1234 -12 
Q 897 66 544 225 
L 544 1131 
L 897 1131 
Q 925 688 1179 453 
Q 1434 219 1894 219 
Q 2388 219 2653 544 
Q 2919 869 2919 1478 
Q 2919 2084 2655 2407 
Q 2391 2731 1894 2731 
Q 1613 2731 1398 2631 
Q 1184 2531 1019 2322 
L 750 2322 
L 750 4666 
L 3219 4666 
z
" transform="scale(0.015625)"/>
       </defs>
       <use xlink:href="#DejaVuSerif-35"/>
      </g>
     </g>
    </g>
    <g id="xtick_3">
     <g id="line2d_3">
      <g>
       <use xlink:href="#m1fc65f5d02" x="198.599919" y="135.828125" style="stroke: #000000; stroke-width: 0.8"/>
      </g>
     </g>
     <g id="text_3">
      <!-- 10 -->
      <g transform="translate(191.601169 151.186406)scale(0.11 -0.11)">
       <defs>
        <path id="DejaVuSerif-31" d="M 909 0 
L 909 331 
L 1722 331 
L 1722 4213 
L 781 3603 
L 781 4013 
L 1919 4750 
L 2350 4750 
L 2350 331 
L 3163 331 
L 3163 0 
L 909 0 
z
" transform="scale(0.015625)"/>
       </defs>
       <use xlink:href="#DejaVuSerif-31"/>
       <use xlink:href="#DejaVuSerif-30" x="63.623047"/>
      </g>
     </g>
    </g>
    <g id="xtick_4">
     <g id="line2d_4">
      <g>
       <use xlink:href="#m1fc65f5d02" x="266.120135" y="135.828125" style="stroke: #000000; stroke-width: 0.8"/>
      </g>
     </g>
     <g id="text_4">
      <!-- 15 -->
      <g transform="translate(259.121385 151.186406)scale(0.11 -0.11)">
       <use xlink:href="#DejaVuSerif-31"/>
       <use xlink:href="#DejaVuSerif-35" x="63.623047"/>
      </g>
     </g>
    </g>
    <g id="xtick_5">
     <g id="line2d_5">
      <g>
       <use xlink:href="#m1fc65f5d02" x="333.64035" y="135.828125" style="stroke: #000000; stroke-width: 0.8"/>
      </g>
     </g>
     <g id="text_5">
      <!-- 20 -->
      <g transform="translate(326.6416 151.186406)scale(0.11 -0.11)">
       <defs>
        <path id="DejaVuSerif-32" d="M 819 3553 
L 469 3553 
L 469 4384 
Q 803 4563 1142 4656 
Q 1481 4750 1806 4750 
Q 2534 4750 2956 4397 
Q 3378 4044 3378 3438 
Q 3378 2753 2422 1800 
Q 2347 1728 2309 1691 
L 1131 513 
L 3078 513 
L 3078 1088 
L 3444 1088 
L 3444 0 
L 434 0 
L 434 341 
L 1850 1753 
Q 2319 2222 2519 2614 
Q 2719 3006 2719 3438 
Q 2719 3909 2473 4175 
Q 2228 4441 1797 4441 
Q 1350 4441 1106 4219 
Q 863 3997 819 3553 
z
" transform="scale(0.015625)"/>
       </defs>
       <use xlink:href="#DejaVuSerif-32"/>
       <use xlink:href="#DejaVuSerif-30" x="63.623047"/>
      </g>
     </g>
    </g>
    <g id="text_6">
     <!-- Zeit in h -->
     <g transform="translate(200.533828 165.832344)scale(0.11 -0.11)">
      <defs>
       <path id="DejaVuSerif-5a" d="M 288 0 
L 288 225 
L 3194 4281 
L 781 4281 
L 781 3584 
L 397 3584 
L 397 4666 
L 4084 4666 
L 4084 4441 
L 1178 384 
L 3816 384 
L 3816 1038 
L 4197 1038 
L 4197 0 
L 288 0 
z
" transform="scale(0.015625)"/>
       <path id="DejaVuSerif-65" d="M 3469 1600 
L 991 1600 
L 991 1575 
Q 991 903 1244 561 
Q 1497 219 1991 219 
Q 2369 219 2611 417 
Q 2853 616 2950 1006 
L 3413 1006 
Q 3275 459 2904 184 
Q 2534 -91 1931 -91 
Q 1203 -91 761 389 
Q 319 869 319 1663 
Q 319 2450 753 2931 
Q 1188 3413 1894 3413 
Q 2647 3413 3050 2948 
Q 3453 2484 3469 1600 
z
M 2791 1931 
Q 2772 2513 2545 2808 
Q 2319 3103 1894 3103 
Q 1497 3103 1269 2806 
Q 1041 2509 991 1931 
L 2791 1931 
z
" transform="scale(0.015625)"/>
       <path id="DejaVuSerif-69" d="M 622 4353 
Q 622 4497 726 4603 
Q 831 4709 978 4709 
Q 1122 4709 1226 4603 
Q 1331 4497 1331 4353 
Q 1331 4206 1228 4103 
Q 1125 4000 978 4000 
Q 831 4000 726 4103 
Q 622 4206 622 4353 
z
M 1356 331 
L 1900 331 
L 1900 0 
L 231 0 
L 231 331 
L 781 331 
L 781 2988 
L 231 2988 
L 231 3322 
L 1356 3322 
L 1356 331 
z
" transform="scale(0.015625)"/>
       <path id="DejaVuSerif-74" d="M 691 2988 
L 184 2988 
L 184 3322 
L 691 3322 
L 691 4353 
L 1269 4353 
L 1269 3322 
L 2350 3322 
L 2350 2988 
L 1269 2988 
L 1269 878 
Q 1269 456 1350 337 
Q 1431 219 1650 219 
Q 1875 219 1978 351 
Q 2081 484 2088 781 
L 2522 781 
Q 2497 328 2275 118 
Q 2053 -91 1600 -91 
Q 1103 -91 897 129 
Q 691 350 691 878 
L 691 2988 
z
" transform="scale(0.015625)"/>
       <path id="DejaVuSerif-20" transform="scale(0.015625)"/>
       <path id="DejaVuSerif-6e" d="M 263 0 
L 263 331 
L 781 331 
L 781 2988 
L 231 2988 
L 231 3322 
L 1356 3322 
L 1356 2731 
Q 1516 3069 1770 3241 
Q 2025 3413 2363 3413 
Q 2913 3413 3172 3097 
Q 3431 2781 3431 2113 
L 3431 331 
L 3944 331 
L 3944 0 
L 2356 0 
L 2356 331 
L 2853 331 
L 2853 1931 
Q 2853 2541 2703 2767 
Q 2553 2994 2175 2994 
Q 1775 2994 1565 2701 
Q 1356 2409 1356 1850 
L 1356 331 
L 1856 331 
L 1856 0 
L 263 0 
z
" transform="scale(0.015625)"/>
       <path id="DejaVuSerif-68" d="M 263 0 
L 263 331 
L 781 331 
L 781 4531 
L 231 4531 
L 231 4863 
L 1356 4863 
L 1356 2731 
Q 1516 3069 1770 3241 
Q 2025 3413 2363 3413 
Q 2913 3413 3172 3097 
Q 3431 2781 3431 2113 
L 3431 331 
L 3944 331 
L 3944 0 
L 2356 0 
L 2356 331 
L 2853 331 
L 2853 1931 
Q 2853 2541 2704 2764 
Q 2556 2988 2175 2988 
Q 1775 2988 1565 2697 
Q 1356 2406 1356 1850 
L 1356 331 
L 1856 331 
L 1856 0 
L 263 0 
z
" transform="scale(0.015625)"/>
      </defs>
      <use xlink:href="#DejaVuSerif-5a"/>
      <use xlink:href="#DejaVuSerif-65" x="69.482422"/>
      <use xlink:href="#DejaVuSerif-69" x="128.662109"/>
      <use xlink:href="#DejaVuSerif-74" x="160.644531"/>
      <use xlink:href="#DejaVuSerif-20" x="200.830078"/>
      <use xlink:href="#DejaVuSerif-69" x="232.617188"/>
      <use xlink:href="#DejaVuSerif-6e" x="264.599609"/>
      <use xlink:href="#DejaVuSerif-20" x="329.003906"/>
      <use xlink:href="#DejaVuSerif-68" x="360.791016"/>
     </g>
    </g>
   </g>
   <g id="matplotlib.axis_2">
    <g id="ytick_1">
     <g id="line2d_6">
      <defs>
       <path id="mdb7d41b0cc" d="M 0 0 
L -3.5 0 
" style="stroke: #000000; stroke-width: 0.8"/>
      </defs>
      <g>
       <use xlink:href="#mdb7d41b0cc" x="47.523438" y="129.067318" style="stroke: #000000; stroke-width: 0.8"/>
      </g>
     </g>
     <g id="text_7">
      <!-- 20 -->
      <g transform="translate(26.525938 133.246459)scale(0.11 -0.11)">
       <use xlink:href="#DejaVuSerif-32"/>
       <use xlink:href="#DejaVuSerif-30" x="63.623047"/>
      </g>
     </g>
    </g>
    <g id="ytick_2">
     <g id="line2d_7">
      <g>
       <use xlink:href="#mdb7d41b0cc" x="47.523438" y="95.263284" style="stroke: #000000; stroke-width: 0.8"/>
      </g>
     </g>
     <g id="text_8">
      <!-- 35 -->
      <g transform="translate(26.525938 99.442425)scale(0.11 -0.11)">
       <defs>
        <path id="DejaVuSerif-33" d="M 622 4469 
Q 988 4606 1323 4678 
Q 1659 4750 1953 4750 
Q 2638 4750 3022 4454 
Q 3406 4159 3406 3634 
Q 3406 3213 3140 2930 
Q 2875 2647 2388 2547 
Q 2963 2466 3280 2130 
Q 3597 1794 3597 1259 
Q 3597 606 3158 257 
Q 2719 -91 1894 -91 
Q 1528 -91 1179 -12 
Q 831 66 488 225 
L 488 1131 
L 838 1131 
Q 869 681 1141 450 
Q 1413 219 1906 219 
Q 2384 219 2661 495 
Q 2938 772 2938 1253 
Q 2938 1803 2653 2086 
Q 2369 2369 1819 2369 
L 1522 2369 
L 1522 2688 
L 1678 2688 
Q 2225 2688 2498 2914 
Q 2772 3141 2772 3597 
Q 2772 4006 2547 4223 
Q 2322 4441 1900 4441 
Q 1478 4441 1245 4241 
Q 1013 4041 972 3647 
L 622 3647 
L 622 4469 
z
" transform="scale(0.015625)"/>
       </defs>
       <use xlink:href="#DejaVuSerif-33"/>
       <use xlink:href="#DejaVuSerif-35" x="63.623047"/>
      </g>
     </g>
    </g>
    <g id="ytick_3">
     <g id="line2d_8">
      <g>
       <use xlink:href="#mdb7d41b0cc" x="47.523438" y="61.45925" style="stroke: #000000; stroke-width: 0.8"/>
      </g>
     </g>
     <g id="text_9">
      <!-- 50 -->
      <g transform="translate(26.525938 65.638391)scale(0.11 -0.11)">
       <use xlink:href="#DejaVuSerif-35"/>
       <use xlink:href="#DejaVuSerif-30" x="63.623047"/>
      </g>
     </g>
    </g>
    <g id="ytick_4">
     <g id="line2d_9">
      <g>
       <use xlink:href="#mdb7d41b0cc" x="47.523438" y="27.655216" style="stroke: #000000; stroke-width: 0.8"/>
      </g>
     </g>
     <g id="text_10">
      <!-- 65 -->
      <g transform="translate(26.525938 31.834357)scale(0.11 -0.11)">
       <defs>
        <path id="DejaVuSerif-36" d="M 2094 219 
Q 2534 219 2771 542 
Q 3009 866 3009 1472 
Q 3009 2078 2771 2401 
Q 2534 2725 2094 2725 
Q 1647 2725 1412 2412 
Q 1178 2100 1178 1509 
Q 1178 888 1415 553 
Q 1653 219 2094 219 
z
M 1075 2569 
Q 1288 2803 1556 2918 
Q 1825 3034 2163 3034 
Q 2859 3034 3264 2615 
Q 3669 2197 3669 1472 
Q 3669 763 3233 336 
Q 2797 -91 2069 -91 
Q 1278 -91 853 498 
Q 428 1088 428 2181 
Q 428 3406 931 4078 
Q 1434 4750 2350 4750 
Q 2597 4750 2869 4703 
Q 3141 4656 3425 4563 
L 3425 3794 
L 3072 3794 
Q 3034 4109 2831 4275 
Q 2628 4441 2284 4441 
Q 1678 4441 1381 3981 
Q 1084 3522 1075 2569 
z
" transform="scale(0.015625)"/>
       </defs>
       <use xlink:href="#DejaVuSerif-36"/>
       <use xlink:href="#DejaVuSerif-35" x="63.623047"/>
      </g>
     </g>
    </g>
    <g id="text_11">
     <!-- $T_{\mathrm{PS}}$ in °C -->
     <g transform="translate(20.238281 97.889063)rotate(-90)scale(0.11 -0.11)">
      <defs>
       <path id="DejaVuSans-Oblique-54" d="M 378 4666 
L 4325 4666 
L 4225 4134 
L 2559 4134 
L 1759 0 
L 1125 0 
L 1925 4134 
L 275 4134 
L 378 4666 
z
" transform="scale(0.015625)"/>
       <path id="DejaVuSans-50" d="M 1259 4147 
L 1259 2394 
L 2053 2394 
Q 2494 2394 2734 2622 
Q 2975 2850 2975 3272 
Q 2975 3691 2734 3919 
Q 2494 4147 2053 4147 
L 1259 4147 
z
M 628 4666 
L 2053 4666 
Q 2838 4666 3239 4311 
Q 3641 3956 3641 3272 
Q 3641 2581 3239 2228 
Q 2838 1875 2053 1875 
L 1259 1875 
L 1259 0 
L 628 0 
L 628 4666 
z
" transform="scale(0.015625)"/>
       <path id="DejaVuSans-53" d="M 3425 4513 
L 3425 3897 
Q 3066 4069 2747 4153 
Q 2428 4238 2131 4238 
Q 1616 4238 1336 4038 
Q 1056 3838 1056 3469 
Q 1056 3159 1242 3001 
Q 1428 2844 1947 2747 
L 2328 2669 
Q 3034 2534 3370 2195 
Q 3706 1856 3706 1288 
Q 3706 609 3251 259 
Q 2797 -91 1919 -91 
Q 1588 -91 1214 -16 
Q 841 59 441 206 
L 441 856 
Q 825 641 1194 531 
Q 1563 422 1919 422 
Q 2459 422 2753 634 
Q 3047 847 3047 1241 
Q 3047 1584 2836 1778 
Q 2625 1972 2144 2069 
L 1759 2144 
Q 1053 2284 737 2584 
Q 422 2884 422 3419 
Q 422 4038 858 4394 
Q 1294 4750 2059 4750 
Q 2388 4750 2728 4690 
Q 3069 4631 3425 4513 
z
" transform="scale(0.015625)"/>
       <path id="DejaVuSerif-b0" d="M 1600 4319 
Q 1363 4319 1200 4155 
Q 1038 3991 1038 3750 
Q 1038 3513 1198 3353 
Q 1359 3194 1600 3194 
Q 1838 3194 2000 3355 
Q 2163 3516 2163 3750 
Q 2163 3984 1997 4151 
Q 1831 4319 1600 4319 
z
M 1600 4750 
Q 1800 4750 1984 4673 
Q 2169 4597 2303 4453 
Q 2447 4313 2519 4134 
Q 2591 3956 2591 3750 
Q 2591 3338 2302 3052 
Q 2013 2766 1594 2766 
Q 1172 2766 890 3047 
Q 609 3328 609 3750 
Q 609 4169 896 4459 
Q 1184 4750 1600 4750 
z
" transform="scale(0.015625)"/>
       <path id="DejaVuSerif-43" d="M 4513 1234 
Q 4306 581 3820 245 
Q 3334 -91 2591 -91 
Q 2134 -91 1743 65 
Q 1353 222 1050 525 
Q 700 875 529 1320 
Q 359 1766 359 2328 
Q 359 3416 987 4083 
Q 1616 4750 2644 4750 
Q 3025 4750 3456 4650 
Q 3888 4550 4384 4347 
L 4384 3272 
L 4031 3272 
Q 3916 3859 3567 4137 
Q 3219 4416 2591 4416 
Q 1844 4416 1459 3886 
Q 1075 3356 1075 2328 
Q 1075 1303 1459 773 
Q 1844 244 2591 244 
Q 3113 244 3450 492 
Q 3788 741 3938 1234 
L 4513 1234 
z
" transform="scale(0.015625)"/>
      </defs>
      <use xlink:href="#DejaVuSans-Oblique-54" transform="translate(0 0.78125)"/>
      <use xlink:href="#DejaVuSans-50" transform="translate(61.083984 -15.625)scale(0.7)"/>
      <use xlink:href="#DejaVuSans-53" transform="translate(103.295898 -15.625)scale(0.7)"/>
      <use xlink:href="#DejaVuSerif-20" transform="translate(150.463867 0.78125)"/>
      <use xlink:href="#DejaVuSerif-69" transform="translate(182.250977 0.78125)"/>
      <use xlink:href="#DejaVuSerif-6e" transform="translate(214.233398 0.78125)"/>
      <use xlink:href="#DejaVuSerif-20" transform="translate(278.637695 0.78125)"/>
      <use xlink:href="#DejaVuSerif-b0" transform="translate(310.424805 0.78125)"/>
      <use xlink:href="#DejaVuSerif-43" transform="translate(360.424805 0.78125)"/>
     </g>
    </g>
   </g>
   <g id="line2d_10">
    <path d="M 63.559489 65.76363 
L 66.935499 47.329164 
L 70.31151 74.913256 
L 73.687521 75.071008 
L 77.063532 75.22876 
L 80.439542 75.34144 
L 83.815553 75.45412 
L 87.191564 75.5668 
L 90.567575 75.67948 
L 93.943586 75.747088 
L 97.319596 75.814696 
L 100.695607 75.859769 
L 104.071618 49.44755 
L 107.447629 75.972449 
L 110.823639 75.994985 
L 114.19965 76.017521 
L 117.575661 76.062593 
L 120.951672 76.085129 
L 124.327682 76.130201 
L 127.703693 76.152737 
L 131.079704 76.175273 
L 134.455715 76.265417 
L 137.831725 63.149452 
L 141.207736 24.635389 
L 144.583747 50.822247 
L 147.959758 76.648529 
L 151.335769 51.498328 
L 154.711779 76.98657 
L 158.08779 52.940633 
L 161.463801 77.707722 
L 164.839812 78.248587 
L 168.215822 75.22876 
L 171.591833 79.330316 
L 174.967844 79.488068 
L 178.343855 79.668356 
L 181.719865 61.211354 
L 185.095876 81.831815 
L 188.471887 83.995273 
L 191.847898 77.865475 
L 195.223908 70.563803 
L 198.599919 32.658213 
L 201.97593 59.543688 
L 205.351941 21.773314 
L 208.727952 48.816541 
L 212.103962 75.656944 
L 215.479973 75.972449 
L 218.855984 76.287953 
L 222.231995 76.603457 
L 225.608005 44.624841 
L 228.984016 69.84265 
L 232.360027 29.998962 
L 235.736038 54.540691 
L 239.112048 78.496483 
L 242.488059 78.811987 
L 245.86407 79.104956 
L 249.240081 56.952045 
L 252.616092 79.690892 
L 255.992102 57.583054 
L 259.368113 80.006397 
L 262.744124 80.164149 
L 266.120135 80.321901 
L 269.496145 58.799999 
L 272.872156 16.387205 
L 276.248167 38.788011 
L 279.624178 44.850201 
L 283.000188 67.07072 
L 286.376199 35.092103 
L 289.75221 57.515446 
L 293.128221 79.848645 
L 296.504231 37.278098 
L 299.880242 59.273256 
L 303.256253 80.862766 
L 306.632264 59.769048 
L 310.008275 81.110662 
L 313.384285 59.746512 
L 316.760296 81.110662 
L 320.136307 56.974581 
L 323.512318 79.713428 
L 326.888328 78.338731 
L 330.264339 48.636253 
L 333.64035 75.5668 
L 337.016361 47.3517 
L 340.392371 74.935792 
L 343.768382 74.597751 
L 347.144393 74.282247 
L 350.520404 74.304783 
L 353.896414 74.349855 
L 357.272425 74.372391 
L 360.648436 74.394927 
L 364.024447 74.530143 
L 367.400458 74.665359 
L 370.776468 74.800575 
L 374.152479 74.935792 
L 377.52849 47.374236 
L 380.904501 74.935792 
L 384.280511 37.796426 
" clip-path="url(#p459421d9f3)" style="fill: none; stroke: #ec635c; stroke-width: 1.5; stroke-linecap: square"/>
   </g>
   <g id="patch_3">
    <path d="M 47.523438 135.828125 
L 47.523438 11.88 
" style="fill: none; stroke: #000000; stroke-width: 0.5; stroke-linejoin: miter; stroke-linecap: square"/>
   </g>
   <g id="patch_4">
    <path d="M 400.316562 135.828125 
L 400.316562 11.88 
" style="fill: none; stroke: #000000; stroke-width: 0.5; stroke-linejoin: miter; stroke-linecap: square"/>
   </g>
   <g id="patch_5">
    <path d="M 47.523438 135.828125 
L 400.316562 135.828125 
" style="fill: none; stroke: #000000; stroke-width: 0.5; stroke-linejoin: miter; stroke-linecap: square"/>
   </g>
   <g id="patch_6">
    <path d="M 47.523438 11.88 
L 400.316562 11.88 
" style="fill: none; stroke: #000000; stroke-width: 0.5; stroke-linejoin: miter; stroke-linecap: square"/>
   </g>
  </g>
  <g id="axes_2">
   <g id="matplotlib.axis_3">
    <g id="ytick_5">
     <g id="line2d_11">
      <defs>
       <path id="m0ae0acdd8a" d="M 0 0 
L 3.5 0 
" style="stroke: #000000; stroke-width: 0.8"/>
      </defs>
      <g>
       <use xlink:href="#m0ae0acdd8a" x="400.316562" y="129.036447" style="stroke: #000000; stroke-width: 0.8"/>
      </g>
     </g>
     <g id="text_12">
      <!-- 50 -->
      <g transform="translate(407.316562 133.215588)scale(0.11 -0.11)">
       <use xlink:href="#DejaVuSerif-35"/>
       <use xlink:href="#DejaVuSerif-30" x="63.623047"/>
      </g>
     </g>
    </g>
    <g id="ytick_6">
     <g id="line2d_12">
      <g>
       <use xlink:href="#m0ae0acdd8a" x="400.316562" y="95.078057" style="stroke: #000000; stroke-width: 0.8"/>
      </g>
     </g>
     <g id="text_13">
      <!-- 55 -->
      <g transform="translate(407.316562 99.257197)scale(0.11 -0.11)">
       <use xlink:href="#DejaVuSerif-35"/>
       <use xlink:href="#DejaVuSerif-35" x="63.623047"/>
      </g>
     </g>
    </g>
    <g id="ytick_7">
     <g id="line2d_13">
      <g>
       <use xlink:href="#m0ae0acdd8a" x="400.316562" y="61.119666" style="stroke: #000000; stroke-width: 0.8"/>
      </g>
     </g>
     <g id="text_14">
      <!-- 60 -->
      <g transform="translate(407.316562 65.298807)scale(0.11 -0.11)">
       <use xlink:href="#DejaVuSerif-36"/>
       <use xlink:href="#DejaVuSerif-30" x="63.623047"/>
      </g>
     </g>
    </g>
    <g id="ytick_8">
     <g id="line2d_14">
      <g>
       <use xlink:href="#m0ae0acdd8a" x="400.316562" y="27.161276" style="stroke: #000000; stroke-width: 0.8"/>
      </g>
     </g>
     <g id="text_15">
      <!-- 65 -->
      <g transform="translate(407.316562 31.340416)scale(0.11 -0.11)">
       <use xlink:href="#DejaVuSerif-36"/>
       <use xlink:href="#DejaVuSerif-35" x="63.623047"/>
      </g>
     </g>
    </g>
    <g id="text_16">
     <!-- $T_{\mathrm{TWWS}}$ in °C -->
     <g transform="translate(433.672344 105.534063)rotate(-90)scale(0.11 -0.11)">
      <defs>
       <path id="DejaVuSans-54" d="M -19 4666 
L 3928 4666 
L 3928 4134 
L 2272 4134 
L 2272 0 
L 1638 0 
L 1638 4134 
L -19 4134 
L -19 4666 
z
" transform="scale(0.015625)"/>
       <path id="DejaVuSans-57" d="M 213 4666 
L 850 4666 
L 1831 722 
L 2809 4666 
L 3519 4666 
L 4500 722 
L 5478 4666 
L 6119 4666 
L 4947 0 
L 4153 0 
L 3169 4050 
L 2175 0 
L 1381 0 
L 213 4666 
z
" transform="scale(0.015625)"/>
      </defs>
      <use xlink:href="#DejaVuSans-Oblique-54" transform="translate(0 0.78125)"/>
      <use xlink:href="#DejaVuSans-54" transform="translate(61.083984 -15.625)scale(0.7)"/>
      <use xlink:href="#DejaVuSans-57" transform="translate(103.842773 -15.625)scale(0.7)"/>
      <use xlink:href="#DejaVuSans-57" transform="translate(173.056641 -15.625)scale(0.7)"/>
      <use xlink:href="#DejaVuSans-53" transform="translate(242.270508 -15.625)scale(0.7)"/>
      <use xlink:href="#DejaVuSerif-20" transform="translate(289.438477 0.78125)"/>
      <use xlink:href="#DejaVuSerif-69" transform="translate(321.225586 0.78125)"/>
      <use xlink:href="#DejaVuSerif-6e" transform="translate(353.208008 0.78125)"/>
      <use xlink:href="#DejaVuSerif-20" transform="translate(417.612305 0.78125)"/>
      <use xlink:href="#DejaVuSerif-b0" transform="translate(449.399414 0.78125)"/>
      <use xlink:href="#DejaVuSerif-43" transform="translate(499.399414 0.78125)"/>
     </g>
    </g>
   </g>
   <g id="line2d_15">
    <path d="M 63.559489 93.855554 
L 66.935499 94.466805 
L 70.31151 76.740526 
L 73.687521 77.351777 
L 77.063532 78.030945 
L 80.439542 78.642196 
L 83.815553 79.321363 
L 87.191564 79.932614 
L 90.567575 80.611782 
L 93.943586 81.223033 
L 97.319596 81.834284 
L 100.695607 82.513452 
L 104.071618 83.124703 
L 107.447629 83.735954 
L 110.823639 84.415122 
L 114.19965 85.026373 
L 117.575661 85.433874 
L 120.951672 86.045125 
L 124.327682 86.724292 
L 127.703693 87.335543 
L 131.079704 87.946795 
L 134.455715 88.558046 
L 137.831725 89.169297 
L 141.207736 89.780548 
L 144.583747 90.391799 
L 147.959758 91.00305 
L 151.335769 91.614301 
L 154.711779 73.888021 
L 158.08779 74.567189 
L 161.463801 75.246357 
L 164.839812 75.857608 
L 168.215822 76.536775 
L 171.591833 76.944276 
L 174.967844 77.623444 
L 178.343855 78.234695 
L 181.719865 78.913863 
L 185.095876 79.525114 
L 188.471887 80.204282 
L 191.847898 80.815533 
L 195.223908 84.550955 
L 198.599919 85.162207 
L 201.97593 85.773458 
L 205.351941 86.384709 
L 208.727952 68.726346 
L 212.103962 72.461768 
L 215.479973 73.140936 
L 218.855984 76.876359 
L 222.231995 77.48761 
L 225.608005 77.895111 
L 228.984016 78.574279 
L 232.360027 79.18553 
L 235.736038 79.864698 
L 239.112048 80.475949 
L 242.488059 81.155116 
L 245.86407 84.822623 
L 249.240081 88.558046 
L 252.616092 73.888021 
L 255.992102 74.567189 
L 259.368113 78.302612 
L 262.744124 82.038035 
L 266.120135 85.705541 
L 269.496145 86.384709 
L 272.872156 86.99596 
L 276.248167 69.26968 
L 279.624178 97.11556 
L 283.000188 82.445535 
L 286.376199 83.056786 
L 289.75221 74.635105 
L 293.128221 78.370528 
L 296.504231 78.981779 
L 299.880242 79.660947 
L 303.256253 125.436858 
L 306.632264 129.036447 
L 310.008275 80.747616 
L 313.384285 81.358867 
L 316.760296 114.434339 
L 320.136307 118.101845 
L 323.512318 118.645179 
L 326.888328 122.244769 
L 330.264339 122.788103 
L 333.64035 125.233107 
L 337.016361 125.708525 
L 340.392371 107.914328 
L 343.768382 108.525579 
L 347.144393 109.068913 
L 350.520404 109.612248 
L 353.896414 110.223499 
L 357.272425 113.891005 
L 360.648436 114.434339 
L 364.024447 114.977673 
L 367.400458 115.521008 
L 370.776468 116.064342 
L 374.152479 119.731848 
L 377.52849 123.331437 
L 380.904501 103.22807 
L 384.280511 125.368941 
" clip-path="url(#p459421d9f3)" style="fill: none; stroke-dasharray: 5.55,2.4; stroke-dashoffset: 0; stroke: #4b81c4; stroke-width: 1.5"/>
   </g>
   <g id="patch_7">
    <path d="M 47.523438 135.828125 
L 47.523438 11.88 
" style="fill: none; stroke: #000000; stroke-width: 0.5; stroke-linejoin: miter; stroke-linecap: square"/>
   </g>
   <g id="patch_8">
    <path d="M 400.316562 135.828125 
L 400.316562 11.88 
" style="fill: none; stroke: #000000; stroke-width: 0.5; stroke-linejoin: miter; stroke-linecap: square"/>
   </g>
   <g id="patch_9">
    <path d="M 47.523438 135.828125 
L 400.316562 135.828125 
" style="fill: none; stroke: #000000; stroke-width: 0.5; stroke-linejoin: miter; stroke-linecap: square"/>
   </g>
   <g id="patch_10">
    <path d="M 47.523438 11.88 
L 400.316562 11.88 
" style="fill: none; stroke: #000000; stroke-width: 0.5; stroke-linejoin: miter; stroke-linecap: square"/>
   </g>
   <g id="legend_1">
    <g id="patch_11">
     <path d="M 53.937538 47.942132 
L 111.664438 47.942132 
Q 113.497038 47.942132 113.497038 46.109532 
L 113.497038 18.2941 
Q 113.497038 16.4615 111.664438 16.4615 
L 53.937538 16.4615 
Q 52.104938 16.4615 52.104938 18.2941 
L 52.104938 46.109532 
Q 52.104938 47.942132 53.937538 47.942132 
z
" style="fill: #ffffff; opacity: 0.8; stroke: #cccccc; stroke-width: 1.5; stroke-linejoin: miter"/>
    </g>
    <g id="line2d_16">
     <path d="M 56.686438 24.798398 
L 65.849438 24.798398 
L 75.012438 24.798398 
" style="fill: none; stroke: #ec635c; stroke-width: 1.5; stroke-linecap: square"/>
    </g>
    <g id="text_17">
     <!-- $T_{\mathrm{PS}}$ -->
     <g transform="translate(82.342838 28.005448)scale(0.09163 -0.09163)">
      <use xlink:href="#DejaVuSans-Oblique-54" transform="translate(0 0.09375)"/>
      <use xlink:href="#DejaVuSans-50" transform="translate(61.083984 -16.3125)scale(0.7)"/>
      <use xlink:href="#DejaVuSans-53" transform="translate(103.295898 -16.3125)scale(0.7)"/>
     </g>
    </g>
    <g id="line2d_17">
     <path d="M 56.686438 38.247964 
L 65.849438 38.247964 
L 75.012438 38.247964 
" style="fill: none; stroke-dasharray: 5.55,2.4; stroke-dashoffset: 0; stroke: #4b81c4; stroke-width: 1.5"/>
    </g>
    <g id="text_18">
     <!-- $T_{\mathrm{TWWS}}$ -->
     <g transform="translate(82.342838 41.455014)scale(0.09163 -0.09163)">
      <use xlink:href="#DejaVuSans-Oblique-54" transform="translate(0 0.09375)"/>
      <use xlink:href="#DejaVuSans-54" transform="translate(61.083984 -16.3125)scale(0.7)"/>
      <use xlink:href="#DejaVuSans-57" transform="translate(103.842773 -16.3125)scale(0.7)"/>
      <use xlink:href="#DejaVuSans-57" transform="translate(173.056641 -16.3125)scale(0.7)"/>
      <use xlink:href="#DejaVuSans-53" transform="translate(242.270508 -16.3125)scale(0.7)"/>
     </g>
    </g>
   </g>
  </g>
 </g>
 <defs>
  <clipPath id="p459421d9f3">
   <rect x="47.523438" y="11.88" width="352.793125" height="123.948125"/>
  </clipPath>
 </defs>
</svg>
