<?xml version="1.0" encoding="utf-8" standalone="no"?>
<!DOCTYPE svg PUBLIC "-//W3C//DTD SVG 1.1//EN"
  "http://www.w3.org/Graphics/SVG/1.1/DTD/svg11.dtd">
<svg xmlns:xlink="http://www.w3.org/1999/xlink" width="447.84pt" height="180pt" viewBox="0 0 447.84 180" xmlns="http://www.w3.org/2000/svg" version="1.1">
 <metadata>
  <rdf:RDF xmlns:dc="http://purl.org/dc/elements/1.1/" xmlns:cc="http://creativecommons.org/ns#" xmlns:rdf="http://www.w3.org/1999/02/22-rdf-syntax-ns#">
   <cc:Work>
    <dc:type rdf:resource="http://purl.org/dc/dcmitype/StillImage"/>
    <dc:date>2023-05-04T10:11:09.711700</dc:date>
    <dc:format>image/svg+xml</dc:format>
    <dc:creator>
     <cc:Agent>
      <dc:title>Matplotlib v3.5.3, https://matplotlib.org/</dc:title>
     </cc:Agent>
    </dc:creator>
   </cc:Work>
  </rdf:RDF>
 </metadata>
 <defs>
  <style type="text/css">*{stroke-linejoin: round; stroke-linecap: butt}</style>
 </defs>
 <g id="figure_1">
  <g id="patch_1">
   <path d="M 0 180 
L 447.84 180 
L 447.84 0 
L 0 0 
z
" style="fill: #ffffff"/>
  </g>
  <g id="axes_1">
   <g id="patch_2">
    <path d="M 50.5175 72.347507 
L 407.315312 72.347507 
L 407.315312 26.238281 
L 50.5175 26.238281 
z
" style="fill: #ffffff"/>
   </g>
   <g id="matplotlib.axis_1">
    <g id="xtick_1">
     <g id="line2d_1">
      <defs>
       <path id="m107a525b5f" d="M 0 0 
L 0 3.5 
" style="stroke: #000000; stroke-width: 0.8"/>
      </defs>
      <g>
       <use xlink:href="#m107a525b5f" x="66.735582" y="72.347507" style="stroke: #000000; stroke-width: 0.8"/>
      </g>
     </g>
    </g>
    <g id="xtick_2">
     <g id="line2d_2">
      <g>
       <use xlink:href="#m107a525b5f" x="115.075619" y="72.347507" style="stroke: #000000; stroke-width: 0.8"/>
      </g>
     </g>
    </g>
    <g id="xtick_3">
     <g id="line2d_3">
      <g>
       <use xlink:href="#m107a525b5f" x="163.415656" y="72.347507" style="stroke: #000000; stroke-width: 0.8"/>
      </g>
     </g>
    </g>
    <g id="xtick_4">
     <g id="line2d_4">
      <g>
       <use xlink:href="#m107a525b5f" x="211.755693" y="72.347507" style="stroke: #000000; stroke-width: 0.8"/>
      </g>
     </g>
    </g>
    <g id="xtick_5">
     <g id="line2d_5">
      <g>
       <use xlink:href="#m107a525b5f" x="260.09573" y="72.347507" style="stroke: #000000; stroke-width: 0.8"/>
      </g>
     </g>
    </g>
    <g id="xtick_6">
     <g id="line2d_6">
      <g>
       <use xlink:href="#m107a525b5f" x="308.435767" y="72.347507" style="stroke: #000000; stroke-width: 0.8"/>
      </g>
     </g>
    </g>
    <g id="xtick_7">
     <g id="line2d_7">
      <g>
       <use xlink:href="#m107a525b5f" x="356.775804" y="72.347507" style="stroke: #000000; stroke-width: 0.8"/>
      </g>
     </g>
    </g>
    <g id="xtick_8">
     <g id="line2d_8">
      <g>
       <use xlink:href="#m107a525b5f" x="405.115841" y="72.347507" style="stroke: #000000; stroke-width: 0.8"/>
      </g>
     </g>
    </g>
   </g>
   <g id="matplotlib.axis_2">
    <g id="ytick_1">
     <g id="line2d_9">
      <defs>
       <path id="mcc32940cdd" d="M 0 0 
L -3.5 0 
" style="stroke: #000000; stroke-width: 0.8"/>
      </defs>
      <g>
       <use xlink:href="#mcc32940cdd" x="50.5175" y="70.251633" style="stroke: #000000; stroke-width: 0.8"/>
      </g>
     </g>
     <g id="text_1">
      <!-- 0 -->
      <g transform="translate(36.51875 74.430774)scale(0.11 -0.11)">
       <defs>
        <path id="DejaVuSerif-30" d="M 2034 219 
Q 2513 219 2750 744 
Q 2988 1269 2988 2328 
Q 2988 3391 2750 3916 
Q 2513 4441 2034 4441 
Q 1556 4441 1318 3916 
Q 1081 3391 1081 2328 
Q 1081 1269 1318 744 
Q 1556 219 2034 219 
z
M 2034 -91 
Q 1275 -91 848 546 
Q 422 1184 422 2328 
Q 422 3475 848 4112 
Q 1275 4750 2034 4750 
Q 2797 4750 3222 4112 
Q 3647 3475 3647 2328 
Q 3647 1184 3222 546 
Q 2797 -91 2034 -91 
z
" transform="scale(0.015625)"/>
       </defs>
       <use xlink:href="#DejaVuSerif-30"/>
      </g>
     </g>
    </g>
    <g id="ytick_2">
     <g id="line2d_10">
      <g>
       <use xlink:href="#mcc32940cdd" x="50.5175" y="49.292894" style="stroke: #000000; stroke-width: 0.8"/>
      </g>
     </g>
     <g id="text_2">
      <!-- 5 -->
      <g transform="translate(36.51875 53.472035)scale(0.11 -0.11)">
       <defs>
        <path id="DejaVuSerif-35" d="M 3219 4666 
L 3219 4153 
L 1081 4153 
L 1081 2816 
Q 1244 2928 1461 2984 
Q 1678 3041 1947 3041 
Q 2703 3041 3140 2622 
Q 3578 2203 3578 1478 
Q 3578 738 3136 323 
Q 2694 -91 1894 -91 
Q 1572 -91 1234 -12 
Q 897 66 544 225 
L 544 1131 
L 897 1131 
Q 925 688 1179 453 
Q 1434 219 1894 219 
Q 2388 219 2653 544 
Q 2919 869 2919 1478 
Q 2919 2084 2655 2407 
Q 2391 2731 1894 2731 
Q 1613 2731 1398 2631 
Q 1184 2531 1019 2322 
L 750 2322 
L 750 4666 
L 3219 4666 
z
" transform="scale(0.015625)"/>
       </defs>
       <use xlink:href="#DejaVuSerif-35"/>
      </g>
     </g>
    </g>
    <g id="ytick_3">
     <g id="line2d_11">
      <g>
       <use xlink:href="#mcc32940cdd" x="50.5175" y="28.334155" style="stroke: #000000; stroke-width: 0.8"/>
      </g>
     </g>
     <g id="text_3">
      <!-- 10 -->
      <g transform="translate(29.52 32.513296)scale(0.11 -0.11)">
       <defs>
        <path id="DejaVuSerif-31" d="M 909 0 
L 909 331 
L 1722 331 
L 1722 4213 
L 781 3603 
L 781 4013 
L 1919 4750 
L 2350 4750 
L 2350 331 
L 3163 331 
L 3163 0 
L 909 0 
z
" transform="scale(0.015625)"/>
       </defs>
       <use xlink:href="#DejaVuSerif-31"/>
       <use xlink:href="#DejaVuSerif-30" x="63.623047"/>
      </g>
     </g>
    </g>
    <g id="text_4">
     <!-- $\dot{Q_{\mathrm{WP}}}$ in kW -->
     <g transform="translate(23.232344 77.727894)rotate(-90)scale(0.11 -0.11)">
      <defs>
       <path id="DejaVuSans-307" d="M -1894 4863 
L -1319 4863 
L -1319 4134 
L -1894 4134 
L -1894 4863 
z
M -1600 3584 
L -1600 3584 
z
" transform="scale(0.015625)"/>
       <path id="DejaVuSans-Oblique-51" d="M 2309 -84 
Q 2275 -88 2237 -89 
Q 2200 -91 2125 -91 
Q 1250 -91 756 411 
Q 263 913 263 1797 
Q 263 2319 452 2844 
Q 641 3369 978 3788 
Q 1369 4269 1858 4509 
Q 2347 4750 2938 4750 
Q 3794 4750 4287 4245 
Q 4781 3741 4781 2869 
Q 4781 1928 4265 1147 
Q 3750 366 2919 44 
L 3553 -825 
L 2847 -825 
L 2309 -84 
z
M 2919 4238 
Q 2400 4238 2003 3986 
Q 1606 3734 1313 3219 
Q 1125 2891 1026 2522 
Q 928 2153 928 1778 
Q 928 1128 1239 775 
Q 1550 422 2119 422 
Q 2631 422 3032 676 
Q 3434 931 3719 1434 
Q 3909 1772 4009 2142 
Q 4109 2513 4109 2881 
Q 4109 3528 3796 3883 
Q 3484 4238 2919 4238 
z
" transform="scale(0.015625)"/>
       <path id="DejaVuSans-57" d="M 213 4666 
L 850 4666 
L 1831 722 
L 2809 4666 
L 3519 4666 
L 4500 722 
L 5478 4666 
L 6119 4666 
L 4947 0 
L 4153 0 
L 3169 4050 
L 2175 0 
L 1381 0 
L 213 4666 
z
" transform="scale(0.015625)"/>
       <path id="DejaVuSans-50" d="M 1259 4147 
L 1259 2394 
L 2053 2394 
Q 2494 2394 2734 2622 
Q 2975 2850 2975 3272 
Q 2975 3691 2734 3919 
Q 2494 4147 2053 4147 
L 1259 4147 
z
M 628 4666 
L 2053 4666 
Q 2838 4666 3239 4311 
Q 3641 3956 3641 3272 
Q 3641 2581 3239 2228 
Q 2838 1875 2053 1875 
L 1259 1875 
L 1259 0 
L 628 0 
L 628 4666 
z
" transform="scale(0.015625)"/>
       <path id="DejaVuSerif-20" transform="scale(0.015625)"/>
       <path id="DejaVuSerif-69" d="M 622 4353 
Q 622 4497 726 4603 
Q 831 4709 978 4709 
Q 1122 4709 1226 4603 
Q 1331 4497 1331 4353 
Q 1331 4206 1228 4103 
Q 1125 4000 978 4000 
Q 831 4000 726 4103 
Q 622 4206 622 4353 
z
M 1356 331 
L 1900 331 
L 1900 0 
L 231 0 
L 231 331 
L 781 331 
L 781 2988 
L 231 2988 
L 231 3322 
L 1356 3322 
L 1356 331 
z
" transform="scale(0.015625)"/>
       <path id="DejaVuSerif-6e" d="M 263 0 
L 263 331 
L 781 331 
L 781 2988 
L 231 2988 
L 231 3322 
L 1356 3322 
L 1356 2731 
Q 1516 3069 1770 3241 
Q 2025 3413 2363 3413 
Q 2913 3413 3172 3097 
Q 3431 2781 3431 2113 
L 3431 331 
L 3944 331 
L 3944 0 
L 2356 0 
L 2356 331 
L 2853 331 
L 2853 1931 
Q 2853 2541 2703 2767 
Q 2553 2994 2175 2994 
Q 1775 2994 1565 2701 
Q 1356 2409 1356 1850 
L 1356 331 
L 1856 331 
L 1856 0 
L 263 0 
z
" transform="scale(0.015625)"/>
       <path id="DejaVuSerif-6b" d="M 1831 0 
L 219 0 
L 219 331 
L 738 331 
L 738 4531 
L 184 4531 
L 184 4863 
L 1313 4863 
L 1313 1697 
L 2713 2988 
L 2234 2988 
L 2234 3322 
L 3738 3322 
L 3738 2988 
L 3169 2988 
L 2181 2075 
L 3444 331 
L 3922 331 
L 3922 0 
L 2284 0 
L 2284 331 
L 2759 331 
L 1766 1697 
L 1313 1275 
L 1313 331 
L 1831 331 
L 1831 0 
z
" transform="scale(0.015625)"/>
       <path id="DejaVuSerif-57" d="M 4878 0 
L 4366 0 
L 3297 3794 
L 2228 0 
L 1716 0 
L 494 4331 
L 31 4331 
L 31 4666 
L 1734 4666 
L 1734 4331 
L 1153 4331 
L 2125 884 
L 3188 4666 
L 3694 4666 
L 4775 844 
L 5753 4331 
L 5216 4331 
L 5216 4666 
L 6559 4666 
L 6559 4331 
L 6100 4331 
L 4878 0 
z
" transform="scale(0.015625)"/>
      </defs>
      <use xlink:href="#DejaVuSans-307" transform="translate(145.811523 31.015625)"/>
      <use xlink:href="#DejaVuSans-Oblique-51" transform="translate(0 0.296875)"/>
      <use xlink:href="#DejaVuSans-57" transform="translate(78.710938 -16.109375)scale(0.7)"/>
      <use xlink:href="#DejaVuSans-50" transform="translate(147.924805 -16.109375)scale(0.7)"/>
      <use xlink:href="#DejaVuSerif-20" transform="translate(192.871094 0.296875)"/>
      <use xlink:href="#DejaVuSerif-69" transform="translate(224.658203 0.296875)"/>
      <use xlink:href="#DejaVuSerif-6e" transform="translate(256.640625 0.296875)"/>
      <use xlink:href="#DejaVuSerif-20" transform="translate(321.044922 0.296875)"/>
      <use xlink:href="#DejaVuSerif-6b" transform="translate(352.832031 0.296875)"/>
      <use xlink:href="#DejaVuSerif-57" transform="translate(413.427734 0.296875)"/>
     </g>
    </g>
   </g>
   <g id="line2d_12">
    <path d="M 66.735582 49.105104 
L 69.635985 49.128578 
L 73.503188 49.012885 
L 76.40359 48.915637 
L 76.88699 46.797966 
L 77.370391 28.345892 
L 77.853791 59.772264 
L 78.337191 28.345892 
L 78.820592 58.318566 
L 79.303992 48.868689 
L 79.787392 44.554542 
L 80.270793 28.345892 
L 81.237593 28.345892 
L 81.720994 59.772264 
L 82.687795 28.345892 
L 83.171195 59.772264 
L 83.654595 41.449296 
L 84.137996 28.345892 
L 84.621396 59.772264 
L 85.588197 33.332395 
L 86.071597 28.345892 
L 86.554998 59.772264 
L 87.038398 40.956346 
L 87.521798 48.043753 
L 88.005199 53.073851 
L 88.971999 55.007085 
L 89.4554 42.760474 
L 89.9388 54.235803 
L 90.4222 57.862503 
L 90.905601 59.772264 
L 91.389001 70.251633 
L 91.872402 52.456825 
L 92.355802 58.37222 
L 94.289403 58.37222 
L 94.772804 56.968823 
L 95.256204 59.071403 
L 95.739605 58.37222 
L 96.223005 28.345892 
L 96.706405 34.650281 
L 97.189806 70.251633 
L 97.673206 53.538296 
L 98.156606 54.706956 
L 98.640007 54.353172 
L 99.123407 37.260901 
L 99.606807 70.251633 
L 100.573608 32.800882 
L 101.057009 42.091471 
L 101.540409 30.10978 
L 102.023809 70.251633 
L 102.50721 49.297924 
L 105.407612 45.27217 
L 105.891012 45.99818 
L 107.341213 46.076985 
L 107.824614 40.652864 
L 108.308014 28.345892 
L 108.791415 51.328407 
L 109.274815 46.791259 
L 113.142018 47.661466 
L 116.04242 47.938121 
L 117.976022 47.986746 
L 118.459422 47.988422 
L 118.942822 45.086056 
L 119.426223 28.345892 
L 119.909623 59.772264 
L 120.393023 47.921354 
L 123.293426 47.84758 
L 123.776826 44.641731 
L 124.260226 28.345892 
L 124.743627 54.990318 
L 125.227027 47.819076 
L 125.710427 47.820752 
L 126.193828 44.125307 
L 126.677228 28.345892 
L 127.160629 28.345892 
L 127.644029 47.020967 
L 128.61083 46.482746 
L 129.09423 38.962751 
L 129.57763 28.345892 
L 130.061031 59.772264 
L 130.544431 45.394569 
L 131.027831 46.092076 
L 131.511232 40.733345 
L 131.994632 28.345892 
L 132.478033 54.576173 
L 132.961433 28.739916 
L 133.444833 28.345892 
L 133.928234 51.413919 
L 134.411634 52.639586 
L 135.378435 54.599647 
L 136.345236 56.724025 
L 137.312036 59.772264 
L 137.795437 58.37222 
L 138.278837 58.37222 
L 138.762237 40.983173 
L 139.245638 52.456825 
L 139.729038 58.37222 
L 143.112841 58.37222 
L 143.596241 38.000326 
L 144.079641 70.251633 
L 144.563042 54.804204 
L 146.013243 53.836749 
L 146.496643 53.01852 
L 146.980044 52.446765 
L 147.463444 32.777408 
L 147.946844 44.752393 
L 148.430245 50.751622 
L 149.880446 49.064863 
L 150.363846 48.166152 
L 150.847247 32.683513 
L 151.330647 28.345892 
L 151.814047 70.251633 
L 152.297448 43.37247 
L 152.780848 28.345892 
L 153.264248 59.772264 
L 153.747649 28.345892 
L 154.231049 55.330688 
L 154.71445 46.792936 
L 157.131451 47.396547 
L 158.581653 47.701707 
L 159.065053 44.839581 
L 159.548453 28.347569 
L 160.031854 59.772264 
L 160.515254 47.996806 
L 162.932256 48.224837 
L 165.349258 48.369033 
L 166.799459 48.387477 
L 167.282859 46.420709 
L 167.76626 28.345892 
L 168.24966 59.772264 
L 168.73306 48.409274 
L 173.083664 48.504846 
L 173.567064 48.137648 
L 174.050464 40.362795 
L 174.533865 28.345892 
L 175.017265 70.251633 
L 175.500665 51.522904 
L 175.984066 47.257381 
L 176.950867 46.903598 
L 177.434267 47.413314 
L 178.884468 47.916324 
L 179.367868 50.094356 
L 179.851269 51.271399 
L 180.334669 35.688158 
L 180.81807 59.772264 
L 181.30147 54.455451 
L 182.751671 57.456742 
L 183.235071 44.583046 
L 183.718472 59.294404 
L 184.201872 58.070414 
L 184.685272 48.739583 
L 185.168673 46.013271 
L 185.652073 57.411471 
L 186.135474 28.345892 
L 186.618874 52.456825 
L 187.102274 58.37222 
L 188.069075 28.345892 
L 188.552475 42.114945 
L 189.035876 36.922208 
L 189.519276 55.711298 
L 190.486077 55.025528 
L 191.452878 54.557729 
L 194.35328 52.812286 
L 195.803481 51.973936 
L 196.286881 31.714381 
L 196.770282 54.76564 
L 197.253682 49.663445 
L 198.220483 48.120881 
L 198.703883 48.737907 
L 200.154084 48.514906 
L 200.637485 48.830125 
L 201.120885 48.952524 
L 201.604285 48.892163 
L 202.087686 28.345892 
L 203.054486 49.551106 
L 205.954889 50.391132 
L 210.788892 51.122173 
L 211.272293 31.999419 
L 211.755693 59.772264 
L 212.239094 51.268046 
L 214.656095 51.486017 
L 215.139496 32.69525 
L 215.622896 70.251633 
L 216.106296 51.606739 
L 216.589697 51.645303 
L 217.073097 33.008792 
L 217.556498 59.772264 
L 218.039898 33.156342 
L 218.523298 59.772264 
L 219.006699 51.83477 
L 219.490099 33.471561 
L 219.973499 70.251633 
L 220.4569 52.081245 
L 221.423701 52.238855 
L 221.907101 51.777762 
L 222.390501 51.583265 
L 222.873902 32.178826 
L 223.357302 44.412023 
L 223.840702 28.806984 
L 224.324103 28.345892 
L 224.807503 48.546763 
L 225.290903 47.834166 
L 225.774304 48.499815 
L 227.224505 48.437778 
L 227.707905 48.707726 
L 228.674706 48.959231 
L 229.158106 48.801621 
L 229.641507 28.345892 
L 230.124907 56.767619 
L 230.608308 49.415293 
L 231.575108 49.556136 
L 234.958911 49.95519 
L 236.409112 50.039025 
L 236.892512 29.747613 
L 237.375913 70.251633 
L 237.859313 50.11783 
L 238.826114 50.169808 
L 239.309514 29.571559 
L 239.792915 59.772264 
L 240.276315 49.903213 
L 240.759715 49.012885 
L 241.243116 28.345892 
L 241.726516 47.87273 
L 242.693317 28.345892 
L 243.176717 70.251633 
L 243.660118 28.345892 
L 244.143518 28.345892 
L 244.626918 45.183305 
L 245.110319 39.029819 
L 245.593719 28.345892 
L 246.077119 59.772264 
L 246.56052 46.045128 
L 247.04392 46.408972 
L 247.52732 46.611852 
L 248.010721 42.262495 
L 248.494121 28.345892 
L 248.977522 51.294873 
L 249.460922 44.23094 
L 249.944322 28.345892 
L 250.427723 59.772264 
L 250.911123 48.03537 
L 253.328125 48.808328 
L 254.778326 49.143668 
L 256.711927 49.443797 
L 259.61233 49.658415 
L 260.09573 49.688595 
L 260.57913 28.981361 
L 261.062531 50.199988 
L 261.545931 49.723806 
L 264.929734 49.74225 
L 265.896534 49.740573 
L 266.863335 49.536016 
L 267.346736 28.448171 
L 267.830136 59.772264 
L 268.313536 46.630296 
L 268.796937 28.345892 
L 269.280337 38.193146 
L 269.763737 42.728617 
L 270.247138 28.345892 
L 270.730538 28.345892 
L 271.213939 46.113873 
L 271.697339 45.60751 
L 272.180739 46.469333 
L 273.63094 47.010907 
L 274.597741 47.71512 
L 277.498143 49.410263 
L 278.464944 49.715422 
L 279.431745 50.104417 
L 280.398546 50.154718 
L 280.881946 50.236876 
L 281.365346 30.156727 
L 281.848747 59.772264 
L 282.332147 50.26035 
L 285.232549 50.240229 
L 285.71595 50.13292 
L 286.19935 29.683898 
L 286.68275 59.772264 
L 287.166151 49.965251 
L 287.649551 49.284511 
L 288.132951 46.843237 
L 288.616352 28.345892 
L 289.099752 43.627328 
L 289.583153 47.205404 
L 290.549953 45.864044 
L 291.033354 38.144522 
L 291.516754 28.345892 
L 292.000154 44.588076 
L 292.483555 45.922729 
L 292.966955 45.937819 
L 293.450356 46.271482 
L 293.933756 46.445859 
L 294.417156 41.558281 
L 294.900557 28.345892 
L 295.383957 28.345892 
L 295.867357 47.140013 
L 296.350758 43.56529 
L 296.834158 28.345892 
L 297.317558 59.539203 
L 297.800959 47.71009 
L 299.73456 48.132618 
L 301.668162 48.434424 
L 304.085164 48.685929 
L 309.885968 49.140315 
L 310.369368 48.701019 
L 310.852769 28.345892 
L 311.336169 51.82974 
L 311.81957 28.345892 
L 312.30297 70.251633 
L 312.78637 49.289541 
L 314.236571 49.297924 
L 314.719972 46.950546 
L 315.203372 28.345892 
L 315.686773 39.656904 
L 316.170173 43.297018 
L 316.653573 28.345892 
L 317.136974 28.345892 
L 317.620374 46.211121 
L 318.103774 45.677931 
L 318.587175 46.465979 
L 320.037376 46.858327 
L 320.520776 47.300976 
L 321.487577 47.876083 
L 321.970977 46.531371 
L 322.454378 28.345892 
L 322.937778 53.21637 
L 323.421178 48.997795 
L 324.387979 49.455534 
L 325.83818 50.141304 
L 326.804981 50.407899 
L 327.771782 50.738209 
L 328.738582 50.885758 
L 331.155584 51.340144 
L 331.638985 33.278741 
L 332.122385 59.772264 
L 332.605785 52.704977 
L 333.089186 53.161039 
L 333.572586 45.709788 
L 334.055987 28.345892 
L 335.022787 70.251633 
L 335.506188 54.225743 
L 335.989588 52.386404 
L 336.956389 50.751622 
L 337.439789 29.989057 
L 337.92319 59.772264 
L 338.40659 50.322387 
L 339.373391 50.040702 
L 339.856791 50.339154 
L 340.340191 30.507157 
L 340.823592 42.284292 
L 341.306992 30.944776 
L 341.790392 28.345892 
L 342.273793 50.912586 
L 347.107797 52.20029 
L 348.557998 52.37299 
L 349.041398 34.492671 
L 349.524798 59.772264 
L 350.008199 52.478623 
L 352.908601 52.595991 
L 354.358802 52.622819 
L 354.842202 34.833041 
L 355.325603 58.499649 
L 355.809003 52.580901 
L 358.709405 52.532277 
L 359.192806 53.278408 
L 359.676206 53.648958 
L 360.159606 38.030506 
L 360.643007 70.251633 
L 361.126407 54.316285 
L 361.609808 54.465511 
L 362.093208 38.997962 
L 362.576608 47.299299 
L 363.060009 35.188501 
L 363.543409 28.345892 
L 364.026809 32.252601 
L 364.51021 59.772264 
L 364.99361 32.52255 
L 365.477011 59.772264 
L 365.960411 51.32673 
L 366.443811 51.236188 
L 366.927212 51.554761 
L 368.377413 51.901838 
L 368.860813 34.07182 
L 369.344214 70.251633 
L 369.827614 52.50545 
L 371.277815 52.954805 
L 372.244616 53.253258 
L 373.211416 53.327032 
L 374.178217 53.476258 
L 375.145018 53.446078 
L 375.628418 36.548304 
L 376.111819 70.251633 
L 376.595219 36.491296 
L 377.078619 50.983007 
L 377.56202 53.427634 
L 378.04542 53.419251 
L 378.528821 53.751237 
L 379.012221 37.606301 
L 379.495621 28.345892 
L 379.979022 54.23748 
L 380.945822 28.345892 
L 381.429223 70.251633 
L 381.912623 70.251633 
L 382.396023 35.237125 
L 382.879424 28.345892 
L 383.362824 59.772264 
L 383.846225 70.251633 
L 384.329625 48.298612 
L 384.813025 47.195344 
L 385.296426 41.14749 
L 385.779826 28.345892 
L 386.263226 31.52156 
L 386.746627 46.49113 
L 387.230027 40.077756 
L 387.713428 28.345892 
L 388.196828 28.345892 
L 388.680228 46.258069 
L 391.09723 46.107166 
L 391.09723 46.107166 
" clip-path="url(#ped3f8f8f2d)" style="fill: none; stroke: #ec635c; stroke-width: 1.5; stroke-linecap: square"/>
   </g>
   <g id="patch_3">
    <path d="M 50.5175 72.347507 
L 50.5175 26.238281 
" style="fill: none; stroke: #000000; stroke-width: 0.5; stroke-linejoin: miter; stroke-linecap: square"/>
   </g>
   <g id="patch_4">
    <path d="M 407.315312 72.347507 
L 407.315312 26.238281 
" style="fill: none; stroke: #000000; stroke-width: 0.5; stroke-linejoin: miter; stroke-linecap: square"/>
   </g>
   <g id="patch_5">
    <path d="M 50.5175 72.347507 
L 407.315313 72.347507 
" style="fill: none; stroke: #000000; stroke-width: 0.5; stroke-linejoin: miter; stroke-linecap: square"/>
   </g>
   <g id="patch_6">
    <path d="M 50.5175 26.238281 
L 407.315313 26.238281 
" style="fill: none; stroke: #000000; stroke-width: 0.5; stroke-linejoin: miter; stroke-linecap: square"/>
   </g>
   <g id="text_5">
    <!-- Januarwoche -->
    <g transform="translate(50.5175 20.238281)scale(0.11 -0.11)">
     <defs>
      <path id="DejaVuSerif-4a" d="M -538 -1119 
L -538 -384 
L -181 -384 
Q -172 -694 -34 -845 
Q 103 -997 378 -997 
Q 750 -997 897 -762 
Q 1044 -528 1044 153 
L 1044 4331 
L 319 4331 
L 319 4666 
L 2272 4666 
L 2272 4331 
L 1678 4331 
L 1678 128 
Q 1678 -644 1368 -987 
Q 1059 -1331 372 -1331 
Q 150 -1331 -79 -1278 
Q -309 -1225 -538 -1119 
z
" transform="scale(0.015625)"/>
      <path id="DejaVuSerif-61" d="M 2547 1044 
L 2547 1747 
L 1806 1747 
Q 1378 1747 1168 1562 
Q 959 1378 959 997 
Q 959 650 1171 447 
Q 1384 244 1747 244 
Q 2106 244 2326 466 
Q 2547 688 2547 1044 
z
M 3122 2075 
L 3122 331 
L 3634 331 
L 3634 0 
L 2547 0 
L 2547 359 
Q 2356 128 2106 18 
Q 1856 -91 1522 -91 
Q 969 -91 644 203 
Q 319 497 319 997 
Q 319 1513 691 1797 
Q 1063 2081 1741 2081 
L 2547 2081 
L 2547 2309 
Q 2547 2688 2317 2895 
Q 2088 3103 1672 3103 
Q 1328 3103 1125 2947 
Q 922 2791 872 2484 
L 575 2484 
L 575 3156 
Q 875 3284 1158 3348 
Q 1441 3413 1709 3413 
Q 2400 3413 2761 3070 
Q 3122 2728 3122 2075 
z
" transform="scale(0.015625)"/>
      <path id="DejaVuSerif-75" d="M 2266 3322 
L 3341 3322 
L 3341 331 
L 3884 331 
L 3884 0 
L 2766 0 
L 2766 588 
Q 2606 256 2353 82 
Q 2100 -91 1766 -91 
Q 1213 -91 952 223 
Q 691 538 691 1209 
L 691 2988 
L 172 2988 
L 172 3322 
L 1269 3322 
L 1269 1388 
Q 1269 781 1417 556 
Q 1566 331 1947 331 
Q 2347 331 2556 625 
Q 2766 919 2766 1478 
L 2766 2988 
L 2266 2988 
L 2266 3322 
z
" transform="scale(0.015625)"/>
      <path id="DejaVuSerif-72" d="M 3059 3328 
L 3059 2497 
L 2728 2497 
Q 2713 2744 2591 2866 
Q 2469 2988 2234 2988 
Q 1809 2988 1582 2694 
Q 1356 2400 1356 1850 
L 1356 331 
L 2022 331 
L 2022 0 
L 263 0 
L 263 331 
L 781 331 
L 781 2994 
L 231 2994 
L 231 3322 
L 1356 3322 
L 1356 2731 
Q 1525 3078 1790 3245 
Q 2056 3413 2438 3413 
Q 2578 3413 2733 3391 
Q 2888 3369 3059 3328 
z
" transform="scale(0.015625)"/>
      <path id="DejaVuSerif-77" d="M 3072 3322 
L 3922 728 
L 4672 2988 
L 4191 2988 
L 4191 3322 
L 5394 3322 
L 5394 2988 
L 5025 2988 
L 4038 0 
L 3559 0 
L 2741 2484 
L 1919 0 
L 1459 0 
L 475 2988 
L 103 2988 
L 103 3322 
L 1606 3322 
L 1606 2988 
L 1069 2988 
L 1813 728 
L 2669 3322 
L 3072 3322 
z
" transform="scale(0.015625)"/>
      <path id="DejaVuSerif-6f" d="M 1925 219 
Q 2388 219 2623 584 
Q 2859 950 2859 1663 
Q 2859 2375 2623 2739 
Q 2388 3103 1925 3103 
Q 1463 3103 1227 2739 
Q 991 2375 991 1663 
Q 991 950 1228 584 
Q 1466 219 1925 219 
z
M 1925 -91 
Q 1200 -91 759 389 
Q 319 869 319 1663 
Q 319 2456 758 2934 
Q 1197 3413 1925 3413 
Q 2653 3413 3092 2934 
Q 3531 2456 3531 1663 
Q 3531 869 3092 389 
Q 2653 -91 1925 -91 
z
" transform="scale(0.015625)"/>
      <path id="DejaVuSerif-63" d="M 3291 997 
Q 3169 466 2822 187 
Q 2475 -91 1925 -91 
Q 1200 -91 759 389 
Q 319 869 319 1663 
Q 319 2459 759 2936 
Q 1200 3413 1925 3413 
Q 2241 3413 2553 3339 
Q 2866 3266 3181 3116 
L 3181 2266 
L 2847 2266 
Q 2781 2703 2561 2903 
Q 2341 3103 1931 3103 
Q 1466 3103 1228 2742 
Q 991 2381 991 1663 
Q 991 944 1227 581 
Q 1463 219 1931 219 
Q 2303 219 2525 412 
Q 2747 606 2828 997 
L 3291 997 
z
" transform="scale(0.015625)"/>
      <path id="DejaVuSerif-68" d="M 263 0 
L 263 331 
L 781 331 
L 781 4531 
L 231 4531 
L 231 4863 
L 1356 4863 
L 1356 2731 
Q 1516 3069 1770 3241 
Q 2025 3413 2363 3413 
Q 2913 3413 3172 3097 
Q 3431 2781 3431 2113 
L 3431 331 
L 3944 331 
L 3944 0 
L 2356 0 
L 2356 331 
L 2853 331 
L 2853 1931 
Q 2853 2541 2704 2764 
Q 2556 2988 2175 2988 
Q 1775 2988 1565 2697 
Q 1356 2406 1356 1850 
L 1356 331 
L 1856 331 
L 1856 0 
L 263 0 
z
" transform="scale(0.015625)"/>
      <path id="DejaVuSerif-65" d="M 3469 1600 
L 991 1600 
L 991 1575 
Q 991 903 1244 561 
Q 1497 219 1991 219 
Q 2369 219 2611 417 
Q 2853 616 2950 1006 
L 3413 1006 
Q 3275 459 2904 184 
Q 2534 -91 1931 -91 
Q 1203 -91 761 389 
Q 319 869 319 1663 
Q 319 2450 753 2931 
Q 1188 3413 1894 3413 
Q 2647 3413 3050 2948 
Q 3453 2484 3469 1600 
z
M 2791 1931 
Q 2772 2513 2545 2808 
Q 2319 3103 1894 3103 
Q 1497 3103 1269 2806 
Q 1041 2509 991 1931 
L 2791 1931 
z
" transform="scale(0.015625)"/>
     </defs>
     <use xlink:href="#DejaVuSerif-4a"/>
     <use xlink:href="#DejaVuSerif-61" x="40.087891"/>
     <use xlink:href="#DejaVuSerif-6e" x="99.707031"/>
     <use xlink:href="#DejaVuSerif-75" x="164.111328"/>
     <use xlink:href="#DejaVuSerif-61" x="228.515625"/>
     <use xlink:href="#DejaVuSerif-72" x="288.134766"/>
     <use xlink:href="#DejaVuSerif-77" x="335.9375"/>
     <use xlink:href="#DejaVuSerif-6f" x="421.533203"/>
     <use xlink:href="#DejaVuSerif-63" x="481.738281"/>
     <use xlink:href="#DejaVuSerif-68" x="537.744141"/>
     <use xlink:href="#DejaVuSerif-65" x="602.148438"/>
    </g>
   </g>
  </g>
  <g id="axes_2">
   <g id="patch_7">
    <path d="M 50.5175 135.828125 
L 407.315312 135.828125 
L 407.315312 89.718899 
L 50.5175 89.718899 
z
" style="fill: #ffffff"/>
   </g>
   <g id="matplotlib.axis_3">
    <g id="xtick_9">
     <g id="line2d_13">
      <g>
       <use xlink:href="#m107a525b5f" x="66.735582" y="135.828125" style="stroke: #000000; stroke-width: 0.8"/>
      </g>
     </g>
     <g id="text_6">
      <!-- 0 -->
      <g transform="translate(63.236207 151.186406)scale(0.11 -0.11)">
       <use xlink:href="#DejaVuSerif-30"/>
      </g>
     </g>
    </g>
    <g id="xtick_10">
     <g id="line2d_14">
      <g>
       <use xlink:href="#m107a525b5f" x="115.075619" y="135.828125" style="stroke: #000000; stroke-width: 0.8"/>
      </g>
     </g>
     <g id="text_7">
      <!-- 25 -->
      <g transform="translate(108.076869 151.186406)scale(0.11 -0.11)">
       <defs>
        <path id="DejaVuSerif-32" d="M 819 3553 
L 469 3553 
L 469 4384 
Q 803 4563 1142 4656 
Q 1481 4750 1806 4750 
Q 2534 4750 2956 4397 
Q 3378 4044 3378 3438 
Q 3378 2753 2422 1800 
Q 2347 1728 2309 1691 
L 1131 513 
L 3078 513 
L 3078 1088 
L 3444 1088 
L 3444 0 
L 434 0 
L 434 341 
L 1850 1753 
Q 2319 2222 2519 2614 
Q 2719 3006 2719 3438 
Q 2719 3909 2473 4175 
Q 2228 4441 1797 4441 
Q 1350 4441 1106 4219 
Q 863 3997 819 3553 
z
" transform="scale(0.015625)"/>
       </defs>
       <use xlink:href="#DejaVuSerif-32"/>
       <use xlink:href="#DejaVuSerif-35" x="63.623047"/>
      </g>
     </g>
    </g>
    <g id="xtick_11">
     <g id="line2d_15">
      <g>
       <use xlink:href="#m107a525b5f" x="163.415656" y="135.828125" style="stroke: #000000; stroke-width: 0.8"/>
      </g>
     </g>
     <g id="text_8">
      <!-- 50 -->
      <g transform="translate(156.416906 151.186406)scale(0.11 -0.11)">
       <use xlink:href="#DejaVuSerif-35"/>
       <use xlink:href="#DejaVuSerif-30" x="63.623047"/>
      </g>
     </g>
    </g>
    <g id="xtick_12">
     <g id="line2d_16">
      <g>
       <use xlink:href="#m107a525b5f" x="211.755693" y="135.828125" style="stroke: #000000; stroke-width: 0.8"/>
      </g>
     </g>
     <g id="text_9">
      <!-- 75 -->
      <g transform="translate(204.756943 151.186406)scale(0.11 -0.11)">
       <defs>
        <path id="DejaVuSerif-37" d="M 3609 4347 
L 1784 0 
L 1319 0 
L 3059 4153 
L 903 4153 
L 903 3578 
L 538 3578 
L 538 4666 
L 3609 4666 
L 3609 4347 
z
" transform="scale(0.015625)"/>
       </defs>
       <use xlink:href="#DejaVuSerif-37"/>
       <use xlink:href="#DejaVuSerif-35" x="63.623047"/>
      </g>
     </g>
    </g>
    <g id="xtick_13">
     <g id="line2d_17">
      <g>
       <use xlink:href="#m107a525b5f" x="260.09573" y="135.828125" style="stroke: #000000; stroke-width: 0.8"/>
      </g>
     </g>
     <g id="text_10">
      <!-- 100 -->
      <g transform="translate(249.597605 151.186406)scale(0.11 -0.11)">
       <use xlink:href="#DejaVuSerif-31"/>
       <use xlink:href="#DejaVuSerif-30" x="63.623047"/>
       <use xlink:href="#DejaVuSerif-30" x="127.246094"/>
      </g>
     </g>
    </g>
    <g id="xtick_14">
     <g id="line2d_18">
      <g>
       <use xlink:href="#m107a525b5f" x="308.435767" y="135.828125" style="stroke: #000000; stroke-width: 0.8"/>
      </g>
     </g>
     <g id="text_11">
      <!-- 125 -->
      <g transform="translate(297.937642 151.186406)scale(0.11 -0.11)">
       <use xlink:href="#DejaVuSerif-31"/>
       <use xlink:href="#DejaVuSerif-32" x="63.623047"/>
       <use xlink:href="#DejaVuSerif-35" x="127.246094"/>
      </g>
     </g>
    </g>
    <g id="xtick_15">
     <g id="line2d_19">
      <g>
       <use xlink:href="#m107a525b5f" x="356.775804" y="135.828125" style="stroke: #000000; stroke-width: 0.8"/>
      </g>
     </g>
     <g id="text_12">
      <!-- 150 -->
      <g transform="translate(346.277679 151.186406)scale(0.11 -0.11)">
       <use xlink:href="#DejaVuSerif-31"/>
       <use xlink:href="#DejaVuSerif-35" x="63.623047"/>
       <use xlink:href="#DejaVuSerif-30" x="127.246094"/>
      </g>
     </g>
    </g>
    <g id="xtick_16">
     <g id="line2d_20">
      <g>
       <use xlink:href="#m107a525b5f" x="405.115841" y="135.828125" style="stroke: #000000; stroke-width: 0.8"/>
      </g>
     </g>
     <g id="text_13">
      <!-- 175 -->
      <g transform="translate(394.617716 151.186406)scale(0.11 -0.11)">
       <use xlink:href="#DejaVuSerif-31"/>
       <use xlink:href="#DejaVuSerif-37" x="63.623047"/>
       <use xlink:href="#DejaVuSerif-35" x="127.246094"/>
      </g>
     </g>
    </g>
    <g id="text_14">
     <!-- Zeit in h -->
     <g transform="translate(205.530234 165.832344)scale(0.11 -0.11)">
      <defs>
       <path id="DejaVuSerif-5a" d="M 288 0 
L 288 225 
L 3194 4281 
L 781 4281 
L 781 3584 
L 397 3584 
L 397 4666 
L 4084 4666 
L 4084 4441 
L 1178 384 
L 3816 384 
L 3816 1038 
L 4197 1038 
L 4197 0 
L 288 0 
z
" transform="scale(0.015625)"/>
       <path id="DejaVuSerif-74" d="M 691 2988 
L 184 2988 
L 184 3322 
L 691 3322 
L 691 4353 
L 1269 4353 
L 1269 3322 
L 2350 3322 
L 2350 2988 
L 1269 2988 
L 1269 878 
Q 1269 456 1350 337 
Q 1431 219 1650 219 
Q 1875 219 1978 351 
Q 2081 484 2088 781 
L 2522 781 
Q 2497 328 2275 118 
Q 2053 -91 1600 -91 
Q 1103 -91 897 129 
Q 691 350 691 878 
L 691 2988 
z
" transform="scale(0.015625)"/>
      </defs>
      <use xlink:href="#DejaVuSerif-5a"/>
      <use xlink:href="#DejaVuSerif-65" x="69.482422"/>
      <use xlink:href="#DejaVuSerif-69" x="128.662109"/>
      <use xlink:href="#DejaVuSerif-74" x="160.644531"/>
      <use xlink:href="#DejaVuSerif-20" x="200.830078"/>
      <use xlink:href="#DejaVuSerif-69" x="232.617188"/>
      <use xlink:href="#DejaVuSerif-6e" x="264.599609"/>
      <use xlink:href="#DejaVuSerif-20" x="329.003906"/>
      <use xlink:href="#DejaVuSerif-68" x="360.791016"/>
     </g>
    </g>
   </g>
   <g id="matplotlib.axis_4">
    <g id="ytick_4">
     <g id="line2d_21">
      <g>
       <use xlink:href="#mcc32940cdd" x="50.5175" y="133.313076" style="stroke: #000000; stroke-width: 0.8"/>
      </g>
     </g>
     <g id="text_15">
      <!-- 20 -->
      <g transform="translate(29.52 137.492217)scale(0.11 -0.11)">
       <use xlink:href="#DejaVuSerif-32"/>
       <use xlink:href="#DejaVuSerif-30" x="63.623047"/>
      </g>
     </g>
    </g>
    <g id="ytick_5">
     <g id="line2d_22">
      <g>
       <use xlink:href="#mcc32940cdd" x="50.5175" y="112.354337" style="stroke: #000000; stroke-width: 0.8"/>
      </g>
     </g>
     <g id="text_16">
      <!-- 45 -->
      <g transform="translate(29.52 116.533478)scale(0.11 -0.11)">
       <defs>
        <path id="DejaVuSerif-34" d="M 2234 1581 
L 2234 4063 
L 641 1581 
L 2234 1581 
z
M 3609 0 
L 1484 0 
L 1484 331 
L 2234 331 
L 2234 1247 
L 197 1247 
L 197 1588 
L 2241 4750 
L 2859 4750 
L 2859 1581 
L 3750 1581 
L 3750 1247 
L 2859 1247 
L 2859 331 
L 3609 331 
L 3609 0 
z
" transform="scale(0.015625)"/>
       </defs>
       <use xlink:href="#DejaVuSerif-34"/>
       <use xlink:href="#DejaVuSerif-35" x="63.623047"/>
      </g>
     </g>
    </g>
    <g id="ytick_6">
     <g id="line2d_23">
      <g>
       <use xlink:href="#mcc32940cdd" x="50.5175" y="91.395598" style="stroke: #000000; stroke-width: 0.8"/>
      </g>
     </g>
     <g id="text_17">
      <!-- 70 -->
      <g transform="translate(29.52 95.574739)scale(0.11 -0.11)">
       <use xlink:href="#DejaVuSerif-37"/>
       <use xlink:href="#DejaVuSerif-30" x="63.623047"/>
      </g>
     </g>
    </g>
    <g id="text_18">
     <!-- $T$ in °C -->
     <g transform="translate(23.232344 131.913512)rotate(-90)scale(0.11 -0.11)">
      <defs>
       <path id="DejaVuSans-Oblique-54" d="M 378 4666 
L 4325 4666 
L 4225 4134 
L 2559 4134 
L 1759 0 
L 1125 0 
L 1925 4134 
L 275 4134 
L 378 4666 
z
" transform="scale(0.015625)"/>
       <path id="DejaVuSerif-b0" d="M 1600 4319 
Q 1363 4319 1200 4155 
Q 1038 3991 1038 3750 
Q 1038 3513 1198 3353 
Q 1359 3194 1600 3194 
Q 1838 3194 2000 3355 
Q 2163 3516 2163 3750 
Q 2163 3984 1997 4151 
Q 1831 4319 1600 4319 
z
M 1600 4750 
Q 1800 4750 1984 4673 
Q 2169 4597 2303 4453 
Q 2447 4313 2519 4134 
Q 2591 3956 2591 3750 
Q 2591 3338 2302 3052 
Q 2013 2766 1594 2766 
Q 1172 2766 890 3047 
Q 609 3328 609 3750 
Q 609 4169 896 4459 
Q 1184 4750 1600 4750 
z
" transform="scale(0.015625)"/>
       <path id="DejaVuSerif-43" d="M 4513 1234 
Q 4306 581 3820 245 
Q 3334 -91 2591 -91 
Q 2134 -91 1743 65 
Q 1353 222 1050 525 
Q 700 875 529 1320 
Q 359 1766 359 2328 
Q 359 3416 987 4083 
Q 1616 4750 2644 4750 
Q 3025 4750 3456 4650 
Q 3888 4550 4384 4347 
L 4384 3272 
L 4031 3272 
Q 3916 3859 3567 4137 
Q 3219 4416 2591 4416 
Q 1844 4416 1459 3886 
Q 1075 3356 1075 2328 
Q 1075 1303 1459 773 
Q 1844 244 2591 244 
Q 3113 244 3450 492 
Q 3788 741 3938 1234 
L 4513 1234 
z
" transform="scale(0.015625)"/>
      </defs>
      <use xlink:href="#DejaVuSans-Oblique-54" transform="translate(0 0.78125)"/>
      <use xlink:href="#DejaVuSerif-20" transform="translate(61.083984 0.78125)"/>
      <use xlink:href="#DejaVuSerif-69" transform="translate(92.871094 0.78125)"/>
      <use xlink:href="#DejaVuSerif-6e" transform="translate(124.853516 0.78125)"/>
      <use xlink:href="#DejaVuSerif-20" transform="translate(189.257812 0.78125)"/>
      <use xlink:href="#DejaVuSerif-b0" transform="translate(221.044922 0.78125)"/>
      <use xlink:href="#DejaVuSerif-43" transform="translate(271.044922 0.78125)"/>
     </g>
    </g>
   </g>
   <g id="line2d_24">
    <path d="M 66.735582 111.214182 
L 72.536387 111.222565 
L 76.40359 111.13873 
L 76.88699 109.931507 
L 77.370391 98.169463 
L 77.853791 110.509968 
L 78.337191 98.764691 
L 78.820592 111.105196 
L 79.303992 111.105196 
L 79.787392 108.640449 
L 80.270793 96.903555 
L 80.754193 109.394963 
L 81.237593 97.934725 
L 81.720994 110.694405 
L 82.204394 108.028454 
L 82.687795 97.01254 
L 83.171195 110.233313 
L 83.654595 107.022434 
L 84.137996 96.492764 
L 84.621396 109.973425 
L 85.104796 110.040493 
L 85.588197 102.14324 
L 86.071597 91.395598 
L 86.554998 104.054677 
L 87.038398 113.737614 
L 87.521798 112.178284 
L 88.971999 114.031036 
L 89.4554 107.022434 
L 89.9388 115.213109 
L 90.4222 115.74127 
L 90.905601 116.546085 
L 91.389001 119.958168 
L 91.872402 116.546085 
L 94.289403 116.546085 
L 94.772804 116.143677 
L 95.256204 116.546085 
L 95.739605 116.546085 
L 96.223005 100.332405 
L 97.189806 115.93409 
L 97.673206 114.852619 
L 98.640007 114.450211 
L 99.123407 104.658288 
L 99.606807 114.03942 
L 100.090208 113.645396 
L 100.573608 102.294143 
L 101.057009 112.865731 
L 101.540409 100.759963 
L 102.023809 112.094449 
L 105.407612 109.436881 
L 107.341213 109.495565 
L 107.824614 106.31822 
L 108.308014 96.040055 
L 108.791415 109.74707 
L 112.175217 110.25008 
L 116.04242 110.551886 
L 118.459422 110.602187 
L 118.942822 108.942255 
L 119.426223 97.716754 
L 119.909623 110.58542 
L 123.293426 110.526735 
L 123.776826 108.699133 
L 124.260226 97.557468 
L 124.743627 110.501585 
L 125.710427 110.501585 
L 126.193828 108.388944 
L 126.677228 97.255662 
L 127.160629 110.350682 
L 128.61083 109.88959 
L 129.09423 105.588856 
L 129.57763 95.394526 
L 130.061031 109.428497 
L 130.544431 109.269211 
L 131.027831 109.394963 
L 131.511232 106.326604 
L 131.994632 96.073589 
L 132.478033 109.763837 
L 132.961433 98.890443 
L 133.444833 111.163881 
L 135.378435 113.787915 
L 136.828636 115.74127 
L 137.312036 116.546085 
L 138.278837 116.546085 
L 138.762237 119.958168 
L 139.245638 116.546085 
L 143.112841 116.546085 
L 143.596241 106.326604 
L 144.079641 114.869386 
L 146.013243 114.131638 
L 146.980044 113.477726 
L 147.463444 102.218691 
L 147.946844 112.823813 
L 150.363846 111.121963 
L 151.330647 91.395598 
L 151.814047 105.027162 
L 152.297448 103.191177 
L 152.780848 92.795642 
L 153.264248 106.502657 
L 153.747649 96.14904 
L 154.231049 109.797371 
L 158.581653 110.384216 
L 159.065053 108.741051 
L 159.548453 97.616152 
L 160.031854 110.535119 
L 165.349258 110.803391 
L 166.799459 110.820158 
L 167.282859 109.696769 
L 167.76626 98.228147 
L 168.24966 110.836925 
L 173.567064 110.786624 
L 174.050464 106.334987 
L 174.533865 95.143021 
L 175.017265 108.129056 
L 175.500665 110.384216 
L 176.950867 110.08241 
L 178.884468 110.468051 
L 179.851269 111.80941 
L 180.334669 102.889371 
L 180.81807 113.159153 
L 182.751671 115.456231 
L 183.235071 108.422478 
L 183.718472 115.917323 
L 184.201872 116.143677 
L 184.685272 110.803391 
L 185.168673 117.099396 
L 185.652073 116.546085 
L 186.135474 119.958168 
L 186.618874 116.546085 
L 187.102274 116.546085 
L 187.585675 108.179356 
L 188.069075 115.79157 
L 188.552475 107.416458 
L 189.035876 115.414313 
L 191.936278 114.357993 
L 195.803481 113.041784 
L 196.286881 101.44741 
L 196.770282 112.438172 
L 198.220483 111.11358 
L 200.637485 111.012978 
L 201.120885 111.088429 
L 201.604285 111.046512 
L 202.087686 99.183866 
L 202.571086 111.314784 
L 206.438289 111.960313 
L 210.305492 112.33757 
L 210.788892 112.362721 
L 211.272293 101.422259 
L 211.755693 112.429789 
L 214.656095 112.580692 
L 215.139496 101.824667 
L 215.622896 112.630993 
L 216.589697 112.67291 
L 217.073097 102.009104 
L 217.556498 112.714828 
L 218.039898 102.092939 
L 218.523298 112.765129 
L 219.006699 112.781896 
L 219.490099 102.268992 
L 219.973499 112.848964 
L 221.423701 112.991483 
L 222.390501 112.773512 
L 222.873902 101.66538 
L 223.357302 112.547158 
L 223.840702 100.022215 
L 224.324103 111.733959 
L 225.290903 110.92076 
L 227.707905 110.94591 
L 228.674706 111.088429 
L 229.158106 110.996211 
L 229.641507 99.133565 
L 230.124907 111.289633 
L 233.025309 111.583056 
L 236.409112 111.759109 
L 236.892512 100.139584 
L 237.375913 111.792643 
L 238.826114 111.834561 
L 239.309514 100.097667 
L 239.792915 111.767493 
L 240.276315 111.733959 
L 240.759715 111.222565 
L 241.243116 99.100031 
L 241.726516 111.272866 
L 242.209916 105.169682 
L 242.693317 93.72621 
L 243.176717 106.737395 
L 243.660118 96.014904 
L 244.143518 109.738687 
L 244.626918 109.369813 
L 245.110319 105.446337 
L 245.593719 95.419676 
L 246.077119 109.436881 
L 247.04392 109.5794 
L 247.52732 109.696769 
L 248.010721 107.206871 
L 248.494121 96.660434 
L 248.977522 110.057259 
L 249.460922 108.330259 
L 249.944322 97.398181 
L 250.427723 110.426133 
L 254.294926 111.155497 
L 258.645529 111.507604 
L 260.09573 111.557905 
L 260.57913 99.712026 
L 261.062531 111.574672 
L 266.379935 111.566289 
L 266.863335 111.524371 
L 267.346736 99.452138 
L 267.830136 111.44892 
L 268.313536 110.006959 
L 268.796937 98.311982 
L 269.280337 110.878842 
L 269.763737 107.776949 
L 270.247138 96.761035 
L 270.730538 110.10756 
L 271.697339 109.529099 
L 274.114341 110.10756 
L 277.981544 111.365085 
L 279.915145 111.750726 
L 280.881946 111.842944 
L 281.365346 100.349172 
L 281.848747 111.893245 
L 285.71595 111.859711 
L 286.19935 100.156351 
L 286.68275 111.801027 
L 287.166151 111.767493 
L 287.649551 111.557905 
L 288.132951 110.157861 
L 288.616352 98.395817 
L 289.099752 110.92076 
L 290.549953 109.763837 
L 291.033354 105.345735 
L 291.516754 95.344225 
L 292.000154 109.403347 
L 293.450356 109.520716 
L 293.933756 109.621318 
L 294.417156 106.82123 
L 294.900557 96.383778 
L 295.383957 109.923124 
L 295.867357 110.015342 
L 296.350758 107.969769 
L 296.834158 97.129909 
L 297.317558 110.291997 
L 300.701361 110.744706 
L 308.435767 111.180648 
L 309.885968 111.239332 
L 310.369368 110.987828 
L 310.852769 99.066497 
L 311.336169 111.205798 
L 311.81957 99.24255 
L 312.30297 111.339934 
L 314.236571 111.348318 
L 314.719972 110.141094 
L 315.203372 98.429351 
L 315.686773 110.937527 
L 316.170173 108.053604 
L 316.653573 96.928705 
L 317.136974 110.191395 
L 318.103774 109.5794 
L 320.520776 110.048876 
L 321.487577 110.375832 
L 321.970977 109.604551 
L 322.454378 98.270065 
L 322.937778 110.862075 
L 325.35478 111.574672 
L 327.288381 111.985463 
L 328.738582 112.203434 
L 331.155584 112.471706 
L 331.638985 102.134856 
L 332.122385 112.781896 
L 333.089186 113.301672 
L 333.572586 109.042857 
L 334.055987 94.748997 
L 335.022787 113.930434 
L 335.506188 114.047803 
L 336.956389 112.64776 
L 337.439789 100.759963 
L 337.92319 112.102832 
L 339.373391 111.859711 
L 339.856791 111.901629 
L 340.340191 100.550375 
L 340.823592 111.993847 
L 341.306992 100.80188 
L 341.790392 112.119599 
L 348.557998 113.066934 
L 349.041398 102.83907 
L 349.524798 113.134002 
L 354.358802 113.251371 
L 354.842202 103.065424 
L 355.325603 113.242988 
L 358.709405 113.209454 
L 359.676206 113.628629 
L 360.159606 104.691822 
L 360.643007 114.056187 
L 361.609808 114.223857 
L 362.093208 105.370885 
L 362.576608 114.391527 
L 363.060009 103.694186 
L 363.543409 113.561561 
L 364.026809 102.009104 
L 364.51021 112.723211 
L 364.99361 101.799516 
L 365.477011 112.614226 
L 366.443811 112.513624 
L 368.377413 112.773512 
L 368.860813 102.537264 
L 369.344214 112.983099 
L 372.244616 113.528027 
L 375.145018 113.720847 
L 375.628418 104.046293 
L 376.111819 113.737614 
L 376.595219 104.029526 
L 377.078619 113.720847 
L 378.528821 113.804682 
L 379.012221 104.56607 
L 379.495621 113.997502 
L 379.979022 114.089721 
L 380.462422 106.787696 
L 380.945822 92.602822 
L 381.912623 113.100468 
L 382.396023 103.887007 
L 382.879424 91.395598 
L 383.362824 97.574235 
L 383.846225 110.291997 
L 384.329625 110.535119 
L 384.813025 110.342298 
L 385.296426 106.879915 
L 385.779826 96.308327 
L 386.263226 109.881206 
L 386.746627 109.814138 
L 387.230027 106.142167 
L 387.713428 95.855618 
L 388.196828 109.654852 
L 391.09723 109.537483 
L 391.09723 109.537483 
" clip-path="url(#p5df458882f)" style="fill: none; stroke-dasharray: 1.5,2.475; stroke-dashoffset: 0; stroke: #f49961; stroke-width: 1.5"/>
   </g>
   <g id="line2d_25">
    <path d="M 66.735582 106.611643 
L 73.019787 107.483526 
L 77.370391 108.053604 
L 77.853791 105.857128 
L 78.337191 106.301453 
L 78.820592 103.794788 
L 80.270793 104.021143 
L 80.754193 108.095522 
L 81.237593 108.162589 
L 81.720994 106.343371 
L 82.687795 106.46074 
L 83.171195 104.264264 
L 83.654595 104.339715 
L 84.137996 104.792424 
L 84.621396 102.604332 
L 86.071597 102.830686 
L 86.554998 100.650977 
L 87.038398 107.458376 
L 88.005199 107.584128 
L 88.488599 108.036837 
L 89.4554 108.162589 
L 89.9388 106.150551 
L 92.355802 106.494274 
L 93.806003 107.835633 
L 96.223005 108.162589 
L 96.706405 100.919249 
L 98.156606 101.13722 
L 99.123407 102.059405 
L 100.090208 102.218691 
L 100.573608 104.960094 
L 101.057009 98.949128 
L 102.023809 99.125181 
L 102.50721 99.586273 
L 103.957411 99.846162 
L 104.924212 100.768346 
L 105.407612 100.827031 
L 105.891012 101.288123 
L 106.857813 101.44741 
L 107.341213 106.594876 
L 107.824614 106.661944 
L 108.308014 107.114653 
L 108.791415 103.476215 
L 109.274815 103.551667 
L 109.758215 104.004376 
L 110.725016 104.155279 
L 111.208416 104.607987 
L 111.691817 104.675055 
L 112.175217 105.890662 
L 119.426223 106.896682 
L 119.909623 104.700206 
L 124.260226 105.328968 
L 124.743627 102.486963 
L 126.677228 102.797152 
L 127.160629 106.871531 
L 127.644029 106.938599 
L 128.127429 107.391308 
L 129.57763 107.567361 
L 130.061031 105.370885 
L 130.544431 105.823594 
L 131.994632 106.033182 
L 132.478033 102.713317 
L 132.961433 102.797152 
L 133.444833 106.871531 
L 134.411634 107.005667 
L 134.895034 107.458376 
L 135.861835 107.584128 
L 136.345236 107.877551 
L 138.278837 108.137439 
L 138.762237 101.883351 
L 140.212439 103.258245 
L 142.62944 103.643885 
L 143.112841 104.096594 
L 144.563042 104.297798 
L 145.529843 105.203216 
L 146.496643 105.345735 
L 146.980044 108.078755 
L 147.463444 108.137439 
L 147.946844 102.69655 
L 148.430245 102.780385 
L 148.913645 103.233094 
L 150.363846 103.459448 
L 151.330647 104.373249 
L 151.814047 104.42355 
L 152.297448 104.876259 
L 152.780848 104.951711 
L 153.264248 102.755235 
L 153.747649 107.902701 
L 154.231049 104.742123 
L 155.19785 105.647541 
L 155.68125 105.722992 
L 156.164651 106.167318 
L 157.131451 106.309837 
L 157.614852 106.754162 
L 158.098252 106.829614 
L 158.581653 108.036837 
L 159.548453 108.137439 
L 160.031854 105.940963 
L 167.76626 107.014051 
L 168.24966 104.825958 
L 170.666662 105.186449 
L 171.150062 105.630774 
L 173.083664 105.915813 
L 173.567064 106.360138 
L 178.884468 107.089502 
L 179.367868 107.533827 
L 180.334669 107.667963 
L 180.81807 105.471487 
L 181.30147 105.924196 
L 182.751671 106.108633 
L 183.235071 106.552958 
L 183.718472 104.255881 
L 184.685272 104.406783 
L 185.168673 99.24255 
L 185.652073 99.712026 
L 186.135474 103.794788 
L 187.585675 104.021143 
L 188.069075 108.095522 
L 188.552475 108.162589 
L 189.035876 102.16839 
L 189.519276 102.629482 
L 190.002677 105.370885 
L 191.452878 105.563706 
L 191.936278 106.008031 
L 192.903079 106.150551 
L 193.386479 106.594876 
L 194.35328 106.737395 
L 194.83668 107.181721 
L 195.320081 107.248788 
L 196.286881 108.137439 
L 196.770282 105.245133 
L 197.737082 106.142167 
L 199.670684 106.393672 
L 200.154084 106.846381 
L 202.087686 107.114653 
L 202.571086 100.709662 
L 203.054486 101.170754 
L 203.537887 101.254589 
L 204.021287 101.715681 
L 204.504688 106.863148 
L 204.988088 106.930216 
L 205.471488 107.374541 
L 207.88849 107.68473 
L 211.272293 108.137439 
L 211.755693 105.940963 
L 217.073097 106.678711 
L 217.556498 104.482235 
L 218.039898 104.557686 
L 218.523298 102.369594 
L 219.006699 105.102614 
L 219.973499 106.008031 
L 222.873902 106.393672 
L 223.357302 100.885715 
L 223.840702 101.346808 
L 224.324103 105.42957 
L 224.807503 105.882279 
L 226.257704 106.091866 
L 226.741105 106.536191 
L 228.674706 106.812847 
L 229.158106 107.114653 
L 229.641507 107.181721 
L 230.124907 104.331332 
L 230.608308 104.784041 
L 238.826114 105.974497 
L 239.309514 107.181721 
L 239.792915 105.370885 
L 240.276315 105.823594 
L 241.243116 105.95773 
L 241.726516 101.581545 
L 242.209916 101.656997 
L 242.693317 106.804463 
L 243.176717 107.257172 
L 243.660118 107.32424 
L 244.143518 98.722773 
L 244.626918 99.032963 
L 245.110319 99.502439 
L 245.593719 99.586273 
L 246.077119 97.792205 
L 247.04392 97.968259 
L 247.52732 98.437735 
L 248.010721 98.52157 
L 248.494121 98.991045 
L 248.977522 108.036837 
L 249.944322 108.162589 
L 250.427723 106.343371 
L 251.394523 106.48589 
L 251.877924 106.930216 
L 254.294926 107.240405 
L 260.57913 108.078755 
L 261.062531 103.811555 
L 264.929734 104.406783 
L 265.413134 107.139803 
L 266.379935 108.036837 
L 267.346736 108.162589 
L 267.830136 106.695478 
L 268.796937 106.829614 
L 269.280337 99.980298 
L 269.763737 100.064133 
L 270.247138 100.525225 
L 270.730538 104.607987 
L 271.213939 105.060696 
L 272.66414 105.278667 
L 273.14754 105.731376 
L 275.081142 106.008031 
L 275.564542 106.309837 
L 276.531343 106.443973 
L 277.014743 106.896682 
L 281.365346 107.49191 
L 281.848747 105.295434 
L 285.232549 105.76491 
L 285.71595 106.980517 
L 286.19935 107.424842 
L 286.68275 105.605623 
L 287.649551 105.748143 
L 288.132951 106.200852 
L 288.616352 106.267919 
L 289.099752 105.655924 
L 289.583153 106.108633 
L 290.066553 106.175701 
L 291.033354 106.930216 
L 291.516754 107.374541 
L 292.000154 101.900118 
L 292.483555 102.361211 
L 293.450356 102.520497 
L 293.933756 102.973206 
L 294.417156 103.048657 
L 294.900557 103.509749 
L 295.383957 107.584128 
L 296.350758 107.718264 
L 296.834158 108.162589 
L 297.317558 105.915813 
L 297.800959 105.982881 
L 298.284359 106.435589 
L 300.701361 106.754162 
L 310.852769 108.120672 
L 311.336169 104.213963 
L 311.81957 106.946983 
L 312.78637 107.835633 
L 315.203372 108.145822 
L 315.686773 101.598312 
L 316.170173 101.682147 
L 316.653573 102.14324 
L 317.136974 106.226002 
L 317.620374 106.670327 
L 319.070575 106.871531 
L 319.553975 107.32424 
L 321.487577 107.584128 
L 321.970977 107.877551 
L 322.454378 107.944619 
L 322.937778 104.331332 
L 323.421178 104.784041 
L 331.638985 105.974497 
L 332.122385 104.918177 
L 333.089186 105.823594 
L 334.055987 105.966114 
L 334.539387 101.531244 
L 335.022787 101.606696 
L 335.506188 106.754162 
L 335.989588 107.206871 
L 336.472988 107.273939 
L 337.439789 108.011687 
L 337.92319 106.200852 
L 338.40659 106.267919 
L 338.88999 106.712245 
L 339.856791 106.854764 
L 340.340191 107.299089 
L 340.823592 101.330041 
L 341.306992 101.791133 
L 341.790392 105.873895 
L 342.757193 106.008031 
L 343.240594 106.46074 
L 344.207394 106.594876 
L 344.690795 107.047585 
L 347.107797 107.357774 
L 349.041398 107.626046 
L 349.524798 105.42957 
L 354.842202 106.175701 
L 355.325603 103.70257 
L 357.742605 104.079827 
L 358.226005 106.812847 
L 359.192806 107.709881 
L 362.093208 108.070371 
L 362.576608 103.182793 
L 363.060009 103.643885 
L 363.543409 107.718264 
L 364.026809 108.162589 
L 364.51021 105.966114 
L 364.99361 106.033182 
L 365.477011 103.845089 
L 365.960411 104.297798 
L 367.894012 104.59122 
L 368.377413 104.893026 
L 369.344214 105.035546 
L 369.827614 105.488254 
L 376.595219 106.443973 
L 377.078619 102.352827 
L 378.04542 102.50373 
L 378.528821 103.72772 
L 379.012221 104.180429 
L 379.495621 95.587346 
L 380.462422 95.780166 
L 380.945822 96.249642 
L 381.429223 96.341861 
L 381.912623 101.506094 
L 382.396023 101.967186 
L 382.879424 102.042638 
L 383.362824 102.50373 
L 383.846225 102.805536 
L 384.329625 103.266628 
L 384.813025 103.34208 
L 385.296426 103.794788 
L 385.779826 103.87024 
L 386.263226 95.587346 
L 386.746627 96.065205 
L 387.230027 96.157424 
L 387.713428 96.6269 
L 388.196828 100.726429 
L 389.163629 100.885715 
L 389.647029 101.346808 
L 390.61383 101.506094 
L 391.09723 101.967186 
L 391.09723 101.967186 
" clip-path="url(#p5df458882f)" style="fill: none; stroke-dasharray: 9.6,2.4,1.5,2.4; stroke-dashoffset: 0; stroke: #8768b4; stroke-width: 1.5"/>
   </g>
   <g id="patch_8">
    <path d="M 50.5175 135.828125 
L 50.5175 89.718899 
" style="fill: none; stroke: #000000; stroke-width: 0.5; stroke-linejoin: miter; stroke-linecap: square"/>
   </g>
   <g id="patch_9">
    <path d="M 407.315312 135.828125 
L 407.315312 89.718899 
" style="fill: none; stroke: #000000; stroke-width: 0.5; stroke-linejoin: miter; stroke-linecap: square"/>
   </g>
   <g id="patch_10">
    <path d="M 50.5175 135.828125 
L 407.315313 135.828125 
" style="fill: none; stroke: #000000; stroke-width: 0.5; stroke-linejoin: miter; stroke-linecap: square"/>
   </g>
   <g id="patch_11">
    <path d="M 50.5175 89.718899 
L 407.315313 89.718899 
" style="fill: none; stroke: #000000; stroke-width: 0.5; stroke-linejoin: miter; stroke-linecap: square"/>
   </g>
  </g>
  <g id="axes_3">
   <g id="matplotlib.axis_5">
    <g id="ytick_7">
     <g id="line2d_26">
      <defs>
       <path id="m874fadaf93" d="M 0 0 
L 3.5 0 
" style="stroke: #000000; stroke-width: 0.8"/>
      </defs>
      <g>
       <use xlink:href="#m874fadaf93" x="407.315312" y="70.251633" style="stroke: #000000; stroke-width: 0.8"/>
      </g>
     </g>
     <g id="text_19">
      <!-- 0 -->
      <g transform="translate(414.315312 74.430774)scale(0.11 -0.11)">
       <use xlink:href="#DejaVuSerif-30"/>
      </g>
     </g>
    </g>
    <g id="ytick_8">
     <g id="line2d_27">
      <g>
       <use xlink:href="#m874fadaf93" x="407.315312" y="56.279141" style="stroke: #000000; stroke-width: 0.8"/>
      </g>
     </g>
     <g id="text_20">
      <!-- 1 -->
      <g transform="translate(414.315312 60.458281)scale(0.11 -0.11)">
       <use xlink:href="#DejaVuSerif-31"/>
      </g>
     </g>
    </g>
    <g id="ytick_9">
     <g id="line2d_28">
      <g>
       <use xlink:href="#m874fadaf93" x="407.315312" y="42.306648" style="stroke: #000000; stroke-width: 0.8"/>
      </g>
     </g>
     <g id="text_21">
      <!-- 2 -->
      <g transform="translate(414.315312 46.485788)scale(0.11 -0.11)">
       <use xlink:href="#DejaVuSerif-32"/>
      </g>
     </g>
    </g>
    <g id="ytick_10">
     <g id="line2d_29">
      <g>
       <use xlink:href="#m874fadaf93" x="407.315312" y="28.334155" style="stroke: #000000; stroke-width: 0.8"/>
      </g>
     </g>
     <g id="text_22">
      <!-- 3 -->
      <g transform="translate(414.315312 32.513296)scale(0.11 -0.11)">
       <defs>
        <path id="DejaVuSerif-33" d="M 622 4469 
Q 988 4606 1323 4678 
Q 1659 4750 1953 4750 
Q 2638 4750 3022 4454 
Q 3406 4159 3406 3634 
Q 3406 3213 3140 2930 
Q 2875 2647 2388 2547 
Q 2963 2466 3280 2130 
Q 3597 1794 3597 1259 
Q 3597 606 3158 257 
Q 2719 -91 1894 -91 
Q 1528 -91 1179 -12 
Q 831 66 488 225 
L 488 1131 
L 838 1131 
Q 869 681 1141 450 
Q 1413 219 1906 219 
Q 2384 219 2661 495 
Q 2938 772 2938 1253 
Q 2938 1803 2653 2086 
Q 2369 2369 1819 2369 
L 1522 2369 
L 1522 2688 
L 1678 2688 
Q 2225 2688 2498 2914 
Q 2772 3141 2772 3597 
Q 2772 4006 2547 4223 
Q 2322 4441 1900 4441 
Q 1478 4441 1245 4241 
Q 1013 4041 972 3647 
L 622 3647 
L 622 4469 
z
" transform="scale(0.015625)"/>
       </defs>
       <use xlink:href="#DejaVuSerif-33"/>
      </g>
     </g>
    </g>
    <g id="text_23">
     <!-- Modus -->
     <g transform="translate(433.672344 68.120941)rotate(-90)scale(0.11 -0.11)">
      <defs>
       <path id="DejaVuSerif-4d" d="M 353 0 
L 353 331 
L 947 331 
L 947 4331 
L 319 4331 
L 319 4666 
L 1678 4666 
L 3316 1344 
L 4953 4666 
L 6228 4666 
L 6228 4331 
L 5606 4331 
L 5606 331 
L 6203 331 
L 6203 0 
L 4378 0 
L 4378 331 
L 4972 331 
L 4972 3938 
L 3372 684 
L 2931 684 
L 1331 3938 
L 1331 331 
L 1925 331 
L 1925 0 
L 353 0 
z
" transform="scale(0.015625)"/>
       <path id="DejaVuSerif-64" d="M 3359 331 
L 3909 331 
L 3909 0 
L 2784 0 
L 2784 519 
Q 2616 206 2355 57 
Q 2094 -91 1709 -91 
Q 1097 -91 708 395 
Q 319 881 319 1663 
Q 319 2444 706 2928 
Q 1094 3413 1709 3413 
Q 2094 3413 2355 3264 
Q 2616 3116 2784 2803 
L 2784 4531 
L 2241 4531 
L 2241 4863 
L 3359 4863 
L 3359 331 
z
M 2784 1497 
L 2784 1825 
Q 2784 2422 2554 2737 
Q 2325 3053 1888 3053 
Q 1444 3053 1217 2703 
Q 991 2353 991 1663 
Q 991 975 1217 622 
Q 1444 269 1888 269 
Q 2325 269 2554 583 
Q 2784 897 2784 1497 
z
" transform="scale(0.015625)"/>
       <path id="DejaVuSerif-73" d="M 359 184 
L 359 959 
L 691 959 
Q 703 588 923 403 
Q 1144 219 1575 219 
Q 1963 219 2166 364 
Q 2369 509 2369 788 
Q 2369 1006 2220 1140 
Q 2072 1275 1594 1428 
L 1178 1569 
Q 750 1706 558 1912 
Q 366 2119 366 2438 
Q 366 2894 700 3153 
Q 1034 3413 1625 3413 
Q 1888 3413 2178 3344 
Q 2469 3275 2778 3144 
L 2778 2419 
L 2447 2419 
Q 2434 2741 2221 2922 
Q 2009 3103 1644 3103 
Q 1281 3103 1095 2975 
Q 909 2847 909 2591 
Q 909 2381 1050 2254 
Q 1191 2128 1613 1997 
L 2069 1856 
Q 2541 1709 2748 1489 
Q 2956 1269 2956 922 
Q 2956 450 2595 179 
Q 2234 -91 1600 -91 
Q 1278 -91 972 -22 
Q 666 47 359 184 
z
" transform="scale(0.015625)"/>
      </defs>
      <use xlink:href="#DejaVuSerif-4d"/>
      <use xlink:href="#DejaVuSerif-6f" x="102.392578"/>
      <use xlink:href="#DejaVuSerif-64" x="162.597656"/>
      <use xlink:href="#DejaVuSerif-75" x="226.611328"/>
      <use xlink:href="#DejaVuSerif-73" x="291.015625"/>
     </g>
    </g>
   </g>
   <g id="line2d_30">
    <path d="M 66.735582 42.306648 
L 77.370391 42.306648 
L 77.370391 28.334155 
L 77.853791 28.334155 
L 77.853791 42.306648 
L 78.337191 42.306648 
L 78.337191 28.334155 
L 78.820592 28.334155 
L 78.820592 42.306648 
L 80.270793 42.306648 
L 80.270793 28.334155 
L 80.754193 28.334155 
L 80.754193 42.306648 
L 81.237593 42.306648 
L 81.237593 28.334155 
L 81.720994 28.334155 
L 81.720994 42.306648 
L 82.687795 42.306648 
L 82.687795 28.334155 
L 83.171195 28.334155 
L 83.171195 42.306648 
L 84.137996 42.306648 
L 84.137996 28.334155 
L 84.621396 28.334155 
L 84.621396 42.306648 
L 86.071597 42.306648 
L 86.071597 28.334155 
L 87.038398 28.334155 
L 87.038398 42.306648 
L 89.4554 42.306648 
L 89.4554 28.334155 
L 89.9388 28.334155 
L 89.9388 42.306648 
L 90.4222 42.306648 
L 90.4222 56.279141 
L 90.905601 56.279141 
L 90.905601 70.251633 
L 91.389001 70.251633 
L 91.389001 56.279141 
L 94.289403 56.279141 
L 94.289403 42.306648 
L 94.772804 42.306648 
L 94.772804 56.279141 
L 95.739605 56.279141 
L 95.739605 42.306648 
L 96.223005 42.306648 
L 96.223005 28.334155 
L 96.706405 28.334155 
L 96.706405 70.251633 
L 97.189806 70.251633 
L 97.189806 42.306648 
L 99.123407 42.306648 
L 99.123407 70.251633 
L 99.606807 70.251633 
L 99.606807 42.306648 
L 100.573608 42.306648 
L 100.573608 28.334155 
L 101.057009 28.334155 
L 101.057009 42.306648 
L 101.540409 42.306648 
L 101.540409 70.251633 
L 102.023809 70.251633 
L 102.023809 42.306648 
L 108.308014 42.306648 
L 108.308014 28.334155 
L 108.791415 28.334155 
L 108.791415 42.306648 
L 119.426223 42.306648 
L 119.426223 28.334155 
L 119.909623 28.334155 
L 119.909623 42.306648 
L 124.260226 42.306648 
L 124.260226 28.334155 
L 124.743627 28.334155 
L 124.743627 42.306648 
L 126.677228 42.306648 
L 126.677228 28.334155 
L 127.160629 28.334155 
L 127.160629 42.306648 
L 129.57763 42.306648 
L 129.57763 28.334155 
L 130.061031 28.334155 
L 130.061031 42.306648 
L 131.994632 42.306648 
L 131.994632 28.334155 
L 132.478033 28.334155 
L 132.478033 42.306648 
L 132.961433 42.306648 
L 132.961433 28.334155 
L 133.444833 28.334155 
L 133.444833 42.306648 
L 136.828636 42.306648 
L 136.828636 56.279141 
L 138.278837 56.279141 
L 138.278837 28.334155 
L 138.762237 28.334155 
L 138.762237 56.279141 
L 143.112841 56.279141 
L 143.112841 42.306648 
L 143.596241 42.306648 
L 143.596241 70.251633 
L 144.079641 70.251633 
L 144.079641 42.306648 
L 147.463444 42.306648 
L 147.463444 28.334155 
L 147.946844 28.334155 
L 147.946844 42.306648 
L 151.330647 42.306648 
L 151.330647 70.251633 
L 151.814047 70.251633 
L 151.814047 42.306648 
L 152.780848 42.306648 
L 152.780848 28.334155 
L 153.264248 28.334155 
L 153.264248 42.306648 
L 153.747649 42.306648 
L 153.747649 28.334155 
L 154.231049 28.334155 
L 154.231049 42.306648 
L 159.548453 42.306648 
L 159.548453 28.334155 
L 160.031854 28.334155 
L 160.031854 42.306648 
L 167.76626 42.306648 
L 167.76626 28.334155 
L 168.24966 28.334155 
L 168.24966 42.306648 
L 174.533865 42.306648 
L 174.533865 70.251633 
L 175.017265 70.251633 
L 175.017265 42.306648 
L 180.334669 42.306648 
L 180.334669 28.334155 
L 180.81807 28.334155 
L 180.81807 42.306648 
L 183.235071 42.306648 
L 183.235071 28.334155 
L 183.718472 28.334155 
L 183.718472 42.306648 
L 184.685272 42.306648 
L 184.685272 28.334155 
L 185.168673 28.334155 
L 185.168673 56.279141 
L 185.652073 56.279141 
L 185.652073 28.334155 
L 186.135474 28.334155 
L 186.135474 56.279141 
L 187.102274 56.279141 
L 187.102274 42.306648 
L 187.585675 42.306648 
L 187.585675 28.334155 
L 188.069075 28.334155 
L 188.069075 42.306648 
L 188.552475 42.306648 
L 188.552475 28.334155 
L 189.035876 28.334155 
L 189.035876 42.306648 
L 196.286881 42.306648 
L 196.286881 28.334155 
L 196.770282 28.334155 
L 196.770282 42.306648 
L 202.087686 42.306648 
L 202.087686 28.334155 
L 202.571086 28.334155 
L 202.571086 42.306648 
L 211.272293 42.306648 
L 211.272293 28.334155 
L 211.755693 28.334155 
L 211.755693 42.306648 
L 215.139496 42.306648 
L 215.139496 70.251633 
L 215.622896 70.251633 
L 215.622896 42.306648 
L 217.073097 42.306648 
L 217.073097 28.334155 
L 217.556498 28.334155 
L 217.556498 42.306648 
L 218.039898 42.306648 
L 218.039898 28.334155 
L 218.523298 28.334155 
L 218.523298 42.306648 
L 219.490099 42.306648 
L 219.490099 70.251633 
L 219.973499 70.251633 
L 219.973499 42.306648 
L 222.873902 42.306648 
L 222.873902 28.334155 
L 223.357302 28.334155 
L 223.357302 42.306648 
L 223.840702 42.306648 
L 223.840702 28.334155 
L 224.324103 28.334155 
L 224.324103 42.306648 
L 229.641507 42.306648 
L 229.641507 28.334155 
L 230.124907 28.334155 
L 230.124907 42.306648 
L 236.892512 42.306648 
L 236.892512 70.251633 
L 237.375913 70.251633 
L 237.375913 42.306648 
L 239.309514 42.306648 
L 239.309514 28.334155 
L 239.792915 28.334155 
L 239.792915 42.306648 
L 241.243116 42.306648 
L 241.243116 28.334155 
L 241.726516 28.334155 
L 241.726516 42.306648 
L 242.693317 42.306648 
L 242.693317 70.251633 
L 243.176717 70.251633 
L 243.176717 42.306648 
L 243.660118 42.306648 
L 243.660118 28.334155 
L 244.143518 28.334155 
L 244.143518 42.306648 
L 245.593719 42.306648 
L 245.593719 28.334155 
L 246.077119 28.334155 
L 246.077119 42.306648 
L 248.494121 42.306648 
L 248.494121 28.334155 
L 248.977522 28.334155 
L 248.977522 42.306648 
L 249.944322 42.306648 
L 249.944322 28.334155 
L 250.427723 28.334155 
L 250.427723 42.306648 
L 260.57913 42.306648 
L 260.57913 28.334155 
L 261.062531 28.334155 
L 261.062531 42.306648 
L 267.346736 42.306648 
L 267.346736 28.334155 
L 267.830136 28.334155 
L 267.830136 42.306648 
L 268.796937 42.306648 
L 268.796937 28.334155 
L 269.280337 28.334155 
L 269.280337 42.306648 
L 270.247138 42.306648 
L 270.247138 28.334155 
L 270.730538 28.334155 
L 270.730538 42.306648 
L 281.365346 42.306648 
L 281.365346 28.334155 
L 281.848747 28.334155 
L 281.848747 42.306648 
L 286.19935 42.306648 
L 286.19935 28.334155 
L 286.68275 28.334155 
L 286.68275 42.306648 
L 288.616352 42.306648 
L 288.616352 28.334155 
L 289.099752 28.334155 
L 289.099752 42.306648 
L 291.516754 42.306648 
L 291.516754 28.334155 
L 292.000154 28.334155 
L 292.000154 42.306648 
L 294.900557 42.306648 
L 294.900557 28.334155 
L 295.383957 28.334155 
L 295.383957 42.306648 
L 296.834158 42.306648 
L 296.834158 28.334155 
L 297.317558 28.334155 
L 297.317558 42.306648 
L 310.852769 42.306648 
L 310.852769 28.334155 
L 311.336169 28.334155 
L 311.336169 42.306648 
L 311.81957 42.306648 
L 311.81957 70.251633 
L 312.30297 70.251633 
L 312.30297 42.306648 
L 315.203372 42.306648 
L 315.203372 28.334155 
L 315.686773 28.334155 
L 315.686773 42.306648 
L 316.653573 42.306648 
L 316.653573 28.334155 
L 317.136974 28.334155 
L 317.136974 42.306648 
L 322.454378 42.306648 
L 322.454378 28.334155 
L 322.937778 28.334155 
L 322.937778 42.306648 
L 331.638985 42.306648 
L 331.638985 28.334155 
L 332.122385 28.334155 
L 332.122385 42.306648 
L 334.055987 42.306648 
L 334.055987 28.334155 
L 334.539387 28.334155 
L 334.539387 70.251633 
L 335.022787 70.251633 
L 335.022787 42.306648 
L 337.439789 42.306648 
L 337.439789 28.334155 
L 337.92319 28.334155 
L 337.92319 42.306648 
L 340.340191 42.306648 
L 340.340191 28.334155 
L 340.823592 28.334155 
L 340.823592 42.306648 
L 341.306992 42.306648 
L 341.306992 28.334155 
L 341.790392 28.334155 
L 341.790392 42.306648 
L 349.041398 42.306648 
L 349.041398 28.334155 
L 349.524798 28.334155 
L 349.524798 42.306648 
L 354.842202 42.306648 
L 354.842202 28.334155 
L 355.325603 28.334155 
L 355.325603 42.306648 
L 360.159606 42.306648 
L 360.159606 70.251633 
L 360.643007 70.251633 
L 360.643007 42.306648 
L 362.093208 42.306648 
L 362.093208 28.334155 
L 362.576608 28.334155 
L 362.576608 42.306648 
L 363.060009 42.306648 
L 363.060009 28.334155 
L 363.543409 28.334155 
L 363.543409 42.306648 
L 364.026809 42.306648 
L 364.026809 28.334155 
L 364.51021 28.334155 
L 364.51021 42.306648 
L 364.99361 42.306648 
L 364.99361 28.334155 
L 365.477011 28.334155 
L 365.477011 42.306648 
L 368.860813 42.306648 
L 368.860813 70.251633 
L 369.344214 70.251633 
L 369.344214 42.306648 
L 375.628418 42.306648 
L 375.628418 70.251633 
L 376.111819 70.251633 
L 376.111819 42.306648 
L 376.595219 42.306648 
L 376.595219 28.334155 
L 377.078619 28.334155 
L 377.078619 42.306648 
L 379.012221 42.306648 
L 379.012221 28.334155 
L 379.495621 28.334155 
L 379.495621 42.306648 
L 380.945822 42.306648 
L 380.945822 70.251633 
L 381.912623 70.251633 
L 381.912623 42.306648 
L 383.362824 42.306648 
L 383.362824 70.251633 
L 383.846225 70.251633 
L 383.846225 42.306648 
L 385.779826 42.306648 
L 385.779826 28.334155 
L 386.263226 28.334155 
L 386.263226 42.306648 
L 387.713428 42.306648 
L 387.713428 28.334155 
L 388.196828 28.334155 
L 388.196828 42.306648 
L 391.09723 42.306648 
L 391.09723 42.306648 
" clip-path="url(#ped3f8f8f2d)" style="fill: none; stroke-dasharray: 5.55,2.4; stroke-dashoffset: 0; stroke: #4b81c4; stroke-width: 1.5"/>
   </g>
   <g id="patch_12">
    <path d="M 50.5175 72.347507 
L 50.5175 26.238281 
" style="fill: none; stroke: #000000; stroke-width: 0.5; stroke-linejoin: miter; stroke-linecap: square"/>
   </g>
   <g id="patch_13">
    <path d="M 407.315312 72.347507 
L 407.315312 26.238281 
" style="fill: none; stroke: #000000; stroke-width: 0.5; stroke-linejoin: miter; stroke-linecap: square"/>
   </g>
   <g id="patch_14">
    <path d="M 50.5175 72.347507 
L 407.315313 72.347507 
" style="fill: none; stroke: #000000; stroke-width: 0.5; stroke-linejoin: miter; stroke-linecap: square"/>
   </g>
   <g id="patch_15">
    <path d="M 50.5175 26.238281 
L 407.315313 26.238281 
" style="fill: none; stroke: #000000; stroke-width: 0.5; stroke-linejoin: miter; stroke-linecap: square"/>
   </g>
  </g>
  <g id="legend_1">
   <g id="line2d_31">
    <path d="M 173.252174 15.412452 
L 182.415174 15.412452 
L 191.578174 15.412452 
" style="fill: none; stroke: #ec635c; stroke-width: 1.5; stroke-linecap: square"/>
   </g>
   <g id="text_24">
    <!-- $\dot{Q_{\mathrm{WP}}}$ -->
    <g transform="translate(198.908574 18.619502)scale(0.09163 -0.09163)">
     <use xlink:href="#DejaVuSans-307" transform="translate(145.811523 31.015625)"/>
     <use xlink:href="#DejaVuSans-Oblique-51" transform="translate(0 0.296875)"/>
     <use xlink:href="#DejaVuSans-57" transform="translate(78.710938 -16.109375)scale(0.7)"/>
     <use xlink:href="#DejaVuSans-50" transform="translate(147.924805 -16.109375)scale(0.7)"/>
    </g>
   </g>
   <g id="line2d_32">
    <path d="M 234.919164 15.412452 
L 244.082164 15.412452 
L 253.245164 15.412452 
" style="fill: none; stroke-dasharray: 1.5,2.475; stroke-dashoffset: 0; stroke: #f49961; stroke-width: 1.5"/>
   </g>
   <g id="text_25">
    <!-- $T_{\mathrm{PS}}$ -->
    <g transform="translate(260.575564 18.619502)scale(0.09163 -0.09163)">
     <defs>
      <path id="DejaVuSans-53" d="M 3425 4513 
L 3425 3897 
Q 3066 4069 2747 4153 
Q 2428 4238 2131 4238 
Q 1616 4238 1336 4038 
Q 1056 3838 1056 3469 
Q 1056 3159 1242 3001 
Q 1428 2844 1947 2747 
L 2328 2669 
Q 3034 2534 3370 2195 
Q 3706 1856 3706 1288 
Q 3706 609 3251 259 
Q 2797 -91 1919 -91 
Q 1588 -91 1214 -16 
Q 841 59 441 206 
L 441 856 
Q 825 641 1194 531 
Q 1563 422 1919 422 
Q 2459 422 2753 634 
Q 3047 847 3047 1241 
Q 3047 1584 2836 1778 
Q 2625 1972 2144 2069 
L 1759 2144 
Q 1053 2284 737 2584 
Q 422 2884 422 3419 
Q 422 4038 858 4394 
Q 1294 4750 2059 4750 
Q 2388 4750 2728 4690 
Q 3069 4631 3425 4513 
z
" transform="scale(0.015625)"/>
     </defs>
     <use xlink:href="#DejaVuSans-Oblique-54" transform="translate(0 0.09375)"/>
     <use xlink:href="#DejaVuSans-50" transform="translate(61.083984 -16.3125)scale(0.7)"/>
     <use xlink:href="#DejaVuSans-53" transform="translate(103.295898 -16.3125)scale(0.7)"/>
    </g>
   </g>
   <g id="line2d_33">
    <path d="M 292.737694 15.412452 
L 301.900694 15.412452 
L 311.063694 15.412452 
" style="fill: none; stroke-dasharray: 9.6,2.4,1.5,2.4; stroke-dashoffset: 0; stroke: #8768b4; stroke-width: 1.5"/>
   </g>
   <g id="text_26">
    <!-- $T_{\mathrm{TWW}}$ -->
    <g transform="translate(318.394094 18.619502)scale(0.09163 -0.09163)">
     <defs>
      <path id="DejaVuSans-54" d="M -19 4666 
L 3928 4666 
L 3928 4134 
L 2272 4134 
L 2272 0 
L 1638 0 
L 1638 4134 
L -19 4134 
L -19 4666 
z
" transform="scale(0.015625)"/>
     </defs>
     <use xlink:href="#DejaVuSans-Oblique-54" transform="translate(0 0.09375)"/>
     <use xlink:href="#DejaVuSans-54" transform="translate(61.083984 -16.3125)scale(0.7)"/>
     <use xlink:href="#DejaVuSans-57" transform="translate(103.842773 -16.3125)scale(0.7)"/>
     <use xlink:href="#DejaVuSans-57" transform="translate(173.056641 -16.3125)scale(0.7)"/>
    </g>
   </g>
   <g id="line2d_34">
    <path d="M 359.261074 15.412452 
L 359.261074 15.412452 
L 368.424074 15.412452 
L 368.424074 15.412452 
L 377.587074 15.412452 
" style="fill: none; stroke-dasharray: 5.55,2.4; stroke-dashoffset: 0; stroke: #4b81c4; stroke-width: 1.5"/>
   </g>
   <g id="text_27">
    <!-- Modus -->
    <g transform="translate(384.917474 18.619502)scale(0.09163 -0.09163)">
     <use xlink:href="#DejaVuSerif-4d"/>
     <use xlink:href="#DejaVuSerif-6f" x="102.392578"/>
     <use xlink:href="#DejaVuSerif-64" x="162.597656"/>
     <use xlink:href="#DejaVuSerif-75" x="226.611328"/>
     <use xlink:href="#DejaVuSerif-73" x="291.015625"/>
    </g>
   </g>
  </g>
 </g>
 <defs>
  <clipPath id="ped3f8f8f2d">
   <rect x="50.5175" y="26.238281" width="356.797812" height="46.109226"/>
  </clipPath>
  <clipPath id="p5df458882f">
   <rect x="50.5175" y="89.718899" width="356.797812" height="46.109226"/>
  </clipPath>
 </defs>
</svg>
