<?xml version="1.0" encoding="utf-8" standalone="no"?>
<!DOCTYPE svg PUBLIC "-//W3C//DTD SVG 1.1//EN"
  "http://www.w3.org/Graphics/SVG/1.1/DTD/svg11.dtd">
<svg xmlns:xlink="http://www.w3.org/1999/xlink" width="447.84pt" height="566.64pt" viewBox="0 0 447.84 566.64" xmlns="http://www.w3.org/2000/svg" version="1.1">
 <metadata>
  <rdf:RDF xmlns:dc="http://purl.org/dc/elements/1.1/" xmlns:cc="http://creativecommons.org/ns#" xmlns:rdf="http://www.w3.org/1999/02/22-rdf-syntax-ns#">
   <cc:Work>
    <dc:type rdf:resource="http://purl.org/dc/dcmitype/StillImage"/>
    <dc:date>2023-05-14T13:29:49.637327</dc:date>
    <dc:format>image/svg+xml</dc:format>
    <dc:creator>
     <cc:Agent>
      <dc:title>Matplotlib v3.5.3, https://matplotlib.org/</dc:title>
     </cc:Agent>
    </dc:creator>
   </cc:Work>
  </rdf:RDF>
 </metadata>
 <defs>
  <style type="text/css">*{stroke-linejoin: round; stroke-linecap: butt}</style>
 </defs>
 <g id="figure_1">
  <g id="patch_1">
   <path d="M 0 566.64 
L 447.84 566.64 
L 447.84 0 
L 0 0 
z
" style="fill: #ffffff"/>
  </g>
  <g id="axes_1">
   <g id="patch_2">
    <path d="M 50.5175 266.663203 
L 407.315312 266.663203 
L 407.315312 26.238281 
L 50.5175 26.238281 
z
" style="fill: #ffffff"/>
   </g>
   <g id="patch_3">
    <path d="M 66.735582 266.663203 
L 66.735582 26.238281 
L 174.856132 26.238281 
L 174.856132 266.663203 
z
" clip-path="url(#p446514f52b)" style="fill: #808080; opacity: 0.2; stroke: #808080; stroke-width: 1.5; stroke-linejoin: miter"/>
   </g>
   <g id="patch_4">
    <path d="M 282.976681 266.663203 
L 282.976681 26.238281 
L 391.09723 26.238281 
L 391.09723 266.663203 
z
" clip-path="url(#p446514f52b)" style="fill: #808080; opacity: 0.2; stroke: #808080; stroke-width: 1.5; stroke-linejoin: miter"/>
   </g>
   <g id="matplotlib.axis_1">
    <g id="xtick_1">
     <g id="line2d_1">
      <defs>
       <path id="m53dec223ec" d="M 0 0 
L 0 3.5 
" style="stroke: #000000; stroke-width: 0.8"/>
      </defs>
      <g>
       <use xlink:href="#m53dec223ec" x="120.795857" y="266.663203" style="stroke: #000000; stroke-width: 0.8"/>
      </g>
     </g>
    </g>
    <g id="xtick_2">
     <g id="line2d_2">
      <g>
       <use xlink:href="#m53dec223ec" x="228.916406" y="266.663203" style="stroke: #000000; stroke-width: 0.8"/>
      </g>
     </g>
    </g>
    <g id="xtick_3">
     <g id="line2d_3">
      <g>
       <use xlink:href="#m53dec223ec" x="337.036955" y="266.663203" style="stroke: #000000; stroke-width: 0.8"/>
      </g>
     </g>
    </g>
   </g>
   <g id="matplotlib.axis_2">
    <g id="ytick_1">
     <g id="line2d_4">
      <defs>
       <path id="m57bf9e1cb7" d="M 0 0 
L -3.5 0 
" style="stroke: #000000; stroke-width: 0.8"/>
      </defs>
      <g>
       <use xlink:href="#m57bf9e1cb7" x="50.5175" y="255.734798" style="stroke: #000000; stroke-width: 0.8"/>
      </g>
     </g>
     <g id="text_1">
      <!-- 0 -->
      <g transform="translate(36.51875 259.913938)scale(0.11 -0.11)">
       <defs>
        <path id="DejaVuSerif-30" d="M 2034 219 
Q 2513 219 2750 744 
Q 2988 1269 2988 2328 
Q 2988 3391 2750 3916 
Q 2513 4441 2034 4441 
Q 1556 4441 1318 3916 
Q 1081 3391 1081 2328 
Q 1081 1269 1318 744 
Q 1556 219 2034 219 
z
M 2034 -91 
Q 1275 -91 848 546 
Q 422 1184 422 2328 
Q 422 3475 848 4112 
Q 1275 4750 2034 4750 
Q 2797 4750 3222 4112 
Q 3647 3475 3647 2328 
Q 3647 1184 3222 546 
Q 2797 -91 2034 -91 
z
" transform="scale(0.015625)"/>
       </defs>
       <use xlink:href="#DejaVuSerif-30"/>
      </g>
     </g>
    </g>
    <g id="ytick_2">
     <g id="line2d_5">
      <g>
       <use xlink:href="#m57bf9e1cb7" x="50.5175" y="146.450742" style="stroke: #000000; stroke-width: 0.8"/>
      </g>
     </g>
     <g id="text_2">
      <!-- 5 -->
      <g transform="translate(36.51875 150.629883)scale(0.11 -0.11)">
       <defs>
        <path id="DejaVuSerif-35" d="M 3219 4666 
L 3219 4153 
L 1081 4153 
L 1081 2816 
Q 1244 2928 1461 2984 
Q 1678 3041 1947 3041 
Q 2703 3041 3140 2622 
Q 3578 2203 3578 1478 
Q 3578 738 3136 323 
Q 2694 -91 1894 -91 
Q 1572 -91 1234 -12 
Q 897 66 544 225 
L 544 1131 
L 897 1131 
Q 925 688 1179 453 
Q 1434 219 1894 219 
Q 2388 219 2653 544 
Q 2919 869 2919 1478 
Q 2919 2084 2655 2407 
Q 2391 2731 1894 2731 
Q 1613 2731 1398 2631 
Q 1184 2531 1019 2322 
L 750 2322 
L 750 4666 
L 3219 4666 
z
" transform="scale(0.015625)"/>
       </defs>
       <use xlink:href="#DejaVuSerif-35"/>
      </g>
     </g>
    </g>
    <g id="ytick_3">
     <g id="line2d_6">
      <g>
       <use xlink:href="#m57bf9e1cb7" x="50.5175" y="37.166687" style="stroke: #000000; stroke-width: 0.8"/>
      </g>
     </g>
     <g id="text_3">
      <!-- 10 -->
      <g transform="translate(29.52 41.345827)scale(0.11 -0.11)">
       <defs>
        <path id="DejaVuSerif-31" d="M 909 0 
L 909 331 
L 1722 331 
L 1722 4213 
L 781 3603 
L 781 4013 
L 1919 4750 
L 2350 4750 
L 2350 331 
L 3163 331 
L 3163 0 
L 909 0 
z
" transform="scale(0.015625)"/>
       </defs>
       <use xlink:href="#DejaVuSerif-31"/>
       <use xlink:href="#DejaVuSerif-30" x="63.623047"/>
      </g>
     </g>
    </g>
    <g id="text_4">
     <!-- $\dot{Q}_{\mathrm{WP}}$ in kW -->
     <g transform="translate(23.232344 174.940742)rotate(-90)scale(0.11 -0.11)">
      <defs>
       <path id="DejaVuSans-307" d="M -1894 4863 
L -1319 4863 
L -1319 4134 
L -1894 4134 
L -1894 4863 
z
M -1600 3584 
L -1600 3584 
z
" transform="scale(0.015625)"/>
       <path id="DejaVuSans-Oblique-51" d="M 2309 -84 
Q 2275 -88 2237 -89 
Q 2200 -91 2125 -91 
Q 1250 -91 756 411 
Q 263 913 263 1797 
Q 263 2319 452 2844 
Q 641 3369 978 3788 
Q 1369 4269 1858 4509 
Q 2347 4750 2938 4750 
Q 3794 4750 4287 4245 
Q 4781 3741 4781 2869 
Q 4781 1928 4265 1147 
Q 3750 366 2919 44 
L 3553 -825 
L 2847 -825 
L 2309 -84 
z
M 2919 4238 
Q 2400 4238 2003 3986 
Q 1606 3734 1313 3219 
Q 1125 2891 1026 2522 
Q 928 2153 928 1778 
Q 928 1128 1239 775 
Q 1550 422 2119 422 
Q 2631 422 3032 676 
Q 3434 931 3719 1434 
Q 3909 1772 4009 2142 
Q 4109 2513 4109 2881 
Q 4109 3528 3796 3883 
Q 3484 4238 2919 4238 
z
" transform="scale(0.015625)"/>
       <path id="DejaVuSans-57" d="M 213 4666 
L 850 4666 
L 1831 722 
L 2809 4666 
L 3519 4666 
L 4500 722 
L 5478 4666 
L 6119 4666 
L 4947 0 
L 4153 0 
L 3169 4050 
L 2175 0 
L 1381 0 
L 213 4666 
z
" transform="scale(0.015625)"/>
       <path id="DejaVuSans-50" d="M 1259 4147 
L 1259 2394 
L 2053 2394 
Q 2494 2394 2734 2622 
Q 2975 2850 2975 3272 
Q 2975 3691 2734 3919 
Q 2494 4147 2053 4147 
L 1259 4147 
z
M 628 4666 
L 2053 4666 
Q 2838 4666 3239 4311 
Q 3641 3956 3641 3272 
Q 3641 2581 3239 2228 
Q 2838 1875 2053 1875 
L 1259 1875 
L 1259 0 
L 628 0 
L 628 4666 
z
" transform="scale(0.015625)"/>
       <path id="DejaVuSerif-20" transform="scale(0.015625)"/>
       <path id="DejaVuSerif-69" d="M 622 4353 
Q 622 4497 726 4603 
Q 831 4709 978 4709 
Q 1122 4709 1226 4603 
Q 1331 4497 1331 4353 
Q 1331 4206 1228 4103 
Q 1125 4000 978 4000 
Q 831 4000 726 4103 
Q 622 4206 622 4353 
z
M 1356 331 
L 1900 331 
L 1900 0 
L 231 0 
L 231 331 
L 781 331 
L 781 2988 
L 231 2988 
L 231 3322 
L 1356 3322 
L 1356 331 
z
" transform="scale(0.015625)"/>
       <path id="DejaVuSerif-6e" d="M 263 0 
L 263 331 
L 781 331 
L 781 2988 
L 231 2988 
L 231 3322 
L 1356 3322 
L 1356 2731 
Q 1516 3069 1770 3241 
Q 2025 3413 2363 3413 
Q 2913 3413 3172 3097 
Q 3431 2781 3431 2113 
L 3431 331 
L 3944 331 
L 3944 0 
L 2356 0 
L 2356 331 
L 2853 331 
L 2853 1931 
Q 2853 2541 2703 2767 
Q 2553 2994 2175 2994 
Q 1775 2994 1565 2701 
Q 1356 2409 1356 1850 
L 1356 331 
L 1856 331 
L 1856 0 
L 263 0 
z
" transform="scale(0.015625)"/>
       <path id="DejaVuSerif-6b" d="M 1831 0 
L 219 0 
L 219 331 
L 738 331 
L 738 4531 
L 184 4531 
L 184 4863 
L 1313 4863 
L 1313 1697 
L 2713 2988 
L 2234 2988 
L 2234 3322 
L 3738 3322 
L 3738 2988 
L 3169 2988 
L 2181 2075 
L 3444 331 
L 3922 331 
L 3922 0 
L 2284 0 
L 2284 331 
L 2759 331 
L 1766 1697 
L 1313 1275 
L 1313 331 
L 1831 331 
L 1831 0 
z
" transform="scale(0.015625)"/>
       <path id="DejaVuSerif-57" d="M 4878 0 
L 4366 0 
L 3297 3794 
L 2228 0 
L 1716 0 
L 494 4331 
L 31 4331 
L 31 4666 
L 1734 4666 
L 1734 4331 
L 1153 4331 
L 2125 884 
L 3188 4666 
L 3694 4666 
L 4775 844 
L 5753 4331 
L 5216 4331 
L 5216 4666 
L 6559 4666 
L 6559 4331 
L 6100 4331 
L 4878 0 
z
" transform="scale(0.015625)"/>
      </defs>
      <use xlink:href="#DejaVuSans-307" transform="translate(74.271484 31.015625)"/>
      <use xlink:href="#DejaVuSans-Oblique-51" transform="translate(0 0.296875)"/>
      <use xlink:href="#DejaVuSans-57" transform="translate(79.667969 -16.109375)scale(0.7)"/>
      <use xlink:href="#DejaVuSans-50" transform="translate(148.881836 -16.109375)scale(0.7)"/>
      <use xlink:href="#DejaVuSerif-20" transform="translate(193.828125 0.296875)"/>
      <use xlink:href="#DejaVuSerif-69" transform="translate(225.615234 0.296875)"/>
      <use xlink:href="#DejaVuSerif-6e" transform="translate(257.597656 0.296875)"/>
      <use xlink:href="#DejaVuSerif-20" transform="translate(322.001953 0.296875)"/>
      <use xlink:href="#DejaVuSerif-6b" transform="translate(353.789062 0.296875)"/>
      <use xlink:href="#DejaVuSerif-57" transform="translate(414.384766 0.296875)"/>
     </g>
    </g>
   </g>
   <g id="line2d_7">
    <path d="M 66.735582 161.802966 
L 67.861838 255.734798 
L 68.988094 201.09277 
L 72.366861 201.09277 
L 73.493117 200.061128 
L 74.619372 159.468659 
L 75.745628 255.734798 
L 76.871884 201.09277 
L 83.629418 201.09277 
L 84.755674 172.582746 
L 85.88193 255.734798 
L 87.008185 201.09277 
L 91.513208 201.09277 
L 92.639464 167.372082 
L 93.76572 255.734798 
L 96.018231 141.414933 
L 97.144487 138.232581 
L 98.270743 37.227886 
L 99.396998 198.662292 
L 100.523254 255.734798 
L 101.64951 196.939976 
L 102.775765 255.734798 
L 103.902021 255.734798 
L 105.028277 201.09277 
L 108.407044 201.09277 
L 109.5333 197.805506 
L 110.659556 187.191838 
L 111.785811 154.091883 
L 112.912067 161.872908 
L 114.038323 183.974515 
L 115.164578 197.630651 
L 116.290834 201.09277 
L 117.41709 255.734798 
L 135.437181 255.734798 
L 136.563437 195.173945 
L 137.689693 255.734798 
L 138.815949 255.734798 
L 139.942204 201.09277 
L 142.194716 201.09277 
L 143.320971 153.943257 
L 144.447227 198.828404 
L 145.573483 201.09277 
L 146.699739 255.734798 
L 147.825994 192.594842 
L 148.95225 255.734798 
L 150.078506 159.5998 
L 151.204761 255.734798 
L 153.457273 255.734798 
L 154.583529 190.846297 
L 155.709784 255.734798 
L 156.83604 189.596087 
L 157.962296 201.09277 
L 159.088552 255.734798 
L 160.214807 201.09277 
L 161.341063 201.09277 
L 162.467319 186.754702 
L 163.593574 201.09277 
L 164.71983 193.329231 
L 165.846086 140.357063 
L 166.972342 255.734798 
L 168.098597 255.734798 
L 169.224853 201.09277 
L 170.351109 201.09277 
L 171.477364 179.227216 
L 172.60362 164.819206 
L 173.729876 201.09277 
L 174.856132 176.997821 
L 175.982387 199.851303 
L 177.108643 201.09277 
L 179.361155 201.09277 
L 180.48741 174.506145 
L 181.613666 255.734798 
L 182.739922 201.09277 
L 192.876223 201.09277 
L 194.002479 199.1344 
L 195.128735 197.831734 
L 197.381246 197.062374 
L 198.507502 198.487438 
L 201.886269 200.052386 
L 203.012525 201.09277 
L 204.13878 198.050302 
L 205.265036 199.807589 
L 206.391292 255.734798 
L 207.517548 201.09277 
L 208.643803 201.09277 
L 209.770059 255.734798 
L 210.896315 197.324656 
L 212.02257 146.118519 
L 213.148826 37.227886 
L 214.275082 201.09277 
L 215.401338 201.09277 
L 216.527593 255.734798 
L 218.780105 255.734798 
L 219.90636 201.09277 
L 221.032616 255.734798 
L 222.158872 201.09277 
L 223.285128 255.734798 
L 224.411383 255.734798 
L 225.537639 177.854608 
L 226.663895 171.035283 
L 227.790151 196.817578 
L 228.916406 255.734798 
L 230.042662 194.133561 
L 231.168918 255.734798 
L 236.800196 255.734798 
L 237.926452 128.309589 
L 239.052708 201.09277 
L 240.178963 177.723467 
L 241.305219 151.871231 
L 242.431475 179.402071 
L 244.683986 201.09277 
L 246.936498 201.09277 
L 248.062754 255.734798 
L 249.189009 255.734798 
L 250.315265 201.09277 
L 251.441521 255.734798 
L 262.704078 255.734798 
L 263.830334 201.084027 
L 264.956589 255.734798 
L 266.082845 193.643969 
L 267.209101 255.734798 
L 268.335356 201.09277 
L 269.461612 201.09277 
L 270.587868 255.734798 
L 271.714124 201.09277 
L 272.840379 255.734798 
L 273.966635 189.954539 
L 275.092891 171.673502 
L 276.219147 255.734798 
L 277.345402 255.734798 
L 278.471658 193.128148 
L 279.597914 160.30796 
L 280.724169 255.734798 
L 281.850425 255.734798 
L 282.976681 193.023235 
L 284.102937 153.85583 
L 285.229192 255.734798 
L 286.355448 255.734798 
L 287.481704 201.09277 
L 288.607959 201.09277 
L 289.734215 255.734798 
L 290.860471 179.55944 
L 291.986727 178.580254 
L 293.112982 255.734798 
L 294.239238 193.233061 
L 295.365494 173.535702 
L 296.49175 255.734798 
L 297.618005 201.09277 
L 298.744261 198.94206 
L 299.870517 201.09277 
L 300.996772 171.970755 
L 302.123028 255.734798 
L 303.249284 193.539056 
L 304.37554 169.793816 
L 305.501795 201.09277 
L 308.880562 201.09277 
L 310.006818 126.70967 
L 311.133074 255.734798 
L 312.25933 172.539032 
L 313.385585 195.217659 
L 314.511841 37.227886 
L 315.638097 184.875016 
L 316.764353 255.734798 
L 317.890608 196.091932 
L 319.016864 255.734798 
L 320.14312 196.677694 
L 321.269375 255.734798 
L 322.395631 255.734798 
L 323.521887 195.759708 
L 324.648143 201.09277 
L 325.774398 255.734798 
L 326.900654 201.09277 
L 328.02691 191.65937 
L 329.153165 255.734798 
L 330.279421 159.50363 
L 331.405677 156.163909 
L 332.531933 194.273445 
L 333.658188 168.534864 
L 334.784444 255.734798 
L 335.9107 186.413736 
L 337.036955 255.734798 
L 338.163211 201.09277 
L 339.289467 185.277181 
L 340.415723 188.302164 
L 341.541978 191.939137 
L 342.668234 201.09277 
L 343.79449 201.09277 
L 344.920746 255.734798 
L 347.173257 255.734798 
L 348.299513 201.09277 
L 349.425768 201.09277 
L 350.552024 255.734798 
L 352.804536 255.734798 
L 353.930791 201.09277 
L 355.057047 255.734798 
L 356.183303 198.277613 
L 357.309558 201.09277 
L 359.56207 201.09277 
L 360.688326 199.55405 
L 361.814581 255.734798 
L 362.940837 192.900837 
L 364.067093 201.09277 
L 365.193349 155.210952 
L 366.319604 255.734798 
L 367.44586 201.09277 
L 370.824627 201.09277 
L 371.950883 199.737648 
L 373.077139 189.701 
L 374.203394 193.792595 
L 380.960929 193.792595 
L 382.087184 182.951617 
L 383.21344 199.186856 
L 384.339696 43.575104 
L 386.592207 255.734798 
L 387.718463 116.524396 
L 388.844719 116.358285 
L 389.970974 185.784259 
L 389.970974 185.784259 
" clip-path="url(#p446514f52b)" style="fill: none; stroke: #ec635c; stroke-width: 1.5; stroke-linecap: square"/>
   </g>
   <g id="patch_5">
    <path d="M 50.5175 266.663203 
L 50.5175 26.238281 
" style="fill: none; stroke: #000000; stroke-width: 0.5; stroke-linejoin: miter; stroke-linecap: square"/>
   </g>
   <g id="patch_6">
    <path d="M 407.315312 266.663203 
L 407.315312 26.238281 
" style="fill: none; stroke: #000000; stroke-width: 0.5; stroke-linejoin: miter; stroke-linecap: square"/>
   </g>
   <g id="patch_7">
    <path d="M 50.5175 266.663203 
L 407.315312 266.663203 
" style="fill: none; stroke: #000000; stroke-width: 0.5; stroke-linejoin: miter; stroke-linecap: square"/>
   </g>
   <g id="patch_8">
    <path d="M 50.5175 26.238281 
L 407.315312 26.238281 
" style="fill: none; stroke: #000000; stroke-width: 0.5; stroke-linejoin: miter; stroke-linecap: square"/>
   </g>
   <g id="text_5">
    <!-- April -->
    <g transform="translate(50.5175 20.238281)scale(0.11 -0.11)">
     <defs>
      <path id="DejaVuSerif-41" d="M 1281 1691 
L 2994 1691 
L 2138 3909 
L 1281 1691 
z
M -38 0 
L -38 331 
L 372 331 
L 2034 4666 
L 2559 4666 
L 4225 331 
L 4684 331 
L 4684 0 
L 2988 0 
L 2988 331 
L 3506 331 
L 3116 1356 
L 1153 1356 
L 763 331 
L 1275 331 
L 1275 0 
L -38 0 
z
" transform="scale(0.015625)"/>
      <path id="DejaVuSerif-70" d="M 1313 1825 
L 1313 1497 
Q 1313 897 1542 583 
Q 1772 269 2209 269 
Q 2650 269 2876 622 
Q 3103 975 3103 1663 
Q 3103 2353 2876 2703 
Q 2650 3053 2209 3053 
Q 1772 3053 1542 2737 
Q 1313 2422 1313 1825 
z
M 738 2988 
L 184 2988 
L 184 3322 
L 1313 3322 
L 1313 2803 
Q 1481 3116 1742 3264 
Q 2003 3413 2388 3413 
Q 3000 3413 3387 2928 
Q 3775 2444 3775 1663 
Q 3775 881 3387 395 
Q 3000 -91 2388 -91 
Q 2003 -91 1742 57 
Q 1481 206 1313 519 
L 1313 -997 
L 1856 -997 
L 1856 -1331 
L 184 -1331 
L 184 -997 
L 738 -997 
L 738 2988 
z
" transform="scale(0.015625)"/>
      <path id="DejaVuSerif-72" d="M 3059 3328 
L 3059 2497 
L 2728 2497 
Q 2713 2744 2591 2866 
Q 2469 2988 2234 2988 
Q 1809 2988 1582 2694 
Q 1356 2400 1356 1850 
L 1356 331 
L 2022 331 
L 2022 0 
L 263 0 
L 263 331 
L 781 331 
L 781 2994 
L 231 2994 
L 231 3322 
L 1356 3322 
L 1356 2731 
Q 1525 3078 1790 3245 
Q 2056 3413 2438 3413 
Q 2578 3413 2733 3391 
Q 2888 3369 3059 3328 
z
" transform="scale(0.015625)"/>
      <path id="DejaVuSerif-6c" d="M 1313 331 
L 1856 331 
L 1856 0 
L 184 0 
L 184 331 
L 738 331 
L 738 4531 
L 184 4531 
L 184 4863 
L 1313 4863 
L 1313 331 
z
" transform="scale(0.015625)"/>
     </defs>
     <use xlink:href="#DejaVuSerif-41"/>
     <use xlink:href="#DejaVuSerif-70" x="72.216797"/>
     <use xlink:href="#DejaVuSerif-72" x="136.230469"/>
     <use xlink:href="#DejaVuSerif-69" x="184.033203"/>
     <use xlink:href="#DejaVuSerif-6c" x="216.015625"/>
    </g>
   </g>
  </g>
  <g id="axes_2">
   <g id="patch_9">
    <path d="M 50.5175 522.468125 
L 407.315312 522.468125 
L 407.315312 282.043203 
L 50.5175 282.043203 
z
" style="fill: #ffffff"/>
   </g>
   <g id="patch_10">
    <path d="M 66.735582 522.468125 
L 66.735582 282.043203 
L 174.856132 282.043203 
L 174.856132 522.468125 
z
" clip-path="url(#p96244eb0ab)" style="fill: #808080; opacity: 0.2; stroke: #808080; stroke-width: 1.5; stroke-linejoin: miter"/>
   </g>
   <g id="patch_11">
    <path d="M 282.976681 522.468125 
L 282.976681 282.043203 
L 391.09723 282.043203 
L 391.09723 522.468125 
z
" clip-path="url(#p96244eb0ab)" style="fill: #808080; opacity: 0.2; stroke: #808080; stroke-width: 1.5; stroke-linejoin: miter"/>
   </g>
   <g id="matplotlib.axis_3">
    <g id="xtick_4">
     <g id="line2d_8">
      <g>
       <use xlink:href="#m53dec223ec" x="120.795857" y="522.468125" style="stroke: #000000; stroke-width: 0.8"/>
      </g>
     </g>
     <g id="text_6">
      <!-- 1.4 -->
      <g transform="translate(112.049138 537.826406)scale(0.11 -0.11)">
       <defs>
        <path id="DejaVuSerif-2e" d="M 603 325 
Q 603 500 722 622 
Q 841 744 1019 744 
Q 1191 744 1312 622 
Q 1434 500 1434 325 
Q 1434 153 1312 31 
Q 1191 -91 1019 -91 
Q 841 -91 722 29 
Q 603 150 603 325 
z
" transform="scale(0.015625)"/>
        <path id="DejaVuSerif-34" d="M 2234 1581 
L 2234 4063 
L 641 1581 
L 2234 1581 
z
M 3609 0 
L 1484 0 
L 1484 331 
L 2234 331 
L 2234 1247 
L 197 1247 
L 197 1588 
L 2241 4750 
L 2859 4750 
L 2859 1581 
L 3750 1581 
L 3750 1247 
L 2859 1247 
L 2859 331 
L 3609 331 
L 3609 0 
z
" transform="scale(0.015625)"/>
       </defs>
       <use xlink:href="#DejaVuSerif-31"/>
       <use xlink:href="#DejaVuSerif-2e" x="63.623047"/>
       <use xlink:href="#DejaVuSerif-34" x="95.410156"/>
      </g>
     </g>
    </g>
    <g id="xtick_5">
     <g id="line2d_9">
      <g>
       <use xlink:href="#m53dec223ec" x="228.916406" y="522.468125" style="stroke: #000000; stroke-width: 0.8"/>
      </g>
     </g>
     <g id="text_7">
      <!-- 2.4 -->
      <g transform="translate(220.169688 537.826406)scale(0.11 -0.11)">
       <defs>
        <path id="DejaVuSerif-32" d="M 819 3553 
L 469 3553 
L 469 4384 
Q 803 4563 1142 4656 
Q 1481 4750 1806 4750 
Q 2534 4750 2956 4397 
Q 3378 4044 3378 3438 
Q 3378 2753 2422 1800 
Q 2347 1728 2309 1691 
L 1131 513 
L 3078 513 
L 3078 1088 
L 3444 1088 
L 3444 0 
L 434 0 
L 434 341 
L 1850 1753 
Q 2319 2222 2519 2614 
Q 2719 3006 2719 3438 
Q 2719 3909 2473 4175 
Q 2228 4441 1797 4441 
Q 1350 4441 1106 4219 
Q 863 3997 819 3553 
z
" transform="scale(0.015625)"/>
       </defs>
       <use xlink:href="#DejaVuSerif-32"/>
       <use xlink:href="#DejaVuSerif-2e" x="63.623047"/>
       <use xlink:href="#DejaVuSerif-34" x="95.410156"/>
      </g>
     </g>
    </g>
    <g id="xtick_6">
     <g id="line2d_10">
      <g>
       <use xlink:href="#m53dec223ec" x="337.036955" y="522.468125" style="stroke: #000000; stroke-width: 0.8"/>
      </g>
     </g>
     <g id="text_8">
      <!-- 3.4 -->
      <g transform="translate(328.290237 537.826406)scale(0.11 -0.11)">
       <defs>
        <path id="DejaVuSerif-33" d="M 622 4469 
Q 988 4606 1323 4678 
Q 1659 4750 1953 4750 
Q 2638 4750 3022 4454 
Q 3406 4159 3406 3634 
Q 3406 3213 3140 2930 
Q 2875 2647 2388 2547 
Q 2963 2466 3280 2130 
Q 3597 1794 3597 1259 
Q 3597 606 3158 257 
Q 2719 -91 1894 -91 
Q 1528 -91 1179 -12 
Q 831 66 488 225 
L 488 1131 
L 838 1131 
Q 869 681 1141 450 
Q 1413 219 1906 219 
Q 2384 219 2661 495 
Q 2938 772 2938 1253 
Q 2938 1803 2653 2086 
Q 2369 2369 1819 2369 
L 1522 2369 
L 1522 2688 
L 1678 2688 
Q 2225 2688 2498 2914 
Q 2772 3141 2772 3597 
Q 2772 4006 2547 4223 
Q 2322 4441 1900 4441 
Q 1478 4441 1245 4241 
Q 1013 4041 972 3647 
L 622 3647 
L 622 4469 
z
" transform="scale(0.015625)"/>
       </defs>
       <use xlink:href="#DejaVuSerif-33"/>
       <use xlink:href="#DejaVuSerif-2e" x="63.623047"/>
       <use xlink:href="#DejaVuSerif-34" x="95.410156"/>
      </g>
     </g>
    </g>
    <g id="text_9">
     <!-- Zeit in d -->
     <g transform="translate(205.551719 552.472344)scale(0.11 -0.11)">
      <defs>
       <path id="DejaVuSerif-5a" d="M 288 0 
L 288 225 
L 3194 4281 
L 781 4281 
L 781 3584 
L 397 3584 
L 397 4666 
L 4084 4666 
L 4084 4441 
L 1178 384 
L 3816 384 
L 3816 1038 
L 4197 1038 
L 4197 0 
L 288 0 
z
" transform="scale(0.015625)"/>
       <path id="DejaVuSerif-65" d="M 3469 1600 
L 991 1600 
L 991 1575 
Q 991 903 1244 561 
Q 1497 219 1991 219 
Q 2369 219 2611 417 
Q 2853 616 2950 1006 
L 3413 1006 
Q 3275 459 2904 184 
Q 2534 -91 1931 -91 
Q 1203 -91 761 389 
Q 319 869 319 1663 
Q 319 2450 753 2931 
Q 1188 3413 1894 3413 
Q 2647 3413 3050 2948 
Q 3453 2484 3469 1600 
z
M 2791 1931 
Q 2772 2513 2545 2808 
Q 2319 3103 1894 3103 
Q 1497 3103 1269 2806 
Q 1041 2509 991 1931 
L 2791 1931 
z
" transform="scale(0.015625)"/>
       <path id="DejaVuSerif-74" d="M 691 2988 
L 184 2988 
L 184 3322 
L 691 3322 
L 691 4353 
L 1269 4353 
L 1269 3322 
L 2350 3322 
L 2350 2988 
L 1269 2988 
L 1269 878 
Q 1269 456 1350 337 
Q 1431 219 1650 219 
Q 1875 219 1978 351 
Q 2081 484 2088 781 
L 2522 781 
Q 2497 328 2275 118 
Q 2053 -91 1600 -91 
Q 1103 -91 897 129 
Q 691 350 691 878 
L 691 2988 
z
" transform="scale(0.015625)"/>
       <path id="DejaVuSerif-64" d="M 3359 331 
L 3909 331 
L 3909 0 
L 2784 0 
L 2784 519 
Q 2616 206 2355 57 
Q 2094 -91 1709 -91 
Q 1097 -91 708 395 
Q 319 881 319 1663 
Q 319 2444 706 2928 
Q 1094 3413 1709 3413 
Q 2094 3413 2355 3264 
Q 2616 3116 2784 2803 
L 2784 4531 
L 2241 4531 
L 2241 4863 
L 3359 4863 
L 3359 331 
z
M 2784 1497 
L 2784 1825 
Q 2784 2422 2554 2737 
Q 2325 3053 1888 3053 
Q 1444 3053 1217 2703 
Q 991 2353 991 1663 
Q 991 975 1217 622 
Q 1444 269 1888 269 
Q 2325 269 2554 583 
Q 2784 897 2784 1497 
z
" transform="scale(0.015625)"/>
      </defs>
      <use xlink:href="#DejaVuSerif-5a"/>
      <use xlink:href="#DejaVuSerif-65" x="69.482422"/>
      <use xlink:href="#DejaVuSerif-69" x="128.662109"/>
      <use xlink:href="#DejaVuSerif-74" x="160.644531"/>
      <use xlink:href="#DejaVuSerif-20" x="200.830078"/>
      <use xlink:href="#DejaVuSerif-69" x="232.617188"/>
      <use xlink:href="#DejaVuSerif-6e" x="264.599609"/>
      <use xlink:href="#DejaVuSerif-20" x="329.003906"/>
      <use xlink:href="#DejaVuSerif-64" x="360.791016"/>
     </g>
    </g>
   </g>
   <g id="matplotlib.axis_4">
    <g id="ytick_4">
     <g id="line2d_11">
      <g>
       <use xlink:href="#m57bf9e1cb7" x="50.5175" y="509.354038" style="stroke: #000000; stroke-width: 0.8"/>
      </g>
     </g>
     <g id="text_10">
      <!-- 20 -->
      <g transform="translate(29.52 513.533179)scale(0.11 -0.11)">
       <use xlink:href="#DejaVuSerif-32"/>
       <use xlink:href="#DejaVuSerif-30" x="63.623047"/>
      </g>
     </g>
    </g>
    <g id="ytick_5">
     <g id="line2d_12">
      <g>
       <use xlink:href="#m57bf9e1cb7" x="50.5175" y="400.069983" style="stroke: #000000; stroke-width: 0.8"/>
      </g>
     </g>
     <g id="text_11">
      <!-- 45 -->
      <g transform="translate(29.52 404.249124)scale(0.11 -0.11)">
       <use xlink:href="#DejaVuSerif-34"/>
       <use xlink:href="#DejaVuSerif-35" x="63.623047"/>
      </g>
     </g>
    </g>
    <g id="ytick_6">
     <g id="line2d_13">
      <g>
       <use xlink:href="#m57bf9e1cb7" x="50.5175" y="290.785928" style="stroke: #000000; stroke-width: 0.8"/>
      </g>
     </g>
     <g id="text_12">
      <!-- 70 -->
      <g transform="translate(29.52 294.965068)scale(0.11 -0.11)">
       <defs>
        <path id="DejaVuSerif-37" d="M 3609 4347 
L 1784 0 
L 1319 0 
L 3059 4153 
L 903 4153 
L 903 3578 
L 538 3578 
L 538 4666 
L 3609 4666 
L 3609 4347 
z
" transform="scale(0.015625)"/>
       </defs>
       <use xlink:href="#DejaVuSerif-37"/>
       <use xlink:href="#DejaVuSerif-30" x="63.623047"/>
      </g>
     </g>
    </g>
    <g id="text_13">
     <!-- $T$ in °C -->
     <g transform="translate(23.232344 421.395664)rotate(-90)scale(0.11 -0.11)">
      <defs>
       <path id="DejaVuSans-Oblique-54" d="M 378 4666 
L 4325 4666 
L 4225 4134 
L 2559 4134 
L 1759 0 
L 1125 0 
L 1925 4134 
L 275 4134 
L 378 4666 
z
" transform="scale(0.015625)"/>
       <path id="DejaVuSerif-b0" d="M 1600 4319 
Q 1363 4319 1200 4155 
Q 1038 3991 1038 3750 
Q 1038 3513 1198 3353 
Q 1359 3194 1600 3194 
Q 1838 3194 2000 3355 
Q 2163 3516 2163 3750 
Q 2163 3984 1997 4151 
Q 1831 4319 1600 4319 
z
M 1600 4750 
Q 1800 4750 1984 4673 
Q 2169 4597 2303 4453 
Q 2447 4313 2519 4134 
Q 2591 3956 2591 3750 
Q 2591 3338 2302 3052 
Q 2013 2766 1594 2766 
Q 1172 2766 890 3047 
Q 609 3328 609 3750 
Q 609 4169 896 4459 
Q 1184 4750 1600 4750 
z
" transform="scale(0.015625)"/>
       <path id="DejaVuSerif-43" d="M 4513 1234 
Q 4306 581 3820 245 
Q 3334 -91 2591 -91 
Q 2134 -91 1743 65 
Q 1353 222 1050 525 
Q 700 875 529 1320 
Q 359 1766 359 2328 
Q 359 3416 987 4083 
Q 1616 4750 2644 4750 
Q 3025 4750 3456 4650 
Q 3888 4550 4384 4347 
L 4384 3272 
L 4031 3272 
Q 3916 3859 3567 4137 
Q 3219 4416 2591 4416 
Q 1844 4416 1459 3886 
Q 1075 3356 1075 2328 
Q 1075 1303 1459 773 
Q 1844 244 2591 244 
Q 3113 244 3450 492 
Q 3788 741 3938 1234 
L 4513 1234 
z
" transform="scale(0.015625)"/>
      </defs>
      <use xlink:href="#DejaVuSans-Oblique-54" transform="translate(0 0.78125)"/>
      <use xlink:href="#DejaVuSerif-20" transform="translate(61.083984 0.78125)"/>
      <use xlink:href="#DejaVuSerif-69" transform="translate(92.871094 0.78125)"/>
      <use xlink:href="#DejaVuSerif-6e" transform="translate(124.853516 0.78125)"/>
      <use xlink:href="#DejaVuSerif-20" transform="translate(189.257812 0.78125)"/>
      <use xlink:href="#DejaVuSerif-b0" transform="translate(221.044922 0.78125)"/>
      <use xlink:href="#DejaVuSerif-43" transform="translate(271.044922 0.78125)"/>
     </g>
    </g>
   </g>
   <g id="line2d_14">
    <path d="M 66.735582 397.709447 
L 67.861838 427.653279 
L 68.988094 426.298156 
L 70.11435 425.117888 
L 72.366861 423.281916 
L 73.493117 421.926794 
L 74.619372 397.447166 
L 75.745628 427.522138 
L 80.250651 424.637039 
L 82.503162 422.888494 
L 83.629418 421.926794 
L 84.755674 404.572486 
L 85.88193 431.062941 
L 87.008185 428.571265 
L 89.260697 425.773593 
L 90.386953 424.025048 
L 91.513208 421.926794 
L 92.639464 400.201124 
L 93.76572 428.920974 
L 94.891975 421.926794 
L 96.018231 382.934243 
L 98.270743 433.117481 
L 99.396998 421.926794 
L 100.523254 439.718238 
L 101.64951 421.926794 
L 102.775765 435.128308 
L 103.902021 446.318995 
L 105.028277 425.030461 
L 106.154533 433.729472 
L 108.407044 447.980113 
L 109.5333 421.926794 
L 110.659556 390.01585 
L 112.912067 405.053336 
L 114.038323 371.087851 
L 115.164578 345.034533 
L 117.41709 359.197746 
L 119.669601 372.311833 
L 121.922113 384.420506 
L 124.174624 395.611193 
L 129.805903 421.926794 
L 132.058414 433.46719 
L 135.437181 451.870625 
L 136.563437 424.462184 
L 138.815949 440.46137 
L 139.942204 448.941813 
L 141.06846 426.473011 
L 143.320971 445.401009 
L 144.447227 423.019635 
L 146.699739 445.794432 
L 147.825994 421.926794 
L 148.95225 435.084594 
L 150.078506 393.775221 
L 152.331017 423.80648 
L 153.457273 440.679938 
L 154.583529 421.926794 
L 155.709784 439.718238 
L 156.83604 423.631625 
L 157.962296 414.932614 
L 159.088552 436.221148 
L 161.341063 421.926794 
L 162.467319 407.239017 
L 163.593574 432.418063 
L 164.71983 421.926794 
L 165.846086 381.44798 
L 168.098597 432.549204 
L 170.351109 421.926794 
L 171.477364 404.441345 
L 172.60362 431.019227 
L 173.729876 426.34187 
L 174.856132 408.113289 
L 175.982387 432.8552 
L 178.234899 425.249029 
L 179.361155 421.926794 
L 180.48741 403.698214 
L 181.613666 430.669518 
L 182.739922 428.221556 
L 183.866177 426.167015 
L 184.992433 424.505898 
L 186.118689 423.238203 
L 187.244945 422.407644 
L 188.3712 421.970508 
L 189.497456 421.926794 
L 190.623712 422.320217 
L 191.749967 423.150775 
L 192.876223 424.374757 
L 194.002479 424.680752 
L 197.381246 424.025048 
L 201.886269 425.205316 
L 203.012525 424.986748 
L 205.265036 418.779413 
L 206.391292 438.144548 
L 207.517548 431.500077 
L 208.643803 421.926794 
L 209.770059 439.718238 
L 210.896315 421.926794 
L 212.02257 435.696585 
L 213.148826 446.581277 
L 214.275082 424.768179 
L 215.401338 432.37435 
L 216.527593 439.193675 
L 217.653849 445.226155 
L 218.780105 450.471789 
L 219.90636 423.675339 
L 222.158872 432.37435 
L 224.411383 440.111661 
L 227.790151 450.646644 
L 228.916406 453.925165 
L 230.042662 421.926794 
L 235.673941 439.149961 
L 237.926452 445.794432 
L 239.052708 417.817714 
L 240.178963 376.726909 
L 241.305219 380.704848 
L 242.431475 340.969166 
L 243.557731 307.83424 
L 245.810242 317.451237 
L 246.936498 291.091923 
L 249.189009 301.889188 
L 251.441521 313.429584 
L 252.567776 320.8609 
L 253.694032 329.822192 
L 254.820288 340.313461 
L 257.072799 364.924231 
L 259.325311 391.545827 
L 261.577822 420.571672 
L 262.704078 436.439717 
L 263.830334 421.926794 
L 264.956589 439.718238 
L 266.082845 422.189076 
L 267.209101 439.849379 
L 269.461612 414.626619 
L 270.587868 433.860613 
L 271.714124 421.926794 
L 272.840379 439.718238 
L 273.966635 421.926794 
L 275.092891 394.168644 
L 277.345402 436.352289 
L 278.471658 421.926794 
L 279.597914 389.229005 
L 281.850425 434.734885 
L 282.976681 421.926794 
L 284.102937 387.218178 
L 286.355448 434.560031 
L 288.607959 421.926794 
L 289.734215 439.718238 
L 291.986727 404.047923 
L 293.112982 430.844373 
L 294.239238 421.926794 
L 295.365494 402.124523 
L 296.49175 429.882673 
L 297.618005 426.385583 
L 298.744261 421.926794 
L 299.870517 418.997981 
L 300.996772 399.720274 
L 302.123028 428.658692 
L 303.249284 421.926794 
L 304.37554 401.818528 
L 305.501795 429.707819 
L 306.628051 427.347283 
L 308.880562 421.926794 
L 310.006818 376.289773 
L 312.25933 430.844373 
L 313.385585 421.926794 
L 314.511841 439.718238 
L 315.638097 421.926794 
L 316.764353 439.718238 
L 317.890608 424.199902 
L 319.016864 440.854792 
L 320.14312 421.926794 
L 321.269375 435.303162 
L 322.395631 446.406422 
L 323.521887 421.926794 
L 325.774398 441.597924 
L 326.900654 449.51009 
L 328.02691 422.145362 
L 330.279421 440.330229 
L 331.405677 448.898099 
L 332.531933 421.926794 
L 334.784444 439.237388 
L 335.9107 408.375571 
L 337.036955 417.599145 
L 338.163211 395.917189 
L 340.415723 338.040353 
L 341.541978 313.036161 
L 342.668234 294.151876 
L 344.920746 321.298036 
L 347.173257 350.804731 
L 349.425768 382.759389 
L 352.804536 434.866026 
L 353.930791 421.926794 
L 355.057047 439.718238 
L 356.183303 426.429297 
L 357.309558 441.991347 
L 359.56207 421.926794 
L 360.688326 411.960088 
L 361.814581 434.778599 
L 362.940837 421.926794 
L 364.067093 414.364337 
L 365.193349 381.185698 
L 367.44586 432.024641 
L 368.572116 426.691579 
L 369.698371 423.762766 
L 370.824627 423.238203 
L 371.950883 424.28733 
L 373.077139 421.926794 
L 380.960929 421.926794 
L 382.087184 418.823127 
L 383.21344 421.926794 
L 384.339696 339.264335 
L 386.592207 418.298563 
L 387.718463 377.95089 
L 388.844719 417.817714 
L 389.970974 417.599145 
L 389.970974 417.599145 
" clip-path="url(#p96244eb0ab)" style="fill: none; stroke-dasharray: 1.5,2.475; stroke-dashoffset: 0; stroke: #f49961; stroke-width: 1.5"/>
   </g>
   <g id="line2d_15">
    <path d="M 66.735582 366.978771 
L 92.639464 374.978364 
L 93.76572 377.295186 
L 96.018231 377.95089 
L 97.144487 354.913811 
L 98.270743 376.202345 
L 105.028277 378.125745 
L 106.154533 368.639889 
L 107.280788 357.18692 
L 108.407044 347.744777 
L 109.5333 348.181913 
L 110.659556 362.432554 
L 112.912067 321.035754 
L 114.038323 321.516604 
L 115.164578 323.964567 
L 116.290834 312.642739 
L 118.543346 313.648152 
L 119.669601 316.096115 
L 120.795857 316.40211 
L 121.922113 316.88296 
L 123.048368 319.374636 
L 125.30088 320.336336 
L 126.427136 322.784299 
L 127.553391 323.265149 
L 129.805903 328.117361 
L 130.932158 328.598211 
L 132.058414 355.482088 
L 136.563437 364.924231 
L 138.815949 365.536221 
L 139.942204 354.083252 
L 141.06846 354.476675 
L 142.194716 343.06742 
L 143.320971 323.527431 
L 144.447227 323.964567 
L 145.573483 312.642739 
L 150.078506 314.609852 
L 151.204761 317.057814 
L 155.709784 318.981214 
L 156.83604 319.287209 
L 157.962296 319.768059 
L 159.088552 326.193962 
L 160.214807 328.641924 
L 162.467319 329.55991 
L 163.593574 320.205195 
L 166.972342 321.604031 
L 169.224853 322.565731 
L 170.351109 325.013694 
L 171.477364 325.45083 
L 172.60362 374.32266 
L 173.729876 374.672368 
L 174.856132 374.890937 
L 175.982387 363.175686 
L 180.48741 364.661949 
L 187.244945 366.84763 
L 190.623712 367.940471 
L 191.749967 368.29018 
L 192.876223 368.508748 
L 196.25499 369.601588 
L 201.886269 371.393847 
L 203.012525 373.710669 
L 206.391292 374.759796 
L 207.517548 377.076618 
L 209.770059 377.732322 
L 210.896315 377.95089 
L 212.02257 354.65153 
L 213.148826 375.89635 
L 214.275082 378.213172 
L 215.401338 366.760203 
L 217.653849 367.459621 
L 218.780105 369.820156 
L 219.90636 370.169865 
L 221.032616 372.530401 
L 222.158872 361.077432 
L 224.411383 365.798503 
L 226.663895 331.439596 
L 227.790151 321.166895 
L 228.916406 366.891344 
L 230.042662 367.241053 
L 231.168918 369.601588 
L 234.547685 370.650715 
L 235.673941 372.967537 
L 236.800196 373.317246 
L 237.926452 346.171087 
L 239.052708 348.575336 
L 240.178963 348.968759 
L 241.305219 326.937093 
L 243.557731 327.855079 
L 244.683986 330.390469 
L 245.810242 321.035754 
L 246.936498 321.341749 
L 248.062754 321.822599 
L 249.189009 324.270562 
L 250.315265 312.948734 
L 251.441521 313.429584 
L 252.567776 315.92126 
L 253.694032 342.805138 
L 257.072799 344.072833 
L 258.199055 350.455022 
L 260.451566 351.241867 
L 261.577822 353.602403 
L 263.830334 354.432961 
L 264.956589 354.695243 
L 266.082845 355.088666 
L 268.335356 359.809737 
L 271.714124 360.946291 
L 272.840379 363.306827 
L 278.471658 365.186512 
L 279.597914 367.503334 
L 281.850425 368.246466 
L 282.976681 368.465034 
L 286.355448 369.557875 
L 304.37554 375.065791 
L 305.501795 363.612822 
L 308.880562 364.705663 
L 310.006818 367.066198 
L 311.133074 367.415907 
L 312.25933 349.843031 
L 313.385585 352.203567 
L 314.511841 373.492101 
L 317.890608 374.541228 
L 319.016864 374.759796 
L 321.269375 375.459214 
L 322.395631 377.776036 
L 323.521887 378.125745 
L 324.648143 368.639889 
L 325.774398 368.989598 
L 326.900654 371.43756 
L 329.153165 372.136978 
L 331.405677 332.619864 
L 332.531933 333.057 
L 333.658188 314.653565 
L 334.784444 315.134415 
L 335.9107 317.626092 
L 337.036955 317.932087 
L 338.163211 318.412937 
L 339.289467 320.904613 
L 341.541978 321.822599 
L 342.668234 324.270562 
L 343.79449 312.948734 
L 346.047001 317.888373 
L 347.173257 318.369223 
L 348.299513 333.494136 
L 349.425768 324.095708 
L 352.804536 331.439596 
L 353.930791 331.876732 
L 355.057047 332.182728 
L 356.183303 332.619864 
L 357.309558 321.254322 
L 358.435814 321.735172 
L 359.56207 324.183135 
L 366.319604 326.980807 
L 367.44586 317.626092 
L 371.950883 319.549491 
L 373.077139 319.855486 
L 374.203394 320.336336 
L 375.32965 326.762239 
L 376.455906 329.210201 
L 378.708417 330.128188 
L 379.834673 332.532437 
L 384.339696 334.324695 
L 385.465952 312.642739 
L 386.592207 315.134415 
L 387.718463 315.615265 
L 388.844719 354.039539 
L 389.970974 354.432961 
L 389.970974 354.432961 
" clip-path="url(#p96244eb0ab)" style="fill: none; stroke-dasharray: 9.6,2.4,1.5,2.4; stroke-dashoffset: 0; stroke: #8768b4; stroke-width: 1.5"/>
   </g>
   <g id="patch_12">
    <path d="M 50.5175 522.468125 
L 50.5175 282.043203 
" style="fill: none; stroke: #000000; stroke-width: 0.5; stroke-linejoin: miter; stroke-linecap: square"/>
   </g>
   <g id="patch_13">
    <path d="M 407.315312 522.468125 
L 407.315312 282.043203 
" style="fill: none; stroke: #000000; stroke-width: 0.5; stroke-linejoin: miter; stroke-linecap: square"/>
   </g>
   <g id="patch_14">
    <path d="M 50.5175 522.468125 
L 407.315312 522.468125 
" style="fill: none; stroke: #000000; stroke-width: 0.5; stroke-linejoin: miter; stroke-linecap: square"/>
   </g>
   <g id="patch_15">
    <path d="M 50.5175 282.043203 
L 407.315312 282.043203 
" style="fill: none; stroke: #000000; stroke-width: 0.5; stroke-linejoin: miter; stroke-linecap: square"/>
   </g>
  </g>
  <g id="axes_3">
   <g id="matplotlib.axis_5">
    <g id="ytick_7">
     <g id="line2d_16">
      <defs>
       <path id="m46772365ee" d="M 0 0 
L 3.5 0 
" style="stroke: #000000; stroke-width: 0.8"/>
      </defs>
      <g>
       <use xlink:href="#m46772365ee" x="407.315312" y="255.734798" style="stroke: #000000; stroke-width: 0.8"/>
      </g>
     </g>
     <g id="text_14">
      <!-- 0 -->
      <g transform="translate(414.315312 259.913938)scale(0.11 -0.11)">
       <use xlink:href="#DejaVuSerif-30"/>
      </g>
     </g>
    </g>
    <g id="ytick_8">
     <g id="line2d_17">
      <g>
       <use xlink:href="#m46772365ee" x="407.315312" y="182.878761" style="stroke: #000000; stroke-width: 0.8"/>
      </g>
     </g>
     <g id="text_15">
      <!-- 1 -->
      <g transform="translate(414.315312 187.057901)scale(0.11 -0.11)">
       <use xlink:href="#DejaVuSerif-31"/>
      </g>
     </g>
    </g>
    <g id="ytick_9">
     <g id="line2d_18">
      <g>
       <use xlink:href="#m46772365ee" x="407.315312" y="110.022724" style="stroke: #000000; stroke-width: 0.8"/>
      </g>
     </g>
     <g id="text_16">
      <!-- 2 -->
      <g transform="translate(414.315312 114.201864)scale(0.11 -0.11)">
       <use xlink:href="#DejaVuSerif-32"/>
      </g>
     </g>
    </g>
    <g id="ytick_10">
     <g id="line2d_19">
      <g>
       <use xlink:href="#m46772365ee" x="407.315312" y="37.166687" style="stroke: #000000; stroke-width: 0.8"/>
      </g>
     </g>
     <g id="text_17">
      <!-- 3 -->
      <g transform="translate(414.315312 41.345827)scale(0.11 -0.11)">
       <use xlink:href="#DejaVuSerif-33"/>
      </g>
     </g>
    </g>
    <g id="text_18">
     <!-- Modus -->
     <g transform="translate(433.672344 165.278789)rotate(-90)scale(0.11 -0.11)">
      <defs>
       <path id="DejaVuSerif-4d" d="M 353 0 
L 353 331 
L 947 331 
L 947 4331 
L 319 4331 
L 319 4666 
L 1678 4666 
L 3316 1344 
L 4953 4666 
L 6228 4666 
L 6228 4331 
L 5606 4331 
L 5606 331 
L 6203 331 
L 6203 0 
L 4378 0 
L 4378 331 
L 4972 331 
L 4972 3938 
L 3372 684 
L 2931 684 
L 1331 3938 
L 1331 331 
L 1925 331 
L 1925 0 
L 353 0 
z
" transform="scale(0.015625)"/>
       <path id="DejaVuSerif-6f" d="M 1925 219 
Q 2388 219 2623 584 
Q 2859 950 2859 1663 
Q 2859 2375 2623 2739 
Q 2388 3103 1925 3103 
Q 1463 3103 1227 2739 
Q 991 2375 991 1663 
Q 991 950 1228 584 
Q 1466 219 1925 219 
z
M 1925 -91 
Q 1200 -91 759 389 
Q 319 869 319 1663 
Q 319 2456 758 2934 
Q 1197 3413 1925 3413 
Q 2653 3413 3092 2934 
Q 3531 2456 3531 1663 
Q 3531 869 3092 389 
Q 2653 -91 1925 -91 
z
" transform="scale(0.015625)"/>
       <path id="DejaVuSerif-75" d="M 2266 3322 
L 3341 3322 
L 3341 331 
L 3884 331 
L 3884 0 
L 2766 0 
L 2766 588 
Q 2606 256 2353 82 
Q 2100 -91 1766 -91 
Q 1213 -91 952 223 
Q 691 538 691 1209 
L 691 2988 
L 172 2988 
L 172 3322 
L 1269 3322 
L 1269 1388 
Q 1269 781 1417 556 
Q 1566 331 1947 331 
Q 2347 331 2556 625 
Q 2766 919 2766 1478 
L 2766 2988 
L 2266 2988 
L 2266 3322 
z
" transform="scale(0.015625)"/>
       <path id="DejaVuSerif-73" d="M 359 184 
L 359 959 
L 691 959 
Q 703 588 923 403 
Q 1144 219 1575 219 
Q 1963 219 2166 364 
Q 2369 509 2369 788 
Q 2369 1006 2220 1140 
Q 2072 1275 1594 1428 
L 1178 1569 
Q 750 1706 558 1912 
Q 366 2119 366 2438 
Q 366 2894 700 3153 
Q 1034 3413 1625 3413 
Q 1888 3413 2178 3344 
Q 2469 3275 2778 3144 
L 2778 2419 
L 2447 2419 
Q 2434 2741 2221 2922 
Q 2009 3103 1644 3103 
Q 1281 3103 1095 2975 
Q 909 2847 909 2591 
Q 909 2381 1050 2254 
Q 1191 2128 1613 1997 
L 2069 1856 
Q 2541 1709 2748 1489 
Q 2956 1269 2956 922 
Q 2956 450 2595 179 
Q 2234 -91 1600 -91 
Q 1278 -91 972 -22 
Q 666 47 359 184 
z
" transform="scale(0.015625)"/>
      </defs>
      <use xlink:href="#DejaVuSerif-4d"/>
      <use xlink:href="#DejaVuSerif-6f" x="102.392578"/>
      <use xlink:href="#DejaVuSerif-64" x="162.597656"/>
      <use xlink:href="#DejaVuSerif-75" x="226.611328"/>
      <use xlink:href="#DejaVuSerif-73" x="291.015625"/>
     </g>
    </g>
   </g>
   <g id="line2d_20">
    <path d="M 66.735582 110.022724 
L 66.735582 255.734798 
L 67.861838 255.734798 
L 67.861838 182.878761 
L 73.493117 182.878761 
L 73.493117 110.022724 
L 74.619372 110.022724 
L 74.619372 255.734798 
L 75.745628 255.734798 
L 75.745628 182.878761 
L 83.629418 182.878761 
L 83.629418 110.022724 
L 84.755674 110.022724 
L 84.755674 255.734798 
L 85.88193 255.734798 
L 85.88193 182.878761 
L 91.513208 182.878761 
L 91.513208 110.022724 
L 92.639464 110.022724 
L 92.639464 255.734798 
L 93.76572 255.734798 
L 93.76572 182.878761 
L 94.891975 182.878761 
L 94.891975 110.022724 
L 96.018231 110.022724 
L 96.018231 37.166687 
L 98.270743 37.166687 
L 98.270743 182.878761 
L 99.396998 182.878761 
L 99.396998 255.734798 
L 100.523254 255.734798 
L 100.523254 182.878761 
L 101.64951 182.878761 
L 101.64951 255.734798 
L 103.902021 255.734798 
L 103.902021 182.878761 
L 105.028277 182.878761 
L 105.028277 37.166687 
L 108.407044 37.166687 
L 108.407044 182.878761 
L 109.5333 182.878761 
L 109.5333 110.022724 
L 110.659556 110.022724 
L 110.659556 37.166687 
L 112.912067 37.166687 
L 112.912067 110.022724 
L 115.164578 110.022724 
L 115.164578 37.166687 
L 116.290834 37.166687 
L 116.290834 255.734798 
L 135.437181 255.734798 
L 135.437181 182.878761 
L 136.563437 182.878761 
L 136.563437 255.734798 
L 138.815949 255.734798 
L 138.815949 37.166687 
L 139.942204 37.166687 
L 139.942204 182.878761 
L 141.06846 182.878761 
L 141.06846 37.166687 
L 143.320971 37.166687 
L 143.320971 182.878761 
L 144.447227 182.878761 
L 144.447227 37.166687 
L 145.573483 37.166687 
L 145.573483 255.734798 
L 146.699739 255.734798 
L 146.699739 182.878761 
L 147.825994 182.878761 
L 147.825994 255.734798 
L 148.95225 255.734798 
L 148.95225 110.022724 
L 150.078506 110.022724 
L 150.078506 255.734798 
L 153.457273 255.734798 
L 153.457273 182.878761 
L 154.583529 182.878761 
L 154.583529 255.734798 
L 155.709784 255.734798 
L 155.709784 182.878761 
L 156.83604 182.878761 
L 156.83604 110.022724 
L 157.962296 110.022724 
L 157.962296 255.734798 
L 159.088552 255.734798 
L 159.088552 182.878761 
L 161.341063 182.878761 
L 161.341063 110.022724 
L 162.467319 110.022724 
L 162.467319 37.166687 
L 163.593574 37.166687 
L 163.593574 182.878761 
L 164.71983 182.878761 
L 164.71983 110.022724 
L 165.846086 110.022724 
L 165.846086 255.734798 
L 168.098597 255.734798 
L 168.098597 182.878761 
L 170.351109 182.878761 
L 170.351109 110.022724 
L 171.477364 110.022724 
L 171.477364 37.166687 
L 172.60362 37.166687 
L 172.60362 182.878761 
L 173.729876 182.878761 
L 173.729876 110.022724 
L 174.856132 110.022724 
L 174.856132 37.166687 
L 175.982387 37.166687 
L 175.982387 182.878761 
L 179.361155 182.878761 
L 179.361155 110.022724 
L 180.48741 110.022724 
L 180.48741 255.734798 
L 181.613666 255.734798 
L 181.613666 182.878761 
L 204.13878 182.878761 
L 204.13878 110.022724 
L 205.265036 110.022724 
L 205.265036 255.734798 
L 206.391292 255.734798 
L 206.391292 182.878761 
L 208.643803 182.878761 
L 208.643803 255.734798 
L 209.770059 255.734798 
L 209.770059 182.878761 
L 210.896315 182.878761 
L 210.896315 37.166687 
L 213.148826 37.166687 
L 213.148826 182.878761 
L 214.275082 182.878761 
L 214.275082 37.166687 
L 215.401338 37.166687 
L 215.401338 255.734798 
L 218.780105 255.734798 
L 218.780105 182.878761 
L 219.90636 182.878761 
L 219.90636 255.734798 
L 221.032616 255.734798 
L 221.032616 37.166687 
L 222.158872 37.166687 
L 222.158872 255.734798 
L 224.411383 255.734798 
L 224.411383 37.166687 
L 227.790151 37.166687 
L 227.790151 255.734798 
L 228.916406 255.734798 
L 228.916406 182.878761 
L 230.042662 182.878761 
L 230.042662 255.734798 
L 236.800196 255.734798 
L 236.800196 37.166687 
L 237.926452 37.166687 
L 237.926452 110.022724 
L 240.178963 110.022724 
L 240.178963 37.166687 
L 241.305219 37.166687 
L 241.305219 110.022724 
L 243.557731 110.022724 
L 243.557731 37.166687 
L 245.810242 37.166687 
L 245.810242 110.022724 
L 246.936498 110.022724 
L 246.936498 255.734798 
L 249.189009 255.734798 
L 249.189009 37.166687 
L 250.315265 37.166687 
L 250.315265 255.734798 
L 262.704078 255.734798 
L 262.704078 182.878761 
L 263.830334 182.878761 
L 263.830334 255.734798 
L 264.956589 255.734798 
L 264.956589 182.878761 
L 266.082845 182.878761 
L 266.082845 255.734798 
L 267.209101 255.734798 
L 267.209101 182.878761 
L 268.335356 182.878761 
L 268.335356 110.022724 
L 269.461612 110.022724 
L 269.461612 255.734798 
L 270.587868 255.734798 
L 270.587868 182.878761 
L 271.714124 182.878761 
L 271.714124 255.734798 
L 272.840379 255.734798 
L 272.840379 182.878761 
L 273.966635 182.878761 
L 273.966635 110.022724 
L 275.092891 110.022724 
L 275.092891 255.734798 
L 277.345402 255.734798 
L 277.345402 182.878761 
L 278.471658 182.878761 
L 278.471658 110.022724 
L 279.597914 110.022724 
L 279.597914 255.734798 
L 281.850425 255.734798 
L 281.850425 182.878761 
L 282.976681 182.878761 
L 282.976681 110.022724 
L 284.102937 110.022724 
L 284.102937 255.734798 
L 286.355448 255.734798 
L 286.355448 182.878761 
L 288.607959 182.878761 
L 288.607959 255.734798 
L 289.734215 255.734798 
L 289.734215 182.878761 
L 290.860471 182.878761 
L 290.860471 110.022724 
L 291.986727 110.022724 
L 291.986727 255.734798 
L 293.112982 255.734798 
L 293.112982 182.878761 
L 294.239238 182.878761 
L 294.239238 110.022724 
L 295.365494 110.022724 
L 295.365494 255.734798 
L 296.49175 255.734798 
L 296.49175 182.878761 
L 298.744261 182.878761 
L 298.744261 110.022724 
L 300.996772 110.022724 
L 300.996772 255.734798 
L 302.123028 255.734798 
L 302.123028 182.878761 
L 303.249284 182.878761 
L 303.249284 110.022724 
L 304.37554 110.022724 
L 304.37554 37.166687 
L 305.501795 37.166687 
L 305.501795 182.878761 
L 308.880562 182.878761 
L 308.880562 110.022724 
L 310.006818 110.022724 
L 310.006818 255.734798 
L 311.133074 255.734798 
L 311.133074 37.166687 
L 312.25933 37.166687 
L 312.25933 182.878761 
L 313.385585 182.878761 
L 313.385585 37.166687 
L 314.511841 37.166687 
L 314.511841 182.878761 
L 315.638097 182.878761 
L 315.638097 255.734798 
L 316.764353 255.734798 
L 316.764353 182.878761 
L 317.890608 182.878761 
L 317.890608 255.734798 
L 319.016864 255.734798 
L 319.016864 182.878761 
L 320.14312 182.878761 
L 320.14312 255.734798 
L 322.395631 255.734798 
L 322.395631 182.878761 
L 323.521887 182.878761 
L 323.521887 37.166687 
L 324.648143 37.166687 
L 324.648143 255.734798 
L 325.774398 255.734798 
L 325.774398 37.166687 
L 326.900654 37.166687 
L 326.900654 182.878761 
L 328.02691 182.878761 
L 328.02691 255.734798 
L 329.153165 255.734798 
L 329.153165 37.166687 
L 331.405677 37.166687 
L 331.405677 182.878761 
L 332.531933 182.878761 
L 332.531933 37.166687 
L 333.658188 37.166687 
L 333.658188 255.734798 
L 334.784444 255.734798 
L 334.784444 110.022724 
L 335.9107 110.022724 
L 335.9107 255.734798 
L 337.036955 255.734798 
L 337.036955 110.022724 
L 342.668234 110.022724 
L 342.668234 37.166687 
L 343.79449 37.166687 
L 343.79449 255.734798 
L 347.173257 255.734798 
L 347.173257 37.166687 
L 349.425768 37.166687 
L 349.425768 255.734798 
L 352.804536 255.734798 
L 352.804536 182.878761 
L 353.930791 182.878761 
L 353.930791 255.734798 
L 355.057047 255.734798 
L 355.057047 182.878761 
L 356.183303 182.878761 
L 356.183303 37.166687 
L 357.309558 37.166687 
L 357.309558 182.878761 
L 359.56207 182.878761 
L 359.56207 110.022724 
L 360.688326 110.022724 
L 360.688326 255.734798 
L 361.814581 255.734798 
L 361.814581 182.878761 
L 362.940837 182.878761 
L 362.940837 110.022724 
L 365.193349 110.022724 
L 365.193349 255.734798 
L 366.319604 255.734798 
L 366.319604 37.166687 
L 367.44586 37.166687 
L 367.44586 182.878761 
L 380.960929 182.878761 
L 380.960929 110.022724 
L 382.087184 110.022724 
L 382.087184 182.878761 
L 383.21344 182.878761 
L 383.21344 110.022724 
L 384.339696 110.022724 
L 384.339696 37.166687 
L 385.465952 37.166687 
L 385.465952 255.734798 
L 386.592207 255.734798 
L 386.592207 110.022724 
L 387.718463 110.022724 
L 387.718463 37.166687 
L 388.844719 37.166687 
L 388.844719 110.022724 
L 389.970974 110.022724 
L 389.970974 110.022724 
" clip-path="url(#p446514f52b)" style="fill: none; stroke-dasharray: 5.55,2.4; stroke-dashoffset: 0; stroke: #4b81c4; stroke-width: 1.5"/>
   </g>
   <g id="patch_16">
    <path d="M 50.5175 266.663203 
L 50.5175 26.238281 
" style="fill: none; stroke: #000000; stroke-width: 0.5; stroke-linejoin: miter; stroke-linecap: square"/>
   </g>
   <g id="patch_17">
    <path d="M 407.315312 266.663203 
L 407.315312 26.238281 
" style="fill: none; stroke: #000000; stroke-width: 0.5; stroke-linejoin: miter; stroke-linecap: square"/>
   </g>
   <g id="patch_18">
    <path d="M 50.5175 266.663203 
L 407.315312 266.663203 
" style="fill: none; stroke: #000000; stroke-width: 0.5; stroke-linejoin: miter; stroke-linecap: square"/>
   </g>
   <g id="patch_19">
    <path d="M 50.5175 26.238281 
L 407.315312 26.238281 
" style="fill: none; stroke: #000000; stroke-width: 0.5; stroke-linejoin: miter; stroke-linecap: square"/>
   </g>
  </g>
  <g id="legend_1">
   <g id="line2d_21">
    <path d="M 173.160544 15.412452 
L 182.323544 15.412452 
L 191.486544 15.412452 
" style="fill: none; stroke: #ec635c; stroke-width: 1.5; stroke-linecap: square"/>
   </g>
   <g id="text_19">
    <!-- $\dot{Q}_{\mathrm{WP}}$ -->
    <g transform="translate(198.816944 18.619502)scale(0.09163 -0.09163)">
     <use xlink:href="#DejaVuSans-307" transform="translate(74.271484 31.015625)"/>
     <use xlink:href="#DejaVuSans-Oblique-51" transform="translate(0 0.296875)"/>
     <use xlink:href="#DejaVuSans-57" transform="translate(79.667969 -16.109375)scale(0.7)"/>
     <use xlink:href="#DejaVuSans-50" transform="translate(148.881836 -16.109375)scale(0.7)"/>
    </g>
   </g>
   <g id="line2d_22">
    <path d="M 234.919164 15.412452 
L 244.082164 15.412452 
L 253.245164 15.412452 
" style="fill: none; stroke-dasharray: 1.5,2.475; stroke-dashoffset: 0; stroke: #f49961; stroke-width: 1.5"/>
   </g>
   <g id="text_20">
    <!-- $T_{\mathrm{PS}}$ -->
    <g transform="translate(260.575564 18.619502)scale(0.09163 -0.09163)">
     <defs>
      <path id="DejaVuSans-53" d="M 3425 4513 
L 3425 3897 
Q 3066 4069 2747 4153 
Q 2428 4238 2131 4238 
Q 1616 4238 1336 4038 
Q 1056 3838 1056 3469 
Q 1056 3159 1242 3001 
Q 1428 2844 1947 2747 
L 2328 2669 
Q 3034 2534 3370 2195 
Q 3706 1856 3706 1288 
Q 3706 609 3251 259 
Q 2797 -91 1919 -91 
Q 1588 -91 1214 -16 
Q 841 59 441 206 
L 441 856 
Q 825 641 1194 531 
Q 1563 422 1919 422 
Q 2459 422 2753 634 
Q 3047 847 3047 1241 
Q 3047 1584 2836 1778 
Q 2625 1972 2144 2069 
L 1759 2144 
Q 1053 2284 737 2584 
Q 422 2884 422 3419 
Q 422 4038 858 4394 
Q 1294 4750 2059 4750 
Q 2388 4750 2728 4690 
Q 3069 4631 3425 4513 
z
" transform="scale(0.015625)"/>
     </defs>
     <use xlink:href="#DejaVuSans-Oblique-54" transform="translate(0 0.09375)"/>
     <use xlink:href="#DejaVuSans-50" transform="translate(61.083984 -16.3125)scale(0.7)"/>
     <use xlink:href="#DejaVuSans-53" transform="translate(103.295898 -16.3125)scale(0.7)"/>
    </g>
   </g>
   <g id="line2d_23">
    <path d="M 292.737694 15.412452 
L 301.900694 15.412452 
L 311.063694 15.412452 
" style="fill: none; stroke-dasharray: 9.6,2.4,1.5,2.4; stroke-dashoffset: 0; stroke: #8768b4; stroke-width: 1.5"/>
   </g>
   <g id="text_21">
    <!-- $T_{\mathrm{TWW}}$ -->
    <g transform="translate(318.394094 18.619502)scale(0.09163 -0.09163)">
     <defs>
      <path id="DejaVuSans-54" d="M -19 4666 
L 3928 4666 
L 3928 4134 
L 2272 4134 
L 2272 0 
L 1638 0 
L 1638 4134 
L -19 4134 
L -19 4666 
z
" transform="scale(0.015625)"/>
     </defs>
     <use xlink:href="#DejaVuSans-Oblique-54" transform="translate(0 0.09375)"/>
     <use xlink:href="#DejaVuSans-54" transform="translate(61.083984 -16.3125)scale(0.7)"/>
     <use xlink:href="#DejaVuSans-57" transform="translate(103.842773 -16.3125)scale(0.7)"/>
     <use xlink:href="#DejaVuSans-57" transform="translate(173.056641 -16.3125)scale(0.7)"/>
    </g>
   </g>
   <g id="line2d_24">
    <path d="M 359.261074 15.412452 
L 359.261074 15.412452 
L 368.424074 15.412452 
L 368.424074 15.412452 
L 377.587074 15.412452 
" style="fill: none; stroke-dasharray: 5.55,2.4; stroke-dashoffset: 0; stroke: #4b81c4; stroke-width: 1.5"/>
   </g>
   <g id="text_22">
    <!-- Modus -->
    <g transform="translate(384.917474 18.619502)scale(0.09163 -0.09163)">
     <use xlink:href="#DejaVuSerif-4d"/>
     <use xlink:href="#DejaVuSerif-6f" x="102.392578"/>
     <use xlink:href="#DejaVuSerif-64" x="162.597656"/>
     <use xlink:href="#DejaVuSerif-75" x="226.611328"/>
     <use xlink:href="#DejaVuSerif-73" x="291.015625"/>
    </g>
   </g>
  </g>
 </g>
 <defs>
  <clipPath id="p446514f52b">
   <rect x="50.5175" y="26.238281" width="356.797812" height="240.424922"/>
  </clipPath>
  <clipPath id="p96244eb0ab">
   <rect x="50.5175" y="282.043203" width="356.797812" height="240.424922"/>
  </clipPath>
 </defs>
</svg>
