<?xml version="1.0" encoding="utf-8" standalone="no"?>
<!DOCTYPE svg PUBLIC "-//W3C//DTD SVG 1.1//EN"
  "http://www.w3.org/Graphics/SVG/1.1/DTD/svg11.dtd">
<svg xmlns:xlink="http://www.w3.org/1999/xlink" width="447.84pt" height="180pt" viewBox="0 0 447.84 180" xmlns="http://www.w3.org/2000/svg" version="1.1">
 <metadata>
  <rdf:RDF xmlns:dc="http://purl.org/dc/elements/1.1/" xmlns:cc="http://creativecommons.org/ns#" xmlns:rdf="http://www.w3.org/1999/02/22-rdf-syntax-ns#">
   <cc:Work>
    <dc:type rdf:resource="http://purl.org/dc/dcmitype/StillImage"/>
    <dc:date>2023-05-30T20:21:58.993043</dc:date>
    <dc:format>image/svg+xml</dc:format>
    <dc:creator>
     <cc:Agent>
      <dc:title>Matplotlib v3.5.3, https://matplotlib.org/</dc:title>
     </cc:Agent>
    </dc:creator>
   </cc:Work>
  </rdf:RDF>
 </metadata>
 <defs>
  <style type="text/css">*{stroke-linejoin: round; stroke-linecap: butt}</style>
 </defs>
 <g id="figure_1">
  <g id="patch_1">
   <path d="M 0 180 
L 447.84 180 
L 447.84 0 
L 0 0 
z
" style="fill: #ffffff"/>
  </g>
  <g id="axes_1">
   <g id="patch_2">
    <path d="M 58.037031 137.000313 
L 408.783125 137.000313 
L 408.783125 25.753594 
L 58.037031 25.753594 
z
" style="fill: #ffffff"/>
   </g>
   <g id="patch_3">
    <path d="M 73.980036 137.000313 
L 73.980036 25.753594 
L 180.266731 25.753594 
L 180.266731 137.000313 
z
" clip-path="url(#pf528648757)" style="fill: #808080; opacity: 0.2; stroke: #808080; stroke-width: 1.5; stroke-linejoin: miter"/>
   </g>
   <g id="patch_4">
    <path d="M 286.553426 137.000313 
L 286.553426 25.753594 
L 392.840121 25.753594 
L 392.840121 137.000313 
z
" clip-path="url(#pf528648757)" style="fill: #808080; opacity: 0.2; stroke: #808080; stroke-width: 1.5; stroke-linejoin: miter"/>
   </g>
   <g id="matplotlib.axis_1">
    <g id="xtick_1">
     <g id="line2d_1">
      <defs>
       <path id="m13cad25e7e" d="M 0 0 
L 0 3.5 
" style="stroke: #000000; stroke-width: 0.8"/>
      </defs>
      <g>
       <use xlink:href="#m13cad25e7e" x="127.123383" y="137.000313" style="stroke: #000000; stroke-width: 0.8"/>
      </g>
     </g>
     <g id="text_1">
      <!-- 1.4 -->
      <g transform="translate(119.478383 151.873906)scale(0.11 -0.11)">
       <defs>
        <path id="ArialMT-31" d="M 2384 0 
L 1822 0 
L 1822 3584 
Q 1619 3391 1289 3197 
Q 959 3003 697 2906 
L 697 3450 
Q 1169 3672 1522 3987 
Q 1875 4303 2022 4600 
L 2384 4600 
L 2384 0 
z
" transform="scale(0.015625)"/>
        <path id="ArialMT-2e" d="M 581 0 
L 581 641 
L 1222 641 
L 1222 0 
L 581 0 
z
" transform="scale(0.015625)"/>
        <path id="ArialMT-34" d="M 2069 0 
L 2069 1097 
L 81 1097 
L 81 1613 
L 2172 4581 
L 2631 4581 
L 2631 1613 
L 3250 1613 
L 3250 1097 
L 2631 1097 
L 2631 0 
L 2069 0 
z
M 2069 1613 
L 2069 3678 
L 634 1613 
L 2069 1613 
z
" transform="scale(0.015625)"/>
       </defs>
       <use xlink:href="#ArialMT-31"/>
       <use xlink:href="#ArialMT-2e" x="55.615234"/>
       <use xlink:href="#ArialMT-34" x="83.398438"/>
      </g>
     </g>
    </g>
    <g id="xtick_2">
     <g id="line2d_2">
      <g>
       <use xlink:href="#m13cad25e7e" x="233.410078" y="137.000313" style="stroke: #000000; stroke-width: 0.8"/>
      </g>
     </g>
     <g id="text_2">
      <!-- 2.4 -->
      <g transform="translate(225.765078 151.873906)scale(0.11 -0.11)">
       <defs>
        <path id="ArialMT-32" d="M 3222 541 
L 3222 0 
L 194 0 
Q 188 203 259 391 
Q 375 700 629 1000 
Q 884 1300 1366 1694 
Q 2113 2306 2375 2664 
Q 2638 3022 2638 3341 
Q 2638 3675 2398 3904 
Q 2159 4134 1775 4134 
Q 1369 4134 1125 3890 
Q 881 3647 878 3216 
L 300 3275 
Q 359 3922 746 4261 
Q 1134 4600 1788 4600 
Q 2447 4600 2831 4234 
Q 3216 3869 3216 3328 
Q 3216 3053 3103 2787 
Q 2991 2522 2730 2228 
Q 2469 1934 1863 1422 
Q 1356 997 1212 845 
Q 1069 694 975 541 
L 3222 541 
z
" transform="scale(0.015625)"/>
       </defs>
       <use xlink:href="#ArialMT-32"/>
       <use xlink:href="#ArialMT-2e" x="55.615234"/>
       <use xlink:href="#ArialMT-34" x="83.398438"/>
      </g>
     </g>
    </g>
    <g id="xtick_3">
     <g id="line2d_3">
      <g>
       <use xlink:href="#m13cad25e7e" x="339.696773" y="137.000313" style="stroke: #000000; stroke-width: 0.8"/>
      </g>
     </g>
     <g id="text_3">
      <!-- 3.4 -->
      <g transform="translate(332.051773 151.873906)scale(0.11 -0.11)">
       <defs>
        <path id="ArialMT-33" d="M 269 1209 
L 831 1284 
Q 928 806 1161 595 
Q 1394 384 1728 384 
Q 2125 384 2398 659 
Q 2672 934 2672 1341 
Q 2672 1728 2419 1979 
Q 2166 2231 1775 2231 
Q 1616 2231 1378 2169 
L 1441 2663 
Q 1497 2656 1531 2656 
Q 1891 2656 2178 2843 
Q 2466 3031 2466 3422 
Q 2466 3731 2256 3934 
Q 2047 4138 1716 4138 
Q 1388 4138 1169 3931 
Q 950 3725 888 3313 
L 325 3413 
Q 428 3978 793 4289 
Q 1159 4600 1703 4600 
Q 2078 4600 2393 4439 
Q 2709 4278 2876 4000 
Q 3044 3722 3044 3409 
Q 3044 3113 2884 2869 
Q 2725 2625 2413 2481 
Q 2819 2388 3044 2092 
Q 3269 1797 3269 1353 
Q 3269 753 2831 336 
Q 2394 -81 1725 -81 
Q 1122 -81 723 278 
Q 325 638 269 1209 
z
" transform="scale(0.015625)"/>
       </defs>
       <use xlink:href="#ArialMT-33"/>
       <use xlink:href="#ArialMT-2e" x="55.615234"/>
       <use xlink:href="#ArialMT-34" x="83.398438"/>
      </g>
     </g>
    </g>
    <g id="text_4">
     <!-- Zeit in d -->
     <g transform="translate(213.847266 165.93375)scale(0.11 -0.11)">
      <defs>
       <path id="ArialMT-5a" d="M 128 0 
L 128 563 
L 2475 3497 
Q 2725 3809 2950 4041 
L 394 4041 
L 394 4581 
L 3675 4581 
L 3675 4041 
L 1103 863 
L 825 541 
L 3750 541 
L 3750 0 
L 128 0 
z
" transform="scale(0.015625)"/>
       <path id="ArialMT-65" d="M 2694 1069 
L 3275 997 
Q 3138 488 2766 206 
Q 2394 -75 1816 -75 
Q 1088 -75 661 373 
Q 234 822 234 1631 
Q 234 2469 665 2931 
Q 1097 3394 1784 3394 
Q 2450 3394 2872 2941 
Q 3294 2488 3294 1666 
Q 3294 1616 3291 1516 
L 816 1516 
Q 847 969 1125 678 
Q 1403 388 1819 388 
Q 2128 388 2347 550 
Q 2566 713 2694 1069 
z
M 847 1978 
L 2700 1978 
Q 2663 2397 2488 2606 
Q 2219 2931 1791 2931 
Q 1403 2931 1139 2672 
Q 875 2413 847 1978 
z
" transform="scale(0.015625)"/>
       <path id="ArialMT-69" d="M 425 3934 
L 425 4581 
L 988 4581 
L 988 3934 
L 425 3934 
z
M 425 0 
L 425 3319 
L 988 3319 
L 988 0 
L 425 0 
z
" transform="scale(0.015625)"/>
       <path id="ArialMT-74" d="M 1650 503 
L 1731 6 
Q 1494 -44 1306 -44 
Q 1000 -44 831 53 
Q 663 150 594 308 
Q 525 466 525 972 
L 525 2881 
L 113 2881 
L 113 3319 
L 525 3319 
L 525 4141 
L 1084 4478 
L 1084 3319 
L 1650 3319 
L 1650 2881 
L 1084 2881 
L 1084 941 
Q 1084 700 1114 631 
Q 1144 563 1211 522 
Q 1278 481 1403 481 
Q 1497 481 1650 503 
z
" transform="scale(0.015625)"/>
       <path id="ArialMT-20" transform="scale(0.015625)"/>
       <path id="ArialMT-6e" d="M 422 0 
L 422 3319 
L 928 3319 
L 928 2847 
Q 1294 3394 1984 3394 
Q 2284 3394 2536 3286 
Q 2788 3178 2913 3003 
Q 3038 2828 3088 2588 
Q 3119 2431 3119 2041 
L 3119 0 
L 2556 0 
L 2556 2019 
Q 2556 2363 2490 2533 
Q 2425 2703 2258 2804 
Q 2091 2906 1866 2906 
Q 1506 2906 1245 2678 
Q 984 2450 984 1813 
L 984 0 
L 422 0 
z
" transform="scale(0.015625)"/>
       <path id="ArialMT-64" d="M 2575 0 
L 2575 419 
Q 2259 -75 1647 -75 
Q 1250 -75 917 144 
Q 584 363 401 755 
Q 219 1147 219 1656 
Q 219 2153 384 2558 
Q 550 2963 881 3178 
Q 1213 3394 1622 3394 
Q 1922 3394 2156 3267 
Q 2391 3141 2538 2938 
L 2538 4581 
L 3097 4581 
L 3097 0 
L 2575 0 
z
M 797 1656 
Q 797 1019 1065 703 
Q 1334 388 1700 388 
Q 2069 388 2326 689 
Q 2584 991 2584 1609 
Q 2584 2291 2321 2609 
Q 2059 2928 1675 2928 
Q 1300 2928 1048 2622 
Q 797 2316 797 1656 
z
" transform="scale(0.015625)"/>
      </defs>
      <use xlink:href="#ArialMT-5a"/>
      <use xlink:href="#ArialMT-65" x="61.083984"/>
      <use xlink:href="#ArialMT-69" x="116.699219"/>
      <use xlink:href="#ArialMT-74" x="138.916016"/>
      <use xlink:href="#ArialMT-20" x="166.699219"/>
      <use xlink:href="#ArialMT-69" x="194.482422"/>
      <use xlink:href="#ArialMT-6e" x="216.699219"/>
      <use xlink:href="#ArialMT-20" x="272.314453"/>
      <use xlink:href="#ArialMT-64" x="300.097656"/>
     </g>
    </g>
   </g>
   <g id="matplotlib.axis_2">
    <g id="ytick_1">
     <g id="line2d_4">
      <defs>
       <path id="md2d2d62aac" d="M 0 0 
L -3.5 0 
" style="stroke: #000000; stroke-width: 0.8"/>
      </defs>
      <g>
       <use xlink:href="#md2d2d62aac" x="58.037031" y="131.943643" style="stroke: #000000; stroke-width: 0.8"/>
      </g>
     </g>
     <g id="text_5">
      <!-- 0,0 -->
      <g transform="translate(35.747031 135.88044)scale(0.11 -0.11)">
       <defs>
        <path id="ArialMT-30" d="M 266 2259 
Q 266 3072 433 3567 
Q 600 4063 929 4331 
Q 1259 4600 1759 4600 
Q 2128 4600 2406 4451 
Q 2684 4303 2865 4023 
Q 3047 3744 3150 3342 
Q 3253 2941 3253 2259 
Q 3253 1453 3087 958 
Q 2922 463 2592 192 
Q 2263 -78 1759 -78 
Q 1097 -78 719 397 
Q 266 969 266 2259 
z
M 844 2259 
Q 844 1131 1108 757 
Q 1372 384 1759 384 
Q 2147 384 2411 759 
Q 2675 1134 2675 2259 
Q 2675 3391 2411 3762 
Q 2147 4134 1753 4134 
Q 1366 4134 1134 3806 
Q 844 3388 844 2259 
z
" transform="scale(0.015625)"/>
        <path id="ArialMT-2c" d="M 569 0 
L 569 641 
L 1209 641 
L 1209 0 
Q 1209 -353 1084 -570 
Q 959 -788 688 -906 
L 531 -666 
Q 709 -588 793 -436 
Q 878 -284 888 0 
L 569 0 
z
" transform="scale(0.015625)"/>
       </defs>
       <use xlink:href="#ArialMT-30"/>
       <use xlink:href="#ArialMT-2c" x="55.615234"/>
       <use xlink:href="#ArialMT-30" x="83.398438"/>
      </g>
     </g>
    </g>
    <g id="ytick_2">
     <g id="line2d_5">
      <g>
       <use xlink:href="#md2d2d62aac" x="58.037031" y="106.660298" style="stroke: #000000; stroke-width: 0.8"/>
      </g>
     </g>
     <g id="text_6">
      <!-- 2,5 -->
      <g transform="translate(35.747031 110.597095)scale(0.11 -0.11)">
       <defs>
        <path id="ArialMT-35" d="M 266 1200 
L 856 1250 
Q 922 819 1161 601 
Q 1400 384 1738 384 
Q 2144 384 2425 690 
Q 2706 997 2706 1503 
Q 2706 1984 2436 2262 
Q 2166 2541 1728 2541 
Q 1456 2541 1237 2417 
Q 1019 2294 894 2097 
L 366 2166 
L 809 4519 
L 3088 4519 
L 3088 3981 
L 1259 3981 
L 1013 2750 
Q 1425 3038 1878 3038 
Q 2478 3038 2890 2622 
Q 3303 2206 3303 1553 
Q 3303 931 2941 478 
Q 2500 -78 1738 -78 
Q 1113 -78 717 272 
Q 322 622 266 1200 
z
" transform="scale(0.015625)"/>
       </defs>
       <use xlink:href="#ArialMT-32"/>
       <use xlink:href="#ArialMT-2c" x="55.615234"/>
       <use xlink:href="#ArialMT-35" x="83.398438"/>
      </g>
     </g>
    </g>
    <g id="ytick_3">
     <g id="line2d_6">
      <g>
       <use xlink:href="#md2d2d62aac" x="58.037031" y="81.376953" style="stroke: #000000; stroke-width: 0.8"/>
      </g>
     </g>
     <g id="text_7">
      <!-- 5,0 -->
      <g transform="translate(35.747031 85.31375)scale(0.11 -0.11)">
       <use xlink:href="#ArialMT-35"/>
       <use xlink:href="#ArialMT-2c" x="55.615234"/>
       <use xlink:href="#ArialMT-30" x="83.398438"/>
      </g>
     </g>
    </g>
    <g id="ytick_4">
     <g id="line2d_7">
      <g>
       <use xlink:href="#md2d2d62aac" x="58.037031" y="56.093608" style="stroke: #000000; stroke-width: 0.8"/>
      </g>
     </g>
     <g id="text_8">
      <!-- 7,5 -->
      <g transform="translate(35.747031 60.030405)scale(0.11 -0.11)">
       <defs>
        <path id="ArialMT-37" d="M 303 3981 
L 303 4522 
L 3269 4522 
L 3269 4084 
Q 2831 3619 2401 2847 
Q 1972 2075 1738 1259 
Q 1569 684 1522 0 
L 944 0 
Q 953 541 1156 1306 
Q 1359 2072 1739 2783 
Q 2119 3494 2547 3981 
L 303 3981 
z
" transform="scale(0.015625)"/>
       </defs>
       <use xlink:href="#ArialMT-37"/>
       <use xlink:href="#ArialMT-2c" x="55.615234"/>
       <use xlink:href="#ArialMT-35" x="83.398438"/>
      </g>
     </g>
    </g>
    <g id="ytick_5">
     <g id="line2d_8">
      <g>
       <use xlink:href="#md2d2d62aac" x="58.037031" y="30.810263" style="stroke: #000000; stroke-width: 0.8"/>
      </g>
     </g>
     <g id="text_9">
      <!-- 10,0 -->
      <g transform="translate(29.63 34.74706)scale(0.11 -0.11)">
       <use xlink:href="#ArialMT-31"/>
       <use xlink:href="#ArialMT-30" x="55.615234"/>
       <use xlink:href="#ArialMT-2c" x="111.230469"/>
       <use xlink:href="#ArialMT-30" x="139.013672"/>
      </g>
     </g>
    </g>
    <g id="text_10">
     <!-- $\dot{Q}_{\mathrm{Haus}}$ in kW -->
     <g transform="translate(23.44375 110.911953)rotate(-90)scale(0.11 -0.11)">
      <defs>
       <path id="DejaVuSans-307" d="M -1894 4863 
L -1319 4863 
L -1319 4134 
L -1894 4134 
L -1894 4863 
z
M -1600 3584 
L -1600 3584 
z
" transform="scale(0.015625)"/>
       <path id="DejaVuSans-Oblique-51" d="M 2309 -84 
Q 2275 -88 2237 -89 
Q 2200 -91 2125 -91 
Q 1250 -91 756 411 
Q 263 913 263 1797 
Q 263 2319 452 2844 
Q 641 3369 978 3788 
Q 1369 4269 1858 4509 
Q 2347 4750 2938 4750 
Q 3794 4750 4287 4245 
Q 4781 3741 4781 2869 
Q 4781 1928 4265 1147 
Q 3750 366 2919 44 
L 3553 -825 
L 2847 -825 
L 2309 -84 
z
M 2919 4238 
Q 2400 4238 2003 3986 
Q 1606 3734 1313 3219 
Q 1125 2891 1026 2522 
Q 928 2153 928 1778 
Q 928 1128 1239 775 
Q 1550 422 2119 422 
Q 2631 422 3032 676 
Q 3434 931 3719 1434 
Q 3909 1772 4009 2142 
Q 4109 2513 4109 2881 
Q 4109 3528 3796 3883 
Q 3484 4238 2919 4238 
z
" transform="scale(0.015625)"/>
       <path id="DejaVuSans-48" d="M 628 4666 
L 1259 4666 
L 1259 2753 
L 3553 2753 
L 3553 4666 
L 4184 4666 
L 4184 0 
L 3553 0 
L 3553 2222 
L 1259 2222 
L 1259 0 
L 628 0 
L 628 4666 
z
" transform="scale(0.015625)"/>
       <path id="DejaVuSans-61" d="M 2194 1759 
Q 1497 1759 1228 1600 
Q 959 1441 959 1056 
Q 959 750 1161 570 
Q 1363 391 1709 391 
Q 2188 391 2477 730 
Q 2766 1069 2766 1631 
L 2766 1759 
L 2194 1759 
z
M 3341 1997 
L 3341 0 
L 2766 0 
L 2766 531 
Q 2569 213 2275 61 
Q 1981 -91 1556 -91 
Q 1019 -91 701 211 
Q 384 513 384 1019 
Q 384 1609 779 1909 
Q 1175 2209 1959 2209 
L 2766 2209 
L 2766 2266 
Q 2766 2663 2505 2880 
Q 2244 3097 1772 3097 
Q 1472 3097 1187 3025 
Q 903 2953 641 2809 
L 641 3341 
Q 956 3463 1253 3523 
Q 1550 3584 1831 3584 
Q 2591 3584 2966 3190 
Q 3341 2797 3341 1997 
z
" transform="scale(0.015625)"/>
       <path id="DejaVuSans-75" d="M 544 1381 
L 544 3500 
L 1119 3500 
L 1119 1403 
Q 1119 906 1312 657 
Q 1506 409 1894 409 
Q 2359 409 2629 706 
Q 2900 1003 2900 1516 
L 2900 3500 
L 3475 3500 
L 3475 0 
L 2900 0 
L 2900 538 
Q 2691 219 2414 64 
Q 2138 -91 1772 -91 
Q 1169 -91 856 284 
Q 544 659 544 1381 
z
M 1991 3584 
L 1991 3584 
z
" transform="scale(0.015625)"/>
       <path id="DejaVuSans-73" d="M 2834 3397 
L 2834 2853 
Q 2591 2978 2328 3040 
Q 2066 3103 1784 3103 
Q 1356 3103 1142 2972 
Q 928 2841 928 2578 
Q 928 2378 1081 2264 
Q 1234 2150 1697 2047 
L 1894 2003 
Q 2506 1872 2764 1633 
Q 3022 1394 3022 966 
Q 3022 478 2636 193 
Q 2250 -91 1575 -91 
Q 1294 -91 989 -36 
Q 684 19 347 128 
L 347 722 
Q 666 556 975 473 
Q 1284 391 1588 391 
Q 1994 391 2212 530 
Q 2431 669 2431 922 
Q 2431 1156 2273 1281 
Q 2116 1406 1581 1522 
L 1381 1569 
Q 847 1681 609 1914 
Q 372 2147 372 2553 
Q 372 3047 722 3315 
Q 1072 3584 1716 3584 
Q 2034 3584 2315 3537 
Q 2597 3491 2834 3397 
z
" transform="scale(0.015625)"/>
       <path id="ArialMT-6b" d="M 425 0 
L 425 4581 
L 988 4581 
L 988 1969 
L 2319 3319 
L 3047 3319 
L 1778 2088 
L 3175 0 
L 2481 0 
L 1384 1697 
L 988 1316 
L 988 0 
L 425 0 
z
" transform="scale(0.015625)"/>
       <path id="ArialMT-57" d="M 1294 0 
L 78 4581 
L 700 4581 
L 1397 1578 
Q 1509 1106 1591 641 
Q 1766 1375 1797 1488 
L 2669 4581 
L 3400 4581 
L 4056 2263 
Q 4303 1400 4413 641 
Q 4500 1075 4641 1638 
L 5359 4581 
L 5969 4581 
L 4713 0 
L 4128 0 
L 3163 3491 
Q 3041 3928 3019 4028 
Q 2947 3713 2884 3491 
L 1913 0 
L 1294 0 
z
" transform="scale(0.015625)"/>
      </defs>
      <use xlink:href="#DejaVuSans-307" transform="translate(74.271484 31.015625)"/>
      <use xlink:href="#DejaVuSans-Oblique-51" transform="translate(0 0.296875)"/>
      <use xlink:href="#DejaVuSans-48" transform="translate(79.667969 -16.109375)scale(0.7)"/>
      <use xlink:href="#DejaVuSans-61" transform="translate(132.304688 -16.109375)scale(0.7)"/>
      <use xlink:href="#DejaVuSans-75" transform="translate(175.200195 -16.109375)scale(0.7)"/>
      <use xlink:href="#DejaVuSans-73" transform="translate(219.56543 -16.109375)scale(0.7)"/>
      <use xlink:href="#ArialMT-20" transform="translate(258.769531 0.296875)"/>
      <use xlink:href="#ArialMT-69" transform="translate(286.552734 0.296875)"/>
      <use xlink:href="#ArialMT-6e" transform="translate(308.769531 0.296875)"/>
      <use xlink:href="#ArialMT-20" transform="translate(364.384766 0.296875)"/>
      <use xlink:href="#ArialMT-6b" transform="translate(392.167969 0.296875)"/>
      <use xlink:href="#ArialMT-57" transform="translate(442.167969 0.296875)"/>
     </g>
    </g>
   </g>
   <g id="line2d_9">
    <path d="M 73.980036 108.664762 
L 79.515801 107.96856 
L 83.944413 107.776811 
L 90.587332 108.057962 
L 96.123097 108.409906 
L 100.551709 109.504169 
L 104.980322 112.871911 
L 109.408934 121.883704 
L 113.837546 126.723543 
L 118.266158 126.600969 
L 131.551995 128.506322 
L 135.980608 128.313764 
L 149.266445 124.707752 
L 158.123669 120.285392 
L 162.552281 114.840775 
L 166.980894 112.733965 
L 172.516659 111.780075 
L 178.052424 111.148193 
L 181.373884 110.612186 
L 186.909649 109.438635 
L 190.231108 108.5968 
L 199.088333 106.108515 
L 202.409792 105.578576 
L 206.838404 106.536511 
L 211.267017 110.130387 
L 215.695629 119.801165 
L 220.124241 126.395871 
L 224.552854 128.755919 
L 230.088619 129.521297 
L 234.517231 129.723968 
L 245.588762 129.656815 
L 248.910221 129.448076 
L 252.23168 129.100986 
L 255.55314 128.571452 
L 259.981752 123.357419 
L 264.410364 121.401095 
L 268.838976 118.072998 
L 276.589048 116.625982 
L 278.803354 116.091997 
L 285.446273 114.155495 
L 293.196344 111.882826 
L 298.732109 110.528852 
L 302.053569 109.846 
L 305.375028 109.301902 
L 308.696487 108.945913 
L 313.125099 109.73718 
L 317.553712 112.374334 
L 321.982324 119.0815 
L 326.410936 124.426197 
L 330.839549 124.857025 
L 335.268161 125.742145 
L 339.696773 125.192788 
L 344.125385 123.793911 
L 357.411222 117.133671 
L 362.946988 114.612214 
L 368.482753 112.447959 
L 370.697059 111.515105 
L 375.125672 103.886007 
L 379.554284 101.897321 
L 390.625815 100.606454 
L 391.732968 100.416323 
L 391.732968 100.416323 
" clip-path="url(#pf528648757)" style="fill: none; stroke: #ec635c; stroke-width: 1.5; stroke-linecap: square"/>
   </g>
   <g id="patch_5">
    <path d="M 58.037031 137.000312 
L 58.037031 25.753594 
" style="fill: none; stroke: #000000; stroke-width: 0.5; stroke-linejoin: miter; stroke-linecap: square"/>
   </g>
   <g id="patch_6">
    <path d="M 408.783125 137.000312 
L 408.783125 25.753594 
" style="fill: none; stroke: #000000; stroke-width: 0.5; stroke-linejoin: miter; stroke-linecap: square"/>
   </g>
   <g id="patch_7">
    <path d="M 58.037031 137.000313 
L 408.783125 137.000313 
" style="fill: none; stroke: #000000; stroke-width: 0.5; stroke-linejoin: miter; stroke-linecap: square"/>
   </g>
   <g id="patch_8">
    <path d="M 58.037031 25.753594 
L 408.783125 25.753594 
" style="fill: none; stroke: #000000; stroke-width: 0.5; stroke-linejoin: miter; stroke-linecap: square"/>
   </g>
   <g id="text_11">
    <!-- April -->
    <g transform="translate(58.037031 19.753594)scale(0.11 -0.11)">
     <defs>
      <path id="ArialMT-41" d="M -9 0 
L 1750 4581 
L 2403 4581 
L 4278 0 
L 3588 0 
L 3053 1388 
L 1138 1388 
L 634 0 
L -9 0 
z
M 1313 1881 
L 2866 1881 
L 2388 3150 
Q 2169 3728 2063 4100 
Q 1975 3659 1816 3225 
L 1313 1881 
z
" transform="scale(0.015625)"/>
      <path id="ArialMT-70" d="M 422 -1272 
L 422 3319 
L 934 3319 
L 934 2888 
Q 1116 3141 1344 3267 
Q 1572 3394 1897 3394 
Q 2322 3394 2647 3175 
Q 2972 2956 3137 2557 
Q 3303 2159 3303 1684 
Q 3303 1175 3120 767 
Q 2938 359 2589 142 
Q 2241 -75 1856 -75 
Q 1575 -75 1351 44 
Q 1128 163 984 344 
L 984 -1272 
L 422 -1272 
z
M 931 1641 
Q 931 1000 1190 694 
Q 1450 388 1819 388 
Q 2194 388 2461 705 
Q 2728 1022 2728 1688 
Q 2728 2322 2467 2637 
Q 2206 2953 1844 2953 
Q 1484 2953 1207 2617 
Q 931 2281 931 1641 
z
" transform="scale(0.015625)"/>
      <path id="ArialMT-72" d="M 416 0 
L 416 3319 
L 922 3319 
L 922 2816 
Q 1116 3169 1280 3281 
Q 1444 3394 1641 3394 
Q 1925 3394 2219 3213 
L 2025 2691 
Q 1819 2813 1613 2813 
Q 1428 2813 1281 2702 
Q 1134 2591 1072 2394 
Q 978 2094 978 1738 
L 978 0 
L 416 0 
z
" transform="scale(0.015625)"/>
      <path id="ArialMT-6c" d="M 409 0 
L 409 4581 
L 972 4581 
L 972 0 
L 409 0 
z
" transform="scale(0.015625)"/>
     </defs>
     <use xlink:href="#ArialMT-41"/>
     <use xlink:href="#ArialMT-70" x="66.699219"/>
     <use xlink:href="#ArialMT-72" x="122.314453"/>
     <use xlink:href="#ArialMT-69" x="155.615234"/>
     <use xlink:href="#ArialMT-6c" x="177.832031"/>
    </g>
   </g>
  </g>
  <g id="axes_2">
   <g id="matplotlib.axis_3">
    <g id="ytick_6">
     <g id="line2d_10">
      <defs>
       <path id="m362cc96e8e" d="M 0 0 
L 3.5 0 
" style="stroke: #000000; stroke-width: 0.8"/>
      </defs>
      <g>
       <use xlink:href="#m362cc96e8e" x="408.783125" y="131.040667" style="stroke: #000000; stroke-width: 0.8"/>
      </g>
     </g>
     <g id="text_12">
      <!-- 0 -->
      <g transform="translate(415.783125 134.977464)scale(0.11 -0.11)">
       <use xlink:href="#ArialMT-30"/>
      </g>
     </g>
    </g>
    <g id="ytick_7">
     <g id="line2d_11">
      <g>
       <use xlink:href="#m362cc96e8e" x="408.783125" y="111.175181" style="stroke: #000000; stroke-width: 0.8"/>
      </g>
     </g>
     <g id="text_13">
      <!-- 1 -->
      <g transform="translate(415.783125 115.111978)scale(0.11 -0.11)">
       <use xlink:href="#ArialMT-31"/>
      </g>
     </g>
    </g>
    <g id="ytick_8">
     <g id="line2d_12">
      <g>
       <use xlink:href="#m362cc96e8e" x="408.783125" y="91.309696" style="stroke: #000000; stroke-width: 0.8"/>
      </g>
     </g>
     <g id="text_14">
      <!-- 2 -->
      <g transform="translate(415.783125 95.246493)scale(0.11 -0.11)">
       <use xlink:href="#ArialMT-32"/>
      </g>
     </g>
    </g>
    <g id="ytick_9">
     <g id="line2d_13">
      <g>
       <use xlink:href="#m362cc96e8e" x="408.783125" y="71.44421" style="stroke: #000000; stroke-width: 0.8"/>
      </g>
     </g>
     <g id="text_15">
      <!-- 3 -->
      <g transform="translate(415.783125 75.381007)scale(0.11 -0.11)">
       <use xlink:href="#ArialMT-33"/>
      </g>
     </g>
    </g>
    <g id="ytick_10">
     <g id="line2d_14">
      <g>
       <use xlink:href="#m362cc96e8e" x="408.783125" y="51.578725" style="stroke: #000000; stroke-width: 0.8"/>
      </g>
     </g>
     <g id="text_16">
      <!-- 4 -->
      <g transform="translate(415.783125 55.515522)scale(0.11 -0.11)">
       <use xlink:href="#ArialMT-34"/>
      </g>
     </g>
    </g>
    <g id="ytick_11">
     <g id="line2d_15">
      <g>
       <use xlink:href="#m362cc96e8e" x="408.783125" y="31.713239" style="stroke: #000000; stroke-width: 0.8"/>
      </g>
     </g>
     <g id="text_17">
      <!-- 5 -->
      <g transform="translate(415.783125 35.650036)scale(0.11 -0.11)">
       <use xlink:href="#ArialMT-35"/>
      </g>
     </g>
    </g>
    <g id="text_18">
     <!-- $P_{\mathrm{PV}}$ in kW -->
     <g transform="translate(433.77375 105.081953)rotate(-90)scale(0.11 -0.11)">
      <defs>
       <path id="DejaVuSans-Oblique-50" d="M 1081 4666 
L 2541 4666 
Q 3178 4666 3512 4369 
Q 3847 4072 3847 3500 
Q 3847 2731 3353 2303 
Q 2859 1875 1966 1875 
L 1172 1875 
L 806 0 
L 172 0 
L 1081 4666 
z
M 1613 4147 
L 1275 2394 
L 2069 2394 
Q 2606 2394 2893 2669 
Q 3181 2944 3181 3456 
Q 3181 3784 2986 3965 
Q 2791 4147 2438 4147 
L 1613 4147 
z
" transform="scale(0.015625)"/>
       <path id="DejaVuSans-50" d="M 1259 4147 
L 1259 2394 
L 2053 2394 
Q 2494 2394 2734 2622 
Q 2975 2850 2975 3272 
Q 2975 3691 2734 3919 
Q 2494 4147 2053 4147 
L 1259 4147 
z
M 628 4666 
L 2053 4666 
Q 2838 4666 3239 4311 
Q 3641 3956 3641 3272 
Q 3641 2581 3239 2228 
Q 2838 1875 2053 1875 
L 1259 1875 
L 1259 0 
L 628 0 
L 628 4666 
z
" transform="scale(0.015625)"/>
       <path id="DejaVuSans-56" d="M 1831 0 
L 50 4666 
L 709 4666 
L 2188 738 
L 3669 4666 
L 4325 4666 
L 2547 0 
L 1831 0 
z
" transform="scale(0.015625)"/>
      </defs>
      <use xlink:href="#DejaVuSans-Oblique-50" transform="translate(0 0.09375)"/>
      <use xlink:href="#DejaVuSans-50" transform="translate(60.302734 -16.3125)scale(0.7)"/>
      <use xlink:href="#DejaVuSans-56" transform="translate(102.514648 -16.3125)scale(0.7)"/>
      <use xlink:href="#ArialMT-20" transform="translate(153.134766 0.09375)"/>
      <use xlink:href="#ArialMT-69" transform="translate(180.917969 0.09375)"/>
      <use xlink:href="#ArialMT-6e" transform="translate(203.134766 0.09375)"/>
      <use xlink:href="#ArialMT-20" transform="translate(258.75 0.09375)"/>
      <use xlink:href="#ArialMT-6b" transform="translate(286.533203 0.09375)"/>
      <use xlink:href="#ArialMT-57" transform="translate(336.533203 0.09375)"/>
     </g>
    </g>
   </g>
   <g id="line2d_16">
    <path d="M 73.980036 131.040667 
L 96.123097 131.040667 
L 96.123097 130.925447 
L 97.23025 130.925447 
L 97.23025 130.809433 
L 98.337403 130.809433 
L 98.337403 130.694213 
L 99.444556 130.694213 
L 99.444556 130.578198 
L 100.551709 130.578198 
L 100.551709 129.667564 
L 101.658862 129.667564 
L 101.658862 128.756931 
L 102.766015 128.756931 
L 102.766015 127.846297 
L 103.873169 127.846297 
L 103.873169 126.936458 
L 104.980322 126.936458 
L 104.980322 122.727358 
L 106.087475 122.727358 
L 106.087475 118.519054 
L 107.194628 118.519054 
L 107.194628 114.309955 
L 108.301781 114.309955 
L 108.301781 110.101651 
L 109.408934 110.101651 
L 109.408934 105.710584 
L 110.516087 105.710584 
L 110.516087 101.319517 
L 111.62324 101.319517 
L 111.62324 96.92845 
L 112.730393 96.92845 
L 112.730393 92.537383 
L 113.837546 92.537383 
L 113.837546 92.07412 
L 114.944699 92.07412 
L 114.944699 91.610062 
L 116.051852 91.610062 
L 116.051852 91.146004 
L 117.159005 91.146004 
L 117.159005 90.681947 
L 118.266158 90.681947 
L 118.266158 93.627601 
L 119.373312 93.627601 
L 119.373312 96.57246 
L 120.480465 96.57246 
L 120.480465 99.518114 
L 121.587618 99.518114 
L 121.587618 102.462974 
L 122.694771 102.462974 
L 122.694771 100.395374 
L 123.801924 100.395374 
L 123.801924 98.328569 
L 124.909077 98.328569 
L 124.909077 96.260969 
L 126.01623 96.260969 
L 126.01623 94.194164 
L 127.123383 94.194164 
L 127.123383 92.249731 
L 128.230536 92.249731 
L 128.230536 90.306092 
L 129.337689 90.306092 
L 129.337689 88.361658 
L 130.444842 88.361658 
L 130.444842 86.418019 
L 131.551995 86.418019 
L 131.551995 90.546861 
L 132.659148 90.546861 
L 132.659148 94.674909 
L 133.766301 94.674909 
L 133.766301 98.803752 
L 134.873455 98.803752 
L 134.873455 102.932594 
L 135.980608 102.932594 
L 135.980608 107.741631 
L 137.087761 107.741631 
L 137.087761 112.549873 
L 138.194914 112.549873 
L 138.194914 117.35891 
L 139.302067 117.35891 
L 139.302067 122.167152 
L 144.837832 122.11868 
L 144.837832 121.312141 
L 145.944985 121.312141 
L 145.944985 120.505603 
L 147.052138 120.505603 
L 147.052138 119.699064 
L 148.159291 119.699064 
L 148.159291 118.89332 
L 149.266445 118.89332 
L 149.266445 121.668925 
L 150.373598 121.668925 
L 150.373598 124.445326 
L 151.480751 124.445326 
L 151.480751 127.221726 
L 152.587904 127.221726 
L 152.587904 129.998126 
L 153.695057 129.998126 
L 153.695057 130.258761 
L 154.80221 130.258761 
L 154.80221 130.519397 
L 155.909363 130.519397 
L 155.909363 130.780032 
L 157.016516 130.780032 
L 157.016516 131.040667 
L 202.409792 131.040667 
L 202.409792 130.733149 
L 203.516945 130.733149 
L 203.516945 130.426426 
L 204.624098 130.426426 
L 204.624098 130.118908 
L 205.731251 130.118908 
L 205.731251 129.812185 
L 206.838404 129.812185 
L 206.838404 128.926979 
L 207.945557 128.926979 
L 207.945557 128.040979 
L 209.052711 128.040979 
L 209.052711 127.155773 
L 210.159864 127.155773 
L 210.159864 126.270566 
L 211.267017 126.270566 
L 211.267017 121.913668 
L 212.37417 121.913668 
L 212.37417 117.55677 
L 213.481323 117.55677 
L 213.481323 113.199077 
L 214.588476 113.199077 
L 214.588476 108.842179 
L 215.695629 108.842179 
L 215.695629 104.05857 
L 216.802782 104.05857 
L 216.802782 99.274961 
L 217.909935 99.274961 
L 217.909935 94.491352 
L 219.017088 94.491352 
L 219.017088 89.707743 
L 220.124241 89.707743 
L 220.124241 85.803778 
L 221.231394 85.803778 
L 221.231394 81.900607 
L 222.338547 81.900607 
L 222.338547 77.996642 
L 223.4457 77.996642 
L 223.4457 74.093472 
L 224.552854 74.093472 
L 224.552854 75.578615 
L 225.660007 75.578615 
L 225.660007 77.063759 
L 226.76716 77.063759 
L 226.76716 78.549697 
L 227.874313 78.549697 
L 227.874313 80.034841 
L 228.981466 80.034841 
L 228.981466 75.073237 
L 230.088619 75.073237 
L 230.088619 70.110839 
L 231.195772 70.110839 
L 231.195772 65.149235 
L 232.302925 65.149235 
L 232.302925 60.187632 
L 233.410078 60.187632 
L 233.410078 60.635797 
L 234.517231 60.635797 
L 234.517231 61.084757 
L 235.624384 61.084757 
L 235.624384 61.532922 
L 236.731537 61.532922 
L 236.731537 61.981088 
L 237.83869 61.981088 
L 237.83869 64.708222 
L 238.945843 64.708222 
L 238.945843 67.435355 
L 240.052997 67.435355 
L 240.052997 70.161695 
L 241.16015 70.161695 
L 241.16015 72.888828 
L 242.267303 72.888828 
L 242.267303 79.303791 
L 243.374456 79.303791 
L 243.374456 85.717959 
L 244.481609 85.717959 
L 244.481609 92.132922 
L 245.588762 92.132922 
L 245.588762 98.547884 
L 246.695915 98.547884 
L 246.695915 102.291336 
L 247.803068 102.291336 
L 247.803068 106.034788 
L 248.910221 106.034788 
L 248.910221 109.779035 
L 250.017374 109.779035 
L 250.017374 113.522487 
L 251.124527 113.522487 
L 251.124527 115.515393 
L 252.23168 115.515393 
L 252.23168 117.509093 
L 253.338833 117.509093 
L 253.338833 119.501998 
L 254.445987 119.501998 
L 254.445987 121.494904 
L 255.55314 121.494904 
L 255.55314 123.815192 
L 256.660293 123.815192 
L 256.660293 126.134687 
L 257.767446 126.134687 
L 257.767446 128.454975 
L 258.874599 128.454975 
L 258.874599 130.774469 
L 261.088905 130.841217 
L 261.088905 130.907965 
L 263.303211 130.973919 
L 263.303211 131.040667 
L 308.696487 131.040667 
L 308.696487 130.777648 
L 309.80364 130.777648 
L 309.80364 130.515423 
L 310.910793 130.515423 
L 310.910793 130.252404 
L 312.017946 130.252404 
L 312.017946 129.99018 
L 313.125099 129.99018 
L 313.125099 127.94483 
L 314.232253 127.94483 
L 314.232253 125.898685 
L 315.339406 125.898685 
L 315.339406 123.853334 
L 316.446559 123.853334 
L 316.446559 121.807984 
L 317.553712 121.807984 
L 317.553712 118.247294 
L 318.660865 118.247294 
L 318.660865 114.686605 
L 319.768018 114.686605 
L 319.768018 111.125915 
L 320.875171 111.125915 
L 320.875171 107.565225 
L 321.982324 107.565225 
L 321.982324 104.38198 
L 323.089477 104.38198 
L 323.089477 101.199529 
L 324.19663 101.199529 
L 324.19663 98.017078 
L 325.303783 98.017078 
L 325.303783 94.834628 
L 326.410936 94.834628 
L 326.410936 90.909208 
L 327.518089 90.909208 
L 327.518089 86.983788 
L 328.625242 86.983788 
L 328.625242 83.059162 
L 329.732396 83.059162 
L 329.732396 79.133743 
L 330.839549 79.133743 
L 330.839549 83.445347 
L 331.946702 83.445347 
L 331.946702 87.756158 
L 333.053855 87.756158 
L 333.053855 92.067763 
L 334.161008 92.067763 
L 334.161008 96.379368 
L 335.268161 96.379368 
L 335.268161 96.250639 
L 336.375314 96.250639 
L 336.375314 96.121911 
L 337.482467 96.121911 
L 337.482467 95.993183 
L 338.58962 95.993183 
L 338.58962 95.864454 
L 339.696773 95.864454 
L 339.696773 97.127899 
L 340.803926 97.127899 
L 340.803926 98.391344 
L 341.911079 98.391344 
L 341.911079 99.654789 
L 343.018232 99.654789 
L 343.018232 100.919029 
L 344.125385 100.919029 
L 344.125385 105.297382 
L 345.232539 105.297382 
L 345.232539 109.676529 
L 346.339692 109.676529 
L 346.339692 114.055677 
L 347.446845 114.055677 
L 347.446845 118.434824 
L 348.553998 118.434824 
L 348.553998 119.728465 
L 349.661151 119.728465 
L 349.661151 121.022105 
L 350.768304 121.022105 
L 350.768304 122.315746 
L 351.875457 122.315746 
L 351.875457 123.608591 
L 352.98261 123.608591 
L 352.98261 123.409937 
L 354.089763 123.409937 
L 354.089763 123.211282 
L 355.196916 123.211282 
L 355.196916 123.011832 
L 356.304069 123.011832 
L 356.304069 122.813177 
L 357.411222 122.813177 
L 357.411222 123.495755 
L 358.518375 123.495755 
L 358.518375 124.178334 
L 359.625529 124.178334 
L 359.625529 124.860912 
L 360.732682 124.860912 
L 360.732682 125.542695 
L 361.839835 125.542695 
L 361.839835 126.821238 
L 362.946988 126.821238 
L 362.946988 128.098986 
L 364.054141 128.098986 
L 364.054141 129.377528 
L 365.161294 129.377528 
L 365.161294 130.655276 
L 367.3756 130.751425 
L 367.3756 130.848369 
L 369.589906 130.944518 
L 369.589906 131.040667 
L 391.732968 131.040667 
L 391.732968 131.040667 
" clip-path="url(#pf528648757)" style="fill: none; stroke-dasharray: 5.55,2.4; stroke-dashoffset: 0; stroke: #4b81c4; stroke-width: 1.5"/>
   </g>
   <g id="patch_9">
    <path d="M 58.037031 137.000312 
L 58.037031 25.753594 
" style="fill: none; stroke: #000000; stroke-width: 0.5; stroke-linejoin: miter; stroke-linecap: square"/>
   </g>
   <g id="patch_10">
    <path d="M 408.783125 137.000312 
L 408.783125 25.753594 
" style="fill: none; stroke: #000000; stroke-width: 0.5; stroke-linejoin: miter; stroke-linecap: square"/>
   </g>
   <g id="patch_11">
    <path d="M 58.037031 137.000313 
L 408.783125 137.000313 
" style="fill: none; stroke: #000000; stroke-width: 0.5; stroke-linejoin: miter; stroke-linecap: square"/>
   </g>
   <g id="patch_12">
    <path d="M 58.037031 25.753594 
L 408.783125 25.753594 
" style="fill: none; stroke: #000000; stroke-width: 0.5; stroke-linejoin: miter; stroke-linecap: square"/>
   </g>
  </g>
  <g id="legend_1">
   <g id="line2d_17">
    <path d="M 308.80301 15.588554 
L 317.96601 15.588554 
L 327.12901 15.588554 
" style="fill: none; stroke: #ec635c; stroke-width: 1.5; stroke-linecap: square"/>
   </g>
   <g id="text_19">
    <!-- $\dot{Q}_{\mathrm{Haus}}$ -->
    <g transform="translate(334.45941 18.795604)scale(0.09163 -0.09163)">
     <use xlink:href="#DejaVuSans-307" transform="translate(74.271484 31.015625)"/>
     <use xlink:href="#DejaVuSans-Oblique-51" transform="translate(0 0.296875)"/>
     <use xlink:href="#DejaVuSans-48" transform="translate(79.667969 -16.109375)scale(0.7)"/>
     <use xlink:href="#DejaVuSans-61" transform="translate(132.304688 -16.109375)scale(0.7)"/>
     <use xlink:href="#DejaVuSans-75" transform="translate(175.200195 -16.109375)scale(0.7)"/>
     <use xlink:href="#DejaVuSans-73" transform="translate(219.56543 -16.109375)scale(0.7)"/>
    </g>
   </g>
   <g id="line2d_18">
    <path d="M 376.51758 15.588554 
L 376.51758 15.588554 
L 385.68058 15.588554 
L 385.68058 15.588554 
L 394.84358 15.588554 
" style="fill: none; stroke-dasharray: 5.55,2.4; stroke-dashoffset: 0; stroke: #4b81c4; stroke-width: 1.5"/>
   </g>
   <g id="text_20">
    <!-- $P_{\mathrm{PV}}$ -->
    <g transform="translate(402.17398 18.795604)scale(0.09163 -0.09163)">
     <use xlink:href="#DejaVuSans-Oblique-50" transform="translate(0 0.09375)"/>
     <use xlink:href="#DejaVuSans-50" transform="translate(60.302734 -16.3125)scale(0.7)"/>
     <use xlink:href="#DejaVuSans-56" transform="translate(102.514648 -16.3125)scale(0.7)"/>
    </g>
   </g>
  </g>
 </g>
 <defs>
  <clipPath id="pf528648757">
   <rect x="58.037031" y="25.753594" width="350.746094" height="111.246719"/>
  </clipPath>
 </defs>
</svg>
