<?xml version="1.0" encoding="utf-8" standalone="no"?>
<!DOCTYPE svg PUBLIC "-//W3C//DTD SVG 1.1//EN"
  "http://www.w3.org/Graphics/SVG/1.1/DTD/svg11.dtd">
<svg xmlns:xlink="http://www.w3.org/1999/xlink" width="447.84pt" height="566.64pt" viewBox="0 0 447.84 566.64" xmlns="http://www.w3.org/2000/svg" version="1.1">
 <metadata>
  <rdf:RDF xmlns:dc="http://purl.org/dc/elements/1.1/" xmlns:cc="http://creativecommons.org/ns#" xmlns:rdf="http://www.w3.org/1999/02/22-rdf-syntax-ns#">
   <cc:Work>
    <dc:type rdf:resource="http://purl.org/dc/dcmitype/StillImage"/>
    <dc:date>2023-05-03T10:39:12.189540</dc:date>
    <dc:format>image/svg+xml</dc:format>
    <dc:creator>
     <cc:Agent>
      <dc:title>Matplotlib v3.5.3, https://matplotlib.org/</dc:title>
     </cc:Agent>
    </dc:creator>
   </cc:Work>
  </rdf:RDF>
 </metadata>
 <defs>
  <style type="text/css">*{stroke-linejoin: round; stroke-linecap: butt}</style>
 </defs>
 <g id="figure_1">
  <g id="patch_1">
   <path d="M 0 566.64 
L 447.84 566.64 
L 447.84 0 
L 0 0 
z
" style="fill: #ffffff"/>
  </g>
  <g id="axes_1">
   <g id="patch_2">
    <path d="M 47.523438 117.331016 
L 234.051719 117.331016 
L 234.051719 26.238281 
L 47.523438 26.238281 
z
" style="fill: #ffffff"/>
   </g>
   <g id="matplotlib.axis_1">
    <g id="xtick_1">
     <g id="line2d_1">
      <defs>
       <path id="m4a9e093bad" d="M 0 0 
L 0 3.5 
" style="stroke: #000000; stroke-width: 0.8"/>
      </defs>
      <g>
       <use xlink:href="#m4a9e093bad" x="56.001996" y="117.331016" style="stroke: #000000; stroke-width: 0.8"/>
      </g>
     </g>
     <g id="text_1">
      <!-- 0 -->
      <g transform="translate(52.502621 132.689297)scale(0.11 -0.11)">
       <defs>
        <path id="DejaVuSerif-30" d="M 2034 219 
Q 2513 219 2750 744 
Q 2988 1269 2988 2328 
Q 2988 3391 2750 3916 
Q 2513 4441 2034 4441 
Q 1556 4441 1318 3916 
Q 1081 3391 1081 2328 
Q 1081 1269 1318 744 
Q 1556 219 2034 219 
z
M 2034 -91 
Q 1275 -91 848 546 
Q 422 1184 422 2328 
Q 422 3475 848 4112 
Q 1275 4750 2034 4750 
Q 2797 4750 3222 4112 
Q 3647 3475 3647 2328 
Q 3647 1184 3222 546 
Q 2797 -91 2034 -91 
z
" transform="scale(0.015625)"/>
       </defs>
       <use xlink:href="#DejaVuSerif-30"/>
      </g>
     </g>
    </g>
    <g id="xtick_2">
     <g id="line2d_2">
      <g>
       <use xlink:href="#m4a9e093bad" x="127.400381" y="117.331016" style="stroke: #000000; stroke-width: 0.8"/>
      </g>
     </g>
     <g id="text_2">
      <!-- 10 -->
      <g transform="translate(120.401631 132.689297)scale(0.11 -0.11)">
       <defs>
        <path id="DejaVuSerif-31" d="M 909 0 
L 909 331 
L 1722 331 
L 1722 4213 
L 781 3603 
L 781 4013 
L 1919 4750 
L 2350 4750 
L 2350 331 
L 3163 331 
L 3163 0 
L 909 0 
z
" transform="scale(0.015625)"/>
       </defs>
       <use xlink:href="#DejaVuSerif-31"/>
       <use xlink:href="#DejaVuSerif-30" x="63.623047"/>
      </g>
     </g>
    </g>
    <g id="xtick_3">
     <g id="line2d_3">
      <g>
       <use xlink:href="#m4a9e093bad" x="198.798766" y="117.331016" style="stroke: #000000; stroke-width: 0.8"/>
      </g>
     </g>
     <g id="text_3">
      <!-- 20 -->
      <g transform="translate(191.800016 132.689297)scale(0.11 -0.11)">
       <defs>
        <path id="DejaVuSerif-32" d="M 819 3553 
L 469 3553 
L 469 4384 
Q 803 4563 1142 4656 
Q 1481 4750 1806 4750 
Q 2534 4750 2956 4397 
Q 3378 4044 3378 3438 
Q 3378 2753 2422 1800 
Q 2347 1728 2309 1691 
L 1131 513 
L 3078 513 
L 3078 1088 
L 3444 1088 
L 3444 0 
L 434 0 
L 434 341 
L 1850 1753 
Q 2319 2222 2519 2614 
Q 2719 3006 2719 3438 
Q 2719 3909 2473 4175 
Q 2228 4441 1797 4441 
Q 1350 4441 1106 4219 
Q 863 3997 819 3553 
z
" transform="scale(0.015625)"/>
       </defs>
       <use xlink:href="#DejaVuSerif-32"/>
       <use xlink:href="#DejaVuSerif-30" x="63.623047"/>
      </g>
     </g>
    </g>
   </g>
   <g id="matplotlib.axis_2">
    <g id="ytick_1">
     <g id="line2d_4">
      <defs>
       <path id="mc9af627f92" d="M 0 0 
L -3.5 0 
" style="stroke: #000000; stroke-width: 0.8"/>
      </defs>
      <g>
       <use xlink:href="#mc9af627f92" x="47.523438" y="112.362321" style="stroke: #000000; stroke-width: 0.8"/>
      </g>
     </g>
     <g id="text_4">
      <!-- 20 -->
      <g transform="translate(26.525938 116.541462)scale(0.11 -0.11)">
       <use xlink:href="#DejaVuSerif-32"/>
       <use xlink:href="#DejaVuSerif-30" x="63.623047"/>
      </g>
     </g>
    </g>
    <g id="ytick_2">
     <g id="line2d_5">
      <g>
       <use xlink:href="#mc9af627f92" x="47.523438" y="87.518848" style="stroke: #000000; stroke-width: 0.8"/>
      </g>
     </g>
     <g id="text_5">
      <!-- 35 -->
      <g transform="translate(26.525938 91.697989)scale(0.11 -0.11)">
       <defs>
        <path id="DejaVuSerif-33" d="M 622 4469 
Q 988 4606 1323 4678 
Q 1659 4750 1953 4750 
Q 2638 4750 3022 4454 
Q 3406 4159 3406 3634 
Q 3406 3213 3140 2930 
Q 2875 2647 2388 2547 
Q 2963 2466 3280 2130 
Q 3597 1794 3597 1259 
Q 3597 606 3158 257 
Q 2719 -91 1894 -91 
Q 1528 -91 1179 -12 
Q 831 66 488 225 
L 488 1131 
L 838 1131 
Q 869 681 1141 450 
Q 1413 219 1906 219 
Q 2384 219 2661 495 
Q 2938 772 2938 1253 
Q 2938 1803 2653 2086 
Q 2369 2369 1819 2369 
L 1522 2369 
L 1522 2688 
L 1678 2688 
Q 2225 2688 2498 2914 
Q 2772 3141 2772 3597 
Q 2772 4006 2547 4223 
Q 2322 4441 1900 4441 
Q 1478 4441 1245 4241 
Q 1013 4041 972 3647 
L 622 3647 
L 622 4469 
z
" transform="scale(0.015625)"/>
        <path id="DejaVuSerif-35" d="M 3219 4666 
L 3219 4153 
L 1081 4153 
L 1081 2816 
Q 1244 2928 1461 2984 
Q 1678 3041 1947 3041 
Q 2703 3041 3140 2622 
Q 3578 2203 3578 1478 
Q 3578 738 3136 323 
Q 2694 -91 1894 -91 
Q 1572 -91 1234 -12 
Q 897 66 544 225 
L 544 1131 
L 897 1131 
Q 925 688 1179 453 
Q 1434 219 1894 219 
Q 2388 219 2653 544 
Q 2919 869 2919 1478 
Q 2919 2084 2655 2407 
Q 2391 2731 1894 2731 
Q 1613 2731 1398 2631 
Q 1184 2531 1019 2322 
L 750 2322 
L 750 4666 
L 3219 4666 
z
" transform="scale(0.015625)"/>
       </defs>
       <use xlink:href="#DejaVuSerif-33"/>
       <use xlink:href="#DejaVuSerif-35" x="63.623047"/>
      </g>
     </g>
    </g>
    <g id="ytick_3">
     <g id="line2d_6">
      <g>
       <use xlink:href="#mc9af627f92" x="47.523438" y="62.675375" style="stroke: #000000; stroke-width: 0.8"/>
      </g>
     </g>
     <g id="text_6">
      <!-- 50 -->
      <g transform="translate(26.525938 66.854516)scale(0.11 -0.11)">
       <use xlink:href="#DejaVuSerif-35"/>
       <use xlink:href="#DejaVuSerif-30" x="63.623047"/>
      </g>
     </g>
    </g>
    <g id="ytick_4">
     <g id="line2d_7">
      <g>
       <use xlink:href="#mc9af627f92" x="47.523438" y="37.831902" style="stroke: #000000; stroke-width: 0.8"/>
      </g>
     </g>
     <g id="text_7">
      <!-- 65 -->
      <g transform="translate(26.525938 42.011043)scale(0.11 -0.11)">
       <defs>
        <path id="DejaVuSerif-36" d="M 2094 219 
Q 2534 219 2771 542 
Q 3009 866 3009 1472 
Q 3009 2078 2771 2401 
Q 2534 2725 2094 2725 
Q 1647 2725 1412 2412 
Q 1178 2100 1178 1509 
Q 1178 888 1415 553 
Q 1653 219 2094 219 
z
M 1075 2569 
Q 1288 2803 1556 2918 
Q 1825 3034 2163 3034 
Q 2859 3034 3264 2615 
Q 3669 2197 3669 1472 
Q 3669 763 3233 336 
Q 2797 -91 2069 -91 
Q 1278 -91 853 498 
Q 428 1088 428 2181 
Q 428 3406 931 4078 
Q 1434 4750 2350 4750 
Q 2597 4750 2869 4703 
Q 3141 4656 3425 4563 
L 3425 3794 
L 3072 3794 
Q 3034 4109 2831 4275 
Q 2628 4441 2284 4441 
Q 1678 4441 1381 3981 
Q 1084 3522 1075 2569 
z
" transform="scale(0.015625)"/>
       </defs>
       <use xlink:href="#DejaVuSerif-36"/>
       <use xlink:href="#DejaVuSerif-35" x="63.623047"/>
      </g>
     </g>
    </g>
    <g id="text_8">
     <!-- $T$ in °C -->
     <g transform="translate(20.238281 90.924648)rotate(-90)scale(0.11 -0.11)">
      <defs>
       <path id="DejaVuSans-Oblique-54" d="M 378 4666 
L 4325 4666 
L 4225 4134 
L 2559 4134 
L 1759 0 
L 1125 0 
L 1925 4134 
L 275 4134 
L 378 4666 
z
" transform="scale(0.015625)"/>
       <path id="DejaVuSerif-20" transform="scale(0.015625)"/>
       <path id="DejaVuSerif-69" d="M 622 4353 
Q 622 4497 726 4603 
Q 831 4709 978 4709 
Q 1122 4709 1226 4603 
Q 1331 4497 1331 4353 
Q 1331 4206 1228 4103 
Q 1125 4000 978 4000 
Q 831 4000 726 4103 
Q 622 4206 622 4353 
z
M 1356 331 
L 1900 331 
L 1900 0 
L 231 0 
L 231 331 
L 781 331 
L 781 2988 
L 231 2988 
L 231 3322 
L 1356 3322 
L 1356 331 
z
" transform="scale(0.015625)"/>
       <path id="DejaVuSerif-6e" d="M 263 0 
L 263 331 
L 781 331 
L 781 2988 
L 231 2988 
L 231 3322 
L 1356 3322 
L 1356 2731 
Q 1516 3069 1770 3241 
Q 2025 3413 2363 3413 
Q 2913 3413 3172 3097 
Q 3431 2781 3431 2113 
L 3431 331 
L 3944 331 
L 3944 0 
L 2356 0 
L 2356 331 
L 2853 331 
L 2853 1931 
Q 2853 2541 2703 2767 
Q 2553 2994 2175 2994 
Q 1775 2994 1565 2701 
Q 1356 2409 1356 1850 
L 1356 331 
L 1856 331 
L 1856 0 
L 263 0 
z
" transform="scale(0.015625)"/>
       <path id="DejaVuSerif-b0" d="M 1600 4319 
Q 1363 4319 1200 4155 
Q 1038 3991 1038 3750 
Q 1038 3513 1198 3353 
Q 1359 3194 1600 3194 
Q 1838 3194 2000 3355 
Q 2163 3516 2163 3750 
Q 2163 3984 1997 4151 
Q 1831 4319 1600 4319 
z
M 1600 4750 
Q 1800 4750 1984 4673 
Q 2169 4597 2303 4453 
Q 2447 4313 2519 4134 
Q 2591 3956 2591 3750 
Q 2591 3338 2302 3052 
Q 2013 2766 1594 2766 
Q 1172 2766 890 3047 
Q 609 3328 609 3750 
Q 609 4169 896 4459 
Q 1184 4750 1600 4750 
z
" transform="scale(0.015625)"/>
       <path id="DejaVuSerif-43" d="M 4513 1234 
Q 4306 581 3820 245 
Q 3334 -91 2591 -91 
Q 2134 -91 1743 65 
Q 1353 222 1050 525 
Q 700 875 529 1320 
Q 359 1766 359 2328 
Q 359 3416 987 4083 
Q 1616 4750 2644 4750 
Q 3025 4750 3456 4650 
Q 3888 4550 4384 4347 
L 4384 3272 
L 4031 3272 
Q 3916 3859 3567 4137 
Q 3219 4416 2591 4416 
Q 1844 4416 1459 3886 
Q 1075 3356 1075 2328 
Q 1075 1303 1459 773 
Q 1844 244 2591 244 
Q 3113 244 3450 492 
Q 3788 741 3938 1234 
L 4513 1234 
z
" transform="scale(0.015625)"/>
      </defs>
      <use xlink:href="#DejaVuSans-Oblique-54" transform="translate(0 0.78125)"/>
      <use xlink:href="#DejaVuSerif-20" transform="translate(61.083984 0.78125)"/>
      <use xlink:href="#DejaVuSerif-69" transform="translate(92.871094 0.78125)"/>
      <use xlink:href="#DejaVuSerif-6e" transform="translate(124.853516 0.78125)"/>
      <use xlink:href="#DejaVuSerif-20" transform="translate(189.257812 0.78125)"/>
      <use xlink:href="#DejaVuSerif-b0" transform="translate(221.044922 0.78125)"/>
      <use xlink:href="#DejaVuSerif-43" transform="translate(271.044922 0.78125)"/>
     </g>
    </g>
   </g>
   <g id="line2d_8">
    <path d="M 56.001996 65.805653 
L 57.786955 65.888464 
L 59.571915 65.971276 
L 61.356875 66.037525 
L 63.141834 60.323526 
L 64.926794 39.488134 
L 66.711754 66.186586 
L 68.496713 66.21971 
L 70.281673 66.252835 
L 72.066632 66.269397 
L 73.851592 66.28596 
L 75.636552 66.302522 
L 77.421511 66.302522 
L 79.206471 66.302522 
L 80.991431 66.302522 
L 82.77639 66.28596 
L 84.56135 66.28596 
L 86.346309 66.252835 
L 88.131269 66.236273 
L 89.916229 66.21971 
L 91.701188 66.186586 
L 93.486148 66.170024 
L 95.271108 66.153461 
L 97.056067 66.136899 
L 98.841027 60.091654 
L 100.625986 39.305948 
L 102.410946 66.103774 
L 104.195906 66.087212 
L 105.980865 66.07065 
L 107.765825 65.57378 
L 109.550785 65.093473 
L 111.335744 64.596604 
L 113.120704 51.148004 
L 114.905664 32.995706 
L 116.690623 62.956934 
L 118.475583 62.377253 
L 120.260542 47.852103 
L 122.045502 31.289787 
L 123.830462 62.095694 
L 125.615421 62.244755 
L 127.400381 62.410378 
L 129.185341 63.735363 
L 130.9703 65.076911 
L 132.75526 66.418458 
L 134.540219 67.743443 
L 136.325179 68.919368 
L 138.110139 49.723644 
L 139.895098 71.287779 
L 141.680058 53.582664 
L 143.465018 73.209008 
L 145.249977 56.547318 
L 147.034937 74.683054 
L 148.819896 58.501672 
L 150.604856 75.66023 
L 152.389816 59.429161 
L 154.174775 76.123975 
L 155.959735 76.355847 
L 157.744695 76.041163 
L 159.529654 75.726479 
L 161.314614 57.408559 
L 163.099573 75.113674 
L 164.884533 55.785452 
L 166.669493 74.30212 
L 168.454452 73.904625 
L 170.239412 73.490567 
L 172.024372 73.142758 
L 173.809331 72.79495 
L 175.594291 72.463703 
L 177.379251 72.115895 
L 179.16421 67.130638 
L 180.94917 41.641235 
L 182.734129 64.414418 
L 184.519089 40.266562 
L 186.304049 64.43098 
L 188.089008 41.724046 
L 189.873968 67.296261 
L 191.658928 66.567519 
L 193.443887 65.905026 
L 195.228847 65.242534 
L 197.013806 64.563479 
L 198.798766 63.900986 
L 200.583726 64.00036 
L 202.368685 64.083172 
L 204.153645 54.940774 
L 205.938605 36.043172 
L 207.723564 64.464105 
L 209.508524 64.679415 
L 211.293483 57.49137 
L 213.078443 37.732528 
L 214.863403 65.308783 
L 216.648362 59.329787 
L 218.433322 38.941577 
L 220.218282 65.921589 
L 222.003241 65.921589 
L 223.788201 59.296663 
L 225.573161 38.709705 
" clip-path="url(#p74ea8ef117)" style="fill: none; stroke: #ec635c; stroke-width: 1.5; stroke-linecap: square"/>
   </g>
   <g id="line2d_9">
    <path d="M 56.001996 61.466326 
L 57.786955 61.598825 
L 59.571915 61.731323 
L 61.356875 61.863822 
L 63.141834 61.99632 
L 64.926794 62.112256 
L 66.711754 52.207992 
L 68.496713 52.357053 
L 70.281673 52.506113 
L 72.066632 52.655174 
L 73.851592 52.804235 
L 75.636552 52.953296 
L 77.421511 53.102357 
L 79.206471 53.251418 
L 80.991431 53.417041 
L 82.77639 53.566102 
L 84.56135 53.665475 
L 86.346309 53.814536 
L 88.131269 53.963597 
L 89.916229 54.112658 
L 91.701188 54.261719 
L 93.486148 54.41078 
L 95.271108 54.55984 
L 97.056067 54.692339 
L 98.841027 54.8414 
L 100.625986 54.990461 
L 102.410946 42.949657 
L 104.195906 48.382097 
L 105.980865 49.293024 
L 107.765825 50.203952 
L 109.550785 50.369575 
L 111.335744 50.518636 
L 113.120704 50.618009 
L 114.905664 50.783633 
L 116.690623 46.460868 
L 118.475583 46.626491 
L 120.260542 46.792115 
L 122.045502 47.719604 
L 123.830462 60.141341 
L 125.615421 61.019143 
L 127.400381 61.151642 
L 129.185341 61.284141 
L 130.9703 61.416639 
L 132.75526 62.294442 
L 134.540219 62.42694 
L 136.325179 62.542876 
L 138.110139 62.675375 
L 139.895098 55.421081 
L 141.680058 56.017324 
L 143.465018 56.166385 
L 145.249977 56.298884 
L 147.034937 57.193249 
L 148.819896 57.342309 
L 150.604856 57.474808 
L 152.389816 57.623869 
L 154.174775 53.284542 
L 155.959735 53.433603 
L 157.744695 53.582664 
L 159.529654 53.731725 
L 161.314614 53.880786 
L 163.099573 54.029846 
L 164.884533 54.178907 
L 166.669493 54.327968 
L 168.454452 54.477029 
L 170.239412 54.576403 
L 172.024372 54.725464 
L 173.809331 54.874524 
L 175.594291 55.007023 
L 177.379251 55.156084 
L 179.16421 57.55762 
L 180.94917 58.451985 
L 182.734129 54.857962 
L 184.519089 55.007023 
L 186.304049 50.684259 
L 188.089008 51.595186 
L 189.873968 47.272422 
L 191.658928 57.458246 
L 193.443887 58.352611 
L 195.228847 58.485109 
L 197.013806 59.362912 
L 198.798766 59.959155 
L 200.583726 60.836958 
L 202.368685 60.969457 
L 204.153645 61.847259 
L 205.938605 61.979758 
L 207.723564 52.406739 
L 209.508524 53.317667 
L 211.293483 53.466728 
L 213.078443 54.361093 
L 214.863403 62.42694 
L 216.648362 62.542876 
L 218.433322 62.675375 
L 220.218282 59.081353 
L 222.003241 59.213851 
L 223.788201 59.362912 
L 225.573161 60.240715 
" clip-path="url(#p74ea8ef117)" style="fill: none; stroke-dasharray: 5.55,2.4; stroke-dashoffset: 0; stroke: #4b81c4; stroke-width: 1.5"/>
   </g>
   <g id="patch_3">
    <path d="M 47.523438 117.331016 
L 47.523438 26.238281 
" style="fill: none; stroke: #000000; stroke-width: 0.5; stroke-linejoin: miter; stroke-linecap: square"/>
   </g>
   <g id="patch_4">
    <path d="M 234.051719 117.331016 
L 234.051719 26.238281 
" style="fill: none; stroke: #000000; stroke-width: 0.5; stroke-linejoin: miter; stroke-linecap: square"/>
   </g>
   <g id="patch_5">
    <path d="M 47.523438 117.331016 
L 234.051719 117.331016 
" style="fill: none; stroke: #000000; stroke-width: 0.5; stroke-linejoin: miter; stroke-linecap: square"/>
   </g>
   <g id="patch_6">
    <path d="M 47.523438 26.238281 
L 234.051719 26.238281 
" style="fill: none; stroke: #000000; stroke-width: 0.5; stroke-linejoin: miter; stroke-linecap: square"/>
   </g>
   <g id="text_9">
    <!-- kalter Sommertag -->
    <g transform="translate(90.169531 20.238281)scale(0.11 -0.11)">
     <defs>
      <path id="DejaVuSerif-6b" d="M 1831 0 
L 219 0 
L 219 331 
L 738 331 
L 738 4531 
L 184 4531 
L 184 4863 
L 1313 4863 
L 1313 1697 
L 2713 2988 
L 2234 2988 
L 2234 3322 
L 3738 3322 
L 3738 2988 
L 3169 2988 
L 2181 2075 
L 3444 331 
L 3922 331 
L 3922 0 
L 2284 0 
L 2284 331 
L 2759 331 
L 1766 1697 
L 1313 1275 
L 1313 331 
L 1831 331 
L 1831 0 
z
" transform="scale(0.015625)"/>
      <path id="DejaVuSerif-61" d="M 2547 1044 
L 2547 1747 
L 1806 1747 
Q 1378 1747 1168 1562 
Q 959 1378 959 997 
Q 959 650 1171 447 
Q 1384 244 1747 244 
Q 2106 244 2326 466 
Q 2547 688 2547 1044 
z
M 3122 2075 
L 3122 331 
L 3634 331 
L 3634 0 
L 2547 0 
L 2547 359 
Q 2356 128 2106 18 
Q 1856 -91 1522 -91 
Q 969 -91 644 203 
Q 319 497 319 997 
Q 319 1513 691 1797 
Q 1063 2081 1741 2081 
L 2547 2081 
L 2547 2309 
Q 2547 2688 2317 2895 
Q 2088 3103 1672 3103 
Q 1328 3103 1125 2947 
Q 922 2791 872 2484 
L 575 2484 
L 575 3156 
Q 875 3284 1158 3348 
Q 1441 3413 1709 3413 
Q 2400 3413 2761 3070 
Q 3122 2728 3122 2075 
z
" transform="scale(0.015625)"/>
      <path id="DejaVuSerif-6c" d="M 1313 331 
L 1856 331 
L 1856 0 
L 184 0 
L 184 331 
L 738 331 
L 738 4531 
L 184 4531 
L 184 4863 
L 1313 4863 
L 1313 331 
z
" transform="scale(0.015625)"/>
      <path id="DejaVuSerif-74" d="M 691 2988 
L 184 2988 
L 184 3322 
L 691 3322 
L 691 4353 
L 1269 4353 
L 1269 3322 
L 2350 3322 
L 2350 2988 
L 1269 2988 
L 1269 878 
Q 1269 456 1350 337 
Q 1431 219 1650 219 
Q 1875 219 1978 351 
Q 2081 484 2088 781 
L 2522 781 
Q 2497 328 2275 118 
Q 2053 -91 1600 -91 
Q 1103 -91 897 129 
Q 691 350 691 878 
L 691 2988 
z
" transform="scale(0.015625)"/>
      <path id="DejaVuSerif-65" d="M 3469 1600 
L 991 1600 
L 991 1575 
Q 991 903 1244 561 
Q 1497 219 1991 219 
Q 2369 219 2611 417 
Q 2853 616 2950 1006 
L 3413 1006 
Q 3275 459 2904 184 
Q 2534 -91 1931 -91 
Q 1203 -91 761 389 
Q 319 869 319 1663 
Q 319 2450 753 2931 
Q 1188 3413 1894 3413 
Q 2647 3413 3050 2948 
Q 3453 2484 3469 1600 
z
M 2791 1931 
Q 2772 2513 2545 2808 
Q 2319 3103 1894 3103 
Q 1497 3103 1269 2806 
Q 1041 2509 991 1931 
L 2791 1931 
z
" transform="scale(0.015625)"/>
      <path id="DejaVuSerif-72" d="M 3059 3328 
L 3059 2497 
L 2728 2497 
Q 2713 2744 2591 2866 
Q 2469 2988 2234 2988 
Q 1809 2988 1582 2694 
Q 1356 2400 1356 1850 
L 1356 331 
L 2022 331 
L 2022 0 
L 263 0 
L 263 331 
L 781 331 
L 781 2994 
L 231 2994 
L 231 3322 
L 1356 3322 
L 1356 2731 
Q 1525 3078 1790 3245 
Q 2056 3413 2438 3413 
Q 2578 3413 2733 3391 
Q 2888 3369 3059 3328 
z
" transform="scale(0.015625)"/>
      <path id="DejaVuSerif-53" d="M 594 225 
L 594 1288 
L 953 1284 
Q 969 753 1261 498 
Q 1553 244 2150 244 
Q 2706 244 2998 464 
Q 3291 684 3291 1106 
Q 3291 1444 3114 1625 
Q 2938 1806 2369 1978 
L 1753 2163 
Q 1084 2366 811 2669 
Q 538 2972 538 3500 
Q 538 4094 959 4422 
Q 1381 4750 2144 4750 
Q 2469 4750 2856 4679 
Q 3244 4609 3681 4475 
L 3681 3481 
L 3328 3481 
Q 3275 3975 2998 4195 
Q 2722 4416 2156 4416 
Q 1663 4416 1405 4214 
Q 1147 4013 1147 3628 
Q 1147 3294 1340 3103 
Q 1534 2913 2163 2725 
L 2741 2553 
Q 3375 2363 3645 2067 
Q 3916 1772 3916 1275 
Q 3916 597 3481 253 
Q 3047 -91 2188 -91 
Q 1803 -91 1404 -12 
Q 1006 66 594 225 
z
" transform="scale(0.015625)"/>
      <path id="DejaVuSerif-6f" d="M 1925 219 
Q 2388 219 2623 584 
Q 2859 950 2859 1663 
Q 2859 2375 2623 2739 
Q 2388 3103 1925 3103 
Q 1463 3103 1227 2739 
Q 991 2375 991 1663 
Q 991 950 1228 584 
Q 1466 219 1925 219 
z
M 1925 -91 
Q 1200 -91 759 389 
Q 319 869 319 1663 
Q 319 2456 758 2934 
Q 1197 3413 1925 3413 
Q 2653 3413 3092 2934 
Q 3531 2456 3531 1663 
Q 3531 869 3092 389 
Q 2653 -91 1925 -91 
z
" transform="scale(0.015625)"/>
      <path id="DejaVuSerif-6d" d="M 3316 2675 
Q 3481 3041 3739 3227 
Q 3997 3413 4341 3413 
Q 4863 3413 5119 3089 
Q 5375 2766 5375 2113 
L 5375 331 
L 5894 331 
L 5894 0 
L 4300 0 
L 4300 331 
L 4800 331 
L 4800 2047 
Q 4800 2556 4650 2772 
Q 4500 2988 4153 2988 
Q 3769 2988 3567 2697 
Q 3366 2406 3366 1850 
L 3366 331 
L 3866 331 
L 3866 0 
L 2291 0 
L 2291 331 
L 2791 331 
L 2791 2069 
Q 2791 2566 2641 2777 
Q 2491 2988 2144 2988 
Q 1759 2988 1557 2697 
Q 1356 2406 1356 1850 
L 1356 331 
L 1856 331 
L 1856 0 
L 263 0 
L 263 331 
L 781 331 
L 781 2994 
L 231 2994 
L 231 3322 
L 1356 3322 
L 1356 2731 
Q 1516 3063 1762 3238 
Q 2009 3413 2322 3413 
Q 2709 3413 2968 3220 
Q 3228 3028 3316 2675 
z
" transform="scale(0.015625)"/>
      <path id="DejaVuSerif-67" d="M 3359 2988 
L 3359 72 
Q 3359 -644 2965 -1033 
Q 2572 -1422 1844 -1422 
Q 1516 -1422 1216 -1362 
Q 916 -1303 641 -1184 
L 641 -488 
L 941 -488 
Q 997 -813 1206 -963 
Q 1416 -1113 1806 -1113 
Q 2313 -1113 2548 -827 
Q 2784 -541 2784 72 
L 2784 519 
Q 2616 206 2355 57 
Q 2094 -91 1709 -91 
Q 1097 -91 708 395 
Q 319 881 319 1663 
Q 319 2444 706 2928 
Q 1094 3413 1709 3413 
Q 2094 3413 2355 3264 
Q 2616 3116 2784 2803 
L 2784 3322 
L 3909 3322 
L 3909 2988 
L 3359 2988 
z
M 2784 1825 
Q 2784 2422 2554 2737 
Q 2325 3053 1888 3053 
Q 1444 3053 1217 2703 
Q 991 2353 991 1663 
Q 991 975 1217 622 
Q 1444 269 1888 269 
Q 2325 269 2554 583 
Q 2784 897 2784 1497 
L 2784 1825 
z
" transform="scale(0.015625)"/>
     </defs>
     <use xlink:href="#DejaVuSerif-6b"/>
     <use xlink:href="#DejaVuSerif-61" x="60.595703"/>
     <use xlink:href="#DejaVuSerif-6c" x="120.214844"/>
     <use xlink:href="#DejaVuSerif-74" x="152.197266"/>
     <use xlink:href="#DejaVuSerif-65" x="192.382812"/>
     <use xlink:href="#DejaVuSerif-72" x="251.5625"/>
     <use xlink:href="#DejaVuSerif-20" x="299.365234"/>
     <use xlink:href="#DejaVuSerif-53" x="331.152344"/>
     <use xlink:href="#DejaVuSerif-6f" x="399.658203"/>
     <use xlink:href="#DejaVuSerif-6d" x="459.863281"/>
     <use xlink:href="#DejaVuSerif-6d" x="554.6875"/>
     <use xlink:href="#DejaVuSerif-65" x="649.511719"/>
     <use xlink:href="#DejaVuSerif-72" x="708.691406"/>
     <use xlink:href="#DejaVuSerif-74" x="756.494141"/>
     <use xlink:href="#DejaVuSerif-61" x="796.679688"/>
     <use xlink:href="#DejaVuSerif-67" x="856.298828"/>
    </g>
   </g>
   <g id="legend_1">
    <g id="patch_7">
     <path d="M 55.223438 111.831016 
L 119.683438 111.831016 
Q 121.883438 111.831016 121.883438 109.631016 
L 121.883438 76.239141 
Q 121.883438 74.039141 119.683438 74.039141 
L 55.223438 74.039141 
Q 53.023438 74.039141 53.023438 76.239141 
L 53.023438 109.631016 
Q 53.023438 111.831016 55.223438 111.831016 
z
" style="fill: #ffffff; opacity: 0.8; stroke: #cccccc; stroke-width: 1.5; stroke-linejoin: miter"/>
    </g>
    <g id="line2d_10">
     <path d="M 58.523438 84.047422 
L 69.523438 84.047422 
L 80.523438 84.047422 
" style="fill: none; stroke: #ec635c; stroke-width: 1.5; stroke-linecap: square"/>
    </g>
    <g id="text_10">
     <!-- $T_{\mathrm{PS}}$ -->
     <g transform="translate(89.323438 87.897422)scale(0.11 -0.11)">
      <defs>
       <path id="DejaVuSans-50" d="M 1259 4147 
L 1259 2394 
L 2053 2394 
Q 2494 2394 2734 2622 
Q 2975 2850 2975 3272 
Q 2975 3691 2734 3919 
Q 2494 4147 2053 4147 
L 1259 4147 
z
M 628 4666 
L 2053 4666 
Q 2838 4666 3239 4311 
Q 3641 3956 3641 3272 
Q 3641 2581 3239 2228 
Q 2838 1875 2053 1875 
L 1259 1875 
L 1259 0 
L 628 0 
L 628 4666 
z
" transform="scale(0.015625)"/>
       <path id="DejaVuSans-53" d="M 3425 4513 
L 3425 3897 
Q 3066 4069 2747 4153 
Q 2428 4238 2131 4238 
Q 1616 4238 1336 4038 
Q 1056 3838 1056 3469 
Q 1056 3159 1242 3001 
Q 1428 2844 1947 2747 
L 2328 2669 
Q 3034 2534 3370 2195 
Q 3706 1856 3706 1288 
Q 3706 609 3251 259 
Q 2797 -91 1919 -91 
Q 1588 -91 1214 -16 
Q 841 59 441 206 
L 441 856 
Q 825 641 1194 531 
Q 1563 422 1919 422 
Q 2459 422 2753 634 
Q 3047 847 3047 1241 
Q 3047 1584 2836 1778 
Q 2625 1972 2144 2069 
L 1759 2144 
Q 1053 2284 737 2584 
Q 422 2884 422 3419 
Q 422 4038 858 4394 
Q 1294 4750 2059 4750 
Q 2388 4750 2728 4690 
Q 3069 4631 3425 4513 
z
" transform="scale(0.015625)"/>
      </defs>
      <use xlink:href="#DejaVuSans-Oblique-54" transform="translate(0 0.09375)"/>
      <use xlink:href="#DejaVuSans-50" transform="translate(61.083984 -16.3125)scale(0.7)"/>
      <use xlink:href="#DejaVuSans-53" transform="translate(103.295898 -16.3125)scale(0.7)"/>
     </g>
    </g>
    <g id="line2d_11">
     <path d="M 58.523438 100.193359 
L 58.523438 100.193359 
L 69.523438 100.193359 
L 69.523438 100.193359 
L 80.523438 100.193359 
" style="fill: none; stroke-dasharray: 5.55,2.4; stroke-dashoffset: 0; stroke: #4b81c4; stroke-width: 1.5"/>
    </g>
    <g id="text_11">
     <!-- $T_{\mathrm{TWW}}$ -->
     <g transform="translate(89.323438 104.043359)scale(0.11 -0.11)">
      <defs>
       <path id="DejaVuSans-54" d="M -19 4666 
L 3928 4666 
L 3928 4134 
L 2272 4134 
L 2272 0 
L 1638 0 
L 1638 4134 
L -19 4134 
L -19 4666 
z
" transform="scale(0.015625)"/>
       <path id="DejaVuSans-57" d="M 213 4666 
L 850 4666 
L 1831 722 
L 2809 4666 
L 3519 4666 
L 4500 722 
L 5478 4666 
L 6119 4666 
L 4947 0 
L 4153 0 
L 3169 4050 
L 2175 0 
L 1381 0 
L 213 4666 
z
" transform="scale(0.015625)"/>
      </defs>
      <use xlink:href="#DejaVuSans-Oblique-54" transform="translate(0 0.09375)"/>
      <use xlink:href="#DejaVuSans-54" transform="translate(61.083984 -16.3125)scale(0.7)"/>
      <use xlink:href="#DejaVuSans-57" transform="translate(103.842773 -16.3125)scale(0.7)"/>
      <use xlink:href="#DejaVuSans-57" transform="translate(173.056641 -16.3125)scale(0.7)"/>
     </g>
    </g>
   </g>
  </g>
  <g id="axes_2">
   <g id="patch_8">
    <path d="M 249.431719 117.331016 
L 435.96 117.331016 
L 435.96 26.238281 
L 249.431719 26.238281 
z
" style="fill: #ffffff"/>
   </g>
   <g id="matplotlib.axis_3">
    <g id="xtick_4">
     <g id="line2d_12">
      <g>
       <use xlink:href="#m4a9e093bad" x="257.910277" y="117.331016" style="stroke: #000000; stroke-width: 0.8"/>
      </g>
     </g>
     <g id="text_12">
      <!-- 0 -->
      <g transform="translate(254.410902 132.689297)scale(0.11 -0.11)">
       <use xlink:href="#DejaVuSerif-30"/>
      </g>
     </g>
    </g>
    <g id="xtick_5">
     <g id="line2d_13">
      <g>
       <use xlink:href="#m4a9e093bad" x="329.308662" y="117.331016" style="stroke: #000000; stroke-width: 0.8"/>
      </g>
     </g>
     <g id="text_13">
      <!-- 10 -->
      <g transform="translate(322.309912 132.689297)scale(0.11 -0.11)">
       <use xlink:href="#DejaVuSerif-31"/>
       <use xlink:href="#DejaVuSerif-30" x="63.623047"/>
      </g>
     </g>
    </g>
    <g id="xtick_6">
     <g id="line2d_14">
      <g>
       <use xlink:href="#m4a9e093bad" x="400.707047" y="117.331016" style="stroke: #000000; stroke-width: 0.8"/>
      </g>
     </g>
     <g id="text_14">
      <!-- 20 -->
      <g transform="translate(393.708297 132.689297)scale(0.11 -0.11)">
       <use xlink:href="#DejaVuSerif-32"/>
       <use xlink:href="#DejaVuSerif-30" x="63.623047"/>
      </g>
     </g>
    </g>
   </g>
   <g id="matplotlib.axis_4">
    <g id="ytick_5">
     <g id="line2d_15">
      <g>
       <use xlink:href="#mc9af627f92" x="249.431719" y="112.362321" style="stroke: #000000; stroke-width: 0.8"/>
      </g>
     </g>
    </g>
    <g id="ytick_6">
     <g id="line2d_16">
      <g>
       <use xlink:href="#mc9af627f92" x="249.431719" y="87.518848" style="stroke: #000000; stroke-width: 0.8"/>
      </g>
     </g>
    </g>
    <g id="ytick_7">
     <g id="line2d_17">
      <g>
       <use xlink:href="#mc9af627f92" x="249.431719" y="62.675375" style="stroke: #000000; stroke-width: 0.8"/>
      </g>
     </g>
    </g>
    <g id="ytick_8">
     <g id="line2d_18">
      <g>
       <use xlink:href="#mc9af627f92" x="249.431719" y="37.831902" style="stroke: #000000; stroke-width: 0.8"/>
      </g>
     </g>
    </g>
   </g>
   <g id="line2d_19">
    <path d="M 257.910277 71.055907 
L 259.695237 71.072469 
L 261.480196 71.089031 
L 263.265156 71.089031 
L 265.050116 71.105594 
L 266.835075 71.105594 
L 268.620035 71.089031 
L 270.404994 71.072469 
L 272.189954 71.072469 
L 273.974914 71.072469 
L 275.759873 71.089031 
L 277.544833 71.105594 
L 279.329793 71.105594 
L 281.114752 71.15528 
L 282.899712 71.204967 
L 284.684671 71.254654 
L 286.469631 71.304341 
L 288.254591 71.354028 
L 290.03955 71.403715 
L 291.82451 71.453402 
L 293.60947 71.503089 
L 295.394429 71.552776 
L 297.179389 71.585901 
L 298.964348 71.635588 
L 300.749308 71.668712 
L 302.534268 71.784648 
L 304.319227 51.214253 
L 306.104187 72.033083 
L 307.889147 72.149019 
L 309.674106 72.546515 
L 311.459066 72.927448 
L 313.244025 73.324944 
L 315.028985 73.722439 
L 316.813945 74.252433 
L 318.598904 74.782428 
L 320.383864 58.915729 
L 322.168824 75.858978 
L 323.953783 57.574182 
L 325.738743 75.196485 
L 327.523703 74.865239 
L 329.308662 74.533993 
L 331.093622 74.765865 
L 332.878581 74.981175 
L 334.663541 75.213048 
L 336.448501 75.44492 
L 338.23346 75.825853 
L 340.01842 76.206787 
L 341.80338 76.571158 
L 343.588339 76.952091 
L 345.373299 62.49319 
L 347.158258 77.647708 
L 348.943218 79.23769 
L 350.728178 79.23769 
L 352.513137 79.23769 
L 354.298097 79.23769 
L 356.083057 51.578624 
L 357.868016 65.391595 
L 359.652976 79.08863 
L 361.437935 79.23769 
L 363.222895 79.751122 
L 365.007855 79.23769 
L 366.792814 79.23769 
L 368.577774 79.23769 
L 370.362734 79.23769 
L 372.147693 79.23769 
L 373.932653 79.23769 
L 375.717613 79.23769 
L 377.502572 79.23769 
L 379.287532 77.349586 
L 381.072491 77.134276 
L 382.857451 76.918966 
L 384.642411 76.703656 
L 386.42737 76.504908 
L 388.21233 76.223349 
L 389.99729 58.567921 
L 391.782249 75.693355 
L 393.567209 75.428358 
L 395.352168 74.401494 
L 397.137128 73.391193 
L 398.922088 72.380892 
L 400.707047 71.370591 
L 402.492007 71.122156 
L 404.276967 70.890283 
L 406.061926 70.641849 
L 407.846886 70.393414 
L 409.631845 70.393414 
L 411.416805 47.918352 
L 413.201765 70.393414 
L 414.986724 48.067413 
L 416.771684 70.459663 
L 418.556644 70.525912 
L 420.341603 70.608724 
L 422.126563 70.674973 
L 423.911523 70.674973 
L 425.696482 70.674973 
L 427.481442 70.674973 
" clip-path="url(#pa66f46ad3a)" style="fill: none; stroke: #ec635c; stroke-width: 1.5; stroke-linecap: square"/>
   </g>
   <g id="line2d_20">
    <path d="M 257.910277 59.213851 
L 259.695237 59.362912 
L 261.480196 59.49541 
L 263.265156 59.627909 
L 265.050116 59.760407 
L 266.835075 59.892906 
L 268.620035 60.025405 
L 270.404994 60.157903 
L 272.189954 60.290402 
L 273.974914 60.4229 
L 275.759873 60.555399 
L 277.544833 60.687897 
L 279.329793 60.820396 
L 281.114752 60.952894 
L 282.899712 61.085393 
L 284.684671 61.217891 
L 286.469631 61.300703 
L 288.254591 61.433201 
L 290.03955 61.5657 
L 291.82451 61.698198 
L 293.60947 61.830697 
L 295.394429 61.946633 
L 297.179389 62.079132 
L 298.964348 62.21163 
L 300.749308 62.344129 
L 302.534268 62.460065 
L 304.319227 62.592563 
L 306.104187 60.141341 
L 307.889147 61.019143 
L 309.674106 61.913508 
L 311.459066 62.029445 
L 313.244025 62.161943 
L 315.028985 62.244755 
L 316.813945 62.377253 
L 318.598904 62.509752 
L 320.383864 62.625688 
L 322.168824 48.299285 
L 323.953783 49.210213 
L 325.738743 57.27606 
L 327.523703 58.170425 
L 329.308662 58.302924 
L 331.093622 58.451985 
L 332.878581 58.584483 
L 334.663541 59.462286 
L 336.448501 59.611347 
L 338.23346 59.743845 
L 340.01842 59.876344 
L 341.80338 60.008842 
L 343.588339 60.605086 
L 345.373299 60.737584 
L 347.158258 56.398257 
L 348.943218 57.292623 
L 350.728178 57.425121 
L 352.513137 57.574182 
L 354.298097 57.70668 
L 356.083057 57.839179 
L 357.868016 52.887047 
L 359.652976 48.348972 
L 361.437935 48.514595 
L 363.222895 48.680219 
L 365.007855 48.845842 
L 366.792814 48.994903 
L 368.577774 49.160526 
L 370.362734 49.326149 
L 372.147693 49.425523 
L 373.932653 49.591146 
L 375.717613 49.756769 
L 377.502572 49.90583 
L 379.287532 50.071453 
L 381.072491 52.472989 
L 382.857451 53.383916 
L 384.642411 54.278281 
L 386.42737 54.427342 
L 388.21233 54.576403 
L 389.99729 55.470768 
L 391.782249 46.643054 
L 393.567209 56.828878 
L 395.352168 57.723243 
L 397.137128 57.855741 
L 398.922088 58.750106 
L 400.707047 59.34635 
L 402.492007 60.224152 
L 404.276967 60.356651 
L 406.061926 61.251016 
L 407.846886 61.366952 
L 409.631845 61.499451 
L 411.416805 62.393816 
L 413.201765 47.802416 
L 414.986724 48.713343 
L 416.771684 56.779191 
L 418.556644 56.928252 
L 420.341603 57.06075 
L 422.126563 57.955115 
L 423.911523 58.104176 
L 425.696482 58.236674 
L 427.481442 59.13104 
" clip-path="url(#pa66f46ad3a)" style="fill: none; stroke-dasharray: 5.55,2.4; stroke-dashoffset: 0; stroke: #4b81c4; stroke-width: 1.5"/>
   </g>
   <g id="patch_9">
    <path d="M 249.431719 117.331016 
L 249.431719 26.238281 
" style="fill: none; stroke: #000000; stroke-width: 0.5; stroke-linejoin: miter; stroke-linecap: square"/>
   </g>
   <g id="patch_10">
    <path d="M 435.96 117.331016 
L 435.96 26.238281 
" style="fill: none; stroke: #000000; stroke-width: 0.5; stroke-linejoin: miter; stroke-linecap: square"/>
   </g>
   <g id="patch_11">
    <path d="M 249.431719 117.331016 
L 435.96 117.331016 
" style="fill: none; stroke: #000000; stroke-width: 0.5; stroke-linejoin: miter; stroke-linecap: square"/>
   </g>
   <g id="patch_12">
    <path d="M 249.431719 26.238281 
L 435.96 26.238281 
" style="fill: none; stroke: #000000; stroke-width: 0.5; stroke-linejoin: miter; stroke-linecap: square"/>
   </g>
   <g id="text_15">
    <!-- Wintertag -->
    <g transform="translate(314.732656 20.238281)scale(0.11 -0.11)">
     <defs>
      <path id="DejaVuSerif-57" d="M 4878 0 
L 4366 0 
L 3297 3794 
L 2228 0 
L 1716 0 
L 494 4331 
L 31 4331 
L 31 4666 
L 1734 4666 
L 1734 4331 
L 1153 4331 
L 2125 884 
L 3188 4666 
L 3694 4666 
L 4775 844 
L 5753 4331 
L 5216 4331 
L 5216 4666 
L 6559 4666 
L 6559 4331 
L 6100 4331 
L 4878 0 
z
" transform="scale(0.015625)"/>
     </defs>
     <use xlink:href="#DejaVuSerif-57"/>
     <use xlink:href="#DejaVuSerif-69" x="101.033203"/>
     <use xlink:href="#DejaVuSerif-6e" x="133.015625"/>
     <use xlink:href="#DejaVuSerif-74" x="197.419922"/>
     <use xlink:href="#DejaVuSerif-65" x="237.605469"/>
     <use xlink:href="#DejaVuSerif-72" x="296.785156"/>
     <use xlink:href="#DejaVuSerif-74" x="344.587891"/>
     <use xlink:href="#DejaVuSerif-61" x="384.773438"/>
     <use xlink:href="#DejaVuSerif-67" x="444.392578"/>
    </g>
   </g>
  </g>
  <g id="axes_3">
   <g id="patch_13">
    <path d="M 47.523438 252.376719 
L 234.051719 252.376719 
L 234.051719 161.283984 
L 47.523438 161.283984 
z
" style="fill: #ffffff"/>
   </g>
   <g id="matplotlib.axis_5">
    <g id="xtick_7">
     <g id="line2d_21">
      <g>
       <use xlink:href="#m4a9e093bad" x="56.001996" y="252.376719" style="stroke: #000000; stroke-width: 0.8"/>
      </g>
     </g>
     <g id="text_16">
      <!-- 0 -->
      <g transform="translate(52.502621 267.735)scale(0.11 -0.11)">
       <use xlink:href="#DejaVuSerif-30"/>
      </g>
     </g>
    </g>
    <g id="xtick_8">
     <g id="line2d_22">
      <g>
       <use xlink:href="#m4a9e093bad" x="127.400381" y="252.376719" style="stroke: #000000; stroke-width: 0.8"/>
      </g>
     </g>
     <g id="text_17">
      <!-- 10 -->
      <g transform="translate(120.401631 267.735)scale(0.11 -0.11)">
       <use xlink:href="#DejaVuSerif-31"/>
       <use xlink:href="#DejaVuSerif-30" x="63.623047"/>
      </g>
     </g>
    </g>
    <g id="xtick_9">
     <g id="line2d_23">
      <g>
       <use xlink:href="#m4a9e093bad" x="198.798766" y="252.376719" style="stroke: #000000; stroke-width: 0.8"/>
      </g>
     </g>
     <g id="text_18">
      <!-- 20 -->
      <g transform="translate(191.800016 267.735)scale(0.11 -0.11)">
       <use xlink:href="#DejaVuSerif-32"/>
       <use xlink:href="#DejaVuSerif-30" x="63.623047"/>
      </g>
     </g>
    </g>
   </g>
   <g id="matplotlib.axis_6">
    <g id="ytick_9">
     <g id="line2d_24">
      <g>
       <use xlink:href="#mc9af627f92" x="47.523438" y="247.408024" style="stroke: #000000; stroke-width: 0.8"/>
      </g>
     </g>
     <g id="text_19">
      <!-- 20 -->
      <g transform="translate(26.525938 251.587165)scale(0.11 -0.11)">
       <use xlink:href="#DejaVuSerif-32"/>
       <use xlink:href="#DejaVuSerif-30" x="63.623047"/>
      </g>
     </g>
    </g>
    <g id="ytick_10">
     <g id="line2d_25">
      <g>
       <use xlink:href="#mc9af627f92" x="47.523438" y="222.564551" style="stroke: #000000; stroke-width: 0.8"/>
      </g>
     </g>
     <g id="text_20">
      <!-- 35 -->
      <g transform="translate(26.525938 226.743692)scale(0.11 -0.11)">
       <use xlink:href="#DejaVuSerif-33"/>
       <use xlink:href="#DejaVuSerif-35" x="63.623047"/>
      </g>
     </g>
    </g>
    <g id="ytick_11">
     <g id="line2d_26">
      <g>
       <use xlink:href="#mc9af627f92" x="47.523438" y="197.721078" style="stroke: #000000; stroke-width: 0.8"/>
      </g>
     </g>
     <g id="text_21">
      <!-- 50 -->
      <g transform="translate(26.525938 201.900219)scale(0.11 -0.11)">
       <use xlink:href="#DejaVuSerif-35"/>
       <use xlink:href="#DejaVuSerif-30" x="63.623047"/>
      </g>
     </g>
    </g>
    <g id="ytick_12">
     <g id="line2d_27">
      <g>
       <use xlink:href="#mc9af627f92" x="47.523438" y="172.877605" style="stroke: #000000; stroke-width: 0.8"/>
      </g>
     </g>
     <g id="text_22">
      <!-- 65 -->
      <g transform="translate(26.525938 177.056746)scale(0.11 -0.11)">
       <use xlink:href="#DejaVuSerif-36"/>
       <use xlink:href="#DejaVuSerif-35" x="63.623047"/>
      </g>
     </g>
    </g>
    <g id="text_23">
     <!-- $T$ in °C -->
     <g transform="translate(20.238281 225.970352)rotate(-90)scale(0.11 -0.11)">
      <use xlink:href="#DejaVuSans-Oblique-54" transform="translate(0 0.78125)"/>
      <use xlink:href="#DejaVuSerif-20" transform="translate(61.083984 0.78125)"/>
      <use xlink:href="#DejaVuSerif-69" transform="translate(92.871094 0.78125)"/>
      <use xlink:href="#DejaVuSerif-6e" transform="translate(124.853516 0.78125)"/>
      <use xlink:href="#DejaVuSerif-20" transform="translate(189.257812 0.78125)"/>
      <use xlink:href="#DejaVuSerif-b0" transform="translate(221.044922 0.78125)"/>
      <use xlink:href="#DejaVuSerif-43" transform="translate(271.044922 0.78125)"/>
     </g>
    </g>
   </g>
   <g id="line2d_28">
    <path d="M 56.001996 206.830352 
L 57.786955 206.946288 
L 59.571915 207.062224 
L 61.356875 207.17816 
L 63.141834 207.294096 
L 64.926794 207.360346 
L 66.711754 207.443157 
L 68.496713 187.270257 
L 70.281673 207.575656 
L 72.066632 207.60878 
L 73.851592 207.658467 
L 75.636552 207.691592 
L 77.421511 207.724717 
L 79.206471 207.757841 
L 80.991431 207.774404 
L 82.77639 207.790966 
L 84.56135 207.807528 
L 86.346309 207.82409 
L 88.131269 207.840653 
L 89.916229 207.857215 
L 91.701188 207.857215 
L 93.486148 207.89034 
L 95.271108 207.906902 
L 97.056067 207.940027 
L 98.841027 207.956589 
L 100.625986 208.006276 
L 102.410946 188.313683 
L 104.195906 208.089088 
L 105.980865 208.138774 
L 107.765825 189.572419 
L 109.550785 208.718456 
L 111.335744 209.016577 
L 113.120704 209.314699 
L 114.905664 209.314699 
L 116.690623 209.314699 
L 118.475583 190.764906 
L 120.260542 209.314699 
L 122.045502 187.518692 
L 123.830462 207.691592 
L 125.615421 206.896601 
L 127.400381 184.123417 
L 129.185341 206.002236 
L 130.9703 205.935987 
L 132.75526 205.853175 
L 134.540219 205.770363 
L 136.325179 205.902862 
L 138.110139 206.018798 
L 139.895098 206.134734 
L 141.680058 206.267233 
L 143.465018 206.432856 
L 145.249977 206.581917 
L 147.034937 206.74754 
L 148.819896 206.913163 
L 150.604856 186.541515 
L 152.389816 207.211285 
L 154.174775 207.360346 
L 155.959735 207.525969 
L 157.744695 207.625343 
L 159.529654 207.724717 
L 161.314614 207.840653 
L 163.099573 207.940027 
L 164.884533 207.973151 
L 166.669493 188.230871 
L 168.454452 208.055963 
L 170.239412 208.089088 
L 172.024372 208.089088 
L 173.809331 208.072525 
L 175.594291 208.072525 
L 177.379251 208.072525 
L 179.16421 188.827115 
L 180.94917 208.354085 
L 182.734129 189.390234 
L 184.519089 208.635644 
L 186.304049 208.503145 
L 188.089008 208.387209 
L 189.873968 208.254711 
L 191.658928 208.122212 
L 193.443887 207.244409 
L 195.228847 206.366607 
L 197.013806 205.488804 
L 198.798766 204.611001 
L 200.583726 204.495065 
L 202.368685 204.395691 
L 204.153645 180.446583 
L 205.938605 204.180381 
L 207.723564 204.296317 
L 209.508524 204.395691 
L 211.293483 188.777428 
L 213.078443 164.596447 
L 214.863403 187.833376 
L 216.648362 207.857215 
L 218.433322 205.140995 
L 220.218282 205.306619 
L 222.003241 205.306619 
L 223.788201 205.306619 
L 225.573161 205.306619 
" clip-path="url(#p222e18a1a2)" style="fill: none; stroke: #ec635c; stroke-width: 1.5; stroke-linecap: square"/>
   </g>
   <g id="line2d_29">
    <path d="M 56.001996 195.998597 
L 57.786955 196.131096 
L 59.571915 196.263594 
L 61.356875 196.396093 
L 63.141834 196.528591 
L 64.926794 196.66109 
L 66.711754 196.793588 
L 68.496713 196.909525 
L 70.281673 192.570198 
L 72.066632 192.719259 
L 73.851592 192.851757 
L 75.636552 193.000818 
L 77.421511 193.133317 
L 79.206471 193.265815 
L 80.991431 193.414876 
L 82.77639 193.547375 
L 84.56135 193.646749 
L 86.346309 193.779247 
L 88.131269 193.911746 
L 89.916229 194.044244 
L 91.701188 194.176743 
L 93.486148 194.325803 
L 95.271108 194.458302 
L 97.056067 194.590801 
L 98.841027 194.723299 
L 100.625986 194.855798 
L 102.410946 194.988296 
L 104.195906 195.915786 
L 105.980865 196.793588 
L 107.765825 197.671391 
L 109.550785 193.332065 
L 111.335744 193.464563 
L 113.120704 193.563937 
L 114.905664 193.696435 
L 116.690623 193.828934 
L 118.475583 193.961433 
L 120.260542 183.079991 
L 122.045502 183.990919 
L 123.830462 192.056766 
L 125.615421 192.951131 
L 127.400381 193.08363 
L 129.185341 193.232691 
L 130.9703 193.365189 
L 132.75526 194.259554 
L 134.540219 194.392053 
L 136.325179 194.524551 
L 138.110139 194.65705 
L 139.895098 194.789548 
L 141.680058 195.385792 
L 143.465018 195.51829 
L 145.249977 195.650789 
L 147.034937 196.528591 
L 148.819896 196.66109 
L 150.604856 196.793588 
L 152.389816 192.454262 
L 154.174775 192.58676 
L 155.959735 192.719259 
L 157.744695 192.86832 
L 159.529654 193.000818 
L 161.314614 193.149879 
L 163.099573 193.282378 
L 164.884533 193.414876 
L 166.669493 193.563937 
L 168.454452 193.696435 
L 170.239412 193.795809 
L 172.024372 193.928308 
L 173.809331 194.060806 
L 175.594291 194.193305 
L 177.379251 194.325803 
L 179.16421 196.727339 
L 180.94917 193.133317 
L 182.734129 194.027682 
L 184.519089 181.490009 
L 186.304049 181.655632 
L 188.089008 182.56656 
L 189.873968 182.732183 
L 191.658928 192.901444 
L 193.443887 193.795809 
L 195.228847 193.928308 
L 197.013806 194.822673 
L 198.798766 195.418916 
L 200.583726 196.296719 
L 202.368685 196.429218 
L 204.153645 197.30702 
L 205.938605 187.568379 
L 207.723564 187.71744 
L 209.508524 188.611805 
L 211.293483 188.760866 
L 213.078443 189.671793 
L 214.863403 197.721078 
L 216.648362 192.388013 
L 218.433322 192.520511 
L 220.218282 193.414876 
L 222.003241 193.547375 
L 223.788201 193.696435 
L 225.573161 194.574238 
" clip-path="url(#p222e18a1a2)" style="fill: none; stroke-dasharray: 5.55,2.4; stroke-dashoffset: 0; stroke: #4b81c4; stroke-width: 1.5"/>
   </g>
   <g id="patch_14">
    <path d="M 47.523438 252.376719 
L 47.523438 161.283984 
" style="fill: none; stroke: #000000; stroke-width: 0.5; stroke-linejoin: miter; stroke-linecap: square"/>
   </g>
   <g id="patch_15">
    <path d="M 234.051719 252.376719 
L 234.051719 161.283984 
" style="fill: none; stroke: #000000; stroke-width: 0.5; stroke-linejoin: miter; stroke-linecap: square"/>
   </g>
   <g id="patch_16">
    <path d="M 47.523438 252.376719 
L 234.051719 252.376719 
" style="fill: none; stroke: #000000; stroke-width: 0.5; stroke-linejoin: miter; stroke-linecap: square"/>
   </g>
   <g id="patch_17">
    <path d="M 47.523438 161.283984 
L 234.051719 161.283984 
" style="fill: none; stroke: #000000; stroke-width: 0.5; stroke-linejoin: miter; stroke-linecap: square"/>
   </g>
   <g id="text_24">
    <!-- Regentag -->
    <g transform="translate(114.061875 155.283984)scale(0.11 -0.11)">
     <defs>
      <path id="DejaVuSerif-52" d="M 3066 2316 
Q 3284 2256 3442 2114 
Q 3600 1972 3725 1716 
L 4403 331 
L 4972 331 
L 4972 0 
L 3872 0 
L 3144 1484 
Q 2934 1916 2759 2042 
Q 2584 2169 2278 2169 
L 1581 2169 
L 1581 331 
L 2241 331 
L 2241 0 
L 353 0 
L 353 331 
L 947 331 
L 947 4331 
L 353 4331 
L 353 4666 
L 2719 4666 
Q 3400 4666 3770 4341 
Q 4141 4016 4141 3419 
Q 4141 2938 3870 2661 
Q 3600 2384 3066 2316 
z
M 1581 2503 
L 2503 2503 
Q 2975 2503 3200 2726 
Q 3425 2950 3425 3419 
Q 3425 3888 3200 4109 
Q 2975 4331 2503 4331 
L 1581 4331 
L 1581 2503 
z
" transform="scale(0.015625)"/>
     </defs>
     <use xlink:href="#DejaVuSerif-52"/>
     <use xlink:href="#DejaVuSerif-65" x="75.292969"/>
     <use xlink:href="#DejaVuSerif-67" x="134.472656"/>
     <use xlink:href="#DejaVuSerif-65" x="198.486328"/>
     <use xlink:href="#DejaVuSerif-6e" x="257.666016"/>
     <use xlink:href="#DejaVuSerif-74" x="322.070312"/>
     <use xlink:href="#DejaVuSerif-61" x="362.255859"/>
     <use xlink:href="#DejaVuSerif-67" x="421.875"/>
    </g>
   </g>
  </g>
  <g id="axes_4">
   <g id="patch_18">
    <path d="M 249.431719 252.376719 
L 435.96 252.376719 
L 435.96 161.283984 
L 249.431719 161.283984 
z
" style="fill: #ffffff"/>
   </g>
   <g id="matplotlib.axis_7">
    <g id="xtick_10">
     <g id="line2d_30">
      <g>
       <use xlink:href="#m4a9e093bad" x="257.910277" y="252.376719" style="stroke: #000000; stroke-width: 0.8"/>
      </g>
     </g>
     <g id="text_25">
      <!-- 0 -->
      <g transform="translate(254.410902 267.735)scale(0.11 -0.11)">
       <use xlink:href="#DejaVuSerif-30"/>
      </g>
     </g>
    </g>
    <g id="xtick_11">
     <g id="line2d_31">
      <g>
       <use xlink:href="#m4a9e093bad" x="329.308662" y="252.376719" style="stroke: #000000; stroke-width: 0.8"/>
      </g>
     </g>
     <g id="text_26">
      <!-- 10 -->
      <g transform="translate(322.309912 267.735)scale(0.11 -0.11)">
       <use xlink:href="#DejaVuSerif-31"/>
       <use xlink:href="#DejaVuSerif-30" x="63.623047"/>
      </g>
     </g>
    </g>
    <g id="xtick_12">
     <g id="line2d_32">
      <g>
       <use xlink:href="#m4a9e093bad" x="400.707047" y="252.376719" style="stroke: #000000; stroke-width: 0.8"/>
      </g>
     </g>
     <g id="text_27">
      <!-- 20 -->
      <g transform="translate(393.708297 267.735)scale(0.11 -0.11)">
       <use xlink:href="#DejaVuSerif-32"/>
       <use xlink:href="#DejaVuSerif-30" x="63.623047"/>
      </g>
     </g>
    </g>
   </g>
   <g id="matplotlib.axis_8">
    <g id="ytick_13">
     <g id="line2d_33">
      <g>
       <use xlink:href="#mc9af627f92" x="249.431719" y="247.408024" style="stroke: #000000; stroke-width: 0.8"/>
      </g>
     </g>
    </g>
    <g id="ytick_14">
     <g id="line2d_34">
      <g>
       <use xlink:href="#mc9af627f92" x="249.431719" y="222.564551" style="stroke: #000000; stroke-width: 0.8"/>
      </g>
     </g>
    </g>
    <g id="ytick_15">
     <g id="line2d_35">
      <g>
       <use xlink:href="#mc9af627f92" x="249.431719" y="197.721078" style="stroke: #000000; stroke-width: 0.8"/>
      </g>
     </g>
    </g>
    <g id="ytick_16">
     <g id="line2d_36">
      <g>
       <use xlink:href="#mc9af627f92" x="249.431719" y="172.877605" style="stroke: #000000; stroke-width: 0.8"/>
      </g>
     </g>
    </g>
   </g>
   <g id="line2d_37">
    <path d="M 257.910277 214.283393 
L 259.695237 221.024256 
L 261.480196 215.658066 
L 263.265156 211.699672 
L 265.050116 219.748958 
L 266.835075 214.449017 
L 268.620035 210.888119 
L 270.404994 219.3349 
L 272.189954 214.283393 
L 273.974914 210.043441 
L 275.759873 218.920842 
L 277.544833 214.283393 
L 279.329793 210.374687 
L 281.114752 219.086465 
L 282.899712 216.602118 
L 284.684671 214.283393 
L 286.469631 208.32096 
L 288.254591 218.059601 
L 290.03955 214.283393 
L 291.82451 208.32096 
L 293.60947 218.059601 
L 295.394429 214.283393 
L 297.179389 210.043441 
L 298.964348 218.920842 
L 300.749308 214.283393 
L 302.534268 221.024256 
L 304.319227 215.525567 
L 306.104187 221.637061 
L 307.889147 214.747138 
L 309.674106 219.500523 
L 311.459066 223.624539 
L 313.244025 214.283393 
L 315.028985 217.297735 
L 316.813945 219.864894 
L 318.598904 222.001432 
L 320.383864 223.707351 
L 322.168824 224.966087 
L 323.953783 226.125449 
L 325.738743 226.92044 
L 327.523703 215.277132 
L 329.308662 216.204622 
L 331.093622 217.148674 
L 332.878581 218.076164 
L 334.663541 219.003653 
L 336.448501 219.931143 
L 338.23346 220.825508 
L 340.01842 221.703311 
L 341.80338 222.564551 
L 343.588339 223.392667 
L 345.373299 224.187658 
L 347.158258 224.949525 
L 348.943218 225.694829 
L 350.728178 226.390446 
L 352.513137 214.283393 
L 354.298097 215.028698 
L 356.083057 215.724315 
L 357.868016 216.386808 
L 359.652976 217.032738 
L 361.437935 217.662106 
L 363.222895 218.241787 
L 365.007855 218.821468 
L 366.792814 219.368024 
L 368.577774 208.072525 
L 370.362734 195.452041 
L 372.147693 178.508792 
L 373.932653 179.403157 
L 375.717613 165.805496 
L 377.502572 166.865485 
L 379.287532 167.97516 
L 381.072491 169.382957 
L 382.857451 171.122 
L 384.642411 173.192289 
L 386.42737 175.577263 
L 388.21233 178.194108 
L 389.99729 181.059389 
L 391.782249 184.173104 
L 393.567209 187.518692 
L 395.352168 190.831155 
L 397.137128 194.093931 
L 398.922088 197.340145 
L 400.707047 200.536672 
L 402.492007 203.733199 
L 404.276967 206.896601 
L 406.061926 210.060003 
L 407.846886 213.190281 
L 409.631845 216.370245 
L 411.416805 219.583334 
L 413.201765 222.84611 
L 414.986724 214.283393 
L 416.771684 217.744917 
L 418.556644 221.305815 
L 420.341603 224.518904 
L 422.126563 216.370245 
L 423.911523 220.146453 
L 425.696482 223.889536 
L 427.481442 215.028698 
" clip-path="url(#pd38219b89b)" style="fill: none; stroke: #ec635c; stroke-width: 1.5; stroke-linecap: square"/>
   </g>
   <g id="line2d_38">
    <path d="M 257.910277 194.209867 
L 259.695237 194.358928 
L 261.480196 194.491427 
L 263.265156 194.623925 
L 265.050116 194.756424 
L 266.835075 194.888922 
L 268.620035 195.021421 
L 270.404994 195.153919 
L 272.189954 195.286418 
L 273.974914 195.418916 
L 275.759873 195.551415 
L 277.544833 195.683913 
L 279.329793 195.816412 
L 281.114752 195.94891 
L 282.899712 196.081409 
L 284.684671 196.213907 
L 286.469631 196.296719 
L 288.254591 196.429218 
L 290.03955 196.561716 
L 291.82451 196.694215 
L 293.60947 196.826713 
L 295.394429 196.942649 
L 297.179389 197.075148 
L 298.964348 197.207646 
L 300.749308 197.340145 
L 302.534268 197.472643 
L 304.319227 197.58858 
L 306.104187 195.452041 
L 307.889147 196.329844 
L 309.674106 197.207646 
L 311.459066 197.340145 
L 313.244025 197.472643 
L 315.028985 197.555455 
L 316.813945 197.687953 
L 318.598904 193.348627 
L 320.383864 193.481125 
L 322.168824 188.79399 
L 323.953783 180.910328 
L 325.738743 196.578278 
L 327.523703 197.472643 
L 329.308662 197.58858 
L 331.093622 197.721078 
L 332.878581 193.365189 
L 334.663541 194.259554 
L 336.448501 194.392053 
L 338.23346 194.524551 
L 340.01842 194.65705 
L 341.80338 194.789548 
L 343.588339 195.385792 
L 345.373299 195.51829 
L 347.158258 195.650789 
L 348.943218 196.528591 
L 350.728178 196.66109 
L 352.513137 196.793588 
L 354.298097 196.909525 
L 356.083057 197.042023 
L 357.868016 197.174522 
L 359.652976 197.30702 
L 361.437935 197.439519 
L 363.222895 187.485567 
L 365.007855 178.260358 
L 366.792814 178.425981 
L 368.577774 178.608166 
L 370.362734 178.773789 
L 372.147693 178.889726 
L 373.932653 174.368213 
L 375.717613 174.550399 
L 377.502572 174.732584 
L 379.287532 174.91477 
L 381.072491 172.877605 
L 382.857451 173.821657 
L 384.642411 174.749147 
L 386.42737 174.931332 
L 388.21233 175.113518 
L 389.99729 176.041007 
L 391.782249 176.223193 
L 393.567209 172.877605 
L 395.352168 173.821657 
L 397.137128 174.003843 
L 398.922088 174.931332 
L 400.707047 175.5607 
L 402.492007 176.48819 
L 404.276967 176.670375 
L 406.061926 177.597865 
L 407.846886 177.763488 
L 409.631845 177.945674 
L 411.416805 173.738846 
L 413.201765 173.921031 
L 414.986724 174.865083 
L 416.771684 196.362968 
L 418.556644 196.478904 
L 420.341603 196.611403 
L 422.126563 197.489206 
L 423.911523 197.621704 
L 425.696482 193.282378 
L 427.481442 194.176743 
" clip-path="url(#pd38219b89b)" style="fill: none; stroke-dasharray: 5.55,2.4; stroke-dashoffset: 0; stroke: #4b81c4; stroke-width: 1.5"/>
   </g>
   <g id="patch_19">
    <path d="M 249.431719 252.376719 
L 249.431719 161.283984 
" style="fill: none; stroke: #000000; stroke-width: 0.5; stroke-linejoin: miter; stroke-linecap: square"/>
   </g>
   <g id="patch_20">
    <path d="M 435.96 252.376719 
L 435.96 161.283984 
" style="fill: none; stroke: #000000; stroke-width: 0.5; stroke-linejoin: miter; stroke-linecap: square"/>
   </g>
   <g id="patch_21">
    <path d="M 249.431719 252.376719 
L 435.96 252.376719 
" style="fill: none; stroke: #000000; stroke-width: 0.5; stroke-linejoin: miter; stroke-linecap: square"/>
   </g>
   <g id="patch_22">
    <path d="M 249.431719 161.283984 
L 435.96 161.283984 
" style="fill: none; stroke: #000000; stroke-width: 0.5; stroke-linejoin: miter; stroke-linecap: square"/>
   </g>
   <g id="text_28">
    <!-- Frühlingstag -->
    <g transform="translate(306.751641 155.283984)scale(0.11 -0.11)">
     <defs>
      <path id="DejaVuSerif-46" d="M 353 0 
L 353 331 
L 947 331 
L 947 4331 
L 353 4331 
L 353 4666 
L 4172 4666 
L 4172 3628 
L 3788 3628 
L 3788 4281 
L 1581 4281 
L 1581 2719 
L 3175 2719 
L 3175 3303 
L 3559 3303 
L 3559 1753 
L 3175 1753 
L 3175 2338 
L 1581 2338 
L 1581 331 
L 2328 331 
L 2328 0 
L 353 0 
z
" transform="scale(0.015625)"/>
      <path id="DejaVuSerif-fc" d="M 2266 3322 
L 3341 3322 
L 3341 331 
L 3884 331 
L 3884 0 
L 2766 0 
L 2766 588 
Q 2606 256 2353 82 
Q 2100 -91 1766 -91 
Q 1213 -91 952 223 
Q 691 538 691 1209 
L 691 2988 
L 172 2988 
L 172 3322 
L 1269 3322 
L 1269 1388 
Q 1269 781 1417 556 
Q 1566 331 1947 331 
Q 2347 331 2556 625 
Q 2766 919 2766 1478 
L 2766 2988 
L 2266 2988 
L 2266 3322 
z
M 1215 4903 
Q 1365 4903 1472 4795 
Q 1580 4688 1580 4538 
Q 1580 4378 1477 4275 
Q 1374 4172 1215 4172 
Q 1058 4172 955 4275 
Q 852 4378 852 4538 
Q 852 4688 960 4795 
Q 1068 4903 1215 4903 
z
M 2433 4903 
Q 2580 4903 2688 4795 
Q 2796 4688 2796 4538 
Q 2796 4378 2693 4275 
Q 2590 4172 2433 4172 
Q 2274 4172 2171 4275 
Q 2068 4378 2068 4538 
Q 2068 4688 2175 4795 
Q 2283 4903 2433 4903 
z
" transform="scale(0.015625)"/>
      <path id="DejaVuSerif-68" d="M 263 0 
L 263 331 
L 781 331 
L 781 4531 
L 231 4531 
L 231 4863 
L 1356 4863 
L 1356 2731 
Q 1516 3069 1770 3241 
Q 2025 3413 2363 3413 
Q 2913 3413 3172 3097 
Q 3431 2781 3431 2113 
L 3431 331 
L 3944 331 
L 3944 0 
L 2356 0 
L 2356 331 
L 2853 331 
L 2853 1931 
Q 2853 2541 2704 2764 
Q 2556 2988 2175 2988 
Q 1775 2988 1565 2697 
Q 1356 2406 1356 1850 
L 1356 331 
L 1856 331 
L 1856 0 
L 263 0 
z
" transform="scale(0.015625)"/>
      <path id="DejaVuSerif-73" d="M 359 184 
L 359 959 
L 691 959 
Q 703 588 923 403 
Q 1144 219 1575 219 
Q 1963 219 2166 364 
Q 2369 509 2369 788 
Q 2369 1006 2220 1140 
Q 2072 1275 1594 1428 
L 1178 1569 
Q 750 1706 558 1912 
Q 366 2119 366 2438 
Q 366 2894 700 3153 
Q 1034 3413 1625 3413 
Q 1888 3413 2178 3344 
Q 2469 3275 2778 3144 
L 2778 2419 
L 2447 2419 
Q 2434 2741 2221 2922 
Q 2009 3103 1644 3103 
Q 1281 3103 1095 2975 
Q 909 2847 909 2591 
Q 909 2381 1050 2254 
Q 1191 2128 1613 1997 
L 2069 1856 
Q 2541 1709 2748 1489 
Q 2956 1269 2956 922 
Q 2956 450 2595 179 
Q 2234 -91 1600 -91 
Q 1278 -91 972 -22 
Q 666 47 359 184 
z
" transform="scale(0.015625)"/>
     </defs>
     <use xlink:href="#DejaVuSerif-46"/>
     <use xlink:href="#DejaVuSerif-72" x="69.384766"/>
     <use xlink:href="#DejaVuSerif-fc" x="117.1875"/>
     <use xlink:href="#DejaVuSerif-68" x="181.591797"/>
     <use xlink:href="#DejaVuSerif-6c" x="245.996094"/>
     <use xlink:href="#DejaVuSerif-69" x="277.978516"/>
     <use xlink:href="#DejaVuSerif-6e" x="309.960938"/>
     <use xlink:href="#DejaVuSerif-67" x="374.365234"/>
     <use xlink:href="#DejaVuSerif-73" x="438.378906"/>
     <use xlink:href="#DejaVuSerif-74" x="489.697266"/>
     <use xlink:href="#DejaVuSerif-61" x="529.882812"/>
     <use xlink:href="#DejaVuSerif-67" x="589.501953"/>
    </g>
   </g>
  </g>
  <g id="axes_5">
   <g id="patch_23">
    <path d="M 47.523438 387.422422 
L 234.051719 387.422422 
L 234.051719 296.329687 
L 47.523438 296.329687 
z
" style="fill: #ffffff"/>
   </g>
   <g id="matplotlib.axis_9">
    <g id="xtick_13">
     <g id="line2d_39">
      <g>
       <use xlink:href="#m4a9e093bad" x="56.001996" y="387.422422" style="stroke: #000000; stroke-width: 0.8"/>
      </g>
     </g>
     <g id="text_29">
      <!-- 0 -->
      <g transform="translate(52.502621 402.780703)scale(0.11 -0.11)">
       <use xlink:href="#DejaVuSerif-30"/>
      </g>
     </g>
    </g>
    <g id="xtick_14">
     <g id="line2d_40">
      <g>
       <use xlink:href="#m4a9e093bad" x="127.400381" y="387.422422" style="stroke: #000000; stroke-width: 0.8"/>
      </g>
     </g>
     <g id="text_30">
      <!-- 10 -->
      <g transform="translate(120.401631 402.780703)scale(0.11 -0.11)">
       <use xlink:href="#DejaVuSerif-31"/>
       <use xlink:href="#DejaVuSerif-30" x="63.623047"/>
      </g>
     </g>
    </g>
    <g id="xtick_15">
     <g id="line2d_41">
      <g>
       <use xlink:href="#m4a9e093bad" x="198.798766" y="387.422422" style="stroke: #000000; stroke-width: 0.8"/>
      </g>
     </g>
     <g id="text_31">
      <!-- 20 -->
      <g transform="translate(191.800016 402.780703)scale(0.11 -0.11)">
       <use xlink:href="#DejaVuSerif-32"/>
       <use xlink:href="#DejaVuSerif-30" x="63.623047"/>
      </g>
     </g>
    </g>
   </g>
   <g id="matplotlib.axis_10">
    <g id="ytick_17">
     <g id="line2d_42">
      <g>
       <use xlink:href="#mc9af627f92" x="47.523438" y="382.453727" style="stroke: #000000; stroke-width: 0.8"/>
      </g>
     </g>
     <g id="text_32">
      <!-- 20 -->
      <g transform="translate(26.525938 386.632868)scale(0.11 -0.11)">
       <use xlink:href="#DejaVuSerif-32"/>
       <use xlink:href="#DejaVuSerif-30" x="63.623047"/>
      </g>
     </g>
    </g>
    <g id="ytick_18">
     <g id="line2d_43">
      <g>
       <use xlink:href="#mc9af627f92" x="47.523438" y="357.610254" style="stroke: #000000; stroke-width: 0.8"/>
      </g>
     </g>
     <g id="text_33">
      <!-- 35 -->
      <g transform="translate(26.525938 361.789395)scale(0.11 -0.11)">
       <use xlink:href="#DejaVuSerif-33"/>
       <use xlink:href="#DejaVuSerif-35" x="63.623047"/>
      </g>
     </g>
    </g>
    <g id="ytick_19">
     <g id="line2d_44">
      <g>
       <use xlink:href="#mc9af627f92" x="47.523438" y="332.766781" style="stroke: #000000; stroke-width: 0.8"/>
      </g>
     </g>
     <g id="text_34">
      <!-- 50 -->
      <g transform="translate(26.525938 336.945922)scale(0.11 -0.11)">
       <use xlink:href="#DejaVuSerif-35"/>
       <use xlink:href="#DejaVuSerif-30" x="63.623047"/>
      </g>
     </g>
    </g>
    <g id="ytick_20">
     <g id="line2d_45">
      <g>
       <use xlink:href="#mc9af627f92" x="47.523438" y="307.923308" style="stroke: #000000; stroke-width: 0.8"/>
      </g>
     </g>
     <g id="text_35">
      <!-- 65 -->
      <g transform="translate(26.525938 312.102449)scale(0.11 -0.11)">
       <use xlink:href="#DejaVuSerif-36"/>
       <use xlink:href="#DejaVuSerif-35" x="63.623047"/>
      </g>
     </g>
    </g>
    <g id="text_36">
     <!-- $T$ in °C -->
     <g transform="translate(20.238281 361.016055)rotate(-90)scale(0.11 -0.11)">
      <use xlink:href="#DejaVuSans-Oblique-54" transform="translate(0 0.78125)"/>
      <use xlink:href="#DejaVuSerif-20" transform="translate(61.083984 0.78125)"/>
      <use xlink:href="#DejaVuSerif-69" transform="translate(92.871094 0.78125)"/>
      <use xlink:href="#DejaVuSerif-6e" transform="translate(124.853516 0.78125)"/>
      <use xlink:href="#DejaVuSerif-20" transform="translate(189.257812 0.78125)"/>
      <use xlink:href="#DejaVuSerif-b0" transform="translate(221.044922 0.78125)"/>
      <use xlink:href="#DejaVuSerif-43" transform="translate(271.044922 0.78125)"/>
     </g>
    </g>
   </g>
   <g id="line2d_46">
    <path d="M 56.001996 371.969782 
L 57.786955 372.069156 
L 59.571915 372.185092 
L 61.356875 372.284466 
L 63.141834 372.400402 
L 64.926794 372.499776 
L 66.711754 372.615712 
L 68.496713 372.715086 
L 70.281673 372.81446 
L 72.066632 372.930396 
L 73.851592 373.02977 
L 75.636552 373.129144 
L 77.421511 373.228518 
L 79.206471 373.327892 
L 80.991431 373.427265 
L 82.77639 373.526639 
L 84.56135 373.626013 
L 86.346309 373.725387 
L 88.131269 373.824761 
L 89.916229 373.907573 
L 91.701188 374.006946 
L 93.486148 374.10632 
L 95.271108 374.189132 
L 97.056067 374.288506 
L 98.841027 374.371317 
L 100.625986 374.470691 
L 102.410946 374.553503 
L 104.195906 374.652877 
L 105.980865 374.735688 
L 107.765825 374.8185 
L 109.550785 374.917874 
L 111.335744 375.000685 
L 113.120704 375.083497 
L 114.905664 375.166309 
L 116.690623 375.24912 
L 118.475583 375.331932 
L 120.260542 375.431306 
L 122.045502 375.497555 
L 123.830462 375.580366 
L 125.615421 375.663178 
L 127.400381 375.74599 
L 129.185341 375.828801 
L 130.9703 375.911613 
L 132.75526 375.994424 
L 134.540219 376.060674 
L 136.325179 376.143485 
L 138.110139 376.226297 
L 139.895098 376.292546 
L 141.680058 376.375358 
L 143.465018 376.441607 
L 145.249977 376.524418 
L 147.034937 376.590668 
L 148.819896 376.656917 
L 150.604856 376.739728 
L 152.389816 376.805978 
L 154.174775 376.872227 
L 155.959735 376.955039 
L 157.744695 377.021288 
L 159.529654 377.087537 
L 161.314614 377.153786 
L 163.099573 377.236598 
L 164.884533 377.302847 
L 166.669493 377.369096 
L 168.454452 377.435346 
L 170.239412 377.501595 
L 172.024372 377.567844 
L 173.809331 377.634094 
L 175.594291 377.700343 
L 177.379251 377.766592 
L 179.16421 377.832841 
L 180.94917 377.882528 
L 182.734129 377.948777 
L 184.519089 378.015027 
L 186.304049 378.081276 
L 188.089008 378.130963 
L 189.873968 378.197212 
L 191.658928 378.263461 
L 193.443887 378.313148 
L 195.228847 378.379398 
L 197.013806 378.429085 
L 198.798766 378.495334 
L 200.583726 378.545021 
L 202.368685 378.61127 
L 204.153645 378.660957 
L 205.938605 378.710644 
L 207.723564 378.776893 
L 209.508524 378.82658 
L 211.293483 378.876267 
L 213.078443 378.942516 
L 214.863403 378.992203 
L 216.648362 379.04189 
L 218.433322 379.10814 
L 220.218282 379.157827 
L 222.003241 379.207513 
L 223.788201 379.2572 
L 225.573161 379.306887 
" clip-path="url(#p316f291249)" style="fill: none; stroke: #ec635c; stroke-width: 1.5; stroke-linecap: square"/>
   </g>
   <g id="line2d_47">
    <path d="M 56.001996 329.305257 
L 57.786955 329.454318 
L 59.571915 329.586817 
L 61.356875 329.719315 
L 63.141834 329.851814 
L 64.926794 329.984312 
L 66.711754 330.116811 
L 68.496713 330.249309 
L 70.281673 330.381808 
L 72.066632 330.514306 
L 73.851592 330.646805 
L 75.636552 330.779303 
L 77.421511 330.911802 
L 79.206471 331.0443 
L 80.991431 331.176799 
L 82.77639 331.309297 
L 84.56135 331.392109 
L 86.346309 331.524608 
L 88.131269 331.657106 
L 89.916229 331.789605 
L 91.701188 331.922103 
L 93.486148 332.038039 
L 95.271108 332.170538 
L 97.056067 332.303036 
L 98.841027 332.435535 
L 100.625986 332.551471 
L 102.410946 332.68397 
L 104.195906 327.731837 
L 105.980865 328.626202 
L 107.765825 329.504005 
L 109.550785 329.636504 
L 111.335744 329.769002 
L 113.120704 329.851814 
L 114.905664 330.000875 
L 116.690623 330.133373 
L 118.475583 324.469061 
L 120.260542 316.105092 
L 122.045502 308.933609 
L 123.830462 327.234968 
L 125.615421 328.129333 
L 127.400381 328.261831 
L 129.185341 328.410892 
L 130.9703 328.543391 
L 132.75526 329.421194 
L 134.540219 329.570254 
L 136.325179 329.702753 
L 138.110139 329.835251 
L 139.895098 329.96775 
L 141.680058 330.563993 
L 143.465018 330.696492 
L 145.249977 330.82899 
L 147.034937 331.706793 
L 148.819896 331.839292 
L 150.604856 331.97179 
L 152.389816 332.087726 
L 154.174775 332.220225 
L 155.959735 332.352723 
L 157.744695 332.485222 
L 159.529654 328.129333 
L 161.314614 323.806569 
L 163.099573 311.335145 
L 164.884533 311.500768 
L 166.669493 311.682954 
L 168.454452 311.865139 
L 170.239412 307.923308 
L 172.024372 308.105494 
L 173.809331 308.304241 
L 175.594291 308.486427 
L 177.379251 308.668612 
L 179.16421 311.103273 
L 180.94917 312.030762 
L 182.734129 307.923308 
L 184.519089 308.105494 
L 186.304049 308.304241 
L 188.089008 309.231731 
L 189.873968 309.413917 
L 191.658928 307.923308 
L 193.443887 308.86736 
L 195.228847 309.049546 
L 197.013806 309.977035 
L 198.798766 310.606403 
L 200.583726 311.533893 
L 202.368685 311.716078 
L 204.153645 307.923308 
L 205.938605 308.105494 
L 207.723564 308.304241 
L 209.508524 309.231731 
L 211.293483 309.413917 
L 213.078443 310.357969 
L 214.863403 331.839292 
L 216.648362 331.97179 
L 218.433322 332.104289 
L 220.218282 328.046521 
L 222.003241 328.195582 
L 223.788201 328.328081 
L 225.573161 329.222446 
" clip-path="url(#p316f291249)" style="fill: none; stroke-dasharray: 5.55,2.4; stroke-dashoffset: 0; stroke: #4b81c4; stroke-width: 1.5"/>
   </g>
   <g id="patch_24">
    <path d="M 47.523438 387.422422 
L 47.523438 296.329687 
" style="fill: none; stroke: #000000; stroke-width: 0.5; stroke-linejoin: miter; stroke-linecap: square"/>
   </g>
   <g id="patch_25">
    <path d="M 234.051719 387.422422 
L 234.051719 296.329687 
" style="fill: none; stroke: #000000; stroke-width: 0.5; stroke-linejoin: miter; stroke-linecap: square"/>
   </g>
   <g id="patch_26">
    <path d="M 47.523438 387.422422 
L 234.051719 387.422422 
" style="fill: none; stroke: #000000; stroke-width: 0.5; stroke-linejoin: miter; stroke-linecap: square"/>
   </g>
   <g id="patch_27">
    <path d="M 47.523438 296.329687 
L 234.051719 296.329687 
" style="fill: none; stroke: #000000; stroke-width: 0.5; stroke-linejoin: miter; stroke-linecap: square"/>
   </g>
   <g id="text_37">
    <!-- Sommertag -->
    <g transform="translate(108.383125 290.329687)scale(0.11 -0.11)">
     <use xlink:href="#DejaVuSerif-53"/>
     <use xlink:href="#DejaVuSerif-6f" x="68.505859"/>
     <use xlink:href="#DejaVuSerif-6d" x="128.710938"/>
     <use xlink:href="#DejaVuSerif-6d" x="223.535156"/>
     <use xlink:href="#DejaVuSerif-65" x="318.359375"/>
     <use xlink:href="#DejaVuSerif-72" x="377.539062"/>
     <use xlink:href="#DejaVuSerif-74" x="425.341797"/>
     <use xlink:href="#DejaVuSerif-61" x="465.527344"/>
     <use xlink:href="#DejaVuSerif-67" x="525.146484"/>
    </g>
   </g>
  </g>
  <g id="axes_6">
   <g id="patch_28">
    <path d="M 249.431719 387.422422 
L 435.96 387.422422 
L 435.96 296.329687 
L 249.431719 296.329687 
z
" style="fill: #ffffff"/>
   </g>
   <g id="matplotlib.axis_11">
    <g id="xtick_16">
     <g id="line2d_48">
      <g>
       <use xlink:href="#m4a9e093bad" x="257.910277" y="387.422422" style="stroke: #000000; stroke-width: 0.8"/>
      </g>
     </g>
     <g id="text_38">
      <!-- 0 -->
      <g transform="translate(254.410902 402.780703)scale(0.11 -0.11)">
       <use xlink:href="#DejaVuSerif-30"/>
      </g>
     </g>
    </g>
    <g id="xtick_17">
     <g id="line2d_49">
      <g>
       <use xlink:href="#m4a9e093bad" x="329.308662" y="387.422422" style="stroke: #000000; stroke-width: 0.8"/>
      </g>
     </g>
     <g id="text_39">
      <!-- 10 -->
      <g transform="translate(322.309912 402.780703)scale(0.11 -0.11)">
       <use xlink:href="#DejaVuSerif-31"/>
       <use xlink:href="#DejaVuSerif-30" x="63.623047"/>
      </g>
     </g>
    </g>
    <g id="xtick_18">
     <g id="line2d_50">
      <g>
       <use xlink:href="#m4a9e093bad" x="400.707047" y="387.422422" style="stroke: #000000; stroke-width: 0.8"/>
      </g>
     </g>
     <g id="text_40">
      <!-- 20 -->
      <g transform="translate(393.708297 402.780703)scale(0.11 -0.11)">
       <use xlink:href="#DejaVuSerif-32"/>
       <use xlink:href="#DejaVuSerif-30" x="63.623047"/>
      </g>
     </g>
    </g>
   </g>
   <g id="matplotlib.axis_12">
    <g id="ytick_21">
     <g id="line2d_51">
      <g>
       <use xlink:href="#mc9af627f92" x="249.431719" y="382.453727" style="stroke: #000000; stroke-width: 0.8"/>
      </g>
     </g>
    </g>
    <g id="ytick_22">
     <g id="line2d_52">
      <g>
       <use xlink:href="#mc9af627f92" x="249.431719" y="357.610254" style="stroke: #000000; stroke-width: 0.8"/>
      </g>
     </g>
    </g>
    <g id="ytick_23">
     <g id="line2d_53">
      <g>
       <use xlink:href="#mc9af627f92" x="249.431719" y="332.766781" style="stroke: #000000; stroke-width: 0.8"/>
      </g>
     </g>
    </g>
    <g id="ytick_24">
     <g id="line2d_54">
      <g>
       <use xlink:href="#mc9af627f92" x="249.431719" y="307.923308" style="stroke: #000000; stroke-width: 0.8"/>
      </g>
     </g>
    </g>
   </g>
   <g id="line2d_55">
    <path d="M 257.910277 371.969782 
L 259.695237 372.069156 
L 261.480196 372.185092 
L 263.265156 372.284466 
L 265.050116 372.400402 
L 266.835075 372.499776 
L 268.620035 372.615712 
L 270.404994 372.715086 
L 272.189954 372.81446 
L 273.974914 372.930396 
L 275.759873 373.02977 
L 277.544833 373.129144 
L 279.329793 373.228518 
L 281.114752 373.327892 
L 282.899712 373.427265 
L 284.684671 373.526639 
L 286.469631 373.626013 
L 288.254591 373.725387 
L 290.03955 373.824761 
L 291.82451 373.907573 
L 293.60947 374.006946 
L 295.394429 374.10632 
L 297.179389 374.189132 
L 298.964348 374.288506 
L 300.749308 374.371317 
L 302.534268 374.470691 
L 304.319227 374.553503 
L 306.104187 374.652877 
L 307.889147 374.735688 
L 309.674106 374.8185 
L 311.459066 374.917874 
L 313.244025 375.000685 
L 315.028985 375.083497 
L 316.813945 375.166309 
L 318.598904 375.24912 
L 320.383864 375.331932 
L 322.168824 375.431306 
L 323.953783 375.497555 
L 325.738743 375.580366 
L 327.523703 375.663178 
L 329.308662 375.74599 
L 331.093622 375.828801 
L 332.878581 375.911613 
L 334.663541 375.994424 
L 336.448501 376.060674 
L 338.23346 376.143485 
L 340.01842 376.226297 
L 341.80338 376.292546 
L 343.588339 376.375358 
L 345.373299 376.441607 
L 347.158258 376.524418 
L 348.943218 376.590668 
L 350.728178 376.656917 
L 352.513137 376.739728 
L 354.298097 376.805978 
L 356.083057 376.872227 
L 357.868016 376.955039 
L 359.652976 377.021288 
L 361.437935 377.087537 
L 363.222895 377.153786 
L 365.007855 377.236598 
L 366.792814 377.302847 
L 368.577774 377.369096 
L 370.362734 377.435346 
L 372.147693 377.501595 
L 373.932653 377.567844 
L 375.717613 377.634094 
L 377.502572 377.700343 
L 379.287532 377.766592 
L 381.072491 377.832841 
L 382.857451 377.882528 
L 384.642411 377.948777 
L 386.42737 378.015027 
L 388.21233 378.081276 
L 389.99729 378.130963 
L 391.782249 378.197212 
L 393.567209 378.263461 
L 395.352168 378.313148 
L 397.137128 378.379398 
L 398.922088 378.429085 
L 400.707047 378.495334 
L 402.492007 378.545021 
L 404.276967 378.61127 
L 406.061926 378.660957 
L 407.846886 378.710644 
L 409.631845 378.776893 
L 411.416805 378.82658 
L 413.201765 378.876267 
L 414.986724 378.942516 
L 416.771684 378.992203 
L 418.556644 379.04189 
L 420.341603 379.10814 
L 422.126563 379.157827 
L 423.911523 379.207513 
L 425.696482 379.2572 
L 427.481442 379.306887 
" clip-path="url(#p36c74c6e3d)" style="fill: none; stroke: #ec635c; stroke-width: 1.5; stroke-linecap: square"/>
   </g>
   <g id="line2d_56">
    <path d="M 257.910277 329.305257 
L 259.695237 329.454318 
L 261.480196 329.586817 
L 263.265156 329.719315 
L 265.050116 329.851814 
L 266.835075 329.984312 
L 268.620035 330.116811 
L 270.404994 330.249309 
L 272.189954 330.381808 
L 273.974914 330.514306 
L 275.759873 330.646805 
L 277.544833 330.779303 
L 279.329793 330.911802 
L 281.114752 331.0443 
L 282.899712 331.176799 
L 284.684671 331.309297 
L 286.469631 331.392109 
L 288.254591 331.524608 
L 290.03955 331.657106 
L 291.82451 331.789605 
L 293.60947 331.922103 
L 295.394429 332.038039 
L 297.179389 332.170538 
L 298.964348 332.303036 
L 300.749308 332.435535 
L 302.534268 332.551471 
L 304.319227 332.68397 
L 306.104187 332.766781 
L 307.889147 328.162458 
L 309.674106 329.04026 
L 311.459066 329.172759 
L 313.244025 329.32182 
L 315.028985 329.404631 
L 316.813945 329.553692 
L 318.598904 329.686191 
L 320.383864 329.818689 
L 322.168824 329.951188 
L 323.953783 316.320402 
L 325.738743 326.025919 
L 327.523703 326.920284 
L 329.308662 327.052782 
L 331.093622 327.201843 
L 332.878581 327.334342 
L 334.663541 328.228707 
L 336.448501 328.361205 
L 338.23346 328.510266 
L 340.01842 328.642765 
L 341.80338 328.775263 
L 343.588339 329.371507 
L 345.373299 329.504005 
L 347.158258 329.636504 
L 348.943218 330.530869 
L 350.728178 330.663367 
L 352.513137 330.795866 
L 354.298097 330.911802 
L 356.083057 331.0443 
L 357.868016 331.176799 
L 359.652976 331.309297 
L 361.437935 331.441796 
L 363.222895 331.574295 
L 365.007855 331.706793 
L 366.792814 331.839292 
L 368.577774 331.97179 
L 370.362734 332.087726 
L 372.147693 332.170538 
L 373.932653 332.303036 
L 375.717613 332.435535 
L 377.502572 316.767585 
L 379.287532 316.933208 
L 381.072491 310.357969 
L 382.857451 311.285458 
L 384.642411 312.212948 
L 386.42737 307.923308 
L 388.21233 308.105494 
L 389.99729 309.049546 
L 391.782249 309.231731 
L 393.567209 308.486427 
L 395.352168 309.413917 
L 397.137128 309.596102 
L 398.922088 310.540154 
L 400.707047 311.169522 
L 402.492007 312.097012 
L 404.276967 312.262635 
L 406.061926 307.923308 
L 407.846886 308.105494 
L 409.631845 308.304241 
L 411.416805 309.231731 
L 413.201765 309.413917 
L 414.986724 310.357969 
L 416.771684 326.870597 
L 418.556644 327.019658 
L 420.341603 327.152156 
L 422.126563 328.046521 
L 423.911523 328.195582 
L 425.696482 328.328081 
L 427.481442 329.222446 
" clip-path="url(#p36c74c6e3d)" style="fill: none; stroke-dasharray: 5.55,2.4; stroke-dashoffset: 0; stroke: #4b81c4; stroke-width: 1.5"/>
   </g>
   <g id="patch_29">
    <path d="M 249.431719 387.422422 
L 249.431719 296.329687 
" style="fill: none; stroke: #000000; stroke-width: 0.5; stroke-linejoin: miter; stroke-linecap: square"/>
   </g>
   <g id="patch_30">
    <path d="M 435.96 387.422422 
L 435.96 296.329687 
" style="fill: none; stroke: #000000; stroke-width: 0.5; stroke-linejoin: miter; stroke-linecap: square"/>
   </g>
   <g id="patch_31">
    <path d="M 249.431719 387.422422 
L 435.96 387.422422 
" style="fill: none; stroke: #000000; stroke-width: 0.5; stroke-linejoin: miter; stroke-linecap: square"/>
   </g>
   <g id="patch_32">
    <path d="M 249.431719 296.329687 
L 435.96 296.329687 
" style="fill: none; stroke: #000000; stroke-width: 0.5; stroke-linejoin: miter; stroke-linecap: square"/>
   </g>
   <g id="text_41">
    <!-- Hochsommertag -->
    <g transform="translate(296.507031 290.329687)scale(0.11 -0.11)">
     <defs>
      <path id="DejaVuSerif-48" d="M 353 0 
L 353 331 
L 947 331 
L 947 4331 
L 353 4331 
L 353 4666 
L 2175 4666 
L 2175 4331 
L 1581 4331 
L 1581 2719 
L 4000 2719 
L 4000 4331 
L 3406 4331 
L 3406 4666 
L 5228 4666 
L 5228 4331 
L 4634 4331 
L 4634 331 
L 5228 331 
L 5228 0 
L 3406 0 
L 3406 331 
L 4000 331 
L 4000 2338 
L 1581 2338 
L 1581 331 
L 2175 331 
L 2175 0 
L 353 0 
z
" transform="scale(0.015625)"/>
      <path id="DejaVuSerif-63" d="M 3291 997 
Q 3169 466 2822 187 
Q 2475 -91 1925 -91 
Q 1200 -91 759 389 
Q 319 869 319 1663 
Q 319 2459 759 2936 
Q 1200 3413 1925 3413 
Q 2241 3413 2553 3339 
Q 2866 3266 3181 3116 
L 3181 2266 
L 2847 2266 
Q 2781 2703 2561 2903 
Q 2341 3103 1931 3103 
Q 1466 3103 1228 2742 
Q 991 2381 991 1663 
Q 991 944 1227 581 
Q 1463 219 1931 219 
Q 2303 219 2525 412 
Q 2747 606 2828 997 
L 3291 997 
z
" transform="scale(0.015625)"/>
     </defs>
     <use xlink:href="#DejaVuSerif-48"/>
     <use xlink:href="#DejaVuSerif-6f" x="87.207031"/>
     <use xlink:href="#DejaVuSerif-63" x="147.412109"/>
     <use xlink:href="#DejaVuSerif-68" x="203.417969"/>
     <use xlink:href="#DejaVuSerif-73" x="267.822266"/>
     <use xlink:href="#DejaVuSerif-6f" x="319.140625"/>
     <use xlink:href="#DejaVuSerif-6d" x="379.345703"/>
     <use xlink:href="#DejaVuSerif-6d" x="474.169922"/>
     <use xlink:href="#DejaVuSerif-65" x="568.994141"/>
     <use xlink:href="#DejaVuSerif-72" x="628.173828"/>
     <use xlink:href="#DejaVuSerif-74" x="675.976562"/>
     <use xlink:href="#DejaVuSerif-61" x="716.162109"/>
     <use xlink:href="#DejaVuSerif-67" x="775.78125"/>
    </g>
   </g>
  </g>
  <g id="axes_7">
   <g id="patch_33">
    <path d="M 47.523438 522.468125 
L 234.051719 522.468125 
L 234.051719 431.375391 
L 47.523438 431.375391 
z
" style="fill: #ffffff"/>
   </g>
   <g id="matplotlib.axis_13">
    <g id="xtick_19">
     <g id="line2d_57">
      <g>
       <use xlink:href="#m4a9e093bad" x="56.001996" y="522.468125" style="stroke: #000000; stroke-width: 0.8"/>
      </g>
     </g>
     <g id="text_42">
      <!-- 0 -->
      <g transform="translate(52.502621 537.826406)scale(0.11 -0.11)">
       <use xlink:href="#DejaVuSerif-30"/>
      </g>
     </g>
    </g>
    <g id="xtick_20">
     <g id="line2d_58">
      <g>
       <use xlink:href="#m4a9e093bad" x="127.400381" y="522.468125" style="stroke: #000000; stroke-width: 0.8"/>
      </g>
     </g>
     <g id="text_43">
      <!-- 10 -->
      <g transform="translate(120.401631 537.826406)scale(0.11 -0.11)">
       <use xlink:href="#DejaVuSerif-31"/>
       <use xlink:href="#DejaVuSerif-30" x="63.623047"/>
      </g>
     </g>
    </g>
    <g id="xtick_21">
     <g id="line2d_59">
      <g>
       <use xlink:href="#m4a9e093bad" x="198.798766" y="522.468125" style="stroke: #000000; stroke-width: 0.8"/>
      </g>
     </g>
     <g id="text_44">
      <!-- 20 -->
      <g transform="translate(191.800016 537.826406)scale(0.11 -0.11)">
       <use xlink:href="#DejaVuSerif-32"/>
       <use xlink:href="#DejaVuSerif-30" x="63.623047"/>
      </g>
     </g>
    </g>
    <g id="text_45">
     <!-- Zeit in h -->
     <g transform="translate(117.401406 552.472344)scale(0.11 -0.11)">
      <defs>
       <path id="DejaVuSerif-5a" d="M 288 0 
L 288 225 
L 3194 4281 
L 781 4281 
L 781 3584 
L 397 3584 
L 397 4666 
L 4084 4666 
L 4084 4441 
L 1178 384 
L 3816 384 
L 3816 1038 
L 4197 1038 
L 4197 0 
L 288 0 
z
" transform="scale(0.015625)"/>
      </defs>
      <use xlink:href="#DejaVuSerif-5a"/>
      <use xlink:href="#DejaVuSerif-65" x="69.482422"/>
      <use xlink:href="#DejaVuSerif-69" x="128.662109"/>
      <use xlink:href="#DejaVuSerif-74" x="160.644531"/>
      <use xlink:href="#DejaVuSerif-20" x="200.830078"/>
      <use xlink:href="#DejaVuSerif-69" x="232.617188"/>
      <use xlink:href="#DejaVuSerif-6e" x="264.599609"/>
      <use xlink:href="#DejaVuSerif-20" x="329.003906"/>
      <use xlink:href="#DejaVuSerif-68" x="360.791016"/>
     </g>
    </g>
   </g>
   <g id="matplotlib.axis_14">
    <g id="ytick_25">
     <g id="line2d_60">
      <g>
       <use xlink:href="#mc9af627f92" x="47.523438" y="517.49943" style="stroke: #000000; stroke-width: 0.8"/>
      </g>
     </g>
     <g id="text_46">
      <!-- 20 -->
      <g transform="translate(26.525938 521.678571)scale(0.11 -0.11)">
       <use xlink:href="#DejaVuSerif-32"/>
       <use xlink:href="#DejaVuSerif-30" x="63.623047"/>
      </g>
     </g>
    </g>
    <g id="ytick_26">
     <g id="line2d_61">
      <g>
       <use xlink:href="#mc9af627f92" x="47.523438" y="492.655957" style="stroke: #000000; stroke-width: 0.8"/>
      </g>
     </g>
     <g id="text_47">
      <!-- 35 -->
      <g transform="translate(26.525938 496.835098)scale(0.11 -0.11)">
       <use xlink:href="#DejaVuSerif-33"/>
       <use xlink:href="#DejaVuSerif-35" x="63.623047"/>
      </g>
     </g>
    </g>
    <g id="ytick_27">
     <g id="line2d_62">
      <g>
       <use xlink:href="#mc9af627f92" x="47.523438" y="467.812484" style="stroke: #000000; stroke-width: 0.8"/>
      </g>
     </g>
     <g id="text_48">
      <!-- 50 -->
      <g transform="translate(26.525938 471.991625)scale(0.11 -0.11)">
       <use xlink:href="#DejaVuSerif-35"/>
       <use xlink:href="#DejaVuSerif-30" x="63.623047"/>
      </g>
     </g>
    </g>
    <g id="ytick_28">
     <g id="line2d_63">
      <g>
       <use xlink:href="#mc9af627f92" x="47.523438" y="442.969011" style="stroke: #000000; stroke-width: 0.8"/>
      </g>
     </g>
     <g id="text_49">
      <!-- 65 -->
      <g transform="translate(26.525938 447.148152)scale(0.11 -0.11)">
       <use xlink:href="#DejaVuSerif-36"/>
       <use xlink:href="#DejaVuSerif-35" x="63.623047"/>
      </g>
     </g>
    </g>
    <g id="text_50">
     <!-- $T$ in °C -->
     <g transform="translate(20.238281 496.061758)rotate(-90)scale(0.11 -0.11)">
      <use xlink:href="#DejaVuSans-Oblique-54" transform="translate(0 0.78125)"/>
      <use xlink:href="#DejaVuSerif-20" transform="translate(61.083984 0.78125)"/>
      <use xlink:href="#DejaVuSerif-69" transform="translate(92.871094 0.78125)"/>
      <use xlink:href="#DejaVuSerif-6e" transform="translate(124.853516 0.78125)"/>
      <use xlink:href="#DejaVuSerif-20" transform="translate(189.257812 0.78125)"/>
      <use xlink:href="#DejaVuSerif-b0" transform="translate(221.044922 0.78125)"/>
      <use xlink:href="#DejaVuSerif-43" transform="translate(271.044922 0.78125)"/>
     </g>
    </g>
   </g>
   <g id="line2d_64">
    <path d="M 56.001996 485.086979 
L 57.786955 491.297848 
L 59.571915 485.202915 
L 61.356875 491.52972 
L 63.141834 484.987605 
L 64.926794 491.430346 
L 66.711754 484.772295 
L 68.496713 491.31441 
L 70.281673 484.556985 
L 72.066632 491.215036 
L 73.851592 484.3748 
L 75.636552 477.186755 
L 77.421511 484.076678 
L 79.206471 490.966601 
L 80.991431 484.3748 
L 82.77639 491.115662 
L 84.56135 484.3748 
L 86.346309 491.115662 
L 88.131269 484.3748 
L 89.916229 491.115662 
L 91.701188 484.3748 
L 93.486148 491.115662 
L 95.271108 484.3748 
L 97.056067 491.115662 
L 98.841027 484.3748 
L 100.625986 491.115662 
L 102.410946 484.921356 
L 104.195906 491.380659 
L 105.980865 485.815721 
L 107.765825 491.711905 
L 109.550785 484.3748 
L 111.335744 489.459431 
L 113.120704 493.649696 
L 114.905664 485.600411 
L 116.690623 489.840364 
L 118.475583 493.848444 
L 120.260542 485.749472 
L 122.045502 489.608491 
L 123.830462 493.467511 
L 125.615421 484.3748 
L 127.400381 488.349755 
L 129.185341 492.010027 
L 130.9703 494.924995 
L 132.75526 484.3748 
L 134.540219 487.24008 
L 136.325179 489.873488 
L 138.110139 480.416406 
L 139.895098 470.843388 
L 141.680058 472.996489 
L 143.465018 462.495981 
L 145.249977 452.293595 
L 147.034937 442.571516 
L 148.819896 444.724617 
L 150.604856 446.89428 
L 152.389816 449.047381 
L 154.174775 451.217044 
L 155.959735 453.386708 
L 157.744695 455.62262 
L 159.529654 457.90822 
L 161.314614 460.243506 
L 163.099573 462.62848 
L 164.884533 465.079702 
L 166.669493 467.580612 
L 168.454452 470.147771 
L 170.239412 472.781179 
L 172.024372 475.480836 
L 173.809331 478.230181 
L 175.594291 481.045774 
L 177.379251 483.927617 
L 179.16421 486.941959 
L 180.94917 490.088799 
L 182.734129 493.368137 
L 184.519089 484.3748 
L 186.304049 488.018509 
L 188.089008 491.794717 
L 189.873968 494.809058 
L 191.658928 484.3748 
L 193.443887 488.912874 
L 195.228847 493.384699 
L 197.013806 486.329153 
L 198.798766 492.092839 
L 200.583726 485.848846 
L 202.368685 491.844404 
L 204.153645 484.3748 
L 205.938605 472.350559 
L 207.723564 478.743612 
L 209.508524 485.120104 
L 211.293483 491.496595 
L 213.078443 485.037292 
L 214.863403 491.446908 
L 216.648362 485.004168 
L 218.433322 491.430346 
L 220.218282 484.987605 
L 222.003241 491.430346 
L 223.788201 484.3748 
L 225.573161 472.781179 
" clip-path="url(#p8b6e125a79)" style="fill: none; stroke: #ec635c; stroke-width: 1.5; stroke-linecap: square"/>
   </g>
   <g id="line2d_65">
    <path d="M 56.001996 464.301274 
L 57.786955 464.450334 
L 59.571915 464.582833 
L 61.356875 464.715331 
L 63.141834 464.84783 
L 64.926794 464.980328 
L 66.711754 465.112827 
L 68.496713 465.245325 
L 70.281673 465.377824 
L 72.066632 465.510323 
L 73.851592 465.642821 
L 75.636552 465.77532 
L 77.421511 465.907818 
L 79.206471 466.040317 
L 80.991431 466.172815 
L 82.77639 466.305314 
L 84.56135 466.388125 
L 86.346309 466.520624 
L 88.131269 466.653122 
L 89.916229 466.785621 
L 91.701188 466.918119 
L 93.486148 467.034056 
L 95.271108 467.166554 
L 97.056067 467.299053 
L 98.841027 467.431551 
L 100.625986 467.56405 
L 102.410946 467.679986 
L 104.195906 465.92438 
L 105.980865 466.802183 
L 107.765825 467.679986 
L 109.550785 467.812484 
L 111.335744 463.473158 
L 113.120704 463.572532 
L 114.905664 463.70503 
L 116.690623 463.837529 
L 118.475583 463.970027 
L 120.260542 464.119088 
L 122.045502 458.752898 
L 123.830462 466.802183 
L 125.615421 467.679986 
L 127.400381 467.812484 
L 129.185341 463.473158 
L 130.9703 458.636962 
L 132.75526 459.531327 
L 134.540219 452.012036 
L 136.325179 444.923365 
L 138.110139 445.10555 
L 139.895098 445.287736 
L 141.680058 445.917103 
L 143.465018 446.082727 
L 145.249977 446.264912 
L 147.034937 447.192402 
L 148.819896 447.374587 
L 150.604856 443.084948 
L 152.389816 443.267133 
L 154.174775 443.449319 
L 155.959735 443.631504 
L 157.744695 443.830252 
L 159.529654 444.012437 
L 161.314614 444.194623 
L 163.099573 444.376808 
L 164.884533 444.558994 
L 166.669493 444.741179 
L 168.454452 444.923365 
L 170.239412 445.039301 
L 172.024372 445.221486 
L 173.809331 445.403672 
L 175.594291 445.585857 
L 177.379251 445.768043 
L 179.16421 448.202703 
L 180.94917 449.130193 
L 182.734129 450.057682 
L 184.519089 450.223305 
L 186.304049 450.388929 
L 188.089008 451.316418 
L 189.873968 451.482041 
L 191.658928 461.651303 
L 193.443887 462.545668 
L 195.228847 462.678167 
L 197.013806 463.572532 
L 198.798766 464.168775 
L 200.583726 465.046578 
L 202.368685 465.179076 
L 204.153645 466.073441 
L 205.938605 466.20594 
L 207.723564 466.338438 
L 209.508524 467.216241 
L 211.293483 458.736336 
L 213.078443 459.630701 
L 214.863403 467.679986 
L 216.648362 467.812484 
L 218.433322 462.34692 
L 220.218282 463.241285 
L 222.003241 463.373784 
L 223.788201 463.506282 
L 225.573161 464.400647 
" clip-path="url(#p8b6e125a79)" style="fill: none; stroke-dasharray: 5.55,2.4; stroke-dashoffset: 0; stroke: #4b81c4; stroke-width: 1.5"/>
   </g>
   <g id="patch_34">
    <path d="M 47.523438 522.468125 
L 47.523438 431.375391 
" style="fill: none; stroke: #000000; stroke-width: 0.5; stroke-linejoin: miter; stroke-linecap: square"/>
   </g>
   <g id="patch_35">
    <path d="M 234.051719 522.468125 
L 234.051719 431.375391 
" style="fill: none; stroke: #000000; stroke-width: 0.5; stroke-linejoin: miter; stroke-linecap: square"/>
   </g>
   <g id="patch_36">
    <path d="M 47.523438 522.468125 
L 234.051719 522.468125 
" style="fill: none; stroke: #000000; stroke-width: 0.5; stroke-linejoin: miter; stroke-linecap: square"/>
   </g>
   <g id="patch_37">
    <path d="M 47.523438 431.375391 
L 234.051719 431.375391 
" style="fill: none; stroke: #000000; stroke-width: 0.5; stroke-linejoin: miter; stroke-linecap: square"/>
   </g>
   <g id="text_51">
    <!-- Herbsttag -->
    <g transform="translate(112.543359 425.375391)scale(0.11 -0.11)">
     <defs>
      <path id="DejaVuSerif-62" d="M 738 331 
L 738 4531 
L 184 4531 
L 184 4863 
L 1313 4863 
L 1313 2803 
Q 1481 3116 1742 3264 
Q 2003 3413 2388 3413 
Q 3000 3413 3387 2928 
Q 3775 2444 3775 1663 
Q 3775 881 3387 395 
Q 3000 -91 2388 -91 
Q 2003 -91 1742 57 
Q 1481 206 1313 519 
L 1313 0 
L 184 0 
L 184 331 
L 738 331 
z
M 1313 1497 
Q 1313 897 1542 583 
Q 1772 269 2209 269 
Q 2650 269 2876 622 
Q 3103 975 3103 1663 
Q 3103 2353 2876 2703 
Q 2650 3053 2209 3053 
Q 1772 3053 1542 2737 
Q 1313 2422 1313 1825 
L 1313 1497 
z
" transform="scale(0.015625)"/>
     </defs>
     <use xlink:href="#DejaVuSerif-48"/>
     <use xlink:href="#DejaVuSerif-65" x="87.207031"/>
     <use xlink:href="#DejaVuSerif-72" x="146.386719"/>
     <use xlink:href="#DejaVuSerif-62" x="194.189453"/>
     <use xlink:href="#DejaVuSerif-73" x="258.203125"/>
     <use xlink:href="#DejaVuSerif-74" x="309.521484"/>
     <use xlink:href="#DejaVuSerif-74" x="349.707031"/>
     <use xlink:href="#DejaVuSerif-61" x="389.892578"/>
     <use xlink:href="#DejaVuSerif-67" x="449.511719"/>
    </g>
   </g>
  </g>
  <g id="axes_8">
   <g id="patch_38">
    <path d="M 249.431719 522.468125 
L 435.96 522.468125 
L 435.96 431.375391 
L 249.431719 431.375391 
z
" style="fill: #ffffff"/>
   </g>
   <g id="matplotlib.axis_15">
    <g id="xtick_22">
     <g id="line2d_66">
      <g>
       <use xlink:href="#m4a9e093bad" x="257.910277" y="522.468125" style="stroke: #000000; stroke-width: 0.8"/>
      </g>
     </g>
     <g id="text_52">
      <!-- 0 -->
      <g transform="translate(254.410902 537.826406)scale(0.11 -0.11)">
       <use xlink:href="#DejaVuSerif-30"/>
      </g>
     </g>
    </g>
    <g id="xtick_23">
     <g id="line2d_67">
      <g>
       <use xlink:href="#m4a9e093bad" x="329.308662" y="522.468125" style="stroke: #000000; stroke-width: 0.8"/>
      </g>
     </g>
     <g id="text_53">
      <!-- 10 -->
      <g transform="translate(322.309912 537.826406)scale(0.11 -0.11)">
       <use xlink:href="#DejaVuSerif-31"/>
       <use xlink:href="#DejaVuSerif-30" x="63.623047"/>
      </g>
     </g>
    </g>
    <g id="xtick_24">
     <g id="line2d_68">
      <g>
       <use xlink:href="#m4a9e093bad" x="400.707047" y="522.468125" style="stroke: #000000; stroke-width: 0.8"/>
      </g>
     </g>
     <g id="text_54">
      <!-- 20 -->
      <g transform="translate(393.708297 537.826406)scale(0.11 -0.11)">
       <use xlink:href="#DejaVuSerif-32"/>
       <use xlink:href="#DejaVuSerif-30" x="63.623047"/>
      </g>
     </g>
    </g>
    <g id="text_55">
     <!-- Zeit in h -->
     <g transform="translate(319.309687 552.472344)scale(0.11 -0.11)">
      <use xlink:href="#DejaVuSerif-5a"/>
      <use xlink:href="#DejaVuSerif-65" x="69.482422"/>
      <use xlink:href="#DejaVuSerif-69" x="128.662109"/>
      <use xlink:href="#DejaVuSerif-74" x="160.644531"/>
      <use xlink:href="#DejaVuSerif-20" x="200.830078"/>
      <use xlink:href="#DejaVuSerif-69" x="232.617188"/>
      <use xlink:href="#DejaVuSerif-6e" x="264.599609"/>
      <use xlink:href="#DejaVuSerif-20" x="329.003906"/>
      <use xlink:href="#DejaVuSerif-68" x="360.791016"/>
     </g>
    </g>
   </g>
   <g id="matplotlib.axis_16">
    <g id="ytick_29">
     <g id="line2d_69">
      <g>
       <use xlink:href="#mc9af627f92" x="249.431719" y="517.49943" style="stroke: #000000; stroke-width: 0.8"/>
      </g>
     </g>
    </g>
    <g id="ytick_30">
     <g id="line2d_70">
      <g>
       <use xlink:href="#mc9af627f92" x="249.431719" y="492.655957" style="stroke: #000000; stroke-width: 0.8"/>
      </g>
     </g>
    </g>
    <g id="ytick_31">
     <g id="line2d_71">
      <g>
       <use xlink:href="#mc9af627f92" x="249.431719" y="467.812484" style="stroke: #000000; stroke-width: 0.8"/>
      </g>
     </g>
    </g>
    <g id="ytick_32">
     <g id="line2d_72">
      <g>
       <use xlink:href="#mc9af627f92" x="249.431719" y="442.969011" style="stroke: #000000; stroke-width: 0.8"/>
      </g>
     </g>
    </g>
   </g>
   <g id="line2d_73">
    <path d="M 257.910277 455.705432 
L 259.695237 472.400246 
L 261.480196 477.004569 
L 263.265156 481.492957 
L 265.050116 481.575768 
L 266.835075 481.642018 
L 268.620035 481.708267 
L 270.404994 481.774516 
L 272.189954 481.840765 
L 273.974914 481.890452 
L 275.759873 481.940139 
L 277.544833 481.989826 
L 279.329793 482.039513 
L 281.114752 482.105763 
L 282.899712 482.172012 
L 284.684671 482.238261 
L 286.469631 482.30451 
L 288.254591 482.37076 
L 290.03955 482.437009 
L 291.82451 482.503258 
L 293.60947 482.552945 
L 295.394429 467.381864 
L 297.179389 482.668881 
L 298.964348 482.784817 
L 300.749308 484.3748 
L 302.534268 484.3748 
L 304.319227 484.3748 
L 306.104187 484.3748 
L 307.889147 483.033252 
L 309.674106 484.3748 
L 311.459066 484.424487 
L 313.244025 485.120104 
L 315.028985 474.520222 
L 316.813945 486.213217 
L 318.598904 485.848846 
L 320.383864 485.23604 
L 322.168824 484.3748 
L 323.953783 472.49962 
L 325.738743 485.202915 
L 327.523703 484.3748 
L 329.308662 483.579809 
L 331.093622 484.3748 
L 332.878581 484.3748 
L 334.663541 484.3748 
L 336.448501 484.623234 
L 338.23346 485.285727 
L 340.01842 485.302289 
L 341.80338 484.3748 
L 343.588339 483.082939 
L 345.373299 481.492957 
L 347.158258 471.174634 
L 348.943218 480.9464 
L 350.728178 489.409744 
L 352.513137 486.875709 
L 354.298097 484.3748 
L 356.083057 491.115662 
L 357.868016 488.449129 
L 359.652976 484.3748 
L 361.437935 491.115662 
L 363.222895 487.803199 
L 365.007855 484.3748 
L 366.792814 476.275828 
L 368.577774 487.091019 
L 370.362734 486.213217 
L 372.147693 485.583849 
L 373.932653 485.186353 
L 375.717613 485.004168 
L 377.502572 485.053855 
L 379.287532 485.302289 
L 381.072491 485.186353 
L 382.857451 484.3748 
L 384.642411 476.573949 
L 386.42737 487.223518 
L 388.21233 485.865408 
L 389.99729 484.3748 
L 391.782249 477.253004 
L 393.567209 487.571327 
L 395.352168 486.544463 
L 397.137128 485.517599 
L 398.922088 484.507298 
L 400.707047 484.3748 
L 402.492007 484.3748 
L 404.276967 484.3748 
L 406.061926 482.619194 
L 407.846886 482.321073 
L 409.631845 482.287948 
L 411.416805 466.487499 
L 413.201765 482.221699 
L 414.986724 466.520624 
L 416.771684 482.238261 
L 418.556644 482.287948 
L 420.341603 482.337635 
L 422.126563 482.387322 
L 423.911523 482.387322 
L 425.696482 470.594953 
L 427.481442 438.712496 
" clip-path="url(#p35148349e2)" style="fill: none; stroke: #ec635c; stroke-width: 1.5; stroke-linecap: square"/>
   </g>
   <g id="line2d_74">
    <path d="M 257.910277 464.483459 
L 259.695237 464.63252 
L 261.480196 464.765018 
L 263.265156 464.897517 
L 265.050116 465.030015 
L 266.835075 465.162514 
L 268.620035 465.295012 
L 270.404994 465.427511 
L 272.189954 465.560009 
L 273.974914 465.692508 
L 275.759873 465.825007 
L 277.544833 465.957505 
L 279.329793 466.090004 
L 281.114752 466.222502 
L 282.899712 466.355001 
L 284.684671 466.487499 
L 286.469631 466.570311 
L 288.254591 466.702809 
L 290.03955 466.835308 
L 291.82451 466.967806 
L 293.60947 467.100305 
L 295.394429 467.216241 
L 297.179389 459.150393 
L 298.964348 459.299454 
L 300.749308 459.448515 
L 302.534268 459.597576 
L 304.319227 459.746637 
L 306.104187 465.145952 
L 307.889147 466.023754 
L 309.674106 466.918119 
L 311.459066 467.050618 
L 313.244025 467.166554 
L 315.028985 467.249366 
L 316.813945 454.794505 
L 318.598904 454.960128 
L 320.383864 455.109189 
L 322.168824 455.274812 
L 323.953783 456.185739 
L 325.738743 464.235024 
L 327.523703 465.129389 
L 329.308662 465.261888 
L 331.093622 465.394386 
L 332.878581 465.526885 
L 334.663541 466.404688 
L 336.448501 466.537186 
L 338.23346 466.669685 
L 340.01842 466.802183 
L 341.80338 466.934682 
L 343.588339 467.514363 
L 345.373299 467.646861 
L 347.158258 467.77936 
L 348.943218 464.185337 
L 350.728178 459.846011 
L 352.513137 459.995072 
L 354.298097 460.144132 
L 356.083057 443.714316 
L 357.868016 443.896501 
L 359.652976 444.095249 
L 361.437935 444.277434 
L 363.222895 444.45962 
L 365.007855 444.641805 
L 366.792814 444.823991 
L 368.577774 445.006176 
L 370.362734 445.188362 
L 372.147693 445.304298 
L 373.932653 445.486483 
L 375.717613 445.668669 
L 377.502572 445.850854 
L 379.287532 446.03304 
L 381.072491 448.4677 
L 382.857451 449.39519 
L 384.642411 450.306117 
L 386.42737 450.47174 
L 388.21233 450.653926 
L 389.99729 451.564853 
L 391.782249 451.730476 
L 393.567209 461.9163 
L 395.352168 462.794103 
L 397.137128 462.943164 
L 398.922088 463.837529 
L 400.707047 464.433772 
L 402.492007 465.311575 
L 404.276967 465.444073 
L 406.061926 466.338438 
L 407.846886 466.470937 
L 409.631845 466.586873 
L 411.416805 467.481238 
L 413.201765 449.726436 
L 414.986724 450.653926 
L 416.771684 458.719773 
L 418.556644 458.868834 
L 420.341603 459.017895 
L 422.126563 459.928822 
L 423.911523 460.061321 
L 425.696482 460.210382 
L 427.481442 461.104747 
" clip-path="url(#p35148349e2)" style="fill: none; stroke-dasharray: 5.55,2.4; stroke-dashoffset: 0; stroke: #4b81c4; stroke-width: 1.5"/>
   </g>
   <g id="patch_39">
    <path d="M 249.431719 522.468125 
L 249.431719 431.375391 
" style="fill: none; stroke: #000000; stroke-width: 0.5; stroke-linejoin: miter; stroke-linecap: square"/>
   </g>
   <g id="patch_40">
    <path d="M 435.96 522.468125 
L 435.96 431.375391 
" style="fill: none; stroke: #000000; stroke-width: 0.5; stroke-linejoin: miter; stroke-linecap: square"/>
   </g>
   <g id="patch_41">
    <path d="M 249.431719 522.468125 
L 435.96 522.468125 
" style="fill: none; stroke: #000000; stroke-width: 0.5; stroke-linejoin: miter; stroke-linecap: square"/>
   </g>
   <g id="patch_42">
    <path d="M 249.431719 431.375391 
L 435.96 431.375391 
" style="fill: none; stroke: #000000; stroke-width: 0.5; stroke-linejoin: miter; stroke-linecap: square"/>
   </g>
   <g id="text_56">
    <!-- kühler Herbsttag -->
    <g transform="translate(294.643047 425.375391)scale(0.11 -0.11)">
     <use xlink:href="#DejaVuSerif-6b"/>
     <use xlink:href="#DejaVuSerif-fc" x="60.595703"/>
     <use xlink:href="#DejaVuSerif-68" x="125"/>
     <use xlink:href="#DejaVuSerif-6c" x="189.404297"/>
     <use xlink:href="#DejaVuSerif-65" x="221.386719"/>
     <use xlink:href="#DejaVuSerif-72" x="280.566406"/>
     <use xlink:href="#DejaVuSerif-20" x="328.369141"/>
     <use xlink:href="#DejaVuSerif-48" x="360.15625"/>
     <use xlink:href="#DejaVuSerif-65" x="447.363281"/>
     <use xlink:href="#DejaVuSerif-72" x="506.542969"/>
     <use xlink:href="#DejaVuSerif-62" x="554.345703"/>
     <use xlink:href="#DejaVuSerif-73" x="618.359375"/>
     <use xlink:href="#DejaVuSerif-74" x="669.677734"/>
     <use xlink:href="#DejaVuSerif-74" x="709.863281"/>
     <use xlink:href="#DejaVuSerif-61" x="750.048828"/>
     <use xlink:href="#DejaVuSerif-67" x="809.667969"/>
    </g>
   </g>
  </g>
 </g>
 <defs>
  <clipPath id="p74ea8ef117">
   <rect x="47.523438" y="26.238281" width="186.528281" height="91.092734"/>
  </clipPath>
  <clipPath id="pa66f46ad3a">
   <rect x="249.431719" y="26.238281" width="186.528281" height="91.092734"/>
  </clipPath>
  <clipPath id="p222e18a1a2">
   <rect x="47.523438" y="161.283984" width="186.528281" height="91.092734"/>
  </clipPath>
  <clipPath id="pd38219b89b">
   <rect x="249.431719" y="161.283984" width="186.528281" height="91.092734"/>
  </clipPath>
  <clipPath id="p316f291249">
   <rect x="47.523438" y="296.329687" width="186.528281" height="91.092734"/>
  </clipPath>
  <clipPath id="p36c74c6e3d">
   <rect x="249.431719" y="296.329687" width="186.528281" height="91.092734"/>
  </clipPath>
  <clipPath id="p8b6e125a79">
   <rect x="47.523438" y="431.375391" width="186.528281" height="91.092734"/>
  </clipPath>
  <clipPath id="p35148349e2">
   <rect x="249.431719" y="431.375391" width="186.528281" height="91.092734"/>
  </clipPath>
 </defs>
</svg>
