<?xml version="1.0" encoding="utf-8" standalone="no"?>
<!DOCTYPE svg PUBLIC "-//W3C//DTD SVG 1.1//EN"
  "http://www.w3.org/Graphics/SVG/1.1/DTD/svg11.dtd">
<svg xmlns:xlink="http://www.w3.org/1999/xlink" width="447.84pt" height="180pt" viewBox="0 0 447.84 180" xmlns="http://www.w3.org/2000/svg" version="1.1">
 <metadata>
  <rdf:RDF xmlns:dc="http://purl.org/dc/elements/1.1/" xmlns:cc="http://creativecommons.org/ns#" xmlns:rdf="http://www.w3.org/1999/02/22-rdf-syntax-ns#">
   <cc:Work>
    <dc:type rdf:resource="http://purl.org/dc/dcmitype/StillImage"/>
    <dc:date>2023-05-30T20:21:59.336833</dc:date>
    <dc:format>image/svg+xml</dc:format>
    <dc:creator>
     <cc:Agent>
      <dc:title>Matplotlib v3.5.3, https://matplotlib.org/</dc:title>
     </cc:Agent>
    </dc:creator>
   </cc:Work>
  </rdf:RDF>
 </metadata>
 <defs>
  <style type="text/css">*{stroke-linejoin: round; stroke-linecap: butt}</style>
 </defs>
 <g id="figure_1">
  <g id="patch_1">
   <path d="M 0 180 
L 447.84 180 
L 447.84 0 
L 0 0 
z
" style="fill: #ffffff"/>
  </g>
  <g id="axes_1">
   <g id="patch_2">
    <path d="M 58.037031 137.000313 
L 408.783125 137.000313 
L 408.783125 25.753594 
L 58.037031 25.753594 
z
" style="fill: #ffffff"/>
   </g>
   <g id="patch_3">
    <path d="M 73.980036 137.000313 
L 73.980036 25.753594 
L 180.266731 25.753594 
L 180.266731 137.000313 
z
" clip-path="url(#p896ec15cba)" style="fill: #808080; opacity: 0.2; stroke: #808080; stroke-width: 1.5; stroke-linejoin: miter"/>
   </g>
   <g id="patch_4">
    <path d="M 286.553426 137.000313 
L 286.553426 25.753594 
L 392.840121 25.753594 
L 392.840121 137.000313 
z
" clip-path="url(#p896ec15cba)" style="fill: #808080; opacity: 0.2; stroke: #808080; stroke-width: 1.5; stroke-linejoin: miter"/>
   </g>
   <g id="matplotlib.axis_1">
    <g id="xtick_1">
     <g id="line2d_1">
      <defs>
       <path id="m495fff9d8e" d="M 0 0 
L 0 3.5 
" style="stroke: #000000; stroke-width: 0.8"/>
      </defs>
      <g>
       <use xlink:href="#m495fff9d8e" x="127.123383" y="137.000313" style="stroke: #000000; stroke-width: 0.8"/>
      </g>
     </g>
     <g id="text_1">
      <!-- 1.7 -->
      <g transform="translate(119.478383 151.873906)scale(0.11 -0.11)">
       <defs>
        <path id="ArialMT-31" d="M 2384 0 
L 1822 0 
L 1822 3584 
Q 1619 3391 1289 3197 
Q 959 3003 697 2906 
L 697 3450 
Q 1169 3672 1522 3987 
Q 1875 4303 2022 4600 
L 2384 4600 
L 2384 0 
z
" transform="scale(0.015625)"/>
        <path id="ArialMT-2e" d="M 581 0 
L 581 641 
L 1222 641 
L 1222 0 
L 581 0 
z
" transform="scale(0.015625)"/>
        <path id="ArialMT-37" d="M 303 3981 
L 303 4522 
L 3269 4522 
L 3269 4084 
Q 2831 3619 2401 2847 
Q 1972 2075 1738 1259 
Q 1569 684 1522 0 
L 944 0 
Q 953 541 1156 1306 
Q 1359 2072 1739 2783 
Q 2119 3494 2547 3981 
L 303 3981 
z
" transform="scale(0.015625)"/>
       </defs>
       <use xlink:href="#ArialMT-31"/>
       <use xlink:href="#ArialMT-2e" x="55.615234"/>
       <use xlink:href="#ArialMT-37" x="83.398438"/>
      </g>
     </g>
    </g>
    <g id="xtick_2">
     <g id="line2d_2">
      <g>
       <use xlink:href="#m495fff9d8e" x="233.410078" y="137.000313" style="stroke: #000000; stroke-width: 0.8"/>
      </g>
     </g>
     <g id="text_2">
      <!-- 2.7 -->
      <g transform="translate(225.765078 151.873906)scale(0.11 -0.11)">
       <defs>
        <path id="ArialMT-32" d="M 3222 541 
L 3222 0 
L 194 0 
Q 188 203 259 391 
Q 375 700 629 1000 
Q 884 1300 1366 1694 
Q 2113 2306 2375 2664 
Q 2638 3022 2638 3341 
Q 2638 3675 2398 3904 
Q 2159 4134 1775 4134 
Q 1369 4134 1125 3890 
Q 881 3647 878 3216 
L 300 3275 
Q 359 3922 746 4261 
Q 1134 4600 1788 4600 
Q 2447 4600 2831 4234 
Q 3216 3869 3216 3328 
Q 3216 3053 3103 2787 
Q 2991 2522 2730 2228 
Q 2469 1934 1863 1422 
Q 1356 997 1212 845 
Q 1069 694 975 541 
L 3222 541 
z
" transform="scale(0.015625)"/>
       </defs>
       <use xlink:href="#ArialMT-32"/>
       <use xlink:href="#ArialMT-2e" x="55.615234"/>
       <use xlink:href="#ArialMT-37" x="83.398438"/>
      </g>
     </g>
    </g>
    <g id="xtick_3">
     <g id="line2d_3">
      <g>
       <use xlink:href="#m495fff9d8e" x="339.696773" y="137.000313" style="stroke: #000000; stroke-width: 0.8"/>
      </g>
     </g>
     <g id="text_3">
      <!-- 3.7 -->
      <g transform="translate(332.051773 151.873906)scale(0.11 -0.11)">
       <defs>
        <path id="ArialMT-33" d="M 269 1209 
L 831 1284 
Q 928 806 1161 595 
Q 1394 384 1728 384 
Q 2125 384 2398 659 
Q 2672 934 2672 1341 
Q 2672 1728 2419 1979 
Q 2166 2231 1775 2231 
Q 1616 2231 1378 2169 
L 1441 2663 
Q 1497 2656 1531 2656 
Q 1891 2656 2178 2843 
Q 2466 3031 2466 3422 
Q 2466 3731 2256 3934 
Q 2047 4138 1716 4138 
Q 1388 4138 1169 3931 
Q 950 3725 888 3313 
L 325 3413 
Q 428 3978 793 4289 
Q 1159 4600 1703 4600 
Q 2078 4600 2393 4439 
Q 2709 4278 2876 4000 
Q 3044 3722 3044 3409 
Q 3044 3113 2884 2869 
Q 2725 2625 2413 2481 
Q 2819 2388 3044 2092 
Q 3269 1797 3269 1353 
Q 3269 753 2831 336 
Q 2394 -81 1725 -81 
Q 1122 -81 723 278 
Q 325 638 269 1209 
z
" transform="scale(0.015625)"/>
       </defs>
       <use xlink:href="#ArialMT-33"/>
       <use xlink:href="#ArialMT-2e" x="55.615234"/>
       <use xlink:href="#ArialMT-37" x="83.398438"/>
      </g>
     </g>
    </g>
    <g id="text_4">
     <!-- Zeit in d -->
     <g transform="translate(213.847266 165.93375)scale(0.11 -0.11)">
      <defs>
       <path id="ArialMT-5a" d="M 128 0 
L 128 563 
L 2475 3497 
Q 2725 3809 2950 4041 
L 394 4041 
L 394 4581 
L 3675 4581 
L 3675 4041 
L 1103 863 
L 825 541 
L 3750 541 
L 3750 0 
L 128 0 
z
" transform="scale(0.015625)"/>
       <path id="ArialMT-65" d="M 2694 1069 
L 3275 997 
Q 3138 488 2766 206 
Q 2394 -75 1816 -75 
Q 1088 -75 661 373 
Q 234 822 234 1631 
Q 234 2469 665 2931 
Q 1097 3394 1784 3394 
Q 2450 3394 2872 2941 
Q 3294 2488 3294 1666 
Q 3294 1616 3291 1516 
L 816 1516 
Q 847 969 1125 678 
Q 1403 388 1819 388 
Q 2128 388 2347 550 
Q 2566 713 2694 1069 
z
M 847 1978 
L 2700 1978 
Q 2663 2397 2488 2606 
Q 2219 2931 1791 2931 
Q 1403 2931 1139 2672 
Q 875 2413 847 1978 
z
" transform="scale(0.015625)"/>
       <path id="ArialMT-69" d="M 425 3934 
L 425 4581 
L 988 4581 
L 988 3934 
L 425 3934 
z
M 425 0 
L 425 3319 
L 988 3319 
L 988 0 
L 425 0 
z
" transform="scale(0.015625)"/>
       <path id="ArialMT-74" d="M 1650 503 
L 1731 6 
Q 1494 -44 1306 -44 
Q 1000 -44 831 53 
Q 663 150 594 308 
Q 525 466 525 972 
L 525 2881 
L 113 2881 
L 113 3319 
L 525 3319 
L 525 4141 
L 1084 4478 
L 1084 3319 
L 1650 3319 
L 1650 2881 
L 1084 2881 
L 1084 941 
Q 1084 700 1114 631 
Q 1144 563 1211 522 
Q 1278 481 1403 481 
Q 1497 481 1650 503 
z
" transform="scale(0.015625)"/>
       <path id="ArialMT-20" transform="scale(0.015625)"/>
       <path id="ArialMT-6e" d="M 422 0 
L 422 3319 
L 928 3319 
L 928 2847 
Q 1294 3394 1984 3394 
Q 2284 3394 2536 3286 
Q 2788 3178 2913 3003 
Q 3038 2828 3088 2588 
Q 3119 2431 3119 2041 
L 3119 0 
L 2556 0 
L 2556 2019 
Q 2556 2363 2490 2533 
Q 2425 2703 2258 2804 
Q 2091 2906 1866 2906 
Q 1506 2906 1245 2678 
Q 984 2450 984 1813 
L 984 0 
L 422 0 
z
" transform="scale(0.015625)"/>
       <path id="ArialMT-64" d="M 2575 0 
L 2575 419 
Q 2259 -75 1647 -75 
Q 1250 -75 917 144 
Q 584 363 401 755 
Q 219 1147 219 1656 
Q 219 2153 384 2558 
Q 550 2963 881 3178 
Q 1213 3394 1622 3394 
Q 1922 3394 2156 3267 
Q 2391 3141 2538 2938 
L 2538 4581 
L 3097 4581 
L 3097 0 
L 2575 0 
z
M 797 1656 
Q 797 1019 1065 703 
Q 1334 388 1700 388 
Q 2069 388 2326 689 
Q 2584 991 2584 1609 
Q 2584 2291 2321 2609 
Q 2059 2928 1675 2928 
Q 1300 2928 1048 2622 
Q 797 2316 797 1656 
z
" transform="scale(0.015625)"/>
      </defs>
      <use xlink:href="#ArialMT-5a"/>
      <use xlink:href="#ArialMT-65" x="61.083984"/>
      <use xlink:href="#ArialMT-69" x="116.699219"/>
      <use xlink:href="#ArialMT-74" x="138.916016"/>
      <use xlink:href="#ArialMT-20" x="166.699219"/>
      <use xlink:href="#ArialMT-69" x="194.482422"/>
      <use xlink:href="#ArialMT-6e" x="216.699219"/>
      <use xlink:href="#ArialMT-20" x="272.314453"/>
      <use xlink:href="#ArialMT-64" x="300.097656"/>
     </g>
    </g>
   </g>
   <g id="matplotlib.axis_2">
    <g id="ytick_1">
     <g id="line2d_4">
      <defs>
       <path id="m51d60d425b" d="M 0 0 
L -3.5 0 
" style="stroke: #000000; stroke-width: 0.8"/>
      </defs>
      <g>
       <use xlink:href="#m51d60d425b" x="58.037031" y="131.943643" style="stroke: #000000; stroke-width: 0.8"/>
      </g>
     </g>
     <g id="text_5">
      <!-- 0,0 -->
      <g transform="translate(35.747031 135.88044)scale(0.11 -0.11)">
       <defs>
        <path id="ArialMT-30" d="M 266 2259 
Q 266 3072 433 3567 
Q 600 4063 929 4331 
Q 1259 4600 1759 4600 
Q 2128 4600 2406 4451 
Q 2684 4303 2865 4023 
Q 3047 3744 3150 3342 
Q 3253 2941 3253 2259 
Q 3253 1453 3087 958 
Q 2922 463 2592 192 
Q 2263 -78 1759 -78 
Q 1097 -78 719 397 
Q 266 969 266 2259 
z
M 844 2259 
Q 844 1131 1108 757 
Q 1372 384 1759 384 
Q 2147 384 2411 759 
Q 2675 1134 2675 2259 
Q 2675 3391 2411 3762 
Q 2147 4134 1753 4134 
Q 1366 4134 1134 3806 
Q 844 3388 844 2259 
z
" transform="scale(0.015625)"/>
        <path id="ArialMT-2c" d="M 569 0 
L 569 641 
L 1209 641 
L 1209 0 
Q 1209 -353 1084 -570 
Q 959 -788 688 -906 
L 531 -666 
Q 709 -588 793 -436 
Q 878 -284 888 0 
L 569 0 
z
" transform="scale(0.015625)"/>
       </defs>
       <use xlink:href="#ArialMT-30"/>
       <use xlink:href="#ArialMT-2c" x="55.615234"/>
       <use xlink:href="#ArialMT-30" x="83.398438"/>
      </g>
     </g>
    </g>
    <g id="ytick_2">
     <g id="line2d_5">
      <g>
       <use xlink:href="#m51d60d425b" x="58.037031" y="106.660298" style="stroke: #000000; stroke-width: 0.8"/>
      </g>
     </g>
     <g id="text_6">
      <!-- 2,5 -->
      <g transform="translate(35.747031 110.597095)scale(0.11 -0.11)">
       <defs>
        <path id="ArialMT-35" d="M 266 1200 
L 856 1250 
Q 922 819 1161 601 
Q 1400 384 1738 384 
Q 2144 384 2425 690 
Q 2706 997 2706 1503 
Q 2706 1984 2436 2262 
Q 2166 2541 1728 2541 
Q 1456 2541 1237 2417 
Q 1019 2294 894 2097 
L 366 2166 
L 809 4519 
L 3088 4519 
L 3088 3981 
L 1259 3981 
L 1013 2750 
Q 1425 3038 1878 3038 
Q 2478 3038 2890 2622 
Q 3303 2206 3303 1553 
Q 3303 931 2941 478 
Q 2500 -78 1738 -78 
Q 1113 -78 717 272 
Q 322 622 266 1200 
z
" transform="scale(0.015625)"/>
       </defs>
       <use xlink:href="#ArialMT-32"/>
       <use xlink:href="#ArialMT-2c" x="55.615234"/>
       <use xlink:href="#ArialMT-35" x="83.398438"/>
      </g>
     </g>
    </g>
    <g id="ytick_3">
     <g id="line2d_6">
      <g>
       <use xlink:href="#m51d60d425b" x="58.037031" y="81.376953" style="stroke: #000000; stroke-width: 0.8"/>
      </g>
     </g>
     <g id="text_7">
      <!-- 5,0 -->
      <g transform="translate(35.747031 85.31375)scale(0.11 -0.11)">
       <use xlink:href="#ArialMT-35"/>
       <use xlink:href="#ArialMT-2c" x="55.615234"/>
       <use xlink:href="#ArialMT-30" x="83.398438"/>
      </g>
     </g>
    </g>
    <g id="ytick_4">
     <g id="line2d_7">
      <g>
       <use xlink:href="#m51d60d425b" x="58.037031" y="56.093608" style="stroke: #000000; stroke-width: 0.8"/>
      </g>
     </g>
     <g id="text_8">
      <!-- 7,5 -->
      <g transform="translate(35.747031 60.030405)scale(0.11 -0.11)">
       <use xlink:href="#ArialMT-37"/>
       <use xlink:href="#ArialMT-2c" x="55.615234"/>
       <use xlink:href="#ArialMT-35" x="83.398438"/>
      </g>
     </g>
    </g>
    <g id="ytick_5">
     <g id="line2d_8">
      <g>
       <use xlink:href="#m51d60d425b" x="58.037031" y="30.810263" style="stroke: #000000; stroke-width: 0.8"/>
      </g>
     </g>
     <g id="text_9">
      <!-- 10,0 -->
      <g transform="translate(29.63 34.74706)scale(0.11 -0.11)">
       <use xlink:href="#ArialMT-31"/>
       <use xlink:href="#ArialMT-30" x="55.615234"/>
       <use xlink:href="#ArialMT-2c" x="111.230469"/>
       <use xlink:href="#ArialMT-30" x="139.013672"/>
      </g>
     </g>
    </g>
    <g id="text_10">
     <!-- $\dot{Q}_{\mathrm{Haus}}$ in kW -->
     <g transform="translate(23.44375 110.911953)rotate(-90)scale(0.11 -0.11)">
      <defs>
       <path id="DejaVuSans-307" d="M -1894 4863 
L -1319 4863 
L -1319 4134 
L -1894 4134 
L -1894 4863 
z
M -1600 3584 
L -1600 3584 
z
" transform="scale(0.015625)"/>
       <path id="DejaVuSans-Oblique-51" d="M 2309 -84 
Q 2275 -88 2237 -89 
Q 2200 -91 2125 -91 
Q 1250 -91 756 411 
Q 263 913 263 1797 
Q 263 2319 452 2844 
Q 641 3369 978 3788 
Q 1369 4269 1858 4509 
Q 2347 4750 2938 4750 
Q 3794 4750 4287 4245 
Q 4781 3741 4781 2869 
Q 4781 1928 4265 1147 
Q 3750 366 2919 44 
L 3553 -825 
L 2847 -825 
L 2309 -84 
z
M 2919 4238 
Q 2400 4238 2003 3986 
Q 1606 3734 1313 3219 
Q 1125 2891 1026 2522 
Q 928 2153 928 1778 
Q 928 1128 1239 775 
Q 1550 422 2119 422 
Q 2631 422 3032 676 
Q 3434 931 3719 1434 
Q 3909 1772 4009 2142 
Q 4109 2513 4109 2881 
Q 4109 3528 3796 3883 
Q 3484 4238 2919 4238 
z
" transform="scale(0.015625)"/>
       <path id="DejaVuSans-48" d="M 628 4666 
L 1259 4666 
L 1259 2753 
L 3553 2753 
L 3553 4666 
L 4184 4666 
L 4184 0 
L 3553 0 
L 3553 2222 
L 1259 2222 
L 1259 0 
L 628 0 
L 628 4666 
z
" transform="scale(0.015625)"/>
       <path id="DejaVuSans-61" d="M 2194 1759 
Q 1497 1759 1228 1600 
Q 959 1441 959 1056 
Q 959 750 1161 570 
Q 1363 391 1709 391 
Q 2188 391 2477 730 
Q 2766 1069 2766 1631 
L 2766 1759 
L 2194 1759 
z
M 3341 1997 
L 3341 0 
L 2766 0 
L 2766 531 
Q 2569 213 2275 61 
Q 1981 -91 1556 -91 
Q 1019 -91 701 211 
Q 384 513 384 1019 
Q 384 1609 779 1909 
Q 1175 2209 1959 2209 
L 2766 2209 
L 2766 2266 
Q 2766 2663 2505 2880 
Q 2244 3097 1772 3097 
Q 1472 3097 1187 3025 
Q 903 2953 641 2809 
L 641 3341 
Q 956 3463 1253 3523 
Q 1550 3584 1831 3584 
Q 2591 3584 2966 3190 
Q 3341 2797 3341 1997 
z
" transform="scale(0.015625)"/>
       <path id="DejaVuSans-75" d="M 544 1381 
L 544 3500 
L 1119 3500 
L 1119 1403 
Q 1119 906 1312 657 
Q 1506 409 1894 409 
Q 2359 409 2629 706 
Q 2900 1003 2900 1516 
L 2900 3500 
L 3475 3500 
L 3475 0 
L 2900 0 
L 2900 538 
Q 2691 219 2414 64 
Q 2138 -91 1772 -91 
Q 1169 -91 856 284 
Q 544 659 544 1381 
z
M 1991 3584 
L 1991 3584 
z
" transform="scale(0.015625)"/>
       <path id="DejaVuSans-73" d="M 2834 3397 
L 2834 2853 
Q 2591 2978 2328 3040 
Q 2066 3103 1784 3103 
Q 1356 3103 1142 2972 
Q 928 2841 928 2578 
Q 928 2378 1081 2264 
Q 1234 2150 1697 2047 
L 1894 2003 
Q 2506 1872 2764 1633 
Q 3022 1394 3022 966 
Q 3022 478 2636 193 
Q 2250 -91 1575 -91 
Q 1294 -91 989 -36 
Q 684 19 347 128 
L 347 722 
Q 666 556 975 473 
Q 1284 391 1588 391 
Q 1994 391 2212 530 
Q 2431 669 2431 922 
Q 2431 1156 2273 1281 
Q 2116 1406 1581 1522 
L 1381 1569 
Q 847 1681 609 1914 
Q 372 2147 372 2553 
Q 372 3047 722 3315 
Q 1072 3584 1716 3584 
Q 2034 3584 2315 3537 
Q 2597 3491 2834 3397 
z
" transform="scale(0.015625)"/>
       <path id="ArialMT-6b" d="M 425 0 
L 425 4581 
L 988 4581 
L 988 1969 
L 2319 3319 
L 3047 3319 
L 1778 2088 
L 3175 0 
L 2481 0 
L 1384 1697 
L 988 1316 
L 988 0 
L 425 0 
z
" transform="scale(0.015625)"/>
       <path id="ArialMT-57" d="M 1294 0 
L 78 4581 
L 700 4581 
L 1397 1578 
Q 1509 1106 1591 641 
Q 1766 1375 1797 1488 
L 2669 4581 
L 3400 4581 
L 4056 2263 
Q 4303 1400 4413 641 
Q 4500 1075 4641 1638 
L 5359 4581 
L 5969 4581 
L 4713 0 
L 4128 0 
L 3163 3491 
Q 3041 3928 3019 4028 
Q 2947 3713 2884 3491 
L 1913 0 
L 1294 0 
z
" transform="scale(0.015625)"/>
      </defs>
      <use xlink:href="#DejaVuSans-307" transform="translate(74.271484 31.015625)"/>
      <use xlink:href="#DejaVuSans-Oblique-51" transform="translate(0 0.296875)"/>
      <use xlink:href="#DejaVuSans-48" transform="translate(79.667969 -16.109375)scale(0.7)"/>
      <use xlink:href="#DejaVuSans-61" transform="translate(132.304688 -16.109375)scale(0.7)"/>
      <use xlink:href="#DejaVuSans-75" transform="translate(175.200195 -16.109375)scale(0.7)"/>
      <use xlink:href="#DejaVuSans-73" transform="translate(219.56543 -16.109375)scale(0.7)"/>
      <use xlink:href="#ArialMT-20" transform="translate(258.769531 0.296875)"/>
      <use xlink:href="#ArialMT-69" transform="translate(286.552734 0.296875)"/>
      <use xlink:href="#ArialMT-6e" transform="translate(308.769531 0.296875)"/>
      <use xlink:href="#ArialMT-20" transform="translate(364.384766 0.296875)"/>
      <use xlink:href="#ArialMT-6b" transform="translate(392.167969 0.296875)"/>
      <use xlink:href="#ArialMT-57" transform="translate(442.167969 0.296875)"/>
     </g>
    </g>
   </g>
   <g id="line2d_9">
    <path d="M 73.980036 131.943643 
L 391.732968 131.943643 
L 391.732968 131.943643 
" clip-path="url(#p896ec15cba)" style="fill: none; stroke: #ec635c; stroke-width: 1.5; stroke-linecap: square"/>
   </g>
   <g id="patch_5">
    <path d="M 58.037031 137.000312 
L 58.037031 25.753594 
" style="fill: none; stroke: #000000; stroke-width: 0.5; stroke-linejoin: miter; stroke-linecap: square"/>
   </g>
   <g id="patch_6">
    <path d="M 408.783125 137.000312 
L 408.783125 25.753594 
" style="fill: none; stroke: #000000; stroke-width: 0.5; stroke-linejoin: miter; stroke-linecap: square"/>
   </g>
   <g id="patch_7">
    <path d="M 58.037031 137.000313 
L 408.783125 137.000313 
" style="fill: none; stroke: #000000; stroke-width: 0.5; stroke-linejoin: miter; stroke-linecap: square"/>
   </g>
   <g id="patch_8">
    <path d="M 58.037031 25.753594 
L 408.783125 25.753594 
" style="fill: none; stroke: #000000; stroke-width: 0.5; stroke-linejoin: miter; stroke-linecap: square"/>
   </g>
   <g id="text_11">
    <!-- Juli -->
    <g transform="translate(58.037031 19.753594)scale(0.11 -0.11)">
     <defs>
      <path id="ArialMT-4a" d="M 184 1300 
L 731 1375 
Q 753 850 928 656 
Q 1103 463 1413 463 
Q 1641 463 1806 567 
Q 1972 672 2034 851 
Q 2097 1031 2097 1425 
L 2097 4581 
L 2703 4581 
L 2703 1459 
Q 2703 884 2564 568 
Q 2425 253 2123 87 
Q 1822 -78 1416 -78 
Q 813 -78 492 269 
Q 172 616 184 1300 
z
" transform="scale(0.015625)"/>
      <path id="ArialMT-75" d="M 2597 0 
L 2597 488 
Q 2209 -75 1544 -75 
Q 1250 -75 995 37 
Q 741 150 617 320 
Q 494 491 444 738 
Q 409 903 409 1263 
L 409 3319 
L 972 3319 
L 972 1478 
Q 972 1038 1006 884 
Q 1059 663 1231 536 
Q 1403 409 1656 409 
Q 1909 409 2131 539 
Q 2353 669 2445 892 
Q 2538 1116 2538 1541 
L 2538 3319 
L 3100 3319 
L 3100 0 
L 2597 0 
z
" transform="scale(0.015625)"/>
      <path id="ArialMT-6c" d="M 409 0 
L 409 4581 
L 972 4581 
L 972 0 
L 409 0 
z
" transform="scale(0.015625)"/>
     </defs>
     <use xlink:href="#ArialMT-4a"/>
     <use xlink:href="#ArialMT-75" x="50"/>
     <use xlink:href="#ArialMT-6c" x="105.615234"/>
     <use xlink:href="#ArialMT-69" x="127.832031"/>
    </g>
   </g>
  </g>
  <g id="axes_2">
   <g id="matplotlib.axis_3">
    <g id="ytick_6">
     <g id="line2d_10">
      <defs>
       <path id="mf1380d1f27" d="M 0 0 
L 3.5 0 
" style="stroke: #000000; stroke-width: 0.8"/>
      </defs>
      <g>
       <use xlink:href="#mf1380d1f27" x="408.783125" y="131.040667" style="stroke: #000000; stroke-width: 0.8"/>
      </g>
     </g>
     <g id="text_12">
      <!-- 0 -->
      <g transform="translate(415.783125 134.977464)scale(0.11 -0.11)">
       <use xlink:href="#ArialMT-30"/>
      </g>
     </g>
    </g>
    <g id="ytick_7">
     <g id="line2d_11">
      <g>
       <use xlink:href="#mf1380d1f27" x="408.783125" y="111.175181" style="stroke: #000000; stroke-width: 0.8"/>
      </g>
     </g>
     <g id="text_13">
      <!-- 1 -->
      <g transform="translate(415.783125 115.111978)scale(0.11 -0.11)">
       <use xlink:href="#ArialMT-31"/>
      </g>
     </g>
    </g>
    <g id="ytick_8">
     <g id="line2d_12">
      <g>
       <use xlink:href="#mf1380d1f27" x="408.783125" y="91.309696" style="stroke: #000000; stroke-width: 0.8"/>
      </g>
     </g>
     <g id="text_14">
      <!-- 2 -->
      <g transform="translate(415.783125 95.246493)scale(0.11 -0.11)">
       <use xlink:href="#ArialMT-32"/>
      </g>
     </g>
    </g>
    <g id="ytick_9">
     <g id="line2d_13">
      <g>
       <use xlink:href="#mf1380d1f27" x="408.783125" y="71.44421" style="stroke: #000000; stroke-width: 0.8"/>
      </g>
     </g>
     <g id="text_15">
      <!-- 3 -->
      <g transform="translate(415.783125 75.381007)scale(0.11 -0.11)">
       <use xlink:href="#ArialMT-33"/>
      </g>
     </g>
    </g>
    <g id="ytick_10">
     <g id="line2d_14">
      <g>
       <use xlink:href="#mf1380d1f27" x="408.783125" y="51.578725" style="stroke: #000000; stroke-width: 0.8"/>
      </g>
     </g>
     <g id="text_16">
      <!-- 4 -->
      <g transform="translate(415.783125 55.515522)scale(0.11 -0.11)">
       <defs>
        <path id="ArialMT-34" d="M 2069 0 
L 2069 1097 
L 81 1097 
L 81 1613 
L 2172 4581 
L 2631 4581 
L 2631 1613 
L 3250 1613 
L 3250 1097 
L 2631 1097 
L 2631 0 
L 2069 0 
z
M 2069 1613 
L 2069 3678 
L 634 1613 
L 2069 1613 
z
" transform="scale(0.015625)"/>
       </defs>
       <use xlink:href="#ArialMT-34"/>
      </g>
     </g>
    </g>
    <g id="ytick_11">
     <g id="line2d_15">
      <g>
       <use xlink:href="#mf1380d1f27" x="408.783125" y="31.713239" style="stroke: #000000; stroke-width: 0.8"/>
      </g>
     </g>
     <g id="text_17">
      <!-- 5 -->
      <g transform="translate(415.783125 35.650036)scale(0.11 -0.11)">
       <use xlink:href="#ArialMT-35"/>
      </g>
     </g>
    </g>
    <g id="text_18">
     <!-- $P_{\mathrm{PV}}$ in kW -->
     <g transform="translate(433.77375 105.081953)rotate(-90)scale(0.11 -0.11)">
      <defs>
       <path id="DejaVuSans-Oblique-50" d="M 1081 4666 
L 2541 4666 
Q 3178 4666 3512 4369 
Q 3847 4072 3847 3500 
Q 3847 2731 3353 2303 
Q 2859 1875 1966 1875 
L 1172 1875 
L 806 0 
L 172 0 
L 1081 4666 
z
M 1613 4147 
L 1275 2394 
L 2069 2394 
Q 2606 2394 2893 2669 
Q 3181 2944 3181 3456 
Q 3181 3784 2986 3965 
Q 2791 4147 2438 4147 
L 1613 4147 
z
" transform="scale(0.015625)"/>
       <path id="DejaVuSans-50" d="M 1259 4147 
L 1259 2394 
L 2053 2394 
Q 2494 2394 2734 2622 
Q 2975 2850 2975 3272 
Q 2975 3691 2734 3919 
Q 2494 4147 2053 4147 
L 1259 4147 
z
M 628 4666 
L 2053 4666 
Q 2838 4666 3239 4311 
Q 3641 3956 3641 3272 
Q 3641 2581 3239 2228 
Q 2838 1875 2053 1875 
L 1259 1875 
L 1259 0 
L 628 0 
L 628 4666 
z
" transform="scale(0.015625)"/>
       <path id="DejaVuSans-56" d="M 1831 0 
L 50 4666 
L 709 4666 
L 2188 738 
L 3669 4666 
L 4325 4666 
L 2547 0 
L 1831 0 
z
" transform="scale(0.015625)"/>
      </defs>
      <use xlink:href="#DejaVuSans-Oblique-50" transform="translate(0 0.09375)"/>
      <use xlink:href="#DejaVuSans-50" transform="translate(60.302734 -16.3125)scale(0.7)"/>
      <use xlink:href="#DejaVuSans-56" transform="translate(102.514648 -16.3125)scale(0.7)"/>
      <use xlink:href="#ArialMT-20" transform="translate(153.134766 0.09375)"/>
      <use xlink:href="#ArialMT-69" transform="translate(180.917969 0.09375)"/>
      <use xlink:href="#ArialMT-6e" transform="translate(203.134766 0.09375)"/>
      <use xlink:href="#ArialMT-20" transform="translate(258.75 0.09375)"/>
      <use xlink:href="#ArialMT-6b" transform="translate(286.533203 0.09375)"/>
      <use xlink:href="#ArialMT-57" transform="translate(336.533203 0.09375)"/>
     </g>
    </g>
   </g>
   <g id="line2d_16">
    <path d="M 73.980036 131.040667 
L 91.694485 131.005704 
L 91.694485 129.836818 
L 92.801638 129.836818 
L 92.801638 128.667139 
L 93.908791 128.667139 
L 93.908791 127.497459 
L 95.015944 127.497459 
L 95.015944 126.327779 
L 96.123097 126.327779 
L 96.123097 124.20694 
L 97.23025 124.20694 
L 97.23025 122.086101 
L 98.337403 122.086101 
L 98.337403 119.964467 
L 99.444556 119.964467 
L 99.444556 117.843628 
L 100.551709 117.843628 
L 100.551709 112.842293 
L 101.658862 112.842293 
L 101.658862 107.841753 
L 102.766015 107.841753 
L 102.766015 102.840418 
L 103.873169 102.840418 
L 103.873169 97.839084 
L 104.980322 97.839084 
L 104.980322 92.697896 
L 106.087475 92.697896 
L 106.087475 87.555914 
L 107.194628 87.555914 
L 107.194628 82.413931 
L 108.301781 82.413931 
L 108.301781 77.271949 
L 109.408934 77.271949 
L 109.408934 73.425991 
L 110.516087 73.425991 
L 110.516087 69.580828 
L 111.62324 69.580828 
L 111.62324 65.73487 
L 112.730393 65.73487 
L 112.730393 61.888912 
L 113.837546 61.888912 
L 113.837546 60.235309 
L 114.944699 60.235309 
L 114.944699 58.581706 
L 116.051852 58.581706 
L 116.051852 56.927308 
L 117.159005 56.927308 
L 117.159005 55.273705 
L 118.266158 55.273705 
L 118.266158 54.579208 
L 119.373312 54.579208 
L 119.373312 53.883916 
L 120.480465 53.883916 
L 120.480465 53.188624 
L 121.587618 53.188624 
L 121.587618 52.494126 
L 122.694771 52.494126 
L 122.694771 53.304638 
L 123.801924 53.304638 
L 123.801924 54.11515 
L 124.909077 54.11515 
L 124.909077 54.925662 
L 126.01623 54.925662 
L 126.01623 55.736174 
L 127.123383 55.736174 
L 127.123383 54.603841 
L 128.230536 54.603841 
L 128.230536 53.471508 
L 129.337689 53.471508 
L 129.337689 52.339176 
L 130.444842 52.339176 
L 130.444842 51.206843 
L 131.551995 51.206843 
L 131.551995 53.558916 
L 132.659148 53.558916 
L 132.659148 55.910195 
L 133.766301 55.910195 
L 133.766301 58.261474 
L 134.873455 58.261474 
L 134.873455 60.613548 
L 135.980608 60.613548 
L 135.980608 63.347833 
L 137.087761 63.347833 
L 137.087761 66.082913 
L 138.194914 66.082913 
L 138.194914 68.817993 
L 139.302067 68.817993 
L 139.302067 71.552279 
L 140.40922 71.552279 
L 140.40922 72.269025 
L 141.516373 72.269025 
L 141.516373 72.984977 
L 142.623526 72.984977 
L 142.623526 73.70093 
L 143.730679 73.70093 
L 143.730679 74.417676 
L 144.837832 74.417676 
L 144.837832 77.011314 
L 145.944985 77.011314 
L 145.944985 79.604952 
L 147.052138 79.604952 
L 147.052138 82.19859 
L 148.159291 82.19859 
L 148.159291 84.792227 
L 149.266445 84.792227 
L 149.266445 89.819784 
L 150.373598 89.819784 
L 150.373598 94.848136 
L 151.480751 94.848136 
L 151.480751 99.875693 
L 152.587904 99.875693 
L 152.587904 104.90325 
L 153.695057 104.90325 
L 153.695057 109.500918 
L 154.80221 109.500918 
L 154.80221 114.099381 
L 155.909363 114.099381 
L 155.909363 118.697049 
L 157.016516 118.697049 
L 157.016516 123.294717 
L 158.123669 123.294717 
L 158.123669 125.231204 
L 159.230822 125.231204 
L 159.230822 127.167692 
L 160.337975 127.167692 
L 160.337975 129.104179 
L 161.445128 129.104179 
L 161.445128 131.040667 
L 197.98118 130.993784 
L 197.98118 130.277832 
L 199.088333 130.277832 
L 199.088333 129.56188 
L 200.195486 129.56188 
L 200.195486 128.845928 
L 201.302639 128.845928 
L 201.302639 128.129976 
L 202.409792 128.129976 
L 202.409792 125.518857 
L 203.516945 125.518857 
L 203.516945 122.907737 
L 204.624098 122.907737 
L 204.624098 120.296618 
L 205.731251 120.296618 
L 205.731251 117.686293 
L 206.838404 117.686293 
L 206.838404 112.663504 
L 207.945557 112.663504 
L 207.945557 107.640714 
L 209.052711 107.640714 
L 209.052711 102.618719 
L 210.159864 102.618719 
L 210.159864 97.59593 
L 211.267017 97.59593 
L 211.267017 92.558043 
L 212.37417 92.558043 
L 212.37417 87.52095 
L 213.481323 87.52095 
L 213.481323 82.483063 
L 214.588476 82.483063 
L 214.588476 77.445176 
L 215.695629 77.445176 
L 215.695629 73.378314 
L 216.802782 73.378314 
L 216.802782 69.310657 
L 217.909935 69.310657 
L 217.909935 65.243 
L 219.017088 65.243 
L 219.017088 61.176138 
L 220.124241 61.176138 
L 220.124241 58.380667 
L 221.231394 58.380667 
L 221.231394 55.584401 
L 222.338547 55.584401 
L 222.338547 52.78893 
L 223.4457 52.78893 
L 223.4457 49.993459 
L 224.552854 49.993459 
L 224.552854 47.692241 
L 225.660007 47.692241 
L 225.660007 45.391023 
L 226.76716 45.391023 
L 226.76716 43.089011 
L 227.874313 43.089011 
L 227.874313 40.787793 
L 228.981466 40.787793 
L 228.981466 39.535473 
L 230.088619 39.535473 
L 230.088619 38.283153 
L 231.195772 38.283153 
L 231.195772 37.030833 
L 232.302925 37.030833 
L 232.302925 35.778512 
L 233.410078 35.778512 
L 233.410078 35.615615 
L 234.517231 35.615615 
L 234.517231 35.451924 
L 235.624384 35.451924 
L 235.624384 35.289027 
L 236.731537 35.289027 
L 236.731537 35.125335 
L 237.83869 35.125335 
L 237.83869 36.277533 
L 238.945843 36.277533 
L 238.945843 37.428937 
L 240.052997 37.428937 
L 240.052997 38.581135 
L 241.16015 38.581135 
L 241.16015 39.732539 
L 242.267303 39.732539 
L 242.267303 42.087791 
L 243.374456 42.087791 
L 243.374456 44.443837 
L 244.481609 44.443837 
L 244.481609 46.799089 
L 245.588762 46.799089 
L 245.588762 49.154341 
L 246.695915 49.154341 
L 246.695915 52.620471 
L 247.803068 52.620471 
L 247.803068 56.086601 
L 248.910221 56.086601 
L 248.910221 59.553525 
L 250.017374 59.553525 
L 250.017374 63.019655 
L 251.124527 63.019655 
L 251.124527 68.026552 
L 252.23168 68.026552 
L 252.23168 73.033449 
L 253.338833 73.033449 
L 253.338833 78.040346 
L 254.445987 78.040346 
L 254.445987 83.047243 
L 255.55314 83.047243 
L 255.55314 88.535679 
L 256.660293 88.535679 
L 256.660293 94.02491 
L 257.767446 94.02491 
L 257.767446 99.514141 
L 258.874599 99.514141 
L 258.874599 105.003372 
L 259.981752 105.003372 
L 259.981752 109.67494 
L 261.088905 109.67494 
L 261.088905 114.347302 
L 262.196058 114.347302 
L 262.196058 119.01887 
L 263.303211 119.01887 
L 263.303211 123.691232 
L 264.410364 123.691232 
L 264.410364 125.528392 
L 265.517517 125.528392 
L 265.517517 127.365552 
L 266.62467 127.365552 
L 266.62467 129.203507 
L 267.731823 129.203507 
L 267.731823 131.040667 
L 304.267875 131.040667 
L 304.267875 130.328688 
L 305.375028 130.328688 
L 305.375028 129.615914 
L 306.482181 129.615914 
L 306.482181 128.903935 
L 307.589334 128.903935 
L 307.589334 128.191956 
L 308.696487 128.191956 
L 308.696487 125.591167 
L 309.80364 125.591167 
L 309.80364 122.990378 
L 310.910793 122.990378 
L 310.910793 120.389588 
L 312.017946 120.389588 
L 312.017946 117.788799 
L 313.125099 117.788799 
L 313.125099 112.753296 
L 314.232253 112.753296 
L 314.232253 107.718587 
L 315.339406 107.718587 
L 315.339406 102.683878 
L 316.446559 102.683878 
L 316.446559 97.648375 
L 317.553712 97.648375 
L 317.553712 92.530231 
L 318.660865 92.530231 
L 318.660865 87.411293 
L 319.768018 87.411293 
L 319.768018 82.293149 
L 320.875171 82.293149 
L 320.875171 77.175006 
L 321.982324 77.175006 
L 321.982324 72.795858 
L 323.089477 72.795858 
L 323.089477 68.41671 
L 324.19663 68.41671 
L 324.19663 64.037563 
L 325.303783 64.037563 
L 325.303783 59.65921 
L 326.410936 59.65921 
L 326.410936 56.304327 
L 327.518089 56.304327 
L 327.518089 52.949443 
L 328.625242 52.949443 
L 328.625242 49.595355 
L 329.732396 49.595355 
L 329.732396 46.240472 
L 330.839549 46.240472 
L 330.839549 44.08308 
L 331.946702 44.08308 
L 331.946702 41.924894 
L 333.053855 41.924894 
L 333.053855 39.767502 
L 334.161008 39.767502 
L 334.161008 37.609315 
L 335.268161 37.609315 
L 335.268161 36.30455 
L 336.375314 36.30455 
L 336.375314 35.00058 
L 337.482467 35.00058 
L 337.482467 33.695815 
L 338.58962 33.695815 
L 338.58962 32.39105 
L 339.696773 32.39105 
L 339.696773 32.702541 
L 340.803926 32.702541 
L 340.803926 33.014826 
L 341.911079 33.014826 
L 341.911079 33.326317 
L 343.018232 33.326317 
L 343.018232 33.637808 
L 344.125385 33.637808 
L 344.125385 34.777292 
L 345.232539 34.777292 
L 345.232539 35.916776 
L 346.339692 35.916776 
L 346.339692 37.057055 
L 347.446845 37.057055 
L 347.446845 38.196539 
L 348.553998 38.196539 
L 348.553998 40.349958 
L 349.661151 40.349958 
L 349.661151 42.503376 
L 350.768304 42.503376 
L 350.768304 44.656795 
L 351.875457 44.656795 
L 351.875457 46.810214 
L 352.98261 46.810214 
L 352.98261 50.517113 
L 354.089763 50.517113 
L 354.089763 54.224808 
L 355.196916 54.224808 
L 355.196916 57.931707 
L 356.304069 57.931707 
L 356.304069 61.639401 
L 357.411222 61.639401 
L 357.411222 66.400761 
L 358.518375 66.400761 
L 358.518375 71.16212 
L 359.625529 71.16212 
L 359.625529 75.92348 
L 360.732682 75.92348 
L 360.732682 80.68484 
L 361.839835 80.68484 
L 361.839835 86.204266 
L 362.946988 86.204266 
L 362.946988 91.723693 
L 364.054141 91.723693 
L 364.054141 97.243914 
L 365.161294 97.243914 
L 365.161294 102.76334 
L 366.268447 102.76334 
L 366.268447 107.832217 
L 367.3756 107.832217 
L 367.3756 112.901095 
L 368.482753 112.901095 
L 368.482753 117.969972 
L 369.589906 117.969972 
L 369.589906 123.039644 
L 370.697059 123.039644 
L 370.697059 125.039701 
L 371.804212 125.039701 
L 371.804212 127.039758 
L 372.911365 127.039758 
L 372.911365 129.04061 
L 374.018518 129.04061 
L 374.018518 131.040667 
L 391.732968 131.040667 
L 391.732968 131.040667 
" clip-path="url(#p896ec15cba)" style="fill: none; stroke-dasharray: 5.55,2.4; stroke-dashoffset: 0; stroke: #4b81c4; stroke-width: 1.5"/>
   </g>
   <g id="patch_9">
    <path d="M 58.037031 137.000312 
L 58.037031 25.753594 
" style="fill: none; stroke: #000000; stroke-width: 0.5; stroke-linejoin: miter; stroke-linecap: square"/>
   </g>
   <g id="patch_10">
    <path d="M 408.783125 137.000312 
L 408.783125 25.753594 
" style="fill: none; stroke: #000000; stroke-width: 0.5; stroke-linejoin: miter; stroke-linecap: square"/>
   </g>
   <g id="patch_11">
    <path d="M 58.037031 137.000313 
L 408.783125 137.000313 
" style="fill: none; stroke: #000000; stroke-width: 0.5; stroke-linejoin: miter; stroke-linecap: square"/>
   </g>
   <g id="patch_12">
    <path d="M 58.037031 25.753594 
L 408.783125 25.753594 
" style="fill: none; stroke: #000000; stroke-width: 0.5; stroke-linejoin: miter; stroke-linecap: square"/>
   </g>
  </g>
  <g id="legend_1">
   <g id="line2d_17">
    <path d="M 308.80301 15.588554 
L 317.96601 15.588554 
L 327.12901 15.588554 
" style="fill: none; stroke: #ec635c; stroke-width: 1.5; stroke-linecap: square"/>
   </g>
   <g id="text_19">
    <!-- $\dot{Q}_{\mathrm{Haus}}$ -->
    <g transform="translate(334.45941 18.795604)scale(0.09163 -0.09163)">
     <use xlink:href="#DejaVuSans-307" transform="translate(74.271484 31.015625)"/>
     <use xlink:href="#DejaVuSans-Oblique-51" transform="translate(0 0.296875)"/>
     <use xlink:href="#DejaVuSans-48" transform="translate(79.667969 -16.109375)scale(0.7)"/>
     <use xlink:href="#DejaVuSans-61" transform="translate(132.304688 -16.109375)scale(0.7)"/>
     <use xlink:href="#DejaVuSans-75" transform="translate(175.200195 -16.109375)scale(0.7)"/>
     <use xlink:href="#DejaVuSans-73" transform="translate(219.56543 -16.109375)scale(0.7)"/>
    </g>
   </g>
   <g id="line2d_18">
    <path d="M 376.51758 15.588554 
L 376.51758 15.588554 
L 385.68058 15.588554 
L 385.68058 15.588554 
L 394.84358 15.588554 
" style="fill: none; stroke-dasharray: 5.55,2.4; stroke-dashoffset: 0; stroke: #4b81c4; stroke-width: 1.5"/>
   </g>
   <g id="text_20">
    <!-- $P_{\mathrm{PV}}$ -->
    <g transform="translate(402.17398 18.795604)scale(0.09163 -0.09163)">
     <use xlink:href="#DejaVuSans-Oblique-50" transform="translate(0 0.09375)"/>
     <use xlink:href="#DejaVuSans-50" transform="translate(60.302734 -16.3125)scale(0.7)"/>
     <use xlink:href="#DejaVuSans-56" transform="translate(102.514648 -16.3125)scale(0.7)"/>
    </g>
   </g>
  </g>
 </g>
 <defs>
  <clipPath id="p896ec15cba">
   <rect x="58.037031" y="25.753594" width="350.746094" height="111.246719"/>
  </clipPath>
 </defs>
</svg>
