<?xml version="1.0" encoding="utf-8" standalone="no"?>
<!DOCTYPE svg PUBLIC "-//W3C//DTD SVG 1.1//EN"
  "http://www.w3.org/Graphics/SVG/1.1/DTD/svg11.dtd">
<svg xmlns:xlink="http://www.w3.org/1999/xlink" width="447.84pt" height="180pt" viewBox="0 0 447.84 180" xmlns="http://www.w3.org/2000/svg" version="1.1">
 <metadata>
  <rdf:RDF xmlns:dc="http://purl.org/dc/elements/1.1/" xmlns:cc="http://creativecommons.org/ns#" xmlns:rdf="http://www.w3.org/1999/02/22-rdf-syntax-ns#">
   <cc:Work>
    <dc:type rdf:resource="http://purl.org/dc/dcmitype/StillImage"/>
    <dc:date>2023-05-14T14:05:41.919698</dc:date>
    <dc:format>image/svg+xml</dc:format>
    <dc:creator>
     <cc:Agent>
      <dc:title>Matplotlib v3.5.3, https://matplotlib.org/</dc:title>
     </cc:Agent>
    </dc:creator>
   </cc:Work>
  </rdf:RDF>
 </metadata>
 <defs>
  <style type="text/css">*{stroke-linejoin: round; stroke-linecap: butt}</style>
 </defs>
 <g id="figure_1">
  <g id="patch_1">
   <path d="M 0 180 
L 447.84 180 
L 447.84 0 
L 0 0 
z
" style="fill: #ffffff"/>
  </g>
  <g id="axes_1">
   <g id="patch_2">
    <path d="M 50.5175 73.216335 
L 407.315312 73.216335 
L 407.315312 27.975938 
L 50.5175 27.975938 
z
" style="fill: #ffffff"/>
   </g>
   <g id="matplotlib.axis_1">
    <g id="xtick_1">
     <g id="line2d_1">
      <defs>
       <path id="mc71cd45d21" d="M 0 0 
L 0 3.5 
" style="stroke: #000000; stroke-width: 0.8"/>
      </defs>
      <g>
       <use xlink:href="#mc71cd45d21" x="66.735582" y="73.216335" style="stroke: #000000; stroke-width: 0.8"/>
      </g>
     </g>
    </g>
    <g id="xtick_2">
     <g id="line2d_2">
      <g>
       <use xlink:href="#mc71cd45d21" x="135.022245" y="73.216335" style="stroke: #000000; stroke-width: 0.8"/>
      </g>
     </g>
    </g>
    <g id="xtick_3">
     <g id="line2d_3">
      <g>
       <use xlink:href="#mc71cd45d21" x="203.308908" y="73.216335" style="stroke: #000000; stroke-width: 0.8"/>
      </g>
     </g>
    </g>
    <g id="xtick_4">
     <g id="line2d_4">
      <g>
       <use xlink:href="#mc71cd45d21" x="271.59557" y="73.216335" style="stroke: #000000; stroke-width: 0.8"/>
      </g>
     </g>
    </g>
    <g id="xtick_5">
     <g id="line2d_5">
      <g>
       <use xlink:href="#mc71cd45d21" x="339.882233" y="73.216335" style="stroke: #000000; stroke-width: 0.8"/>
      </g>
     </g>
    </g>
   </g>
   <g id="matplotlib.axis_2">
    <g id="ytick_1">
     <g id="line2d_6">
      <defs>
       <path id="mf7f2d1cf38" d="M 0 0 
L -3.5 0 
" style="stroke: #000000; stroke-width: 0.8"/>
      </defs>
      <g>
       <use xlink:href="#mf7f2d1cf38" x="50.5175" y="71.159954" style="stroke: #000000; stroke-width: 0.8"/>
      </g>
     </g>
     <g id="text_1">
      <!-- 0 -->
      <g transform="translate(36.51875 75.339094)scale(0.11 -0.11)">
       <defs>
        <path id="DejaVuSerif-30" d="M 2034 219 
Q 2513 219 2750 744 
Q 2988 1269 2988 2328 
Q 2988 3391 2750 3916 
Q 2513 4441 2034 4441 
Q 1556 4441 1318 3916 
Q 1081 3391 1081 2328 
Q 1081 1269 1318 744 
Q 1556 219 2034 219 
z
M 2034 -91 
Q 1275 -91 848 546 
Q 422 1184 422 2328 
Q 422 3475 848 4112 
Q 1275 4750 2034 4750 
Q 2797 4750 3222 4112 
Q 3647 3475 3647 2328 
Q 3647 1184 3222 546 
Q 2797 -91 2034 -91 
z
" transform="scale(0.015625)"/>
       </defs>
       <use xlink:href="#DejaVuSerif-30"/>
      </g>
     </g>
    </g>
    <g id="ytick_2">
     <g id="line2d_7">
      <g>
       <use xlink:href="#mf7f2d1cf38" x="50.5175" y="50.596136" style="stroke: #000000; stroke-width: 0.8"/>
      </g>
     </g>
     <g id="text_2">
      <!-- 5 -->
      <g transform="translate(36.51875 54.775277)scale(0.11 -0.11)">
       <defs>
        <path id="DejaVuSerif-35" d="M 3219 4666 
L 3219 4153 
L 1081 4153 
L 1081 2816 
Q 1244 2928 1461 2984 
Q 1678 3041 1947 3041 
Q 2703 3041 3140 2622 
Q 3578 2203 3578 1478 
Q 3578 738 3136 323 
Q 2694 -91 1894 -91 
Q 1572 -91 1234 -12 
Q 897 66 544 225 
L 544 1131 
L 897 1131 
Q 925 688 1179 453 
Q 1434 219 1894 219 
Q 2388 219 2653 544 
Q 2919 869 2919 1478 
Q 2919 2084 2655 2407 
Q 2391 2731 1894 2731 
Q 1613 2731 1398 2631 
Q 1184 2531 1019 2322 
L 750 2322 
L 750 4666 
L 3219 4666 
z
" transform="scale(0.015625)"/>
       </defs>
       <use xlink:href="#DejaVuSerif-35"/>
      </g>
     </g>
    </g>
    <g id="ytick_3">
     <g id="line2d_8">
      <g>
       <use xlink:href="#mf7f2d1cf38" x="50.5175" y="30.032319" style="stroke: #000000; stroke-width: 0.8"/>
      </g>
     </g>
     <g id="text_3">
      <!-- 10 -->
      <g transform="translate(29.52 34.21146)scale(0.11 -0.11)">
       <defs>
        <path id="DejaVuSerif-31" d="M 909 0 
L 909 331 
L 1722 331 
L 1722 4213 
L 781 3603 
L 781 4013 
L 1919 4750 
L 2350 4750 
L 2350 331 
L 3163 331 
L 3163 0 
L 909 0 
z
" transform="scale(0.015625)"/>
       </defs>
       <use xlink:href="#DejaVuSerif-31"/>
       <use xlink:href="#DejaVuSerif-30" x="63.623047"/>
      </g>
     </g>
    </g>
    <g id="text_4">
     <!-- $\dot{Q}_{\mathrm{WP}}}$ in kW -->
     <g transform="translate(23.232344 79.086136)rotate(-90)scale(0.11 -0.11)">
      <defs>
       <path id="DejaVuSans-307" d="M -1894 4863 
L -1319 4863 
L -1319 4134 
L -1894 4134 
L -1894 4863 
z
M -1600 3584 
L -1600 3584 
z
" transform="scale(0.015625)"/>
       <path id="DejaVuSans-Oblique-51" d="M 2309 -84 
Q 2275 -88 2237 -89 
Q 2200 -91 2125 -91 
Q 1250 -91 756 411 
Q 263 913 263 1797 
Q 263 2319 452 2844 
Q 641 3369 978 3788 
Q 1369 4269 1858 4509 
Q 2347 4750 2938 4750 
Q 3794 4750 4287 4245 
Q 4781 3741 4781 2869 
Q 4781 1928 4265 1147 
Q 3750 366 2919 44 
L 3553 -825 
L 2847 -825 
L 2309 -84 
z
M 2919 4238 
Q 2400 4238 2003 3986 
Q 1606 3734 1313 3219 
Q 1125 2891 1026 2522 
Q 928 2153 928 1778 
Q 928 1128 1239 775 
Q 1550 422 2119 422 
Q 2631 422 3032 676 
Q 3434 931 3719 1434 
Q 3909 1772 4009 2142 
Q 4109 2513 4109 2881 
Q 4109 3528 3796 3883 
Q 3484 4238 2919 4238 
z
" transform="scale(0.015625)"/>
       <path id="DejaVuSans-57" d="M 213 4666 
L 850 4666 
L 1831 722 
L 2809 4666 
L 3519 4666 
L 4500 722 
L 5478 4666 
L 6119 4666 
L 4947 0 
L 4153 0 
L 3169 4050 
L 2175 0 
L 1381 0 
L 213 4666 
z
" transform="scale(0.015625)"/>
       <path id="DejaVuSans-50" d="M 1259 4147 
L 1259 2394 
L 2053 2394 
Q 2494 2394 2734 2622 
Q 2975 2850 2975 3272 
Q 2975 3691 2734 3919 
Q 2494 4147 2053 4147 
L 1259 4147 
z
M 628 4666 
L 2053 4666 
Q 2838 4666 3239 4311 
Q 3641 3956 3641 3272 
Q 3641 2581 3239 2228 
Q 2838 1875 2053 1875 
L 1259 1875 
L 1259 0 
L 628 0 
L 628 4666 
z
" transform="scale(0.015625)"/>
       <path id="DejaVuSerif-20" transform="scale(0.015625)"/>
       <path id="DejaVuSerif-69" d="M 622 4353 
Q 622 4497 726 4603 
Q 831 4709 978 4709 
Q 1122 4709 1226 4603 
Q 1331 4497 1331 4353 
Q 1331 4206 1228 4103 
Q 1125 4000 978 4000 
Q 831 4000 726 4103 
Q 622 4206 622 4353 
z
M 1356 331 
L 1900 331 
L 1900 0 
L 231 0 
L 231 331 
L 781 331 
L 781 2988 
L 231 2988 
L 231 3322 
L 1356 3322 
L 1356 331 
z
" transform="scale(0.015625)"/>
       <path id="DejaVuSerif-6e" d="M 263 0 
L 263 331 
L 781 331 
L 781 2988 
L 231 2988 
L 231 3322 
L 1356 3322 
L 1356 2731 
Q 1516 3069 1770 3241 
Q 2025 3413 2363 3413 
Q 2913 3413 3172 3097 
Q 3431 2781 3431 2113 
L 3431 331 
L 3944 331 
L 3944 0 
L 2356 0 
L 2356 331 
L 2853 331 
L 2853 1931 
Q 2853 2541 2703 2767 
Q 2553 2994 2175 2994 
Q 1775 2994 1565 2701 
Q 1356 2409 1356 1850 
L 1356 331 
L 1856 331 
L 1856 0 
L 263 0 
z
" transform="scale(0.015625)"/>
       <path id="DejaVuSerif-6b" d="M 1831 0 
L 219 0 
L 219 331 
L 738 331 
L 738 4531 
L 184 4531 
L 184 4863 
L 1313 4863 
L 1313 1697 
L 2713 2988 
L 2234 2988 
L 2234 3322 
L 3738 3322 
L 3738 2988 
L 3169 2988 
L 2181 2075 
L 3444 331 
L 3922 331 
L 3922 0 
L 2284 0 
L 2284 331 
L 2759 331 
L 1766 1697 
L 1313 1275 
L 1313 331 
L 1831 331 
L 1831 0 
z
" transform="scale(0.015625)"/>
       <path id="DejaVuSerif-57" d="M 4878 0 
L 4366 0 
L 3297 3794 
L 2228 0 
L 1716 0 
L 494 4331 
L 31 4331 
L 31 4666 
L 1734 4666 
L 1734 4331 
L 1153 4331 
L 2125 884 
L 3188 4666 
L 3694 4666 
L 4775 844 
L 5753 4331 
L 5216 4331 
L 5216 4666 
L 6559 4666 
L 6559 4331 
L 6100 4331 
L 4878 0 
z
" transform="scale(0.015625)"/>
      </defs>
      <use xlink:href="#DejaVuSans-307" transform="translate(74.271484 31.015625)"/>
      <use xlink:href="#DejaVuSans-Oblique-51" transform="translate(0 0.296875)"/>
      <use xlink:href="#DejaVuSans-57" transform="translate(79.667969 -16.109375)scale(0.7)"/>
      <use xlink:href="#DejaVuSans-50" transform="translate(148.881836 -16.109375)scale(0.7)"/>
      <use xlink:href="#DejaVuSerif-20" transform="translate(193.828125 0.296875)"/>
      <use xlink:href="#DejaVuSerif-69" transform="translate(225.615234 0.296875)"/>
      <use xlink:href="#DejaVuSerif-6e" transform="translate(257.597656 0.296875)"/>
      <use xlink:href="#DejaVuSerif-20" transform="translate(322.001953 0.296875)"/>
      <use xlink:href="#DejaVuSerif-6b" transform="translate(353.789062 0.296875)"/>
      <use xlink:href="#DejaVuSerif-57" transform="translate(414.384766 0.296875)"/>
     </g>
    </g>
   </g>
   <g id="line2d_9">
    <path d="M 66.735582 60.878045 
L 70.149916 71.159954 
L 73.564249 59.807081 
L 76.978582 60.878045 
L 80.392915 71.159954 
L 83.807248 59.535639 
L 87.221581 60.878045 
L 90.635914 71.159954 
L 94.050247 59.387579 
L 97.464581 59.930464 
L 100.878914 71.159954 
L 104.293247 59.379354 
L 107.70758 59.851499 
L 111.121913 71.159954 
L 114.536246 60.878045 
L 117.950579 60.878045 
L 121.364913 57.576318 
L 124.779246 71.159954 
L 128.193579 59.504382 
L 131.607912 57.571383 
L 135.022245 71.159954 
L 138.436578 59.751148 
L 141.850911 59.563606 
L 145.265244 71.159954 
L 148.679578 59.751148 
L 152.093911 71.159954 
L 155.508244 60.407545 
L 158.922577 53.833704 
L 162.33691 60.613183 
L 165.751243 71.159954 
L 169.165576 71.159954 
L 172.57991 60.006139 
L 175.994243 71.159954 
L 179.408576 71.159954 
L 182.822909 60.878045 
L 186.237242 71.159954 
L 189.651575 60.073588 
L 193.065908 50.946544 
L 196.480241 47.524725 
L 199.894575 60.228228 
L 203.308908 71.159954 
L 206.723241 71.159954 
L 210.137574 60.841853 
L 213.551907 71.159954 
L 216.96624 71.159954 
L 220.380573 71.159954 
L 223.794907 71.159954 
L 227.20924 71.159954 
L 230.623573 71.159954 
L 234.037906 71.159954 
L 237.452239 71.159954 
L 240.866572 71.159954 
L 244.280905 71.159954 
L 247.695238 60.075234 
L 251.109572 71.159954 
L 254.523905 71.159954 
L 257.938238 71.159954 
L 261.352571 71.159954 
L 264.766904 71.159954 
L 268.181237 47.995225 
L 271.59557 49.574526 
L 275.009904 71.159954 
L 278.424237 60.878045 
L 281.83857 59.667247 
L 285.252903 55.829217 
L 288.667236 60.354901 
L 292.081569 58.553511 
L 295.495902 71.159954 
L 298.910235 71.159954 
L 302.324569 60.878045 
L 305.738902 71.159954 
L 309.153235 71.159954 
L 312.567568 71.159954 
L 315.981901 71.159954 
L 319.396234 71.159954 
L 322.810567 71.159954 
L 326.224901 40.014819 
L 329.639234 71.159954 
L 333.053567 71.159954 
L 336.4679 71.159954 
L 339.882233 71.159954 
L 343.296566 71.159954 
L 346.710899 71.159954 
L 350.125233 71.159954 
L 353.539566 71.159954 
L 356.953899 71.159954 
L 360.368232 59.372774 
L 363.782565 71.159954 
L 367.196898 60.874755 
L 370.611231 60.878045 
L 374.025564 71.159954 
L 377.439898 71.159954 
L 380.854231 60.878045 
L 384.268564 71.159954 
L 387.682897 60.878045 
L 391.09723 60.25784 
" clip-path="url(#p601cabc792)" style="fill: none; stroke: #ec635c; stroke-width: 1.5; stroke-linecap: square"/>
   </g>
   <g id="patch_3">
    <path d="M 50.5175 73.216335 
L 50.5175 27.975938 
" style="fill: none; stroke: #000000; stroke-width: 0.5; stroke-linejoin: miter; stroke-linecap: square"/>
   </g>
   <g id="patch_4">
    <path d="M 407.315312 73.216335 
L 407.315312 27.975938 
" style="fill: none; stroke: #000000; stroke-width: 0.5; stroke-linejoin: miter; stroke-linecap: square"/>
   </g>
   <g id="patch_5">
    <path d="M 50.5175 73.216335 
L 407.315313 73.216335 
" style="fill: none; stroke: #000000; stroke-width: 0.5; stroke-linejoin: miter; stroke-linecap: square"/>
   </g>
   <g id="patch_6">
    <path d="M 50.5175 27.975938 
L 407.315313 27.975938 
" style="fill: none; stroke: #000000; stroke-width: 0.5; stroke-linejoin: miter; stroke-linecap: square"/>
   </g>
   <g id="text_5">
    <!-- Übergangstag 1 -->
    <g transform="translate(50.5175 21.975938)scale(0.11 -0.11)">
     <defs>
      <path id="DejaVuSerif-dc" d="M 897 4331 
L 300 4331 
L 300 4666 
L 2125 4666 
L 2125 4331 
L 1528 4331 
L 1528 1919 
Q 1528 1025 1820 672 
Q 2113 319 2828 319 
Q 3544 319 3836 672 
Q 4128 1025 4128 1919 
L 4128 4331 
L 3531 4331 
L 3531 4666 
L 5106 4666 
L 5106 4331 
L 4513 4331 
L 4513 1856 
Q 4513 791 4103 350 
Q 3694 -91 2713 -91 
Q 1731 -91 1314 353 
Q 897 797 897 1856 
L 897 4331 
z
M 2215 5874 
Q 2365 5874 2472 5764 
Q 2580 5655 2580 5511 
Q 2580 5355 2475 5250 
Q 2371 5146 2215 5146 
Q 2062 5146 1957 5250 
Q 1852 5355 1852 5511 
Q 1852 5655 1960 5764 
Q 2068 5874 2215 5874 
z
M 3433 5874 
Q 3580 5874 3688 5764 
Q 3796 5655 3796 5511 
Q 3796 5355 3691 5250 
Q 3587 5146 3433 5146 
Q 3277 5146 3172 5250 
Q 3068 5355 3068 5511 
Q 3068 5655 3175 5764 
Q 3283 5874 3433 5874 
z
" transform="scale(0.015625)"/>
      <path id="DejaVuSerif-62" d="M 738 331 
L 738 4531 
L 184 4531 
L 184 4863 
L 1313 4863 
L 1313 2803 
Q 1481 3116 1742 3264 
Q 2003 3413 2388 3413 
Q 3000 3413 3387 2928 
Q 3775 2444 3775 1663 
Q 3775 881 3387 395 
Q 3000 -91 2388 -91 
Q 2003 -91 1742 57 
Q 1481 206 1313 519 
L 1313 0 
L 184 0 
L 184 331 
L 738 331 
z
M 1313 1497 
Q 1313 897 1542 583 
Q 1772 269 2209 269 
Q 2650 269 2876 622 
Q 3103 975 3103 1663 
Q 3103 2353 2876 2703 
Q 2650 3053 2209 3053 
Q 1772 3053 1542 2737 
Q 1313 2422 1313 1825 
L 1313 1497 
z
" transform="scale(0.015625)"/>
      <path id="DejaVuSerif-65" d="M 3469 1600 
L 991 1600 
L 991 1575 
Q 991 903 1244 561 
Q 1497 219 1991 219 
Q 2369 219 2611 417 
Q 2853 616 2950 1006 
L 3413 1006 
Q 3275 459 2904 184 
Q 2534 -91 1931 -91 
Q 1203 -91 761 389 
Q 319 869 319 1663 
Q 319 2450 753 2931 
Q 1188 3413 1894 3413 
Q 2647 3413 3050 2948 
Q 3453 2484 3469 1600 
z
M 2791 1931 
Q 2772 2513 2545 2808 
Q 2319 3103 1894 3103 
Q 1497 3103 1269 2806 
Q 1041 2509 991 1931 
L 2791 1931 
z
" transform="scale(0.015625)"/>
      <path id="DejaVuSerif-72" d="M 3059 3328 
L 3059 2497 
L 2728 2497 
Q 2713 2744 2591 2866 
Q 2469 2988 2234 2988 
Q 1809 2988 1582 2694 
Q 1356 2400 1356 1850 
L 1356 331 
L 2022 331 
L 2022 0 
L 263 0 
L 263 331 
L 781 331 
L 781 2994 
L 231 2994 
L 231 3322 
L 1356 3322 
L 1356 2731 
Q 1525 3078 1790 3245 
Q 2056 3413 2438 3413 
Q 2578 3413 2733 3391 
Q 2888 3369 3059 3328 
z
" transform="scale(0.015625)"/>
      <path id="DejaVuSerif-67" d="M 3359 2988 
L 3359 72 
Q 3359 -644 2965 -1033 
Q 2572 -1422 1844 -1422 
Q 1516 -1422 1216 -1362 
Q 916 -1303 641 -1184 
L 641 -488 
L 941 -488 
Q 997 -813 1206 -963 
Q 1416 -1113 1806 -1113 
Q 2313 -1113 2548 -827 
Q 2784 -541 2784 72 
L 2784 519 
Q 2616 206 2355 57 
Q 2094 -91 1709 -91 
Q 1097 -91 708 395 
Q 319 881 319 1663 
Q 319 2444 706 2928 
Q 1094 3413 1709 3413 
Q 2094 3413 2355 3264 
Q 2616 3116 2784 2803 
L 2784 3322 
L 3909 3322 
L 3909 2988 
L 3359 2988 
z
M 2784 1825 
Q 2784 2422 2554 2737 
Q 2325 3053 1888 3053 
Q 1444 3053 1217 2703 
Q 991 2353 991 1663 
Q 991 975 1217 622 
Q 1444 269 1888 269 
Q 2325 269 2554 583 
Q 2784 897 2784 1497 
L 2784 1825 
z
" transform="scale(0.015625)"/>
      <path id="DejaVuSerif-61" d="M 2547 1044 
L 2547 1747 
L 1806 1747 
Q 1378 1747 1168 1562 
Q 959 1378 959 997 
Q 959 650 1171 447 
Q 1384 244 1747 244 
Q 2106 244 2326 466 
Q 2547 688 2547 1044 
z
M 3122 2075 
L 3122 331 
L 3634 331 
L 3634 0 
L 2547 0 
L 2547 359 
Q 2356 128 2106 18 
Q 1856 -91 1522 -91 
Q 969 -91 644 203 
Q 319 497 319 997 
Q 319 1513 691 1797 
Q 1063 2081 1741 2081 
L 2547 2081 
L 2547 2309 
Q 2547 2688 2317 2895 
Q 2088 3103 1672 3103 
Q 1328 3103 1125 2947 
Q 922 2791 872 2484 
L 575 2484 
L 575 3156 
Q 875 3284 1158 3348 
Q 1441 3413 1709 3413 
Q 2400 3413 2761 3070 
Q 3122 2728 3122 2075 
z
" transform="scale(0.015625)"/>
      <path id="DejaVuSerif-73" d="M 359 184 
L 359 959 
L 691 959 
Q 703 588 923 403 
Q 1144 219 1575 219 
Q 1963 219 2166 364 
Q 2369 509 2369 788 
Q 2369 1006 2220 1140 
Q 2072 1275 1594 1428 
L 1178 1569 
Q 750 1706 558 1912 
Q 366 2119 366 2438 
Q 366 2894 700 3153 
Q 1034 3413 1625 3413 
Q 1888 3413 2178 3344 
Q 2469 3275 2778 3144 
L 2778 2419 
L 2447 2419 
Q 2434 2741 2221 2922 
Q 2009 3103 1644 3103 
Q 1281 3103 1095 2975 
Q 909 2847 909 2591 
Q 909 2381 1050 2254 
Q 1191 2128 1613 1997 
L 2069 1856 
Q 2541 1709 2748 1489 
Q 2956 1269 2956 922 
Q 2956 450 2595 179 
Q 2234 -91 1600 -91 
Q 1278 -91 972 -22 
Q 666 47 359 184 
z
" transform="scale(0.015625)"/>
      <path id="DejaVuSerif-74" d="M 691 2988 
L 184 2988 
L 184 3322 
L 691 3322 
L 691 4353 
L 1269 4353 
L 1269 3322 
L 2350 3322 
L 2350 2988 
L 1269 2988 
L 1269 878 
Q 1269 456 1350 337 
Q 1431 219 1650 219 
Q 1875 219 1978 351 
Q 2081 484 2088 781 
L 2522 781 
Q 2497 328 2275 118 
Q 2053 -91 1600 -91 
Q 1103 -91 897 129 
Q 691 350 691 878 
L 691 2988 
z
" transform="scale(0.015625)"/>
     </defs>
     <use xlink:href="#DejaVuSerif-dc"/>
     <use xlink:href="#DejaVuSerif-62" x="84.277344"/>
     <use xlink:href="#DejaVuSerif-65" x="148.291016"/>
     <use xlink:href="#DejaVuSerif-72" x="207.470703"/>
     <use xlink:href="#DejaVuSerif-67" x="255.273438"/>
     <use xlink:href="#DejaVuSerif-61" x="319.287109"/>
     <use xlink:href="#DejaVuSerif-6e" x="378.90625"/>
     <use xlink:href="#DejaVuSerif-67" x="443.310547"/>
     <use xlink:href="#DejaVuSerif-73" x="507.324219"/>
     <use xlink:href="#DejaVuSerif-74" x="558.642578"/>
     <use xlink:href="#DejaVuSerif-61" x="598.828125"/>
     <use xlink:href="#DejaVuSerif-67" x="658.447266"/>
     <use xlink:href="#DejaVuSerif-20" x="722.460938"/>
     <use xlink:href="#DejaVuSerif-31" x="754.248047"/>
    </g>
   </g>
  </g>
  <g id="axes_2">
   <g id="patch_7">
    <path d="M 50.5175 135.828125 
L 407.315312 135.828125 
L 407.315312 90.587727 
L 50.5175 90.587727 
z
" style="fill: #ffffff"/>
   </g>
   <g id="matplotlib.axis_3">
    <g id="xtick_6">
     <g id="line2d_10">
      <g>
       <use xlink:href="#mc71cd45d21" x="66.735582" y="135.828125" style="stroke: #000000; stroke-width: 0.8"/>
      </g>
     </g>
     <g id="text_6">
      <!-- 0 -->
      <g transform="translate(63.236207 151.186406)scale(0.11 -0.11)">
       <use xlink:href="#DejaVuSerif-30"/>
      </g>
     </g>
    </g>
    <g id="xtick_7">
     <g id="line2d_11">
      <g>
       <use xlink:href="#mc71cd45d21" x="135.022245" y="135.828125" style="stroke: #000000; stroke-width: 0.8"/>
      </g>
     </g>
     <g id="text_7">
      <!-- 5 -->
      <g transform="translate(131.52287 151.186406)scale(0.11 -0.11)">
       <use xlink:href="#DejaVuSerif-35"/>
      </g>
     </g>
    </g>
    <g id="xtick_8">
     <g id="line2d_12">
      <g>
       <use xlink:href="#mc71cd45d21" x="203.308908" y="135.828125" style="stroke: #000000; stroke-width: 0.8"/>
      </g>
     </g>
     <g id="text_8">
      <!-- 10 -->
      <g transform="translate(196.310158 151.186406)scale(0.11 -0.11)">
       <use xlink:href="#DejaVuSerif-31"/>
       <use xlink:href="#DejaVuSerif-30" x="63.623047"/>
      </g>
     </g>
    </g>
    <g id="xtick_9">
     <g id="line2d_13">
      <g>
       <use xlink:href="#mc71cd45d21" x="271.59557" y="135.828125" style="stroke: #000000; stroke-width: 0.8"/>
      </g>
     </g>
     <g id="text_9">
      <!-- 15 -->
      <g transform="translate(264.59682 151.186406)scale(0.11 -0.11)">
       <use xlink:href="#DejaVuSerif-31"/>
       <use xlink:href="#DejaVuSerif-35" x="63.623047"/>
      </g>
     </g>
    </g>
    <g id="xtick_10">
     <g id="line2d_14">
      <g>
       <use xlink:href="#mc71cd45d21" x="339.882233" y="135.828125" style="stroke: #000000; stroke-width: 0.8"/>
      </g>
     </g>
     <g id="text_10">
      <!-- 20 -->
      <g transform="translate(332.883483 151.186406)scale(0.11 -0.11)">
       <defs>
        <path id="DejaVuSerif-32" d="M 819 3553 
L 469 3553 
L 469 4384 
Q 803 4563 1142 4656 
Q 1481 4750 1806 4750 
Q 2534 4750 2956 4397 
Q 3378 4044 3378 3438 
Q 3378 2753 2422 1800 
Q 2347 1728 2309 1691 
L 1131 513 
L 3078 513 
L 3078 1088 
L 3444 1088 
L 3444 0 
L 434 0 
L 434 341 
L 1850 1753 
Q 2319 2222 2519 2614 
Q 2719 3006 2719 3438 
Q 2719 3909 2473 4175 
Q 2228 4441 1797 4441 
Q 1350 4441 1106 4219 
Q 863 3997 819 3553 
z
" transform="scale(0.015625)"/>
       </defs>
       <use xlink:href="#DejaVuSerif-32"/>
       <use xlink:href="#DejaVuSerif-30" x="63.623047"/>
      </g>
     </g>
    </g>
    <g id="text_11">
     <!-- Zeit in h -->
     <g transform="translate(205.530234 165.832344)scale(0.11 -0.11)">
      <defs>
       <path id="DejaVuSerif-5a" d="M 288 0 
L 288 225 
L 3194 4281 
L 781 4281 
L 781 3584 
L 397 3584 
L 397 4666 
L 4084 4666 
L 4084 4441 
L 1178 384 
L 3816 384 
L 3816 1038 
L 4197 1038 
L 4197 0 
L 288 0 
z
" transform="scale(0.015625)"/>
       <path id="DejaVuSerif-68" d="M 263 0 
L 263 331 
L 781 331 
L 781 4531 
L 231 4531 
L 231 4863 
L 1356 4863 
L 1356 2731 
Q 1516 3069 1770 3241 
Q 2025 3413 2363 3413 
Q 2913 3413 3172 3097 
Q 3431 2781 3431 2113 
L 3431 331 
L 3944 331 
L 3944 0 
L 2356 0 
L 2356 331 
L 2853 331 
L 2853 1931 
Q 2853 2541 2704 2764 
Q 2556 2988 2175 2988 
Q 1775 2988 1565 2697 
Q 1356 2406 1356 1850 
L 1356 331 
L 1856 331 
L 1856 0 
L 263 0 
z
" transform="scale(0.015625)"/>
      </defs>
      <use xlink:href="#DejaVuSerif-5a"/>
      <use xlink:href="#DejaVuSerif-65" x="69.482422"/>
      <use xlink:href="#DejaVuSerif-69" x="128.662109"/>
      <use xlink:href="#DejaVuSerif-74" x="160.644531"/>
      <use xlink:href="#DejaVuSerif-20" x="200.830078"/>
      <use xlink:href="#DejaVuSerif-69" x="232.617188"/>
      <use xlink:href="#DejaVuSerif-6e" x="264.599609"/>
      <use xlink:href="#DejaVuSerif-20" x="329.003906"/>
      <use xlink:href="#DejaVuSerif-68" x="360.791016"/>
     </g>
    </g>
   </g>
   <g id="matplotlib.axis_4">
    <g id="ytick_4">
     <g id="line2d_15">
      <g>
       <use xlink:href="#mf7f2d1cf38" x="50.5175" y="133.360467" style="stroke: #000000; stroke-width: 0.8"/>
      </g>
     </g>
     <g id="text_12">
      <!-- 20 -->
      <g transform="translate(29.52 137.539608)scale(0.11 -0.11)">
       <use xlink:href="#DejaVuSerif-32"/>
       <use xlink:href="#DejaVuSerif-30" x="63.623047"/>
      </g>
     </g>
    </g>
    <g id="ytick_5">
     <g id="line2d_16">
      <g>
       <use xlink:href="#mf7f2d1cf38" x="50.5175" y="112.79665" style="stroke: #000000; stroke-width: 0.8"/>
      </g>
     </g>
     <g id="text_13">
      <!-- 45 -->
      <g transform="translate(29.52 116.97579)scale(0.11 -0.11)">
       <defs>
        <path id="DejaVuSerif-34" d="M 2234 1581 
L 2234 4063 
L 641 1581 
L 2234 1581 
z
M 3609 0 
L 1484 0 
L 1484 331 
L 2234 331 
L 2234 1247 
L 197 1247 
L 197 1588 
L 2241 4750 
L 2859 4750 
L 2859 1581 
L 3750 1581 
L 3750 1247 
L 2859 1247 
L 2859 331 
L 3609 331 
L 3609 0 
z
" transform="scale(0.015625)"/>
       </defs>
       <use xlink:href="#DejaVuSerif-34"/>
       <use xlink:href="#DejaVuSerif-35" x="63.623047"/>
      </g>
     </g>
    </g>
    <g id="ytick_6">
     <g id="line2d_17">
      <g>
       <use xlink:href="#mf7f2d1cf38" x="50.5175" y="92.232833" style="stroke: #000000; stroke-width: 0.8"/>
      </g>
     </g>
     <g id="text_14">
      <!-- 70 -->
      <g transform="translate(29.52 96.411973)scale(0.11 -0.11)">
       <defs>
        <path id="DejaVuSerif-37" d="M 3609 4347 
L 1784 0 
L 1319 0 
L 3059 4153 
L 903 4153 
L 903 3578 
L 538 3578 
L 538 4666 
L 3609 4666 
L 3609 4347 
z
" transform="scale(0.015625)"/>
       </defs>
       <use xlink:href="#DejaVuSerif-37"/>
       <use xlink:href="#DejaVuSerif-30" x="63.623047"/>
      </g>
     </g>
    </g>
    <g id="text_15">
     <!-- $T$ in °C -->
     <g transform="translate(23.232344 132.347926)rotate(-90)scale(0.11 -0.11)">
      <defs>
       <path id="DejaVuSans-Oblique-54" d="M 378 4666 
L 4325 4666 
L 4225 4134 
L 2559 4134 
L 1759 0 
L 1125 0 
L 1925 4134 
L 275 4134 
L 378 4666 
z
" transform="scale(0.015625)"/>
       <path id="DejaVuSerif-b0" d="M 1600 4319 
Q 1363 4319 1200 4155 
Q 1038 3991 1038 3750 
Q 1038 3513 1198 3353 
Q 1359 3194 1600 3194 
Q 1838 3194 2000 3355 
Q 2163 3516 2163 3750 
Q 2163 3984 1997 4151 
Q 1831 4319 1600 4319 
z
M 1600 4750 
Q 1800 4750 1984 4673 
Q 2169 4597 2303 4453 
Q 2447 4313 2519 4134 
Q 2591 3956 2591 3750 
Q 2591 3338 2302 3052 
Q 2013 2766 1594 2766 
Q 1172 2766 890 3047 
Q 609 3328 609 3750 
Q 609 4169 896 4459 
Q 1184 4750 1600 4750 
z
" transform="scale(0.015625)"/>
       <path id="DejaVuSerif-43" d="M 4513 1234 
Q 4306 581 3820 245 
Q 3334 -91 2591 -91 
Q 2134 -91 1743 65 
Q 1353 222 1050 525 
Q 700 875 529 1320 
Q 359 1766 359 2328 
Q 359 3416 987 4083 
Q 1616 4750 2644 4750 
Q 3025 4750 3456 4650 
Q 3888 4550 4384 4347 
L 4384 3272 
L 4031 3272 
Q 3916 3859 3567 4137 
Q 3219 4416 2591 4416 
Q 1844 4416 1459 3886 
Q 1075 3356 1075 2328 
Q 1075 1303 1459 773 
Q 1844 244 2591 244 
Q 3113 244 3450 492 
Q 3788 741 3938 1234 
L 4513 1234 
z
" transform="scale(0.015625)"/>
      </defs>
      <use xlink:href="#DejaVuSans-Oblique-54" transform="translate(0 0.78125)"/>
      <use xlink:href="#DejaVuSerif-20" transform="translate(61.083984 0.78125)"/>
      <use xlink:href="#DejaVuSerif-69" transform="translate(92.871094 0.78125)"/>
      <use xlink:href="#DejaVuSerif-6e" transform="translate(124.853516 0.78125)"/>
      <use xlink:href="#DejaVuSerif-20" transform="translate(189.257812 0.78125)"/>
      <use xlink:href="#DejaVuSerif-b0" transform="translate(221.044922 0.78125)"/>
      <use xlink:href="#DejaVuSerif-43" transform="translate(271.044922 0.78125)"/>
     </g>
    </g>
   </g>
   <g id="line2d_18">
    <path d="M 66.735582 116.909413 
L 70.149916 120.257203 
L 73.564249 117.592132 
L 76.978582 115.626231 
L 80.392915 119.623837 
L 83.807248 116.991668 
L 87.221581 115.22318 
L 90.635914 119.418199 
L 94.050247 116.909413 
L 97.464581 114.803678 
L 100.878914 119.212561 
L 104.293247 116.909413 
L 107.70758 114.968189 
L 111.121913 119.294816 
L 114.536246 118.060987 
L 117.950579 116.909413 
L 121.364913 113.948224 
L 124.779246 118.784833 
L 128.193579 116.909413 
L 131.607912 113.948224 
L 135.022245 118.784833 
L 138.436578 116.909413 
L 141.850911 114.803678 
L 145.265244 119.212561 
L 148.679578 116.909413 
L 152.093911 120.257203 
L 155.508244 117.526328 
L 158.922577 120.561547 
L 162.33691 117.139728 
L 165.751243 119.500454 
L 169.165576 121.54861 
L 172.57991 116.909413 
L 175.994243 118.406459 
L 179.408576 119.681416 
L 182.822909 120.742509 
L 186.237242 121.589738 
L 189.651575 122.214878 
L 193.065908 122.790665 
L 196.480241 123.18549 
L 199.894575 117.402945 
L 203.308908 117.863574 
L 206.723241 118.332429 
L 210.137574 118.793059 
L 213.551907 119.253688 
L 216.96624 119.714318 
L 220.380573 120.158496 
L 223.794907 120.594449 
L 227.20924 121.022177 
L 230.623573 121.433453 
L 234.037906 121.828278 
L 237.452239 122.206653 
L 240.866572 122.576801 
L 244.280905 122.922273 
L 247.695238 116.909413 
L 251.109572 117.279562 
L 254.523905 117.625034 
L 257.938238 117.954055 
L 261.352571 118.274851 
L 264.766904 118.587421 
L 268.181237 118.875314 
L 271.59557 119.163208 
L 275.009904 119.43465 
L 278.424237 113.824841 
L 281.83857 107.556989 
L 285.252903 99.142275 
L 288.667236 99.586454 
L 292.081569 92.833296 
L 295.495902 93.35973 
L 298.910235 93.91084 
L 302.324569 94.61001 
L 305.738902 95.47369 
L 309.153235 96.501881 
L 312.567568 97.686357 
L 315.981901 98.98599 
L 319.396234 100.409006 
L 322.810567 101.955405 
L 326.224901 103.616962 
L 329.639234 105.262067 
L 333.053567 106.882496 
L 336.4679 108.494699 
L 339.882233 110.082226 
L 343.296566 111.669753 
L 346.710899 113.240828 
L 350.125233 114.811904 
L 353.539566 116.366528 
L 356.953899 117.94583 
L 360.368232 119.541582 
L 363.782565 121.162011 
L 367.196898 116.909413 
L 370.611231 118.628548 
L 374.025564 120.397037 
L 377.439898 121.992789 
L 380.854231 117.94583 
L 384.268564 119.82125 
L 387.682897 121.680219 
L 391.09723 117.279562 
" clip-path="url(#pf2ae3a62d9)" style="fill: none; stroke-dasharray: 1.5,2.475; stroke-dashoffset: 0; stroke: #f49961; stroke-width: 1.5"/>
   </g>
   <g id="line2d_19">
    <path d="M 66.735582 106.940075 
L 70.149916 107.014104 
L 73.564249 107.079909 
L 76.978582 107.145713 
L 80.392915 107.211517 
L 83.807248 107.277321 
L 87.221581 107.343125 
L 90.635914 107.40893 
L 94.050247 107.474734 
L 97.464581 107.540538 
L 100.878914 107.606342 
L 104.293247 107.672147 
L 107.70758 107.737951 
L 111.121913 107.803755 
L 114.536246 107.869559 
L 117.950579 107.935363 
L 121.364913 107.976491 
L 124.779246 108.042295 
L 128.193579 108.108099 
L 131.607912 108.173904 
L 135.022245 108.239708 
L 138.436578 108.297287 
L 141.850911 108.363091 
L 145.265244 108.428895 
L 148.679578 108.494699 
L 152.093911 108.560503 
L 155.508244 108.618082 
L 158.922577 107.556989 
L 162.33691 107.992942 
L 165.751243 108.428895 
L 169.165576 108.494699 
L 172.57991 108.560503 
L 175.994243 108.601631 
L 179.408576 108.667435 
L 182.822909 106.512347 
L 186.237242 106.578151 
L 189.651575 104.250327 
L 193.065908 100.334977 
L 196.480241 108.116325 
L 199.894575 108.560503 
L 203.308908 108.618082 
L 206.723241 108.683886 
L 210.137574 106.520573 
L 213.551907 106.964751 
L 216.96624 107.030555 
L 220.380573 107.09636 
L 223.794907 107.162164 
L 227.20924 107.227968 
L 230.623573 107.524087 
L 234.037906 107.589891 
L 237.452239 107.655696 
L 240.866572 108.091648 
L 244.280905 108.157453 
L 247.695238 108.223257 
L 251.109572 108.280836 
L 254.523905 108.34664 
L 257.938238 108.412444 
L 261.352571 108.478248 
L 264.766904 108.544052 
L 268.181237 103.600511 
L 271.59557 99.018892 
L 275.009904 99.101148 
L 278.424237 99.191628 
L 281.83857 99.273884 
L 285.252903 99.331462 
L 288.667236 97.085893 
L 292.081569 97.176374 
L 295.495902 97.266855 
L 298.910235 97.357336 
L 302.324569 96.345596 
L 305.738902 96.814451 
L 309.153235 97.275081 
L 312.567568 97.365561 
L 315.981901 97.456042 
L 319.396234 97.916672 
L 322.810567 98.007152 
L 326.224901 96.345596 
L 329.639234 96.814451 
L 333.053567 96.904932 
L 336.4679 97.365561 
L 339.882233 97.678131 
L 343.296566 98.138761 
L 346.710899 98.229242 
L 350.125233 98.689871 
L 353.539566 98.772126 
L 356.953899 98.862607 
L 360.368232 96.773323 
L 363.782565 96.863804 
L 367.196898 97.332659 
L 370.611231 108.009393 
L 374.025564 108.066972 
L 377.439898 108.132776 
L 380.854231 108.568729 
L 384.268564 108.634533 
L 387.682897 106.479445 
L 391.09723 106.923624 
" clip-path="url(#pf2ae3a62d9)" style="fill: none; stroke-dasharray: 9.6,2.4,1.5,2.4; stroke-dashoffset: 0; stroke: #8768b4; stroke-width: 1.5"/>
   </g>
   <g id="patch_8">
    <path d="M 50.5175 135.828125 
L 50.5175 90.587727 
" style="fill: none; stroke: #000000; stroke-width: 0.5; stroke-linejoin: miter; stroke-linecap: square"/>
   </g>
   <g id="patch_9">
    <path d="M 407.315312 135.828125 
L 407.315312 90.587727 
" style="fill: none; stroke: #000000; stroke-width: 0.5; stroke-linejoin: miter; stroke-linecap: square"/>
   </g>
   <g id="patch_10">
    <path d="M 50.5175 135.828125 
L 407.315313 135.828125 
" style="fill: none; stroke: #000000; stroke-width: 0.5; stroke-linejoin: miter; stroke-linecap: square"/>
   </g>
   <g id="patch_11">
    <path d="M 50.5175 90.587727 
L 407.315313 90.587727 
" style="fill: none; stroke: #000000; stroke-width: 0.5; stroke-linejoin: miter; stroke-linecap: square"/>
   </g>
  </g>
  <g id="axes_3">
   <g id="matplotlib.axis_5">
    <g id="ytick_7">
     <g id="line2d_20">
      <defs>
       <path id="m537ab4899f" d="M 0 0 
L 3.5 0 
" style="stroke: #000000; stroke-width: 0.8"/>
      </defs>
      <g>
       <use xlink:href="#m537ab4899f" x="407.315312" y="71.159954" style="stroke: #000000; stroke-width: 0.8"/>
      </g>
     </g>
     <g id="text_16">
      <!-- 0 -->
      <g transform="translate(414.315312 75.339094)scale(0.11 -0.11)">
       <use xlink:href="#DejaVuSerif-30"/>
      </g>
     </g>
    </g>
    <g id="ytick_8">
     <g id="line2d_21">
      <g>
       <use xlink:href="#m537ab4899f" x="407.315312" y="57.450742" style="stroke: #000000; stroke-width: 0.8"/>
      </g>
     </g>
     <g id="text_17">
      <!-- 1 -->
      <g transform="translate(414.315312 61.629883)scale(0.11 -0.11)">
       <use xlink:href="#DejaVuSerif-31"/>
      </g>
     </g>
    </g>
    <g id="ytick_9">
     <g id="line2d_22">
      <g>
       <use xlink:href="#m537ab4899f" x="407.315312" y="43.741531" style="stroke: #000000; stroke-width: 0.8"/>
      </g>
     </g>
     <g id="text_18">
      <!-- 2 -->
      <g transform="translate(414.315312 47.920671)scale(0.11 -0.11)">
       <use xlink:href="#DejaVuSerif-32"/>
      </g>
     </g>
    </g>
    <g id="ytick_10">
     <g id="line2d_23">
      <g>
       <use xlink:href="#m537ab4899f" x="407.315312" y="30.032319" style="stroke: #000000; stroke-width: 0.8"/>
      </g>
     </g>
     <g id="text_19">
      <!-- 3 -->
      <g transform="translate(414.315312 34.21146)scale(0.11 -0.11)">
       <defs>
        <path id="DejaVuSerif-33" d="M 622 4469 
Q 988 4606 1323 4678 
Q 1659 4750 1953 4750 
Q 2638 4750 3022 4454 
Q 3406 4159 3406 3634 
Q 3406 3213 3140 2930 
Q 2875 2647 2388 2547 
Q 2963 2466 3280 2130 
Q 3597 1794 3597 1259 
Q 3597 606 3158 257 
Q 2719 -91 1894 -91 
Q 1528 -91 1179 -12 
Q 831 66 488 225 
L 488 1131 
L 838 1131 
Q 869 681 1141 450 
Q 1413 219 1906 219 
Q 2384 219 2661 495 
Q 2938 772 2938 1253 
Q 2938 1803 2653 2086 
Q 2369 2369 1819 2369 
L 1522 2369 
L 1522 2688 
L 1678 2688 
Q 2225 2688 2498 2914 
Q 2772 3141 2772 3597 
Q 2772 4006 2547 4223 
Q 2322 4441 1900 4441 
Q 1478 4441 1245 4241 
Q 1013 4041 972 3647 
L 622 3647 
L 622 4469 
z
" transform="scale(0.015625)"/>
       </defs>
       <use xlink:href="#DejaVuSerif-33"/>
      </g>
     </g>
    </g>
    <g id="text_20">
     <!-- Modus -->
     <g transform="translate(433.672344 69.424183)rotate(-90)scale(0.11 -0.11)">
      <defs>
       <path id="DejaVuSerif-4d" d="M 353 0 
L 353 331 
L 947 331 
L 947 4331 
L 319 4331 
L 319 4666 
L 1678 4666 
L 3316 1344 
L 4953 4666 
L 6228 4666 
L 6228 4331 
L 5606 4331 
L 5606 331 
L 6203 331 
L 6203 0 
L 4378 0 
L 4378 331 
L 4972 331 
L 4972 3938 
L 3372 684 
L 2931 684 
L 1331 3938 
L 1331 331 
L 1925 331 
L 1925 0 
L 353 0 
z
" transform="scale(0.015625)"/>
       <path id="DejaVuSerif-6f" d="M 1925 219 
Q 2388 219 2623 584 
Q 2859 950 2859 1663 
Q 2859 2375 2623 2739 
Q 2388 3103 1925 3103 
Q 1463 3103 1227 2739 
Q 991 2375 991 1663 
Q 991 950 1228 584 
Q 1466 219 1925 219 
z
M 1925 -91 
Q 1200 -91 759 389 
Q 319 869 319 1663 
Q 319 2456 758 2934 
Q 1197 3413 1925 3413 
Q 2653 3413 3092 2934 
Q 3531 2456 3531 1663 
Q 3531 869 3092 389 
Q 2653 -91 1925 -91 
z
" transform="scale(0.015625)"/>
       <path id="DejaVuSerif-64" d="M 3359 331 
L 3909 331 
L 3909 0 
L 2784 0 
L 2784 519 
Q 2616 206 2355 57 
Q 2094 -91 1709 -91 
Q 1097 -91 708 395 
Q 319 881 319 1663 
Q 319 2444 706 2928 
Q 1094 3413 1709 3413 
Q 2094 3413 2355 3264 
Q 2616 3116 2784 2803 
L 2784 4531 
L 2241 4531 
L 2241 4863 
L 3359 4863 
L 3359 331 
z
M 2784 1497 
L 2784 1825 
Q 2784 2422 2554 2737 
Q 2325 3053 1888 3053 
Q 1444 3053 1217 2703 
Q 991 2353 991 1663 
Q 991 975 1217 622 
Q 1444 269 1888 269 
Q 2325 269 2554 583 
Q 2784 897 2784 1497 
z
" transform="scale(0.015625)"/>
       <path id="DejaVuSerif-75" d="M 2266 3322 
L 3341 3322 
L 3341 331 
L 3884 331 
L 3884 0 
L 2766 0 
L 2766 588 
Q 2606 256 2353 82 
Q 2100 -91 1766 -91 
Q 1213 -91 952 223 
Q 691 538 691 1209 
L 691 2988 
L 172 2988 
L 172 3322 
L 1269 3322 
L 1269 1388 
Q 1269 781 1417 556 
Q 1566 331 1947 331 
Q 2347 331 2556 625 
Q 2766 919 2766 1478 
L 2766 2988 
L 2266 2988 
L 2266 3322 
z
" transform="scale(0.015625)"/>
      </defs>
      <use xlink:href="#DejaVuSerif-4d"/>
      <use xlink:href="#DejaVuSerif-6f" x="102.392578"/>
      <use xlink:href="#DejaVuSerif-64" x="162.597656"/>
      <use xlink:href="#DejaVuSerif-75" x="226.611328"/>
      <use xlink:href="#DejaVuSerif-73" x="291.015625"/>
     </g>
    </g>
   </g>
   <g id="line2d_24">
    <path d="M 66.735582 57.450742 
L 66.735582 71.159954 
L 70.149916 71.159954 
L 70.149916 57.450742 
L 73.564249 57.450742 
L 73.564249 43.741531 
L 76.978582 43.741531 
L 76.978582 71.159954 
L 80.392915 71.159954 
L 80.392915 57.450742 
L 83.807248 57.450742 
L 83.807248 43.741531 
L 87.221581 43.741531 
L 87.221581 71.159954 
L 90.635914 71.159954 
L 90.635914 57.450742 
L 94.050247 57.450742 
L 94.050247 43.741531 
L 97.464581 43.741531 
L 97.464581 71.159954 
L 100.878914 71.159954 
L 100.878914 57.450742 
L 104.293247 57.450742 
L 104.293247 43.741531 
L 107.70758 43.741531 
L 107.70758 71.159954 
L 111.121913 71.159954 
L 111.121913 57.450742 
L 117.950579 57.450742 
L 117.950579 43.741531 
L 121.364913 43.741531 
L 121.364913 71.159954 
L 124.779246 71.159954 
L 124.779246 57.450742 
L 128.193579 57.450742 
L 128.193579 43.741531 
L 131.607912 43.741531 
L 131.607912 71.159954 
L 135.022245 71.159954 
L 135.022245 57.450742 
L 138.436578 57.450742 
L 138.436578 43.741531 
L 141.850911 43.741531 
L 141.850911 71.159954 
L 145.265244 71.159954 
L 145.265244 57.450742 
L 148.679578 57.450742 
L 148.679578 71.159954 
L 152.093911 71.159954 
L 152.093911 57.450742 
L 155.508244 57.450742 
L 155.508244 30.032319 
L 158.922577 30.032319 
L 158.922577 57.450742 
L 162.33691 57.450742 
L 162.33691 71.159954 
L 169.165576 71.159954 
L 169.165576 57.450742 
L 172.57991 57.450742 
L 172.57991 71.159954 
L 179.408576 71.159954 
L 179.408576 30.032319 
L 182.822909 30.032319 
L 182.822909 71.159954 
L 186.237242 71.159954 
L 186.237242 30.032319 
L 196.480241 30.032319 
L 196.480241 57.450742 
L 199.894575 57.450742 
L 199.894575 71.159954 
L 206.723241 71.159954 
L 206.723241 30.032319 
L 210.137574 30.032319 
L 210.137574 71.159954 
L 244.280905 71.159954 
L 244.280905 57.450742 
L 247.695238 57.450742 
L 247.695238 71.159954 
L 264.766904 71.159954 
L 264.766904 30.032319 
L 271.59557 30.032319 
L 271.59557 71.159954 
L 275.009904 71.159954 
L 275.009904 43.741531 
L 285.252903 43.741531 
L 285.252903 30.032319 
L 288.667236 30.032319 
L 288.667236 43.741531 
L 292.081569 43.741531 
L 292.081569 71.159954 
L 298.910235 71.159954 
L 298.910235 30.032319 
L 302.324569 30.032319 
L 302.324569 71.159954 
L 322.810567 71.159954 
L 322.810567 30.032319 
L 326.224901 30.032319 
L 326.224901 71.159954 
L 356.953899 71.159954 
L 356.953899 30.032319 
L 360.368232 30.032319 
L 360.368232 71.159954 
L 363.782565 71.159954 
L 363.782565 57.450742 
L 367.196898 57.450742 
L 367.196898 30.032319 
L 370.611231 30.032319 
L 370.611231 71.159954 
L 377.439898 71.159954 
L 377.439898 57.450742 
L 380.854231 57.450742 
L 380.854231 71.159954 
L 384.268564 71.159954 
L 384.268564 30.032319 
L 387.682897 30.032319 
L 387.682897 57.450742 
L 391.09723 57.450742 
L 391.09723 57.450742 
" clip-path="url(#p601cabc792)" style="fill: none; stroke-dasharray: 5.55,2.4; stroke-dashoffset: 0; stroke: #4b81c4; stroke-width: 1.5"/>
   </g>
   <g id="patch_12">
    <path d="M 50.5175 73.216335 
L 50.5175 27.975938 
" style="fill: none; stroke: #000000; stroke-width: 0.5; stroke-linejoin: miter; stroke-linecap: square"/>
   </g>
   <g id="patch_13">
    <path d="M 407.315312 73.216335 
L 407.315312 27.975938 
" style="fill: none; stroke: #000000; stroke-width: 0.5; stroke-linejoin: miter; stroke-linecap: square"/>
   </g>
   <g id="patch_14">
    <path d="M 50.5175 73.216335 
L 407.315313 73.216335 
" style="fill: none; stroke: #000000; stroke-width: 0.5; stroke-linejoin: miter; stroke-linecap: square"/>
   </g>
   <g id="patch_15">
    <path d="M 50.5175 27.975938 
L 407.315313 27.975938 
" style="fill: none; stroke: #000000; stroke-width: 0.5; stroke-linejoin: miter; stroke-linecap: square"/>
   </g>
  </g>
  <g id="legend_1">
   <g id="line2d_25">
    <path d="M 173.160544 15.412452 
L 182.323544 15.412452 
L 191.486544 15.412452 
" style="fill: none; stroke: #ec635c; stroke-width: 1.5; stroke-linecap: square"/>
   </g>
   <g id="text_21">
    <!-- $\dot{Q}_{\mathrm{WP}}}$ -->
    <g transform="translate(198.816944 18.619502)scale(0.09163 -0.09163)">
     <use xlink:href="#DejaVuSans-307" transform="translate(74.271484 31.015625)"/>
     <use xlink:href="#DejaVuSans-Oblique-51" transform="translate(0 0.296875)"/>
     <use xlink:href="#DejaVuSans-57" transform="translate(79.667969 -16.109375)scale(0.7)"/>
     <use xlink:href="#DejaVuSans-50" transform="translate(148.881836 -16.109375)scale(0.7)"/>
    </g>
   </g>
   <g id="line2d_26">
    <path d="M 234.919164 15.412452 
L 244.082164 15.412452 
L 253.245164 15.412452 
" style="fill: none; stroke-dasharray: 1.5,2.475; stroke-dashoffset: 0; stroke: #f49961; stroke-width: 1.5"/>
   </g>
   <g id="text_22">
    <!-- $T_{\mathrm{PS}}$ -->
    <g transform="translate(260.575564 18.619502)scale(0.09163 -0.09163)">
     <defs>
      <path id="DejaVuSans-53" d="M 3425 4513 
L 3425 3897 
Q 3066 4069 2747 4153 
Q 2428 4238 2131 4238 
Q 1616 4238 1336 4038 
Q 1056 3838 1056 3469 
Q 1056 3159 1242 3001 
Q 1428 2844 1947 2747 
L 2328 2669 
Q 3034 2534 3370 2195 
Q 3706 1856 3706 1288 
Q 3706 609 3251 259 
Q 2797 -91 1919 -91 
Q 1588 -91 1214 -16 
Q 841 59 441 206 
L 441 856 
Q 825 641 1194 531 
Q 1563 422 1919 422 
Q 2459 422 2753 634 
Q 3047 847 3047 1241 
Q 3047 1584 2836 1778 
Q 2625 1972 2144 2069 
L 1759 2144 
Q 1053 2284 737 2584 
Q 422 2884 422 3419 
Q 422 4038 858 4394 
Q 1294 4750 2059 4750 
Q 2388 4750 2728 4690 
Q 3069 4631 3425 4513 
z
" transform="scale(0.015625)"/>
     </defs>
     <use xlink:href="#DejaVuSans-Oblique-54" transform="translate(0 0.09375)"/>
     <use xlink:href="#DejaVuSans-50" transform="translate(61.083984 -16.3125)scale(0.7)"/>
     <use xlink:href="#DejaVuSans-53" transform="translate(103.295898 -16.3125)scale(0.7)"/>
    </g>
   </g>
   <g id="line2d_27">
    <path d="M 292.737694 15.412452 
L 301.900694 15.412452 
L 311.063694 15.412452 
" style="fill: none; stroke-dasharray: 9.6,2.4,1.5,2.4; stroke-dashoffset: 0; stroke: #8768b4; stroke-width: 1.5"/>
   </g>
   <g id="text_23">
    <!-- $T_{\mathrm{TWW}}$ -->
    <g transform="translate(318.394094 18.619502)scale(0.09163 -0.09163)">
     <defs>
      <path id="DejaVuSans-54" d="M -19 4666 
L 3928 4666 
L 3928 4134 
L 2272 4134 
L 2272 0 
L 1638 0 
L 1638 4134 
L -19 4134 
L -19 4666 
z
" transform="scale(0.015625)"/>
     </defs>
     <use xlink:href="#DejaVuSans-Oblique-54" transform="translate(0 0.09375)"/>
     <use xlink:href="#DejaVuSans-54" transform="translate(61.083984 -16.3125)scale(0.7)"/>
     <use xlink:href="#DejaVuSans-57" transform="translate(103.842773 -16.3125)scale(0.7)"/>
     <use xlink:href="#DejaVuSans-57" transform="translate(173.056641 -16.3125)scale(0.7)"/>
    </g>
   </g>
   <g id="line2d_28">
    <path d="M 359.261074 15.412452 
L 359.261074 15.412452 
L 368.424074 15.412452 
L 368.424074 15.412452 
L 377.587074 15.412452 
" style="fill: none; stroke-dasharray: 5.55,2.4; stroke-dashoffset: 0; stroke: #4b81c4; stroke-width: 1.5"/>
   </g>
   <g id="text_24">
    <!-- Modus -->
    <g transform="translate(384.917474 18.619502)scale(0.09163 -0.09163)">
     <use xlink:href="#DejaVuSerif-4d"/>
     <use xlink:href="#DejaVuSerif-6f" x="102.392578"/>
     <use xlink:href="#DejaVuSerif-64" x="162.597656"/>
     <use xlink:href="#DejaVuSerif-75" x="226.611328"/>
     <use xlink:href="#DejaVuSerif-73" x="291.015625"/>
    </g>
   </g>
  </g>
 </g>
 <defs>
  <clipPath id="p601cabc792">
   <rect x="50.5175" y="27.975938" width="356.797812" height="45.240398"/>
  </clipPath>
  <clipPath id="pf2ae3a62d9">
   <rect x="50.5175" y="90.587727" width="356.797812" height="45.240398"/>
  </clipPath>
 </defs>
</svg>
