<?xml version="1.0" encoding="utf-8" standalone="no"?>
<!DOCTYPE svg PUBLIC "-//W3C//DTD SVG 1.1//EN"
  "http://www.w3.org/Graphics/SVG/1.1/DTD/svg11.dtd">
<svg xmlns:xlink="http://www.w3.org/1999/xlink" width="447.84pt" height="180pt" viewBox="0 0 447.84 180" xmlns="http://www.w3.org/2000/svg" version="1.1">
 <metadata>
  <rdf:RDF xmlns:dc="http://purl.org/dc/elements/1.1/" xmlns:cc="http://creativecommons.org/ns#" xmlns:rdf="http://www.w3.org/1999/02/22-rdf-syntax-ns#">
   <cc:Work>
    <dc:type rdf:resource="http://purl.org/dc/dcmitype/StillImage"/>
    <dc:date>2023-05-30T20:21:59.681815</dc:date>
    <dc:format>image/svg+xml</dc:format>
    <dc:creator>
     <cc:Agent>
      <dc:title>Matplotlib v3.5.3, https://matplotlib.org/</dc:title>
     </cc:Agent>
    </dc:creator>
   </cc:Work>
  </rdf:RDF>
 </metadata>
 <defs>
  <style type="text/css">*{stroke-linejoin: round; stroke-linecap: butt}</style>
 </defs>
 <g id="figure_1">
  <g id="patch_1">
   <path d="M 0 180 
L 447.84 180 
L 447.84 0 
L 0 0 
z
" style="fill: #ffffff"/>
  </g>
  <g id="axes_1">
   <g id="patch_2">
    <path d="M 58.037031 137.000313 
L 408.783125 137.000313 
L 408.783125 25.753594 
L 58.037031 25.753594 
z
" style="fill: #ffffff"/>
   </g>
   <g id="patch_3">
    <path d="M 73.980036 137.000313 
L 73.980036 25.753594 
L 180.266731 25.753594 
L 180.266731 137.000313 
z
" clip-path="url(#pe002ac5360)" style="fill: #808080; opacity: 0.2; stroke: #808080; stroke-width: 1.5; stroke-linejoin: miter"/>
   </g>
   <g id="patch_4">
    <path d="M 286.553426 137.000313 
L 286.553426 25.753594 
L 392.840121 25.753594 
L 392.840121 137.000313 
z
" clip-path="url(#pe002ac5360)" style="fill: #808080; opacity: 0.2; stroke: #808080; stroke-width: 1.5; stroke-linejoin: miter"/>
   </g>
   <g id="matplotlib.axis_1">
    <g id="xtick_1">
     <g id="line2d_1">
      <defs>
       <path id="m67e273449d" d="M 0 0 
L 0 3.5 
" style="stroke: #000000; stroke-width: 0.8"/>
      </defs>
      <g>
       <use xlink:href="#m67e273449d" x="127.123383" y="137.000313" style="stroke: #000000; stroke-width: 0.8"/>
      </g>
     </g>
     <g id="text_1">
      <!-- 1.10 -->
      <g transform="translate(116.419867 151.873906)scale(0.11 -0.11)">
       <defs>
        <path id="ArialMT-31" d="M 2384 0 
L 1822 0 
L 1822 3584 
Q 1619 3391 1289 3197 
Q 959 3003 697 2906 
L 697 3450 
Q 1169 3672 1522 3987 
Q 1875 4303 2022 4600 
L 2384 4600 
L 2384 0 
z
" transform="scale(0.015625)"/>
        <path id="ArialMT-2e" d="M 581 0 
L 581 641 
L 1222 641 
L 1222 0 
L 581 0 
z
" transform="scale(0.015625)"/>
        <path id="ArialMT-30" d="M 266 2259 
Q 266 3072 433 3567 
Q 600 4063 929 4331 
Q 1259 4600 1759 4600 
Q 2128 4600 2406 4451 
Q 2684 4303 2865 4023 
Q 3047 3744 3150 3342 
Q 3253 2941 3253 2259 
Q 3253 1453 3087 958 
Q 2922 463 2592 192 
Q 2263 -78 1759 -78 
Q 1097 -78 719 397 
Q 266 969 266 2259 
z
M 844 2259 
Q 844 1131 1108 757 
Q 1372 384 1759 384 
Q 2147 384 2411 759 
Q 2675 1134 2675 2259 
Q 2675 3391 2411 3762 
Q 2147 4134 1753 4134 
Q 1366 4134 1134 3806 
Q 844 3388 844 2259 
z
" transform="scale(0.015625)"/>
       </defs>
       <use xlink:href="#ArialMT-31"/>
       <use xlink:href="#ArialMT-2e" x="55.615234"/>
       <use xlink:href="#ArialMT-31" x="83.398438"/>
       <use xlink:href="#ArialMT-30" x="139.013672"/>
      </g>
     </g>
    </g>
    <g id="xtick_2">
     <g id="line2d_2">
      <g>
       <use xlink:href="#m67e273449d" x="233.410078" y="137.000313" style="stroke: #000000; stroke-width: 0.8"/>
      </g>
     </g>
     <g id="text_2">
      <!-- 2.10 -->
      <g transform="translate(222.706562 151.873906)scale(0.11 -0.11)">
       <defs>
        <path id="ArialMT-32" d="M 3222 541 
L 3222 0 
L 194 0 
Q 188 203 259 391 
Q 375 700 629 1000 
Q 884 1300 1366 1694 
Q 2113 2306 2375 2664 
Q 2638 3022 2638 3341 
Q 2638 3675 2398 3904 
Q 2159 4134 1775 4134 
Q 1369 4134 1125 3890 
Q 881 3647 878 3216 
L 300 3275 
Q 359 3922 746 4261 
Q 1134 4600 1788 4600 
Q 2447 4600 2831 4234 
Q 3216 3869 3216 3328 
Q 3216 3053 3103 2787 
Q 2991 2522 2730 2228 
Q 2469 1934 1863 1422 
Q 1356 997 1212 845 
Q 1069 694 975 541 
L 3222 541 
z
" transform="scale(0.015625)"/>
       </defs>
       <use xlink:href="#ArialMT-32"/>
       <use xlink:href="#ArialMT-2e" x="55.615234"/>
       <use xlink:href="#ArialMT-31" x="83.398438"/>
       <use xlink:href="#ArialMT-30" x="139.013672"/>
      </g>
     </g>
    </g>
    <g id="xtick_3">
     <g id="line2d_3">
      <g>
       <use xlink:href="#m67e273449d" x="339.696773" y="137.000313" style="stroke: #000000; stroke-width: 0.8"/>
      </g>
     </g>
     <g id="text_3">
      <!-- 3.10 -->
      <g transform="translate(328.993258 151.873906)scale(0.11 -0.11)">
       <defs>
        <path id="ArialMT-33" d="M 269 1209 
L 831 1284 
Q 928 806 1161 595 
Q 1394 384 1728 384 
Q 2125 384 2398 659 
Q 2672 934 2672 1341 
Q 2672 1728 2419 1979 
Q 2166 2231 1775 2231 
Q 1616 2231 1378 2169 
L 1441 2663 
Q 1497 2656 1531 2656 
Q 1891 2656 2178 2843 
Q 2466 3031 2466 3422 
Q 2466 3731 2256 3934 
Q 2047 4138 1716 4138 
Q 1388 4138 1169 3931 
Q 950 3725 888 3313 
L 325 3413 
Q 428 3978 793 4289 
Q 1159 4600 1703 4600 
Q 2078 4600 2393 4439 
Q 2709 4278 2876 4000 
Q 3044 3722 3044 3409 
Q 3044 3113 2884 2869 
Q 2725 2625 2413 2481 
Q 2819 2388 3044 2092 
Q 3269 1797 3269 1353 
Q 3269 753 2831 336 
Q 2394 -81 1725 -81 
Q 1122 -81 723 278 
Q 325 638 269 1209 
z
" transform="scale(0.015625)"/>
       </defs>
       <use xlink:href="#ArialMT-33"/>
       <use xlink:href="#ArialMT-2e" x="55.615234"/>
       <use xlink:href="#ArialMT-31" x="83.398438"/>
       <use xlink:href="#ArialMT-30" x="139.013672"/>
      </g>
     </g>
    </g>
    <g id="text_4">
     <!-- Zeit in d -->
     <g transform="translate(213.847266 165.93375)scale(0.11 -0.11)">
      <defs>
       <path id="ArialMT-5a" d="M 128 0 
L 128 563 
L 2475 3497 
Q 2725 3809 2950 4041 
L 394 4041 
L 394 4581 
L 3675 4581 
L 3675 4041 
L 1103 863 
L 825 541 
L 3750 541 
L 3750 0 
L 128 0 
z
" transform="scale(0.015625)"/>
       <path id="ArialMT-65" d="M 2694 1069 
L 3275 997 
Q 3138 488 2766 206 
Q 2394 -75 1816 -75 
Q 1088 -75 661 373 
Q 234 822 234 1631 
Q 234 2469 665 2931 
Q 1097 3394 1784 3394 
Q 2450 3394 2872 2941 
Q 3294 2488 3294 1666 
Q 3294 1616 3291 1516 
L 816 1516 
Q 847 969 1125 678 
Q 1403 388 1819 388 
Q 2128 388 2347 550 
Q 2566 713 2694 1069 
z
M 847 1978 
L 2700 1978 
Q 2663 2397 2488 2606 
Q 2219 2931 1791 2931 
Q 1403 2931 1139 2672 
Q 875 2413 847 1978 
z
" transform="scale(0.015625)"/>
       <path id="ArialMT-69" d="M 425 3934 
L 425 4581 
L 988 4581 
L 988 3934 
L 425 3934 
z
M 425 0 
L 425 3319 
L 988 3319 
L 988 0 
L 425 0 
z
" transform="scale(0.015625)"/>
       <path id="ArialMT-74" d="M 1650 503 
L 1731 6 
Q 1494 -44 1306 -44 
Q 1000 -44 831 53 
Q 663 150 594 308 
Q 525 466 525 972 
L 525 2881 
L 113 2881 
L 113 3319 
L 525 3319 
L 525 4141 
L 1084 4478 
L 1084 3319 
L 1650 3319 
L 1650 2881 
L 1084 2881 
L 1084 941 
Q 1084 700 1114 631 
Q 1144 563 1211 522 
Q 1278 481 1403 481 
Q 1497 481 1650 503 
z
" transform="scale(0.015625)"/>
       <path id="ArialMT-20" transform="scale(0.015625)"/>
       <path id="ArialMT-6e" d="M 422 0 
L 422 3319 
L 928 3319 
L 928 2847 
Q 1294 3394 1984 3394 
Q 2284 3394 2536 3286 
Q 2788 3178 2913 3003 
Q 3038 2828 3088 2588 
Q 3119 2431 3119 2041 
L 3119 0 
L 2556 0 
L 2556 2019 
Q 2556 2363 2490 2533 
Q 2425 2703 2258 2804 
Q 2091 2906 1866 2906 
Q 1506 2906 1245 2678 
Q 984 2450 984 1813 
L 984 0 
L 422 0 
z
" transform="scale(0.015625)"/>
       <path id="ArialMT-64" d="M 2575 0 
L 2575 419 
Q 2259 -75 1647 -75 
Q 1250 -75 917 144 
Q 584 363 401 755 
Q 219 1147 219 1656 
Q 219 2153 384 2558 
Q 550 2963 881 3178 
Q 1213 3394 1622 3394 
Q 1922 3394 2156 3267 
Q 2391 3141 2538 2938 
L 2538 4581 
L 3097 4581 
L 3097 0 
L 2575 0 
z
M 797 1656 
Q 797 1019 1065 703 
Q 1334 388 1700 388 
Q 2069 388 2326 689 
Q 2584 991 2584 1609 
Q 2584 2291 2321 2609 
Q 2059 2928 1675 2928 
Q 1300 2928 1048 2622 
Q 797 2316 797 1656 
z
" transform="scale(0.015625)"/>
      </defs>
      <use xlink:href="#ArialMT-5a"/>
      <use xlink:href="#ArialMT-65" x="61.083984"/>
      <use xlink:href="#ArialMT-69" x="116.699219"/>
      <use xlink:href="#ArialMT-74" x="138.916016"/>
      <use xlink:href="#ArialMT-20" x="166.699219"/>
      <use xlink:href="#ArialMT-69" x="194.482422"/>
      <use xlink:href="#ArialMT-6e" x="216.699219"/>
      <use xlink:href="#ArialMT-20" x="272.314453"/>
      <use xlink:href="#ArialMT-64" x="300.097656"/>
     </g>
    </g>
   </g>
   <g id="matplotlib.axis_2">
    <g id="ytick_1">
     <g id="line2d_4">
      <defs>
       <path id="mb6e35b96f2" d="M 0 0 
L -3.5 0 
" style="stroke: #000000; stroke-width: 0.8"/>
      </defs>
      <g>
       <use xlink:href="#mb6e35b96f2" x="58.037031" y="131.943643" style="stroke: #000000; stroke-width: 0.8"/>
      </g>
     </g>
     <g id="text_5">
      <!-- 0,0 -->
      <g transform="translate(35.747031 135.88044)scale(0.11 -0.11)">
       <defs>
        <path id="ArialMT-2c" d="M 569 0 
L 569 641 
L 1209 641 
L 1209 0 
Q 1209 -353 1084 -570 
Q 959 -788 688 -906 
L 531 -666 
Q 709 -588 793 -436 
Q 878 -284 888 0 
L 569 0 
z
" transform="scale(0.015625)"/>
       </defs>
       <use xlink:href="#ArialMT-30"/>
       <use xlink:href="#ArialMT-2c" x="55.615234"/>
       <use xlink:href="#ArialMT-30" x="83.398438"/>
      </g>
     </g>
    </g>
    <g id="ytick_2">
     <g id="line2d_5">
      <g>
       <use xlink:href="#mb6e35b96f2" x="58.037031" y="106.660298" style="stroke: #000000; stroke-width: 0.8"/>
      </g>
     </g>
     <g id="text_6">
      <!-- 2,5 -->
      <g transform="translate(35.747031 110.597095)scale(0.11 -0.11)">
       <defs>
        <path id="ArialMT-35" d="M 266 1200 
L 856 1250 
Q 922 819 1161 601 
Q 1400 384 1738 384 
Q 2144 384 2425 690 
Q 2706 997 2706 1503 
Q 2706 1984 2436 2262 
Q 2166 2541 1728 2541 
Q 1456 2541 1237 2417 
Q 1019 2294 894 2097 
L 366 2166 
L 809 4519 
L 3088 4519 
L 3088 3981 
L 1259 3981 
L 1013 2750 
Q 1425 3038 1878 3038 
Q 2478 3038 2890 2622 
Q 3303 2206 3303 1553 
Q 3303 931 2941 478 
Q 2500 -78 1738 -78 
Q 1113 -78 717 272 
Q 322 622 266 1200 
z
" transform="scale(0.015625)"/>
       </defs>
       <use xlink:href="#ArialMT-32"/>
       <use xlink:href="#ArialMT-2c" x="55.615234"/>
       <use xlink:href="#ArialMT-35" x="83.398438"/>
      </g>
     </g>
    </g>
    <g id="ytick_3">
     <g id="line2d_6">
      <g>
       <use xlink:href="#mb6e35b96f2" x="58.037031" y="81.376953" style="stroke: #000000; stroke-width: 0.8"/>
      </g>
     </g>
     <g id="text_7">
      <!-- 5,0 -->
      <g transform="translate(35.747031 85.31375)scale(0.11 -0.11)">
       <use xlink:href="#ArialMT-35"/>
       <use xlink:href="#ArialMT-2c" x="55.615234"/>
       <use xlink:href="#ArialMT-30" x="83.398438"/>
      </g>
     </g>
    </g>
    <g id="ytick_4">
     <g id="line2d_7">
      <g>
       <use xlink:href="#mb6e35b96f2" x="58.037031" y="56.093608" style="stroke: #000000; stroke-width: 0.8"/>
      </g>
     </g>
     <g id="text_8">
      <!-- 7,5 -->
      <g transform="translate(35.747031 60.030405)scale(0.11 -0.11)">
       <defs>
        <path id="ArialMT-37" d="M 303 3981 
L 303 4522 
L 3269 4522 
L 3269 4084 
Q 2831 3619 2401 2847 
Q 1972 2075 1738 1259 
Q 1569 684 1522 0 
L 944 0 
Q 953 541 1156 1306 
Q 1359 2072 1739 2783 
Q 2119 3494 2547 3981 
L 303 3981 
z
" transform="scale(0.015625)"/>
       </defs>
       <use xlink:href="#ArialMT-37"/>
       <use xlink:href="#ArialMT-2c" x="55.615234"/>
       <use xlink:href="#ArialMT-35" x="83.398438"/>
      </g>
     </g>
    </g>
    <g id="ytick_5">
     <g id="line2d_8">
      <g>
       <use xlink:href="#mb6e35b96f2" x="58.037031" y="30.810263" style="stroke: #000000; stroke-width: 0.8"/>
      </g>
     </g>
     <g id="text_9">
      <!-- 10,0 -->
      <g transform="translate(29.63 34.74706)scale(0.11 -0.11)">
       <use xlink:href="#ArialMT-31"/>
       <use xlink:href="#ArialMT-30" x="55.615234"/>
       <use xlink:href="#ArialMT-2c" x="111.230469"/>
       <use xlink:href="#ArialMT-30" x="139.013672"/>
      </g>
     </g>
    </g>
    <g id="text_10">
     <!-- $\dot{Q}_{\mathrm{Haus}}$ in kW -->
     <g transform="translate(23.44375 110.911953)rotate(-90)scale(0.11 -0.11)">
      <defs>
       <path id="DejaVuSans-307" d="M -1894 4863 
L -1319 4863 
L -1319 4134 
L -1894 4134 
L -1894 4863 
z
M -1600 3584 
L -1600 3584 
z
" transform="scale(0.015625)"/>
       <path id="DejaVuSans-Oblique-51" d="M 2309 -84 
Q 2275 -88 2237 -89 
Q 2200 -91 2125 -91 
Q 1250 -91 756 411 
Q 263 913 263 1797 
Q 263 2319 452 2844 
Q 641 3369 978 3788 
Q 1369 4269 1858 4509 
Q 2347 4750 2938 4750 
Q 3794 4750 4287 4245 
Q 4781 3741 4781 2869 
Q 4781 1928 4265 1147 
Q 3750 366 2919 44 
L 3553 -825 
L 2847 -825 
L 2309 -84 
z
M 2919 4238 
Q 2400 4238 2003 3986 
Q 1606 3734 1313 3219 
Q 1125 2891 1026 2522 
Q 928 2153 928 1778 
Q 928 1128 1239 775 
Q 1550 422 2119 422 
Q 2631 422 3032 676 
Q 3434 931 3719 1434 
Q 3909 1772 4009 2142 
Q 4109 2513 4109 2881 
Q 4109 3528 3796 3883 
Q 3484 4238 2919 4238 
z
" transform="scale(0.015625)"/>
       <path id="DejaVuSans-48" d="M 628 4666 
L 1259 4666 
L 1259 2753 
L 3553 2753 
L 3553 4666 
L 4184 4666 
L 4184 0 
L 3553 0 
L 3553 2222 
L 1259 2222 
L 1259 0 
L 628 0 
L 628 4666 
z
" transform="scale(0.015625)"/>
       <path id="DejaVuSans-61" d="M 2194 1759 
Q 1497 1759 1228 1600 
Q 959 1441 959 1056 
Q 959 750 1161 570 
Q 1363 391 1709 391 
Q 2188 391 2477 730 
Q 2766 1069 2766 1631 
L 2766 1759 
L 2194 1759 
z
M 3341 1997 
L 3341 0 
L 2766 0 
L 2766 531 
Q 2569 213 2275 61 
Q 1981 -91 1556 -91 
Q 1019 -91 701 211 
Q 384 513 384 1019 
Q 384 1609 779 1909 
Q 1175 2209 1959 2209 
L 2766 2209 
L 2766 2266 
Q 2766 2663 2505 2880 
Q 2244 3097 1772 3097 
Q 1472 3097 1187 3025 
Q 903 2953 641 2809 
L 641 3341 
Q 956 3463 1253 3523 
Q 1550 3584 1831 3584 
Q 2591 3584 2966 3190 
Q 3341 2797 3341 1997 
z
" transform="scale(0.015625)"/>
       <path id="DejaVuSans-75" d="M 544 1381 
L 544 3500 
L 1119 3500 
L 1119 1403 
Q 1119 906 1312 657 
Q 1506 409 1894 409 
Q 2359 409 2629 706 
Q 2900 1003 2900 1516 
L 2900 3500 
L 3475 3500 
L 3475 0 
L 2900 0 
L 2900 538 
Q 2691 219 2414 64 
Q 2138 -91 1772 -91 
Q 1169 -91 856 284 
Q 544 659 544 1381 
z
M 1991 3584 
L 1991 3584 
z
" transform="scale(0.015625)"/>
       <path id="DejaVuSans-73" d="M 2834 3397 
L 2834 2853 
Q 2591 2978 2328 3040 
Q 2066 3103 1784 3103 
Q 1356 3103 1142 2972 
Q 928 2841 928 2578 
Q 928 2378 1081 2264 
Q 1234 2150 1697 2047 
L 1894 2003 
Q 2506 1872 2764 1633 
Q 3022 1394 3022 966 
Q 3022 478 2636 193 
Q 2250 -91 1575 -91 
Q 1294 -91 989 -36 
Q 684 19 347 128 
L 347 722 
Q 666 556 975 473 
Q 1284 391 1588 391 
Q 1994 391 2212 530 
Q 2431 669 2431 922 
Q 2431 1156 2273 1281 
Q 2116 1406 1581 1522 
L 1381 1569 
Q 847 1681 609 1914 
Q 372 2147 372 2553 
Q 372 3047 722 3315 
Q 1072 3584 1716 3584 
Q 2034 3584 2315 3537 
Q 2597 3491 2834 3397 
z
" transform="scale(0.015625)"/>
       <path id="ArialMT-6b" d="M 425 0 
L 425 4581 
L 988 4581 
L 988 1969 
L 2319 3319 
L 3047 3319 
L 1778 2088 
L 3175 0 
L 2481 0 
L 1384 1697 
L 988 1316 
L 988 0 
L 425 0 
z
" transform="scale(0.015625)"/>
       <path id="ArialMT-57" d="M 1294 0 
L 78 4581 
L 700 4581 
L 1397 1578 
Q 1509 1106 1591 641 
Q 1766 1375 1797 1488 
L 2669 4581 
L 3400 4581 
L 4056 2263 
Q 4303 1400 4413 641 
Q 4500 1075 4641 1638 
L 5359 4581 
L 5969 4581 
L 4713 0 
L 4128 0 
L 3163 3491 
Q 3041 3928 3019 4028 
Q 2947 3713 2884 3491 
L 1913 0 
L 1294 0 
z
" transform="scale(0.015625)"/>
      </defs>
      <use xlink:href="#DejaVuSans-307" transform="translate(74.271484 31.015625)"/>
      <use xlink:href="#DejaVuSans-Oblique-51" transform="translate(0 0.296875)"/>
      <use xlink:href="#DejaVuSans-48" transform="translate(79.667969 -16.109375)scale(0.7)"/>
      <use xlink:href="#DejaVuSans-61" transform="translate(132.304688 -16.109375)scale(0.7)"/>
      <use xlink:href="#DejaVuSans-75" transform="translate(175.200195 -16.109375)scale(0.7)"/>
      <use xlink:href="#DejaVuSans-73" transform="translate(219.56543 -16.109375)scale(0.7)"/>
      <use xlink:href="#ArialMT-20" transform="translate(258.769531 0.296875)"/>
      <use xlink:href="#ArialMT-69" transform="translate(286.552734 0.296875)"/>
      <use xlink:href="#ArialMT-6e" transform="translate(308.769531 0.296875)"/>
      <use xlink:href="#ArialMT-20" transform="translate(364.384766 0.296875)"/>
      <use xlink:href="#ArialMT-6b" transform="translate(392.167969 0.296875)"/>
      <use xlink:href="#ArialMT-57" transform="translate(442.167969 0.296875)"/>
     </g>
    </g>
   </g>
   <g id="line2d_9">
    <path d="M 73.980036 131.943643 
L 285.446273 131.943643 
L 286.553426 123.225137 
L 303.160722 121.109022 
L 308.696487 120.344049 
L 313.125099 120.075439 
L 317.553712 120.463387 
L 321.982324 123.600949 
L 326.410936 124.862284 
L 330.839549 124.647072 
L 335.268161 127.333579 
L 339.696773 128.623637 
L 345.232539 128.554866 
L 349.661151 128.192 
L 352.98261 127.764812 
L 359.625529 125.731222 
L 364.054141 124.320614 
L 367.3756 123.224328 
L 370.697059 121.927798 
L 375.125672 117.902285 
L 379.554284 117.149448 
L 388.411508 117.203251 
L 391.732968 117.239659 
L 391.732968 117.239659 
" clip-path="url(#pe002ac5360)" style="fill: none; stroke: #ec635c; stroke-width: 1.5; stroke-linecap: square"/>
   </g>
   <g id="patch_5">
    <path d="M 58.037031 137.000312 
L 58.037031 25.753594 
" style="fill: none; stroke: #000000; stroke-width: 0.5; stroke-linejoin: miter; stroke-linecap: square"/>
   </g>
   <g id="patch_6">
    <path d="M 408.783125 137.000312 
L 408.783125 25.753594 
" style="fill: none; stroke: #000000; stroke-width: 0.5; stroke-linejoin: miter; stroke-linecap: square"/>
   </g>
   <g id="patch_7">
    <path d="M 58.037031 137.000313 
L 408.783125 137.000313 
" style="fill: none; stroke: #000000; stroke-width: 0.5; stroke-linejoin: miter; stroke-linecap: square"/>
   </g>
   <g id="patch_8">
    <path d="M 58.037031 25.753594 
L 408.783125 25.753594 
" style="fill: none; stroke: #000000; stroke-width: 0.5; stroke-linejoin: miter; stroke-linecap: square"/>
   </g>
   <g id="text_11">
    <!-- Oktober -->
    <g transform="translate(58.037031 19.753594)scale(0.11 -0.11)">
     <defs>
      <path id="ArialMT-4f" d="M 309 2231 
Q 309 3372 921 4017 
Q 1534 4663 2503 4663 
Q 3138 4663 3647 4359 
Q 4156 4056 4423 3514 
Q 4691 2972 4691 2284 
Q 4691 1588 4409 1038 
Q 4128 488 3612 205 
Q 3097 -78 2500 -78 
Q 1853 -78 1343 234 
Q 834 547 571 1087 
Q 309 1628 309 2231 
z
M 934 2222 
Q 934 1394 1379 917 
Q 1825 441 2497 441 
Q 3181 441 3623 922 
Q 4066 1403 4066 2288 
Q 4066 2847 3877 3264 
Q 3688 3681 3323 3911 
Q 2959 4141 2506 4141 
Q 1863 4141 1398 3698 
Q 934 3256 934 2222 
z
" transform="scale(0.015625)"/>
      <path id="ArialMT-6f" d="M 213 1659 
Q 213 2581 725 3025 
Q 1153 3394 1769 3394 
Q 2453 3394 2887 2945 
Q 3322 2497 3322 1706 
Q 3322 1066 3130 698 
Q 2938 331 2570 128 
Q 2203 -75 1769 -75 
Q 1072 -75 642 372 
Q 213 819 213 1659 
z
M 791 1659 
Q 791 1022 1069 705 
Q 1347 388 1769 388 
Q 2188 388 2466 706 
Q 2744 1025 2744 1678 
Q 2744 2294 2464 2611 
Q 2184 2928 1769 2928 
Q 1347 2928 1069 2612 
Q 791 2297 791 1659 
z
" transform="scale(0.015625)"/>
      <path id="ArialMT-62" d="M 941 0 
L 419 0 
L 419 4581 
L 981 4581 
L 981 2947 
Q 1338 3394 1891 3394 
Q 2197 3394 2470 3270 
Q 2744 3147 2920 2923 
Q 3097 2700 3197 2384 
Q 3297 2069 3297 1709 
Q 3297 856 2875 390 
Q 2453 -75 1863 -75 
Q 1275 -75 941 416 
L 941 0 
z
M 934 1684 
Q 934 1088 1097 822 
Q 1363 388 1816 388 
Q 2184 388 2453 708 
Q 2722 1028 2722 1663 
Q 2722 2313 2464 2622 
Q 2206 2931 1841 2931 
Q 1472 2931 1203 2611 
Q 934 2291 934 1684 
z
" transform="scale(0.015625)"/>
      <path id="ArialMT-72" d="M 416 0 
L 416 3319 
L 922 3319 
L 922 2816 
Q 1116 3169 1280 3281 
Q 1444 3394 1641 3394 
Q 1925 3394 2219 3213 
L 2025 2691 
Q 1819 2813 1613 2813 
Q 1428 2813 1281 2702 
Q 1134 2591 1072 2394 
Q 978 2094 978 1738 
L 978 0 
L 416 0 
z
" transform="scale(0.015625)"/>
     </defs>
     <use xlink:href="#ArialMT-4f"/>
     <use xlink:href="#ArialMT-6b" x="77.783203"/>
     <use xlink:href="#ArialMT-74" x="127.783203"/>
     <use xlink:href="#ArialMT-6f" x="155.566406"/>
     <use xlink:href="#ArialMT-62" x="211.181641"/>
     <use xlink:href="#ArialMT-65" x="266.796875"/>
     <use xlink:href="#ArialMT-72" x="322.412109"/>
    </g>
   </g>
  </g>
  <g id="axes_2">
   <g id="matplotlib.axis_3">
    <g id="ytick_6">
     <g id="line2d_10">
      <defs>
       <path id="m205ae015ae" d="M 0 0 
L 3.5 0 
" style="stroke: #000000; stroke-width: 0.8"/>
      </defs>
      <g>
       <use xlink:href="#m205ae015ae" x="408.783125" y="131.040667" style="stroke: #000000; stroke-width: 0.8"/>
      </g>
     </g>
     <g id="text_12">
      <!-- 0 -->
      <g transform="translate(415.783125 134.977464)scale(0.11 -0.11)">
       <use xlink:href="#ArialMT-30"/>
      </g>
     </g>
    </g>
    <g id="ytick_7">
     <g id="line2d_11">
      <g>
       <use xlink:href="#m205ae015ae" x="408.783125" y="111.175181" style="stroke: #000000; stroke-width: 0.8"/>
      </g>
     </g>
     <g id="text_13">
      <!-- 1 -->
      <g transform="translate(415.783125 115.111978)scale(0.11 -0.11)">
       <use xlink:href="#ArialMT-31"/>
      </g>
     </g>
    </g>
    <g id="ytick_8">
     <g id="line2d_12">
      <g>
       <use xlink:href="#m205ae015ae" x="408.783125" y="91.309696" style="stroke: #000000; stroke-width: 0.8"/>
      </g>
     </g>
     <g id="text_14">
      <!-- 2 -->
      <g transform="translate(415.783125 95.246493)scale(0.11 -0.11)">
       <use xlink:href="#ArialMT-32"/>
      </g>
     </g>
    </g>
    <g id="ytick_9">
     <g id="line2d_13">
      <g>
       <use xlink:href="#m205ae015ae" x="408.783125" y="71.44421" style="stroke: #000000; stroke-width: 0.8"/>
      </g>
     </g>
     <g id="text_15">
      <!-- 3 -->
      <g transform="translate(415.783125 75.381007)scale(0.11 -0.11)">
       <use xlink:href="#ArialMT-33"/>
      </g>
     </g>
    </g>
    <g id="ytick_10">
     <g id="line2d_14">
      <g>
       <use xlink:href="#m205ae015ae" x="408.783125" y="51.578725" style="stroke: #000000; stroke-width: 0.8"/>
      </g>
     </g>
     <g id="text_16">
      <!-- 4 -->
      <g transform="translate(415.783125 55.515522)scale(0.11 -0.11)">
       <defs>
        <path id="ArialMT-34" d="M 2069 0 
L 2069 1097 
L 81 1097 
L 81 1613 
L 2172 4581 
L 2631 4581 
L 2631 1613 
L 3250 1613 
L 3250 1097 
L 2631 1097 
L 2631 0 
L 2069 0 
z
M 2069 1613 
L 2069 3678 
L 634 1613 
L 2069 1613 
z
" transform="scale(0.015625)"/>
       </defs>
       <use xlink:href="#ArialMT-34"/>
      </g>
     </g>
    </g>
    <g id="ytick_11">
     <g id="line2d_15">
      <g>
       <use xlink:href="#m205ae015ae" x="408.783125" y="31.713239" style="stroke: #000000; stroke-width: 0.8"/>
      </g>
     </g>
     <g id="text_17">
      <!-- 5 -->
      <g transform="translate(415.783125 35.650036)scale(0.11 -0.11)">
       <use xlink:href="#ArialMT-35"/>
      </g>
     </g>
    </g>
    <g id="text_18">
     <!-- $P_{\mathrm{PV}}$ in kW -->
     <g transform="translate(433.77375 105.081953)rotate(-90)scale(0.11 -0.11)">
      <defs>
       <path id="DejaVuSans-Oblique-50" d="M 1081 4666 
L 2541 4666 
Q 3178 4666 3512 4369 
Q 3847 4072 3847 3500 
Q 3847 2731 3353 2303 
Q 2859 1875 1966 1875 
L 1172 1875 
L 806 0 
L 172 0 
L 1081 4666 
z
M 1613 4147 
L 1275 2394 
L 2069 2394 
Q 2606 2394 2893 2669 
Q 3181 2944 3181 3456 
Q 3181 3784 2986 3965 
Q 2791 4147 2438 4147 
L 1613 4147 
z
" transform="scale(0.015625)"/>
       <path id="DejaVuSans-50" d="M 1259 4147 
L 1259 2394 
L 2053 2394 
Q 2494 2394 2734 2622 
Q 2975 2850 2975 3272 
Q 2975 3691 2734 3919 
Q 2494 4147 2053 4147 
L 1259 4147 
z
M 628 4666 
L 2053 4666 
Q 2838 4666 3239 4311 
Q 3641 3956 3641 3272 
Q 3641 2581 3239 2228 
Q 2838 1875 2053 1875 
L 1259 1875 
L 1259 0 
L 628 0 
L 628 4666 
z
" transform="scale(0.015625)"/>
       <path id="DejaVuSans-56" d="M 1831 0 
L 50 4666 
L 709 4666 
L 2188 738 
L 3669 4666 
L 4325 4666 
L 2547 0 
L 1831 0 
z
" transform="scale(0.015625)"/>
      </defs>
      <use xlink:href="#DejaVuSans-Oblique-50" transform="translate(0 0.09375)"/>
      <use xlink:href="#DejaVuSans-50" transform="translate(60.302734 -16.3125)scale(0.7)"/>
      <use xlink:href="#DejaVuSans-56" transform="translate(102.514648 -16.3125)scale(0.7)"/>
      <use xlink:href="#ArialMT-20" transform="translate(153.134766 0.09375)"/>
      <use xlink:href="#ArialMT-69" transform="translate(180.917969 0.09375)"/>
      <use xlink:href="#ArialMT-6e" transform="translate(203.134766 0.09375)"/>
      <use xlink:href="#ArialMT-20" transform="translate(258.75 0.09375)"/>
      <use xlink:href="#ArialMT-6b" transform="translate(286.533203 0.09375)"/>
      <use xlink:href="#ArialMT-57" transform="translate(336.533203 0.09375)"/>
     </g>
    </g>
   </g>
   <g id="line2d_16">
    <path d="M 73.980036 131.040667 
L 101.658862 130.948491 
L 101.658862 130.855521 
L 103.873169 130.763345 
L 103.873169 130.670374 
L 104.980322 130.670374 
L 104.980322 129.433946 
L 106.087475 129.433946 
L 106.087475 128.196724 
L 107.194628 128.196724 
L 107.194628 126.959502 
L 108.301781 126.959502 
L 108.301781 125.722279 
L 109.408934 125.722279 
L 109.408934 122.616906 
L 110.516087 122.616906 
L 110.516087 119.512328 
L 111.62324 119.512328 
L 111.62324 116.406956 
L 112.730393 116.406956 
L 112.730393 113.301583 
L 113.837546 113.301583 
L 113.837546 110.094499 
L 114.944699 110.094499 
L 114.944699 106.887415 
L 116.051852 106.887415 
L 116.051852 103.680331 
L 117.159005 103.680331 
L 117.159005 100.473247 
L 118.266158 100.473247 
L 118.266158 101.421228 
L 119.373312 101.421228 
L 119.373312 102.368414 
L 120.480465 102.368414 
L 120.480465 103.315601 
L 121.587618 103.315601 
L 121.587618 104.263582 
L 122.694771 104.263582 
L 122.694771 105.867918 
L 123.801924 105.867918 
L 123.801924 107.472255 
L 124.909077 107.472255 
L 124.909077 109.076591 
L 126.01623 109.076591 
L 126.01623 110.680928 
L 127.123383 110.680928 
L 127.123383 104.710952 
L 128.230536 104.710952 
L 128.230536 98.740977 
L 129.337689 98.740977 
L 129.337689 92.771001 
L 130.444842 92.771001 
L 130.444842 86.801025 
L 131.551995 86.801025 
L 131.551995 91.060185 
L 132.659148 91.060185 
L 132.659148 95.32014 
L 133.766301 95.32014 
L 133.766301 99.5793 
L 134.873455 99.5793 
L 134.873455 103.83846 
L 135.980608 103.83846 
L 135.980608 105.055817 
L 137.087761 105.055817 
L 137.087761 106.27238 
L 138.194914 106.27238 
L 138.194914 107.489736 
L 139.302067 107.489736 
L 139.302067 108.706299 
L 140.40922 108.706299 
L 140.40922 112.103297 
L 141.516373 112.103297 
L 141.516373 115.500295 
L 142.623526 115.500295 
L 142.623526 118.897293 
L 143.730679 118.897293 
L 143.730679 122.294291 
L 144.837832 122.294291 
L 144.837832 124.108407 
L 145.944985 124.108407 
L 145.944985 125.923318 
L 147.052138 125.923318 
L 147.052138 127.737434 
L 148.159291 127.737434 
L 148.159291 129.55155 
L 149.266445 129.55155 
L 149.266445 129.923432 
L 150.373598 129.923432 
L 150.373598 130.296108 
L 151.480751 130.296108 
L 151.480751 130.66799 
L 152.587904 130.66799 
L 152.587904 131.040667 
L 206.838404 131.040667 
L 206.838404 129.352895 
L 207.945557 129.352895 
L 207.945557 127.665124 
L 209.052711 127.665124 
L 209.052711 125.978147 
L 210.159864 125.978147 
L 210.159864 124.290375 
L 211.267017 124.290375 
L 211.267017 122.187017 
L 212.37417 122.187017 
L 212.37417 120.08366 
L 213.481323 120.08366 
L 213.481323 117.980302 
L 214.588476 117.980302 
L 214.588476 115.876944 
L 215.695629 115.876944 
L 215.695629 112.742171 
L 216.802782 112.742171 
L 216.802782 109.608192 
L 217.909935 109.608192 
L 217.909935 106.473418 
L 219.017088 106.473418 
L 219.017088 103.338645 
L 220.124241 103.338645 
L 220.124241 100.13315 
L 221.231394 100.13315 
L 221.231394 96.927655 
L 222.338547 96.927655 
L 222.338547 93.722955 
L 223.4457 93.722955 
L 223.4457 90.51746 
L 224.552854 90.51746 
L 224.552854 91.62516 
L 225.660007 91.62516 
L 225.660007 92.732859 
L 226.76716 92.732859 
L 226.76716 93.840559 
L 227.874313 93.840559 
L 227.874313 94.948258 
L 228.981466 94.948258 
L 228.981466 98.453324 
L 230.088619 98.453324 
L 230.088619 101.958391 
L 231.195772 101.958391 
L 231.195772 105.462662 
L 232.302925 105.462662 
L 232.302925 108.967729 
L 233.410078 108.967729 
L 233.410078 108.776225 
L 234.517231 108.776225 
L 234.517231 108.584722 
L 235.624384 108.584722 
L 235.624384 108.393219 
L 236.731537 108.393219 
L 236.731537 108.201715 
L 237.83869 108.201715 
L 237.83869 110.800916 
L 238.945843 110.800916 
L 238.945843 113.40091 
L 240.052997 113.40091 
L 240.052997 116.00011 
L 241.16015 116.00011 
L 241.16015 118.600105 
L 242.267303 118.600105 
L 242.267303 118.990263 
L 243.374456 118.990263 
L 243.374456 119.381216 
L 244.481609 119.381216 
L 244.481609 119.771374 
L 245.588762 119.771374 
L 245.588762 120.162327 
L 246.695915 120.162327 
L 246.695915 122.017763 
L 247.803068 122.017763 
L 247.803068 123.872405 
L 248.910221 123.872405 
L 248.910221 125.727841 
L 250.017374 125.727841 
L 250.017374 127.583278 
L 251.124527 127.583278 
L 251.124527 128.405709 
L 252.23168 128.405709 
L 252.23168 129.227345 
L 253.338833 129.227345 
L 253.338833 130.049776 
L 254.445987 130.049776 
L 254.445987 130.872208 
L 257.767446 130.956437 
L 257.767446 130.998552 
L 313.125099 131.040667 
L 313.125099 129.619887 
L 314.232253 129.619887 
L 314.232253 128.199902 
L 315.339406 128.199902 
L 315.339406 126.779123 
L 316.446559 126.779123 
L 316.446559 125.359138 
L 317.553712 125.359138 
L 317.553712 124.868063 
L 318.660865 124.868063 
L 318.660865 124.377783 
L 319.768018 124.377783 
L 319.768018 123.886708 
L 320.875171 123.886708 
L 320.875171 123.396428 
L 321.982324 123.396428 
L 321.982324 121.916052 
L 323.089477 121.916052 
L 323.089477 120.435676 
L 324.19663 120.435676 
L 324.19663 118.954505 
L 325.303783 118.954505 
L 325.303783 117.47413 
L 326.410936 117.47413 
L 326.410936 116.234523 
L 327.518089 116.234523 
L 327.518089 114.994917 
L 328.625242 114.994917 
L 328.625242 113.755311 
L 329.732396 113.755311 
L 329.732396 112.515704 
L 330.839549 112.515704 
L 330.839549 106.83497 
L 331.946702 106.83497 
L 331.946702 101.153441 
L 333.053855 101.153441 
L 333.053855 95.472707 
L 334.161008 95.472707 
L 334.161008 89.791973 
L 335.268161 89.791973 
L 335.268161 91.240564 
L 336.375314 91.240564 
L 336.375314 92.689155 
L 337.482467 92.689155 
L 337.482467 94.137746 
L 338.58962 94.137746 
L 338.58962 95.587132 
L 339.696773 95.587132 
L 339.696773 99.003201 
L 340.803926 99.003201 
L 340.803926 102.420065 
L 341.911079 102.420065 
L 341.911079 105.836928 
L 343.018232 105.836928 
L 343.018232 109.253792 
L 344.125385 109.253792 
L 344.125385 111.384961 
L 345.232539 111.384961 
L 345.232539 113.51613 
L 346.339692 113.51613 
L 346.339692 115.647299 
L 347.446845 115.647299 
L 347.446845 117.777674 
L 348.553998 117.777674 
L 348.553998 118.399067 
L 349.661151 118.399067 
L 349.661151 119.021254 
L 350.768304 119.021254 
L 350.768304 119.642646 
L 351.875457 119.642646 
L 351.875457 120.264038 
L 352.98261 120.264038 
L 352.98261 122.394413 
L 354.089763 122.394413 
L 354.089763 124.525582 
L 355.196916 124.525582 
L 355.196916 126.655957 
L 356.304069 126.655957 
L 356.304069 128.786332 
L 357.411222 128.786332 
L 357.411222 129.349717 
L 358.518375 129.349717 
L 358.518375 129.913897 
L 359.625529 129.913897 
L 359.625529 130.477282 
L 360.732682 130.477282 
L 360.732682 131.040667 
L 391.732968 131.040667 
L 391.732968 131.040667 
" clip-path="url(#pe002ac5360)" style="fill: none; stroke-dasharray: 5.55,2.4; stroke-dashoffset: 0; stroke: #4b81c4; stroke-width: 1.5"/>
   </g>
   <g id="patch_9">
    <path d="M 58.037031 137.000312 
L 58.037031 25.753594 
" style="fill: none; stroke: #000000; stroke-width: 0.5; stroke-linejoin: miter; stroke-linecap: square"/>
   </g>
   <g id="patch_10">
    <path d="M 408.783125 137.000312 
L 408.783125 25.753594 
" style="fill: none; stroke: #000000; stroke-width: 0.5; stroke-linejoin: miter; stroke-linecap: square"/>
   </g>
   <g id="patch_11">
    <path d="M 58.037031 137.000313 
L 408.783125 137.000313 
" style="fill: none; stroke: #000000; stroke-width: 0.5; stroke-linejoin: miter; stroke-linecap: square"/>
   </g>
   <g id="patch_12">
    <path d="M 58.037031 25.753594 
L 408.783125 25.753594 
" style="fill: none; stroke: #000000; stroke-width: 0.5; stroke-linejoin: miter; stroke-linecap: square"/>
   </g>
  </g>
  <g id="legend_1">
   <g id="line2d_17">
    <path d="M 308.80301 15.588554 
L 317.96601 15.588554 
L 327.12901 15.588554 
" style="fill: none; stroke: #ec635c; stroke-width: 1.5; stroke-linecap: square"/>
   </g>
   <g id="text_19">
    <!-- $\dot{Q}_{\mathrm{Haus}}$ -->
    <g transform="translate(334.45941 18.795604)scale(0.09163 -0.09163)">
     <use xlink:href="#DejaVuSans-307" transform="translate(74.271484 31.015625)"/>
     <use xlink:href="#DejaVuSans-Oblique-51" transform="translate(0 0.296875)"/>
     <use xlink:href="#DejaVuSans-48" transform="translate(79.667969 -16.109375)scale(0.7)"/>
     <use xlink:href="#DejaVuSans-61" transform="translate(132.304688 -16.109375)scale(0.7)"/>
     <use xlink:href="#DejaVuSans-75" transform="translate(175.200195 -16.109375)scale(0.7)"/>
     <use xlink:href="#DejaVuSans-73" transform="translate(219.56543 -16.109375)scale(0.7)"/>
    </g>
   </g>
   <g id="line2d_18">
    <path d="M 376.51758 15.588554 
L 376.51758 15.588554 
L 385.68058 15.588554 
L 385.68058 15.588554 
L 394.84358 15.588554 
" style="fill: none; stroke-dasharray: 5.55,2.4; stroke-dashoffset: 0; stroke: #4b81c4; stroke-width: 1.5"/>
   </g>
   <g id="text_20">
    <!-- $P_{\mathrm{PV}}$ -->
    <g transform="translate(402.17398 18.795604)scale(0.09163 -0.09163)">
     <use xlink:href="#DejaVuSans-Oblique-50" transform="translate(0 0.09375)"/>
     <use xlink:href="#DejaVuSans-50" transform="translate(60.302734 -16.3125)scale(0.7)"/>
     <use xlink:href="#DejaVuSans-56" transform="translate(102.514648 -16.3125)scale(0.7)"/>
    </g>
   </g>
  </g>
 </g>
 <defs>
  <clipPath id="pe002ac5360">
   <rect x="58.037031" y="25.753594" width="350.746094" height="111.246719"/>
  </clipPath>
 </defs>
</svg>
