<?xml version="1.0" encoding="utf-8" standalone="no"?>
<!DOCTYPE svg PUBLIC "-//W3C//DTD SVG 1.1//EN"
  "http://www.w3.org/Graphics/SVG/1.1/DTD/svg11.dtd">
<svg xmlns:xlink="http://www.w3.org/1999/xlink" width="447.84pt" height="252pt" viewBox="0 0 447.84 252" xmlns="http://www.w3.org/2000/svg" version="1.1">
 <metadata>
  <rdf:RDF xmlns:dc="http://purl.org/dc/elements/1.1/" xmlns:cc="http://creativecommons.org/ns#" xmlns:rdf="http://www.w3.org/1999/02/22-rdf-syntax-ns#">
   <cc:Work>
    <dc:type rdf:resource="http://purl.org/dc/dcmitype/StillImage"/>
    <dc:date>2023-05-09T13:34:33.159069</dc:date>
    <dc:format>image/svg+xml</dc:format>
    <dc:creator>
     <cc:Agent>
      <dc:title>Matplotlib v3.5.3, https://matplotlib.org/</dc:title>
     </cc:Agent>
    </dc:creator>
   </cc:Work>
  </rdf:RDF>
 </metadata>
 <defs>
  <style type="text/css">*{stroke-linejoin: round; stroke-linecap: butt}</style>
 </defs>
 <g id="figure_1">
  <g id="patch_1">
   <path d="M 0 252 
L 447.84 252 
L 447.84 0 
L 0 0 
z
" style="fill: #ffffff"/>
  </g>
  <g id="axes_1">
   <g id="patch_2">
    <path d="M 50.5175 108.857269 
L 407.315312 108.857269 
L 407.315312 26.238281 
L 50.5175 26.238281 
z
" style="fill: #ffffff"/>
   </g>
   <g id="patch_3">
    <path d="M 66.735582 108.857269 
L 66.735582 26.238281 
L 174.856132 26.238281 
L 174.856132 108.857269 
z
" clip-path="url(#p5437a9384a)" style="fill: #808080; opacity: 0.2; stroke: #808080; stroke-width: 1.5; stroke-linejoin: miter"/>
   </g>
   <g id="patch_4">
    <path d="M 282.976681 108.857269 
L 282.976681 26.238281 
L 391.09723 26.238281 
L 391.09723 108.857269 
z
" clip-path="url(#p5437a9384a)" style="fill: #808080; opacity: 0.2; stroke: #808080; stroke-width: 1.5; stroke-linejoin: miter"/>
   </g>
   <g id="matplotlib.axis_1">
    <g id="xtick_1">
     <g id="line2d_1">
      <defs>
       <path id="m658f5852cf" d="M 0 0 
L 0 3.5 
" style="stroke: #000000; stroke-width: 0.8"/>
      </defs>
      <g>
       <use xlink:href="#m658f5852cf" x="120.795857" y="108.857269" style="stroke: #000000; stroke-width: 0.8"/>
      </g>
     </g>
    </g>
    <g id="xtick_2">
     <g id="line2d_2">
      <g>
       <use xlink:href="#m658f5852cf" x="228.916406" y="108.857269" style="stroke: #000000; stroke-width: 0.8"/>
      </g>
     </g>
    </g>
    <g id="xtick_3">
     <g id="line2d_3">
      <g>
       <use xlink:href="#m658f5852cf" x="337.036955" y="108.857269" style="stroke: #000000; stroke-width: 0.8"/>
      </g>
     </g>
    </g>
   </g>
   <g id="matplotlib.axis_2">
    <g id="ytick_1">
     <g id="line2d_4">
      <defs>
       <path id="mddc9929ec0" d="M 0 0 
L -3.5 0 
" style="stroke: #000000; stroke-width: 0.8"/>
      </defs>
      <g>
       <use xlink:href="#mddc9929ec0" x="50.5175" y="105.101861" style="stroke: #000000; stroke-width: 0.8"/>
      </g>
     </g>
     <g id="text_1">
      <!-- 0 -->
      <g transform="translate(36.51875 109.281001)scale(0.11 -0.11)">
       <defs>
        <path id="DejaVuSerif-30" d="M 2034 219 
Q 2513 219 2750 744 
Q 2988 1269 2988 2328 
Q 2988 3391 2750 3916 
Q 2513 4441 2034 4441 
Q 1556 4441 1318 3916 
Q 1081 3391 1081 2328 
Q 1081 1269 1318 744 
Q 1556 219 2034 219 
z
M 2034 -91 
Q 1275 -91 848 546 
Q 422 1184 422 2328 
Q 422 3475 848 4112 
Q 1275 4750 2034 4750 
Q 2797 4750 3222 4112 
Q 3647 3475 3647 2328 
Q 3647 1184 3222 546 
Q 2797 -91 2034 -91 
z
" transform="scale(0.015625)"/>
       </defs>
       <use xlink:href="#DejaVuSerif-30"/>
      </g>
     </g>
    </g>
    <g id="ytick_2">
     <g id="line2d_5">
      <g>
       <use xlink:href="#mddc9929ec0" x="50.5175" y="67.547775" style="stroke: #000000; stroke-width: 0.8"/>
      </g>
     </g>
     <g id="text_2">
      <!-- 5 -->
      <g transform="translate(36.51875 71.726916)scale(0.11 -0.11)">
       <defs>
        <path id="DejaVuSerif-35" d="M 3219 4666 
L 3219 4153 
L 1081 4153 
L 1081 2816 
Q 1244 2928 1461 2984 
Q 1678 3041 1947 3041 
Q 2703 3041 3140 2622 
Q 3578 2203 3578 1478 
Q 3578 738 3136 323 
Q 2694 -91 1894 -91 
Q 1572 -91 1234 -12 
Q 897 66 544 225 
L 544 1131 
L 897 1131 
Q 925 688 1179 453 
Q 1434 219 1894 219 
Q 2388 219 2653 544 
Q 2919 869 2919 1478 
Q 2919 2084 2655 2407 
Q 2391 2731 1894 2731 
Q 1613 2731 1398 2631 
Q 1184 2531 1019 2322 
L 750 2322 
L 750 4666 
L 3219 4666 
z
" transform="scale(0.015625)"/>
       </defs>
       <use xlink:href="#DejaVuSerif-35"/>
      </g>
     </g>
    </g>
    <g id="ytick_3">
     <g id="line2d_6">
      <g>
       <use xlink:href="#mddc9929ec0" x="50.5175" y="29.99369" style="stroke: #000000; stroke-width: 0.8"/>
      </g>
     </g>
     <g id="text_3">
      <!-- 10 -->
      <g transform="translate(29.52 34.17283)scale(0.11 -0.11)">
       <defs>
        <path id="DejaVuSerif-31" d="M 909 0 
L 909 331 
L 1722 331 
L 1722 4213 
L 781 3603 
L 781 4013 
L 1919 4750 
L 2350 4750 
L 2350 331 
L 3163 331 
L 3163 0 
L 909 0 
z
" transform="scale(0.015625)"/>
       </defs>
       <use xlink:href="#DejaVuSerif-31"/>
       <use xlink:href="#DejaVuSerif-30" x="63.623047"/>
      </g>
     </g>
    </g>
    <g id="text_4">
     <!-- $\dot{Q}_{\mathrm{WP}}$ in kW -->
     <g transform="translate(23.232344 96.037775)rotate(-90)scale(0.11 -0.11)">
      <defs>
       <path id="DejaVuSans-307" d="M -1894 4863 
L -1319 4863 
L -1319 4134 
L -1894 4134 
L -1894 4863 
z
M -1600 3584 
L -1600 3584 
z
" transform="scale(0.015625)"/>
       <path id="DejaVuSans-Oblique-51" d="M 2309 -84 
Q 2275 -88 2237 -89 
Q 2200 -91 2125 -91 
Q 1250 -91 756 411 
Q 263 913 263 1797 
Q 263 2319 452 2844 
Q 641 3369 978 3788 
Q 1369 4269 1858 4509 
Q 2347 4750 2938 4750 
Q 3794 4750 4287 4245 
Q 4781 3741 4781 2869 
Q 4781 1928 4265 1147 
Q 3750 366 2919 44 
L 3553 -825 
L 2847 -825 
L 2309 -84 
z
M 2919 4238 
Q 2400 4238 2003 3986 
Q 1606 3734 1313 3219 
Q 1125 2891 1026 2522 
Q 928 2153 928 1778 
Q 928 1128 1239 775 
Q 1550 422 2119 422 
Q 2631 422 3032 676 
Q 3434 931 3719 1434 
Q 3909 1772 4009 2142 
Q 4109 2513 4109 2881 
Q 4109 3528 3796 3883 
Q 3484 4238 2919 4238 
z
" transform="scale(0.015625)"/>
       <path id="DejaVuSans-57" d="M 213 4666 
L 850 4666 
L 1831 722 
L 2809 4666 
L 3519 4666 
L 4500 722 
L 5478 4666 
L 6119 4666 
L 4947 0 
L 4153 0 
L 3169 4050 
L 2175 0 
L 1381 0 
L 213 4666 
z
" transform="scale(0.015625)"/>
       <path id="DejaVuSans-50" d="M 1259 4147 
L 1259 2394 
L 2053 2394 
Q 2494 2394 2734 2622 
Q 2975 2850 2975 3272 
Q 2975 3691 2734 3919 
Q 2494 4147 2053 4147 
L 1259 4147 
z
M 628 4666 
L 2053 4666 
Q 2838 4666 3239 4311 
Q 3641 3956 3641 3272 
Q 3641 2581 3239 2228 
Q 2838 1875 2053 1875 
L 1259 1875 
L 1259 0 
L 628 0 
L 628 4666 
z
" transform="scale(0.015625)"/>
       <path id="DejaVuSerif-20" transform="scale(0.015625)"/>
       <path id="DejaVuSerif-69" d="M 622 4353 
Q 622 4497 726 4603 
Q 831 4709 978 4709 
Q 1122 4709 1226 4603 
Q 1331 4497 1331 4353 
Q 1331 4206 1228 4103 
Q 1125 4000 978 4000 
Q 831 4000 726 4103 
Q 622 4206 622 4353 
z
M 1356 331 
L 1900 331 
L 1900 0 
L 231 0 
L 231 331 
L 781 331 
L 781 2988 
L 231 2988 
L 231 3322 
L 1356 3322 
L 1356 331 
z
" transform="scale(0.015625)"/>
       <path id="DejaVuSerif-6e" d="M 263 0 
L 263 331 
L 781 331 
L 781 2988 
L 231 2988 
L 231 3322 
L 1356 3322 
L 1356 2731 
Q 1516 3069 1770 3241 
Q 2025 3413 2363 3413 
Q 2913 3413 3172 3097 
Q 3431 2781 3431 2113 
L 3431 331 
L 3944 331 
L 3944 0 
L 2356 0 
L 2356 331 
L 2853 331 
L 2853 1931 
Q 2853 2541 2703 2767 
Q 2553 2994 2175 2994 
Q 1775 2994 1565 2701 
Q 1356 2409 1356 1850 
L 1356 331 
L 1856 331 
L 1856 0 
L 263 0 
z
" transform="scale(0.015625)"/>
       <path id="DejaVuSerif-6b" d="M 1831 0 
L 219 0 
L 219 331 
L 738 331 
L 738 4531 
L 184 4531 
L 184 4863 
L 1313 4863 
L 1313 1697 
L 2713 2988 
L 2234 2988 
L 2234 3322 
L 3738 3322 
L 3738 2988 
L 3169 2988 
L 2181 2075 
L 3444 331 
L 3922 331 
L 3922 0 
L 2284 0 
L 2284 331 
L 2759 331 
L 1766 1697 
L 1313 1275 
L 1313 331 
L 1831 331 
L 1831 0 
z
" transform="scale(0.015625)"/>
       <path id="DejaVuSerif-57" d="M 4878 0 
L 4366 0 
L 3297 3794 
L 2228 0 
L 1716 0 
L 494 4331 
L 31 4331 
L 31 4666 
L 1734 4666 
L 1734 4331 
L 1153 4331 
L 2125 884 
L 3188 4666 
L 3694 4666 
L 4775 844 
L 5753 4331 
L 5216 4331 
L 5216 4666 
L 6559 4666 
L 6559 4331 
L 6100 4331 
L 4878 0 
z
" transform="scale(0.015625)"/>
      </defs>
      <use xlink:href="#DejaVuSans-307" transform="translate(74.271484 31.015625)"/>
      <use xlink:href="#DejaVuSans-Oblique-51" transform="translate(0 0.296875)"/>
      <use xlink:href="#DejaVuSans-57" transform="translate(79.667969 -16.109375)scale(0.7)"/>
      <use xlink:href="#DejaVuSans-50" transform="translate(148.881836 -16.109375)scale(0.7)"/>
      <use xlink:href="#DejaVuSerif-20" transform="translate(193.828125 0.296875)"/>
      <use xlink:href="#DejaVuSerif-69" transform="translate(225.615234 0.296875)"/>
      <use xlink:href="#DejaVuSerif-6e" transform="translate(257.597656 0.296875)"/>
      <use xlink:href="#DejaVuSerif-20" transform="translate(322.001953 0.296875)"/>
      <use xlink:href="#DejaVuSerif-6b" transform="translate(353.789062 0.296875)"/>
      <use xlink:href="#DejaVuSerif-57" transform="translate(414.384766 0.296875)"/>
     </g>
    </g>
   </g>
   <g id="line2d_7">
    <path d="M 66.735582 72.823373 
L 67.861838 105.101861 
L 68.988094 86.324818 
L 72.366861 86.324818 
L 73.493117 85.970307 
L 74.619372 72.021218 
L 75.745628 105.101861 
L 76.871884 86.324818 
L 83.629418 86.324818 
L 84.755674 76.527708 
L 85.88193 105.101861 
L 87.008185 86.324818 
L 91.513208 86.324818 
L 92.639464 74.737129 
L 93.76572 105.101861 
L 96.018231 65.817283 
L 97.144487 64.723708 
L 98.270743 30.01472 
L 99.396998 85.489615 
L 100.523254 105.101861 
L 101.64951 84.897763 
L 102.775765 105.101861 
L 103.902021 105.101861 
L 105.028277 86.324818 
L 108.407044 86.324818 
L 109.5333 85.195191 
L 110.659556 81.547938 
L 111.785811 70.173557 
L 112.912067 72.847408 
L 114.038323 80.442346 
L 115.164578 85.135104 
L 116.290834 86.324818 
L 117.41709 105.101861 
L 135.437181 105.101861 
L 136.563437 84.290889 
L 137.689693 105.101861 
L 138.815949 105.101861 
L 139.942204 86.324818 
L 142.194716 86.324818 
L 143.320971 70.122483 
L 144.447227 85.546697 
L 145.573483 86.324818 
L 146.699739 105.101861 
L 147.825994 83.404612 
L 148.95225 105.101861 
L 150.078506 72.066283 
L 151.204761 105.101861 
L 153.457273 105.101861 
L 154.583529 82.803747 
L 155.709784 105.101861 
L 156.83604 82.374128 
L 157.962296 86.324818 
L 159.088552 105.101861 
L 160.214807 86.324818 
L 161.341063 86.324818 
L 162.467319 81.397722 
L 163.593574 86.324818 
L 164.71983 83.656976 
L 165.846086 65.453759 
L 166.972342 105.101861 
L 168.098597 105.101861 
L 169.224853 86.324818 
L 170.351109 86.324818 
L 171.477364 78.810997 
L 172.60362 73.859866 
L 173.729876 86.324818 
L 174.856132 78.044893 
L 175.982387 85.898204 
L 177.108643 86.324818 
L 179.361155 86.324818 
L 180.48741 77.18866 
L 181.613666 105.101861 
L 182.739922 86.324818 
L 192.876223 86.324818 
L 194.002479 85.651849 
L 195.128735 85.204204 
L 197.381246 84.939823 
L 198.507502 85.429529 
L 201.886269 85.967303 
L 203.012525 86.324818 
L 204.13878 85.279312 
L 205.265036 85.883182 
L 206.391292 105.101861 
L 207.517548 86.324818 
L 208.643803 86.324818 
L 209.770059 105.101861 
L 210.896315 85.029953 
L 212.02257 67.433611 
L 213.148826 30.01472 
L 214.275082 86.324818 
L 215.401338 86.324818 
L 216.527593 105.101861 
L 218.780105 105.101861 
L 219.90636 86.324818 
L 221.032616 105.101861 
L 222.158872 86.324818 
L 223.285128 105.101861 
L 224.411383 105.101861 
L 225.537639 78.339317 
L 226.663895 75.995942 
L 227.790151 84.855702 
L 228.916406 105.101861 
L 230.042662 83.933374 
L 231.168918 105.101861 
L 236.800196 105.101861 
L 237.926452 61.313797 
L 239.052708 86.324818 
L 240.178963 78.294252 
L 241.305219 69.410458 
L 242.431475 78.871083 
L 244.683986 86.324818 
L 246.936498 86.324818 
L 248.062754 105.101861 
L 249.189009 105.101861 
L 250.315265 86.324818 
L 251.441521 105.101861 
L 262.704078 105.101861 
L 263.830334 86.321814 
L 264.956589 105.101861 
L 266.082845 83.765131 
L 267.209101 105.101861 
L 268.335356 86.324818 
L 269.461612 86.324818 
L 270.587868 105.101861 
L 271.714124 86.324818 
L 272.840379 105.101861 
L 273.966635 82.497306 
L 275.092891 76.215258 
L 276.219147 105.101861 
L 277.345402 105.101861 
L 278.471658 83.587876 
L 279.597914 72.309633 
L 280.724169 105.101861 
L 281.850425 105.101861 
L 282.976681 83.551824 
L 284.102937 70.09244 
L 285.229192 105.101861 
L 286.355448 105.101861 
L 287.481704 86.324818 
L 288.607959 86.324818 
L 289.734215 105.101861 
L 290.860471 78.925161 
L 291.986727 78.588676 
L 293.112982 105.101861 
L 294.239238 83.623928 
L 295.365494 76.85518 
L 296.49175 105.101861 
L 297.618005 86.324818 
L 298.744261 85.585754 
L 299.870517 86.324818 
L 300.996772 76.317405 
L 302.123028 105.101861 
L 303.249284 83.72908 
L 304.37554 75.569328 
L 305.501795 86.324818 
L 308.880562 86.324818 
L 310.006818 60.764005 
L 311.133074 105.101861 
L 312.25933 76.512686 
L 313.385585 84.30591 
L 314.511841 30.01472 
L 315.638097 80.751792 
L 316.764353 105.101861 
L 317.890608 84.606343 
L 319.016864 105.101861 
L 320.14312 84.807633 
L 321.269375 105.101861 
L 322.395631 105.101861 
L 323.521887 84.492179 
L 324.648143 86.324818 
L 325.774398 105.101861 
L 326.900654 86.324818 
L 328.02691 83.083149 
L 329.153165 105.101861 
L 330.279421 72.033235 
L 331.405677 70.885582 
L 332.531933 83.981443 
L 333.658188 75.136705 
L 334.784444 105.101861 
L 335.9107 81.280553 
L 337.036955 105.101861 
L 338.163211 86.324818 
L 339.289467 80.889991 
L 340.415723 81.929488 
L 341.541978 83.179288 
L 342.668234 86.324818 
L 343.79449 86.324818 
L 344.920746 105.101861 
L 347.173257 105.101861 
L 348.299513 86.324818 
L 349.425768 86.324818 
L 350.552024 105.101861 
L 352.804536 105.101861 
L 353.930791 86.324818 
L 355.057047 105.101861 
L 356.183303 85.357425 
L 357.309558 86.324818 
L 359.56207 86.324818 
L 360.688326 85.796056 
L 361.814581 105.101861 
L 362.940837 83.509764 
L 364.067093 86.324818 
L 365.193349 70.558111 
L 366.319604 105.101861 
L 367.44586 86.324818 
L 370.824627 86.324818 
L 371.950883 85.859147 
L 373.077139 82.41018 
L 374.203394 83.816205 
L 380.960929 83.816205 
L 382.087184 80.09084 
L 383.21344 85.669875 
L 384.339696 32.195861 
L 386.592207 105.101861 
L 387.718463 57.263964 
L 388.844719 57.206882 
L 389.970974 81.064242 
L 389.970974 81.064242 
" clip-path="url(#p5437a9384a)" style="fill: none; stroke: #ec635c; stroke-width: 1.5; stroke-linecap: square"/>
   </g>
   <g id="patch_5">
    <path d="M 50.5175 108.857269 
L 50.5175 26.238281 
" style="fill: none; stroke: #000000; stroke-width: 0.5; stroke-linejoin: miter; stroke-linecap: square"/>
   </g>
   <g id="patch_6">
    <path d="M 407.315312 108.857269 
L 407.315312 26.238281 
" style="fill: none; stroke: #000000; stroke-width: 0.5; stroke-linejoin: miter; stroke-linecap: square"/>
   </g>
   <g id="patch_7">
    <path d="M 50.5175 108.857269 
L 407.315312 108.857269 
" style="fill: none; stroke: #000000; stroke-width: 0.5; stroke-linejoin: miter; stroke-linecap: square"/>
   </g>
   <g id="patch_8">
    <path d="M 50.5175 26.238281 
L 407.315312 26.238281 
" style="fill: none; stroke: #000000; stroke-width: 0.5; stroke-linejoin: miter; stroke-linecap: square"/>
   </g>
   <g id="text_5">
    <!-- April -->
    <g transform="translate(50.5175 20.238281)scale(0.11 -0.11)">
     <defs>
      <path id="DejaVuSerif-41" d="M 1281 1691 
L 2994 1691 
L 2138 3909 
L 1281 1691 
z
M -38 0 
L -38 331 
L 372 331 
L 2034 4666 
L 2559 4666 
L 4225 331 
L 4684 331 
L 4684 0 
L 2988 0 
L 2988 331 
L 3506 331 
L 3116 1356 
L 1153 1356 
L 763 331 
L 1275 331 
L 1275 0 
L -38 0 
z
" transform="scale(0.015625)"/>
      <path id="DejaVuSerif-70" d="M 1313 1825 
L 1313 1497 
Q 1313 897 1542 583 
Q 1772 269 2209 269 
Q 2650 269 2876 622 
Q 3103 975 3103 1663 
Q 3103 2353 2876 2703 
Q 2650 3053 2209 3053 
Q 1772 3053 1542 2737 
Q 1313 2422 1313 1825 
z
M 738 2988 
L 184 2988 
L 184 3322 
L 1313 3322 
L 1313 2803 
Q 1481 3116 1742 3264 
Q 2003 3413 2388 3413 
Q 3000 3413 3387 2928 
Q 3775 2444 3775 1663 
Q 3775 881 3387 395 
Q 3000 -91 2388 -91 
Q 2003 -91 1742 57 
Q 1481 206 1313 519 
L 1313 -997 
L 1856 -997 
L 1856 -1331 
L 184 -1331 
L 184 -997 
L 738 -997 
L 738 2988 
z
" transform="scale(0.015625)"/>
      <path id="DejaVuSerif-72" d="M 3059 3328 
L 3059 2497 
L 2728 2497 
Q 2713 2744 2591 2866 
Q 2469 2988 2234 2988 
Q 1809 2988 1582 2694 
Q 1356 2400 1356 1850 
L 1356 331 
L 2022 331 
L 2022 0 
L 263 0 
L 263 331 
L 781 331 
L 781 2994 
L 231 2994 
L 231 3322 
L 1356 3322 
L 1356 2731 
Q 1525 3078 1790 3245 
Q 2056 3413 2438 3413 
Q 2578 3413 2733 3391 
Q 2888 3369 3059 3328 
z
" transform="scale(0.015625)"/>
      <path id="DejaVuSerif-6c" d="M 1313 331 
L 1856 331 
L 1856 0 
L 184 0 
L 184 331 
L 738 331 
L 738 4531 
L 184 4531 
L 184 4863 
L 1313 4863 
L 1313 331 
z
" transform="scale(0.015625)"/>
     </defs>
     <use xlink:href="#DejaVuSerif-41"/>
     <use xlink:href="#DejaVuSerif-70" x="72.216797"/>
     <use xlink:href="#DejaVuSerif-72" x="136.230469"/>
     <use xlink:href="#DejaVuSerif-69" x="184.033203"/>
     <use xlink:href="#DejaVuSerif-6c" x="216.015625"/>
    </g>
   </g>
  </g>
  <g id="axes_2">
   <g id="patch_9">
    <path d="M 50.5175 207.828125 
L 407.315312 207.828125 
L 407.315312 125.209137 
L 50.5175 125.209137 
z
" style="fill: #ffffff"/>
   </g>
   <g id="patch_10">
    <path d="M 66.735582 207.828125 
L 66.735582 125.209137 
L 174.856132 125.209137 
L 174.856132 207.828125 
z
" clip-path="url(#p36591df57a)" style="fill: #808080; opacity: 0.2; stroke: #808080; stroke-width: 1.5; stroke-linejoin: miter"/>
   </g>
   <g id="patch_11">
    <path d="M 282.976681 207.828125 
L 282.976681 125.209137 
L 391.09723 125.209137 
L 391.09723 207.828125 
z
" clip-path="url(#p36591df57a)" style="fill: #808080; opacity: 0.2; stroke: #808080; stroke-width: 1.5; stroke-linejoin: miter"/>
   </g>
   <g id="matplotlib.axis_3">
    <g id="xtick_4">
     <g id="line2d_8">
      <g>
       <use xlink:href="#m658f5852cf" x="120.795857" y="207.828125" style="stroke: #000000; stroke-width: 0.8"/>
      </g>
     </g>
     <g id="text_6">
      <!-- 1.4 -->
      <g transform="translate(112.049138 223.186406)scale(0.11 -0.11)">
       <defs>
        <path id="DejaVuSerif-2e" d="M 603 325 
Q 603 500 722 622 
Q 841 744 1019 744 
Q 1191 744 1312 622 
Q 1434 500 1434 325 
Q 1434 153 1312 31 
Q 1191 -91 1019 -91 
Q 841 -91 722 29 
Q 603 150 603 325 
z
" transform="scale(0.015625)"/>
        <path id="DejaVuSerif-34" d="M 2234 1581 
L 2234 4063 
L 641 1581 
L 2234 1581 
z
M 3609 0 
L 1484 0 
L 1484 331 
L 2234 331 
L 2234 1247 
L 197 1247 
L 197 1588 
L 2241 4750 
L 2859 4750 
L 2859 1581 
L 3750 1581 
L 3750 1247 
L 2859 1247 
L 2859 331 
L 3609 331 
L 3609 0 
z
" transform="scale(0.015625)"/>
       </defs>
       <use xlink:href="#DejaVuSerif-31"/>
       <use xlink:href="#DejaVuSerif-2e" x="63.623047"/>
       <use xlink:href="#DejaVuSerif-34" x="95.410156"/>
      </g>
     </g>
    </g>
    <g id="xtick_5">
     <g id="line2d_9">
      <g>
       <use xlink:href="#m658f5852cf" x="228.916406" y="207.828125" style="stroke: #000000; stroke-width: 0.8"/>
      </g>
     </g>
     <g id="text_7">
      <!-- 2.4 -->
      <g transform="translate(220.169688 223.186406)scale(0.11 -0.11)">
       <defs>
        <path id="DejaVuSerif-32" d="M 819 3553 
L 469 3553 
L 469 4384 
Q 803 4563 1142 4656 
Q 1481 4750 1806 4750 
Q 2534 4750 2956 4397 
Q 3378 4044 3378 3438 
Q 3378 2753 2422 1800 
Q 2347 1728 2309 1691 
L 1131 513 
L 3078 513 
L 3078 1088 
L 3444 1088 
L 3444 0 
L 434 0 
L 434 341 
L 1850 1753 
Q 2319 2222 2519 2614 
Q 2719 3006 2719 3438 
Q 2719 3909 2473 4175 
Q 2228 4441 1797 4441 
Q 1350 4441 1106 4219 
Q 863 3997 819 3553 
z
" transform="scale(0.015625)"/>
       </defs>
       <use xlink:href="#DejaVuSerif-32"/>
       <use xlink:href="#DejaVuSerif-2e" x="63.623047"/>
       <use xlink:href="#DejaVuSerif-34" x="95.410156"/>
      </g>
     </g>
    </g>
    <g id="xtick_6">
     <g id="line2d_10">
      <g>
       <use xlink:href="#m658f5852cf" x="337.036955" y="207.828125" style="stroke: #000000; stroke-width: 0.8"/>
      </g>
     </g>
     <g id="text_8">
      <!-- 3.4 -->
      <g transform="translate(328.290237 223.186406)scale(0.11 -0.11)">
       <defs>
        <path id="DejaVuSerif-33" d="M 622 4469 
Q 988 4606 1323 4678 
Q 1659 4750 1953 4750 
Q 2638 4750 3022 4454 
Q 3406 4159 3406 3634 
Q 3406 3213 3140 2930 
Q 2875 2647 2388 2547 
Q 2963 2466 3280 2130 
Q 3597 1794 3597 1259 
Q 3597 606 3158 257 
Q 2719 -91 1894 -91 
Q 1528 -91 1179 -12 
Q 831 66 488 225 
L 488 1131 
L 838 1131 
Q 869 681 1141 450 
Q 1413 219 1906 219 
Q 2384 219 2661 495 
Q 2938 772 2938 1253 
Q 2938 1803 2653 2086 
Q 2369 2369 1819 2369 
L 1522 2369 
L 1522 2688 
L 1678 2688 
Q 2225 2688 2498 2914 
Q 2772 3141 2772 3597 
Q 2772 4006 2547 4223 
Q 2322 4441 1900 4441 
Q 1478 4441 1245 4241 
Q 1013 4041 972 3647 
L 622 3647 
L 622 4469 
z
" transform="scale(0.015625)"/>
       </defs>
       <use xlink:href="#DejaVuSerif-33"/>
       <use xlink:href="#DejaVuSerif-2e" x="63.623047"/>
       <use xlink:href="#DejaVuSerif-34" x="95.410156"/>
      </g>
     </g>
    </g>
    <g id="text_9">
     <!-- Zeit in d -->
     <g transform="translate(205.551719 237.832344)scale(0.11 -0.11)">
      <defs>
       <path id="DejaVuSerif-5a" d="M 288 0 
L 288 225 
L 3194 4281 
L 781 4281 
L 781 3584 
L 397 3584 
L 397 4666 
L 4084 4666 
L 4084 4441 
L 1178 384 
L 3816 384 
L 3816 1038 
L 4197 1038 
L 4197 0 
L 288 0 
z
" transform="scale(0.015625)"/>
       <path id="DejaVuSerif-65" d="M 3469 1600 
L 991 1600 
L 991 1575 
Q 991 903 1244 561 
Q 1497 219 1991 219 
Q 2369 219 2611 417 
Q 2853 616 2950 1006 
L 3413 1006 
Q 3275 459 2904 184 
Q 2534 -91 1931 -91 
Q 1203 -91 761 389 
Q 319 869 319 1663 
Q 319 2450 753 2931 
Q 1188 3413 1894 3413 
Q 2647 3413 3050 2948 
Q 3453 2484 3469 1600 
z
M 2791 1931 
Q 2772 2513 2545 2808 
Q 2319 3103 1894 3103 
Q 1497 3103 1269 2806 
Q 1041 2509 991 1931 
L 2791 1931 
z
" transform="scale(0.015625)"/>
       <path id="DejaVuSerif-74" d="M 691 2988 
L 184 2988 
L 184 3322 
L 691 3322 
L 691 4353 
L 1269 4353 
L 1269 3322 
L 2350 3322 
L 2350 2988 
L 1269 2988 
L 1269 878 
Q 1269 456 1350 337 
Q 1431 219 1650 219 
Q 1875 219 1978 351 
Q 2081 484 2088 781 
L 2522 781 
Q 2497 328 2275 118 
Q 2053 -91 1600 -91 
Q 1103 -91 897 129 
Q 691 350 691 878 
L 691 2988 
z
" transform="scale(0.015625)"/>
       <path id="DejaVuSerif-64" d="M 3359 331 
L 3909 331 
L 3909 0 
L 2784 0 
L 2784 519 
Q 2616 206 2355 57 
Q 2094 -91 1709 -91 
Q 1097 -91 708 395 
Q 319 881 319 1663 
Q 319 2444 706 2928 
Q 1094 3413 1709 3413 
Q 2094 3413 2355 3264 
Q 2616 3116 2784 2803 
L 2784 4531 
L 2241 4531 
L 2241 4863 
L 3359 4863 
L 3359 331 
z
M 2784 1497 
L 2784 1825 
Q 2784 2422 2554 2737 
Q 2325 3053 1888 3053 
Q 1444 3053 1217 2703 
Q 991 2353 991 1663 
Q 991 975 1217 622 
Q 1444 269 1888 269 
Q 2325 269 2554 583 
Q 2784 897 2784 1497 
z
" transform="scale(0.015625)"/>
      </defs>
      <use xlink:href="#DejaVuSerif-5a"/>
      <use xlink:href="#DejaVuSerif-65" x="69.482422"/>
      <use xlink:href="#DejaVuSerif-69" x="128.662109"/>
      <use xlink:href="#DejaVuSerif-74" x="160.644531"/>
      <use xlink:href="#DejaVuSerif-20" x="200.830078"/>
      <use xlink:href="#DejaVuSerif-69" x="232.617188"/>
      <use xlink:href="#DejaVuSerif-6e" x="264.599609"/>
      <use xlink:href="#DejaVuSerif-20" x="329.003906"/>
      <use xlink:href="#DejaVuSerif-64" x="360.791016"/>
     </g>
    </g>
   </g>
   <g id="matplotlib.axis_4">
    <g id="ytick_4">
     <g id="line2d_11">
      <g>
       <use xlink:href="#mddc9929ec0" x="50.5175" y="203.321635" style="stroke: #000000; stroke-width: 0.8"/>
      </g>
     </g>
     <g id="text_10">
      <!-- 20 -->
      <g transform="translate(29.52 207.500775)scale(0.11 -0.11)">
       <use xlink:href="#DejaVuSerif-32"/>
       <use xlink:href="#DejaVuSerif-30" x="63.623047"/>
      </g>
     </g>
    </g>
    <g id="ytick_5">
     <g id="line2d_12">
      <g>
       <use xlink:href="#mddc9929ec0" x="50.5175" y="165.767549" style="stroke: #000000; stroke-width: 0.8"/>
      </g>
     </g>
     <g id="text_11">
      <!-- 45 -->
      <g transform="translate(29.52 169.94669)scale(0.11 -0.11)">
       <use xlink:href="#DejaVuSerif-34"/>
       <use xlink:href="#DejaVuSerif-35" x="63.623047"/>
      </g>
     </g>
    </g>
    <g id="ytick_6">
     <g id="line2d_13">
      <g>
       <use xlink:href="#mddc9929ec0" x="50.5175" y="128.213464" style="stroke: #000000; stroke-width: 0.8"/>
      </g>
     </g>
     <g id="text_12">
      <!-- 70 -->
      <g transform="translate(29.52 132.392605)scale(0.11 -0.11)">
       <defs>
        <path id="DejaVuSerif-37" d="M 3609 4347 
L 1784 0 
L 1319 0 
L 3059 4153 
L 903 4153 
L 903 3578 
L 538 3578 
L 538 4666 
L 3609 4666 
L 3609 4347 
z
" transform="scale(0.015625)"/>
       </defs>
       <use xlink:href="#DejaVuSerif-37"/>
       <use xlink:href="#DejaVuSerif-30" x="63.623047"/>
      </g>
     </g>
    </g>
    <g id="text_13">
     <!-- $T$ in °C -->
     <g transform="translate(23.232344 185.658631)rotate(-90)scale(0.11 -0.11)">
      <defs>
       <path id="DejaVuSans-Oblique-54" d="M 378 4666 
L 4325 4666 
L 4225 4134 
L 2559 4134 
L 1759 0 
L 1125 0 
L 1925 4134 
L 275 4134 
L 378 4666 
z
" transform="scale(0.015625)"/>
       <path id="DejaVuSerif-b0" d="M 1600 4319 
Q 1363 4319 1200 4155 
Q 1038 3991 1038 3750 
Q 1038 3513 1198 3353 
Q 1359 3194 1600 3194 
Q 1838 3194 2000 3355 
Q 2163 3516 2163 3750 
Q 2163 3984 1997 4151 
Q 1831 4319 1600 4319 
z
M 1600 4750 
Q 1800 4750 1984 4673 
Q 2169 4597 2303 4453 
Q 2447 4313 2519 4134 
Q 2591 3956 2591 3750 
Q 2591 3338 2302 3052 
Q 2013 2766 1594 2766 
Q 1172 2766 890 3047 
Q 609 3328 609 3750 
Q 609 4169 896 4459 
Q 1184 4750 1600 4750 
z
" transform="scale(0.015625)"/>
       <path id="DejaVuSerif-43" d="M 4513 1234 
Q 4306 581 3820 245 
Q 3334 -91 2591 -91 
Q 2134 -91 1743 65 
Q 1353 222 1050 525 
Q 700 875 529 1320 
Q 359 1766 359 2328 
Q 359 3416 987 4083 
Q 1616 4750 2644 4750 
Q 3025 4750 3456 4650 
Q 3888 4550 4384 4347 
L 4384 3272 
L 4031 3272 
Q 3916 3859 3567 4137 
Q 3219 4416 2591 4416 
Q 1844 4416 1459 3886 
Q 1075 3356 1075 2328 
Q 1075 1303 1459 773 
Q 1844 244 2591 244 
Q 3113 244 3450 492 
Q 3788 741 3938 1234 
L 4513 1234 
z
" transform="scale(0.015625)"/>
      </defs>
      <use xlink:href="#DejaVuSans-Oblique-54" transform="translate(0 0.78125)"/>
      <use xlink:href="#DejaVuSerif-20" transform="translate(61.083984 0.78125)"/>
      <use xlink:href="#DejaVuSerif-69" transform="translate(92.871094 0.78125)"/>
      <use xlink:href="#DejaVuSerif-6e" transform="translate(124.853516 0.78125)"/>
      <use xlink:href="#DejaVuSerif-20" transform="translate(189.257812 0.78125)"/>
      <use xlink:href="#DejaVuSerif-b0" transform="translate(221.044922 0.78125)"/>
      <use xlink:href="#DejaVuSerif-43" transform="translate(271.044922 0.78125)"/>
     </g>
    </g>
   </g>
   <g id="line2d_14">
    <path d="M 66.735582 164.956381 
L 67.861838 175.2462 
L 70.11435 174.374946 
L 73.493117 173.278366 
L 74.619372 164.866251 
L 75.745628 175.201136 
L 81.376907 173.924297 
L 83.629418 173.278366 
L 84.755674 167.314778 
L 85.88193 176.417888 
L 87.008185 175.561655 
L 89.260697 174.60027 
L 91.513208 173.278366 
L 92.639464 165.812614 
L 93.76572 175.681828 
L 94.891975 173.278366 
L 96.018231 159.879069 
L 98.270743 177.123905 
L 99.396998 173.278366 
L 100.523254 179.392172 
L 101.64951 173.278366 
L 102.775765 177.8149 
L 103.902021 181.660438 
L 105.028277 174.344902 
L 106.154533 177.334208 
L 108.407044 182.23126 
L 109.5333 173.278366 
L 110.659556 162.312573 
L 112.912067 167.480016 
L 114.038323 155.808206 
L 115.164578 146.855312 
L 117.41709 151.722321 
L 119.669601 156.228812 
L 123.048368 162.357638 
L 126.427136 167.840535 
L 130.932158 175.216157 
L 133.18467 179.392172 
L 134.310926 181.645417 
L 135.437181 183.568186 
L 136.563437 174.149621 
L 138.815949 179.647539 
L 139.942204 182.561736 
L 141.06846 174.840616 
L 143.320971 181.344984 
L 144.447227 173.653907 
L 146.699739 181.480179 
L 147.825994 173.278366 
L 148.95225 177.799878 
L 150.078506 163.604434 
L 152.331017 173.924297 
L 153.457273 179.722647 
L 154.583529 173.278366 
L 155.709784 179.392172 
L 156.83604 173.86421 
L 157.962296 170.874905 
L 159.088552 178.190441 
L 161.341063 173.278366 
L 162.467319 168.231097 
L 163.593574 176.883559 
L 164.71983 173.278366 
L 165.846086 159.368333 
L 168.098597 176.928624 
L 170.351109 173.278366 
L 171.477364 167.269713 
L 172.60362 176.402866 
L 173.729876 174.795551 
L 174.856132 168.53153 
L 175.982387 177.033775 
L 178.234899 174.420011 
L 179.361155 173.278366 
L 180.48741 167.014345 
L 181.613666 176.282693 
L 183.866177 174.735465 
L 184.992433 174.164643 
L 186.118689 173.729015 
L 187.244945 173.443604 
L 188.3712 173.293388 
L 189.497456 173.278366 
L 190.623712 173.413561 
L 191.749967 173.698972 
L 192.876223 174.119578 
L 194.002479 174.224729 
L 197.381246 173.999405 
L 201.886269 174.404989 
L 203.012525 174.329881 
L 205.265036 172.196809 
L 206.391292 178.851393 
L 207.517548 176.568104 
L 208.643803 173.278366 
L 209.770059 179.392172 
L 210.896315 173.278366 
L 212.02257 178.010181 
L 213.148826 181.750568 
L 214.275082 174.254773 
L 216.527593 179.211912 
L 217.653849 181.284897 
L 218.780105 183.087494 
L 219.90636 173.879232 
L 222.158872 176.868537 
L 224.411383 179.527366 
L 227.790151 183.14758 
L 228.916406 184.274203 
L 230.042662 173.278366 
L 236.800196 180.338534 
L 237.926452 181.480179 
L 239.052708 171.866333 
L 240.178963 157.745997 
L 241.305219 159.112965 
L 242.431475 145.4583 
L 243.557731 134.071901 
L 245.810242 137.376661 
L 246.936498 128.318615 
L 250.315265 133.981771 
L 251.441521 135.99467 
L 252.567776 138.548348 
L 253.694032 141.627783 
L 254.820288 145.232975 
L 257.072799 153.690155 
L 259.325311 162.838331 
L 261.577822 172.812696 
L 262.704078 178.265549 
L 263.830334 173.278366 
L 264.956589 179.392172 
L 266.082845 173.368496 
L 267.209101 179.437236 
L 269.461612 170.769754 
L 270.587868 177.379273 
L 271.714124 173.278366 
L 272.840379 179.392172 
L 273.966635 173.278366 
L 275.092891 163.739629 
L 277.345402 178.235506 
L 278.471658 173.278366 
L 279.597914 162.042184 
L 281.850425 177.679705 
L 282.976681 173.278366 
L 284.102937 161.351189 
L 286.355448 177.619619 
L 288.607959 173.278366 
L 289.734215 179.392172 
L 291.986727 167.134518 
L 293.112982 176.34278 
L 294.239238 173.278366 
L 295.365494 166.473566 
L 296.49175 176.012304 
L 297.618005 174.810573 
L 298.744261 173.278366 
L 299.870517 172.271917 
L 300.996772 165.647376 
L 302.123028 175.591698 
L 303.249284 173.278366 
L 304.37554 166.368415 
L 305.501795 175.952217 
L 307.754307 174.239751 
L 308.880562 173.278366 
L 310.006818 157.59578 
L 312.25933 176.34278 
L 313.385585 173.278366 
L 314.511841 179.392172 
L 315.638097 173.278366 
L 316.764353 179.392172 
L 317.890608 174.059491 
L 319.016864 179.782734 
L 320.14312 173.278366 
L 321.269375 177.874986 
L 322.395631 181.690482 
L 323.521887 173.278366 
L 325.774398 180.038102 
L 326.900654 182.757018 
L 328.02691 173.353475 
L 330.279421 179.602474 
L 331.405677 182.546715 
L 332.531933 173.278366 
L 334.784444 179.226934 
L 335.9107 168.62166 
L 337.036955 171.791225 
L 338.163211 164.340494 
L 340.415723 144.45185 
L 341.541978 135.859476 
L 342.668234 129.37013 
L 344.920746 138.698565 
L 347.173257 148.838168 
L 349.425768 159.818982 
L 352.804536 177.72477 
L 353.930791 173.278366 
L 355.057047 179.392172 
L 356.183303 174.825595 
L 357.309558 180.173296 
L 359.56207 173.278366 
L 360.688326 169.853434 
L 361.814581 177.694727 
L 362.940837 173.278366 
L 364.067093 170.679624 
L 365.193349 159.278203 
L 367.44586 176.748364 
L 368.572116 174.915725 
L 369.698371 173.909275 
L 370.824627 173.729015 
L 371.950883 174.089535 
L 373.077139 173.278366 
L 380.960929 173.278366 
L 382.087184 172.21183 
L 383.21344 173.278366 
L 384.339696 144.872456 
L 386.592207 172.031571 
L 387.718463 158.166602 
L 388.844719 171.866333 
L 389.970974 171.791225 
L 389.970974 171.791225 
" clip-path="url(#p36591df57a)" style="fill: none; stroke-dasharray: 1.5,2.475; stroke-dashoffset: 0; stroke: #f49961; stroke-width: 1.5"/>
   </g>
   <g id="line2d_15">
    <path d="M 66.735582 154.396172 
L 92.639464 157.145131 
L 93.76572 157.941278 
L 96.018231 158.166602 
L 97.144487 150.250201 
L 98.270743 157.565737 
L 105.028277 158.226689 
L 106.154533 154.966994 
L 107.280788 151.031326 
L 108.407044 147.786653 
L 109.5333 147.93687 
L 110.659556 152.833922 
L 112.912067 138.608435 
L 114.038323 138.773673 
L 115.164578 139.614884 
L 116.290834 135.724281 
L 118.543346 136.069779 
L 119.669601 136.91099 
L 121.922113 137.18138 
L 123.048368 138.037613 
L 125.30088 138.368089 
L 126.427136 139.2093 
L 127.553391 139.374538 
L 129.805903 141.041939 
L 130.932158 141.207177 
L 132.058414 150.445482 
L 136.563437 153.690155 
L 138.815949 153.900458 
L 139.942204 149.96479 
L 141.06846 150.099985 
L 142.194716 146.179338 
L 143.320971 139.464668 
L 144.447227 139.614884 
L 145.573483 135.724281 
L 150.078506 136.400255 
L 151.204761 137.241466 
L 157.962296 138.172807 
L 159.088552 140.380988 
L 160.214807 141.222199 
L 162.467319 141.537653 
L 163.593574 138.323024 
L 169.224853 139.134192 
L 170.351109 139.975403 
L 171.477364 140.12562 
L 172.60362 156.919807 
L 174.856132 157.115088 
L 175.982387 153.08929 
L 189.497456 154.606475 
L 201.886269 155.913357 
L 203.012525 156.709504 
L 206.391292 157.070023 
L 207.517548 157.86617 
L 210.896315 158.166602 
L 212.02257 150.160071 
L 213.148826 157.460586 
L 214.275082 158.256732 
L 215.401338 154.321064 
L 217.653849 154.56141 
L 218.780105 155.372578 
L 219.90636 155.492752 
L 221.032616 156.30392 
L 222.158872 152.368252 
L 224.411383 153.990588 
L 226.663895 142.183584 
L 227.790151 138.6535 
L 228.916406 154.366129 
L 230.042662 154.486302 
L 231.168918 155.29747 
L 234.547685 155.65799 
L 235.673941 156.454136 
L 236.800196 156.574309 
L 237.926452 147.245874 
L 239.052708 148.072064 
L 240.178963 148.207259 
L 241.305219 140.636355 
L 243.557731 140.95181 
L 244.683986 141.823064 
L 245.810242 138.608435 
L 248.062754 138.878824 
L 249.189009 139.720036 
L 250.315265 135.829432 
L 251.441521 135.99467 
L 252.567776 136.850904 
L 253.694032 146.089209 
L 257.072799 146.524836 
L 258.199055 148.717995 
L 260.451566 148.988384 
L 261.577822 149.799552 
L 266.082845 150.310288 
L 268.335356 151.932624 
L 271.714124 152.323187 
L 272.840379 153.134355 
L 278.471658 153.780285 
L 279.597914 154.576432 
L 286.355448 155.282449 
L 304.37554 157.175175 
L 305.501795 153.239506 
L 308.880562 153.615047 
L 310.006818 154.426216 
L 311.133074 154.546389 
L 312.25933 148.507692 
L 313.385585 149.31886 
L 314.511841 156.634396 
L 321.269375 157.310369 
L 322.395631 158.106516 
L 323.521887 158.226689 
L 324.648143 154.966994 
L 325.774398 155.087167 
L 326.900654 155.928379 
L 329.153165 156.168725 
L 331.405677 142.589168 
L 332.531933 142.739384 
L 333.658188 136.415276 
L 334.784444 136.580514 
L 335.9107 137.436747 
L 338.163211 137.707137 
L 339.289467 138.56337 
L 341.541978 138.878824 
L 342.668234 139.720036 
L 343.79449 135.829432 
L 346.047001 137.526877 
L 347.173257 137.692115 
L 348.299513 142.8896 
L 349.425768 139.659949 
L 352.804536 142.183584 
L 356.183303 142.589168 
L 357.309558 138.683543 
L 358.435814 138.848781 
L 359.56207 139.689992 
L 366.319604 140.651377 
L 367.44586 137.436747 
L 374.203394 138.368089 
L 375.32965 140.576269 
L 376.455906 141.41748 
L 378.708417 141.732935 
L 379.834673 142.559125 
L 384.339696 143.175012 
L 385.465952 135.724281 
L 386.592207 136.580514 
L 387.718463 136.745752 
L 388.844719 149.949769 
L 389.970974 150.084963 
L 389.970974 150.084963 
" clip-path="url(#p36591df57a)" style="fill: none; stroke-dasharray: 9.6,2.4,1.5,2.4; stroke-dashoffset: 0; stroke: #8768b4; stroke-width: 1.5"/>
   </g>
   <g id="patch_12">
    <path d="M 50.5175 207.828125 
L 50.5175 125.209137 
" style="fill: none; stroke: #000000; stroke-width: 0.5; stroke-linejoin: miter; stroke-linecap: square"/>
   </g>
   <g id="patch_13">
    <path d="M 407.315312 207.828125 
L 407.315312 125.209137 
" style="fill: none; stroke: #000000; stroke-width: 0.5; stroke-linejoin: miter; stroke-linecap: square"/>
   </g>
   <g id="patch_14">
    <path d="M 50.5175 207.828125 
L 407.315312 207.828125 
" style="fill: none; stroke: #000000; stroke-width: 0.5; stroke-linejoin: miter; stroke-linecap: square"/>
   </g>
   <g id="patch_15">
    <path d="M 50.5175 125.209137 
L 407.315312 125.209137 
" style="fill: none; stroke: #000000; stroke-width: 0.5; stroke-linejoin: miter; stroke-linecap: square"/>
   </g>
  </g>
  <g id="axes_3">
   <g id="matplotlib.axis_5">
    <g id="ytick_7">
     <g id="line2d_16">
      <defs>
       <path id="m946db2d961" d="M 0 0 
L 3.5 0 
" style="stroke: #000000; stroke-width: 0.8"/>
      </defs>
      <g>
       <use xlink:href="#m946db2d961" x="407.315312" y="105.101861" style="stroke: #000000; stroke-width: 0.8"/>
      </g>
     </g>
     <g id="text_14">
      <!-- 0 -->
      <g transform="translate(414.315312 109.281001)scale(0.11 -0.11)">
       <use xlink:href="#DejaVuSerif-30"/>
      </g>
     </g>
    </g>
    <g id="ytick_8">
     <g id="line2d_17">
      <g>
       <use xlink:href="#m946db2d961" x="407.315312" y="80.065804" style="stroke: #000000; stroke-width: 0.8"/>
      </g>
     </g>
     <g id="text_15">
      <!-- 1 -->
      <g transform="translate(414.315312 84.244944)scale(0.11 -0.11)">
       <use xlink:href="#DejaVuSerif-31"/>
      </g>
     </g>
    </g>
    <g id="ytick_9">
     <g id="line2d_18">
      <g>
       <use xlink:href="#m946db2d961" x="407.315312" y="55.029747" style="stroke: #000000; stroke-width: 0.8"/>
      </g>
     </g>
     <g id="text_16">
      <!-- 2 -->
      <g transform="translate(414.315312 59.208887)scale(0.11 -0.11)">
       <use xlink:href="#DejaVuSerif-32"/>
      </g>
     </g>
    </g>
    <g id="ytick_10">
     <g id="line2d_19">
      <g>
       <use xlink:href="#m946db2d961" x="407.315312" y="29.99369" style="stroke: #000000; stroke-width: 0.8"/>
      </g>
     </g>
     <g id="text_17">
      <!-- 3 -->
      <g transform="translate(414.315312 34.17283)scale(0.11 -0.11)">
       <use xlink:href="#DejaVuSerif-33"/>
      </g>
     </g>
    </g>
    <g id="text_18">
     <!-- Modus -->
     <g transform="translate(433.672344 86.375822)rotate(-90)scale(0.11 -0.11)">
      <defs>
       <path id="DejaVuSerif-4d" d="M 353 0 
L 353 331 
L 947 331 
L 947 4331 
L 319 4331 
L 319 4666 
L 1678 4666 
L 3316 1344 
L 4953 4666 
L 6228 4666 
L 6228 4331 
L 5606 4331 
L 5606 331 
L 6203 331 
L 6203 0 
L 4378 0 
L 4378 331 
L 4972 331 
L 4972 3938 
L 3372 684 
L 2931 684 
L 1331 3938 
L 1331 331 
L 1925 331 
L 1925 0 
L 353 0 
z
" transform="scale(0.015625)"/>
       <path id="DejaVuSerif-6f" d="M 1925 219 
Q 2388 219 2623 584 
Q 2859 950 2859 1663 
Q 2859 2375 2623 2739 
Q 2388 3103 1925 3103 
Q 1463 3103 1227 2739 
Q 991 2375 991 1663 
Q 991 950 1228 584 
Q 1466 219 1925 219 
z
M 1925 -91 
Q 1200 -91 759 389 
Q 319 869 319 1663 
Q 319 2456 758 2934 
Q 1197 3413 1925 3413 
Q 2653 3413 3092 2934 
Q 3531 2456 3531 1663 
Q 3531 869 3092 389 
Q 2653 -91 1925 -91 
z
" transform="scale(0.015625)"/>
       <path id="DejaVuSerif-75" d="M 2266 3322 
L 3341 3322 
L 3341 331 
L 3884 331 
L 3884 0 
L 2766 0 
L 2766 588 
Q 2606 256 2353 82 
Q 2100 -91 1766 -91 
Q 1213 -91 952 223 
Q 691 538 691 1209 
L 691 2988 
L 172 2988 
L 172 3322 
L 1269 3322 
L 1269 1388 
Q 1269 781 1417 556 
Q 1566 331 1947 331 
Q 2347 331 2556 625 
Q 2766 919 2766 1478 
L 2766 2988 
L 2266 2988 
L 2266 3322 
z
" transform="scale(0.015625)"/>
       <path id="DejaVuSerif-73" d="M 359 184 
L 359 959 
L 691 959 
Q 703 588 923 403 
Q 1144 219 1575 219 
Q 1963 219 2166 364 
Q 2369 509 2369 788 
Q 2369 1006 2220 1140 
Q 2072 1275 1594 1428 
L 1178 1569 
Q 750 1706 558 1912 
Q 366 2119 366 2438 
Q 366 2894 700 3153 
Q 1034 3413 1625 3413 
Q 1888 3413 2178 3344 
Q 2469 3275 2778 3144 
L 2778 2419 
L 2447 2419 
Q 2434 2741 2221 2922 
Q 2009 3103 1644 3103 
Q 1281 3103 1095 2975 
Q 909 2847 909 2591 
Q 909 2381 1050 2254 
Q 1191 2128 1613 1997 
L 2069 1856 
Q 2541 1709 2748 1489 
Q 2956 1269 2956 922 
Q 2956 450 2595 179 
Q 2234 -91 1600 -91 
Q 1278 -91 972 -22 
Q 666 47 359 184 
z
" transform="scale(0.015625)"/>
      </defs>
      <use xlink:href="#DejaVuSerif-4d"/>
      <use xlink:href="#DejaVuSerif-6f" x="102.392578"/>
      <use xlink:href="#DejaVuSerif-64" x="162.597656"/>
      <use xlink:href="#DejaVuSerif-75" x="226.611328"/>
      <use xlink:href="#DejaVuSerif-73" x="291.015625"/>
     </g>
    </g>
   </g>
   <g id="line2d_20">
    <path d="M 66.735582 55.029747 
L 66.735582 105.101861 
L 67.861838 105.101861 
L 67.861838 80.065804 
L 73.493117 80.065804 
L 73.493117 55.029747 
L 74.619372 55.029747 
L 74.619372 105.101861 
L 75.745628 105.101861 
L 75.745628 80.065804 
L 83.629418 80.065804 
L 83.629418 55.029747 
L 84.755674 55.029747 
L 84.755674 105.101861 
L 85.88193 105.101861 
L 85.88193 80.065804 
L 91.513208 80.065804 
L 91.513208 55.029747 
L 92.639464 55.029747 
L 92.639464 105.101861 
L 93.76572 105.101861 
L 93.76572 80.065804 
L 94.891975 80.065804 
L 94.891975 55.029747 
L 96.018231 55.029747 
L 96.018231 29.99369 
L 98.270743 29.99369 
L 98.270743 80.065804 
L 99.396998 80.065804 
L 99.396998 105.101861 
L 100.523254 105.101861 
L 100.523254 80.065804 
L 101.64951 80.065804 
L 101.64951 105.101861 
L 103.902021 105.101861 
L 103.902021 80.065804 
L 105.028277 80.065804 
L 105.028277 29.99369 
L 108.407044 29.99369 
L 108.407044 80.065804 
L 109.5333 80.065804 
L 109.5333 55.029747 
L 110.659556 55.029747 
L 110.659556 29.99369 
L 112.912067 29.99369 
L 112.912067 55.029747 
L 115.164578 55.029747 
L 115.164578 29.99369 
L 116.290834 29.99369 
L 116.290834 105.101861 
L 135.437181 105.101861 
L 135.437181 80.065804 
L 136.563437 80.065804 
L 136.563437 105.101861 
L 138.815949 105.101861 
L 138.815949 29.99369 
L 139.942204 29.99369 
L 139.942204 80.065804 
L 141.06846 80.065804 
L 141.06846 29.99369 
L 143.320971 29.99369 
L 143.320971 80.065804 
L 144.447227 80.065804 
L 144.447227 29.99369 
L 145.573483 29.99369 
L 145.573483 105.101861 
L 146.699739 105.101861 
L 146.699739 80.065804 
L 147.825994 80.065804 
L 147.825994 105.101861 
L 148.95225 105.101861 
L 148.95225 55.029747 
L 150.078506 55.029747 
L 150.078506 105.101861 
L 153.457273 105.101861 
L 153.457273 80.065804 
L 154.583529 80.065804 
L 154.583529 105.101861 
L 155.709784 105.101861 
L 155.709784 80.065804 
L 156.83604 80.065804 
L 156.83604 55.029747 
L 157.962296 55.029747 
L 157.962296 105.101861 
L 159.088552 105.101861 
L 159.088552 80.065804 
L 161.341063 80.065804 
L 161.341063 55.029747 
L 162.467319 55.029747 
L 162.467319 29.99369 
L 163.593574 29.99369 
L 163.593574 80.065804 
L 164.71983 80.065804 
L 164.71983 55.029747 
L 165.846086 55.029747 
L 165.846086 105.101861 
L 168.098597 105.101861 
L 168.098597 80.065804 
L 170.351109 80.065804 
L 170.351109 55.029747 
L 171.477364 55.029747 
L 171.477364 29.99369 
L 172.60362 29.99369 
L 172.60362 80.065804 
L 173.729876 80.065804 
L 173.729876 55.029747 
L 174.856132 55.029747 
L 174.856132 29.99369 
L 175.982387 29.99369 
L 175.982387 80.065804 
L 179.361155 80.065804 
L 179.361155 55.029747 
L 180.48741 55.029747 
L 180.48741 105.101861 
L 181.613666 105.101861 
L 181.613666 80.065804 
L 204.13878 80.065804 
L 204.13878 55.029747 
L 205.265036 55.029747 
L 205.265036 105.101861 
L 206.391292 105.101861 
L 206.391292 80.065804 
L 208.643803 80.065804 
L 208.643803 105.101861 
L 209.770059 105.101861 
L 209.770059 80.065804 
L 210.896315 80.065804 
L 210.896315 29.99369 
L 213.148826 29.99369 
L 213.148826 80.065804 
L 214.275082 80.065804 
L 214.275082 29.99369 
L 215.401338 29.99369 
L 215.401338 105.101861 
L 218.780105 105.101861 
L 218.780105 80.065804 
L 219.90636 80.065804 
L 219.90636 105.101861 
L 221.032616 105.101861 
L 221.032616 29.99369 
L 222.158872 29.99369 
L 222.158872 105.101861 
L 224.411383 105.101861 
L 224.411383 29.99369 
L 227.790151 29.99369 
L 227.790151 105.101861 
L 228.916406 105.101861 
L 228.916406 80.065804 
L 230.042662 80.065804 
L 230.042662 105.101861 
L 236.800196 105.101861 
L 236.800196 29.99369 
L 237.926452 29.99369 
L 237.926452 55.029747 
L 240.178963 55.029747 
L 240.178963 29.99369 
L 241.305219 29.99369 
L 241.305219 55.029747 
L 243.557731 55.029747 
L 243.557731 29.99369 
L 245.810242 29.99369 
L 245.810242 55.029747 
L 246.936498 55.029747 
L 246.936498 105.101861 
L 249.189009 105.101861 
L 249.189009 29.99369 
L 250.315265 29.99369 
L 250.315265 105.101861 
L 262.704078 105.101861 
L 262.704078 80.065804 
L 263.830334 80.065804 
L 263.830334 105.101861 
L 264.956589 105.101861 
L 264.956589 80.065804 
L 266.082845 80.065804 
L 266.082845 105.101861 
L 267.209101 105.101861 
L 267.209101 80.065804 
L 268.335356 80.065804 
L 268.335356 55.029747 
L 269.461612 55.029747 
L 269.461612 105.101861 
L 270.587868 105.101861 
L 270.587868 80.065804 
L 271.714124 80.065804 
L 271.714124 105.101861 
L 272.840379 105.101861 
L 272.840379 80.065804 
L 273.966635 80.065804 
L 273.966635 55.029747 
L 275.092891 55.029747 
L 275.092891 105.101861 
L 277.345402 105.101861 
L 277.345402 80.065804 
L 278.471658 80.065804 
L 278.471658 55.029747 
L 279.597914 55.029747 
L 279.597914 105.101861 
L 281.850425 105.101861 
L 281.850425 80.065804 
L 282.976681 80.065804 
L 282.976681 55.029747 
L 284.102937 55.029747 
L 284.102937 105.101861 
L 286.355448 105.101861 
L 286.355448 80.065804 
L 288.607959 80.065804 
L 288.607959 105.101861 
L 289.734215 105.101861 
L 289.734215 80.065804 
L 290.860471 80.065804 
L 290.860471 55.029747 
L 291.986727 55.029747 
L 291.986727 105.101861 
L 293.112982 105.101861 
L 293.112982 80.065804 
L 294.239238 80.065804 
L 294.239238 55.029747 
L 295.365494 55.029747 
L 295.365494 105.101861 
L 296.49175 105.101861 
L 296.49175 80.065804 
L 298.744261 80.065804 
L 298.744261 55.029747 
L 300.996772 55.029747 
L 300.996772 105.101861 
L 302.123028 105.101861 
L 302.123028 80.065804 
L 303.249284 80.065804 
L 303.249284 55.029747 
L 304.37554 55.029747 
L 304.37554 29.99369 
L 305.501795 29.99369 
L 305.501795 80.065804 
L 308.880562 80.065804 
L 308.880562 55.029747 
L 310.006818 55.029747 
L 310.006818 105.101861 
L 311.133074 105.101861 
L 311.133074 29.99369 
L 312.25933 29.99369 
L 312.25933 80.065804 
L 313.385585 80.065804 
L 313.385585 29.99369 
L 314.511841 29.99369 
L 314.511841 80.065804 
L 315.638097 80.065804 
L 315.638097 105.101861 
L 316.764353 105.101861 
L 316.764353 80.065804 
L 317.890608 80.065804 
L 317.890608 105.101861 
L 319.016864 105.101861 
L 319.016864 80.065804 
L 320.14312 80.065804 
L 320.14312 105.101861 
L 322.395631 105.101861 
L 322.395631 80.065804 
L 323.521887 80.065804 
L 323.521887 29.99369 
L 324.648143 29.99369 
L 324.648143 105.101861 
L 325.774398 105.101861 
L 325.774398 29.99369 
L 326.900654 29.99369 
L 326.900654 80.065804 
L 328.02691 80.065804 
L 328.02691 105.101861 
L 329.153165 105.101861 
L 329.153165 29.99369 
L 331.405677 29.99369 
L 331.405677 80.065804 
L 332.531933 80.065804 
L 332.531933 29.99369 
L 333.658188 29.99369 
L 333.658188 105.101861 
L 334.784444 105.101861 
L 334.784444 55.029747 
L 335.9107 55.029747 
L 335.9107 105.101861 
L 337.036955 105.101861 
L 337.036955 55.029747 
L 342.668234 55.029747 
L 342.668234 29.99369 
L 343.79449 29.99369 
L 343.79449 105.101861 
L 347.173257 105.101861 
L 347.173257 29.99369 
L 349.425768 29.99369 
L 349.425768 105.101861 
L 352.804536 105.101861 
L 352.804536 80.065804 
L 353.930791 80.065804 
L 353.930791 105.101861 
L 355.057047 105.101861 
L 355.057047 80.065804 
L 356.183303 80.065804 
L 356.183303 29.99369 
L 357.309558 29.99369 
L 357.309558 80.065804 
L 359.56207 80.065804 
L 359.56207 55.029747 
L 360.688326 55.029747 
L 360.688326 105.101861 
L 361.814581 105.101861 
L 361.814581 80.065804 
L 362.940837 80.065804 
L 362.940837 55.029747 
L 365.193349 55.029747 
L 365.193349 105.101861 
L 366.319604 105.101861 
L 366.319604 29.99369 
L 367.44586 29.99369 
L 367.44586 80.065804 
L 380.960929 80.065804 
L 380.960929 55.029747 
L 382.087184 55.029747 
L 382.087184 80.065804 
L 383.21344 80.065804 
L 383.21344 55.029747 
L 384.339696 55.029747 
L 384.339696 29.99369 
L 385.465952 29.99369 
L 385.465952 105.101861 
L 386.592207 105.101861 
L 386.592207 55.029747 
L 387.718463 55.029747 
L 387.718463 29.99369 
L 388.844719 29.99369 
L 388.844719 55.029747 
L 389.970974 55.029747 
L 389.970974 55.029747 
" clip-path="url(#p5437a9384a)" style="fill: none; stroke-dasharray: 5.55,2.4; stroke-dashoffset: 0; stroke: #4b81c4; stroke-width: 1.5"/>
   </g>
   <g id="patch_16">
    <path d="M 50.5175 108.857269 
L 50.5175 26.238281 
" style="fill: none; stroke: #000000; stroke-width: 0.5; stroke-linejoin: miter; stroke-linecap: square"/>
   </g>
   <g id="patch_17">
    <path d="M 407.315312 108.857269 
L 407.315312 26.238281 
" style="fill: none; stroke: #000000; stroke-width: 0.5; stroke-linejoin: miter; stroke-linecap: square"/>
   </g>
   <g id="patch_18">
    <path d="M 50.5175 108.857269 
L 407.315312 108.857269 
" style="fill: none; stroke: #000000; stroke-width: 0.5; stroke-linejoin: miter; stroke-linecap: square"/>
   </g>
   <g id="patch_19">
    <path d="M 50.5175 26.238281 
L 407.315312 26.238281 
" style="fill: none; stroke: #000000; stroke-width: 0.5; stroke-linejoin: miter; stroke-linecap: square"/>
   </g>
  </g>
  <g id="legend_1">
   <g id="line2d_21">
    <path d="M 173.160544 15.412452 
L 182.323544 15.412452 
L 191.486544 15.412452 
" style="fill: none; stroke: #ec635c; stroke-width: 1.5; stroke-linecap: square"/>
   </g>
   <g id="text_19">
    <!-- $\dot{Q}_{\mathrm{WP}}$ -->
    <g transform="translate(198.816944 18.619502)scale(0.09163 -0.09163)">
     <use xlink:href="#DejaVuSans-307" transform="translate(74.271484 31.015625)"/>
     <use xlink:href="#DejaVuSans-Oblique-51" transform="translate(0 0.296875)"/>
     <use xlink:href="#DejaVuSans-57" transform="translate(79.667969 -16.109375)scale(0.7)"/>
     <use xlink:href="#DejaVuSans-50" transform="translate(148.881836 -16.109375)scale(0.7)"/>
    </g>
   </g>
   <g id="line2d_22">
    <path d="M 234.919164 15.412452 
L 244.082164 15.412452 
L 253.245164 15.412452 
" style="fill: none; stroke-dasharray: 1.5,2.475; stroke-dashoffset: 0; stroke: #f49961; stroke-width: 1.5"/>
   </g>
   <g id="text_20">
    <!-- $T_{\mathrm{PS}}$ -->
    <g transform="translate(260.575564 18.619502)scale(0.09163 -0.09163)">
     <defs>
      <path id="DejaVuSans-53" d="M 3425 4513 
L 3425 3897 
Q 3066 4069 2747 4153 
Q 2428 4238 2131 4238 
Q 1616 4238 1336 4038 
Q 1056 3838 1056 3469 
Q 1056 3159 1242 3001 
Q 1428 2844 1947 2747 
L 2328 2669 
Q 3034 2534 3370 2195 
Q 3706 1856 3706 1288 
Q 3706 609 3251 259 
Q 2797 -91 1919 -91 
Q 1588 -91 1214 -16 
Q 841 59 441 206 
L 441 856 
Q 825 641 1194 531 
Q 1563 422 1919 422 
Q 2459 422 2753 634 
Q 3047 847 3047 1241 
Q 3047 1584 2836 1778 
Q 2625 1972 2144 2069 
L 1759 2144 
Q 1053 2284 737 2584 
Q 422 2884 422 3419 
Q 422 4038 858 4394 
Q 1294 4750 2059 4750 
Q 2388 4750 2728 4690 
Q 3069 4631 3425 4513 
z
" transform="scale(0.015625)"/>
     </defs>
     <use xlink:href="#DejaVuSans-Oblique-54" transform="translate(0 0.09375)"/>
     <use xlink:href="#DejaVuSans-50" transform="translate(61.083984 -16.3125)scale(0.7)"/>
     <use xlink:href="#DejaVuSans-53" transform="translate(103.295898 -16.3125)scale(0.7)"/>
    </g>
   </g>
   <g id="line2d_23">
    <path d="M 292.737694 15.412452 
L 301.900694 15.412452 
L 311.063694 15.412452 
" style="fill: none; stroke-dasharray: 9.6,2.4,1.5,2.4; stroke-dashoffset: 0; stroke: #8768b4; stroke-width: 1.5"/>
   </g>
   <g id="text_21">
    <!-- $T_{\mathrm{TWW}}$ -->
    <g transform="translate(318.394094 18.619502)scale(0.09163 -0.09163)">
     <defs>
      <path id="DejaVuSans-54" d="M -19 4666 
L 3928 4666 
L 3928 4134 
L 2272 4134 
L 2272 0 
L 1638 0 
L 1638 4134 
L -19 4134 
L -19 4666 
z
" transform="scale(0.015625)"/>
     </defs>
     <use xlink:href="#DejaVuSans-Oblique-54" transform="translate(0 0.09375)"/>
     <use xlink:href="#DejaVuSans-54" transform="translate(61.083984 -16.3125)scale(0.7)"/>
     <use xlink:href="#DejaVuSans-57" transform="translate(103.842773 -16.3125)scale(0.7)"/>
     <use xlink:href="#DejaVuSans-57" transform="translate(173.056641 -16.3125)scale(0.7)"/>
    </g>
   </g>
   <g id="line2d_24">
    <path d="M 359.261074 15.412452 
L 359.261074 15.412452 
L 368.424074 15.412452 
L 368.424074 15.412452 
L 377.587074 15.412452 
" style="fill: none; stroke-dasharray: 5.55,2.4; stroke-dashoffset: 0; stroke: #4b81c4; stroke-width: 1.5"/>
   </g>
   <g id="text_22">
    <!-- Modus -->
    <g transform="translate(384.917474 18.619502)scale(0.09163 -0.09163)">
     <use xlink:href="#DejaVuSerif-4d"/>
     <use xlink:href="#DejaVuSerif-6f" x="102.392578"/>
     <use xlink:href="#DejaVuSerif-64" x="162.597656"/>
     <use xlink:href="#DejaVuSerif-75" x="226.611328"/>
     <use xlink:href="#DejaVuSerif-73" x="291.015625"/>
    </g>
   </g>
  </g>
 </g>
 <defs>
  <clipPath id="p5437a9384a">
   <rect x="50.5175" y="26.238281" width="356.797812" height="82.618988"/>
  </clipPath>
  <clipPath id="p36591df57a">
   <rect x="50.5175" y="125.209137" width="356.797812" height="82.618988"/>
  </clipPath>
 </defs>
</svg>
