<?xml version="1.0" encoding="utf-8" standalone="no"?>
<!DOCTYPE svg PUBLIC "-//W3C//DTD SVG 1.1//EN"
  "http://www.w3.org/Graphics/SVG/1.1/DTD/svg11.dtd">
<svg xmlns:xlink="http://www.w3.org/1999/xlink" width="447.84pt" height="144pt" viewBox="0 0 447.84 144" xmlns="http://www.w3.org/2000/svg" version="1.1">
 <metadata>
  <rdf:RDF xmlns:dc="http://purl.org/dc/elements/1.1/" xmlns:cc="http://creativecommons.org/ns#" xmlns:rdf="http://www.w3.org/1999/02/22-rdf-syntax-ns#">
   <cc:Work>
    <dc:type rdf:resource="http://purl.org/dc/dcmitype/StillImage"/>
    <dc:date>2023-05-03T10:39:14.749609</dc:date>
    <dc:format>image/svg+xml</dc:format>
    <dc:creator>
     <cc:Agent>
      <dc:title>Matplotlib v3.5.3, https://matplotlib.org/</dc:title>
     </cc:Agent>
    </dc:creator>
   </cc:Work>
  </rdf:RDF>
 </metadata>
 <defs>
  <style type="text/css">*{stroke-linejoin: round; stroke-linecap: butt}</style>
 </defs>
 <g id="figure_1">
  <g id="patch_1">
   <path d="M 0 144 
L 447.84 144 
L 447.84 0 
L 0 0 
z
" style="fill: #ffffff"/>
  </g>
  <g id="axes_1">
   <g id="patch_2">
    <path d="M 47.523438 99.828125 
L 435.96 99.828125 
L 435.96 11.88 
L 47.523438 11.88 
z
" style="fill: #ffffff"/>
   </g>
   <g id="matplotlib.axis_1">
    <g id="xtick_1">
     <g id="line2d_1">
      <defs>
       <path id="m3a364b76b5" d="M 0 0 
L 0 3.5 
" style="stroke: #000000; stroke-width: 0.8"/>
      </defs>
      <g>
       <use xlink:href="#m3a364b76b5" x="65.179645" y="99.828125" style="stroke: #000000; stroke-width: 0.8"/>
      </g>
     </g>
     <g id="text_1">
      <!-- 0 -->
      <g transform="translate(61.68027 115.186406)scale(0.11 -0.11)">
       <defs>
        <path id="DejaVuSerif-30" d="M 2034 219 
Q 2513 219 2750 744 
Q 2988 1269 2988 2328 
Q 2988 3391 2750 3916 
Q 2513 4441 2034 4441 
Q 1556 4441 1318 3916 
Q 1081 3391 1081 2328 
Q 1081 1269 1318 744 
Q 1556 219 2034 219 
z
M 2034 -91 
Q 1275 -91 848 546 
Q 422 1184 422 2328 
Q 422 3475 848 4112 
Q 1275 4750 2034 4750 
Q 2797 4750 3222 4112 
Q 3647 3475 3647 2328 
Q 3647 1184 3222 546 
Q 2797 -91 2034 -91 
z
" transform="scale(0.015625)"/>
       </defs>
       <use xlink:href="#DejaVuSerif-30"/>
      </g>
     </g>
    </g>
    <g id="xtick_2">
     <g id="line2d_2">
      <g>
       <use xlink:href="#m3a364b76b5" x="139.521571" y="99.828125" style="stroke: #000000; stroke-width: 0.8"/>
      </g>
     </g>
     <g id="text_2">
      <!-- 5 -->
      <g transform="translate(136.022196 115.186406)scale(0.11 -0.11)">
       <defs>
        <path id="DejaVuSerif-35" d="M 3219 4666 
L 3219 4153 
L 1081 4153 
L 1081 2816 
Q 1244 2928 1461 2984 
Q 1678 3041 1947 3041 
Q 2703 3041 3140 2622 
Q 3578 2203 3578 1478 
Q 3578 738 3136 323 
Q 2694 -91 1894 -91 
Q 1572 -91 1234 -12 
Q 897 66 544 225 
L 544 1131 
L 897 1131 
Q 925 688 1179 453 
Q 1434 219 1894 219 
Q 2388 219 2653 544 
Q 2919 869 2919 1478 
Q 2919 2084 2655 2407 
Q 2391 2731 1894 2731 
Q 1613 2731 1398 2631 
Q 1184 2531 1019 2322 
L 750 2322 
L 750 4666 
L 3219 4666 
z
" transform="scale(0.015625)"/>
       </defs>
       <use xlink:href="#DejaVuSerif-35"/>
      </g>
     </g>
    </g>
    <g id="xtick_3">
     <g id="line2d_3">
      <g>
       <use xlink:href="#m3a364b76b5" x="213.863497" y="99.828125" style="stroke: #000000; stroke-width: 0.8"/>
      </g>
     </g>
     <g id="text_3">
      <!-- 10 -->
      <g transform="translate(206.864747 115.186406)scale(0.11 -0.11)">
       <defs>
        <path id="DejaVuSerif-31" d="M 909 0 
L 909 331 
L 1722 331 
L 1722 4213 
L 781 3603 
L 781 4013 
L 1919 4750 
L 2350 4750 
L 2350 331 
L 3163 331 
L 3163 0 
L 909 0 
z
" transform="scale(0.015625)"/>
       </defs>
       <use xlink:href="#DejaVuSerif-31"/>
       <use xlink:href="#DejaVuSerif-30" x="63.623047"/>
      </g>
     </g>
    </g>
    <g id="xtick_4">
     <g id="line2d_4">
      <g>
       <use xlink:href="#m3a364b76b5" x="288.205422" y="99.828125" style="stroke: #000000; stroke-width: 0.8"/>
      </g>
     </g>
     <g id="text_4">
      <!-- 15 -->
      <g transform="translate(281.206672 115.186406)scale(0.11 -0.11)">
       <use xlink:href="#DejaVuSerif-31"/>
       <use xlink:href="#DejaVuSerif-35" x="63.623047"/>
      </g>
     </g>
    </g>
    <g id="xtick_5">
     <g id="line2d_5">
      <g>
       <use xlink:href="#m3a364b76b5" x="362.547348" y="99.828125" style="stroke: #000000; stroke-width: 0.8"/>
      </g>
     </g>
     <g id="text_5">
      <!-- 20 -->
      <g transform="translate(355.548598 115.186406)scale(0.11 -0.11)">
       <defs>
        <path id="DejaVuSerif-32" d="M 819 3553 
L 469 3553 
L 469 4384 
Q 803 4563 1142 4656 
Q 1481 4750 1806 4750 
Q 2534 4750 2956 4397 
Q 3378 4044 3378 3438 
Q 3378 2753 2422 1800 
Q 2347 1728 2309 1691 
L 1131 513 
L 3078 513 
L 3078 1088 
L 3444 1088 
L 3444 0 
L 434 0 
L 434 341 
L 1850 1753 
Q 2319 2222 2519 2614 
Q 2719 3006 2719 3438 
Q 2719 3909 2473 4175 
Q 2228 4441 1797 4441 
Q 1350 4441 1106 4219 
Q 863 3997 819 3553 
z
" transform="scale(0.015625)"/>
       </defs>
       <use xlink:href="#DejaVuSerif-32"/>
       <use xlink:href="#DejaVuSerif-30" x="63.623047"/>
      </g>
     </g>
    </g>
    <g id="text_6">
     <!-- Zeit in h -->
     <g transform="translate(218.355547 129.832344)scale(0.11 -0.11)">
      <defs>
       <path id="DejaVuSerif-5a" d="M 288 0 
L 288 225 
L 3194 4281 
L 781 4281 
L 781 3584 
L 397 3584 
L 397 4666 
L 4084 4666 
L 4084 4441 
L 1178 384 
L 3816 384 
L 3816 1038 
L 4197 1038 
L 4197 0 
L 288 0 
z
" transform="scale(0.015625)"/>
       <path id="DejaVuSerif-65" d="M 3469 1600 
L 991 1600 
L 991 1575 
Q 991 903 1244 561 
Q 1497 219 1991 219 
Q 2369 219 2611 417 
Q 2853 616 2950 1006 
L 3413 1006 
Q 3275 459 2904 184 
Q 2534 -91 1931 -91 
Q 1203 -91 761 389 
Q 319 869 319 1663 
Q 319 2450 753 2931 
Q 1188 3413 1894 3413 
Q 2647 3413 3050 2948 
Q 3453 2484 3469 1600 
z
M 2791 1931 
Q 2772 2513 2545 2808 
Q 2319 3103 1894 3103 
Q 1497 3103 1269 2806 
Q 1041 2509 991 1931 
L 2791 1931 
z
" transform="scale(0.015625)"/>
       <path id="DejaVuSerif-69" d="M 622 4353 
Q 622 4497 726 4603 
Q 831 4709 978 4709 
Q 1122 4709 1226 4603 
Q 1331 4497 1331 4353 
Q 1331 4206 1228 4103 
Q 1125 4000 978 4000 
Q 831 4000 726 4103 
Q 622 4206 622 4353 
z
M 1356 331 
L 1900 331 
L 1900 0 
L 231 0 
L 231 331 
L 781 331 
L 781 2988 
L 231 2988 
L 231 3322 
L 1356 3322 
L 1356 331 
z
" transform="scale(0.015625)"/>
       <path id="DejaVuSerif-74" d="M 691 2988 
L 184 2988 
L 184 3322 
L 691 3322 
L 691 4353 
L 1269 4353 
L 1269 3322 
L 2350 3322 
L 2350 2988 
L 1269 2988 
L 1269 878 
Q 1269 456 1350 337 
Q 1431 219 1650 219 
Q 1875 219 1978 351 
Q 2081 484 2088 781 
L 2522 781 
Q 2497 328 2275 118 
Q 2053 -91 1600 -91 
Q 1103 -91 897 129 
Q 691 350 691 878 
L 691 2988 
z
" transform="scale(0.015625)"/>
       <path id="DejaVuSerif-20" transform="scale(0.015625)"/>
       <path id="DejaVuSerif-6e" d="M 263 0 
L 263 331 
L 781 331 
L 781 2988 
L 231 2988 
L 231 3322 
L 1356 3322 
L 1356 2731 
Q 1516 3069 1770 3241 
Q 2025 3413 2363 3413 
Q 2913 3413 3172 3097 
Q 3431 2781 3431 2113 
L 3431 331 
L 3944 331 
L 3944 0 
L 2356 0 
L 2356 331 
L 2853 331 
L 2853 1931 
Q 2853 2541 2703 2767 
Q 2553 2994 2175 2994 
Q 1775 2994 1565 2701 
Q 1356 2409 1356 1850 
L 1356 331 
L 1856 331 
L 1856 0 
L 263 0 
z
" transform="scale(0.015625)"/>
       <path id="DejaVuSerif-68" d="M 263 0 
L 263 331 
L 781 331 
L 781 4531 
L 231 4531 
L 231 4863 
L 1356 4863 
L 1356 2731 
Q 1516 3069 1770 3241 
Q 2025 3413 2363 3413 
Q 2913 3413 3172 3097 
Q 3431 2781 3431 2113 
L 3431 331 
L 3944 331 
L 3944 0 
L 2356 0 
L 2356 331 
L 2853 331 
L 2853 1931 
Q 2853 2541 2704 2764 
Q 2556 2988 2175 2988 
Q 1775 2988 1565 2697 
Q 1356 2406 1356 1850 
L 1356 331 
L 1856 331 
L 1856 0 
L 263 0 
z
" transform="scale(0.015625)"/>
      </defs>
      <use xlink:href="#DejaVuSerif-5a"/>
      <use xlink:href="#DejaVuSerif-65" x="69.482422"/>
      <use xlink:href="#DejaVuSerif-69" x="128.662109"/>
      <use xlink:href="#DejaVuSerif-74" x="160.644531"/>
      <use xlink:href="#DejaVuSerif-20" x="200.830078"/>
      <use xlink:href="#DejaVuSerif-69" x="232.617188"/>
      <use xlink:href="#DejaVuSerif-6e" x="264.599609"/>
      <use xlink:href="#DejaVuSerif-20" x="329.003906"/>
      <use xlink:href="#DejaVuSerif-68" x="360.791016"/>
     </g>
    </g>
   </g>
   <g id="matplotlib.axis_2">
    <g id="ytick_1">
     <g id="line2d_6">
      <defs>
       <path id="md96c549626" d="M 0 0 
L -3.5 0 
" style="stroke: #000000; stroke-width: 0.8"/>
      </defs>
      <g>
       <use xlink:href="#md96c549626" x="47.523438" y="95.030955" style="stroke: #000000; stroke-width: 0.8"/>
      </g>
     </g>
     <g id="text_7">
      <!-- 20 -->
      <g transform="translate(26.525938 99.210095)scale(0.11 -0.11)">
       <use xlink:href="#DejaVuSerif-32"/>
       <use xlink:href="#DejaVuSerif-30" x="63.623047"/>
      </g>
     </g>
    </g>
    <g id="ytick_2">
     <g id="line2d_7">
      <g>
       <use xlink:href="#md96c549626" x="47.523438" y="71.045102" style="stroke: #000000; stroke-width: 0.8"/>
      </g>
     </g>
     <g id="text_8">
      <!-- 35 -->
      <g transform="translate(26.525938 75.224243)scale(0.11 -0.11)">
       <defs>
        <path id="DejaVuSerif-33" d="M 622 4469 
Q 988 4606 1323 4678 
Q 1659 4750 1953 4750 
Q 2638 4750 3022 4454 
Q 3406 4159 3406 3634 
Q 3406 3213 3140 2930 
Q 2875 2647 2388 2547 
Q 2963 2466 3280 2130 
Q 3597 1794 3597 1259 
Q 3597 606 3158 257 
Q 2719 -91 1894 -91 
Q 1528 -91 1179 -12 
Q 831 66 488 225 
L 488 1131 
L 838 1131 
Q 869 681 1141 450 
Q 1413 219 1906 219 
Q 2384 219 2661 495 
Q 2938 772 2938 1253 
Q 2938 1803 2653 2086 
Q 2369 2369 1819 2369 
L 1522 2369 
L 1522 2688 
L 1678 2688 
Q 2225 2688 2498 2914 
Q 2772 3141 2772 3597 
Q 2772 4006 2547 4223 
Q 2322 4441 1900 4441 
Q 1478 4441 1245 4241 
Q 1013 4041 972 3647 
L 622 3647 
L 622 4469 
z
" transform="scale(0.015625)"/>
       </defs>
       <use xlink:href="#DejaVuSerif-33"/>
       <use xlink:href="#DejaVuSerif-35" x="63.623047"/>
      </g>
     </g>
    </g>
    <g id="ytick_3">
     <g id="line2d_8">
      <g>
       <use xlink:href="#md96c549626" x="47.523438" y="47.05925" style="stroke: #000000; stroke-width: 0.8"/>
      </g>
     </g>
     <g id="text_9">
      <!-- 50 -->
      <g transform="translate(26.525938 51.238391)scale(0.11 -0.11)">
       <use xlink:href="#DejaVuSerif-35"/>
       <use xlink:href="#DejaVuSerif-30" x="63.623047"/>
      </g>
     </g>
    </g>
    <g id="ytick_4">
     <g id="line2d_9">
      <g>
       <use xlink:href="#md96c549626" x="47.523438" y="23.073398" style="stroke: #000000; stroke-width: 0.8"/>
      </g>
     </g>
     <g id="text_10">
      <!-- 65 -->
      <g transform="translate(26.525938 27.252538)scale(0.11 -0.11)">
       <defs>
        <path id="DejaVuSerif-36" d="M 2094 219 
Q 2534 219 2771 542 
Q 3009 866 3009 1472 
Q 3009 2078 2771 2401 
Q 2534 2725 2094 2725 
Q 1647 2725 1412 2412 
Q 1178 2100 1178 1509 
Q 1178 888 1415 553 
Q 1653 219 2094 219 
z
M 1075 2569 
Q 1288 2803 1556 2918 
Q 1825 3034 2163 3034 
Q 2859 3034 3264 2615 
Q 3669 2197 3669 1472 
Q 3669 763 3233 336 
Q 2797 -91 2069 -91 
Q 1278 -91 853 498 
Q 428 1088 428 2181 
Q 428 3406 931 4078 
Q 1434 4750 2350 4750 
Q 2597 4750 2869 4703 
Q 3141 4656 3425 4563 
L 3425 3794 
L 3072 3794 
Q 3034 4109 2831 4275 
Q 2628 4441 2284 4441 
Q 1678 4441 1381 3981 
Q 1084 3522 1075 2569 
z
" transform="scale(0.015625)"/>
       </defs>
       <use xlink:href="#DejaVuSerif-36"/>
       <use xlink:href="#DejaVuSerif-35" x="63.623047"/>
      </g>
     </g>
    </g>
    <g id="text_11">
     <!-- $T$ in °C -->
     <g transform="translate(20.238281 74.994062)rotate(-90)scale(0.11 -0.11)">
      <defs>
       <path id="DejaVuSans-Oblique-54" d="M 378 4666 
L 4325 4666 
L 4225 4134 
L 2559 4134 
L 1759 0 
L 1125 0 
L 1925 4134 
L 275 4134 
L 378 4666 
z
" transform="scale(0.015625)"/>
       <path id="DejaVuSerif-b0" d="M 1600 4319 
Q 1363 4319 1200 4155 
Q 1038 3991 1038 3750 
Q 1038 3513 1198 3353 
Q 1359 3194 1600 3194 
Q 1838 3194 2000 3355 
Q 2163 3516 2163 3750 
Q 2163 3984 1997 4151 
Q 1831 4319 1600 4319 
z
M 1600 4750 
Q 1800 4750 1984 4673 
Q 2169 4597 2303 4453 
Q 2447 4313 2519 4134 
Q 2591 3956 2591 3750 
Q 2591 3338 2302 3052 
Q 2013 2766 1594 2766 
Q 1172 2766 890 3047 
Q 609 3328 609 3750 
Q 609 4169 896 4459 
Q 1184 4750 1600 4750 
z
" transform="scale(0.015625)"/>
       <path id="DejaVuSerif-43" d="M 4513 1234 
Q 4306 581 3820 245 
Q 3334 -91 2591 -91 
Q 2134 -91 1743 65 
Q 1353 222 1050 525 
Q 700 875 529 1320 
Q 359 1766 359 2328 
Q 359 3416 987 4083 
Q 1616 4750 2644 4750 
Q 3025 4750 3456 4650 
Q 3888 4550 4384 4347 
L 4384 3272 
L 4031 3272 
Q 3916 3859 3567 4137 
Q 3219 4416 2591 4416 
Q 1844 4416 1459 3886 
Q 1075 3356 1075 2328 
Q 1075 1303 1459 773 
Q 1844 244 2591 244 
Q 3113 244 3450 492 
Q 3788 741 3938 1234 
L 4513 1234 
z
" transform="scale(0.015625)"/>
      </defs>
      <use xlink:href="#DejaVuSans-Oblique-54" transform="translate(0 0.78125)"/>
      <use xlink:href="#DejaVuSerif-20" transform="translate(61.083984 0.78125)"/>
      <use xlink:href="#DejaVuSerif-69" transform="translate(92.871094 0.78125)"/>
      <use xlink:href="#DejaVuSerif-6e" transform="translate(124.853516 0.78125)"/>
      <use xlink:href="#DejaVuSerif-20" transform="translate(189.257812 0.78125)"/>
      <use xlink:href="#DejaVuSerif-b0" transform="translate(221.044922 0.78125)"/>
      <use xlink:href="#DejaVuSerif-43" transform="translate(271.044922 0.78125)"/>
     </g>
    </g>
   </g>
   <g id="line2d_10">
    <path d="M 65.179645 35.370145 
L 68.896741 51.488637 
L 72.613837 55.934015 
L 76.330934 60.267459 
L 80.04803 60.347412 
L 83.765126 60.411374 
L 87.482223 60.475337 
L 91.199319 60.539299 
L 94.916415 60.603261 
L 98.633512 60.651233 
L 102.350608 60.699205 
L 106.067704 60.747176 
L 109.7848 60.795148 
L 113.501897 60.85911 
L 117.218993 60.923073 
L 120.936089 60.987035 
L 124.653186 61.050997 
L 128.370282 61.114959 
L 132.087378 61.178922 
L 135.804474 61.242884 
L 139.521571 61.290856 
L 143.238667 46.643495 
L 146.955763 61.40279 
L 150.67286 61.514724 
L 154.389956 63.049818 
L 158.107052 63.049818 
L 161.824148 63.049818 
L 165.541245 63.049818 
L 169.258341 61.754582 
L 172.975437 63.049818 
L 176.692534 63.09779 
L 180.40963 63.769394 
L 184.126726 53.53543 
L 187.843823 64.824771 
L 191.560919 64.472979 
L 195.278015 63.881328 
L 198.995111 63.049818 
L 202.712208 51.584581 
L 206.429304 63.849347 
L 210.1464 63.049818 
L 213.863497 62.282271 
L 217.580593 63.049818 
L 221.297689 63.049818 
L 225.014785 63.049818 
L 228.731882 63.289677 
L 232.448978 63.929299 
L 236.166074 63.94529 
L 239.883171 63.049818 
L 243.600267 61.802554 
L 247.317363 60.267459 
L 251.034459 50.305335 
L 254.751556 59.739771 
L 258.468652 67.910951 
L 262.185748 65.464394 
L 265.902845 63.049818 
L 269.619941 69.557979 
L 273.337037 66.983498 
L 277.054134 63.049818 
L 280.77123 69.557979 
L 284.488326 66.359866 
L 288.205422 63.049818 
L 291.922519 55.23043 
L 295.639615 65.672271 
L 299.356711 64.824771 
L 303.073808 64.21713 
L 306.790904 63.833356 
L 310.508 63.65746 
L 314.225096 63.705431 
L 317.942193 63.94529 
L 321.659289 63.833356 
L 325.376385 63.049818 
L 329.093482 55.518261 
L 332.810578 65.800196 
L 336.527674 64.488969 
L 340.24477 63.049818 
L 343.961867 56.173874 
L 347.678963 66.135998 
L 351.396059 65.144583 
L 355.113156 64.153167 
L 358.830252 63.177743 
L 362.547348 63.049818 
L 366.264445 63.049818 
L 369.981541 63.049818 
L 373.698637 61.354818 
L 377.415733 61.066988 
L 381.13283 61.035007 
L 384.849926 45.780005 
L 388.567022 60.971044 
L 392.284119 45.811986 
L 396.001215 60.987035 
L 399.718311 61.035007 
L 403.435407 61.082978 
L 407.152504 61.13095 
L 410.8696 61.13095 
L 414.586696 49.745665 
L 418.303793 18.963822 
" clip-path="url(#p496a824407)" style="fill: none; stroke: #ec635c; stroke-width: 1.5; stroke-linecap: square"/>
   </g>
   <g id="line2d_11">
    <path d="M 65.179645 43.845146 
L 68.896741 43.989061 
L 72.613837 44.116985 
L 76.330934 44.24491 
L 80.04803 44.372835 
L 83.765126 44.500759 
L 87.482223 44.628684 
L 91.199319 44.756608 
L 94.916415 44.884533 
L 98.633512 45.012457 
L 102.350608 45.140382 
L 106.067704 45.268306 
L 109.7848 45.396231 
L 113.501897 45.524155 
L 117.218993 45.65208 
L 120.936089 45.780005 
L 124.653186 45.859957 
L 128.370282 45.987882 
L 132.087378 46.115806 
L 135.804474 46.243731 
L 139.521571 46.371656 
L 143.238667 46.48359 
L 146.955763 38.696183 
L 150.67286 38.840098 
L 154.389956 38.984013 
L 158.107052 39.127928 
L 161.824148 39.271843 
L 165.541245 44.484769 
L 169.258341 45.332269 
L 172.975437 46.195759 
L 176.692534 46.323684 
L 180.40963 46.435618 
L 184.126726 46.515571 
L 187.843823 34.490663 
L 191.560919 34.650569 
L 195.278015 34.794484 
L 198.995111 34.95439 
L 202.712208 35.833871 
L 206.429304 43.605287 
L 210.1464 44.468778 
L 213.863497 44.596702 
L 217.580593 44.724627 
L 221.297689 44.852552 
L 225.014785 45.700052 
L 228.731882 45.827976 
L 232.448978 45.955901 
L 236.166074 46.083825 
L 239.883171 46.21175 
L 243.600267 46.77142 
L 247.317363 46.899344 
L 251.034459 47.027269 
L 254.751556 43.557316 
L 258.468652 39.367787 
L 262.185748 39.511702 
L 265.902845 39.655617 
L 269.619941 23.792973 
L 273.337037 23.96887 
L 277.054134 24.160756 
L 280.77123 24.336653 
L 284.488326 24.512549 
L 288.205422 24.688445 
L 291.922519 24.864341 
L 295.639615 25.040238 
L 299.356711 25.216134 
L 303.073808 25.328068 
L 306.790904 25.503964 
L 310.508 25.67986 
L 314.225096 25.855757 
L 317.942193 26.031653 
L 321.659289 28.382266 
L 325.376385 29.277738 
L 329.093482 30.157219 
L 332.810578 30.317125 
L 336.527674 30.493021 
L 340.24477 31.372503 
L 343.961867 31.532408 
L 347.678963 41.366608 
L 351.396059 42.214108 
L 355.113156 42.358023 
L 358.830252 43.221514 
L 362.547348 43.797174 
L 366.264445 44.644674 
L 369.981541 44.772599 
L 373.698637 45.636089 
L 377.415733 45.764014 
L 381.13283 45.875948 
L 384.849926 46.739439 
L 388.567022 29.59755 
L 392.284119 30.493021 
L 396.001215 38.280428 
L 399.718311 38.424343 
L 403.435407 38.568258 
L 407.152504 39.44774 
L 410.8696 39.575664 
L 414.586696 39.719579 
L 418.303793 40.58307 
" clip-path="url(#p496a824407)" style="fill: none; stroke-dasharray: 5.55,2.4; stroke-dashoffset: 0; stroke: #4b81c4; stroke-width: 1.5"/>
   </g>
   <g id="patch_3">
    <path d="M 47.523438 99.828125 
L 47.523438 11.88 
" style="fill: none; stroke: #000000; stroke-width: 0.5; stroke-linejoin: miter; stroke-linecap: square"/>
   </g>
   <g id="patch_4">
    <path d="M 435.96 99.828125 
L 435.96 11.88 
" style="fill: none; stroke: #000000; stroke-width: 0.5; stroke-linejoin: miter; stroke-linecap: square"/>
   </g>
   <g id="patch_5">
    <path d="M 47.523438 99.828125 
L 435.96 99.828125 
" style="fill: none; stroke: #000000; stroke-width: 0.5; stroke-linejoin: miter; stroke-linecap: square"/>
   </g>
   <g id="patch_6">
    <path d="M 47.523438 11.88 
L 435.96 11.88 
" style="fill: none; stroke: #000000; stroke-width: 0.5; stroke-linejoin: miter; stroke-linecap: square"/>
   </g>
   <g id="legend_1">
    <g id="patch_7">
     <path d="M 55.223438 94.328125 
L 119.683438 94.328125 
Q 121.883438 94.328125 121.883438 92.128125 
L 121.883438 58.73625 
Q 121.883438 56.53625 119.683438 56.53625 
L 55.223438 56.53625 
Q 53.023438 56.53625 53.023438 58.73625 
L 53.023438 92.128125 
Q 53.023438 94.328125 55.223438 94.328125 
z
" style="fill: #ffffff; opacity: 0.8; stroke: #cccccc; stroke-width: 1.5; stroke-linejoin: miter"/>
    </g>
    <g id="line2d_12">
     <path d="M 58.523438 66.544531 
L 69.523438 66.544531 
L 80.523438 66.544531 
" style="fill: none; stroke: #ec635c; stroke-width: 1.5; stroke-linecap: square"/>
    </g>
    <g id="text_12">
     <!-- $T_{\mathrm{PS}}$ -->
     <g transform="translate(89.323438 70.394531)scale(0.11 -0.11)">
      <defs>
       <path id="DejaVuSans-50" d="M 1259 4147 
L 1259 2394 
L 2053 2394 
Q 2494 2394 2734 2622 
Q 2975 2850 2975 3272 
Q 2975 3691 2734 3919 
Q 2494 4147 2053 4147 
L 1259 4147 
z
M 628 4666 
L 2053 4666 
Q 2838 4666 3239 4311 
Q 3641 3956 3641 3272 
Q 3641 2581 3239 2228 
Q 2838 1875 2053 1875 
L 1259 1875 
L 1259 0 
L 628 0 
L 628 4666 
z
" transform="scale(0.015625)"/>
       <path id="DejaVuSans-53" d="M 3425 4513 
L 3425 3897 
Q 3066 4069 2747 4153 
Q 2428 4238 2131 4238 
Q 1616 4238 1336 4038 
Q 1056 3838 1056 3469 
Q 1056 3159 1242 3001 
Q 1428 2844 1947 2747 
L 2328 2669 
Q 3034 2534 3370 2195 
Q 3706 1856 3706 1288 
Q 3706 609 3251 259 
Q 2797 -91 1919 -91 
Q 1588 -91 1214 -16 
Q 841 59 441 206 
L 441 856 
Q 825 641 1194 531 
Q 1563 422 1919 422 
Q 2459 422 2753 634 
Q 3047 847 3047 1241 
Q 3047 1584 2836 1778 
Q 2625 1972 2144 2069 
L 1759 2144 
Q 1053 2284 737 2584 
Q 422 2884 422 3419 
Q 422 4038 858 4394 
Q 1294 4750 2059 4750 
Q 2388 4750 2728 4690 
Q 3069 4631 3425 4513 
z
" transform="scale(0.015625)"/>
      </defs>
      <use xlink:href="#DejaVuSans-Oblique-54" transform="translate(0 0.09375)"/>
      <use xlink:href="#DejaVuSans-50" transform="translate(61.083984 -16.3125)scale(0.7)"/>
      <use xlink:href="#DejaVuSans-53" transform="translate(103.295898 -16.3125)scale(0.7)"/>
     </g>
    </g>
    <g id="line2d_13">
     <path d="M 58.523438 82.690469 
L 69.523438 82.690469 
L 80.523438 82.690469 
" style="fill: none; stroke-dasharray: 5.55,2.4; stroke-dashoffset: 0; stroke: #4b81c4; stroke-width: 1.5"/>
    </g>
    <g id="text_13">
     <!-- $T_{\mathrm{TWW}}$ -->
     <g transform="translate(89.323438 86.540469)scale(0.11 -0.11)">
      <defs>
       <path id="DejaVuSans-54" d="M -19 4666 
L 3928 4666 
L 3928 4134 
L 2272 4134 
L 2272 0 
L 1638 0 
L 1638 4134 
L -19 4134 
L -19 4666 
z
" transform="scale(0.015625)"/>
       <path id="DejaVuSans-57" d="M 213 4666 
L 850 4666 
L 1831 722 
L 2809 4666 
L 3519 4666 
L 4500 722 
L 5478 4666 
L 6119 4666 
L 4947 0 
L 4153 0 
L 3169 4050 
L 2175 0 
L 1381 0 
L 213 4666 
z
" transform="scale(0.015625)"/>
      </defs>
      <use xlink:href="#DejaVuSans-Oblique-54" transform="translate(0 0.09375)"/>
      <use xlink:href="#DejaVuSans-54" transform="translate(61.083984 -16.3125)scale(0.7)"/>
      <use xlink:href="#DejaVuSans-57" transform="translate(103.842773 -16.3125)scale(0.7)"/>
      <use xlink:href="#DejaVuSans-57" transform="translate(173.056641 -16.3125)scale(0.7)"/>
     </g>
    </g>
   </g>
  </g>
 </g>
 <defs>
  <clipPath id="p496a824407">
   <rect x="47.523438" y="11.88" width="388.436562" height="87.948125"/>
  </clipPath>
 </defs>
</svg>
