<?xml version="1.0" encoding="utf-8" standalone="no"?>
<!DOCTYPE svg PUBLIC "-//W3C//DTD SVG 1.1//EN"
  "http://www.w3.org/Graphics/SVG/1.1/DTD/svg11.dtd">
<svg xmlns:xlink="http://www.w3.org/1999/xlink" width="1008pt" height="360pt" viewBox="0 0 1008 360" xmlns="http://www.w3.org/2000/svg" version="1.1">
 <metadata>
  <rdf:RDF xmlns:dc="http://purl.org/dc/elements/1.1/" xmlns:cc="http://creativecommons.org/ns#" xmlns:rdf="http://www.w3.org/1999/02/22-rdf-syntax-ns#">
   <cc:Work>
    <dc:type rdf:resource="http://purl.org/dc/dcmitype/StillImage"/>
    <dc:date>2023-04-08T19:01:16.422606</dc:date>
    <dc:format>image/svg+xml</dc:format>
    <dc:creator>
     <cc:Agent>
      <dc:title>Matplotlib v3.5.3, https://matplotlib.org/</dc:title>
     </cc:Agent>
    </dc:creator>
   </cc:Work>
  </rdf:RDF>
 </metadata>
 <defs>
  <style type="text/css">*{stroke-linejoin: round; stroke-linecap: butt}</style>
 </defs>
 <g id="figure_1">
  <g id="patch_1">
   <path d="M 0 360 
L 1008 360 
L 1008 0 
L 0 0 
z
" style="fill: #ffffff"/>
  </g>
  <g id="axes_1">
   <g id="patch_2">
    <path d="M 30.025938 329.974063 
L 332.04 329.974063 
L 332.04 26.238281 
L 30.025938 26.238281 
z
" style="fill: #ffffff"/>
   </g>
   <g id="PathCollection_1">
    <defs>
     <path id="m401484cbc3" d="M 0 2.236068 
C 0.593012 2.236068 1.161816 2.000462 1.581139 1.581139 
C 2.000462 1.161816 2.236068 0.593012 2.236068 0 
C 2.236068 -0.593012 2.000462 -1.161816 1.581139 -1.581139 
C 1.161816 -2.000462 0.593012 -2.236068 0 -2.236068 
C -0.593012 -2.236068 -1.161816 -2.000462 -1.581139 -1.581139 
C -2.000462 -1.161816 -2.236068 -0.593012 -2.236068 0 
C -2.236068 0.593012 -2.000462 1.161816 -1.581139 1.581139 
C -1.161816 2.000462 -0.593012 2.236068 0 2.236068 
z
" style="stroke: #0000ff; stroke-width: 1.5"/>
    </defs>
    <g clip-path="url(#p1b821dbbc0)">
     <use xlink:href="#m401484cbc3" x="36.132178" y="95.952614" style="fill: #ec635c; stroke: #0000ff; stroke-width: 1.5"/>
     <use xlink:href="#m401484cbc3" x="51.479826" y="112.022672" style="fill: #ec635c; stroke: #0000ff; stroke-width: 1.5"/>
     <use xlink:href="#m401484cbc3" x="56.340211" y="91.248211" style="fill: #ec635c; stroke: #0000ff; stroke-width: 1.5"/>
     <use xlink:href="#m401484cbc3" x="65.746477" y="124.707864" style="fill: #ec635c; stroke: #0000ff; stroke-width: 1.5"/>
     <use xlink:href="#m401484cbc3" x="73.320646" y="118.502014" style="fill: #ec635c; stroke: #0000ff; stroke-width: 1.5"/>
     <use xlink:href="#m401484cbc3" x="145.830668" y="197.2916" style="fill: #ec635c; stroke: #0000ff; stroke-width: 1.5"/>
     <use xlink:href="#m401484cbc3" x="155.259675" y="194.861804" style="fill: #ec635c; stroke: #0000ff; stroke-width: 1.5"/>
     <use xlink:href="#m401484cbc3" x="157.975645" y="198.301463" style="fill: #ec635c; stroke: #0000ff; stroke-width: 1.5"/>
     <use xlink:href="#m401484cbc3" x="162.183429" y="212.752128" style="fill: #ec635c; stroke: #0000ff; stroke-width: 1.5"/>
     <use xlink:href="#m401484cbc3" x="169.399194" y="218.352626" style="fill: #ec635c; stroke: #0000ff; stroke-width: 1.5"/>
     <use xlink:href="#m401484cbc3" x="187.631469" y="243.774948" style="fill: #ec635c; stroke: #0000ff; stroke-width: 1.5"/>
     <use xlink:href="#m401484cbc3" x="189.759641" y="253.632105" style="fill: #ec635c; stroke: #0000ff; stroke-width: 1.5"/>
     <use xlink:href="#m401484cbc3" x="194.588321" y="244.51694" style="fill: #ec635c; stroke: #0000ff; stroke-width: 1.5"/>
     <use xlink:href="#m401484cbc3" x="195.775333" y="241.440439" style="fill: #ec635c; stroke: #0000ff; stroke-width: 1.5"/>
     <use xlink:href="#m401484cbc3" x="201.583383" y="236.644143" style="fill: #ec635c; stroke: #0000ff; stroke-width: 1.5"/>
     <use xlink:href="#m401484cbc3" x="212.068953" y="241.492931" style="fill: #ec635c; stroke: #0000ff; stroke-width: 1.5"/>
     <use xlink:href="#m401484cbc3" x="223.291085" y="256.378933" style="fill: #ec635c; stroke: #0000ff; stroke-width: 1.5"/>
     <use xlink:href="#m401484cbc3" x="225.095043" y="255.972107" style="fill: #ec635c; stroke: #0000ff; stroke-width: 1.5"/>
     <use xlink:href="#m401484cbc3" x="246.023183" y="260.025747" style="fill: #ec635c; stroke: #0000ff; stroke-width: 1.5"/>
     <use xlink:href="#m401484cbc3" x="265.040219" y="254.581745" style="fill: #ec635c; stroke: #0000ff; stroke-width: 1.5"/>
     <use xlink:href="#m401484cbc3" x="265.756725" y="256.3255" style="fill: #ec635c; stroke: #0000ff; stroke-width: 1.5"/>
     <use xlink:href="#m401484cbc3" x="269.138033" y="226.418326" style="fill: #ec635c; stroke: #0000ff; stroke-width: 1.5"/>
     <use xlink:href="#m401484cbc3" x="271.383062" y="243.584508" style="fill: #ec635c; stroke: #0000ff; stroke-width: 1.5"/>
     <use xlink:href="#m401484cbc3" x="281.48884" y="235.306276" style="fill: #ec635c; stroke: #0000ff; stroke-width: 1.5"/>
     <use xlink:href="#m401484cbc3" x="292.781841" y="231.278002" style="fill: #ec635c; stroke: #0000ff; stroke-width: 1.5"/>
     <use xlink:href="#m401484cbc3" x="299.353924" y="209.272117" style="fill: #ec635c; stroke: #0000ff; stroke-width: 1.5"/>
     <use xlink:href="#m401484cbc3" x="309.569138" y="216.442766" style="fill: #ec635c; stroke: #0000ff; stroke-width: 1.5"/>
     <use xlink:href="#m401484cbc3" x="315.329235" y="199.297147" style="fill: #ec635c; stroke: #0000ff; stroke-width: 1.5"/>
     <use xlink:href="#m401484cbc3" x="321.065643" y="197.844918" style="fill: #ec635c; stroke: #0000ff; stroke-width: 1.5"/>
     <use xlink:href="#m401484cbc3" x="325.582439" y="182.806334" style="fill: #ec635c; stroke: #0000ff; stroke-width: 1.5"/>
    </g>
   </g>
   <g id="matplotlib.axis_1">
    <g id="text_1">
     <!-- x -->
     <g transform="translate(177.931484 345.832344)scale(0.11 -0.11)">
      <defs>
       <path id="DejaVuSerif-78" d="M 1863 2028 
L 2559 2988 
L 2113 2988 
L 2113 3322 
L 3391 3322 
L 3391 2988 
L 2950 2988 
L 2059 1759 
L 3097 331 
L 3531 331 
L 3531 0 
L 1997 0 
L 1997 331 
L 2419 331 
L 1697 1325 
L 972 331 
L 1403 331 
L 1403 0 
L 141 0 
L 141 331 
L 581 331 
L 1497 1594 
L 488 2988 
L 78 2988 
L 78 3322 
L 1563 3322 
L 1563 2988 
L 1166 2988 
L 1863 2028 
z
" transform="scale(0.015625)"/>
      </defs>
      <use xlink:href="#DejaVuSerif-78"/>
     </g>
    </g>
   </g>
   <g id="matplotlib.axis_2">
    <g id="text_2">
     <!-- y -->
     <g transform="translate(20.081875 181.213672)rotate(-90)scale(0.11 -0.11)">
      <defs>
       <path id="DejaVuSerif-79" d="M 1381 -609 
L 1600 -56 
L 359 2988 
L -19 2988 
L -19 3322 
L 1509 3322 
L 1509 2988 
L 978 2988 
L 1913 703 
L 2847 2988 
L 2350 2988 
L 2350 3322 
L 3597 3322 
L 3597 2988 
L 3225 2988 
L 1703 -750 
Q 1547 -1138 1356 -1280 
Q 1166 -1422 819 -1422 
Q 672 -1422 517 -1397 
Q 363 -1372 206 -1325 
L 206 -691 
L 500 -691 
Q 519 -903 608 -995 
Q 697 -1088 884 -1088 
Q 1056 -1088 1161 -992 
Q 1266 -897 1381 -609 
z
" transform="scale(0.015625)"/>
      </defs>
      <use xlink:href="#DejaVuSerif-79"/>
     </g>
    </g>
   </g>
   <g id="line2d_1">
    <path d="M 30.025938 137.353917 
L 33.076585 138.588275 
L 36.127232 139.822632 
L 39.177879 141.05699 
L 42.228526 142.291347 
L 45.279173 143.525705 
L 48.32982 144.760062 
L 51.380467 145.99442 
L 54.431114 147.228777 
L 57.481761 148.463135 
L 60.532408 149.697492 
L 63.583056 150.93185 
L 66.633703 152.166207 
L 69.68435 153.400565 
L 72.734997 154.634922 
L 75.785644 155.86928 
L 78.836291 157.103637 
L 81.886938 158.337995 
L 84.937585 159.572352 
L 87.988232 160.80671 
L 91.038879 162.041067 
L 94.089527 163.275425 
L 97.140174 164.509782 
L 100.190821 165.74414 
L 103.241468 166.978497 
L 106.292115 168.212855 
L 109.342762 169.447212 
L 112.393409 170.68157 
L 115.444056 171.915927 
L 118.494703 173.150285 
L 121.54535 174.384642 
L 124.595997 175.619 
L 127.646645 176.853357 
L 130.697292 178.087715 
L 133.747939 179.322072 
L 136.798586 180.55643 
L 139.849233 181.790787 
L 142.89988 183.025145 
L 145.950527 184.259502 
L 149.001174 185.49386 
L 152.051821 186.728217 
L 155.102468 187.962575 
L 158.153116 189.196932 
L 161.203763 190.43129 
L 164.25441 191.665647 
L 167.305057 192.900005 
L 170.355704 194.134363 
L 173.406351 195.36872 
L 176.456998 196.603078 
L 179.507645 197.837435 
L 182.558292 199.071793 
L 185.608939 200.30615 
L 188.659586 201.540508 
L 191.710234 202.774865 
L 194.760881 204.009223 
L 197.811528 205.24358 
L 200.862175 206.477938 
L 203.912822 207.712295 
L 206.963469 208.946653 
L 210.014116 210.18101 
L 213.064763 211.415368 
L 216.11541 212.649725 
L 219.166057 213.884083 
L 222.216705 215.11844 
L 225.267352 216.352798 
L 228.317999 217.587155 
L 231.368646 218.821513 
L 234.419293 220.05587 
L 237.46994 221.290228 
L 240.520587 222.524585 
L 243.571234 223.758943 
L 246.621881 224.9933 
L 249.672528 226.227658 
L 252.723176 227.462015 
L 255.773823 228.696373 
L 258.82447 229.93073 
L 261.875117 231.165088 
L 264.925764 232.399445 
L 267.976411 233.633803 
L 271.027058 234.86816 
L 274.077705 236.102518 
L 277.128352 237.336875 
L 280.178999 238.571233 
L 283.229646 239.80559 
L 286.280294 241.039948 
L 289.330941 242.274305 
L 292.381588 243.508663 
L 295.432235 244.74302 
L 298.482882 245.977378 
L 301.533529 247.211735 
L 304.584176 248.446093 
L 307.634823 249.68045 
L 310.68547 250.914808 
L 313.736117 252.149166 
L 316.786765 253.383523 
L 319.837412 254.617881 
L 322.888059 255.852238 
L 325.938706 257.086596 
L 328.989353 258.320953 
L 332.04 259.555311 
" clip-path="url(#p1b821dbbc0)" style="fill: none; stroke: #ec635c; stroke-width: 1.5; stroke-linecap: square"/>
   </g>
   <g id="line2d_2">
    <path d="M 30.025938 102.172227 
L 33.076585 102.258234 
L 36.127232 102.516061 
L 39.177879 102.945125 
L 42.228526 103.544452 
L 45.279173 104.312685 
L 48.32982 105.248085 
L 51.380467 106.348531 
L 54.431114 107.611532 
L 57.481761 109.034226 
L 60.532408 110.61339 
L 63.583056 112.345446 
L 66.633703 114.226472 
L 69.68435 116.252206 
L 72.734997 118.418059 
L 75.785644 120.719125 
L 78.836291 123.150191 
L 81.886938 125.70575 
L 84.937585 128.380013 
L 87.988232 131.166921 
L 91.038879 134.060162 
L 94.089527 137.053182 
L 97.140174 140.139199 
L 100.190821 143.311224 
L 103.241468 146.562071 
L 106.292115 149.884375 
L 109.342762 153.270611 
L 112.393409 156.713107 
L 115.444056 160.204066 
L 118.494703 163.735578 
L 121.54535 167.299645 
L 124.595997 170.888191 
L 127.646645 174.493089 
L 130.697292 178.106172 
L 133.747939 181.719254 
L 136.798586 185.324152 
L 139.849233 188.912699 
L 142.89988 192.476766 
L 145.950527 196.008278 
L 149.001174 199.499236 
L 152.051821 202.941733 
L 155.102468 206.327968 
L 158.153116 209.650273 
L 161.203763 212.90112 
L 164.25441 216.073145 
L 167.305057 219.159162 
L 170.355704 222.152182 
L 173.406351 225.045423 
L 176.456998 227.832331 
L 179.507645 230.506594 
L 182.558292 233.062153 
L 185.608939 235.493219 
L 188.659586 237.794285 
L 191.710234 239.960138 
L 194.760881 241.985872 
L 197.811528 243.866898 
L 200.862175 245.598954 
L 203.912822 247.178118 
L 206.963469 248.600812 
L 210.014116 249.863812 
L 213.064763 250.964259 
L 216.11541 251.899658 
L 219.166057 252.667892 
L 222.216705 253.267219 
L 225.267352 253.696282 
L 228.317999 253.95411 
L 231.368646 254.040117 
L 234.419293 253.95411 
L 237.46994 253.696282 
L 240.520587 253.267219 
L 243.571234 252.667892 
L 246.621881 251.899658 
L 249.672528 250.964259 
L 252.723176 249.863812 
L 255.773823 248.600812 
L 258.82447 247.178118 
L 261.875117 245.598954 
L 264.925764 243.866898 
L 267.976411 241.985872 
L 271.027058 239.960138 
L 274.077705 237.794285 
L 277.128352 235.493219 
L 280.178999 233.062153 
L 283.229646 230.506594 
L 286.280294 227.832331 
L 289.330941 225.045423 
L 292.381588 222.152182 
L 295.432235 219.159162 
L 298.482882 216.073145 
L 301.533529 212.90112 
L 304.584176 209.650273 
L 307.634823 206.327968 
L 310.68547 202.941733 
L 313.736117 199.499236 
L 316.786765 196.008278 
L 319.837412 192.476766 
L 322.888059 188.912699 
L 325.938706 185.324152 
L 328.989353 181.719254 
L 332.04 178.106172 
" clip-path="url(#p1b821dbbc0)" style="fill: none; stroke-dasharray: 5.55,2.4; stroke-dashoffset: 0; stroke: #4b81c4; stroke-width: 1.5"/>
   </g>
   <g id="patch_3">
    <path d="M 30.025938 329.974063 
L 30.025938 26.238281 
" style="fill: none; stroke: #000000; stroke-width: 0.5; stroke-linejoin: miter; stroke-linecap: square"/>
   </g>
   <g id="patch_4">
    <path d="M 332.04 329.974063 
L 332.04 26.238281 
" style="fill: none; stroke: #000000; stroke-width: 0.5; stroke-linejoin: miter; stroke-linecap: square"/>
   </g>
   <g id="patch_5">
    <path d="M 30.025938 329.974063 
L 332.04 329.974063 
" style="fill: none; stroke: #000000; stroke-width: 0.5; stroke-linejoin: miter; stroke-linecap: square"/>
   </g>
   <g id="patch_6">
    <path d="M 30.025938 26.238281 
L 332.04 26.238281 
" style="fill: none; stroke: #000000; stroke-width: 0.5; stroke-linejoin: miter; stroke-linecap: square"/>
   </g>
   <g id="text_3">
    <!-- Underfitting -->
    <g transform="translate(146.412188 20.238281)scale(0.11 -0.11)">
     <defs>
      <path id="DejaVuSerif-55" d="M 897 4331 
L 300 4331 
L 300 4666 
L 2125 4666 
L 2125 4331 
L 1528 4331 
L 1528 1919 
Q 1528 1025 1820 672 
Q 2113 319 2828 319 
Q 3544 319 3836 672 
Q 4128 1025 4128 1919 
L 4128 4331 
L 3531 4331 
L 3531 4666 
L 5106 4666 
L 5106 4331 
L 4513 4331 
L 4513 1856 
Q 4513 791 4103 350 
Q 3694 -91 2713 -91 
Q 1731 -91 1314 353 
Q 897 797 897 1856 
L 897 4331 
z
" transform="scale(0.015625)"/>
      <path id="DejaVuSerif-6e" d="M 263 0 
L 263 331 
L 781 331 
L 781 2988 
L 231 2988 
L 231 3322 
L 1356 3322 
L 1356 2731 
Q 1516 3069 1770 3241 
Q 2025 3413 2363 3413 
Q 2913 3413 3172 3097 
Q 3431 2781 3431 2113 
L 3431 331 
L 3944 331 
L 3944 0 
L 2356 0 
L 2356 331 
L 2853 331 
L 2853 1931 
Q 2853 2541 2703 2767 
Q 2553 2994 2175 2994 
Q 1775 2994 1565 2701 
Q 1356 2409 1356 1850 
L 1356 331 
L 1856 331 
L 1856 0 
L 263 0 
z
" transform="scale(0.015625)"/>
      <path id="DejaVuSerif-64" d="M 3359 331 
L 3909 331 
L 3909 0 
L 2784 0 
L 2784 519 
Q 2616 206 2355 57 
Q 2094 -91 1709 -91 
Q 1097 -91 708 395 
Q 319 881 319 1663 
Q 319 2444 706 2928 
Q 1094 3413 1709 3413 
Q 2094 3413 2355 3264 
Q 2616 3116 2784 2803 
L 2784 4531 
L 2241 4531 
L 2241 4863 
L 3359 4863 
L 3359 331 
z
M 2784 1497 
L 2784 1825 
Q 2784 2422 2554 2737 
Q 2325 3053 1888 3053 
Q 1444 3053 1217 2703 
Q 991 2353 991 1663 
Q 991 975 1217 622 
Q 1444 269 1888 269 
Q 2325 269 2554 583 
Q 2784 897 2784 1497 
z
" transform="scale(0.015625)"/>
      <path id="DejaVuSerif-65" d="M 3469 1600 
L 991 1600 
L 991 1575 
Q 991 903 1244 561 
Q 1497 219 1991 219 
Q 2369 219 2611 417 
Q 2853 616 2950 1006 
L 3413 1006 
Q 3275 459 2904 184 
Q 2534 -91 1931 -91 
Q 1203 -91 761 389 
Q 319 869 319 1663 
Q 319 2450 753 2931 
Q 1188 3413 1894 3413 
Q 2647 3413 3050 2948 
Q 3453 2484 3469 1600 
z
M 2791 1931 
Q 2772 2513 2545 2808 
Q 2319 3103 1894 3103 
Q 1497 3103 1269 2806 
Q 1041 2509 991 1931 
L 2791 1931 
z
" transform="scale(0.015625)"/>
      <path id="DejaVuSerif-72" d="M 3059 3328 
L 3059 2497 
L 2728 2497 
Q 2713 2744 2591 2866 
Q 2469 2988 2234 2988 
Q 1809 2988 1582 2694 
Q 1356 2400 1356 1850 
L 1356 331 
L 2022 331 
L 2022 0 
L 263 0 
L 263 331 
L 781 331 
L 781 2994 
L 231 2994 
L 231 3322 
L 1356 3322 
L 1356 2731 
Q 1525 3078 1790 3245 
Q 2056 3413 2438 3413 
Q 2578 3413 2733 3391 
Q 2888 3369 3059 3328 
z
" transform="scale(0.015625)"/>
      <path id="DejaVuSerif-66" d="M 2753 4078 
L 2450 4078 
Q 2447 4313 2317 4434 
Q 2188 4556 1941 4556 
Q 1619 4556 1487 4379 
Q 1356 4203 1356 3750 
L 1356 3322 
L 2284 3322 
L 2284 2988 
L 1356 2988 
L 1356 331 
L 2094 331 
L 2094 0 
L 231 0 
L 231 331 
L 781 331 
L 781 2988 
L 231 2988 
L 231 3322 
L 781 3322 
L 781 3738 
Q 781 4294 1070 4578 
Q 1359 4863 1919 4863 
Q 2128 4863 2337 4825 
Q 2547 4788 2753 4709 
L 2753 4078 
z
" transform="scale(0.015625)"/>
      <path id="DejaVuSerif-69" d="M 622 4353 
Q 622 4497 726 4603 
Q 831 4709 978 4709 
Q 1122 4709 1226 4603 
Q 1331 4497 1331 4353 
Q 1331 4206 1228 4103 
Q 1125 4000 978 4000 
Q 831 4000 726 4103 
Q 622 4206 622 4353 
z
M 1356 331 
L 1900 331 
L 1900 0 
L 231 0 
L 231 331 
L 781 331 
L 781 2988 
L 231 2988 
L 231 3322 
L 1356 3322 
L 1356 331 
z
" transform="scale(0.015625)"/>
      <path id="DejaVuSerif-74" d="M 691 2988 
L 184 2988 
L 184 3322 
L 691 3322 
L 691 4353 
L 1269 4353 
L 1269 3322 
L 2350 3322 
L 2350 2988 
L 1269 2988 
L 1269 878 
Q 1269 456 1350 337 
Q 1431 219 1650 219 
Q 1875 219 1978 351 
Q 2081 484 2088 781 
L 2522 781 
Q 2497 328 2275 118 
Q 2053 -91 1600 -91 
Q 1103 -91 897 129 
Q 691 350 691 878 
L 691 2988 
z
" transform="scale(0.015625)"/>
      <path id="DejaVuSerif-67" d="M 3359 2988 
L 3359 72 
Q 3359 -644 2965 -1033 
Q 2572 -1422 1844 -1422 
Q 1516 -1422 1216 -1362 
Q 916 -1303 641 -1184 
L 641 -488 
L 941 -488 
Q 997 -813 1206 -963 
Q 1416 -1113 1806 -1113 
Q 2313 -1113 2548 -827 
Q 2784 -541 2784 72 
L 2784 519 
Q 2616 206 2355 57 
Q 2094 -91 1709 -91 
Q 1097 -91 708 395 
Q 319 881 319 1663 
Q 319 2444 706 2928 
Q 1094 3413 1709 3413 
Q 2094 3413 2355 3264 
Q 2616 3116 2784 2803 
L 2784 3322 
L 3909 3322 
L 3909 2988 
L 3359 2988 
z
M 2784 1825 
Q 2784 2422 2554 2737 
Q 2325 3053 1888 3053 
Q 1444 3053 1217 2703 
Q 991 2353 991 1663 
Q 991 975 1217 622 
Q 1444 269 1888 269 
Q 2325 269 2554 583 
Q 2784 897 2784 1497 
L 2784 1825 
z
" transform="scale(0.015625)"/>
     </defs>
     <use xlink:href="#DejaVuSerif-55"/>
     <use xlink:href="#DejaVuSerif-6e" x="84.277344"/>
     <use xlink:href="#DejaVuSerif-64" x="148.681641"/>
     <use xlink:href="#DejaVuSerif-65" x="212.695312"/>
     <use xlink:href="#DejaVuSerif-72" x="271.875"/>
     <use xlink:href="#DejaVuSerif-66" x="319.677734"/>
     <use xlink:href="#DejaVuSerif-69" x="356.689453"/>
     <use xlink:href="#DejaVuSerif-74" x="388.671875"/>
     <use xlink:href="#DejaVuSerif-74" x="428.857422"/>
     <use xlink:href="#DejaVuSerif-69" x="469.042969"/>
     <use xlink:href="#DejaVuSerif-6e" x="501.025391"/>
     <use xlink:href="#DejaVuSerif-67" x="565.429688"/>
    </g>
   </g>
   <g id="legend_1">
    <g id="patch_7">
     <path d="M 201.949531 85.676094 
L 324.34 85.676094 
Q 326.54 85.676094 326.54 83.476094 
L 326.54 33.938281 
Q 326.54 31.738281 324.34 31.738281 
L 201.949531 31.738281 
Q 199.749531 31.738281 199.749531 33.938281 
L 199.749531 83.476094 
Q 199.749531 85.676094 201.949531 85.676094 
z
" style="fill: #ffffff; opacity: 0.8; stroke: #cccccc; stroke-width: 1.5; stroke-linejoin: miter"/>
    </g>
    <g id="line2d_3">
     <path d="M 205.249531 41.746563 
L 216.249531 41.746563 
L 227.249531 41.746563 
" style="fill: none; stroke: #ec635c; stroke-width: 1.5; stroke-linecap: square"/>
    </g>
    <g id="text_4">
     <!-- Modell -->
     <g transform="translate(236.049531 45.596563)scale(0.11 -0.11)">
      <defs>
       <path id="DejaVuSerif-4d" d="M 353 0 
L 353 331 
L 947 331 
L 947 4331 
L 319 4331 
L 319 4666 
L 1678 4666 
L 3316 1344 
L 4953 4666 
L 6228 4666 
L 6228 4331 
L 5606 4331 
L 5606 331 
L 6203 331 
L 6203 0 
L 4378 0 
L 4378 331 
L 4972 331 
L 4972 3938 
L 3372 684 
L 2931 684 
L 1331 3938 
L 1331 331 
L 1925 331 
L 1925 0 
L 353 0 
z
" transform="scale(0.015625)"/>
       <path id="DejaVuSerif-6f" d="M 1925 219 
Q 2388 219 2623 584 
Q 2859 950 2859 1663 
Q 2859 2375 2623 2739 
Q 2388 3103 1925 3103 
Q 1463 3103 1227 2739 
Q 991 2375 991 1663 
Q 991 950 1228 584 
Q 1466 219 1925 219 
z
M 1925 -91 
Q 1200 -91 759 389 
Q 319 869 319 1663 
Q 319 2456 758 2934 
Q 1197 3413 1925 3413 
Q 2653 3413 3092 2934 
Q 3531 2456 3531 1663 
Q 3531 869 3092 389 
Q 2653 -91 1925 -91 
z
" transform="scale(0.015625)"/>
       <path id="DejaVuSerif-6c" d="M 1313 331 
L 1856 331 
L 1856 0 
L 184 0 
L 184 331 
L 738 331 
L 738 4531 
L 184 4531 
L 184 4863 
L 1313 4863 
L 1313 331 
z
" transform="scale(0.015625)"/>
      </defs>
      <use xlink:href="#DejaVuSerif-4d"/>
      <use xlink:href="#DejaVuSerif-6f" x="102.392578"/>
      <use xlink:href="#DejaVuSerif-64" x="162.597656"/>
      <use xlink:href="#DejaVuSerif-65" x="226.611328"/>
      <use xlink:href="#DejaVuSerif-6c" x="285.791016"/>
      <use xlink:href="#DejaVuSerif-6c" x="317.773438"/>
     </g>
    </g>
    <g id="line2d_4">
     <path d="M 205.249531 57.8925 
L 216.249531 57.8925 
L 227.249531 57.8925 
" style="fill: none; stroke-dasharray: 5.55,2.4; stroke-dashoffset: 0; stroke: #4b81c4; stroke-width: 1.5"/>
    </g>
    <g id="text_5">
     <!-- Reale Funktion -->
     <g transform="translate(236.049531 61.7425)scale(0.11 -0.11)">
      <defs>
       <path id="DejaVuSerif-52" d="M 3066 2316 
Q 3284 2256 3442 2114 
Q 3600 1972 3725 1716 
L 4403 331 
L 4972 331 
L 4972 0 
L 3872 0 
L 3144 1484 
Q 2934 1916 2759 2042 
Q 2584 2169 2278 2169 
L 1581 2169 
L 1581 331 
L 2241 331 
L 2241 0 
L 353 0 
L 353 331 
L 947 331 
L 947 4331 
L 353 4331 
L 353 4666 
L 2719 4666 
Q 3400 4666 3770 4341 
Q 4141 4016 4141 3419 
Q 4141 2938 3870 2661 
Q 3600 2384 3066 2316 
z
M 1581 2503 
L 2503 2503 
Q 2975 2503 3200 2726 
Q 3425 2950 3425 3419 
Q 3425 3888 3200 4109 
Q 2975 4331 2503 4331 
L 1581 4331 
L 1581 2503 
z
" transform="scale(0.015625)"/>
       <path id="DejaVuSerif-61" d="M 2547 1044 
L 2547 1747 
L 1806 1747 
Q 1378 1747 1168 1562 
Q 959 1378 959 997 
Q 959 650 1171 447 
Q 1384 244 1747 244 
Q 2106 244 2326 466 
Q 2547 688 2547 1044 
z
M 3122 2075 
L 3122 331 
L 3634 331 
L 3634 0 
L 2547 0 
L 2547 359 
Q 2356 128 2106 18 
Q 1856 -91 1522 -91 
Q 969 -91 644 203 
Q 319 497 319 997 
Q 319 1513 691 1797 
Q 1063 2081 1741 2081 
L 2547 2081 
L 2547 2309 
Q 2547 2688 2317 2895 
Q 2088 3103 1672 3103 
Q 1328 3103 1125 2947 
Q 922 2791 872 2484 
L 575 2484 
L 575 3156 
Q 875 3284 1158 3348 
Q 1441 3413 1709 3413 
Q 2400 3413 2761 3070 
Q 3122 2728 3122 2075 
z
" transform="scale(0.015625)"/>
       <path id="DejaVuSerif-20" transform="scale(0.015625)"/>
       <path id="DejaVuSerif-46" d="M 353 0 
L 353 331 
L 947 331 
L 947 4331 
L 353 4331 
L 353 4666 
L 4172 4666 
L 4172 3628 
L 3788 3628 
L 3788 4281 
L 1581 4281 
L 1581 2719 
L 3175 2719 
L 3175 3303 
L 3559 3303 
L 3559 1753 
L 3175 1753 
L 3175 2338 
L 1581 2338 
L 1581 331 
L 2328 331 
L 2328 0 
L 353 0 
z
" transform="scale(0.015625)"/>
       <path id="DejaVuSerif-75" d="M 2266 3322 
L 3341 3322 
L 3341 331 
L 3884 331 
L 3884 0 
L 2766 0 
L 2766 588 
Q 2606 256 2353 82 
Q 2100 -91 1766 -91 
Q 1213 -91 952 223 
Q 691 538 691 1209 
L 691 2988 
L 172 2988 
L 172 3322 
L 1269 3322 
L 1269 1388 
Q 1269 781 1417 556 
Q 1566 331 1947 331 
Q 2347 331 2556 625 
Q 2766 919 2766 1478 
L 2766 2988 
L 2266 2988 
L 2266 3322 
z
" transform="scale(0.015625)"/>
       <path id="DejaVuSerif-6b" d="M 1831 0 
L 219 0 
L 219 331 
L 738 331 
L 738 4531 
L 184 4531 
L 184 4863 
L 1313 4863 
L 1313 1697 
L 2713 2988 
L 2234 2988 
L 2234 3322 
L 3738 3322 
L 3738 2988 
L 3169 2988 
L 2181 2075 
L 3444 331 
L 3922 331 
L 3922 0 
L 2284 0 
L 2284 331 
L 2759 331 
L 1766 1697 
L 1313 1275 
L 1313 331 
L 1831 331 
L 1831 0 
z
" transform="scale(0.015625)"/>
      </defs>
      <use xlink:href="#DejaVuSerif-52"/>
      <use xlink:href="#DejaVuSerif-65" x="75.292969"/>
      <use xlink:href="#DejaVuSerif-61" x="134.472656"/>
      <use xlink:href="#DejaVuSerif-6c" x="194.091797"/>
      <use xlink:href="#DejaVuSerif-65" x="226.074219"/>
      <use xlink:href="#DejaVuSerif-20" x="285.253906"/>
      <use xlink:href="#DejaVuSerif-46" x="317.041016"/>
      <use xlink:href="#DejaVuSerif-75" x="386.425781"/>
      <use xlink:href="#DejaVuSerif-6e" x="450.830078"/>
      <use xlink:href="#DejaVuSerif-6b" x="515.234375"/>
      <use xlink:href="#DejaVuSerif-74" x="575.830078"/>
      <use xlink:href="#DejaVuSerif-69" x="616.015625"/>
      <use xlink:href="#DejaVuSerif-6f" x="647.998047"/>
      <use xlink:href="#DejaVuSerif-6e" x="708.203125"/>
     </g>
    </g>
    <g id="PathCollection_2">
     <g>
      <use xlink:href="#m401484cbc3" x="216.249531" y="75.000938" style="fill: #ec635c; stroke: #0000ff; stroke-width: 1.5"/>
     </g>
    </g>
    <g id="text_6">
     <!-- Samples -->
     <g transform="translate(236.049531 77.888438)scale(0.11 -0.11)">
      <defs>
       <path id="DejaVuSerif-53" d="M 594 225 
L 594 1288 
L 953 1284 
Q 969 753 1261 498 
Q 1553 244 2150 244 
Q 2706 244 2998 464 
Q 3291 684 3291 1106 
Q 3291 1444 3114 1625 
Q 2938 1806 2369 1978 
L 1753 2163 
Q 1084 2366 811 2669 
Q 538 2972 538 3500 
Q 538 4094 959 4422 
Q 1381 4750 2144 4750 
Q 2469 4750 2856 4679 
Q 3244 4609 3681 4475 
L 3681 3481 
L 3328 3481 
Q 3275 3975 2998 4195 
Q 2722 4416 2156 4416 
Q 1663 4416 1405 4214 
Q 1147 4013 1147 3628 
Q 1147 3294 1340 3103 
Q 1534 2913 2163 2725 
L 2741 2553 
Q 3375 2363 3645 2067 
Q 3916 1772 3916 1275 
Q 3916 597 3481 253 
Q 3047 -91 2188 -91 
Q 1803 -91 1404 -12 
Q 1006 66 594 225 
z
" transform="scale(0.015625)"/>
       <path id="DejaVuSerif-6d" d="M 3316 2675 
Q 3481 3041 3739 3227 
Q 3997 3413 4341 3413 
Q 4863 3413 5119 3089 
Q 5375 2766 5375 2113 
L 5375 331 
L 5894 331 
L 5894 0 
L 4300 0 
L 4300 331 
L 4800 331 
L 4800 2047 
Q 4800 2556 4650 2772 
Q 4500 2988 4153 2988 
Q 3769 2988 3567 2697 
Q 3366 2406 3366 1850 
L 3366 331 
L 3866 331 
L 3866 0 
L 2291 0 
L 2291 331 
L 2791 331 
L 2791 2069 
Q 2791 2566 2641 2777 
Q 2491 2988 2144 2988 
Q 1759 2988 1557 2697 
Q 1356 2406 1356 1850 
L 1356 331 
L 1856 331 
L 1856 0 
L 263 0 
L 263 331 
L 781 331 
L 781 2994 
L 231 2994 
L 231 3322 
L 1356 3322 
L 1356 2731 
Q 1516 3063 1762 3238 
Q 2009 3413 2322 3413 
Q 2709 3413 2968 3220 
Q 3228 3028 3316 2675 
z
" transform="scale(0.015625)"/>
       <path id="DejaVuSerif-70" d="M 1313 1825 
L 1313 1497 
Q 1313 897 1542 583 
Q 1772 269 2209 269 
Q 2650 269 2876 622 
Q 3103 975 3103 1663 
Q 3103 2353 2876 2703 
Q 2650 3053 2209 3053 
Q 1772 3053 1542 2737 
Q 1313 2422 1313 1825 
z
M 738 2988 
L 184 2988 
L 184 3322 
L 1313 3322 
L 1313 2803 
Q 1481 3116 1742 3264 
Q 2003 3413 2388 3413 
Q 3000 3413 3387 2928 
Q 3775 2444 3775 1663 
Q 3775 881 3387 395 
Q 3000 -91 2388 -91 
Q 2003 -91 1742 57 
Q 1481 206 1313 519 
L 1313 -997 
L 1856 -997 
L 1856 -1331 
L 184 -1331 
L 184 -997 
L 738 -997 
L 738 2988 
z
" transform="scale(0.015625)"/>
       <path id="DejaVuSerif-73" d="M 359 184 
L 359 959 
L 691 959 
Q 703 588 923 403 
Q 1144 219 1575 219 
Q 1963 219 2166 364 
Q 2369 509 2369 788 
Q 2369 1006 2220 1140 
Q 2072 1275 1594 1428 
L 1178 1569 
Q 750 1706 558 1912 
Q 366 2119 366 2438 
Q 366 2894 700 3153 
Q 1034 3413 1625 3413 
Q 1888 3413 2178 3344 
Q 2469 3275 2778 3144 
L 2778 2419 
L 2447 2419 
Q 2434 2741 2221 2922 
Q 2009 3103 1644 3103 
Q 1281 3103 1095 2975 
Q 909 2847 909 2591 
Q 909 2381 1050 2254 
Q 1191 2128 1613 1997 
L 2069 1856 
Q 2541 1709 2748 1489 
Q 2956 1269 2956 922 
Q 2956 450 2595 179 
Q 2234 -91 1600 -91 
Q 1278 -91 972 -22 
Q 666 47 359 184 
z
" transform="scale(0.015625)"/>
      </defs>
      <use xlink:href="#DejaVuSerif-53"/>
      <use xlink:href="#DejaVuSerif-61" x="68.505859"/>
      <use xlink:href="#DejaVuSerif-6d" x="128.125"/>
      <use xlink:href="#DejaVuSerif-70" x="222.949219"/>
      <use xlink:href="#DejaVuSerif-6c" x="286.962891"/>
      <use xlink:href="#DejaVuSerif-65" x="318.945312"/>
      <use xlink:href="#DejaVuSerif-73" x="378.125"/>
     </g>
    </g>
   </g>
  </g>
  <g id="axes_2">
   <g id="patch_8">
    <path d="M 362.065938 329.974063 
L 664.08 329.974063 
L 664.08 26.238281 
L 362.065938 26.238281 
z
" style="fill: #ffffff"/>
   </g>
   <g id="PathCollection_3">
    <g clip-path="url(#p5e966fa1ac)">
     <use xlink:href="#m401484cbc3" x="368.172178" y="95.952614" style="fill: #ec635c; stroke: #0000ff; stroke-width: 1.5"/>
     <use xlink:href="#m401484cbc3" x="383.519826" y="112.022672" style="fill: #ec635c; stroke: #0000ff; stroke-width: 1.5"/>
     <use xlink:href="#m401484cbc3" x="388.380211" y="91.248211" style="fill: #ec635c; stroke: #0000ff; stroke-width: 1.5"/>
     <use xlink:href="#m401484cbc3" x="397.786477" y="124.707864" style="fill: #ec635c; stroke: #0000ff; stroke-width: 1.5"/>
     <use xlink:href="#m401484cbc3" x="405.360646" y="118.502014" style="fill: #ec635c; stroke: #0000ff; stroke-width: 1.5"/>
     <use xlink:href="#m401484cbc3" x="477.870668" y="197.2916" style="fill: #ec635c; stroke: #0000ff; stroke-width: 1.5"/>
     <use xlink:href="#m401484cbc3" x="487.299675" y="194.861804" style="fill: #ec635c; stroke: #0000ff; stroke-width: 1.5"/>
     <use xlink:href="#m401484cbc3" x="490.015645" y="198.301463" style="fill: #ec635c; stroke: #0000ff; stroke-width: 1.5"/>
     <use xlink:href="#m401484cbc3" x="494.223429" y="212.752128" style="fill: #ec635c; stroke: #0000ff; stroke-width: 1.5"/>
     <use xlink:href="#m401484cbc3" x="501.439194" y="218.352626" style="fill: #ec635c; stroke: #0000ff; stroke-width: 1.5"/>
     <use xlink:href="#m401484cbc3" x="519.671469" y="243.774948" style="fill: #ec635c; stroke: #0000ff; stroke-width: 1.5"/>
     <use xlink:href="#m401484cbc3" x="521.799641" y="253.632105" style="fill: #ec635c; stroke: #0000ff; stroke-width: 1.5"/>
     <use xlink:href="#m401484cbc3" x="526.628321" y="244.51694" style="fill: #ec635c; stroke: #0000ff; stroke-width: 1.5"/>
     <use xlink:href="#m401484cbc3" x="527.815333" y="241.440439" style="fill: #ec635c; stroke: #0000ff; stroke-width: 1.5"/>
     <use xlink:href="#m401484cbc3" x="533.623383" y="236.644143" style="fill: #ec635c; stroke: #0000ff; stroke-width: 1.5"/>
     <use xlink:href="#m401484cbc3" x="544.108953" y="241.492931" style="fill: #ec635c; stroke: #0000ff; stroke-width: 1.5"/>
     <use xlink:href="#m401484cbc3" x="555.331085" y="256.378933" style="fill: #ec635c; stroke: #0000ff; stroke-width: 1.5"/>
     <use xlink:href="#m401484cbc3" x="557.135043" y="255.972107" style="fill: #ec635c; stroke: #0000ff; stroke-width: 1.5"/>
     <use xlink:href="#m401484cbc3" x="578.063183" y="260.025747" style="fill: #ec635c; stroke: #0000ff; stroke-width: 1.5"/>
     <use xlink:href="#m401484cbc3" x="597.080219" y="254.581745" style="fill: #ec635c; stroke: #0000ff; stroke-width: 1.5"/>
     <use xlink:href="#m401484cbc3" x="597.796725" y="256.3255" style="fill: #ec635c; stroke: #0000ff; stroke-width: 1.5"/>
     <use xlink:href="#m401484cbc3" x="601.178033" y="226.418326" style="fill: #ec635c; stroke: #0000ff; stroke-width: 1.5"/>
     <use xlink:href="#m401484cbc3" x="603.423062" y="243.584508" style="fill: #ec635c; stroke: #0000ff; stroke-width: 1.5"/>
     <use xlink:href="#m401484cbc3" x="613.52884" y="235.306276" style="fill: #ec635c; stroke: #0000ff; stroke-width: 1.5"/>
     <use xlink:href="#m401484cbc3" x="624.821841" y="231.278002" style="fill: #ec635c; stroke: #0000ff; stroke-width: 1.5"/>
     <use xlink:href="#m401484cbc3" x="631.393924" y="209.272117" style="fill: #ec635c; stroke: #0000ff; stroke-width: 1.5"/>
     <use xlink:href="#m401484cbc3" x="641.609138" y="216.442766" style="fill: #ec635c; stroke: #0000ff; stroke-width: 1.5"/>
     <use xlink:href="#m401484cbc3" x="647.369235" y="199.297147" style="fill: #ec635c; stroke: #0000ff; stroke-width: 1.5"/>
     <use xlink:href="#m401484cbc3" x="653.105643" y="197.844918" style="fill: #ec635c; stroke: #0000ff; stroke-width: 1.5"/>
     <use xlink:href="#m401484cbc3" x="657.622439" y="182.806334" style="fill: #ec635c; stroke: #0000ff; stroke-width: 1.5"/>
    </g>
   </g>
   <g id="matplotlib.axis_3">
    <g id="text_7">
     <!-- x -->
     <g transform="translate(509.971484 345.832344)scale(0.11 -0.11)">
      <use xlink:href="#DejaVuSerif-78"/>
     </g>
    </g>
   </g>
   <g id="matplotlib.axis_4">
    <g id="text_8">
     <!-- y -->
     <g transform="translate(352.121875 181.213672)rotate(-90)scale(0.11 -0.11)">
      <use xlink:href="#DejaVuSerif-79"/>
     </g>
    </g>
   </g>
   <g id="line2d_5">
    <path d="M 362.065938 99.812567 
L 365.116585 99.589944 
L 368.167232 99.631974 
L 371.217879 99.927788 
L 374.268526 100.46665 
L 377.319173 101.237966 
L 380.36982 102.231278 
L 383.420467 103.436265 
L 386.471114 104.842746 
L 389.521761 106.440676 
L 392.572408 108.220148 
L 395.623056 110.171393 
L 398.673703 112.28478 
L 401.72435 114.550815 
L 404.774997 116.960144 
L 407.825644 119.503549 
L 410.876291 122.171949 
L 413.926938 124.956402 
L 416.977585 127.848103 
L 420.028232 130.838388 
L 423.078879 133.918725 
L 426.129527 137.080725 
L 429.180174 140.316134 
L 432.230821 143.616836 
L 435.281468 146.974855 
L 438.332115 150.38235 
L 441.382762 153.831619 
L 444.433409 157.315097 
L 447.484056 160.825359 
L 450.534703 164.355115 
L 453.58535 167.897215 
L 456.635997 171.444646 
L 459.686645 174.990532 
L 462.737292 178.528135 
L 465.787939 182.050856 
L 468.838586 185.552233 
L 471.889233 189.025941 
L 474.93988 192.465795 
L 477.990527 195.865745 
L 481.041174 199.219881 
L 484.091821 202.52243 
L 487.142468 205.767757 
L 490.193116 208.950364 
L 493.243763 212.064891 
L 496.29441 215.106117 
L 499.345057 218.068957 
L 502.395704 220.948465 
L 505.446351 223.739833 
L 508.496998 226.43839 
L 511.547645 229.039604 
L 514.598292 231.539078 
L 517.648939 233.932555 
L 520.699586 236.215917 
L 523.750234 238.385181 
L 526.800881 240.436503 
L 529.851528 242.366178 
L 532.902175 244.170636 
L 535.952822 245.846447 
L 539.003469 247.390319 
L 542.054116 248.799096 
L 545.104763 250.06976 
L 548.15541 251.199434 
L 551.206057 252.185374 
L 554.256705 253.024978 
L 557.307352 253.715778 
L 560.357999 254.255447 
L 563.408646 254.641795 
L 566.459293 254.872767 
L 569.50994 254.946451 
L 572.560587 254.861067 
L 575.611234 254.614978 
L 578.661881 254.206682 
L 581.712528 253.634814 
L 584.763176 252.898149 
L 587.813823 251.995599 
L 590.86447 250.926212 
L 593.915117 249.689178 
L 596.965764 248.28382 
L 600.016411 246.709602 
L 603.067058 244.966125 
L 606.117705 243.053127 
L 609.168352 240.970484 
L 612.218999 238.71821 
L 615.269646 236.296459 
L 618.320294 233.705518 
L 621.370941 230.945816 
L 624.421588 228.017919 
L 627.472235 224.922528 
L 630.522882 221.660485 
L 633.573529 218.232769 
L 636.624176 214.640496 
L 639.674823 210.884921 
L 642.72547 206.967434 
L 645.776117 202.889567 
L 648.826765 198.652987 
L 651.877412 194.259499 
L 654.928059 189.711046 
L 657.978706 185.00971 
L 661.029353 180.157708 
L 664.08 175.157399 
" clip-path="url(#p5e966fa1ac)" style="fill: none; stroke: #ec635c; stroke-width: 1.5; stroke-linecap: square"/>
   </g>
   <g id="line2d_6">
    <path d="M 362.065938 102.172227 
L 365.116585 102.258234 
L 368.167232 102.516061 
L 371.217879 102.945125 
L 374.268526 103.544452 
L 377.319173 104.312685 
L 380.36982 105.248085 
L 383.420467 106.348531 
L 386.471114 107.611532 
L 389.521761 109.034226 
L 392.572408 110.61339 
L 395.623056 112.345446 
L 398.673703 114.226472 
L 401.72435 116.252206 
L 404.774997 118.418059 
L 407.825644 120.719125 
L 410.876291 123.150191 
L 413.926938 125.70575 
L 416.977585 128.380013 
L 420.028232 131.166921 
L 423.078879 134.060162 
L 426.129527 137.053182 
L 429.180174 140.139199 
L 432.230821 143.311224 
L 435.281468 146.562071 
L 438.332115 149.884375 
L 441.382762 153.270611 
L 444.433409 156.713107 
L 447.484056 160.204066 
L 450.534703 163.735578 
L 453.58535 167.299645 
L 456.635997 170.888191 
L 459.686645 174.493089 
L 462.737292 178.106172 
L 465.787939 181.719254 
L 468.838586 185.324152 
L 471.889233 188.912699 
L 474.93988 192.476766 
L 477.990527 196.008278 
L 481.041174 199.499236 
L 484.091821 202.941733 
L 487.142468 206.327968 
L 490.193116 209.650273 
L 493.243763 212.90112 
L 496.29441 216.073145 
L 499.345057 219.159162 
L 502.395704 222.152182 
L 505.446351 225.045423 
L 508.496998 227.832331 
L 511.547645 230.506594 
L 514.598292 233.062153 
L 517.648939 235.493219 
L 520.699586 237.794285 
L 523.750234 239.960138 
L 526.800881 241.985872 
L 529.851528 243.866898 
L 532.902175 245.598954 
L 535.952822 247.178118 
L 539.003469 248.600812 
L 542.054116 249.863812 
L 545.104763 250.964259 
L 548.15541 251.899658 
L 551.206057 252.667892 
L 554.256705 253.267219 
L 557.307352 253.696282 
L 560.357999 253.95411 
L 563.408646 254.040117 
L 566.459293 253.95411 
L 569.50994 253.696282 
L 572.560587 253.267219 
L 575.611234 252.667892 
L 578.661881 251.899658 
L 581.712528 250.964259 
L 584.763176 249.863812 
L 587.813823 248.600812 
L 590.86447 247.178118 
L 593.915117 245.598954 
L 596.965764 243.866898 
L 600.016411 241.985872 
L 603.067058 239.960138 
L 606.117705 237.794285 
L 609.168352 235.493219 
L 612.218999 233.062153 
L 615.269646 230.506594 
L 618.320294 227.832331 
L 621.370941 225.045423 
L 624.421588 222.152182 
L 627.472235 219.159162 
L 630.522882 216.073145 
L 633.573529 212.90112 
L 636.624176 209.650273 
L 639.674823 206.327968 
L 642.72547 202.941733 
L 645.776117 199.499236 
L 648.826765 196.008278 
L 651.877412 192.476766 
L 654.928059 188.912699 
L 657.978706 185.324152 
L 661.029353 181.719254 
L 664.08 178.106172 
" clip-path="url(#p5e966fa1ac)" style="fill: none; stroke-dasharray: 5.55,2.4; stroke-dashoffset: 0; stroke: #4b81c4; stroke-width: 1.5"/>
   </g>
   <g id="patch_9">
    <path d="M 362.065938 329.974063 
L 362.065938 26.238281 
" style="fill: none; stroke: #000000; stroke-width: 0.5; stroke-linejoin: miter; stroke-linecap: square"/>
   </g>
   <g id="patch_10">
    <path d="M 664.08 329.974063 
L 664.08 26.238281 
" style="fill: none; stroke: #000000; stroke-width: 0.5; stroke-linejoin: miter; stroke-linecap: square"/>
   </g>
   <g id="patch_11">
    <path d="M 362.065938 329.974063 
L 664.08 329.974063 
" style="fill: none; stroke: #000000; stroke-width: 0.5; stroke-linejoin: miter; stroke-linecap: square"/>
   </g>
   <g id="patch_12">
    <path d="M 362.065938 26.238281 
L 664.08 26.238281 
" style="fill: none; stroke: #000000; stroke-width: 0.5; stroke-linejoin: miter; stroke-linecap: square"/>
   </g>
   <g id="text_9">
    <!-- Optimal -->
    <g transform="translate(490.819453 20.238281)scale(0.11 -0.11)">
     <defs>
      <path id="DejaVuSerif-4f" d="M 2625 244 
Q 3391 244 3781 770 
Q 4172 1297 4172 2328 
Q 4172 3363 3781 3889 
Q 3391 4416 2625 4416 
Q 1856 4416 1465 3889 
Q 1075 3363 1075 2328 
Q 1075 1297 1465 770 
Q 1856 244 2625 244 
z
M 2625 -91 
Q 2150 -91 1751 65 
Q 1353 222 1050 525 
Q 700 875 529 1319 
Q 359 1763 359 2328 
Q 359 2894 529 3339 
Q 700 3784 1050 4134 
Q 1356 4441 1750 4595 
Q 2144 4750 2625 4750 
Q 3641 4750 4266 4084 
Q 4891 3419 4891 2328 
Q 4891 1769 4719 1320 
Q 4547 872 4197 525 
Q 3891 219 3497 64 
Q 3103 -91 2625 -91 
z
" transform="scale(0.015625)"/>
     </defs>
     <use xlink:href="#DejaVuSerif-4f"/>
     <use xlink:href="#DejaVuSerif-70" x="81.982422"/>
     <use xlink:href="#DejaVuSerif-74" x="145.996094"/>
     <use xlink:href="#DejaVuSerif-69" x="186.181641"/>
     <use xlink:href="#DejaVuSerif-6d" x="218.164062"/>
     <use xlink:href="#DejaVuSerif-61" x="312.988281"/>
     <use xlink:href="#DejaVuSerif-6c" x="372.607422"/>
    </g>
   </g>
   <g id="legend_2">
    <g id="patch_13">
     <path d="M 533.989531 85.676094 
L 656.38 85.676094 
Q 658.58 85.676094 658.58 83.476094 
L 658.58 33.938281 
Q 658.58 31.738281 656.38 31.738281 
L 533.989531 31.738281 
Q 531.789531 31.738281 531.789531 33.938281 
L 531.789531 83.476094 
Q 531.789531 85.676094 533.989531 85.676094 
z
" style="fill: #ffffff; opacity: 0.8; stroke: #cccccc; stroke-width: 1.5; stroke-linejoin: miter"/>
    </g>
    <g id="line2d_7">
     <path d="M 537.289531 41.746563 
L 548.289531 41.746563 
L 559.289531 41.746563 
" style="fill: none; stroke: #ec635c; stroke-width: 1.5; stroke-linecap: square"/>
    </g>
    <g id="text_10">
     <!-- Modell -->
     <g transform="translate(568.089531 45.596563)scale(0.11 -0.11)">
      <use xlink:href="#DejaVuSerif-4d"/>
      <use xlink:href="#DejaVuSerif-6f" x="102.392578"/>
      <use xlink:href="#DejaVuSerif-64" x="162.597656"/>
      <use xlink:href="#DejaVuSerif-65" x="226.611328"/>
      <use xlink:href="#DejaVuSerif-6c" x="285.791016"/>
      <use xlink:href="#DejaVuSerif-6c" x="317.773438"/>
     </g>
    </g>
    <g id="line2d_8">
     <path d="M 537.289531 57.8925 
L 548.289531 57.8925 
L 559.289531 57.8925 
" style="fill: none; stroke-dasharray: 5.55,2.4; stroke-dashoffset: 0; stroke: #4b81c4; stroke-width: 1.5"/>
    </g>
    <g id="text_11">
     <!-- Reale Funktion -->
     <g transform="translate(568.089531 61.7425)scale(0.11 -0.11)">
      <use xlink:href="#DejaVuSerif-52"/>
      <use xlink:href="#DejaVuSerif-65" x="75.292969"/>
      <use xlink:href="#DejaVuSerif-61" x="134.472656"/>
      <use xlink:href="#DejaVuSerif-6c" x="194.091797"/>
      <use xlink:href="#DejaVuSerif-65" x="226.074219"/>
      <use xlink:href="#DejaVuSerif-20" x="285.253906"/>
      <use xlink:href="#DejaVuSerif-46" x="317.041016"/>
      <use xlink:href="#DejaVuSerif-75" x="386.425781"/>
      <use xlink:href="#DejaVuSerif-6e" x="450.830078"/>
      <use xlink:href="#DejaVuSerif-6b" x="515.234375"/>
      <use xlink:href="#DejaVuSerif-74" x="575.830078"/>
      <use xlink:href="#DejaVuSerif-69" x="616.015625"/>
      <use xlink:href="#DejaVuSerif-6f" x="647.998047"/>
      <use xlink:href="#DejaVuSerif-6e" x="708.203125"/>
     </g>
    </g>
    <g id="PathCollection_4">
     <g>
      <use xlink:href="#m401484cbc3" x="548.289531" y="75.000938" style="fill: #ec635c; stroke: #0000ff; stroke-width: 1.5"/>
     </g>
    </g>
    <g id="text_12">
     <!-- Samples -->
     <g transform="translate(568.089531 77.888438)scale(0.11 -0.11)">
      <use xlink:href="#DejaVuSerif-53"/>
      <use xlink:href="#DejaVuSerif-61" x="68.505859"/>
      <use xlink:href="#DejaVuSerif-6d" x="128.125"/>
      <use xlink:href="#DejaVuSerif-70" x="222.949219"/>
      <use xlink:href="#DejaVuSerif-6c" x="286.962891"/>
      <use xlink:href="#DejaVuSerif-65" x="318.945312"/>
      <use xlink:href="#DejaVuSerif-73" x="378.125"/>
     </g>
    </g>
   </g>
  </g>
  <g id="axes_3">
   <g id="patch_14">
    <path d="M 694.105938 329.974063 
L 996.12 329.974063 
L 996.12 26.238281 
L 694.105938 26.238281 
z
" style="fill: #ffffff"/>
   </g>
   <g id="PathCollection_5">
    <g clip-path="url(#p926845dc98)">
     <use xlink:href="#m401484cbc3" x="700.212178" y="95.952614" style="fill: #ec635c; stroke: #0000ff; stroke-width: 1.5"/>
     <use xlink:href="#m401484cbc3" x="715.559826" y="112.022672" style="fill: #ec635c; stroke: #0000ff; stroke-width: 1.5"/>
     <use xlink:href="#m401484cbc3" x="720.420211" y="91.248211" style="fill: #ec635c; stroke: #0000ff; stroke-width: 1.5"/>
     <use xlink:href="#m401484cbc3" x="729.826477" y="124.707864" style="fill: #ec635c; stroke: #0000ff; stroke-width: 1.5"/>
     <use xlink:href="#m401484cbc3" x="737.400646" y="118.502014" style="fill: #ec635c; stroke: #0000ff; stroke-width: 1.5"/>
     <use xlink:href="#m401484cbc3" x="809.910668" y="197.2916" style="fill: #ec635c; stroke: #0000ff; stroke-width: 1.5"/>
     <use xlink:href="#m401484cbc3" x="819.339675" y="194.861804" style="fill: #ec635c; stroke: #0000ff; stroke-width: 1.5"/>
     <use xlink:href="#m401484cbc3" x="822.055645" y="198.301463" style="fill: #ec635c; stroke: #0000ff; stroke-width: 1.5"/>
     <use xlink:href="#m401484cbc3" x="826.263429" y="212.752128" style="fill: #ec635c; stroke: #0000ff; stroke-width: 1.5"/>
     <use xlink:href="#m401484cbc3" x="833.479194" y="218.352626" style="fill: #ec635c; stroke: #0000ff; stroke-width: 1.5"/>
     <use xlink:href="#m401484cbc3" x="851.711469" y="243.774948" style="fill: #ec635c; stroke: #0000ff; stroke-width: 1.5"/>
     <use xlink:href="#m401484cbc3" x="853.839641" y="253.632105" style="fill: #ec635c; stroke: #0000ff; stroke-width: 1.5"/>
     <use xlink:href="#m401484cbc3" x="858.668321" y="244.51694" style="fill: #ec635c; stroke: #0000ff; stroke-width: 1.5"/>
     <use xlink:href="#m401484cbc3" x="859.855333" y="241.440439" style="fill: #ec635c; stroke: #0000ff; stroke-width: 1.5"/>
     <use xlink:href="#m401484cbc3" x="865.663383" y="236.644143" style="fill: #ec635c; stroke: #0000ff; stroke-width: 1.5"/>
     <use xlink:href="#m401484cbc3" x="876.148953" y="241.492931" style="fill: #ec635c; stroke: #0000ff; stroke-width: 1.5"/>
     <use xlink:href="#m401484cbc3" x="887.371085" y="256.378933" style="fill: #ec635c; stroke: #0000ff; stroke-width: 1.5"/>
     <use xlink:href="#m401484cbc3" x="889.175043" y="255.972107" style="fill: #ec635c; stroke: #0000ff; stroke-width: 1.5"/>
     <use xlink:href="#m401484cbc3" x="910.103183" y="260.025747" style="fill: #ec635c; stroke: #0000ff; stroke-width: 1.5"/>
     <use xlink:href="#m401484cbc3" x="929.120219" y="254.581745" style="fill: #ec635c; stroke: #0000ff; stroke-width: 1.5"/>
     <use xlink:href="#m401484cbc3" x="929.836725" y="256.3255" style="fill: #ec635c; stroke: #0000ff; stroke-width: 1.5"/>
     <use xlink:href="#m401484cbc3" x="933.218033" y="226.418326" style="fill: #ec635c; stroke: #0000ff; stroke-width: 1.5"/>
     <use xlink:href="#m401484cbc3" x="935.463062" y="243.584508" style="fill: #ec635c; stroke: #0000ff; stroke-width: 1.5"/>
     <use xlink:href="#m401484cbc3" x="945.56884" y="235.306276" style="fill: #ec635c; stroke: #0000ff; stroke-width: 1.5"/>
     <use xlink:href="#m401484cbc3" x="956.861841" y="231.278002" style="fill: #ec635c; stroke: #0000ff; stroke-width: 1.5"/>
     <use xlink:href="#m401484cbc3" x="963.433924" y="209.272117" style="fill: #ec635c; stroke: #0000ff; stroke-width: 1.5"/>
     <use xlink:href="#m401484cbc3" x="973.649138" y="216.442766" style="fill: #ec635c; stroke: #0000ff; stroke-width: 1.5"/>
     <use xlink:href="#m401484cbc3" x="979.409235" y="199.297147" style="fill: #ec635c; stroke: #0000ff; stroke-width: 1.5"/>
     <use xlink:href="#m401484cbc3" x="985.145643" y="197.844918" style="fill: #ec635c; stroke: #0000ff; stroke-width: 1.5"/>
     <use xlink:href="#m401484cbc3" x="989.662439" y="182.806334" style="fill: #ec635c; stroke: #0000ff; stroke-width: 1.5"/>
    </g>
   </g>
   <g id="matplotlib.axis_5">
    <g id="text_13">
     <!-- x -->
     <g transform="translate(842.011484 345.832344)scale(0.11 -0.11)">
      <use xlink:href="#DejaVuSerif-78"/>
     </g>
    </g>
   </g>
   <g id="matplotlib.axis_6">
    <g id="text_14">
     <!-- y -->
     <g transform="translate(684.161875 181.213672)rotate(-90)scale(0.11 -0.11)">
      <use xlink:href="#DejaVuSerif-79"/>
     </g>
    </g>
   </g>
   <g id="line2d_9">
    <path d="M 699.781799 -1 
L 700.207232 95.316394 
L 703.257879 308.260592 
L 706.308526 306.628669 
L 709.359173 234.343728 
L 712.40982 161.062841 
L 715.460467 112.933189 
L 718.511114 92.920338 
L 721.561761 93.633933 
L 724.612408 104.894771 
L 727.663056 117.737202 
L 730.713703 126.101419 
L 733.76435 127.12323 
L 736.814997 120.658802 
L 739.865644 108.474828 
L 742.916291 93.379096 
L 745.966938 78.452333 
L 749.017585 66.461167 
L 752.068232 59.476765 
L 755.118879 58.688354 
L 758.169527 64.380341 
L 761.220174 76.032192 
L 764.270821 92.49827 
L 767.321468 112.227962 
L 770.372115 133.492508 
L 773.422762 154.592654 
L 776.473409 174.029211 
L 779.524056 190.626259 
L 782.574703 203.603393 
L 785.62535 212.598891 
L 788.675997 217.649779 
L 791.726645 219.137516 
L 794.777292 217.709498 
L 797.827939 214.186989 
L 800.878586 209.469484 
L 803.929233 204.444332 
L 806.97988 199.908683 
L 810.030527 196.508831 
L 813.081174 194.699931 
L 816.131821 194.727052 
L 819.182468 196.626672 
L 822.233116 200.246243 
L 825.283763 205.278235 
L 828.33441 211.304337 
L 831.385057 217.845128 
L 834.435704 224.410514 
L 837.486351 230.546649 
L 840.536998 235.875666 
L 843.587645 240.125406 
L 846.638292 243.147389 
L 849.688939 244.922278 
L 852.739586 245.553185 
L 855.790234 245.248093 
L 858.840881 244.293541 
L 861.891528 243.022285 
L 864.942175 241.778023 
L 867.992822 240.880469 
L 871.043469 240.593886 
L 874.094116 241.101797 
L 877.144763 242.490075 
L 880.19541 244.739808 
L 883.246057 247.730529 
L 886.296705 251.25336 
L 889.347352 255.032898 
L 892.397999 258.755715 
L 895.448646 262.1027 
L 898.499293 264.782218 
L 901.54994 266.560463 
L 904.600587 267.286148 
L 907.651234 266.90634 
L 910.701881 265.471765 
L 913.752528 263.130263 
L 916.803176 260.108608 
L 919.853823 256.684115 
L 922.90447 253.14925 
L 925.955117 249.772257 
L 929.005764 246.759796 
L 932.056411 244.226322 
L 935.107058 242.175138 
L 938.157705 240.496815 
L 941.208352 238.985764 
L 944.258999 237.377213 
L 947.309646 235.400507 
L 950.360294 232.842272 
L 953.410941 229.60966 
L 956.461588 225.777451 
L 959.512235 221.605361 
L 962.562882 217.506954 
L 965.613529 213.957625 
L 968.664176 211.342013 
L 971.714823 209.752875 
L 974.76547 208.791368 
L 977.816117 207.462584 
L 980.866765 204.318542 
L 983.917412 198.117466 
L 986.968059 189.358756 
L 990.018706 183.267282 
L 993.069353 194.976845 
L 996.12 257.982896 
" clip-path="url(#p926845dc98)" style="fill: none; stroke: #ec635c; stroke-width: 1.5; stroke-linecap: square"/>
   </g>
   <g id="line2d_10">
    <path d="M 694.105938 102.172227 
L 697.156585 102.258234 
L 700.207232 102.516061 
L 703.257879 102.945125 
L 706.308526 103.544452 
L 709.359173 104.312685 
L 712.40982 105.248085 
L 715.460467 106.348531 
L 718.511114 107.611532 
L 721.561761 109.034226 
L 724.612408 110.61339 
L 727.663056 112.345446 
L 730.713703 114.226472 
L 733.76435 116.252206 
L 736.814997 118.418059 
L 739.865644 120.719125 
L 742.916291 123.150191 
L 745.966938 125.70575 
L 749.017585 128.380013 
L 752.068232 131.166921 
L 755.118879 134.060162 
L 758.169527 137.053182 
L 761.220174 140.139199 
L 764.270821 143.311224 
L 767.321468 146.562071 
L 770.372115 149.884375 
L 773.422762 153.270611 
L 776.473409 156.713107 
L 779.524056 160.204066 
L 782.574703 163.735578 
L 785.62535 167.299645 
L 788.675997 170.888191 
L 791.726645 174.493089 
L 794.777292 178.106172 
L 797.827939 181.719254 
L 800.878586 185.324152 
L 803.929233 188.912699 
L 806.97988 192.476766 
L 810.030527 196.008278 
L 813.081174 199.499236 
L 816.131821 202.941733 
L 819.182468 206.327968 
L 822.233116 209.650273 
L 825.283763 212.90112 
L 828.33441 216.073145 
L 831.385057 219.159162 
L 834.435704 222.152182 
L 837.486351 225.045423 
L 840.536998 227.832331 
L 843.587645 230.506594 
L 846.638292 233.062153 
L 849.688939 235.493219 
L 852.739586 237.794285 
L 855.790234 239.960138 
L 858.840881 241.985872 
L 861.891528 243.866898 
L 864.942175 245.598954 
L 867.992822 247.178118 
L 871.043469 248.600812 
L 874.094116 249.863812 
L 877.144763 250.964259 
L 880.19541 251.899658 
L 883.246057 252.667892 
L 886.296705 253.267219 
L 889.347352 253.696282 
L 892.397999 253.95411 
L 895.448646 254.040117 
L 898.499293 253.95411 
L 901.54994 253.696282 
L 904.600587 253.267219 
L 907.651234 252.667892 
L 910.701881 251.899658 
L 913.752528 250.964259 
L 916.803176 249.863812 
L 919.853823 248.600812 
L 922.90447 247.178118 
L 925.955117 245.598954 
L 929.005764 243.866898 
L 932.056411 241.985872 
L 935.107058 239.960138 
L 938.157705 237.794285 
L 941.208352 235.493219 
L 944.258999 233.062153 
L 947.309646 230.506594 
L 950.360294 227.832331 
L 953.410941 225.045423 
L 956.461588 222.152182 
L 959.512235 219.159162 
L 962.562882 216.073145 
L 965.613529 212.90112 
L 968.664176 209.650273 
L 971.714823 206.327968 
L 974.76547 202.941733 
L 977.816117 199.499236 
L 980.866765 196.008278 
L 983.917412 192.476766 
L 986.968059 188.912699 
L 990.018706 185.324152 
L 993.069353 181.719254 
L 996.12 178.106172 
" clip-path="url(#p926845dc98)" style="fill: none; stroke-dasharray: 5.55,2.4; stroke-dashoffset: 0; stroke: #4b81c4; stroke-width: 1.5"/>
   </g>
   <g id="patch_15">
    <path d="M 694.105938 329.974063 
L 694.105938 26.238281 
" style="fill: none; stroke: #000000; stroke-width: 0.5; stroke-linejoin: miter; stroke-linecap: square"/>
   </g>
   <g id="patch_16">
    <path d="M 996.12 329.974063 
L 996.12 26.238281 
" style="fill: none; stroke: #000000; stroke-width: 0.5; stroke-linejoin: miter; stroke-linecap: square"/>
   </g>
   <g id="patch_17">
    <path d="M 694.105938 329.974063 
L 996.12 329.974063 
" style="fill: none; stroke: #000000; stroke-width: 0.5; stroke-linejoin: miter; stroke-linecap: square"/>
   </g>
   <g id="patch_18">
    <path d="M 694.105938 26.238281 
L 996.12 26.238281 
" style="fill: none; stroke: #000000; stroke-width: 0.5; stroke-linejoin: miter; stroke-linecap: square"/>
   </g>
   <g id="text_15">
    <!-- Overfitting -->
    <g transform="translate(814.574219 20.238281)scale(0.11 -0.11)">
     <defs>
      <path id="DejaVuSerif-76" d="M 1581 0 
L 359 2988 
L -19 2988 
L -19 3322 
L 1509 3322 
L 1509 2988 
L 978 2988 
L 1913 703 
L 2847 2988 
L 2350 2988 
L 2350 3322 
L 3597 3322 
L 3597 2988 
L 3225 2988 
L 2003 0 
L 1581 0 
z
" transform="scale(0.015625)"/>
     </defs>
     <use xlink:href="#DejaVuSerif-4f"/>
     <use xlink:href="#DejaVuSerif-76" x="81.982422"/>
     <use xlink:href="#DejaVuSerif-65" x="138.476562"/>
     <use xlink:href="#DejaVuSerif-72" x="197.65625"/>
     <use xlink:href="#DejaVuSerif-66" x="245.458984"/>
     <use xlink:href="#DejaVuSerif-69" x="282.470703"/>
     <use xlink:href="#DejaVuSerif-74" x="314.453125"/>
     <use xlink:href="#DejaVuSerif-74" x="354.638672"/>
     <use xlink:href="#DejaVuSerif-69" x="394.824219"/>
     <use xlink:href="#DejaVuSerif-6e" x="426.806641"/>
     <use xlink:href="#DejaVuSerif-67" x="491.210938"/>
    </g>
   </g>
   <g id="legend_3">
    <g id="patch_19">
     <path d="M 866.029531 85.676094 
L 988.42 85.676094 
Q 990.62 85.676094 990.62 83.476094 
L 990.62 33.938281 
Q 990.62 31.738281 988.42 31.738281 
L 866.029531 31.738281 
Q 863.829531 31.738281 863.829531 33.938281 
L 863.829531 83.476094 
Q 863.829531 85.676094 866.029531 85.676094 
z
" style="fill: #ffffff; opacity: 0.8; stroke: #cccccc; stroke-width: 1.5; stroke-linejoin: miter"/>
    </g>
    <g id="line2d_11">
     <path d="M 869.329531 41.746563 
L 880.329531 41.746563 
L 891.329531 41.746563 
" style="fill: none; stroke: #ec635c; stroke-width: 1.5; stroke-linecap: square"/>
    </g>
    <g id="text_16">
     <!-- Modell -->
     <g transform="translate(900.129531 45.596563)scale(0.11 -0.11)">
      <use xlink:href="#DejaVuSerif-4d"/>
      <use xlink:href="#DejaVuSerif-6f" x="102.392578"/>
      <use xlink:href="#DejaVuSerif-64" x="162.597656"/>
      <use xlink:href="#DejaVuSerif-65" x="226.611328"/>
      <use xlink:href="#DejaVuSerif-6c" x="285.791016"/>
      <use xlink:href="#DejaVuSerif-6c" x="317.773438"/>
     </g>
    </g>
    <g id="line2d_12">
     <path d="M 869.329531 57.8925 
L 880.329531 57.8925 
L 891.329531 57.8925 
" style="fill: none; stroke-dasharray: 5.55,2.4; stroke-dashoffset: 0; stroke: #4b81c4; stroke-width: 1.5"/>
    </g>
    <g id="text_17">
     <!-- Reale Funktion -->
     <g transform="translate(900.129531 61.7425)scale(0.11 -0.11)">
      <use xlink:href="#DejaVuSerif-52"/>
      <use xlink:href="#DejaVuSerif-65" x="75.292969"/>
      <use xlink:href="#DejaVuSerif-61" x="134.472656"/>
      <use xlink:href="#DejaVuSerif-6c" x="194.091797"/>
      <use xlink:href="#DejaVuSerif-65" x="226.074219"/>
      <use xlink:href="#DejaVuSerif-20" x="285.253906"/>
      <use xlink:href="#DejaVuSerif-46" x="317.041016"/>
      <use xlink:href="#DejaVuSerif-75" x="386.425781"/>
      <use xlink:href="#DejaVuSerif-6e" x="450.830078"/>
      <use xlink:href="#DejaVuSerif-6b" x="515.234375"/>
      <use xlink:href="#DejaVuSerif-74" x="575.830078"/>
      <use xlink:href="#DejaVuSerif-69" x="616.015625"/>
      <use xlink:href="#DejaVuSerif-6f" x="647.998047"/>
      <use xlink:href="#DejaVuSerif-6e" x="708.203125"/>
     </g>
    </g>
    <g id="PathCollection_6">
     <g>
      <use xlink:href="#m401484cbc3" x="880.329531" y="75.000938" style="fill: #ec635c; stroke: #0000ff; stroke-width: 1.5"/>
     </g>
    </g>
    <g id="text_18">
     <!-- Samples -->
     <g transform="translate(900.129531 77.888438)scale(0.11 -0.11)">
      <use xlink:href="#DejaVuSerif-53"/>
      <use xlink:href="#DejaVuSerif-61" x="68.505859"/>
      <use xlink:href="#DejaVuSerif-6d" x="128.125"/>
      <use xlink:href="#DejaVuSerif-70" x="222.949219"/>
      <use xlink:href="#DejaVuSerif-6c" x="286.962891"/>
      <use xlink:href="#DejaVuSerif-65" x="318.945312"/>
      <use xlink:href="#DejaVuSerif-73" x="378.125"/>
     </g>
    </g>
   </g>
  </g>
 </g>
 <defs>
  <clipPath id="p1b821dbbc0">
   <rect x="30.025938" y="26.238281" width="302.014063" height="303.735781"/>
  </clipPath>
  <clipPath id="p5e966fa1ac">
   <rect x="362.065938" y="26.238281" width="302.014063" height="303.735781"/>
  </clipPath>
  <clipPath id="p926845dc98">
   <rect x="694.105938" y="26.238281" width="302.014062" height="303.735781"/>
  </clipPath>
 </defs>
</svg>
