<?xml version="1.0" encoding="utf-8" standalone="no"?>
<!DOCTYPE svg PUBLIC "-//W3C//DTD SVG 1.1//EN"
  "http://www.w3.org/Graphics/SVG/1.1/DTD/svg11.dtd">
<svg xmlns:xlink="http://www.w3.org/1999/xlink" width="447.84pt" height="252pt" viewBox="0 0 447.84 252" xmlns="http://www.w3.org/2000/svg" version="1.1">
 <metadata>
  <rdf:RDF xmlns:dc="http://purl.org/dc/elements/1.1/" xmlns:cc="http://creativecommons.org/ns#" xmlns:rdf="http://www.w3.org/1999/02/22-rdf-syntax-ns#">
   <cc:Work>
    <dc:type rdf:resource="http://purl.org/dc/dcmitype/StillImage"/>
    <dc:date>2023-05-01T16:19:20.940413</dc:date>
    <dc:format>image/svg+xml</dc:format>
    <dc:creator>
     <cc:Agent>
      <dc:title>Matplotlib v3.5.3, https://matplotlib.org/</dc:title>
     </cc:Agent>
    </dc:creator>
   </cc:Work>
  </rdf:RDF>
 </metadata>
 <defs>
  <style type="text/css">*{stroke-linejoin: round; stroke-linecap: butt}</style>
 </defs>
 <g id="figure_1">
  <g id="patch_1">
   <path d="M 0 252 
L 447.84 252 
L 447.84 0 
L 0 0 
z
" style="fill: #ffffff"/>
  </g>
  <g id="axes_1">
   <g id="patch_2">
    <path d="M 56.741094 207.671719 
L 339.550156 207.671719 
L 339.550156 11.88 
L 56.741094 11.88 
z
" style="fill: #ffffff"/>
   </g>
   <g id="matplotlib.axis_1">
    <g id="xtick_1">
     <g id="line2d_1">
      <defs>
       <path id="m24e76dfab2" d="M 0 0 
L 0 3.5 
" style="stroke: #000000; stroke-width: 0.8"/>
      </defs>
      <g>
       <use xlink:href="#m24e76dfab2" x="69.596051" y="207.671719" style="stroke: #000000; stroke-width: 0.8"/>
      </g>
     </g>
     <g id="text_1">
      <!-- 0 -->
      <g transform="translate(66.096676 223.03)scale(0.11 -0.11)">
       <defs>
        <path id="DejaVuSerif-30" d="M 2034 219 
Q 2513 219 2750 744 
Q 2988 1269 2988 2328 
Q 2988 3391 2750 3916 
Q 2513 4441 2034 4441 
Q 1556 4441 1318 3916 
Q 1081 3391 1081 2328 
Q 1081 1269 1318 744 
Q 1556 219 2034 219 
z
M 2034 -91 
Q 1275 -91 848 546 
Q 422 1184 422 2328 
Q 422 3475 848 4112 
Q 1275 4750 2034 4750 
Q 2797 4750 3222 4112 
Q 3647 3475 3647 2328 
Q 3647 1184 3222 546 
Q 2797 -91 2034 -91 
z
" transform="scale(0.015625)"/>
       </defs>
       <use xlink:href="#DejaVuSerif-30"/>
      </g>
     </g>
    </g>
    <g id="xtick_2">
     <g id="line2d_2">
      <g>
       <use xlink:href="#m24e76dfab2" x="123.722187" y="207.671719" style="stroke: #000000; stroke-width: 0.8"/>
      </g>
     </g>
     <g id="text_2">
      <!-- 5 -->
      <g transform="translate(120.222812 223.03)scale(0.11 -0.11)">
       <defs>
        <path id="DejaVuSerif-35" d="M 3219 4666 
L 3219 4153 
L 1081 4153 
L 1081 2816 
Q 1244 2928 1461 2984 
Q 1678 3041 1947 3041 
Q 2703 3041 3140 2622 
Q 3578 2203 3578 1478 
Q 3578 738 3136 323 
Q 2694 -91 1894 -91 
Q 1572 -91 1234 -12 
Q 897 66 544 225 
L 544 1131 
L 897 1131 
Q 925 688 1179 453 
Q 1434 219 1894 219 
Q 2388 219 2653 544 
Q 2919 869 2919 1478 
Q 2919 2084 2655 2407 
Q 2391 2731 1894 2731 
Q 1613 2731 1398 2631 
Q 1184 2531 1019 2322 
L 750 2322 
L 750 4666 
L 3219 4666 
z
" transform="scale(0.015625)"/>
       </defs>
       <use xlink:href="#DejaVuSerif-35"/>
      </g>
     </g>
    </g>
    <g id="xtick_3">
     <g id="line2d_3">
      <g>
       <use xlink:href="#m24e76dfab2" x="177.848324" y="207.671719" style="stroke: #000000; stroke-width: 0.8"/>
      </g>
     </g>
     <g id="text_3">
      <!-- 10 -->
      <g transform="translate(170.849574 223.03)scale(0.11 -0.11)">
       <defs>
        <path id="DejaVuSerif-31" d="M 909 0 
L 909 331 
L 1722 331 
L 1722 4213 
L 781 3603 
L 781 4013 
L 1919 4750 
L 2350 4750 
L 2350 331 
L 3163 331 
L 3163 0 
L 909 0 
z
" transform="scale(0.015625)"/>
       </defs>
       <use xlink:href="#DejaVuSerif-31"/>
       <use xlink:href="#DejaVuSerif-30" x="63.623047"/>
      </g>
     </g>
    </g>
    <g id="xtick_4">
     <g id="line2d_4">
      <g>
       <use xlink:href="#m24e76dfab2" x="231.97446" y="207.671719" style="stroke: #000000; stroke-width: 0.8"/>
      </g>
     </g>
     <g id="text_4">
      <!-- 15 -->
      <g transform="translate(224.97571 223.03)scale(0.11 -0.11)">
       <use xlink:href="#DejaVuSerif-31"/>
       <use xlink:href="#DejaVuSerif-35" x="63.623047"/>
      </g>
     </g>
    </g>
    <g id="xtick_5">
     <g id="line2d_5">
      <g>
       <use xlink:href="#m24e76dfab2" x="286.100597" y="207.671719" style="stroke: #000000; stroke-width: 0.8"/>
      </g>
     </g>
     <g id="text_5">
      <!-- 20 -->
      <g transform="translate(279.101847 223.03)scale(0.11 -0.11)">
       <defs>
        <path id="DejaVuSerif-32" d="M 819 3553 
L 469 3553 
L 469 4384 
Q 803 4563 1142 4656 
Q 1481 4750 1806 4750 
Q 2534 4750 2956 4397 
Q 3378 4044 3378 3438 
Q 3378 2753 2422 1800 
Q 2347 1728 2309 1691 
L 1131 513 
L 3078 513 
L 3078 1088 
L 3444 1088 
L 3444 0 
L 434 0 
L 434 341 
L 1850 1753 
Q 2319 2222 2519 2614 
Q 2719 3006 2719 3438 
Q 2719 3909 2473 4175 
Q 2228 4441 1797 4441 
Q 1350 4441 1106 4219 
Q 863 3997 819 3553 
z
" transform="scale(0.015625)"/>
       </defs>
       <use xlink:href="#DejaVuSerif-32"/>
       <use xlink:href="#DejaVuSerif-30" x="63.623047"/>
      </g>
     </g>
    </g>
    <g id="text_6">
     <!-- Tageszeit in h -->
     <g transform="translate(159.563125 237.675938)scale(0.11 -0.11)">
      <defs>
       <path id="DejaVuSerif-54" d="M 1222 0 
L 1222 331 
L 1819 331 
L 1819 4294 
L 447 4294 
L 447 3566 
L 63 3566 
L 63 4666 
L 4206 4666 
L 4206 3566 
L 3822 3566 
L 3822 4294 
L 2450 4294 
L 2450 331 
L 3047 331 
L 3047 0 
L 1222 0 
z
" transform="scale(0.015625)"/>
       <path id="DejaVuSerif-61" d="M 2547 1044 
L 2547 1747 
L 1806 1747 
Q 1378 1747 1168 1562 
Q 959 1378 959 997 
Q 959 650 1171 447 
Q 1384 244 1747 244 
Q 2106 244 2326 466 
Q 2547 688 2547 1044 
z
M 3122 2075 
L 3122 331 
L 3634 331 
L 3634 0 
L 2547 0 
L 2547 359 
Q 2356 128 2106 18 
Q 1856 -91 1522 -91 
Q 969 -91 644 203 
Q 319 497 319 997 
Q 319 1513 691 1797 
Q 1063 2081 1741 2081 
L 2547 2081 
L 2547 2309 
Q 2547 2688 2317 2895 
Q 2088 3103 1672 3103 
Q 1328 3103 1125 2947 
Q 922 2791 872 2484 
L 575 2484 
L 575 3156 
Q 875 3284 1158 3348 
Q 1441 3413 1709 3413 
Q 2400 3413 2761 3070 
Q 3122 2728 3122 2075 
z
" transform="scale(0.015625)"/>
       <path id="DejaVuSerif-67" d="M 3359 2988 
L 3359 72 
Q 3359 -644 2965 -1033 
Q 2572 -1422 1844 -1422 
Q 1516 -1422 1216 -1362 
Q 916 -1303 641 -1184 
L 641 -488 
L 941 -488 
Q 997 -813 1206 -963 
Q 1416 -1113 1806 -1113 
Q 2313 -1113 2548 -827 
Q 2784 -541 2784 72 
L 2784 519 
Q 2616 206 2355 57 
Q 2094 -91 1709 -91 
Q 1097 -91 708 395 
Q 319 881 319 1663 
Q 319 2444 706 2928 
Q 1094 3413 1709 3413 
Q 2094 3413 2355 3264 
Q 2616 3116 2784 2803 
L 2784 3322 
L 3909 3322 
L 3909 2988 
L 3359 2988 
z
M 2784 1825 
Q 2784 2422 2554 2737 
Q 2325 3053 1888 3053 
Q 1444 3053 1217 2703 
Q 991 2353 991 1663 
Q 991 975 1217 622 
Q 1444 269 1888 269 
Q 2325 269 2554 583 
Q 2784 897 2784 1497 
L 2784 1825 
z
" transform="scale(0.015625)"/>
       <path id="DejaVuSerif-65" d="M 3469 1600 
L 991 1600 
L 991 1575 
Q 991 903 1244 561 
Q 1497 219 1991 219 
Q 2369 219 2611 417 
Q 2853 616 2950 1006 
L 3413 1006 
Q 3275 459 2904 184 
Q 2534 -91 1931 -91 
Q 1203 -91 761 389 
Q 319 869 319 1663 
Q 319 2450 753 2931 
Q 1188 3413 1894 3413 
Q 2647 3413 3050 2948 
Q 3453 2484 3469 1600 
z
M 2791 1931 
Q 2772 2513 2545 2808 
Q 2319 3103 1894 3103 
Q 1497 3103 1269 2806 
Q 1041 2509 991 1931 
L 2791 1931 
z
" transform="scale(0.015625)"/>
       <path id="DejaVuSerif-73" d="M 359 184 
L 359 959 
L 691 959 
Q 703 588 923 403 
Q 1144 219 1575 219 
Q 1963 219 2166 364 
Q 2369 509 2369 788 
Q 2369 1006 2220 1140 
Q 2072 1275 1594 1428 
L 1178 1569 
Q 750 1706 558 1912 
Q 366 2119 366 2438 
Q 366 2894 700 3153 
Q 1034 3413 1625 3413 
Q 1888 3413 2178 3344 
Q 2469 3275 2778 3144 
L 2778 2419 
L 2447 2419 
Q 2434 2741 2221 2922 
Q 2009 3103 1644 3103 
Q 1281 3103 1095 2975 
Q 909 2847 909 2591 
Q 909 2381 1050 2254 
Q 1191 2128 1613 1997 
L 2069 1856 
Q 2541 1709 2748 1489 
Q 2956 1269 2956 922 
Q 2956 450 2595 179 
Q 2234 -91 1600 -91 
Q 1278 -91 972 -22 
Q 666 47 359 184 
z
" transform="scale(0.015625)"/>
       <path id="DejaVuSerif-7a" d="M 256 0 
L 256 269 
L 2338 2988 
L 691 2988 
L 691 2413 
L 359 2413 
L 359 3322 
L 3078 3322 
L 3078 3053 
L 997 331 
L 2803 331 
L 2803 934 
L 3138 934 
L 3138 0 
L 256 0 
z
" transform="scale(0.015625)"/>
       <path id="DejaVuSerif-69" d="M 622 4353 
Q 622 4497 726 4603 
Q 831 4709 978 4709 
Q 1122 4709 1226 4603 
Q 1331 4497 1331 4353 
Q 1331 4206 1228 4103 
Q 1125 4000 978 4000 
Q 831 4000 726 4103 
Q 622 4206 622 4353 
z
M 1356 331 
L 1900 331 
L 1900 0 
L 231 0 
L 231 331 
L 781 331 
L 781 2988 
L 231 2988 
L 231 3322 
L 1356 3322 
L 1356 331 
z
" transform="scale(0.015625)"/>
       <path id="DejaVuSerif-74" d="M 691 2988 
L 184 2988 
L 184 3322 
L 691 3322 
L 691 4353 
L 1269 4353 
L 1269 3322 
L 2350 3322 
L 2350 2988 
L 1269 2988 
L 1269 878 
Q 1269 456 1350 337 
Q 1431 219 1650 219 
Q 1875 219 1978 351 
Q 2081 484 2088 781 
L 2522 781 
Q 2497 328 2275 118 
Q 2053 -91 1600 -91 
Q 1103 -91 897 129 
Q 691 350 691 878 
L 691 2988 
z
" transform="scale(0.015625)"/>
       <path id="DejaVuSerif-20" transform="scale(0.015625)"/>
       <path id="DejaVuSerif-6e" d="M 263 0 
L 263 331 
L 781 331 
L 781 2988 
L 231 2988 
L 231 3322 
L 1356 3322 
L 1356 2731 
Q 1516 3069 1770 3241 
Q 2025 3413 2363 3413 
Q 2913 3413 3172 3097 
Q 3431 2781 3431 2113 
L 3431 331 
L 3944 331 
L 3944 0 
L 2356 0 
L 2356 331 
L 2853 331 
L 2853 1931 
Q 2853 2541 2703 2767 
Q 2553 2994 2175 2994 
Q 1775 2994 1565 2701 
Q 1356 2409 1356 1850 
L 1356 331 
L 1856 331 
L 1856 0 
L 263 0 
z
" transform="scale(0.015625)"/>
       <path id="DejaVuSerif-68" d="M 263 0 
L 263 331 
L 781 331 
L 781 4531 
L 231 4531 
L 231 4863 
L 1356 4863 
L 1356 2731 
Q 1516 3069 1770 3241 
Q 2025 3413 2363 3413 
Q 2913 3413 3172 3097 
Q 3431 2781 3431 2113 
L 3431 331 
L 3944 331 
L 3944 0 
L 2356 0 
L 2356 331 
L 2853 331 
L 2853 1931 
Q 2853 2541 2704 2764 
Q 2556 2988 2175 2988 
Q 1775 2988 1565 2697 
Q 1356 2406 1356 1850 
L 1356 331 
L 1856 331 
L 1856 0 
L 263 0 
z
" transform="scale(0.015625)"/>
      </defs>
      <use xlink:href="#DejaVuSerif-54"/>
      <use xlink:href="#DejaVuSerif-61" x="58.949219"/>
      <use xlink:href="#DejaVuSerif-67" x="118.568359"/>
      <use xlink:href="#DejaVuSerif-65" x="182.582031"/>
      <use xlink:href="#DejaVuSerif-73" x="241.761719"/>
      <use xlink:href="#DejaVuSerif-7a" x="293.080078"/>
      <use xlink:href="#DejaVuSerif-65" x="345.765625"/>
      <use xlink:href="#DejaVuSerif-69" x="404.945312"/>
      <use xlink:href="#DejaVuSerif-74" x="436.927734"/>
      <use xlink:href="#DejaVuSerif-20" x="477.113281"/>
      <use xlink:href="#DejaVuSerif-69" x="508.900391"/>
      <use xlink:href="#DejaVuSerif-6e" x="540.882812"/>
      <use xlink:href="#DejaVuSerif-20" x="605.287109"/>
      <use xlink:href="#DejaVuSerif-68" x="637.074219"/>
     </g>
    </g>
   </g>
   <g id="matplotlib.axis_2">
    <g id="ytick_1">
     <g id="line2d_6">
      <defs>
       <path id="mcb4aa4f3d4" d="M 0 0 
L -3.5 0 
" style="stroke: #000000; stroke-width: 0.8"/>
      </defs>
      <g>
       <use xlink:href="#mcb4aa4f3d4" x="56.741094" y="201.057101" style="stroke: #000000; stroke-width: 0.8"/>
      </g>
     </g>
     <g id="text_7">
      <!-- −10 -->
      <g transform="translate(26.525938 205.236242)scale(0.11 -0.11)">
       <defs>
        <path id="DejaVuSerif-2212" d="M 678 2259 
L 4684 2259 
L 4684 1753 
L 678 1753 
L 678 2259 
z
" transform="scale(0.015625)"/>
       </defs>
       <use xlink:href="#DejaVuSerif-2212"/>
       <use xlink:href="#DejaVuSerif-31" x="83.789062"/>
       <use xlink:href="#DejaVuSerif-30" x="147.412109"/>
      </g>
     </g>
    </g>
    <g id="ytick_2">
     <g id="line2d_7">
      <g>
       <use xlink:href="#mcb4aa4f3d4" x="56.741094" y="153.452803" style="stroke: #000000; stroke-width: 0.8"/>
      </g>
     </g>
     <g id="text_8">
      <!-- 0 -->
      <g transform="translate(42.742344 157.631944)scale(0.11 -0.11)">
       <use xlink:href="#DejaVuSerif-30"/>
      </g>
     </g>
    </g>
    <g id="ytick_3">
     <g id="line2d_8">
      <g>
       <use xlink:href="#mcb4aa4f3d4" x="56.741094" y="105.848505" style="stroke: #000000; stroke-width: 0.8"/>
      </g>
     </g>
     <g id="text_9">
      <!-- 10 -->
      <g transform="translate(35.743594 110.027645)scale(0.11 -0.11)">
       <use xlink:href="#DejaVuSerif-31"/>
       <use xlink:href="#DejaVuSerif-30" x="63.623047"/>
      </g>
     </g>
    </g>
    <g id="ytick_4">
     <g id="line2d_9">
      <g>
       <use xlink:href="#mcb4aa4f3d4" x="56.741094" y="58.244206" style="stroke: #000000; stroke-width: 0.8"/>
      </g>
     </g>
     <g id="text_10">
      <!-- 20 -->
      <g transform="translate(35.743594 62.423347)scale(0.11 -0.11)">
       <use xlink:href="#DejaVuSerif-32"/>
       <use xlink:href="#DejaVuSerif-30" x="63.623047"/>
      </g>
     </g>
    </g>
    <g id="text_11">
     <!-- Temperatur in °C -->
     <g transform="translate(20.238281 158.310781)rotate(-90)scale(0.11 -0.11)">
      <defs>
       <path id="DejaVuSerif-6d" d="M 3316 2675 
Q 3481 3041 3739 3227 
Q 3997 3413 4341 3413 
Q 4863 3413 5119 3089 
Q 5375 2766 5375 2113 
L 5375 331 
L 5894 331 
L 5894 0 
L 4300 0 
L 4300 331 
L 4800 331 
L 4800 2047 
Q 4800 2556 4650 2772 
Q 4500 2988 4153 2988 
Q 3769 2988 3567 2697 
Q 3366 2406 3366 1850 
L 3366 331 
L 3866 331 
L 3866 0 
L 2291 0 
L 2291 331 
L 2791 331 
L 2791 2069 
Q 2791 2566 2641 2777 
Q 2491 2988 2144 2988 
Q 1759 2988 1557 2697 
Q 1356 2406 1356 1850 
L 1356 331 
L 1856 331 
L 1856 0 
L 263 0 
L 263 331 
L 781 331 
L 781 2994 
L 231 2994 
L 231 3322 
L 1356 3322 
L 1356 2731 
Q 1516 3063 1762 3238 
Q 2009 3413 2322 3413 
Q 2709 3413 2968 3220 
Q 3228 3028 3316 2675 
z
" transform="scale(0.015625)"/>
       <path id="DejaVuSerif-70" d="M 1313 1825 
L 1313 1497 
Q 1313 897 1542 583 
Q 1772 269 2209 269 
Q 2650 269 2876 622 
Q 3103 975 3103 1663 
Q 3103 2353 2876 2703 
Q 2650 3053 2209 3053 
Q 1772 3053 1542 2737 
Q 1313 2422 1313 1825 
z
M 738 2988 
L 184 2988 
L 184 3322 
L 1313 3322 
L 1313 2803 
Q 1481 3116 1742 3264 
Q 2003 3413 2388 3413 
Q 3000 3413 3387 2928 
Q 3775 2444 3775 1663 
Q 3775 881 3387 395 
Q 3000 -91 2388 -91 
Q 2003 -91 1742 57 
Q 1481 206 1313 519 
L 1313 -997 
L 1856 -997 
L 1856 -1331 
L 184 -1331 
L 184 -997 
L 738 -997 
L 738 2988 
z
" transform="scale(0.015625)"/>
       <path id="DejaVuSerif-72" d="M 3059 3328 
L 3059 2497 
L 2728 2497 
Q 2713 2744 2591 2866 
Q 2469 2988 2234 2988 
Q 1809 2988 1582 2694 
Q 1356 2400 1356 1850 
L 1356 331 
L 2022 331 
L 2022 0 
L 263 0 
L 263 331 
L 781 331 
L 781 2994 
L 231 2994 
L 231 3322 
L 1356 3322 
L 1356 2731 
Q 1525 3078 1790 3245 
Q 2056 3413 2438 3413 
Q 2578 3413 2733 3391 
Q 2888 3369 3059 3328 
z
" transform="scale(0.015625)"/>
       <path id="DejaVuSerif-75" d="M 2266 3322 
L 3341 3322 
L 3341 331 
L 3884 331 
L 3884 0 
L 2766 0 
L 2766 588 
Q 2606 256 2353 82 
Q 2100 -91 1766 -91 
Q 1213 -91 952 223 
Q 691 538 691 1209 
L 691 2988 
L 172 2988 
L 172 3322 
L 1269 3322 
L 1269 1388 
Q 1269 781 1417 556 
Q 1566 331 1947 331 
Q 2347 331 2556 625 
Q 2766 919 2766 1478 
L 2766 2988 
L 2266 2988 
L 2266 3322 
z
" transform="scale(0.015625)"/>
       <path id="DejaVuSerif-b0" d="M 1600 4319 
Q 1363 4319 1200 4155 
Q 1038 3991 1038 3750 
Q 1038 3513 1198 3353 
Q 1359 3194 1600 3194 
Q 1838 3194 2000 3355 
Q 2163 3516 2163 3750 
Q 2163 3984 1997 4151 
Q 1831 4319 1600 4319 
z
M 1600 4750 
Q 1800 4750 1984 4673 
Q 2169 4597 2303 4453 
Q 2447 4313 2519 4134 
Q 2591 3956 2591 3750 
Q 2591 3338 2302 3052 
Q 2013 2766 1594 2766 
Q 1172 2766 890 3047 
Q 609 3328 609 3750 
Q 609 4169 896 4459 
Q 1184 4750 1600 4750 
z
" transform="scale(0.015625)"/>
       <path id="DejaVuSerif-43" d="M 4513 1234 
Q 4306 581 3820 245 
Q 3334 -91 2591 -91 
Q 2134 -91 1743 65 
Q 1353 222 1050 525 
Q 700 875 529 1320 
Q 359 1766 359 2328 
Q 359 3416 987 4083 
Q 1616 4750 2644 4750 
Q 3025 4750 3456 4650 
Q 3888 4550 4384 4347 
L 4384 3272 
L 4031 3272 
Q 3916 3859 3567 4137 
Q 3219 4416 2591 4416 
Q 1844 4416 1459 3886 
Q 1075 3356 1075 2328 
Q 1075 1303 1459 773 
Q 1844 244 2591 244 
Q 3113 244 3450 492 
Q 3788 741 3938 1234 
L 4513 1234 
z
" transform="scale(0.015625)"/>
      </defs>
      <use xlink:href="#DejaVuSerif-54"/>
      <use xlink:href="#DejaVuSerif-65" x="58.949219"/>
      <use xlink:href="#DejaVuSerif-6d" x="118.128906"/>
      <use xlink:href="#DejaVuSerif-70" x="212.953125"/>
      <use xlink:href="#DejaVuSerif-65" x="276.966797"/>
      <use xlink:href="#DejaVuSerif-72" x="336.146484"/>
      <use xlink:href="#DejaVuSerif-61" x="383.949219"/>
      <use xlink:href="#DejaVuSerif-74" x="443.568359"/>
      <use xlink:href="#DejaVuSerif-75" x="483.753906"/>
      <use xlink:href="#DejaVuSerif-72" x="548.158203"/>
      <use xlink:href="#DejaVuSerif-20" x="595.960938"/>
      <use xlink:href="#DejaVuSerif-69" x="627.748047"/>
      <use xlink:href="#DejaVuSerif-6e" x="659.730469"/>
      <use xlink:href="#DejaVuSerif-20" x="724.134766"/>
      <use xlink:href="#DejaVuSerif-b0" x="755.921875"/>
      <use xlink:href="#DejaVuSerif-43" x="805.921875"/>
     </g>
    </g>
   </g>
   <g id="line2d_10">
    <path d="M 69.596051 152.548321 
L 72.302358 152.405509 
L 75.008665 152.3103 
L 77.714972 152.167487 
L 80.421278 152.072278 
L 83.127585 152.405509 
L 85.833892 152.738739 
L 88.540199 153.119573 
L 91.246506 153.452803 
L 93.952812 153.452803 
L 96.659119 153.452803 
L 99.365426 153.452803 
L 102.071733 153.452803 
L 104.77804 153.452803 
L 107.484347 153.452803 
L 110.190653 153.452803 
L 112.89696 153.452803 
L 115.603267 153.548012 
L 118.309574 153.690825 
L 121.015881 153.786033 
L 123.722187 153.928846 
L 126.428494 153.690825 
L 129.134801 153.452803 
L 131.841108 153.214782 
L 134.547415 152.97676 
L 137.253722 153.119573 
L 139.960028 153.214782 
L 142.666335 153.357595 
L 145.372642 153.452803 
L 148.078949 153.548012 
L 150.785256 153.690825 
L 153.491562 153.786033 
L 156.197869 153.928846 
L 158.904176 154.357285 
L 161.610483 154.833328 
L 164.31679 155.309371 
L 167.023097 155.785414 
L 169.729403 155.404579 
L 172.43571 155.071349 
L 175.142017 154.738119 
L 177.848324 154.357285 
L 180.554631 153.928846 
L 183.260937 153.452803 
L 185.967244 152.97676 
L 188.673551 152.548321 
L 191.379858 152.405509 
L 194.086165 152.3103 
L 196.792472 152.167487 
L 199.498778 152.072278 
L 202.205085 151.834257 
L 204.911392 151.596235 
L 207.617699 151.358214 
L 210.324006 151.120193 
L 213.030312 150.929775 
L 215.736619 150.691754 
L 218.442926 150.453732 
L 221.149233 150.215711 
L 223.85554 150.215711 
L 226.561847 150.215711 
L 229.268153 150.215711 
L 231.97446 150.215711 
L 234.680767 150.310919 
L 237.387074 150.453732 
L 240.093381 150.548941 
L 242.799687 150.691754 
L 245.505994 150.548941 
L 248.212301 150.453732 
L 250.918608 150.310919 
L 253.624915 150.215711 
L 256.331222 150.310919 
L 259.037528 150.453732 
L 261.743835 150.548941 
L 264.450142 150.691754 
L 267.156449 150.691754 
L 269.862756 150.691754 
L 272.569062 150.691754 
L 275.275369 150.691754 
L 277.981676 150.786962 
L 280.687983 150.929775 
L 283.39429 151.024984 
L 286.100597 151.120193 
L 288.806903 151.596235 
L 291.51321 152.072278 
L 294.219517 152.548321 
L 296.925824 152.97676 
L 299.632131 152.97676 
L 302.338437 152.97676 
L 305.044744 152.97676 
L 307.751051 152.97676 
L 310.457358 153.119573 
L 313.163665 153.214782 
L 315.869972 153.357595 
L 318.576278 153.452803 
L 321.282585 153.452803 
L 323.988892 153.452803 
L 326.695199 153.452803 
" clip-path="url(#p9bc5373b16)" style="fill: none; stroke: #ec635c; stroke-width: 1.5; stroke-linecap: square"/>
   </g>
   <g id="line2d_11">
    <path d="M 69.596051 143.265483 
L 72.302358 143.503505 
L 75.008665 143.741526 
L 77.714972 143.979548 
L 80.421278 144.217569 
L 83.127585 144.455591 
L 85.833892 144.646008 
L 88.540199 144.884029 
L 91.246506 145.122051 
L 93.952812 146.264554 
L 96.659119 147.454662 
L 99.365426 148.597165 
L 102.071733 149.739668 
L 104.77804 151.501027 
L 107.484347 153.214782 
L 110.190653 154.976141 
L 112.89696 156.689895 
L 115.603267 157.73719 
L 118.309574 158.784485 
L 121.015881 159.831779 
L 123.722187 160.831469 
L 126.428494 161.450325 
L 129.134801 162.021577 
L 131.841108 162.592828 
L 134.547415 163.16408 
L 137.253722 163.068871 
L 139.960028 162.926059 
L 142.666335 162.83085 
L 145.372642 162.688037 
L 148.078949 159.593758 
L 150.785256 156.451874 
L 153.491562 153.357595 
L 156.197869 150.215711 
L 158.904176 146.978619 
L 161.610483 143.741526 
L 164.31679 140.504434 
L 167.023097 137.267342 
L 169.729403 134.839522 
L 172.43571 132.411703 
L 175.142017 129.983884 
L 177.848324 127.556065 
L 180.554631 125.699497 
L 183.260937 123.84293 
L 185.967244 122.033966 
L 188.673551 120.177399 
L 191.379858 118.320831 
L 194.086165 116.464263 
L 196.792472 114.607696 
L 199.498778 112.751128 
L 202.205085 112.179876 
L 204.911392 111.608625 
L 207.617699 111.037373 
L 210.324006 110.466122 
L 213.030312 109.752057 
L 215.736619 109.085597 
L 218.442926 108.371533 
L 221.149233 107.705072 
L 223.85554 109.418827 
L 226.561847 111.132582 
L 229.268153 112.893941 
L 231.97446 114.607696 
L 234.680767 115.65499 
L 237.387074 116.702285 
L 240.093381 117.749579 
L 242.799687 118.796874 
L 245.505994 120.986672 
L 248.212301 123.176469 
L 250.918608 125.366267 
L 253.624915 127.556065 
L 256.331222 129.650654 
L 259.037528 131.745243 
L 261.743835 133.792228 
L 264.450142 135.886817 
L 267.156449 137.02932 
L 269.862756 138.219428 
L 272.569062 139.361931 
L 275.275369 140.504434 
L 277.981676 141.551729 
L 280.687983 142.599023 
L 283.39429 143.646318 
L 286.100597 144.646008 
L 288.806903 145.598094 
L 291.51321 146.502576 
L 294.219517 147.454662 
L 296.925824 148.359143 
L 299.632131 149.739668 
L 302.338437 151.120193 
L 305.044744 152.548321 
L 307.751051 153.928846 
L 310.457358 154.833328 
L 313.163665 155.785414 
L 315.869972 156.689895 
L 318.576278 157.594377 
L 321.282585 157.594377 
L 323.988892 157.594377 
L 326.695199 157.594377 
" clip-path="url(#p9bc5373b16)" style="fill: none; stroke-dasharray: 5.55,2.4; stroke-dashoffset: 0; stroke: #4b81c4; stroke-width: 1.5"/>
   </g>
   <g id="line2d_12">
    <path d="M 69.596051 88.282519 
L 72.302358 88.377727 
L 75.008665 88.52054 
L 77.714972 88.615749 
L 80.421278 88.710957 
L 83.127585 88.948979 
L 85.833892 89.187 
L 88.540199 89.425022 
L 91.246506 89.663043 
L 93.952812 89.425022 
L 96.659119 89.187 
L 99.365426 88.948979 
L 102.071733 88.710957 
L 104.77804 89.425022 
L 107.484347 90.139086 
L 110.190653 90.805546 
L 112.89696 91.519611 
L 115.603267 89.663043 
L 118.309574 87.806476 
L 121.015881 85.949908 
L 123.722187 84.09334 
L 126.428494 80.427809 
L 129.134801 76.714674 
L 131.841108 73.001539 
L 134.547415 69.336008 
L 137.253722 66.194124 
L 139.960028 63.052241 
L 142.666335 59.957961 
L 145.372642 56.816077 
L 148.078949 53.817007 
L 150.785256 50.817936 
L 153.491562 47.818865 
L 156.197869 44.819794 
L 158.904176 42.868018 
L 161.610483 40.868637 
L 164.31679 38.916861 
L 167.023097 36.965085 
L 169.729403 36.489042 
L 172.43571 36.012999 
L 175.142017 35.58456 
L 177.848324 35.108517 
L 180.554631 34.061223 
L 183.260937 33.013928 
L 185.967244 31.966634 
L 188.673551 30.919339 
L 191.379858 30.252879 
L 194.086165 29.538814 
L 196.792472 28.872354 
L 199.498778 28.15829 
L 202.205085 27.349017 
L 204.911392 26.539744 
L 207.617699 25.730471 
L 210.324006 24.921198 
L 213.030312 24.921198 
L 215.736619 24.921198 
L 218.442926 24.921198 
L 221.149233 24.921198 
L 223.85554 23.873903 
L 226.561847 22.874213 
L 229.268153 21.826918 
L 231.97446 20.779624 
L 234.680767 22.493378 
L 237.387074 24.254737 
L 240.093381 25.968492 
L 242.799687 27.682247 
L 245.505994 28.063081 
L 248.212301 28.396311 
L 250.918608 28.729541 
L 253.624915 29.110376 
L 256.331222 30.4909 
L 259.037528 31.871425 
L 261.743835 33.25195 
L 264.450142 34.632474 
L 267.156449 36.155812 
L 269.862756 37.631545 
L 272.569062 39.154883 
L 275.275369 40.630616 
L 277.981676 42.391975 
L 280.687983 44.10573 
L 283.39429 45.867089 
L 286.100597 47.580844 
L 288.806903 48.961368 
L 291.51321 50.341893 
L 294.219517 51.722418 
L 296.925824 53.150546 
L 299.632131 54.769093 
L 302.338437 56.387639 
L 305.044744 58.006185 
L 307.751051 59.624731 
L 310.457358 60.529213 
L 313.163665 61.433694 
L 315.869972 62.38578 
L 318.576278 63.290262 
L 321.282585 63.290262 
L 323.988892 63.290262 
L 326.695199 63.290262 
" clip-path="url(#p9bc5373b16)" style="fill: none; stroke-dasharray: 1.5,2.475; stroke-dashoffset: 0; stroke: #f49961; stroke-width: 1.5"/>
   </g>
   <g id="line2d_13">
    <path d="M 69.596051 68.383922 
L 72.302358 68.621943 
L 75.008665 68.859965 
L 77.714972 69.097986 
L 80.421278 69.336008 
L 83.127585 69.669238 
L 85.833892 70.002468 
L 88.540199 70.335698 
L 91.246506 70.716533 
L 93.952812 70.811741 
L 96.659119 70.90695 
L 99.365426 71.049763 
L 102.071733 71.144971 
L 104.77804 71.144971 
L 107.484347 71.144971 
L 110.190653 71.144971 
L 112.89696 71.144971 
L 115.603267 71.382993 
L 118.309574 71.621014 
L 121.015881 71.859036 
L 123.722187 72.097057 
L 126.428494 72.430287 
L 129.134801 72.763517 
L 131.841108 73.144352 
L 134.547415 73.477582 
L 137.253722 73.715603 
L 139.960028 73.953625 
L 142.666335 74.144042 
L 145.372642 74.382064 
L 148.078949 74.144042 
L 150.785256 73.953625 
L 153.491562 73.715603 
L 156.197869 73.477582 
L 158.904176 73.334769 
L 161.610483 73.23956 
L 164.31679 73.144352 
L 167.023097 73.001539 
L 169.729403 72.525496 
L 172.43571 72.097057 
L 175.142017 71.621014 
L 177.848324 71.144971 
L 180.554631 70.57372 
L 183.260937 70.002468 
L 185.967244 69.431217 
L 188.673551 68.859965 
L 191.379858 69.907259 
L 194.086165 70.90695 
L 196.792472 71.954244 
L 199.498778 73.001539 
L 202.205085 72.335079 
L 204.911392 71.621014 
L 207.617699 70.90695 
L 210.324006 70.24049 
L 213.030312 69.097986 
L 215.736619 67.907879 
L 218.442926 66.765376 
L 221.149233 65.622873 
L 223.85554 65.622873 
L 226.561847 65.622873 
L 229.268153 65.622873 
L 231.97446 65.622873 
L 234.680767 68.526735 
L 237.387074 71.382993 
L 240.093381 74.286855 
L 242.799687 77.190717 
L 245.505994 77.523947 
L 248.212301 77.857177 
L 250.918608 78.190407 
L 253.624915 78.571242 
L 256.331222 78.428429 
L 259.037528 78.33322 
L 261.743835 78.190407 
L 264.450142 78.095199 
L 267.156449 78.571242 
L 269.862756 78.99968 
L 272.569062 79.475723 
L 275.275369 79.951766 
L 277.981676 80.284997 
L 280.687983 80.618227 
L 283.39429 80.999061 
L 286.100597 81.332291 
L 288.806903 81.903543 
L 291.51321 82.474794 
L 294.219517 83.046046 
L 296.925824 83.664902 
L 299.632131 83.998132 
L 302.338437 84.331362 
L 305.044744 84.664592 
L 307.751051 85.045426 
L 310.457358 85.854699 
L 313.163665 86.663973 
L 315.869972 87.473246 
L 318.576278 88.282519 
L 321.282585 88.282519 
L 323.988892 88.282519 
L 326.695199 88.282519 
" clip-path="url(#p9bc5373b16)" style="fill: none; stroke-dasharray: 9.6,2.4,1.5,2.4; stroke-dashoffset: 0; stroke: #8768b4; stroke-width: 1.5"/>
   </g>
   <g id="line2d_14">
    <path d="M 69.596051 89.663043 
L 72.302358 90.139086 
L 75.008665 90.567525 
L 77.714972 91.043568 
L 80.421278 91.519611 
L 83.127585 91.852841 
L 85.833892 92.186071 
L 88.540199 92.566906 
L 91.246506 92.900136 
L 93.952812 93.709409 
L 96.659119 94.518682 
L 99.365426 95.327955 
L 102.071733 96.137228 
L 104.77804 96.470458 
L 107.484347 96.803688 
L 110.190653 97.184522 
L 112.89696 97.517753 
L 115.603267 96.803688 
L 118.309574 96.137228 
L 121.015881 95.423163 
L 123.722187 94.756703 
L 126.428494 93.471387 
L 129.134801 92.186071 
L 131.841108 90.948359 
L 134.547415 89.663043 
L 137.253722 88.377727 
L 139.960028 87.092411 
L 142.666335 85.854699 
L 145.372642 84.569383 
L 148.078949 81.332291 
L 150.785256 78.095199 
L 153.491562 74.858107 
L 156.197869 71.621014 
L 158.904176 69.526425 
L 161.610483 67.47944 
L 164.31679 65.384851 
L 167.023097 63.290262 
L 169.729403 62.861823 
L 172.43571 62.38578 
L 175.142017 61.909737 
L 177.848324 61.433694 
L 180.554631 60.05317 
L 183.260937 58.672645 
L 185.967244 57.29212 
L 188.673551 55.911596 
L 191.379858 55.102323 
L 194.086165 54.29305 
L 196.792472 53.483777 
L 199.498778 52.674503 
L 202.205085 52.436482 
L 204.911392 52.198461 
L 207.617699 51.960439 
L 210.324006 51.722418 
L 213.030312 51.151166 
L 215.736619 50.579914 
L 218.442926 50.008663 
L 221.149233 49.437411 
L 223.85554 49.913454 
L 226.561847 50.341893 
L 229.268153 50.817936 
L 231.97446 51.293979 
L 234.680767 51.293979 
L 237.387074 51.293979 
L 240.093381 51.293979 
L 242.799687 51.293979 
L 245.505994 51.960439 
L 248.212301 52.674503 
L 250.918608 53.340964 
L 253.624915 54.055028 
L 256.331222 54.055028 
L 259.037528 54.055028 
L 261.743835 54.055028 
L 264.450142 54.055028 
L 267.156449 55.768783 
L 269.862756 57.530142 
L 272.569062 59.243897 
L 275.275369 61.005256 
L 277.981676 63.766305 
L 280.687983 66.527354 
L 283.39429 69.336008 
L 286.100597 72.097057 
L 288.806903 73.57279 
L 291.51321 75.096128 
L 294.219517 76.571861 
L 296.925824 78.095199 
L 299.632131 79.142493 
L 302.338437 80.189788 
L 305.044744 81.237083 
L 307.751051 82.236773 
L 310.457358 82.855629 
L 313.163665 83.42688 
L 315.869972 83.998132 
L 318.576278 84.569383 
L 321.282585 84.569383 
L 323.988892 84.569383 
L 326.695199 84.569383 
" clip-path="url(#p9bc5373b16)" style="fill: none; stroke-dasharray: 15,4.5; stroke-dashoffset: 7.5; stroke: #b45955; stroke-width: 1.5"/>
   </g>
   <g id="line2d_15">
    <path d="M 69.596051 99.802759 
L 72.302358 100.183593 
L 75.008665 100.516823 
L 77.714972 100.850053 
L 80.421278 101.230888 
L 83.127585 101.230888 
L 85.833892 101.230888 
L 88.540199 101.230888 
L 91.246506 101.230888 
L 93.952812 101.326096 
L 96.659119 101.421305 
L 99.365426 101.564118 
L 102.071733 101.659327 
L 104.77804 101.659327 
L 107.484347 101.659327 
L 110.190653 101.659327 
L 112.89696 101.659327 
L 115.603267 103.182664 
L 118.309574 104.658397 
L 121.015881 106.181735 
L 123.722187 107.705072 
L 126.428494 107.56226 
L 129.134801 107.467051 
L 131.841108 107.324238 
L 134.547415 107.229029 
L 137.253722 107.229029 
L 139.960028 107.229029 
L 142.666335 107.229029 
L 145.372642 107.229029 
L 148.078949 106.895799 
L 150.785256 106.514965 
L 153.491562 106.181735 
L 156.197869 105.848505 
L 158.904176 104.563189 
L 161.610483 103.277873 
L 164.31679 102.040161 
L 167.023097 100.754845 
L 169.729403 100.516823 
L 172.43571 100.278802 
L 175.142017 100.04078 
L 177.848324 99.802759 
L 180.554631 99.136299 
L 183.260937 98.422234 
L 185.967244 97.755774 
L 188.673551 97.04171 
L 191.379858 95.327955 
L 194.086165 93.566596 
L 196.792472 91.852841 
L 199.498778 90.139086 
L 202.205085 89.901065 
L 204.911392 89.663043 
L 207.617699 89.425022 
L 210.324006 89.187 
L 213.030312 88.282519 
L 215.736619 87.330433 
L 218.442926 86.425951 
L 221.149233 85.473865 
L 223.85554 85.378656 
L 226.561847 85.283448 
L 229.268153 85.140635 
L 231.97446 85.045426 
L 234.680767 86.18793 
L 237.387074 87.330433 
L 240.093381 88.52054 
L 242.799687 89.663043 
L 245.505994 90.139086 
L 248.212301 90.567525 
L 250.918608 91.043568 
L 253.624915 91.519611 
L 256.331222 92.662114 
L 259.037528 93.804617 
L 261.743835 94.94712 
L 264.450142 96.137228 
L 267.156449 96.565667 
L 269.862756 97.04171 
L 272.569062 97.517753 
L 275.275369 97.993796 
L 277.981676 97.612961 
L 280.687983 97.279731 
L 283.39429 96.946501 
L 286.100597 96.565667 
L 288.806903 96.708479 
L 291.51321 96.803688 
L 294.219517 96.946501 
L 296.925824 97.04171 
L 299.632131 97.279731 
L 302.338437 97.517753 
L 305.044744 97.755774 
L 307.751051 97.993796 
L 310.457358 98.089004 
L 313.163665 98.184213 
L 315.869972 98.327026 
L 318.576278 98.422234 
L 321.282585 98.422234 
L 323.988892 98.422234 
L 326.695199 98.422234 
" clip-path="url(#p9bc5373b16)" style="fill: none; stroke-dasharray: 4.5,7.5,1.5,7.5,1.5,7.5; stroke-dashoffset: 0; stroke: #cb74f4; stroke-width: 1.5"/>
   </g>
   <g id="line2d_16">
    <path d="M 69.596051 120.605837 
L 72.302358 120.74865 
L 75.008665 120.843859 
L 77.714972 120.986672 
L 80.421278 121.08188 
L 83.127585 121.41511 
L 85.833892 121.795945 
L 88.540199 122.129175 
L 91.246506 122.462405 
L 93.952812 122.224383 
L 96.659119 122.033966 
L 99.365426 121.795945 
L 102.071733 121.557923 
L 104.77804 121.41511 
L 107.484347 121.319902 
L 110.190653 121.224693 
L 112.89696 121.08188 
L 115.603267 121.08188 
L 118.309574 121.08188 
L 121.015881 121.08188 
L 123.722187 121.08188 
L 126.428494 121.319902 
L 129.134801 121.557923 
L 131.841108 121.795945 
L 134.547415 122.033966 
L 137.253722 121.653132 
L 139.960028 121.319902 
L 142.666335 120.986672 
L 145.372642 120.605837 
L 148.078949 120.177399 
L 150.785256 119.701356 
L 153.491562 119.225313 
L 156.197869 118.796874 
L 158.904176 118.320831 
L 161.610483 117.844788 
L 164.31679 117.416349 
L 167.023097 116.940306 
L 169.729403 116.369055 
L 172.43571 115.797803 
L 175.142017 115.178947 
L 177.848324 114.607696 
L 180.554631 114.274466 
L 183.260937 113.941235 
L 185.967244 113.560401 
L 188.673551 113.227171 
L 191.379858 112.751128 
L 194.086165 112.322689 
L 196.792472 111.846646 
L 199.498778 111.370603 
L 202.205085 111.037373 
L 204.911392 110.704143 
L 207.617699 110.323309 
L 210.324006 109.990079 
L 213.030312 110.132892 
L 215.736619 110.2281 
L 218.442926 110.323309 
L 221.149233 110.466122 
L 223.85554 110.799352 
L 226.561847 111.132582 
L 229.268153 111.513416 
L 231.97446 111.846646 
L 234.680767 112.655919 
L 237.387074 113.465192 
L 240.093381 114.274466 
L 242.799687 115.083739 
L 245.505994 115.416969 
L 248.212301 115.797803 
L 250.918608 116.131033 
L 253.624915 116.464263 
L 256.331222 117.273536 
L 259.037528 118.082809 
L 261.743835 118.892083 
L 264.450142 119.701356 
L 267.156449 119.796564 
L 269.862756 119.939377 
L 272.569062 120.034586 
L 275.275369 120.177399 
L 277.981676 119.796564 
L 280.687983 119.463334 
L 283.39429 119.130104 
L 286.100597 118.796874 
L 288.806903 118.41604 
L 291.51321 118.082809 
L 294.219517 117.749579 
L 296.925824 117.416349 
L 299.632131 116.702285 
L 302.338437 115.98822 
L 305.044744 115.32176 
L 307.751051 114.607696 
L 310.457358 114.179257 
L 313.163665 113.703214 
L 315.869972 113.227171 
L 318.576278 112.751128 
L 321.282585 112.751128 
L 323.988892 112.751128 
L 326.695199 112.751128 
" clip-path="url(#p9bc5373b16)" style="fill: none; stroke-dasharray: 4.5,1.5,1.5,1.5,1.5,1.5; stroke-dashoffset: 0; stroke: #6ebb96; stroke-width: 1.5"/>
   </g>
   <g id="line2d_17">
    <path d="M 69.596051 180.254023 
L 72.302358 179.587563 
L 75.008665 178.873498 
L 77.714972 178.207038 
L 80.421278 177.492974 
L 83.127585 176.921722 
L 85.833892 176.350471 
L 88.540199 175.779219 
L 91.246506 175.160363 
L 93.952812 175.065155 
L 96.659119 174.969946 
L 99.365426 174.827133 
L 102.071733 174.731924 
L 104.77804 174.35109 
L 107.484347 174.01786 
L 110.190653 173.68463 
L 112.89696 173.3514 
L 115.603267 174.160673 
L 118.309574 174.969946 
L 121.015881 175.779219 
L 123.722187 176.588492 
L 126.428494 176.921722 
L 129.134801 177.254952 
L 131.841108 177.588182 
L 134.547415 177.969017 
L 137.253722 178.540268 
L 139.960028 179.11152 
L 142.666335 179.682772 
L 145.372642 180.254023 
L 148.078949 181.301318 
L 150.785256 182.348612 
L 153.491562 183.395907 
L 156.197869 184.443201 
L 158.904176 183.967158 
L 161.610483 183.491115 
L 164.31679 183.062677 
L 167.023097 182.586634 
L 169.729403 182.015382 
L 172.43571 181.444131 
L 175.142017 180.825275 
L 177.848324 180.254023 
L 180.554631 180.825275 
L 183.260937 181.444131 
L 185.967244 182.015382 
L 188.673551 182.586634 
L 191.379858 182.443821 
L 194.086165 182.348612 
L 196.792472 182.253404 
L 199.498778 182.110591 
L 202.205085 181.777361 
L 204.911392 181.444131 
L 207.617699 181.063296 
L 210.324006 180.730066 
L 213.030312 181.063296 
L 215.736619 181.444131 
L 218.442926 181.777361 
L 221.149233 182.110591 
L 223.85554 182.681842 
L 226.561847 183.253094 
L 229.268153 183.87195 
L 231.97446 184.443201 
L 234.680767 184.53841 
L 237.387074 184.681223 
L 240.093381 184.776431 
L 242.799687 184.87164 
L 245.505994 184.20518 
L 248.212301 183.491115 
L 250.918608 182.824655 
L 253.624915 182.110591 
L 256.331222 182.110591 
L 259.037528 182.110591 
L 261.743835 182.110591 
L 264.450142 182.110591 
L 267.156449 181.777361 
L 269.862756 181.444131 
L 272.569062 181.063296 
L 275.275369 180.730066 
L 277.981676 180.968088 
L 280.687983 181.206109 
L 283.39429 181.444131 
L 286.100597 181.634548 
L 288.806903 183.157885 
L 291.51321 184.681223 
L 294.219517 186.156956 
L 296.925824 187.680294 
L 299.632131 190.203321 
L 302.338437 192.726349 
L 305.044744 195.296981 
L 307.751051 197.820009 
L 310.457358 198.058031 
L 313.163665 198.296052 
L 315.869972 198.534074 
L 318.576278 198.772095 
L 321.282585 198.772095 
L 323.988892 198.772095 
L 326.695199 198.772095 
" clip-path="url(#p9bc5373b16)" style="fill: none; stroke-dasharray: 7.5,7.5; stroke-dashoffset: 0; stroke: #808080; stroke-width: 1.5"/>
   </g>
   <g id="patch_3">
    <path d="M 56.741094 207.671719 
L 56.741094 11.88 
" style="fill: none; stroke: #000000; stroke-width: 0.5; stroke-linejoin: miter; stroke-linecap: square"/>
   </g>
   <g id="patch_4">
    <path d="M 339.550156 207.671719 
L 339.550156 11.88 
" style="fill: none; stroke: #000000; stroke-width: 0.5; stroke-linejoin: miter; stroke-linecap: square"/>
   </g>
   <g id="patch_5">
    <path d="M 56.741094 207.671719 
L 339.550156 207.671719 
" style="fill: none; stroke: #000000; stroke-width: 0.5; stroke-linejoin: miter; stroke-linecap: square"/>
   </g>
   <g id="patch_6">
    <path d="M 56.741094 11.88 
L 339.550156 11.88 
" style="fill: none; stroke: #000000; stroke-width: 0.5; stroke-linejoin: miter; stroke-linecap: square"/>
   </g>
   <g id="legend_1">
    <g id="patch_7">
     <path d="M 347.250156 152.282311 
L 433.76 152.282311 
Q 435.96 152.282311 435.96 150.082311 
L 435.96 18.563561 
Q 435.96 16.363561 433.76 16.363561 
L 347.250156 16.363561 
Q 345.050156 16.363561 345.050156 18.563561 
L 345.050156 150.082311 
Q 345.050156 152.282311 347.250156 152.282311 
z
" style="fill: #ffffff; opacity: 0.8; stroke: #cccccc; stroke-width: 1.5; stroke-linejoin: miter"/>
    </g>
    <g id="line2d_18">
     <path d="M 350.550156 26.371842 
L 361.550156 26.371842 
L 372.550156 26.371842 
" style="fill: none; stroke: #ec635c; stroke-width: 1.5; stroke-linecap: square"/>
    </g>
    <g id="text_12">
     <!-- Typtag 1 -->
     <g transform="translate(381.350156 30.221842)scale(0.11 -0.11)">
      <defs>
       <path id="DejaVuSerif-79" d="M 1381 -609 
L 1600 -56 
L 359 2988 
L -19 2988 
L -19 3322 
L 1509 3322 
L 1509 2988 
L 978 2988 
L 1913 703 
L 2847 2988 
L 2350 2988 
L 2350 3322 
L 3597 3322 
L 3597 2988 
L 3225 2988 
L 1703 -750 
Q 1547 -1138 1356 -1280 
Q 1166 -1422 819 -1422 
Q 672 -1422 517 -1397 
Q 363 -1372 206 -1325 
L 206 -691 
L 500 -691 
Q 519 -903 608 -995 
Q 697 -1088 884 -1088 
Q 1056 -1088 1161 -992 
Q 1266 -897 1381 -609 
z
" transform="scale(0.015625)"/>
      </defs>
      <use xlink:href="#DejaVuSerif-54"/>
      <use xlink:href="#DejaVuSerif-79" x="66.699219"/>
      <use xlink:href="#DejaVuSerif-70" x="123.193359"/>
      <use xlink:href="#DejaVuSerif-74" x="187.207031"/>
      <use xlink:href="#DejaVuSerif-61" x="227.392578"/>
      <use xlink:href="#DejaVuSerif-67" x="287.011719"/>
      <use xlink:href="#DejaVuSerif-20" x="351.025391"/>
      <use xlink:href="#DejaVuSerif-31" x="382.8125"/>
     </g>
    </g>
    <g id="line2d_19">
     <path d="M 350.550156 42.674186 
L 361.550156 42.674186 
L 372.550156 42.674186 
" style="fill: none; stroke-dasharray: 5.55,2.4; stroke-dashoffset: 0; stroke: #4b81c4; stroke-width: 1.5"/>
    </g>
    <g id="text_13">
     <!-- Typtag 2 -->
     <g transform="translate(381.350156 46.524186)scale(0.11 -0.11)">
      <use xlink:href="#DejaVuSerif-54"/>
      <use xlink:href="#DejaVuSerif-79" x="66.699219"/>
      <use xlink:href="#DejaVuSerif-70" x="123.193359"/>
      <use xlink:href="#DejaVuSerif-74" x="187.207031"/>
      <use xlink:href="#DejaVuSerif-61" x="227.392578"/>
      <use xlink:href="#DejaVuSerif-67" x="287.011719"/>
      <use xlink:href="#DejaVuSerif-20" x="351.025391"/>
      <use xlink:href="#DejaVuSerif-32" x="382.8125"/>
     </g>
    </g>
    <g id="line2d_20">
     <path d="M 350.550156 58.97653 
L 361.550156 58.97653 
L 372.550156 58.97653 
" style="fill: none; stroke-dasharray: 1.5,2.475; stroke-dashoffset: 0; stroke: #f49961; stroke-width: 1.5"/>
    </g>
    <g id="text_14">
     <!-- Typtag 3 -->
     <g transform="translate(381.350156 62.82653)scale(0.11 -0.11)">
      <defs>
       <path id="DejaVuSerif-33" d="M 622 4469 
Q 988 4606 1323 4678 
Q 1659 4750 1953 4750 
Q 2638 4750 3022 4454 
Q 3406 4159 3406 3634 
Q 3406 3213 3140 2930 
Q 2875 2647 2388 2547 
Q 2963 2466 3280 2130 
Q 3597 1794 3597 1259 
Q 3597 606 3158 257 
Q 2719 -91 1894 -91 
Q 1528 -91 1179 -12 
Q 831 66 488 225 
L 488 1131 
L 838 1131 
Q 869 681 1141 450 
Q 1413 219 1906 219 
Q 2384 219 2661 495 
Q 2938 772 2938 1253 
Q 2938 1803 2653 2086 
Q 2369 2369 1819 2369 
L 1522 2369 
L 1522 2688 
L 1678 2688 
Q 2225 2688 2498 2914 
Q 2772 3141 2772 3597 
Q 2772 4006 2547 4223 
Q 2322 4441 1900 4441 
Q 1478 4441 1245 4241 
Q 1013 4041 972 3647 
L 622 3647 
L 622 4469 
z
" transform="scale(0.015625)"/>
      </defs>
      <use xlink:href="#DejaVuSerif-54"/>
      <use xlink:href="#DejaVuSerif-79" x="66.699219"/>
      <use xlink:href="#DejaVuSerif-70" x="123.193359"/>
      <use xlink:href="#DejaVuSerif-74" x="187.207031"/>
      <use xlink:href="#DejaVuSerif-61" x="227.392578"/>
      <use xlink:href="#DejaVuSerif-67" x="287.011719"/>
      <use xlink:href="#DejaVuSerif-20" x="351.025391"/>
      <use xlink:href="#DejaVuSerif-33" x="382.8125"/>
     </g>
    </g>
    <g id="line2d_21">
     <path d="M 350.550156 75.278873 
L 361.550156 75.278873 
L 372.550156 75.278873 
" style="fill: none; stroke-dasharray: 9.6,2.4,1.5,2.4; stroke-dashoffset: 0; stroke: #8768b4; stroke-width: 1.5"/>
    </g>
    <g id="text_15">
     <!-- Typtag 4 -->
     <g transform="translate(381.350156 79.128873)scale(0.11 -0.11)">
      <defs>
       <path id="DejaVuSerif-34" d="M 2234 1581 
L 2234 4063 
L 641 1581 
L 2234 1581 
z
M 3609 0 
L 1484 0 
L 1484 331 
L 2234 331 
L 2234 1247 
L 197 1247 
L 197 1588 
L 2241 4750 
L 2859 4750 
L 2859 1581 
L 3750 1581 
L 3750 1247 
L 2859 1247 
L 2859 331 
L 3609 331 
L 3609 0 
z
" transform="scale(0.015625)"/>
      </defs>
      <use xlink:href="#DejaVuSerif-54"/>
      <use xlink:href="#DejaVuSerif-79" x="66.699219"/>
      <use xlink:href="#DejaVuSerif-70" x="123.193359"/>
      <use xlink:href="#DejaVuSerif-74" x="187.207031"/>
      <use xlink:href="#DejaVuSerif-61" x="227.392578"/>
      <use xlink:href="#DejaVuSerif-67" x="287.011719"/>
      <use xlink:href="#DejaVuSerif-20" x="351.025391"/>
      <use xlink:href="#DejaVuSerif-34" x="382.8125"/>
     </g>
    </g>
    <g id="line2d_22">
     <path d="M 350.550156 91.581217 
L 361.550156 91.581217 
L 372.550156 91.581217 
" style="fill: none; stroke-dasharray: 15,4.5; stroke-dashoffset: 7.5; stroke: #b45955; stroke-width: 1.5"/>
    </g>
    <g id="text_16">
     <!-- Typtag 5 -->
     <g transform="translate(381.350156 95.431217)scale(0.11 -0.11)">
      <use xlink:href="#DejaVuSerif-54"/>
      <use xlink:href="#DejaVuSerif-79" x="66.699219"/>
      <use xlink:href="#DejaVuSerif-70" x="123.193359"/>
      <use xlink:href="#DejaVuSerif-74" x="187.207031"/>
      <use xlink:href="#DejaVuSerif-61" x="227.392578"/>
      <use xlink:href="#DejaVuSerif-67" x="287.011719"/>
      <use xlink:href="#DejaVuSerif-20" x="351.025391"/>
      <use xlink:href="#DejaVuSerif-35" x="382.8125"/>
     </g>
    </g>
    <g id="line2d_23">
     <path d="M 350.550156 107.883561 
L 361.550156 107.883561 
L 372.550156 107.883561 
" style="fill: none; stroke-dasharray: 4.5,7.5,1.5,7.5,1.5,7.5; stroke-dashoffset: 0; stroke: #cb74f4; stroke-width: 1.5"/>
    </g>
    <g id="text_17">
     <!-- Typtag 6 -->
     <g transform="translate(381.350156 111.733561)scale(0.11 -0.11)">
      <defs>
       <path id="DejaVuSerif-36" d="M 2094 219 
Q 2534 219 2771 542 
Q 3009 866 3009 1472 
Q 3009 2078 2771 2401 
Q 2534 2725 2094 2725 
Q 1647 2725 1412 2412 
Q 1178 2100 1178 1509 
Q 1178 888 1415 553 
Q 1653 219 2094 219 
z
M 1075 2569 
Q 1288 2803 1556 2918 
Q 1825 3034 2163 3034 
Q 2859 3034 3264 2615 
Q 3669 2197 3669 1472 
Q 3669 763 3233 336 
Q 2797 -91 2069 -91 
Q 1278 -91 853 498 
Q 428 1088 428 2181 
Q 428 3406 931 4078 
Q 1434 4750 2350 4750 
Q 2597 4750 2869 4703 
Q 3141 4656 3425 4563 
L 3425 3794 
L 3072 3794 
Q 3034 4109 2831 4275 
Q 2628 4441 2284 4441 
Q 1678 4441 1381 3981 
Q 1084 3522 1075 2569 
z
" transform="scale(0.015625)"/>
      </defs>
      <use xlink:href="#DejaVuSerif-54"/>
      <use xlink:href="#DejaVuSerif-79" x="66.699219"/>
      <use xlink:href="#DejaVuSerif-70" x="123.193359"/>
      <use xlink:href="#DejaVuSerif-74" x="187.207031"/>
      <use xlink:href="#DejaVuSerif-61" x="227.392578"/>
      <use xlink:href="#DejaVuSerif-67" x="287.011719"/>
      <use xlink:href="#DejaVuSerif-20" x="351.025391"/>
      <use xlink:href="#DejaVuSerif-36" x="382.8125"/>
     </g>
    </g>
    <g id="line2d_24">
     <path d="M 350.550156 124.185905 
L 361.550156 124.185905 
L 372.550156 124.185905 
" style="fill: none; stroke-dasharray: 4.5,1.5,1.5,1.5,1.5,1.5; stroke-dashoffset: 0; stroke: #6ebb96; stroke-width: 1.5"/>
    </g>
    <g id="text_18">
     <!-- Typtag 7 -->
     <g transform="translate(381.350156 128.035905)scale(0.11 -0.11)">
      <defs>
       <path id="DejaVuSerif-37" d="M 3609 4347 
L 1784 0 
L 1319 0 
L 3059 4153 
L 903 4153 
L 903 3578 
L 538 3578 
L 538 4666 
L 3609 4666 
L 3609 4347 
z
" transform="scale(0.015625)"/>
      </defs>
      <use xlink:href="#DejaVuSerif-54"/>
      <use xlink:href="#DejaVuSerif-79" x="66.699219"/>
      <use xlink:href="#DejaVuSerif-70" x="123.193359"/>
      <use xlink:href="#DejaVuSerif-74" x="187.207031"/>
      <use xlink:href="#DejaVuSerif-61" x="227.392578"/>
      <use xlink:href="#DejaVuSerif-67" x="287.011719"/>
      <use xlink:href="#DejaVuSerif-20" x="351.025391"/>
      <use xlink:href="#DejaVuSerif-37" x="382.8125"/>
     </g>
    </g>
    <g id="line2d_25">
     <path d="M 350.550156 140.488248 
L 361.550156 140.488248 
L 372.550156 140.488248 
" style="fill: none; stroke-dasharray: 7.5,7.5; stroke-dashoffset: 0; stroke: #808080; stroke-width: 1.5"/>
    </g>
    <g id="text_19">
     <!-- Typtag 8 -->
     <g transform="translate(381.350156 144.338248)scale(0.11 -0.11)">
      <defs>
       <path id="DejaVuSerif-38" d="M 2981 1275 
Q 2981 1775 2732 2051 
Q 2484 2328 2034 2328 
Q 1584 2328 1336 2051 
Q 1088 1775 1088 1275 
Q 1088 772 1336 495 
Q 1584 219 2034 219 
Q 2484 219 2732 495 
Q 2981 772 2981 1275 
z
M 2853 3541 
Q 2853 3966 2637 4203 
Q 2422 4441 2034 4441 
Q 1650 4441 1433 4203 
Q 1216 3966 1216 3541 
Q 1216 3113 1433 2875 
Q 1650 2638 2034 2638 
Q 2422 2638 2637 2875 
Q 2853 3113 2853 3541 
z
M 2516 2484 
Q 3047 2413 3344 2092 
Q 3641 1772 3641 1275 
Q 3641 619 3225 264 
Q 2809 -91 2034 -91 
Q 1263 -91 845 264 
Q 428 619 428 1275 
Q 428 1772 725 2092 
Q 1022 2413 1556 2484 
Q 1084 2569 832 2842 
Q 581 3116 581 3541 
Q 581 4103 968 4426 
Q 1356 4750 2034 4750 
Q 2713 4750 3100 4426 
Q 3488 4103 3488 3541 
Q 3488 3116 3236 2842 
Q 2984 2569 2516 2484 
z
" transform="scale(0.015625)"/>
      </defs>
      <use xlink:href="#DejaVuSerif-54"/>
      <use xlink:href="#DejaVuSerif-79" x="66.699219"/>
      <use xlink:href="#DejaVuSerif-70" x="123.193359"/>
      <use xlink:href="#DejaVuSerif-74" x="187.207031"/>
      <use xlink:href="#DejaVuSerif-61" x="227.392578"/>
      <use xlink:href="#DejaVuSerif-67" x="287.011719"/>
      <use xlink:href="#DejaVuSerif-20" x="351.025391"/>
      <use xlink:href="#DejaVuSerif-38" x="382.8125"/>
     </g>
    </g>
   </g>
  </g>
 </g>
 <defs>
  <clipPath id="p9bc5373b16">
   <rect x="56.741094" y="11.88" width="282.809062" height="195.791719"/>
  </clipPath>
 </defs>
</svg>
