<?xml version="1.0" encoding="utf-8" standalone="no"?>
<!DOCTYPE svg PUBLIC "-//W3C//DTD SVG 1.1//EN"
  "http://www.w3.org/Graphics/SVG/1.1/DTD/svg11.dtd">
<svg xmlns:xlink="http://www.w3.org/1999/xlink" width="447.84pt" height="208.8pt" viewBox="0 0 447.84 208.8" xmlns="http://www.w3.org/2000/svg" version="1.1">
 <metadata>
  <rdf:RDF xmlns:dc="http://purl.org/dc/elements/1.1/" xmlns:cc="http://creativecommons.org/ns#" xmlns:rdf="http://www.w3.org/1999/02/22-rdf-syntax-ns#">
   <cc:Work>
    <dc:type rdf:resource="http://purl.org/dc/dcmitype/StillImage"/>
    <dc:date>2023-05-14T20:39:25.040024</dc:date>
    <dc:format>image/svg+xml</dc:format>
    <dc:creator>
     <cc:Agent>
      <dc:title>Matplotlib v3.5.3, https://matplotlib.org/</dc:title>
     </cc:Agent>
    </dc:creator>
   </cc:Work>
  </rdf:RDF>
 </metadata>
 <defs>
  <style type="text/css">*{stroke-linejoin: round; stroke-linecap: butt}</style>
 </defs>
 <g id="figure_1">
  <g id="patch_1">
   <path d="M 0 208.8 
L 447.84 208.8 
L 447.84 0 
L 0 0 
z
" style="fill: #ffffff"/>
  </g>
  <g id="axes_1">
   <g id="patch_2">
    <path d="M 56.741094 164.471719 
L 249.728281 164.471719 
L 249.728281 11.88 
L 56.741094 11.88 
z
" style="fill: #ffffff"/>
   </g>
   <g id="matplotlib.axis_1">
    <g id="xtick_1">
     <g id="line2d_1">
      <defs>
       <path id="m7c3c5a6707" d="M 0 0 
L 0 3.5 
" style="stroke: #000000; stroke-width: 0.8"/>
      </defs>
      <g>
       <use xlink:href="#m7c3c5a6707" x="65.513239" y="164.471719" style="stroke: #000000; stroke-width: 0.8"/>
      </g>
     </g>
     <g id="text_1">
      <!-- 0 -->
      <g transform="translate(62.013864 179.83)scale(0.11 -0.11)">
       <defs>
        <path id="DejaVuSerif-30" d="M 2034 219 
Q 2513 219 2750 744 
Q 2988 1269 2988 2328 
Q 2988 3391 2750 3916 
Q 2513 4441 2034 4441 
Q 1556 4441 1318 3916 
Q 1081 3391 1081 2328 
Q 1081 1269 1318 744 
Q 1556 219 2034 219 
z
M 2034 -91 
Q 1275 -91 848 546 
Q 422 1184 422 2328 
Q 422 3475 848 4112 
Q 1275 4750 2034 4750 
Q 2797 4750 3222 4112 
Q 3647 3475 3647 2328 
Q 3647 1184 3222 546 
Q 2797 -91 2034 -91 
z
" transform="scale(0.015625)"/>
       </defs>
       <use xlink:href="#DejaVuSerif-30"/>
      </g>
     </g>
    </g>
    <g id="xtick_2">
     <g id="line2d_2">
      <g>
       <use xlink:href="#m7c3c5a6707" x="139.383932" y="164.471719" style="stroke: #000000; stroke-width: 0.8"/>
      </g>
     </g>
     <g id="text_2">
      <!-- 10 -->
      <g transform="translate(132.385182 179.83)scale(0.11 -0.11)">
       <defs>
        <path id="DejaVuSerif-31" d="M 909 0 
L 909 331 
L 1722 331 
L 1722 4213 
L 781 3603 
L 781 4013 
L 1919 4750 
L 2350 4750 
L 2350 331 
L 3163 331 
L 3163 0 
L 909 0 
z
" transform="scale(0.015625)"/>
       </defs>
       <use xlink:href="#DejaVuSerif-31"/>
       <use xlink:href="#DejaVuSerif-30" x="63.623047"/>
      </g>
     </g>
    </g>
    <g id="xtick_3">
     <g id="line2d_3">
      <g>
       <use xlink:href="#m7c3c5a6707" x="213.254626" y="164.471719" style="stroke: #000000; stroke-width: 0.8"/>
      </g>
     </g>
     <g id="text_3">
      <!-- 20 -->
      <g transform="translate(206.255876 179.83)scale(0.11 -0.11)">
       <defs>
        <path id="DejaVuSerif-32" d="M 819 3553 
L 469 3553 
L 469 4384 
Q 803 4563 1142 4656 
Q 1481 4750 1806 4750 
Q 2534 4750 2956 4397 
Q 3378 4044 3378 3438 
Q 3378 2753 2422 1800 
Q 2347 1728 2309 1691 
L 1131 513 
L 3078 513 
L 3078 1088 
L 3444 1088 
L 3444 0 
L 434 0 
L 434 341 
L 1850 1753 
Q 2319 2222 2519 2614 
Q 2719 3006 2719 3438 
Q 2719 3909 2473 4175 
Q 2228 4441 1797 4441 
Q 1350 4441 1106 4219 
Q 863 3997 819 3553 
z
" transform="scale(0.015625)"/>
       </defs>
       <use xlink:href="#DejaVuSerif-32"/>
       <use xlink:href="#DejaVuSerif-30" x="63.623047"/>
      </g>
     </g>
    </g>
    <g id="text_4">
     <!-- Tageszeit in h -->
     <g transform="translate(114.652187 194.475937)scale(0.11 -0.11)">
      <defs>
       <path id="DejaVuSerif-54" d="M 1222 0 
L 1222 331 
L 1819 331 
L 1819 4294 
L 447 4294 
L 447 3566 
L 63 3566 
L 63 4666 
L 4206 4666 
L 4206 3566 
L 3822 3566 
L 3822 4294 
L 2450 4294 
L 2450 331 
L 3047 331 
L 3047 0 
L 1222 0 
z
" transform="scale(0.015625)"/>
       <path id="DejaVuSerif-61" d="M 2547 1044 
L 2547 1747 
L 1806 1747 
Q 1378 1747 1168 1562 
Q 959 1378 959 997 
Q 959 650 1171 447 
Q 1384 244 1747 244 
Q 2106 244 2326 466 
Q 2547 688 2547 1044 
z
M 3122 2075 
L 3122 331 
L 3634 331 
L 3634 0 
L 2547 0 
L 2547 359 
Q 2356 128 2106 18 
Q 1856 -91 1522 -91 
Q 969 -91 644 203 
Q 319 497 319 997 
Q 319 1513 691 1797 
Q 1063 2081 1741 2081 
L 2547 2081 
L 2547 2309 
Q 2547 2688 2317 2895 
Q 2088 3103 1672 3103 
Q 1328 3103 1125 2947 
Q 922 2791 872 2484 
L 575 2484 
L 575 3156 
Q 875 3284 1158 3348 
Q 1441 3413 1709 3413 
Q 2400 3413 2761 3070 
Q 3122 2728 3122 2075 
z
" transform="scale(0.015625)"/>
       <path id="DejaVuSerif-67" d="M 3359 2988 
L 3359 72 
Q 3359 -644 2965 -1033 
Q 2572 -1422 1844 -1422 
Q 1516 -1422 1216 -1362 
Q 916 -1303 641 -1184 
L 641 -488 
L 941 -488 
Q 997 -813 1206 -963 
Q 1416 -1113 1806 -1113 
Q 2313 -1113 2548 -827 
Q 2784 -541 2784 72 
L 2784 519 
Q 2616 206 2355 57 
Q 2094 -91 1709 -91 
Q 1097 -91 708 395 
Q 319 881 319 1663 
Q 319 2444 706 2928 
Q 1094 3413 1709 3413 
Q 2094 3413 2355 3264 
Q 2616 3116 2784 2803 
L 2784 3322 
L 3909 3322 
L 3909 2988 
L 3359 2988 
z
M 2784 1825 
Q 2784 2422 2554 2737 
Q 2325 3053 1888 3053 
Q 1444 3053 1217 2703 
Q 991 2353 991 1663 
Q 991 975 1217 622 
Q 1444 269 1888 269 
Q 2325 269 2554 583 
Q 2784 897 2784 1497 
L 2784 1825 
z
" transform="scale(0.015625)"/>
       <path id="DejaVuSerif-65" d="M 3469 1600 
L 991 1600 
L 991 1575 
Q 991 903 1244 561 
Q 1497 219 1991 219 
Q 2369 219 2611 417 
Q 2853 616 2950 1006 
L 3413 1006 
Q 3275 459 2904 184 
Q 2534 -91 1931 -91 
Q 1203 -91 761 389 
Q 319 869 319 1663 
Q 319 2450 753 2931 
Q 1188 3413 1894 3413 
Q 2647 3413 3050 2948 
Q 3453 2484 3469 1600 
z
M 2791 1931 
Q 2772 2513 2545 2808 
Q 2319 3103 1894 3103 
Q 1497 3103 1269 2806 
Q 1041 2509 991 1931 
L 2791 1931 
z
" transform="scale(0.015625)"/>
       <path id="DejaVuSerif-73" d="M 359 184 
L 359 959 
L 691 959 
Q 703 588 923 403 
Q 1144 219 1575 219 
Q 1963 219 2166 364 
Q 2369 509 2369 788 
Q 2369 1006 2220 1140 
Q 2072 1275 1594 1428 
L 1178 1569 
Q 750 1706 558 1912 
Q 366 2119 366 2438 
Q 366 2894 700 3153 
Q 1034 3413 1625 3413 
Q 1888 3413 2178 3344 
Q 2469 3275 2778 3144 
L 2778 2419 
L 2447 2419 
Q 2434 2741 2221 2922 
Q 2009 3103 1644 3103 
Q 1281 3103 1095 2975 
Q 909 2847 909 2591 
Q 909 2381 1050 2254 
Q 1191 2128 1613 1997 
L 2069 1856 
Q 2541 1709 2748 1489 
Q 2956 1269 2956 922 
Q 2956 450 2595 179 
Q 2234 -91 1600 -91 
Q 1278 -91 972 -22 
Q 666 47 359 184 
z
" transform="scale(0.015625)"/>
       <path id="DejaVuSerif-7a" d="M 256 0 
L 256 269 
L 2338 2988 
L 691 2988 
L 691 2413 
L 359 2413 
L 359 3322 
L 3078 3322 
L 3078 3053 
L 997 331 
L 2803 331 
L 2803 934 
L 3138 934 
L 3138 0 
L 256 0 
z
" transform="scale(0.015625)"/>
       <path id="DejaVuSerif-69" d="M 622 4353 
Q 622 4497 726 4603 
Q 831 4709 978 4709 
Q 1122 4709 1226 4603 
Q 1331 4497 1331 4353 
Q 1331 4206 1228 4103 
Q 1125 4000 978 4000 
Q 831 4000 726 4103 
Q 622 4206 622 4353 
z
M 1356 331 
L 1900 331 
L 1900 0 
L 231 0 
L 231 331 
L 781 331 
L 781 2988 
L 231 2988 
L 231 3322 
L 1356 3322 
L 1356 331 
z
" transform="scale(0.015625)"/>
       <path id="DejaVuSerif-74" d="M 691 2988 
L 184 2988 
L 184 3322 
L 691 3322 
L 691 4353 
L 1269 4353 
L 1269 3322 
L 2350 3322 
L 2350 2988 
L 1269 2988 
L 1269 878 
Q 1269 456 1350 337 
Q 1431 219 1650 219 
Q 1875 219 1978 351 
Q 2081 484 2088 781 
L 2522 781 
Q 2497 328 2275 118 
Q 2053 -91 1600 -91 
Q 1103 -91 897 129 
Q 691 350 691 878 
L 691 2988 
z
" transform="scale(0.015625)"/>
       <path id="DejaVuSerif-20" transform="scale(0.015625)"/>
       <path id="DejaVuSerif-6e" d="M 263 0 
L 263 331 
L 781 331 
L 781 2988 
L 231 2988 
L 231 3322 
L 1356 3322 
L 1356 2731 
Q 1516 3069 1770 3241 
Q 2025 3413 2363 3413 
Q 2913 3413 3172 3097 
Q 3431 2781 3431 2113 
L 3431 331 
L 3944 331 
L 3944 0 
L 2356 0 
L 2356 331 
L 2853 331 
L 2853 1931 
Q 2853 2541 2703 2767 
Q 2553 2994 2175 2994 
Q 1775 2994 1565 2701 
Q 1356 2409 1356 1850 
L 1356 331 
L 1856 331 
L 1856 0 
L 263 0 
z
" transform="scale(0.015625)"/>
       <path id="DejaVuSerif-68" d="M 263 0 
L 263 331 
L 781 331 
L 781 4531 
L 231 4531 
L 231 4863 
L 1356 4863 
L 1356 2731 
Q 1516 3069 1770 3241 
Q 2025 3413 2363 3413 
Q 2913 3413 3172 3097 
Q 3431 2781 3431 2113 
L 3431 331 
L 3944 331 
L 3944 0 
L 2356 0 
L 2356 331 
L 2853 331 
L 2853 1931 
Q 2853 2541 2704 2764 
Q 2556 2988 2175 2988 
Q 1775 2988 1565 2697 
Q 1356 2406 1356 1850 
L 1356 331 
L 1856 331 
L 1856 0 
L 263 0 
z
" transform="scale(0.015625)"/>
      </defs>
      <use xlink:href="#DejaVuSerif-54"/>
      <use xlink:href="#DejaVuSerif-61" x="58.949219"/>
      <use xlink:href="#DejaVuSerif-67" x="118.568359"/>
      <use xlink:href="#DejaVuSerif-65" x="182.582031"/>
      <use xlink:href="#DejaVuSerif-73" x="241.761719"/>
      <use xlink:href="#DejaVuSerif-7a" x="293.080078"/>
      <use xlink:href="#DejaVuSerif-65" x="345.765625"/>
      <use xlink:href="#DejaVuSerif-69" x="404.945312"/>
      <use xlink:href="#DejaVuSerif-74" x="436.927734"/>
      <use xlink:href="#DejaVuSerif-20" x="477.113281"/>
      <use xlink:href="#DejaVuSerif-69" x="508.900391"/>
      <use xlink:href="#DejaVuSerif-6e" x="540.882812"/>
      <use xlink:href="#DejaVuSerif-20" x="605.287109"/>
      <use xlink:href="#DejaVuSerif-68" x="637.074219"/>
     </g>
    </g>
   </g>
   <g id="matplotlib.axis_2">
    <g id="ytick_1">
     <g id="line2d_4">
      <defs>
       <path id="m6e5ba809d5" d="M 0 0 
L -3.5 0 
" style="stroke: #000000; stroke-width: 0.8"/>
      </defs>
      <g>
       <use xlink:href="#m6e5ba809d5" x="56.741094" y="160.836796" style="stroke: #000000; stroke-width: 0.8"/>
      </g>
     </g>
     <g id="text_5">
      <!-- −10 -->
      <g transform="translate(26.525938 165.015937)scale(0.11 -0.11)">
       <defs>
        <path id="DejaVuSerif-2212" d="M 678 2259 
L 4684 2259 
L 4684 1753 
L 678 1753 
L 678 2259 
z
" transform="scale(0.015625)"/>
       </defs>
       <use xlink:href="#DejaVuSerif-2212"/>
       <use xlink:href="#DejaVuSerif-31" x="83.789062"/>
       <use xlink:href="#DejaVuSerif-30" x="147.412109"/>
      </g>
     </g>
    </g>
    <g id="ytick_2">
     <g id="line2d_5">
      <g>
       <use xlink:href="#m6e5ba809d5" x="56.741094" y="123.324697" style="stroke: #000000; stroke-width: 0.8"/>
      </g>
     </g>
     <g id="text_6">
      <!-- 0 -->
      <g transform="translate(42.742344 127.503837)scale(0.11 -0.11)">
       <use xlink:href="#DejaVuSerif-30"/>
      </g>
     </g>
    </g>
    <g id="ytick_3">
     <g id="line2d_6">
      <g>
       <use xlink:href="#m6e5ba809d5" x="56.741094" y="85.812597" style="stroke: #000000; stroke-width: 0.8"/>
      </g>
     </g>
     <g id="text_7">
      <!-- 10 -->
      <g transform="translate(35.743594 89.991738)scale(0.11 -0.11)">
       <use xlink:href="#DejaVuSerif-31"/>
       <use xlink:href="#DejaVuSerif-30" x="63.623047"/>
      </g>
     </g>
    </g>
    <g id="ytick_4">
     <g id="line2d_7">
      <g>
       <use xlink:href="#m6e5ba809d5" x="56.741094" y="48.300498" style="stroke: #000000; stroke-width: 0.8"/>
      </g>
     </g>
     <g id="text_8">
      <!-- 20 -->
      <g transform="translate(35.743594 52.479638)scale(0.11 -0.11)">
       <use xlink:href="#DejaVuSerif-32"/>
       <use xlink:href="#DejaVuSerif-30" x="63.623047"/>
      </g>
     </g>
    </g>
    <g id="text_9">
     <!-- Temperatur in °C -->
     <g transform="translate(20.238281 136.710781)rotate(-90)scale(0.11 -0.11)">
      <defs>
       <path id="DejaVuSerif-6d" d="M 3316 2675 
Q 3481 3041 3739 3227 
Q 3997 3413 4341 3413 
Q 4863 3413 5119 3089 
Q 5375 2766 5375 2113 
L 5375 331 
L 5894 331 
L 5894 0 
L 4300 0 
L 4300 331 
L 4800 331 
L 4800 2047 
Q 4800 2556 4650 2772 
Q 4500 2988 4153 2988 
Q 3769 2988 3567 2697 
Q 3366 2406 3366 1850 
L 3366 331 
L 3866 331 
L 3866 0 
L 2291 0 
L 2291 331 
L 2791 331 
L 2791 2069 
Q 2791 2566 2641 2777 
Q 2491 2988 2144 2988 
Q 1759 2988 1557 2697 
Q 1356 2406 1356 1850 
L 1356 331 
L 1856 331 
L 1856 0 
L 263 0 
L 263 331 
L 781 331 
L 781 2994 
L 231 2994 
L 231 3322 
L 1356 3322 
L 1356 2731 
Q 1516 3063 1762 3238 
Q 2009 3413 2322 3413 
Q 2709 3413 2968 3220 
Q 3228 3028 3316 2675 
z
" transform="scale(0.015625)"/>
       <path id="DejaVuSerif-70" d="M 1313 1825 
L 1313 1497 
Q 1313 897 1542 583 
Q 1772 269 2209 269 
Q 2650 269 2876 622 
Q 3103 975 3103 1663 
Q 3103 2353 2876 2703 
Q 2650 3053 2209 3053 
Q 1772 3053 1542 2737 
Q 1313 2422 1313 1825 
z
M 738 2988 
L 184 2988 
L 184 3322 
L 1313 3322 
L 1313 2803 
Q 1481 3116 1742 3264 
Q 2003 3413 2388 3413 
Q 3000 3413 3387 2928 
Q 3775 2444 3775 1663 
Q 3775 881 3387 395 
Q 3000 -91 2388 -91 
Q 2003 -91 1742 57 
Q 1481 206 1313 519 
L 1313 -997 
L 1856 -997 
L 1856 -1331 
L 184 -1331 
L 184 -997 
L 738 -997 
L 738 2988 
z
" transform="scale(0.015625)"/>
       <path id="DejaVuSerif-72" d="M 3059 3328 
L 3059 2497 
L 2728 2497 
Q 2713 2744 2591 2866 
Q 2469 2988 2234 2988 
Q 1809 2988 1582 2694 
Q 1356 2400 1356 1850 
L 1356 331 
L 2022 331 
L 2022 0 
L 263 0 
L 263 331 
L 781 331 
L 781 2994 
L 231 2994 
L 231 3322 
L 1356 3322 
L 1356 2731 
Q 1525 3078 1790 3245 
Q 2056 3413 2438 3413 
Q 2578 3413 2733 3391 
Q 2888 3369 3059 3328 
z
" transform="scale(0.015625)"/>
       <path id="DejaVuSerif-75" d="M 2266 3322 
L 3341 3322 
L 3341 331 
L 3884 331 
L 3884 0 
L 2766 0 
L 2766 588 
Q 2606 256 2353 82 
Q 2100 -91 1766 -91 
Q 1213 -91 952 223 
Q 691 538 691 1209 
L 691 2988 
L 172 2988 
L 172 3322 
L 1269 3322 
L 1269 1388 
Q 1269 781 1417 556 
Q 1566 331 1947 331 
Q 2347 331 2556 625 
Q 2766 919 2766 1478 
L 2766 2988 
L 2266 2988 
L 2266 3322 
z
" transform="scale(0.015625)"/>
       <path id="DejaVuSerif-b0" d="M 1600 4319 
Q 1363 4319 1200 4155 
Q 1038 3991 1038 3750 
Q 1038 3513 1198 3353 
Q 1359 3194 1600 3194 
Q 1838 3194 2000 3355 
Q 2163 3516 2163 3750 
Q 2163 3984 1997 4151 
Q 1831 4319 1600 4319 
z
M 1600 4750 
Q 1800 4750 1984 4673 
Q 2169 4597 2303 4453 
Q 2447 4313 2519 4134 
Q 2591 3956 2591 3750 
Q 2591 3338 2302 3052 
Q 2013 2766 1594 2766 
Q 1172 2766 890 3047 
Q 609 3328 609 3750 
Q 609 4169 896 4459 
Q 1184 4750 1600 4750 
z
" transform="scale(0.015625)"/>
       <path id="DejaVuSerif-43" d="M 4513 1234 
Q 4306 581 3820 245 
Q 3334 -91 2591 -91 
Q 2134 -91 1743 65 
Q 1353 222 1050 525 
Q 700 875 529 1320 
Q 359 1766 359 2328 
Q 359 3416 987 4083 
Q 1616 4750 2644 4750 
Q 3025 4750 3456 4650 
Q 3888 4550 4384 4347 
L 4384 3272 
L 4031 3272 
Q 3916 3859 3567 4137 
Q 3219 4416 2591 4416 
Q 1844 4416 1459 3886 
Q 1075 3356 1075 2328 
Q 1075 1303 1459 773 
Q 1844 244 2591 244 
Q 3113 244 3450 492 
Q 3788 741 3938 1234 
L 4513 1234 
z
" transform="scale(0.015625)"/>
      </defs>
      <use xlink:href="#DejaVuSerif-54"/>
      <use xlink:href="#DejaVuSerif-65" x="58.949219"/>
      <use xlink:href="#DejaVuSerif-6d" x="118.128906"/>
      <use xlink:href="#DejaVuSerif-70" x="212.953125"/>
      <use xlink:href="#DejaVuSerif-65" x="276.966797"/>
      <use xlink:href="#DejaVuSerif-72" x="336.146484"/>
      <use xlink:href="#DejaVuSerif-61" x="383.949219"/>
      <use xlink:href="#DejaVuSerif-74" x="443.568359"/>
      <use xlink:href="#DejaVuSerif-75" x="483.753906"/>
      <use xlink:href="#DejaVuSerif-72" x="548.158203"/>
      <use xlink:href="#DejaVuSerif-20" x="595.960938"/>
      <use xlink:href="#DejaVuSerif-69" x="627.748047"/>
      <use xlink:href="#DejaVuSerif-6e" x="659.730469"/>
      <use xlink:href="#DejaVuSerif-20" x="724.134766"/>
      <use xlink:href="#DejaVuSerif-b0" x="755.921875"/>
      <use xlink:href="#DejaVuSerif-43" x="805.921875"/>
     </g>
    </g>
   </g>
   <g id="line2d_8">
    <path d="M 65.513239 149.9958 
L 67.360006 150.370921 
L 69.206773 150.746042 
L 71.053541 151.158675 
L 72.900308 151.533796 
L 74.747075 151.983941 
L 76.593843 152.471598 
L 78.44061 152.921743 
L 80.287377 153.409401 
L 82.134145 153.596961 
L 83.980912 153.784522 
L 85.827679 153.972082 
L 87.674447 154.159643 
L 89.521214 154.234667 
L 91.367981 154.347203 
L 93.214749 154.422227 
L 95.061516 154.534764 
L 96.908283 154.984909 
L 98.755051 155.472566 
L 100.601818 155.922711 
L 102.448586 156.410369 
L 104.295353 156.485393 
L 106.14212 156.597929 
L 107.988888 156.672953 
L 109.835655 156.78549 
L 111.682422 156.860514 
L 113.52919 156.97305 
L 115.375957 157.048074 
L 117.222724 157.160611 
L 119.069492 157.235635 
L 120.916259 157.348171 
L 122.763026 157.423195 
L 124.609794 157.535732 
L 126.456561 156.597929 
L 128.303328 155.660127 
L 130.150096 154.722324 
L 131.996863 153.784522 
L 133.84363 152.096477 
L 135.690398 150.370921 
L 137.537165 148.682876 
L 139.383932 146.994832 
L 141.2307 145.794444 
L 143.077467 144.556545 
L 144.924234 143.356158 
L 146.771002 142.118259 
L 148.617769 140.317678 
L 150.464536 138.554609 
L 152.311304 136.754028 
L 154.158071 134.99096 
L 156.004839 134.690863 
L 157.851606 134.428278 
L 159.698373 134.128181 
L 161.545141 133.865597 
L 163.391908 133.377939 
L 165.238675 132.927794 
L 167.085443 132.440137 
L 168.93221 131.95248 
L 170.778977 132.440137 
L 172.625745 132.927794 
L 174.472512 133.377939 
L 176.319279 133.865597 
L 178.166047 134.690863 
L 180.012814 135.553641 
L 181.859581 136.378907 
L 183.706349 137.241686 
L 185.553116 137.991928 
L 187.399883 138.74217 
L 189.246651 139.492412 
L 191.093418 140.242654 
L 192.940185 140.805335 
L 194.786953 141.368017 
L 196.63372 141.930698 
L 198.480487 142.49338 
L 200.327255 142.868501 
L 202.174022 143.243622 
L 204.020789 143.618743 
L 205.867557 143.993864 
L 207.714324 144.29396 
L 209.561092 144.556545 
L 211.407859 144.856642 
L 213.254626 145.119227 
L 215.101394 145.494348 
L 216.948161 145.869469 
L 218.794928 146.24459 
L 220.641696 146.619711 
L 222.488463 146.994832 
L 224.33523 147.369953 
L 226.181998 147.745074 
L 228.028765 148.120195 
L 229.875532 148.420291 
L 231.7223 148.682876 
L 233.569067 148.982973 
L 235.415834 149.245558 
L 237.262602 149.245558 
L 239.109369 149.245558 
L 240.956136 149.245558 
" clip-path="url(#p785e50ed39)" style="fill: none; stroke: #ec635c; stroke-width: 1.5; stroke-linecap: square"/>
   </g>
   <g id="line2d_9">
    <path d="M 65.513239 128.951512 
L 67.360006 129.701754 
L 69.206773 130.451996 
L 71.053541 131.202238 
L 72.900308 131.95248 
L 74.747075 132.552673 
L 76.593843 133.115355 
L 78.44061 133.678036 
L 80.287377 134.240718 
L 82.134145 134.315742 
L 83.980912 134.428278 
L 85.827679 134.503302 
L 87.674447 134.615839 
L 89.521214 134.128181 
L 91.367981 133.678036 
L 93.214749 133.190379 
L 95.061516 132.740234 
L 96.908283 132.252576 
L 98.755051 131.764919 
L 100.601818 131.314774 
L 102.448586 130.827117 
L 104.295353 130.939653 
L 106.14212 131.014677 
L 107.988888 131.127213 
L 109.835655 131.202238 
L 111.682422 131.014677 
L 113.52919 130.827117 
L 115.375957 130.639556 
L 117.222724 130.451996 
L 119.069492 129.626729 
L 120.916259 128.763951 
L 122.763026 127.938685 
L 124.609794 127.075907 
L 126.456561 125.950544 
L 128.303328 124.825181 
L 130.150096 123.699818 
L 131.996863 122.574455 
L 133.84363 122.386894 
L 135.690398 122.199334 
L 137.537165 122.011773 
L 139.383932 121.824213 
L 141.2307 121.711676 
L 143.077467 121.636652 
L 144.924234 121.524116 
L 146.771002 121.449092 
L 148.617769 120.586313 
L 150.464536 119.761047 
L 152.311304 118.898269 
L 154.158071 118.073003 
L 156.004839 117.585345 
L 157.851606 117.1352 
L 159.698373 116.647543 
L 161.545141 116.197398 
L 163.391908 115.822277 
L 165.238675 115.447156 
L 167.085443 115.072035 
L 168.93221 114.696914 
L 170.778977 114.771938 
L 172.625745 114.884474 
L 174.472512 114.959498 
L 176.319279 115.072035 
L 178.166047 116.647543 
L 180.012814 118.260563 
L 181.859581 119.836071 
L 183.706349 121.449092 
L 185.553116 121.148995 
L 187.399883 120.88641 
L 189.246651 120.586313 
L 191.093418 120.323729 
L 192.940185 120.211192 
L 194.786953 120.136168 
L 196.63372 120.023632 
L 198.480487 119.948608 
L 200.327255 120.398753 
L 202.174022 120.88641 
L 204.020789 121.336555 
L 205.867557 121.824213 
L 207.714324 122.649479 
L 209.561092 123.512257 
L 211.407859 124.375035 
L 213.254626 125.200302 
L 215.101394 125.575423 
L 216.948161 125.950544 
L 218.794928 126.325665 
L 220.641696 126.700786 
L 222.488463 127.075907 
L 224.33523 127.451028 
L 226.181998 127.826149 
L 228.028765 128.20127 
L 229.875532 128.576391 
L 231.7223 128.951512 
L 233.569067 129.326633 
L 235.415834 129.701754 
L 237.262602 129.701754 
L 239.109369 129.701754 
L 240.956136 129.701754 
" clip-path="url(#p785e50ed39)" style="fill: none; stroke-dasharray: 5.55,2.4; stroke-dashoffset: 0; stroke: #4b81c4; stroke-width: 1.5"/>
   </g>
   <g id="line2d_10">
    <path d="M 65.513239 121.824213 
L 67.360006 121.711676 
L 69.206773 121.636652 
L 71.053541 121.524116 
L 72.900308 121.449092 
L 74.747075 121.524116 
L 76.593843 121.636652 
L 78.44061 121.711676 
L 80.287377 121.824213 
L 82.134145 122.011773 
L 83.980912 122.199334 
L 85.827679 122.386894 
L 87.674447 122.574455 
L 89.521214 122.574455 
L 91.367981 122.574455 
L 93.214749 122.574455 
L 95.061516 122.574455 
L 96.908283 122.762015 
L 98.755051 122.949576 
L 100.601818 123.137136 
L 102.448586 123.324697 
L 104.295353 123.137136 
L 106.14212 122.949576 
L 107.988888 122.762015 
L 109.835655 122.574455 
L 111.682422 122.461918 
L 113.52919 122.386894 
L 115.375957 122.274358 
L 117.222724 122.199334 
L 119.069492 122.011773 
L 120.916259 121.824213 
L 122.763026 121.636652 
L 124.609794 121.449092 
L 126.456561 121.449092 
L 128.303328 121.449092 
L 130.150096 121.449092 
L 131.996863 121.449092 
L 133.84363 121.449092 
L 135.690398 121.449092 
L 137.537165 121.449092 
L 139.383932 121.449092 
L 141.2307 121.449092 
L 143.077467 121.449092 
L 144.924234 121.449092 
L 146.771002 121.449092 
L 148.617769 121.449092 
L 150.464536 121.449092 
L 152.311304 121.449092 
L 154.158071 121.449092 
L 156.004839 121.524116 
L 157.851606 121.636652 
L 159.698373 121.711676 
L 161.545141 121.824213 
L 163.391908 121.711676 
L 165.238675 121.636652 
L 167.085443 121.524116 
L 168.93221 121.449092 
L 170.778977 121.336555 
L 172.625745 121.261531 
L 174.472512 121.148995 
L 176.319279 121.073971 
L 178.166047 121.148995 
L 180.012814 121.261531 
L 181.859581 121.336555 
L 183.706349 121.449092 
L 185.553116 121.636652 
L 187.399883 121.824213 
L 189.246651 122.011773 
L 191.093418 122.199334 
L 192.940185 122.274358 
L 194.786953 122.386894 
L 196.63372 122.461918 
L 198.480487 122.574455 
L 200.327255 122.837039 
L 202.174022 123.137136 
L 204.020789 123.437233 
L 205.867557 123.699818 
L 207.714324 123.324697 
L 209.561092 122.949576 
L 211.407859 122.574455 
L 213.254626 122.199334 
L 215.101394 122.011773 
L 216.948161 121.824213 
L 218.794928 121.636652 
L 220.641696 121.449092 
L 222.488463 121.449092 
L 224.33523 121.449092 
L 226.181998 121.449092 
L 228.028765 121.449092 
L 229.875532 121.636652 
L 231.7223 121.824213 
L 233.569067 122.011773 
L 235.415834 122.199334 
L 237.262602 122.199334 
L 239.109369 122.199334 
L 240.956136 122.199334 
" clip-path="url(#p785e50ed39)" style="fill: none; stroke-dasharray: 9.6,2.4,1.5,2.4; stroke-dashoffset: 0; stroke: #f49961; stroke-width: 1.5"/>
   </g>
   <g id="line2d_11">
    <path d="M 65.513239 92.489751 
L 67.360006 93.352529 
L 69.206773 94.177795 
L 71.053541 95.040574 
L 72.900308 95.903352 
L 74.747075 96.541058 
L 76.593843 97.216275 
L 78.44061 97.853981 
L 80.287377 98.529199 
L 82.134145 98.791784 
L 83.980912 99.09188 
L 85.827679 99.354465 
L 87.674447 99.654562 
L 89.521214 100.217243 
L 91.367981 100.779925 
L 93.214749 101.342606 
L 95.061516 101.905288 
L 96.908283 102.167873 
L 98.755051 102.467969 
L 100.601818 102.730554 
L 102.448586 103.030651 
L 104.295353 100.779925 
L 106.14212 98.529199 
L 107.988888 96.278473 
L 109.835655 93.990235 
L 111.682422 90.614146 
L 113.52919 87.238057 
L 115.375957 83.861968 
L 117.222724 80.485879 
L 119.069492 78.235153 
L 120.916259 75.946915 
L 122.763026 73.696189 
L 124.609794 71.445463 
L 126.456561 70.3201 
L 128.303328 69.194737 
L 130.150096 68.069374 
L 131.996863 66.944011 
L 133.84363 65.631088 
L 135.690398 64.318164 
L 137.537165 63.005241 
L 139.383932 61.692317 
L 141.2307 61.129636 
L 143.077467 60.566954 
L 144.924234 60.004273 
L 146.771002 59.441591 
L 148.617769 59.704176 
L 150.464536 60.004273 
L 152.311304 60.266857 
L 154.158071 60.566954 
L 156.004839 59.254031 
L 157.851606 57.903595 
L 159.698373 56.590672 
L 161.545141 55.277748 
L 163.391908 55.277748 
L 165.238675 55.277748 
L 167.085443 55.277748 
L 168.93221 55.277748 
L 170.778977 55.390284 
L 172.625745 55.465309 
L 174.472512 55.577845 
L 176.319279 55.652869 
L 178.166047 56.215551 
L 180.012814 56.778232 
L 181.859581 57.340914 
L 183.706349 57.903595 
L 185.553116 58.653837 
L 187.399883 59.441591 
L 189.246651 60.191833 
L 191.093418 60.942075 
L 192.940185 62.067438 
L 194.786953 63.192801 
L 196.63372 64.318164 
L 198.480487 65.443527 
L 200.327255 67.581717 
L 202.174022 69.757418 
L 204.020789 71.93312 
L 205.867557 74.07131 
L 207.714324 75.009112 
L 209.561092 75.946915 
L 211.407859 76.884717 
L 213.254626 77.860032 
L 215.101394 78.047592 
L 216.948161 78.235153 
L 218.794928 78.422713 
L 220.641696 78.610274 
L 222.488463 79.060419 
L 224.33523 79.548076 
L 226.181998 79.998222 
L 228.028765 80.485879 
L 229.875532 81.236121 
L 231.7223 81.986363 
L 233.569067 82.736605 
L 235.415834 83.486847 
L 237.262602 83.486847 
L 239.109369 83.486847 
L 240.956136 83.486847 
" clip-path="url(#p785e50ed39)" style="fill: none; stroke-dasharray: 1.5,2.475; stroke-dashoffset: 0; stroke: #808080; stroke-width: 1.5"/>
   </g>
   <g id="line2d_12">
    <path d="M 65.513239 74.07131 
L 67.360006 74.371407 
L 69.206773 74.633991 
L 71.053541 74.934088 
L 72.900308 75.196673 
L 74.747075 75.68433 
L 76.593843 76.134475 
L 78.44061 76.622133 
L 80.287377 77.072278 
L 82.134145 77.184814 
L 83.980912 77.259838 
L 85.827679 77.372375 
L 87.674447 77.447399 
L 89.521214 78.310177 
L 91.367981 79.172955 
L 93.214749 79.998222 
L 95.061516 80.861 
L 96.908283 81.236121 
L 98.755051 81.611242 
L 100.601818 81.986363 
L 102.448586 82.361484 
L 104.295353 81.498706 
L 106.14212 80.673439 
L 107.988888 79.810661 
L 109.835655 78.985395 
L 111.682422 75.946915 
L 113.52919 72.945947 
L 115.375957 69.944979 
L 117.222724 66.944011 
L 119.069492 63.380362 
L 120.916259 59.816712 
L 122.763026 56.215551 
L 124.609794 52.651901 
L 126.456561 50.401175 
L 128.303328 48.150449 
L 130.150096 45.899723 
L 131.996863 43.648997 
L 133.84363 42.336074 
L 135.690398 41.02315 
L 137.537165 39.672715 
L 139.383932 38.359791 
L 141.2307 36.784283 
L 143.077467 35.171263 
L 144.924234 33.595754 
L 146.771002 31.982734 
L 148.617769 31.119956 
L 150.464536 30.29469 
L 152.311304 29.431911 
L 154.158071 28.606645 
L 156.004839 28.043964 
L 157.851606 27.481282 
L 159.698373 26.918601 
L 161.545141 26.355919 
L 163.391908 26.168359 
L 165.238675 25.980798 
L 167.085443 25.793238 
L 168.93221 25.605677 
L 170.778977 25.868262 
L 172.625745 26.168359 
L 174.472512 26.430943 
L 176.319279 26.73104 
L 178.166047 27.556306 
L 180.012814 28.419085 
L 181.859581 29.244351 
L 183.706349 30.107129 
L 185.553116 32.732976 
L 187.399883 35.358823 
L 189.246651 37.98467 
L 191.093418 40.610517 
L 192.940185 43.536461 
L 194.786953 46.462405 
L 196.63372 49.350836 
L 198.480487 52.27678 
L 200.327255 53.777264 
L 202.174022 55.277748 
L 204.020789 56.778232 
L 205.867557 58.278716 
L 207.714324 58.953934 
L 209.561092 59.629152 
L 211.407859 60.266857 
L 213.254626 60.942075 
L 215.101394 61.767341 
L 216.948161 62.63012 
L 218.794928 63.455386 
L 220.641696 64.318164 
L 222.488463 65.255967 
L 224.33523 66.193769 
L 226.181998 67.131571 
L 228.028765 68.069374 
L 229.875532 68.444495 
L 231.7223 68.819616 
L 233.569067 69.194737 
L 235.415834 69.569858 
L 237.262602 69.569858 
L 239.109369 69.569858 
L 240.956136 69.569858 
" clip-path="url(#p785e50ed39)" style="fill: none; stroke-dasharray: 15,4.5; stroke-dashoffset: 7.5; stroke: #8768b4; stroke-width: 1.5"/>
   </g>
   <g id="line2d_13">
    <path d="M 65.513239 60.942075 
L 67.360006 61.954902 
L 69.206773 63.005241 
L 71.053541 64.018067 
L 72.900308 65.068406 
L 74.747075 65.631088 
L 76.593843 66.193769 
L 78.44061 66.756451 
L 80.287377 67.319132 
L 82.134145 67.881813 
L 83.980912 68.444495 
L 85.827679 69.007176 
L 87.674447 69.569858 
L 89.521214 69.569858 
L 91.367981 69.569858 
L 93.214749 69.569858 
L 95.061516 69.569858 
L 96.908283 68.069374 
L 98.755051 66.56889 
L 100.601818 65.068406 
L 102.448586 63.567922 
L 104.295353 62.517583 
L 106.14212 61.504757 
L 107.988888 60.454418 
L 109.835655 59.441591 
L 111.682422 57.528474 
L 113.52919 55.652869 
L 115.375957 53.777264 
L 117.222724 51.901659 
L 119.069492 49.538397 
L 120.916259 47.212647 
L 122.763026 44.849384 
L 124.609794 42.523634 
L 126.456561 41.285735 
L 128.303328 40.047836 
L 130.150096 38.847448 
L 131.996863 37.609549 
L 133.84363 36.596722 
L 135.690398 35.546384 
L 137.537165 34.533557 
L 139.383932 33.483218 
L 141.2307 32.470391 
L 143.077467 31.420053 
L 144.924234 30.369714 
L 146.771002 29.356887 
L 148.617769 28.118988 
L 150.464536 26.918601 
L 152.311304 25.680701 
L 154.158071 24.480314 
L 156.004839 24.105193 
L 157.851606 23.730072 
L 159.698373 23.354951 
L 161.545141 22.97983 
L 163.391908 22.117052 
L 165.238675 21.254274 
L 167.085443 20.429007 
L 168.93221 19.566229 
L 170.778977 19.378669 
L 172.625745 19.191108 
L 174.472512 19.003548 
L 176.319279 18.815987 
L 178.166047 18.815987 
L 180.012814 18.815987 
L 181.859581 18.815987 
L 183.706349 18.815987 
L 185.553116 18.815987 
L 187.399883 18.815987 
L 189.246651 18.815987 
L 191.093418 18.815987 
L 192.940185 19.94135 
L 194.786953 21.066713 
L 196.63372 22.192076 
L 198.480487 23.354951 
L 200.327255 25.868262 
L 202.174022 28.419085 
L 204.020789 30.932395 
L 205.867557 33.483218 
L 207.714324 36.671747 
L 209.561092 39.860275 
L 211.407859 43.086316 
L 213.254626 46.274844 
L 215.101394 47.775328 
L 216.948161 49.275812 
L 218.794928 50.776296 
L 220.641696 52.27678 
L 222.488463 54.152385 
L 224.33523 56.02799 
L 226.181998 57.903595 
L 228.028765 59.816712 
L 229.875532 60.641978 
L 231.7223 61.504757 
L 233.569067 62.330023 
L 235.415834 63.192801 
L 237.262602 63.192801 
L 239.109369 63.192801 
L 240.956136 63.192801 
" clip-path="url(#p785e50ed39)" style="fill: none; stroke-dasharray: 4.5,1.5,3,1.5,3,1.5; stroke-dashoffset: 1.5; stroke: #b45955; stroke-width: 1.5"/>
   </g>
   <g id="line2d_14">
    <path d="M 65.513239 79.735637 
L 67.360006 79.998222 
L 69.206773 80.298318 
L 71.053541 80.560903 
L 72.900308 80.861 
L 74.747075 80.748464 
L 76.593843 80.673439 
L 78.44061 80.560903 
L 80.287377 80.485879 
L 82.134145 80.485879 
L 83.980912 80.485879 
L 85.827679 80.485879 
L 87.674447 80.485879 
L 89.521214 80.673439 
L 91.367981 80.861 
L 93.214749 81.04856 
L 95.061516 81.236121 
L 96.908283 81.423681 
L 98.755051 81.611242 
L 100.601818 81.798802 
L 102.448586 81.986363 
L 104.295353 81.498706 
L 106.14212 81.04856 
L 107.988888 80.560903 
L 109.835655 80.110758 
L 111.682422 79.623101 
L 113.52919 79.172955 
L 115.375957 78.685298 
L 117.222724 78.235153 
L 119.069492 77.935056 
L 120.916259 77.672471 
L 122.763026 77.372375 
L 124.609794 77.072278 
L 126.456561 76.622133 
L 128.303328 76.134475 
L 130.150096 75.68433 
L 131.996863 75.196673 
L 133.84363 74.633991 
L 135.690398 74.07131 
L 137.537165 73.508628 
L 139.383932 72.945947 
L 141.2307 71.74556 
L 143.077467 70.50766 
L 144.924234 69.307273 
L 146.771002 68.069374 
L 148.617769 66.831475 
L 150.464536 65.631088 
L 152.311304 64.393188 
L 154.158071 63.192801 
L 156.004839 62.705144 
L 157.851606 62.254999 
L 159.698373 61.767341 
L 161.545141 61.317196 
L 163.391908 63.192801 
L 165.238675 65.068406 
L 167.085443 66.944011 
L 168.93221 68.819616 
L 170.778977 69.007176 
L 172.625745 69.194737 
L 174.472512 69.382297 
L 176.319279 69.569858 
L 178.166047 69.757418 
L 180.012814 69.944979 
L 181.859581 70.132539 
L 183.706349 70.3201 
L 185.553116 69.944979 
L 187.399883 69.569858 
L 189.246651 69.194737 
L 191.093418 68.819616 
L 192.940185 68.444495 
L 194.786953 68.069374 
L 196.63372 67.694253 
L 198.480487 67.319132 
L 200.327255 67.769277 
L 202.174022 68.256934 
L 204.020789 68.744592 
L 205.867557 69.194737 
L 207.714324 69.194737 
L 209.561092 69.194737 
L 211.407859 69.194737 
L 213.254626 69.194737 
L 215.101394 69.569858 
L 216.948161 69.944979 
L 218.794928 70.3201 
L 220.641696 70.695221 
L 222.488463 70.807757 
L 224.33523 70.882781 
L 226.181998 70.995318 
L 228.028765 71.070342 
L 229.875532 71.070342 
L 231.7223 71.070342 
L 233.569067 71.070342 
L 235.415834 71.070342 
L 237.262602 71.070342 
L 239.109369 71.070342 
L 240.956136 71.070342 
" clip-path="url(#p785e50ed39)" style="fill: none; stroke-dasharray: 4.5,7.5,1.5,7.5,1.5,7.5; stroke-dashoffset: 0; stroke: #cb74f4; stroke-width: 1.5"/>
   </g>
   <g id="line2d_15">
    <path d="M 65.513239 106.781861 
L 67.360006 106.5943 
L 69.206773 106.40674 
L 71.053541 106.219179 
L 72.900308 106.031619 
L 74.747075 105.956595 
L 76.593843 105.844058 
L 78.44061 105.769034 
L 80.287377 105.656498 
L 82.134145 105.656498 
L 83.980912 105.656498 
L 85.827679 105.656498 
L 87.674447 105.656498 
L 89.521214 105.393913 
L 91.367981 105.093816 
L 93.214749 104.793719 
L 95.061516 104.531135 
L 96.908283 103.855917 
L 98.755051 103.218211 
L 100.601818 102.542994 
L 102.448586 101.905288 
L 104.295353 102.092848 
L 106.14212 102.280409 
L 107.988888 102.467969 
L 109.835655 102.65553 
L 111.682422 101.980312 
L 113.52919 101.342606 
L 115.375957 100.667389 
L 117.222724 100.029683 
L 119.069492 100.029683 
L 120.916259 100.029683 
L 122.763026 100.029683 
L 124.609794 100.029683 
L 126.456561 99.917147 
L 128.303328 99.842122 
L 130.150096 99.729586 
L 131.996863 99.654562 
L 133.84363 98.979344 
L 135.690398 98.341638 
L 137.537165 97.666421 
L 139.383932 97.028715 
L 141.2307 96.278473 
L 143.077467 95.490719 
L 144.924234 94.740477 
L 146.771002 93.990235 
L 148.617769 92.227166 
L 150.464536 90.426585 
L 152.311304 88.663517 
L 154.158071 86.862936 
L 156.004839 86.487815 
L 157.851606 86.112694 
L 159.698373 85.737573 
L 161.545141 85.362452 
L 163.391908 85.362452 
L 165.238675 85.362452 
L 167.085443 85.362452 
L 168.93221 85.362452 
L 170.778977 86.000158 
L 172.625745 86.675375 
L 174.472512 87.350593 
L 176.319279 87.988299 
L 178.166047 88.55098 
L 180.012814 89.113662 
L 181.859581 89.676343 
L 183.706349 90.239025 
L 185.553116 91.101803 
L 187.399883 91.927069 
L 189.246651 92.789848 
L 191.093418 93.615114 
L 192.940185 94.365356 
L 194.786953 95.115598 
L 196.63372 95.903352 
L 198.480487 96.653594 
L 200.327255 96.728618 
L 202.174022 96.841154 
L 204.020789 96.916179 
L 205.867557 97.028715 
L 207.714324 96.916179 
L 209.561092 96.841154 
L 211.407859 96.728618 
L 213.254626 96.653594 
L 215.101394 95.978376 
L 216.948161 95.303158 
L 218.794928 94.665453 
L 220.641696 93.990235 
L 222.488463 94.102771 
L 224.33523 94.177795 
L 226.181998 94.290332 
L 228.028765 94.365356 
L 229.875532 94.740477 
L 231.7223 95.115598 
L 233.569067 95.490719 
L 235.415834 95.903352 
L 237.262602 95.903352 
L 239.109369 95.903352 
L 240.956136 95.903352 
" clip-path="url(#p785e50ed39)" style="fill: none; stroke-dasharray: 7.5,7.5; stroke-dashoffset: 0; stroke: #808080; stroke-width: 1.5"/>
   </g>
   <g id="patch_3">
    <path d="M 56.741094 164.471719 
L 56.741094 11.88 
" style="fill: none; stroke: #000000; stroke-width: 0.5; stroke-linejoin: miter; stroke-linecap: square"/>
   </g>
   <g id="patch_4">
    <path d="M 249.728281 164.471719 
L 249.728281 11.88 
" style="fill: none; stroke: #000000; stroke-width: 0.5; stroke-linejoin: miter; stroke-linecap: square"/>
   </g>
   <g id="patch_5">
    <path d="M 56.741094 164.471719 
L 249.728281 164.471719 
" style="fill: none; stroke: #000000; stroke-width: 0.5; stroke-linejoin: miter; stroke-linecap: square"/>
   </g>
   <g id="patch_6">
    <path d="M 56.741094 11.88 
L 249.728281 11.88 
" style="fill: none; stroke: #000000; stroke-width: 0.5; stroke-linejoin: miter; stroke-linecap: square"/>
   </g>
   <g id="legend_1">
    <g id="patch_7">
     <path d="M 257.428281 158.776094 
L 433.76 158.776094 
Q 435.96 158.776094 435.96 156.576094 
L 435.96 19.775625 
Q 435.96 17.575625 433.76 17.575625 
L 257.428281 17.575625 
Q 255.228281 17.575625 255.228281 19.775625 
L 255.228281 156.576094 
Q 255.228281 158.776094 257.428281 158.776094 
z
" style="fill: #ffffff; opacity: 0.8; stroke: #cccccc; stroke-width: 1.5; stroke-linejoin: miter"/>
    </g>
    <g id="line2d_16">
     <path d="M 260.728281 27.583906 
L 271.728281 27.583906 
L 282.728281 27.583906 
" style="fill: none; stroke: #ec635c; stroke-width: 1.5; stroke-linecap: square"/>
    </g>
    <g id="text_10">
     <!-- kalter Wintertag -->
     <g transform="translate(291.528281 31.433906)scale(0.11 -0.11)">
      <defs>
       <path id="DejaVuSerif-6b" d="M 1831 0 
L 219 0 
L 219 331 
L 738 331 
L 738 4531 
L 184 4531 
L 184 4863 
L 1313 4863 
L 1313 1697 
L 2713 2988 
L 2234 2988 
L 2234 3322 
L 3738 3322 
L 3738 2988 
L 3169 2988 
L 2181 2075 
L 3444 331 
L 3922 331 
L 3922 0 
L 2284 0 
L 2284 331 
L 2759 331 
L 1766 1697 
L 1313 1275 
L 1313 331 
L 1831 331 
L 1831 0 
z
" transform="scale(0.015625)"/>
       <path id="DejaVuSerif-6c" d="M 1313 331 
L 1856 331 
L 1856 0 
L 184 0 
L 184 331 
L 738 331 
L 738 4531 
L 184 4531 
L 184 4863 
L 1313 4863 
L 1313 331 
z
" transform="scale(0.015625)"/>
       <path id="DejaVuSerif-57" d="M 4878 0 
L 4366 0 
L 3297 3794 
L 2228 0 
L 1716 0 
L 494 4331 
L 31 4331 
L 31 4666 
L 1734 4666 
L 1734 4331 
L 1153 4331 
L 2125 884 
L 3188 4666 
L 3694 4666 
L 4775 844 
L 5753 4331 
L 5216 4331 
L 5216 4666 
L 6559 4666 
L 6559 4331 
L 6100 4331 
L 4878 0 
z
" transform="scale(0.015625)"/>
      </defs>
      <use xlink:href="#DejaVuSerif-6b"/>
      <use xlink:href="#DejaVuSerif-61" x="60.595703"/>
      <use xlink:href="#DejaVuSerif-6c" x="120.214844"/>
      <use xlink:href="#DejaVuSerif-74" x="152.197266"/>
      <use xlink:href="#DejaVuSerif-65" x="192.382812"/>
      <use xlink:href="#DejaVuSerif-72" x="251.5625"/>
      <use xlink:href="#DejaVuSerif-20" x="299.365234"/>
      <use xlink:href="#DejaVuSerif-57" x="331.152344"/>
      <use xlink:href="#DejaVuSerif-69" x="432.185547"/>
      <use xlink:href="#DejaVuSerif-6e" x="464.167969"/>
      <use xlink:href="#DejaVuSerif-74" x="528.572266"/>
      <use xlink:href="#DejaVuSerif-65" x="568.757812"/>
      <use xlink:href="#DejaVuSerif-72" x="627.9375"/>
      <use xlink:href="#DejaVuSerif-74" x="675.740234"/>
      <use xlink:href="#DejaVuSerif-61" x="715.925781"/>
      <use xlink:href="#DejaVuSerif-67" x="775.544922"/>
     </g>
    </g>
    <g id="line2d_17">
     <path d="M 260.728281 43.88625 
L 271.728281 43.88625 
L 282.728281 43.88625 
" style="fill: none; stroke-dasharray: 5.55,2.4; stroke-dashoffset: 0; stroke: #4b81c4; stroke-width: 1.5"/>
    </g>
    <g id="text_11">
     <!-- Wintertag -->
     <g transform="translate(291.528281 47.73625)scale(0.11 -0.11)">
      <use xlink:href="#DejaVuSerif-57"/>
      <use xlink:href="#DejaVuSerif-69" x="101.033203"/>
      <use xlink:href="#DejaVuSerif-6e" x="133.015625"/>
      <use xlink:href="#DejaVuSerif-74" x="197.419922"/>
      <use xlink:href="#DejaVuSerif-65" x="237.605469"/>
      <use xlink:href="#DejaVuSerif-72" x="296.785156"/>
      <use xlink:href="#DejaVuSerif-74" x="344.587891"/>
      <use xlink:href="#DejaVuSerif-61" x="384.773438"/>
      <use xlink:href="#DejaVuSerif-67" x="444.392578"/>
     </g>
    </g>
    <g id="line2d_18">
     <path d="M 260.728281 60.257344 
L 271.728281 60.257344 
L 282.728281 60.257344 
" style="fill: none; stroke-dasharray: 9.6,2.4,1.5,2.4; stroke-dashoffset: 0; stroke: #f49961; stroke-width: 1.5"/>
    </g>
    <g id="text_12">
     <!-- bewölkter Tag -->
     <g transform="translate(291.528281 64.107344)scale(0.11 -0.11)">
      <defs>
       <path id="DejaVuSerif-62" d="M 738 331 
L 738 4531 
L 184 4531 
L 184 4863 
L 1313 4863 
L 1313 2803 
Q 1481 3116 1742 3264 
Q 2003 3413 2388 3413 
Q 3000 3413 3387 2928 
Q 3775 2444 3775 1663 
Q 3775 881 3387 395 
Q 3000 -91 2388 -91 
Q 2003 -91 1742 57 
Q 1481 206 1313 519 
L 1313 0 
L 184 0 
L 184 331 
L 738 331 
z
M 1313 1497 
Q 1313 897 1542 583 
Q 1772 269 2209 269 
Q 2650 269 2876 622 
Q 3103 975 3103 1663 
Q 3103 2353 2876 2703 
Q 2650 3053 2209 3053 
Q 1772 3053 1542 2737 
Q 1313 2422 1313 1825 
L 1313 1497 
z
" transform="scale(0.015625)"/>
       <path id="DejaVuSerif-77" d="M 3072 3322 
L 3922 728 
L 4672 2988 
L 4191 2988 
L 4191 3322 
L 5394 3322 
L 5394 2988 
L 5025 2988 
L 4038 0 
L 3559 0 
L 2741 2484 
L 1919 0 
L 1459 0 
L 475 2988 
L 103 2988 
L 103 3322 
L 1606 3322 
L 1606 2988 
L 1069 2988 
L 1813 728 
L 2669 3322 
L 3072 3322 
z
" transform="scale(0.015625)"/>
       <path id="DejaVuSerif-f6" d="M 1925 219 
Q 2388 219 2623 584 
Q 2859 950 2859 1663 
Q 2859 2375 2623 2739 
Q 2388 3103 1925 3103 
Q 1463 3103 1227 2739 
Q 991 2375 991 1663 
Q 991 950 1228 584 
Q 1466 219 1925 219 
z
M 1925 -91 
Q 1200 -91 759 389 
Q 319 869 319 1663 
Q 319 2456 758 2934 
Q 1197 3413 1925 3413 
Q 2653 3413 3092 2934 
Q 3531 2456 3531 1663 
Q 3531 869 3092 389 
Q 2653 -91 1925 -91 
z
M 1319 4903 
Q 1469 4903 1576 4795 
Q 1684 4688 1684 4538 
Q 1684 4378 1581 4275 
Q 1478 4172 1319 4172 
Q 1162 4172 1059 4275 
Q 956 4378 956 4538 
Q 956 4688 1064 4795 
Q 1172 4903 1319 4903 
z
M 2537 4903 
Q 2684 4903 2792 4795 
Q 2900 4688 2900 4538 
Q 2900 4378 2797 4275 
Q 2694 4172 2537 4172 
Q 2378 4172 2275 4275 
Q 2172 4378 2172 4538 
Q 2172 4688 2279 4795 
Q 2387 4903 2537 4903 
z
" transform="scale(0.015625)"/>
      </defs>
      <use xlink:href="#DejaVuSerif-62"/>
      <use xlink:href="#DejaVuSerif-65" x="64.013672"/>
      <use xlink:href="#DejaVuSerif-77" x="123.193359"/>
      <use xlink:href="#DejaVuSerif-f6" x="208.789062"/>
      <use xlink:href="#DejaVuSerif-6c" x="268.994141"/>
      <use xlink:href="#DejaVuSerif-6b" x="300.976562"/>
      <use xlink:href="#DejaVuSerif-74" x="361.572266"/>
      <use xlink:href="#DejaVuSerif-65" x="401.757812"/>
      <use xlink:href="#DejaVuSerif-72" x="460.9375"/>
      <use xlink:href="#DejaVuSerif-20" x="508.740234"/>
      <use xlink:href="#DejaVuSerif-54" x="540.527344"/>
      <use xlink:href="#DejaVuSerif-61" x="599.476562"/>
      <use xlink:href="#DejaVuSerif-67" x="659.095703"/>
     </g>
    </g>
    <g id="line2d_19">
     <path d="M 260.728281 78.297344 
L 271.728281 78.297344 
L 282.728281 78.297344 
" style="fill: none; stroke-dasharray: 1.5,2.475; stroke-dashoffset: 0; stroke: #808080; stroke-width: 1.5"/>
    </g>
    <g id="text_13">
     <!-- Übergangstag 1 -->
     <g transform="translate(291.528281 82.147344)scale(0.11 -0.11)">
      <defs>
       <path id="DejaVuSerif-dc" d="M 897 4331 
L 300 4331 
L 300 4666 
L 2125 4666 
L 2125 4331 
L 1528 4331 
L 1528 1919 
Q 1528 1025 1820 672 
Q 2113 319 2828 319 
Q 3544 319 3836 672 
Q 4128 1025 4128 1919 
L 4128 4331 
L 3531 4331 
L 3531 4666 
L 5106 4666 
L 5106 4331 
L 4513 4331 
L 4513 1856 
Q 4513 791 4103 350 
Q 3694 -91 2713 -91 
Q 1731 -91 1314 353 
Q 897 797 897 1856 
L 897 4331 
z
M 2215 5874 
Q 2365 5874 2472 5764 
Q 2580 5655 2580 5511 
Q 2580 5355 2475 5250 
Q 2371 5146 2215 5146 
Q 2062 5146 1957 5250 
Q 1852 5355 1852 5511 
Q 1852 5655 1960 5764 
Q 2068 5874 2215 5874 
z
M 3433 5874 
Q 3580 5874 3688 5764 
Q 3796 5655 3796 5511 
Q 3796 5355 3691 5250 
Q 3587 5146 3433 5146 
Q 3277 5146 3172 5250 
Q 3068 5355 3068 5511 
Q 3068 5655 3175 5764 
Q 3283 5874 3433 5874 
z
" transform="scale(0.015625)"/>
      </defs>
      <use xlink:href="#DejaVuSerif-dc"/>
      <use xlink:href="#DejaVuSerif-62" x="84.277344"/>
      <use xlink:href="#DejaVuSerif-65" x="148.291016"/>
      <use xlink:href="#DejaVuSerif-72" x="207.470703"/>
      <use xlink:href="#DejaVuSerif-67" x="255.273438"/>
      <use xlink:href="#DejaVuSerif-61" x="319.287109"/>
      <use xlink:href="#DejaVuSerif-6e" x="378.90625"/>
      <use xlink:href="#DejaVuSerif-67" x="443.310547"/>
      <use xlink:href="#DejaVuSerif-73" x="507.324219"/>
      <use xlink:href="#DejaVuSerif-74" x="558.642578"/>
      <use xlink:href="#DejaVuSerif-61" x="598.828125"/>
      <use xlink:href="#DejaVuSerif-67" x="658.447266"/>
      <use xlink:href="#DejaVuSerif-20" x="722.460938"/>
      <use xlink:href="#DejaVuSerif-31" x="754.248047"/>
     </g>
    </g>
    <g id="line2d_20">
     <path d="M 260.728281 94.599687 
L 271.728281 94.599687 
L 282.728281 94.599687 
" style="fill: none; stroke-dasharray: 15,4.5; stroke-dashoffset: 7.5; stroke: #8768b4; stroke-width: 1.5"/>
    </g>
    <g id="text_14">
     <!-- Sommertag -->
     <g transform="translate(291.528281 98.449687)scale(0.11 -0.11)">
      <defs>
       <path id="DejaVuSerif-53" d="M 594 225 
L 594 1288 
L 953 1284 
Q 969 753 1261 498 
Q 1553 244 2150 244 
Q 2706 244 2998 464 
Q 3291 684 3291 1106 
Q 3291 1444 3114 1625 
Q 2938 1806 2369 1978 
L 1753 2163 
Q 1084 2366 811 2669 
Q 538 2972 538 3500 
Q 538 4094 959 4422 
Q 1381 4750 2144 4750 
Q 2469 4750 2856 4679 
Q 3244 4609 3681 4475 
L 3681 3481 
L 3328 3481 
Q 3275 3975 2998 4195 
Q 2722 4416 2156 4416 
Q 1663 4416 1405 4214 
Q 1147 4013 1147 3628 
Q 1147 3294 1340 3103 
Q 1534 2913 2163 2725 
L 2741 2553 
Q 3375 2363 3645 2067 
Q 3916 1772 3916 1275 
Q 3916 597 3481 253 
Q 3047 -91 2188 -91 
Q 1803 -91 1404 -12 
Q 1006 66 594 225 
z
" transform="scale(0.015625)"/>
       <path id="DejaVuSerif-6f" d="M 1925 219 
Q 2388 219 2623 584 
Q 2859 950 2859 1663 
Q 2859 2375 2623 2739 
Q 2388 3103 1925 3103 
Q 1463 3103 1227 2739 
Q 991 2375 991 1663 
Q 991 950 1228 584 
Q 1466 219 1925 219 
z
M 1925 -91 
Q 1200 -91 759 389 
Q 319 869 319 1663 
Q 319 2456 758 2934 
Q 1197 3413 1925 3413 
Q 2653 3413 3092 2934 
Q 3531 2456 3531 1663 
Q 3531 869 3092 389 
Q 2653 -91 1925 -91 
z
" transform="scale(0.015625)"/>
      </defs>
      <use xlink:href="#DejaVuSerif-53"/>
      <use xlink:href="#DejaVuSerif-6f" x="68.505859"/>
      <use xlink:href="#DejaVuSerif-6d" x="128.710938"/>
      <use xlink:href="#DejaVuSerif-6d" x="223.535156"/>
      <use xlink:href="#DejaVuSerif-65" x="318.359375"/>
      <use xlink:href="#DejaVuSerif-72" x="377.539062"/>
      <use xlink:href="#DejaVuSerif-74" x="425.341797"/>
      <use xlink:href="#DejaVuSerif-61" x="465.527344"/>
      <use xlink:href="#DejaVuSerif-67" x="525.146484"/>
     </g>
    </g>
    <g id="line2d_21">
     <path d="M 260.728281 110.902031 
L 271.728281 110.902031 
L 282.728281 110.902031 
" style="fill: none; stroke-dasharray: 4.5,1.5,3,1.5,3,1.5; stroke-dashoffset: 1.5; stroke: #b45955; stroke-width: 1.5"/>
    </g>
    <g id="text_15">
     <!-- Hochsommertag -->
     <g transform="translate(291.528281 114.752031)scale(0.11 -0.11)">
      <defs>
       <path id="DejaVuSerif-48" d="M 353 0 
L 353 331 
L 947 331 
L 947 4331 
L 353 4331 
L 353 4666 
L 2175 4666 
L 2175 4331 
L 1581 4331 
L 1581 2719 
L 4000 2719 
L 4000 4331 
L 3406 4331 
L 3406 4666 
L 5228 4666 
L 5228 4331 
L 4634 4331 
L 4634 331 
L 5228 331 
L 5228 0 
L 3406 0 
L 3406 331 
L 4000 331 
L 4000 2338 
L 1581 2338 
L 1581 331 
L 2175 331 
L 2175 0 
L 353 0 
z
" transform="scale(0.015625)"/>
       <path id="DejaVuSerif-63" d="M 3291 997 
Q 3169 466 2822 187 
Q 2475 -91 1925 -91 
Q 1200 -91 759 389 
Q 319 869 319 1663 
Q 319 2459 759 2936 
Q 1200 3413 1925 3413 
Q 2241 3413 2553 3339 
Q 2866 3266 3181 3116 
L 3181 2266 
L 2847 2266 
Q 2781 2703 2561 2903 
Q 2341 3103 1931 3103 
Q 1466 3103 1228 2742 
Q 991 2381 991 1663 
Q 991 944 1227 581 
Q 1463 219 1931 219 
Q 2303 219 2525 412 
Q 2747 606 2828 997 
L 3291 997 
z
" transform="scale(0.015625)"/>
      </defs>
      <use xlink:href="#DejaVuSerif-48"/>
      <use xlink:href="#DejaVuSerif-6f" x="87.207031"/>
      <use xlink:href="#DejaVuSerif-63" x="147.412109"/>
      <use xlink:href="#DejaVuSerif-68" x="203.417969"/>
      <use xlink:href="#DejaVuSerif-73" x="267.822266"/>
      <use xlink:href="#DejaVuSerif-6f" x="319.140625"/>
      <use xlink:href="#DejaVuSerif-6d" x="379.345703"/>
      <use xlink:href="#DejaVuSerif-6d" x="474.169922"/>
      <use xlink:href="#DejaVuSerif-65" x="568.994141"/>
      <use xlink:href="#DejaVuSerif-72" x="628.173828"/>
      <use xlink:href="#DejaVuSerif-74" x="675.976562"/>
      <use xlink:href="#DejaVuSerif-61" x="716.162109"/>
      <use xlink:href="#DejaVuSerif-67" x="775.78125"/>
     </g>
    </g>
    <g id="line2d_22">
     <path d="M 260.728281 128.942031 
L 271.728281 128.942031 
L 282.728281 128.942031 
" style="fill: none; stroke-dasharray: 4.5,7.5,1.5,7.5,1.5,7.5; stroke-dashoffset: 0; stroke: #cb74f4; stroke-width: 1.5"/>
    </g>
    <g id="text_16">
     <!-- Übergangstag 2 -->
     <g transform="translate(291.528281 132.792031)scale(0.11 -0.11)">
      <use xlink:href="#DejaVuSerif-dc"/>
      <use xlink:href="#DejaVuSerif-62" x="84.277344"/>
      <use xlink:href="#DejaVuSerif-65" x="148.291016"/>
      <use xlink:href="#DejaVuSerif-72" x="207.470703"/>
      <use xlink:href="#DejaVuSerif-67" x="255.273438"/>
      <use xlink:href="#DejaVuSerif-61" x="319.287109"/>
      <use xlink:href="#DejaVuSerif-6e" x="378.90625"/>
      <use xlink:href="#DejaVuSerif-67" x="443.310547"/>
      <use xlink:href="#DejaVuSerif-73" x="507.324219"/>
      <use xlink:href="#DejaVuSerif-74" x="558.642578"/>
      <use xlink:href="#DejaVuSerif-61" x="598.828125"/>
      <use xlink:href="#DejaVuSerif-67" x="658.447266"/>
      <use xlink:href="#DejaVuSerif-20" x="722.460938"/>
      <use xlink:href="#DejaVuSerif-32" x="754.248047"/>
     </g>
    </g>
    <g id="line2d_23">
     <path d="M 260.728281 146.982031 
L 271.728281 146.982031 
L 282.728281 146.982031 
" style="fill: none; stroke-dasharray: 7.5,7.5; stroke-dashoffset: 0; stroke: #808080; stroke-width: 1.5"/>
    </g>
    <g id="text_17">
     <!-- bewölkter Übergangstag -->
     <g transform="translate(291.528281 150.832031)scale(0.11 -0.11)">
      <use xlink:href="#DejaVuSerif-62"/>
      <use xlink:href="#DejaVuSerif-65" x="64.013672"/>
      <use xlink:href="#DejaVuSerif-77" x="123.193359"/>
      <use xlink:href="#DejaVuSerif-f6" x="208.789062"/>
      <use xlink:href="#DejaVuSerif-6c" x="268.994141"/>
      <use xlink:href="#DejaVuSerif-6b" x="300.976562"/>
      <use xlink:href="#DejaVuSerif-74" x="361.572266"/>
      <use xlink:href="#DejaVuSerif-65" x="401.757812"/>
      <use xlink:href="#DejaVuSerif-72" x="460.9375"/>
      <use xlink:href="#DejaVuSerif-20" x="508.740234"/>
      <use xlink:href="#DejaVuSerif-dc" x="540.527344"/>
      <use xlink:href="#DejaVuSerif-62" x="624.804688"/>
      <use xlink:href="#DejaVuSerif-65" x="688.818359"/>
      <use xlink:href="#DejaVuSerif-72" x="747.998047"/>
      <use xlink:href="#DejaVuSerif-67" x="795.800781"/>
      <use xlink:href="#DejaVuSerif-61" x="859.814453"/>
      <use xlink:href="#DejaVuSerif-6e" x="919.433594"/>
      <use xlink:href="#DejaVuSerif-67" x="983.837891"/>
      <use xlink:href="#DejaVuSerif-73" x="1047.851562"/>
      <use xlink:href="#DejaVuSerif-74" x="1099.169922"/>
      <use xlink:href="#DejaVuSerif-61" x="1139.355469"/>
      <use xlink:href="#DejaVuSerif-67" x="1198.974609"/>
     </g>
    </g>
   </g>
  </g>
 </g>
 <defs>
  <clipPath id="p785e50ed39">
   <rect x="56.741094" y="11.88" width="192.987187" height="152.591719"/>
  </clipPath>
 </defs>
</svg>
