<?xml version="1.0" encoding="utf-8" standalone="no"?>
<!DOCTYPE svg PUBLIC "-//W3C//DTD SVG 1.1//EN"
  "http://www.w3.org/Graphics/SVG/1.1/DTD/svg11.dtd">
<svg xmlns:xlink="http://www.w3.org/1999/xlink" width="447.84pt" height="396pt" viewBox="0 0 447.84 396" xmlns="http://www.w3.org/2000/svg" version="1.1">
 <metadata>
  <rdf:RDF xmlns:dc="http://purl.org/dc/elements/1.1/" xmlns:cc="http://creativecommons.org/ns#" xmlns:rdf="http://www.w3.org/1999/02/22-rdf-syntax-ns#">
   <cc:Work>
    <dc:type rdf:resource="http://purl.org/dc/dcmitype/StillImage"/>
    <dc:date>2023-05-14T21:05:50.890918</dc:date>
    <dc:format>image/svg+xml</dc:format>
    <dc:creator>
     <cc:Agent>
      <dc:title>Matplotlib v3.5.3, https://matplotlib.org/</dc:title>
     </cc:Agent>
    </dc:creator>
   </cc:Work>
  </rdf:RDF>
 </metadata>
 <defs>
  <style type="text/css">*{stroke-linejoin: round; stroke-linecap: butt}</style>
 </defs>
 <g id="figure_1">
  <g id="patch_1">
   <path d="M 0 396 
L 447.84 396 
L 447.84 0 
L 0 0 
z
" style="fill: #ffffff"/>
  </g>
  <g id="axes_1">
   <g id="patch_2">
    <path d="M 56.741094 167.663008 
L 249.728281 167.663008 
L 249.728281 13.180234 
L 56.741094 13.180234 
z
" style="fill: #ffffff"/>
   </g>
   <g id="matplotlib.axis_1">
    <g id="xtick_1">
     <g id="line2d_1">
      <defs>
       <path id="m4fe4c2dccc" d="M 0 0 
L 0 3.5 
" style="stroke: #000000; stroke-width: 0.8"/>
      </defs>
      <g>
       <use xlink:href="#m4fe4c2dccc" x="65.513239" y="167.663008" style="stroke: #000000; stroke-width: 0.8"/>
      </g>
     </g>
     <g id="text_1">
      <!-- 0 -->
      <g transform="translate(62.013864 183.021289)scale(0.11 -0.11)">
       <defs>
        <path id="DejaVuSerif-30" d="M 2034 219 
Q 2513 219 2750 744 
Q 2988 1269 2988 2328 
Q 2988 3391 2750 3916 
Q 2513 4441 2034 4441 
Q 1556 4441 1318 3916 
Q 1081 3391 1081 2328 
Q 1081 1269 1318 744 
Q 1556 219 2034 219 
z
M 2034 -91 
Q 1275 -91 848 546 
Q 422 1184 422 2328 
Q 422 3475 848 4112 
Q 1275 4750 2034 4750 
Q 2797 4750 3222 4112 
Q 3647 3475 3647 2328 
Q 3647 1184 3222 546 
Q 2797 -91 2034 -91 
z
" transform="scale(0.015625)"/>
       </defs>
       <use xlink:href="#DejaVuSerif-30"/>
      </g>
     </g>
    </g>
    <g id="xtick_2">
     <g id="line2d_2">
      <g>
       <use xlink:href="#m4fe4c2dccc" x="139.383932" y="167.663008" style="stroke: #000000; stroke-width: 0.8"/>
      </g>
     </g>
     <g id="text_2">
      <!-- 10 -->
      <g transform="translate(132.385182 183.021289)scale(0.11 -0.11)">
       <defs>
        <path id="DejaVuSerif-31" d="M 909 0 
L 909 331 
L 1722 331 
L 1722 4213 
L 781 3603 
L 781 4013 
L 1919 4750 
L 2350 4750 
L 2350 331 
L 3163 331 
L 3163 0 
L 909 0 
z
" transform="scale(0.015625)"/>
       </defs>
       <use xlink:href="#DejaVuSerif-31"/>
       <use xlink:href="#DejaVuSerif-30" x="63.623047"/>
      </g>
     </g>
    </g>
    <g id="xtick_3">
     <g id="line2d_3">
      <g>
       <use xlink:href="#m4fe4c2dccc" x="213.254626" y="167.663008" style="stroke: #000000; stroke-width: 0.8"/>
      </g>
     </g>
     <g id="text_3">
      <!-- 20 -->
      <g transform="translate(206.255876 183.021289)scale(0.11 -0.11)">
       <defs>
        <path id="DejaVuSerif-32" d="M 819 3553 
L 469 3553 
L 469 4384 
Q 803 4563 1142 4656 
Q 1481 4750 1806 4750 
Q 2534 4750 2956 4397 
Q 3378 4044 3378 3438 
Q 3378 2753 2422 1800 
Q 2347 1728 2309 1691 
L 1131 513 
L 3078 513 
L 3078 1088 
L 3444 1088 
L 3444 0 
L 434 0 
L 434 341 
L 1850 1753 
Q 2319 2222 2519 2614 
Q 2719 3006 2719 3438 
Q 2719 3909 2473 4175 
Q 2228 4441 1797 4441 
Q 1350 4441 1106 4219 
Q 863 3997 819 3553 
z
" transform="scale(0.015625)"/>
       </defs>
       <use xlink:href="#DejaVuSerif-32"/>
       <use xlink:href="#DejaVuSerif-30" x="63.623047"/>
      </g>
     </g>
    </g>
   </g>
   <g id="matplotlib.axis_2">
    <g id="ytick_1">
     <g id="line2d_4">
      <defs>
       <path id="m3e428ec980" d="M 0 0 
L -3.5 0 
" style="stroke: #000000; stroke-width: 0.8"/>
      </defs>
      <g>
       <use xlink:href="#m3e428ec980" x="56.741094" y="161.814909" style="stroke: #000000; stroke-width: 0.8"/>
      </g>
     </g>
     <g id="text_4">
      <!-- −5 -->
      <g transform="translate(33.524688 165.99405)scale(0.11 -0.11)">
       <defs>
        <path id="DejaVuSerif-2212" d="M 678 2259 
L 4684 2259 
L 4684 1753 
L 678 1753 
L 678 2259 
z
" transform="scale(0.015625)"/>
        <path id="DejaVuSerif-35" d="M 3219 4666 
L 3219 4153 
L 1081 4153 
L 1081 2816 
Q 1244 2928 1461 2984 
Q 1678 3041 1947 3041 
Q 2703 3041 3140 2622 
Q 3578 2203 3578 1478 
Q 3578 738 3136 323 
Q 2694 -91 1894 -91 
Q 1572 -91 1234 -12 
Q 897 66 544 225 
L 544 1131 
L 897 1131 
Q 925 688 1179 453 
Q 1434 219 1894 219 
Q 2388 219 2653 544 
Q 2919 869 2919 1478 
Q 2919 2084 2655 2407 
Q 2391 2731 1894 2731 
Q 1613 2731 1398 2631 
Q 1184 2531 1019 2322 
L 750 2322 
L 750 4666 
L 3219 4666 
z
" transform="scale(0.015625)"/>
       </defs>
       <use xlink:href="#DejaVuSerif-2212"/>
       <use xlink:href="#DejaVuSerif-35" x="83.789062"/>
      </g>
     </g>
    </g>
    <g id="ytick_2">
     <g id="line2d_5">
      <g>
       <use xlink:href="#m3e428ec980" x="56.741094" y="138.337998" style="stroke: #000000; stroke-width: 0.8"/>
      </g>
     </g>
     <g id="text_5">
      <!-- 0 -->
      <g transform="translate(42.742344 142.517138)scale(0.11 -0.11)">
       <use xlink:href="#DejaVuSerif-30"/>
      </g>
     </g>
    </g>
    <g id="ytick_3">
     <g id="line2d_6">
      <g>
       <use xlink:href="#m3e428ec980" x="56.741094" y="114.861086" style="stroke: #000000; stroke-width: 0.8"/>
      </g>
     </g>
     <g id="text_6">
      <!-- 5 -->
      <g transform="translate(42.742344 119.040227)scale(0.11 -0.11)">
       <use xlink:href="#DejaVuSerif-35"/>
      </g>
     </g>
    </g>
    <g id="ytick_4">
     <g id="line2d_7">
      <g>
       <use xlink:href="#m3e428ec980" x="56.741094" y="91.384174" style="stroke: #000000; stroke-width: 0.8"/>
      </g>
     </g>
     <g id="text_7">
      <!-- 10 -->
      <g transform="translate(35.743594 95.563315)scale(0.11 -0.11)">
       <use xlink:href="#DejaVuSerif-31"/>
       <use xlink:href="#DejaVuSerif-30" x="63.623047"/>
      </g>
     </g>
    </g>
    <g id="ytick_5">
     <g id="line2d_8">
      <g>
       <use xlink:href="#m3e428ec980" x="56.741094" y="67.907263" style="stroke: #000000; stroke-width: 0.8"/>
      </g>
     </g>
     <g id="text_8">
      <!-- 15 -->
      <g transform="translate(35.743594 72.086404)scale(0.11 -0.11)">
       <use xlink:href="#DejaVuSerif-31"/>
       <use xlink:href="#DejaVuSerif-35" x="63.623047"/>
      </g>
     </g>
    </g>
    <g id="ytick_6">
     <g id="line2d_9">
      <g>
       <use xlink:href="#m3e428ec980" x="56.741094" y="44.430351" style="stroke: #000000; stroke-width: 0.8"/>
      </g>
     </g>
     <g id="text_9">
      <!-- 20 -->
      <g transform="translate(35.743594 48.609492)scale(0.11 -0.11)">
       <use xlink:href="#DejaVuSerif-32"/>
       <use xlink:href="#DejaVuSerif-30" x="63.623047"/>
      </g>
     </g>
    </g>
    <g id="ytick_7">
     <g id="line2d_10">
      <g>
       <use xlink:href="#m3e428ec980" x="56.741094" y="20.95344" style="stroke: #000000; stroke-width: 0.8"/>
      </g>
     </g>
     <g id="text_10">
      <!-- 25 -->
      <g transform="translate(35.743594 25.13258)scale(0.11 -0.11)">
       <use xlink:href="#DejaVuSerif-32"/>
       <use xlink:href="#DejaVuSerif-35" x="63.623047"/>
      </g>
     </g>
    </g>
    <g id="text_11">
     <!-- Temperatur in °C -->
     <g transform="translate(27.237031 138.956543)rotate(-90)scale(0.11 -0.11)">
      <defs>
       <path id="DejaVuSerif-54" d="M 1222 0 
L 1222 331 
L 1819 331 
L 1819 4294 
L 447 4294 
L 447 3566 
L 63 3566 
L 63 4666 
L 4206 4666 
L 4206 3566 
L 3822 3566 
L 3822 4294 
L 2450 4294 
L 2450 331 
L 3047 331 
L 3047 0 
L 1222 0 
z
" transform="scale(0.015625)"/>
       <path id="DejaVuSerif-65" d="M 3469 1600 
L 991 1600 
L 991 1575 
Q 991 903 1244 561 
Q 1497 219 1991 219 
Q 2369 219 2611 417 
Q 2853 616 2950 1006 
L 3413 1006 
Q 3275 459 2904 184 
Q 2534 -91 1931 -91 
Q 1203 -91 761 389 
Q 319 869 319 1663 
Q 319 2450 753 2931 
Q 1188 3413 1894 3413 
Q 2647 3413 3050 2948 
Q 3453 2484 3469 1600 
z
M 2791 1931 
Q 2772 2513 2545 2808 
Q 2319 3103 1894 3103 
Q 1497 3103 1269 2806 
Q 1041 2509 991 1931 
L 2791 1931 
z
" transform="scale(0.015625)"/>
       <path id="DejaVuSerif-6d" d="M 3316 2675 
Q 3481 3041 3739 3227 
Q 3997 3413 4341 3413 
Q 4863 3413 5119 3089 
Q 5375 2766 5375 2113 
L 5375 331 
L 5894 331 
L 5894 0 
L 4300 0 
L 4300 331 
L 4800 331 
L 4800 2047 
Q 4800 2556 4650 2772 
Q 4500 2988 4153 2988 
Q 3769 2988 3567 2697 
Q 3366 2406 3366 1850 
L 3366 331 
L 3866 331 
L 3866 0 
L 2291 0 
L 2291 331 
L 2791 331 
L 2791 2069 
Q 2791 2566 2641 2777 
Q 2491 2988 2144 2988 
Q 1759 2988 1557 2697 
Q 1356 2406 1356 1850 
L 1356 331 
L 1856 331 
L 1856 0 
L 263 0 
L 263 331 
L 781 331 
L 781 2994 
L 231 2994 
L 231 3322 
L 1356 3322 
L 1356 2731 
Q 1516 3063 1762 3238 
Q 2009 3413 2322 3413 
Q 2709 3413 2968 3220 
Q 3228 3028 3316 2675 
z
" transform="scale(0.015625)"/>
       <path id="DejaVuSerif-70" d="M 1313 1825 
L 1313 1497 
Q 1313 897 1542 583 
Q 1772 269 2209 269 
Q 2650 269 2876 622 
Q 3103 975 3103 1663 
Q 3103 2353 2876 2703 
Q 2650 3053 2209 3053 
Q 1772 3053 1542 2737 
Q 1313 2422 1313 1825 
z
M 738 2988 
L 184 2988 
L 184 3322 
L 1313 3322 
L 1313 2803 
Q 1481 3116 1742 3264 
Q 2003 3413 2388 3413 
Q 3000 3413 3387 2928 
Q 3775 2444 3775 1663 
Q 3775 881 3387 395 
Q 3000 -91 2388 -91 
Q 2003 -91 1742 57 
Q 1481 206 1313 519 
L 1313 -997 
L 1856 -997 
L 1856 -1331 
L 184 -1331 
L 184 -997 
L 738 -997 
L 738 2988 
z
" transform="scale(0.015625)"/>
       <path id="DejaVuSerif-72" d="M 3059 3328 
L 3059 2497 
L 2728 2497 
Q 2713 2744 2591 2866 
Q 2469 2988 2234 2988 
Q 1809 2988 1582 2694 
Q 1356 2400 1356 1850 
L 1356 331 
L 2022 331 
L 2022 0 
L 263 0 
L 263 331 
L 781 331 
L 781 2994 
L 231 2994 
L 231 3322 
L 1356 3322 
L 1356 2731 
Q 1525 3078 1790 3245 
Q 2056 3413 2438 3413 
Q 2578 3413 2733 3391 
Q 2888 3369 3059 3328 
z
" transform="scale(0.015625)"/>
       <path id="DejaVuSerif-61" d="M 2547 1044 
L 2547 1747 
L 1806 1747 
Q 1378 1747 1168 1562 
Q 959 1378 959 997 
Q 959 650 1171 447 
Q 1384 244 1747 244 
Q 2106 244 2326 466 
Q 2547 688 2547 1044 
z
M 3122 2075 
L 3122 331 
L 3634 331 
L 3634 0 
L 2547 0 
L 2547 359 
Q 2356 128 2106 18 
Q 1856 -91 1522 -91 
Q 969 -91 644 203 
Q 319 497 319 997 
Q 319 1513 691 1797 
Q 1063 2081 1741 2081 
L 2547 2081 
L 2547 2309 
Q 2547 2688 2317 2895 
Q 2088 3103 1672 3103 
Q 1328 3103 1125 2947 
Q 922 2791 872 2484 
L 575 2484 
L 575 3156 
Q 875 3284 1158 3348 
Q 1441 3413 1709 3413 
Q 2400 3413 2761 3070 
Q 3122 2728 3122 2075 
z
" transform="scale(0.015625)"/>
       <path id="DejaVuSerif-74" d="M 691 2988 
L 184 2988 
L 184 3322 
L 691 3322 
L 691 4353 
L 1269 4353 
L 1269 3322 
L 2350 3322 
L 2350 2988 
L 1269 2988 
L 1269 878 
Q 1269 456 1350 337 
Q 1431 219 1650 219 
Q 1875 219 1978 351 
Q 2081 484 2088 781 
L 2522 781 
Q 2497 328 2275 118 
Q 2053 -91 1600 -91 
Q 1103 -91 897 129 
Q 691 350 691 878 
L 691 2988 
z
" transform="scale(0.015625)"/>
       <path id="DejaVuSerif-75" d="M 2266 3322 
L 3341 3322 
L 3341 331 
L 3884 331 
L 3884 0 
L 2766 0 
L 2766 588 
Q 2606 256 2353 82 
Q 2100 -91 1766 -91 
Q 1213 -91 952 223 
Q 691 538 691 1209 
L 691 2988 
L 172 2988 
L 172 3322 
L 1269 3322 
L 1269 1388 
Q 1269 781 1417 556 
Q 1566 331 1947 331 
Q 2347 331 2556 625 
Q 2766 919 2766 1478 
L 2766 2988 
L 2266 2988 
L 2266 3322 
z
" transform="scale(0.015625)"/>
       <path id="DejaVuSerif-20" transform="scale(0.015625)"/>
       <path id="DejaVuSerif-69" d="M 622 4353 
Q 622 4497 726 4603 
Q 831 4709 978 4709 
Q 1122 4709 1226 4603 
Q 1331 4497 1331 4353 
Q 1331 4206 1228 4103 
Q 1125 4000 978 4000 
Q 831 4000 726 4103 
Q 622 4206 622 4353 
z
M 1356 331 
L 1900 331 
L 1900 0 
L 231 0 
L 231 331 
L 781 331 
L 781 2988 
L 231 2988 
L 231 3322 
L 1356 3322 
L 1356 331 
z
" transform="scale(0.015625)"/>
       <path id="DejaVuSerif-6e" d="M 263 0 
L 263 331 
L 781 331 
L 781 2988 
L 231 2988 
L 231 3322 
L 1356 3322 
L 1356 2731 
Q 1516 3069 1770 3241 
Q 2025 3413 2363 3413 
Q 2913 3413 3172 3097 
Q 3431 2781 3431 2113 
L 3431 331 
L 3944 331 
L 3944 0 
L 2356 0 
L 2356 331 
L 2853 331 
L 2853 1931 
Q 2853 2541 2703 2767 
Q 2553 2994 2175 2994 
Q 1775 2994 1565 2701 
Q 1356 2409 1356 1850 
L 1356 331 
L 1856 331 
L 1856 0 
L 263 0 
z
" transform="scale(0.015625)"/>
       <path id="DejaVuSerif-b0" d="M 1600 4319 
Q 1363 4319 1200 4155 
Q 1038 3991 1038 3750 
Q 1038 3513 1198 3353 
Q 1359 3194 1600 3194 
Q 1838 3194 2000 3355 
Q 2163 3516 2163 3750 
Q 2163 3984 1997 4151 
Q 1831 4319 1600 4319 
z
M 1600 4750 
Q 1800 4750 1984 4673 
Q 2169 4597 2303 4453 
Q 2447 4313 2519 4134 
Q 2591 3956 2591 3750 
Q 2591 3338 2302 3052 
Q 2013 2766 1594 2766 
Q 1172 2766 890 3047 
Q 609 3328 609 3750 
Q 609 4169 896 4459 
Q 1184 4750 1600 4750 
z
" transform="scale(0.015625)"/>
       <path id="DejaVuSerif-43" d="M 4513 1234 
Q 4306 581 3820 245 
Q 3334 -91 2591 -91 
Q 2134 -91 1743 65 
Q 1353 222 1050 525 
Q 700 875 529 1320 
Q 359 1766 359 2328 
Q 359 3416 987 4083 
Q 1616 4750 2644 4750 
Q 3025 4750 3456 4650 
Q 3888 4550 4384 4347 
L 4384 3272 
L 4031 3272 
Q 3916 3859 3567 4137 
Q 3219 4416 2591 4416 
Q 1844 4416 1459 3886 
Q 1075 3356 1075 2328 
Q 1075 1303 1459 773 
Q 1844 244 2591 244 
Q 3113 244 3450 492 
Q 3788 741 3938 1234 
L 4513 1234 
z
" transform="scale(0.015625)"/>
      </defs>
      <use xlink:href="#DejaVuSerif-54"/>
      <use xlink:href="#DejaVuSerif-65" x="58.949219"/>
      <use xlink:href="#DejaVuSerif-6d" x="118.128906"/>
      <use xlink:href="#DejaVuSerif-70" x="212.953125"/>
      <use xlink:href="#DejaVuSerif-65" x="276.966797"/>
      <use xlink:href="#DejaVuSerif-72" x="336.146484"/>
      <use xlink:href="#DejaVuSerif-61" x="383.949219"/>
      <use xlink:href="#DejaVuSerif-74" x="443.568359"/>
      <use xlink:href="#DejaVuSerif-75" x="483.753906"/>
      <use xlink:href="#DejaVuSerif-72" x="548.158203"/>
      <use xlink:href="#DejaVuSerif-20" x="595.960938"/>
      <use xlink:href="#DejaVuSerif-69" x="627.748047"/>
      <use xlink:href="#DejaVuSerif-6e" x="659.730469"/>
      <use xlink:href="#DejaVuSerif-20" x="724.134766"/>
      <use xlink:href="#DejaVuSerif-b0" x="755.921875"/>
      <use xlink:href="#DejaVuSerif-43" x="805.921875"/>
     </g>
    </g>
   </g>
   <g id="line2d_11">
    <path d="M 65.513239 160.641064 
L 67.360006 159.795895 
L 69.206773 158.99768 
L 71.053541 158.152511 
L 72.900308 157.307342 
L 74.747075 157.072573 
L 76.593843 156.837804 
L 78.44061 156.603035 
L 80.287377 156.368266 
L 82.134145 155.757866 
L 83.980912 155.19442 
L 85.827679 154.58402 
L 87.674447 153.973621 
L 89.521214 153.879713 
L 91.367981 153.738852 
L 93.214749 153.644944 
L 95.061516 153.504082 
L 96.908283 153.034544 
L 98.755051 152.565006 
L 100.601818 152.095468 
L 102.448586 151.62593 
L 104.295353 151.485068 
L 106.14212 151.39116 
L 107.988888 151.250299 
L 109.835655 151.156391 
L 111.682422 150.686853 
L 113.52919 150.217315 
L 115.375957 149.700823 
L 117.222724 149.231285 
L 119.069492 148.996515 
L 120.916259 148.761746 
L 122.763026 148.526977 
L 124.609794 148.292208 
L 126.456561 147.82267 
L 128.303328 147.353132 
L 130.150096 146.883593 
L 131.996863 146.414055 
L 133.84363 146.273194 
L 135.690398 146.179286 
L 137.537165 146.038425 
L 139.383932 145.944517 
L 141.2307 145.568886 
L 143.077467 145.24021 
L 144.924234 144.864579 
L 146.771002 144.488948 
L 148.617769 143.690733 
L 150.464536 142.845565 
L 152.311304 142.000396 
L 154.158071 141.202181 
L 156.004839 141.202181 
L 157.851606 141.202181 
L 159.698373 141.202181 
L 161.545141 141.202181 
L 163.391908 140.967412 
L 165.238675 140.732643 
L 167.085443 140.45092 
L 168.93221 140.216151 
L 170.778977 140.122243 
L 172.625745 139.981381 
L 174.472512 139.887474 
L 176.319279 139.746612 
L 178.166047 139.652705 
L 180.012814 139.511843 
L 181.859581 139.417936 
L 183.706349 139.277074 
L 185.553116 139.511843 
L 187.399883 139.746612 
L 189.246651 139.981381 
L 191.093418 140.216151 
L 192.940185 139.981381 
L 194.786953 139.746612 
L 196.63372 139.511843 
L 198.480487 139.277074 
L 200.327255 139.277074 
L 202.174022 139.277074 
L 204.020789 139.277074 
L 205.867557 139.277074 
L 207.714324 139.183166 
L 209.561092 139.042305 
L 211.407859 138.948397 
L 213.254626 138.807536 
L 215.101394 138.948397 
L 216.948161 139.042305 
L 218.794928 139.183166 
L 220.641696 139.277074 
L 222.488463 139.277074 
L 224.33523 139.277074 
L 226.181998 139.277074 
L 228.028765 139.277074 
L 229.875532 139.417936 
L 231.7223 139.511843 
L 233.569067 139.652705 
L 235.415834 139.746612 
L 237.262602 139.746612 
L 239.109369 139.746612 
L 240.956136 139.746612 
" clip-path="url(#p2d26e4ed4e)" style="fill: none; stroke: #ec635c; stroke-width: 1.5; stroke-linecap: square"/>
   </g>
   <g id="line2d_12">
    <path d="M 65.513239 133.595661 
L 67.360006 133.4548 
L 69.206773 133.360892 
L 71.053541 133.220031 
L 72.900308 133.126123 
L 74.747075 132.891354 
L 76.593843 132.656585 
L 78.44061 132.421816 
L 80.287377 132.187047 
L 82.134145 132.280954 
L 83.980912 132.421816 
L 85.827679 132.515724 
L 87.674447 132.656585 
L 89.521214 132.891354 
L 91.367981 133.126123 
L 93.214749 133.360892 
L 95.061516 133.595661 
L 96.908283 133.595661 
L 98.755051 133.595661 
L 100.601818 133.595661 
L 102.448586 133.595661 
L 104.295353 133.4548 
L 106.14212 133.360892 
L 107.988888 133.220031 
L 109.835655 133.126123 
L 111.682422 132.750493 
L 113.52919 132.421816 
L 115.375957 132.046185 
L 117.222724 131.717509 
L 119.069492 131.576647 
L 120.916259 131.435786 
L 122.763026 131.341878 
L 124.609794 131.201016 
L 126.456561 131.341878 
L 128.303328 131.435786 
L 130.150096 131.576647 
L 131.996863 131.717509 
L 133.84363 131.576647 
L 135.690398 131.435786 
L 137.537165 131.341878 
L 139.383932 131.201016 
L 141.2307 130.87234 
L 143.077467 130.496709 
L 144.924234 130.168032 
L 146.771002 129.792402 
L 148.617769 129.322864 
L 150.464536 128.853325 
L 152.311304 128.383787 
L 154.158071 127.914249 
L 156.004839 127.303849 
L 157.851606 126.693449 
L 159.698373 126.130004 
L 161.545141 125.519604 
L 163.391908 125.190927 
L 165.238675 124.815297 
L 167.085443 124.439666 
L 168.93221 124.110989 
L 170.778977 123.87622 
L 172.625745 123.641451 
L 174.472512 123.406682 
L 176.319279 123.171913 
L 178.166047 123.500589 
L 180.012814 123.87622 
L 181.859581 124.204897 
L 183.706349 124.580527 
L 185.553116 124.956158 
L 187.399883 125.284835 
L 189.246651 125.660465 
L 191.093418 125.989142 
L 192.940185 126.130004 
L 194.786953 126.223911 
L 196.63372 126.364773 
L 198.480487 126.45868 
L 200.327255 126.45868 
L 202.174022 126.45868 
L 204.020789 126.45868 
L 205.867557 126.45868 
L 207.714324 126.599542 
L 209.561092 126.693449 
L 211.407859 126.834311 
L 213.254626 126.975172 
L 215.101394 126.693449 
L 216.948161 126.45868 
L 218.794928 126.223911 
L 220.641696 125.989142 
L 222.488463 126.130004 
L 224.33523 126.223911 
L 226.181998 126.364773 
L 228.028765 126.45868 
L 229.875532 126.834311 
L 231.7223 127.209942 
L 233.569067 127.538618 
L 235.415834 127.914249 
L 237.262602 127.914249 
L 239.109369 127.914249 
L 240.956136 127.914249 
" clip-path="url(#p2d26e4ed4e)" style="fill: none; stroke-dasharray: 5.55,2.4; stroke-dashoffset: 0; stroke: #4b81c4; stroke-width: 1.5"/>
   </g>
   <g id="line2d_13">
    <path d="M 65.513239 112.70121 
L 67.360006 112.607303 
L 69.206773 112.466441 
L 71.053541 112.372533 
L 72.900308 112.231672 
L 74.747075 112.607303 
L 76.593843 112.935979 
L 78.44061 113.31161 
L 80.287377 113.68724 
L 82.134145 113.92201 
L 83.980912 114.156779 
L 85.827679 114.391548 
L 87.674447 114.626317 
L 89.521214 114.485455 
L 91.367981 114.391548 
L 93.214749 114.250686 
L 95.061516 114.156779 
L 96.908283 114.015917 
L 98.755051 113.92201 
L 100.601818 113.781148 
L 102.448586 113.68724 
L 104.295353 113.452471 
L 106.14212 113.170748 
L 107.988888 112.935979 
L 109.835655 112.70121 
L 111.682422 112.372533 
L 113.52919 111.996903 
L 115.375957 111.668226 
L 117.222724 111.292595 
L 119.069492 110.916965 
L 120.916259 110.588288 
L 122.763026 110.212658 
L 124.609794 109.883981 
L 126.456561 109.414443 
L 128.303328 108.944904 
L 130.150096 108.428412 
L 131.996863 107.958874 
L 133.84363 107.019798 
L 135.690398 106.080721 
L 137.537165 105.141645 
L 139.383932 104.202568 
L 141.2307 103.920845 
L 143.077467 103.686076 
L 144.924234 103.451307 
L 146.771002 103.216538 
L 148.617769 101.667062 
L 150.464536 100.164539 
L 152.311304 98.615063 
L 154.158071 97.065587 
L 156.004839 96.924726 
L 157.851606 96.830818 
L 159.698373 96.689956 
L 161.545141 96.596049 
L 163.391908 96.36128 
L 165.238675 96.126511 
L 167.085443 95.891741 
L 168.93221 95.656972 
L 170.778977 95.891741 
L 172.625745 96.126511 
L 174.472512 96.36128 
L 176.319279 96.596049 
L 178.166047 97.441218 
L 180.012814 98.239433 
L 181.859581 99.084601 
L 183.706349 99.92977 
L 185.553116 100.399309 
L 187.399883 100.868847 
L 189.246651 101.338385 
L 191.093418 101.807923 
L 192.940185 102.277461 
L 194.786953 102.747 
L 196.63372 103.216538 
L 198.480487 103.686076 
L 200.327255 103.920845 
L 202.174022 104.202568 
L 204.020789 104.437337 
L 205.867557 104.672106 
L 207.714324 104.906876 
L 209.561092 105.141645 
L 211.407859 105.376414 
L 213.254626 105.611183 
L 215.101394 105.93986 
L 216.948161 106.31549 
L 218.794928 106.691121 
L 220.641696 107.019798 
L 222.488463 106.92589 
L 224.33523 106.785028 
L 226.181998 106.691121 
L 228.028765 106.550259 
L 229.875532 107.489336 
L 231.7223 108.428412 
L 233.569067 109.414443 
L 235.415834 110.353519 
L 237.262602 110.353519 
L 239.109369 110.353519 
L 240.956136 110.353519 
" clip-path="url(#p2d26e4ed4e)" style="fill: none; stroke-dasharray: 9.6,2.4,1.5,2.4; stroke-dashoffset: 0; stroke: #f49961; stroke-width: 1.5"/>
   </g>
   <g id="line2d_14">
    <path d="M 65.513239 135.004276 
L 67.360006 135.473814 
L 69.206773 135.943353 
L 71.053541 136.459845 
L 72.900308 136.929383 
L 74.747075 137.63369 
L 76.593843 138.337998 
L 78.44061 139.042305 
L 80.287377 139.746612 
L 82.134145 140.122243 
L 83.980912 140.45092 
L 85.827679 140.82655 
L 87.674447 141.202181 
L 89.521214 141.296088 
L 91.367981 141.43695 
L 93.214749 141.530858 
L 95.061516 141.671719 
L 96.908283 141.906488 
L 98.755051 142.141257 
L 100.601818 142.376026 
L 102.448586 142.610795 
L 104.295353 141.906488 
L 106.14212 141.202181 
L 107.988888 140.45092 
L 109.835655 139.746612 
L 111.682422 134.910368 
L 113.52919 130.027171 
L 115.375957 125.190927 
L 117.222724 120.30773 
L 119.069492 116.269701 
L 120.916259 112.231672 
L 122.763026 108.193643 
L 124.609794 104.202568 
L 126.456561 101.103616 
L 128.303328 98.004664 
L 130.150096 94.905711 
L 131.996863 91.853713 
L 133.84363 90.539006 
L 135.690398 89.224299 
L 137.537165 87.909592 
L 139.383932 86.641838 
L 141.2307 84.388055 
L 143.077467 82.134271 
L 144.924234 79.880488 
L 146.771002 77.626704 
L 148.617769 77.016305 
L 150.464536 76.405905 
L 152.311304 75.842459 
L 154.158071 75.232059 
L 156.004839 73.119137 
L 157.851606 70.959261 
L 159.698373 68.846339 
L 161.545141 66.686464 
L 163.391908 65.653479 
L 165.238675 64.573541 
L 167.085443 63.493604 
L 168.93221 62.413666 
L 170.778977 62.789296 
L 172.625745 63.117973 
L 174.472512 63.493604 
L 176.319279 63.869234 
L 178.166047 64.573541 
L 180.012814 65.277849 
L 181.859581 65.982156 
L 183.706349 66.686464 
L 185.553116 68.001171 
L 187.399883 69.315878 
L 189.246651 70.630585 
L 191.093418 71.898338 
L 192.940185 76.311997 
L 194.786953 80.678703 
L 196.63372 85.092362 
L 198.480487 89.459068 
L 200.327255 90.773775 
L 202.174022 92.088482 
L 204.020789 93.403189 
L 205.867557 94.670942 
L 207.714324 95.281342 
L 209.561092 95.891741 
L 211.407859 96.455187 
L 213.254626 97.065587 
L 215.101394 99.695001 
L 216.948161 102.277461 
L 218.794928 104.906876 
L 220.641696 107.489336 
L 222.488463 108.804043 
L 224.33523 110.11875 
L 226.181998 111.433457 
L 228.028765 112.70121 
L 229.875532 113.546379 
L 231.7223 114.391548 
L 233.569067 115.189763 
L 235.415834 116.034932 
L 237.262602 116.034932 
L 239.109369 116.034932 
L 240.956136 116.034932 
" clip-path="url(#p2d26e4ed4e)" style="fill: none; stroke-dasharray: 1.5,2.475; stroke-dashoffset: 0; stroke: #808080; stroke-width: 1.5"/>
   </g>
   <g id="line2d_15">
    <path d="M 65.513239 71.898338 
L 67.360006 73.213045 
L 69.206773 74.527752 
L 71.053541 75.842459 
L 72.900308 77.157166 
L 74.747075 77.485843 
L 76.593843 77.861473 
L 78.44061 78.19015 
L 80.287377 78.565781 
L 82.134145 79.035319 
L 83.980912 79.504857 
L 85.827679 79.974395 
L 87.674447 80.443934 
L 89.521214 80.584795 
L 91.367981 80.678703 
L 93.214749 80.819564 
L 95.061516 80.913472 
L 96.908283 80.819564 
L 98.755051 80.678703 
L 100.601818 80.584795 
L 102.448586 80.443934 
L 104.295353 80.678703 
L 106.14212 80.913472 
L 107.988888 81.148241 
L 109.835655 81.429964 
L 111.682422 79.974395 
L 113.52919 78.565781 
L 115.375957 77.157166 
L 117.222724 75.701598 
L 119.069492 74.292983 
L 120.916259 72.884368 
L 122.763026 71.4288 
L 124.609794 70.020185 
L 126.456561 69.409785 
L 128.303328 68.846339 
L 130.150096 68.23594 
L 131.996863 67.62554 
L 133.84363 66.921233 
L 135.690398 66.216925 
L 137.537165 65.512618 
L 139.383932 64.808311 
L 141.2307 63.869234 
L 143.077467 62.883204 
L 144.924234 61.944127 
L 146.771002 61.005051 
L 148.617769 61.23982 
L 150.464536 61.474589 
L 152.311304 61.709358 
L 154.158071 61.944127 
L 156.004839 61.23982 
L 157.851606 60.535513 
L 159.698373 59.831205 
L 161.545141 59.126898 
L 163.391908 59.455575 
L 165.238675 59.831205 
L 167.085443 60.159882 
L 168.93221 60.535513 
L 170.778977 60.62942 
L 172.625745 60.770282 
L 174.472512 60.911143 
L 176.319279 61.005051 
L 178.166047 61.145912 
L 180.012814 61.23982 
L 181.859581 61.380681 
L 183.706349 61.474589 
L 185.553116 62.554527 
L 187.399883 63.634465 
L 189.246651 64.667449 
L 191.093418 65.747387 
L 192.940185 66.827325 
L 194.786953 67.907263 
L 196.63372 68.940247 
L 198.480487 70.020185 
L 200.327255 70.020185 
L 202.174022 70.020185 
L 204.020789 70.020185 
L 205.867557 70.020185 
L 207.714324 70.630585 
L 209.561092 71.194031 
L 211.407859 71.80443 
L 213.254626 72.41483 
L 215.101394 73.823445 
L 216.948161 75.232059 
L 218.794928 76.640674 
L 220.641696 78.096243 
L 222.488463 79.035319 
L 224.33523 79.974395 
L 226.181998 80.913472 
L 228.028765 81.899502 
L 229.875532 83.308117 
L 231.7223 84.716732 
L 233.569067 86.1723 
L 235.415834 87.580915 
L 237.262602 87.580915 
L 239.109369 87.580915 
L 240.956136 87.580915 
" clip-path="url(#p2d26e4ed4e)" style="fill: none; stroke-dasharray: 15,4.5; stroke-dashoffset: 7.5; stroke: #8768b4; stroke-width: 1.5"/>
   </g>
   <g id="line2d_16">
    <path d="M 65.513239 67.62554 
L 67.360006 68.142032 
L 69.206773 68.61157 
L 71.053541 69.081108 
L 72.900308 69.550647 
L 74.747075 70.489723 
L 76.593843 71.4288 
L 78.44061 72.41483 
L 80.287377 73.353906 
L 82.134145 73.917352 
L 83.980912 74.527752 
L 85.827679 75.138152 
L 87.674447 75.701598 
L 89.521214 75.936367 
L 91.367981 76.171136 
L 93.214749 76.405905 
L 95.061516 76.640674 
L 96.908283 74.668613 
L 98.755051 72.649599 
L 100.601818 70.630585 
L 102.448586 68.61157 
L 104.295353 65.277849 
L 106.14212 61.944127 
L 107.988888 58.65736 
L 109.835655 55.323638 
L 111.682422 52.694224 
L 113.52919 50.111764 
L 115.375957 47.48235 
L 117.222724 44.852936 
L 119.069492 43.585183 
L 120.916259 42.270475 
L 122.763026 40.955768 
L 124.609794 39.641061 
L 126.456561 38.467216 
L 128.303328 37.29337 
L 130.150096 36.119525 
L 131.996863 34.898725 
L 133.84363 33.020572 
L 135.690398 31.095466 
L 137.537165 29.217313 
L 139.383932 27.33916 
L 141.2307 26.869622 
L 143.077467 26.353129 
L 144.924234 25.883591 
L 146.771002 25.414053 
L 148.617769 25.883591 
L 150.464536 26.353129 
L 152.311304 26.869622 
L 154.158071 27.33916 
L 156.004839 26.024453 
L 157.851606 24.709746 
L 159.698373 23.395039 
L 161.545141 22.080332 
L 163.391908 23.066362 
L 165.238675 24.005438 
L 167.085443 24.944515 
L 168.93221 25.883591 
L 170.778977 24.474977 
L 172.625745 23.066362 
L 174.472512 21.610793 
L 176.319279 20.202179 
L 178.166047 21.141255 
L 180.012814 22.080332 
L 181.859581 23.066362 
L 183.706349 24.005438 
L 185.553116 24.099346 
L 187.399883 24.240207 
L 189.246651 24.334115 
L 191.093418 24.474977 
L 192.940185 25.789684 
L 194.786953 27.104391 
L 196.63372 28.372144 
L 198.480487 29.686851 
L 200.327255 30.860696 
L 202.174022 32.081496 
L 204.020789 33.255341 
L 205.867557 34.429187 
L 207.714324 35.743894 
L 209.561092 37.058601 
L 211.407859 38.373308 
L 213.254626 39.641061 
L 215.101394 41.331399 
L 216.948161 42.974783 
L 218.794928 44.618167 
L 220.641696 46.308504 
L 222.488463 47.012812 
L 224.33523 47.717119 
L 226.181998 48.421426 
L 228.028765 49.125734 
L 229.875532 50.346533 
L 231.7223 51.520379 
L 233.569067 52.694224 
L 235.415834 53.86807 
L 237.262602 53.86807 
L 239.109369 53.86807 
L 240.956136 53.86807 
" clip-path="url(#p2d26e4ed4e)" style="fill: none; stroke-dasharray: 4.5,1.5,3,1.5,3,1.5; stroke-dashoffset: 1.5; stroke: #b45955; stroke-width: 1.5"/>
   </g>
   <g id="line2d_17">
    <path d="M 65.513239 91.853713 
L 67.360006 92.182389 
L 69.206773 92.55802 
L 71.053541 92.933651 
L 72.900308 93.262327 
L 74.747075 93.872727 
L 76.593843 94.436173 
L 78.44061 95.046573 
L 80.287377 95.656972 
L 82.134145 95.656972 
L 83.980912 95.656972 
L 85.827679 95.656972 
L 87.674447 95.656972 
L 89.521214 96.455187 
L 91.367981 97.300356 
L 93.214749 98.145525 
L 95.061516 98.94374 
L 96.908283 98.615063 
L 98.755051 98.239433 
L 100.601818 97.910756 
L 102.448586 97.535125 
L 104.295353 95.75088 
L 106.14212 93.966635 
L 107.988888 92.182389 
L 109.835655 90.398144 
L 111.682422 86.735746 
L 113.52919 83.073348 
L 115.375957 79.41095 
L 117.222724 75.701598 
L 119.069492 71.80443 
L 120.916259 67.907263 
L 122.763026 63.963142 
L 124.609794 60.065974 
L 126.456561 57.906099 
L 128.303328 55.793177 
L 130.150096 53.633301 
L 131.996863 51.520379 
L 133.84363 50.909979 
L 135.690398 50.346533 
L 137.537165 49.736133 
L 139.383932 49.125734 
L 141.2307 47.951888 
L 143.077467 46.778043 
L 144.924234 45.604197 
L 146.771002 44.383398 
L 148.617769 45.932874 
L 150.464536 47.48235 
L 152.311304 49.031826 
L 154.158071 50.581302 
L 156.004839 50.581302 
L 157.851606 50.581302 
L 159.698373 50.581302 
L 161.545141 50.581302 
L 163.391908 49.970902 
L 165.238675 49.360503 
L 167.085443 48.797057 
L 168.93221 48.186657 
L 170.778977 47.85798 
L 172.625745 47.48235 
L 174.472512 47.106719 
L 176.319279 46.778043 
L 178.166047 47.012812 
L 180.012814 47.247581 
L 181.859581 47.48235 
L 183.706349 47.717119 
L 185.553116 48.797057 
L 187.399883 49.876995 
L 189.246651 50.909979 
L 191.093418 51.989917 
L 192.940185 54.619331 
L 194.786953 57.201791 
L 196.63372 59.831205 
L 198.480487 62.413666 
L 200.327255 64.43268 
L 202.174022 66.451694 
L 204.020789 68.470709 
L 205.867557 70.489723 
L 207.714324 70.724492 
L 209.561092 70.959261 
L 211.407859 71.194031 
L 213.254626 71.4288 
L 215.101394 71.569661 
L 216.948161 71.663569 
L 218.794928 71.80443 
L 220.641696 71.898338 
L 222.488463 72.743507 
L 224.33523 73.588676 
L 226.181998 74.38689 
L 228.028765 75.232059 
L 229.875532 75.372921 
L 231.7223 75.466828 
L 233.569067 75.60769 
L 235.415834 75.701598 
L 237.262602 75.701598 
L 239.109369 75.701598 
L 240.956136 75.701598 
" clip-path="url(#p2d26e4ed4e)" style="fill: none; stroke-dasharray: 4.5,7.5,1.5,7.5,1.5,7.5; stroke-dashoffset: 0; stroke: #cb74f4; stroke-width: 1.5"/>
   </g>
   <g id="line2d_18">
    <path d="M 65.513239 107.019798 
L 67.360006 106.92589 
L 69.206773 106.785028 
L 71.053541 106.691121 
L 72.900308 106.550259 
L 74.747075 106.080721 
L 76.593843 105.611183 
L 78.44061 105.141645 
L 80.287377 104.672106 
L 82.134145 103.920845 
L 83.980912 103.216538 
L 85.827679 102.512231 
L 87.674447 101.807923 
L 89.521214 101.948785 
L 91.367981 102.042692 
L 93.214749 102.183554 
L 95.061516 102.277461 
L 96.908283 103.451307 
L 98.755051 104.672106 
L 100.601818 105.845952 
L 102.448586 107.019798 
L 104.295353 107.160659 
L 106.14212 107.254567 
L 107.988888 107.395428 
L 109.835655 107.489336 
L 111.682422 107.395428 
L 113.52919 107.254567 
L 115.375957 107.160659 
L 117.222724 107.019798 
L 119.069492 103.826938 
L 120.916259 100.634078 
L 122.763026 97.441218 
L 124.609794 94.201404 
L 126.456561 92.651928 
L 128.303328 91.149405 
L 130.150096 89.599929 
L 131.996863 88.050453 
L 133.84363 86.500977 
L 135.690398 84.951501 
L 137.537165 83.402025 
L 139.383932 81.899502 
L 141.2307 83.073348 
L 143.077467 84.247193 
L 144.924234 85.421039 
L 146.771002 86.641838 
L 148.617769 85.421039 
L 150.464536 84.247193 
L 152.311304 83.073348 
L 154.158071 81.899502 
L 156.004839 80.584795 
L 157.851606 79.270088 
L 159.698373 77.955381 
L 161.545141 76.640674 
L 163.391908 77.485843 
L 165.238675 78.331012 
L 167.085443 79.17618 
L 168.93221 79.974395 
L 170.778977 79.739626 
L 172.625745 79.504857 
L 174.472512 79.270088 
L 176.319279 79.035319 
L 178.166047 81.429964 
L 180.012814 83.777655 
L 181.859581 86.1723 
L 183.706349 88.519991 
L 185.553116 90.398144 
L 187.399883 92.323251 
L 189.246651 94.201404 
L 191.093418 96.126511 
L 192.940185 96.126511 
L 194.786953 96.126511 
L 196.63372 96.126511 
L 198.480487 96.126511 
L 200.327255 94.905711 
L 202.174022 93.731866 
L 204.020789 92.55802 
L 205.867557 91.384174 
L 207.714324 93.262327 
L 209.561092 95.187434 
L 211.407859 97.065587 
L 213.254626 98.94374 
L 215.101394 99.413278 
L 216.948161 99.92977 
L 218.794928 100.399309 
L 220.641696 100.868847 
L 222.488463 100.493216 
L 224.33523 100.164539 
L 226.181998 99.788909 
L 228.028765 99.413278 
L 229.875532 99.55414 
L 231.7223 99.695001 
L 233.569067 99.788909 
L 235.415834 99.92977 
L 237.262602 99.92977 
L 239.109369 99.92977 
L 240.956136 99.92977 
" clip-path="url(#p2d26e4ed4e)" style="fill: none; stroke-dasharray: 7.5,7.5; stroke-dashoffset: 0; stroke: #808080; stroke-width: 1.5"/>
   </g>
   <g id="patch_3">
    <path d="M 56.741094 167.663008 
L 56.741094 13.180234 
" style="fill: none; stroke: #000000; stroke-width: 0.5; stroke-linejoin: miter; stroke-linecap: square"/>
   </g>
   <g id="patch_4">
    <path d="M 249.728281 167.663008 
L 249.728281 13.180234 
" style="fill: none; stroke: #000000; stroke-width: 0.5; stroke-linejoin: miter; stroke-linecap: square"/>
   </g>
   <g id="patch_5">
    <path d="M 56.741094 167.663008 
L 249.728281 167.663008 
" style="fill: none; stroke: #000000; stroke-width: 0.5; stroke-linejoin: miter; stroke-linecap: square"/>
   </g>
   <g id="patch_6">
    <path d="M 56.741094 13.180234 
L 249.728281 13.180234 
" style="fill: none; stroke: #000000; stroke-width: 0.5; stroke-linejoin: miter; stroke-linecap: square"/>
   </g>
   <g id="legend_1">
    <g id="patch_7">
     <path d="M 257.428281 161.021855 
L 433.76 161.021855 
Q 435.96 161.021855 435.96 158.821855 
L 435.96 22.021387 
Q 435.96 19.821387 433.76 19.821387 
L 257.428281 19.821387 
Q 255.228281 19.821387 255.228281 22.021387 
L 255.228281 158.821855 
Q 255.228281 161.021855 257.428281 161.021855 
z
" style="fill: #ffffff; opacity: 0.8; stroke: #cccccc; stroke-width: 1.5; stroke-linejoin: miter"/>
    </g>
    <g id="line2d_19">
     <path d="M 260.728281 29.829668 
L 271.728281 29.829668 
L 282.728281 29.829668 
" style="fill: none; stroke: #ec635c; stroke-width: 1.5; stroke-linecap: square"/>
    </g>
    <g id="text_12">
     <!-- kalter Wintertag -->
     <g transform="translate(291.528281 33.679668)scale(0.11 -0.11)">
      <defs>
       <path id="DejaVuSerif-6b" d="M 1831 0 
L 219 0 
L 219 331 
L 738 331 
L 738 4531 
L 184 4531 
L 184 4863 
L 1313 4863 
L 1313 1697 
L 2713 2988 
L 2234 2988 
L 2234 3322 
L 3738 3322 
L 3738 2988 
L 3169 2988 
L 2181 2075 
L 3444 331 
L 3922 331 
L 3922 0 
L 2284 0 
L 2284 331 
L 2759 331 
L 1766 1697 
L 1313 1275 
L 1313 331 
L 1831 331 
L 1831 0 
z
" transform="scale(0.015625)"/>
       <path id="DejaVuSerif-6c" d="M 1313 331 
L 1856 331 
L 1856 0 
L 184 0 
L 184 331 
L 738 331 
L 738 4531 
L 184 4531 
L 184 4863 
L 1313 4863 
L 1313 331 
z
" transform="scale(0.015625)"/>
       <path id="DejaVuSerif-57" d="M 4878 0 
L 4366 0 
L 3297 3794 
L 2228 0 
L 1716 0 
L 494 4331 
L 31 4331 
L 31 4666 
L 1734 4666 
L 1734 4331 
L 1153 4331 
L 2125 884 
L 3188 4666 
L 3694 4666 
L 4775 844 
L 5753 4331 
L 5216 4331 
L 5216 4666 
L 6559 4666 
L 6559 4331 
L 6100 4331 
L 4878 0 
z
" transform="scale(0.015625)"/>
       <path id="DejaVuSerif-67" d="M 3359 2988 
L 3359 72 
Q 3359 -644 2965 -1033 
Q 2572 -1422 1844 -1422 
Q 1516 -1422 1216 -1362 
Q 916 -1303 641 -1184 
L 641 -488 
L 941 -488 
Q 997 -813 1206 -963 
Q 1416 -1113 1806 -1113 
Q 2313 -1113 2548 -827 
Q 2784 -541 2784 72 
L 2784 519 
Q 2616 206 2355 57 
Q 2094 -91 1709 -91 
Q 1097 -91 708 395 
Q 319 881 319 1663 
Q 319 2444 706 2928 
Q 1094 3413 1709 3413 
Q 2094 3413 2355 3264 
Q 2616 3116 2784 2803 
L 2784 3322 
L 3909 3322 
L 3909 2988 
L 3359 2988 
z
M 2784 1825 
Q 2784 2422 2554 2737 
Q 2325 3053 1888 3053 
Q 1444 3053 1217 2703 
Q 991 2353 991 1663 
Q 991 975 1217 622 
Q 1444 269 1888 269 
Q 2325 269 2554 583 
Q 2784 897 2784 1497 
L 2784 1825 
z
" transform="scale(0.015625)"/>
      </defs>
      <use xlink:href="#DejaVuSerif-6b"/>
      <use xlink:href="#DejaVuSerif-61" x="60.595703"/>
      <use xlink:href="#DejaVuSerif-6c" x="120.214844"/>
      <use xlink:href="#DejaVuSerif-74" x="152.197266"/>
      <use xlink:href="#DejaVuSerif-65" x="192.382812"/>
      <use xlink:href="#DejaVuSerif-72" x="251.5625"/>
      <use xlink:href="#DejaVuSerif-20" x="299.365234"/>
      <use xlink:href="#DejaVuSerif-57" x="331.152344"/>
      <use xlink:href="#DejaVuSerif-69" x="432.185547"/>
      <use xlink:href="#DejaVuSerif-6e" x="464.167969"/>
      <use xlink:href="#DejaVuSerif-74" x="528.572266"/>
      <use xlink:href="#DejaVuSerif-65" x="568.757812"/>
      <use xlink:href="#DejaVuSerif-72" x="627.9375"/>
      <use xlink:href="#DejaVuSerif-74" x="675.740234"/>
      <use xlink:href="#DejaVuSerif-61" x="715.925781"/>
      <use xlink:href="#DejaVuSerif-67" x="775.544922"/>
     </g>
    </g>
    <g id="line2d_20">
     <path d="M 260.728281 46.132012 
L 271.728281 46.132012 
L 282.728281 46.132012 
" style="fill: none; stroke-dasharray: 5.55,2.4; stroke-dashoffset: 0; stroke: #4b81c4; stroke-width: 1.5"/>
    </g>
    <g id="text_13">
     <!-- Wintertag -->
     <g transform="translate(291.528281 49.982012)scale(0.11 -0.11)">
      <use xlink:href="#DejaVuSerif-57"/>
      <use xlink:href="#DejaVuSerif-69" x="101.033203"/>
      <use xlink:href="#DejaVuSerif-6e" x="133.015625"/>
      <use xlink:href="#DejaVuSerif-74" x="197.419922"/>
      <use xlink:href="#DejaVuSerif-65" x="237.605469"/>
      <use xlink:href="#DejaVuSerif-72" x="296.785156"/>
      <use xlink:href="#DejaVuSerif-74" x="344.587891"/>
      <use xlink:href="#DejaVuSerif-61" x="384.773438"/>
      <use xlink:href="#DejaVuSerif-67" x="444.392578"/>
     </g>
    </g>
    <g id="line2d_21">
     <path d="M 260.728281 62.503105 
L 271.728281 62.503105 
L 282.728281 62.503105 
" style="fill: none; stroke-dasharray: 9.6,2.4,1.5,2.4; stroke-dashoffset: 0; stroke: #f49961; stroke-width: 1.5"/>
    </g>
    <g id="text_14">
     <!-- bewölkter Tag -->
     <g transform="translate(291.528281 66.353105)scale(0.11 -0.11)">
      <defs>
       <path id="DejaVuSerif-62" d="M 738 331 
L 738 4531 
L 184 4531 
L 184 4863 
L 1313 4863 
L 1313 2803 
Q 1481 3116 1742 3264 
Q 2003 3413 2388 3413 
Q 3000 3413 3387 2928 
Q 3775 2444 3775 1663 
Q 3775 881 3387 395 
Q 3000 -91 2388 -91 
Q 2003 -91 1742 57 
Q 1481 206 1313 519 
L 1313 0 
L 184 0 
L 184 331 
L 738 331 
z
M 1313 1497 
Q 1313 897 1542 583 
Q 1772 269 2209 269 
Q 2650 269 2876 622 
Q 3103 975 3103 1663 
Q 3103 2353 2876 2703 
Q 2650 3053 2209 3053 
Q 1772 3053 1542 2737 
Q 1313 2422 1313 1825 
L 1313 1497 
z
" transform="scale(0.015625)"/>
       <path id="DejaVuSerif-77" d="M 3072 3322 
L 3922 728 
L 4672 2988 
L 4191 2988 
L 4191 3322 
L 5394 3322 
L 5394 2988 
L 5025 2988 
L 4038 0 
L 3559 0 
L 2741 2484 
L 1919 0 
L 1459 0 
L 475 2988 
L 103 2988 
L 103 3322 
L 1606 3322 
L 1606 2988 
L 1069 2988 
L 1813 728 
L 2669 3322 
L 3072 3322 
z
" transform="scale(0.015625)"/>
       <path id="DejaVuSerif-f6" d="M 1925 219 
Q 2388 219 2623 584 
Q 2859 950 2859 1663 
Q 2859 2375 2623 2739 
Q 2388 3103 1925 3103 
Q 1463 3103 1227 2739 
Q 991 2375 991 1663 
Q 991 950 1228 584 
Q 1466 219 1925 219 
z
M 1925 -91 
Q 1200 -91 759 389 
Q 319 869 319 1663 
Q 319 2456 758 2934 
Q 1197 3413 1925 3413 
Q 2653 3413 3092 2934 
Q 3531 2456 3531 1663 
Q 3531 869 3092 389 
Q 2653 -91 1925 -91 
z
M 1319 4903 
Q 1469 4903 1576 4795 
Q 1684 4688 1684 4538 
Q 1684 4378 1581 4275 
Q 1478 4172 1319 4172 
Q 1162 4172 1059 4275 
Q 956 4378 956 4538 
Q 956 4688 1064 4795 
Q 1172 4903 1319 4903 
z
M 2537 4903 
Q 2684 4903 2792 4795 
Q 2900 4688 2900 4538 
Q 2900 4378 2797 4275 
Q 2694 4172 2537 4172 
Q 2378 4172 2275 4275 
Q 2172 4378 2172 4538 
Q 2172 4688 2279 4795 
Q 2387 4903 2537 4903 
z
" transform="scale(0.015625)"/>
      </defs>
      <use xlink:href="#DejaVuSerif-62"/>
      <use xlink:href="#DejaVuSerif-65" x="64.013672"/>
      <use xlink:href="#DejaVuSerif-77" x="123.193359"/>
      <use xlink:href="#DejaVuSerif-f6" x="208.789062"/>
      <use xlink:href="#DejaVuSerif-6c" x="268.994141"/>
      <use xlink:href="#DejaVuSerif-6b" x="300.976562"/>
      <use xlink:href="#DejaVuSerif-74" x="361.572266"/>
      <use xlink:href="#DejaVuSerif-65" x="401.757812"/>
      <use xlink:href="#DejaVuSerif-72" x="460.9375"/>
      <use xlink:href="#DejaVuSerif-20" x="508.740234"/>
      <use xlink:href="#DejaVuSerif-54" x="540.527344"/>
      <use xlink:href="#DejaVuSerif-61" x="599.476562"/>
      <use xlink:href="#DejaVuSerif-67" x="659.095703"/>
     </g>
    </g>
    <g id="line2d_22">
     <path d="M 260.728281 80.543105 
L 271.728281 80.543105 
L 282.728281 80.543105 
" style="fill: none; stroke-dasharray: 1.5,2.475; stroke-dashoffset: 0; stroke: #808080; stroke-width: 1.5"/>
    </g>
    <g id="text_15">
     <!-- Übergangstag 1 -->
     <g transform="translate(291.528281 84.393105)scale(0.11 -0.11)">
      <defs>
       <path id="DejaVuSerif-dc" d="M 897 4331 
L 300 4331 
L 300 4666 
L 2125 4666 
L 2125 4331 
L 1528 4331 
L 1528 1919 
Q 1528 1025 1820 672 
Q 2113 319 2828 319 
Q 3544 319 3836 672 
Q 4128 1025 4128 1919 
L 4128 4331 
L 3531 4331 
L 3531 4666 
L 5106 4666 
L 5106 4331 
L 4513 4331 
L 4513 1856 
Q 4513 791 4103 350 
Q 3694 -91 2713 -91 
Q 1731 -91 1314 353 
Q 897 797 897 1856 
L 897 4331 
z
M 2215 5874 
Q 2365 5874 2472 5764 
Q 2580 5655 2580 5511 
Q 2580 5355 2475 5250 
Q 2371 5146 2215 5146 
Q 2062 5146 1957 5250 
Q 1852 5355 1852 5511 
Q 1852 5655 1960 5764 
Q 2068 5874 2215 5874 
z
M 3433 5874 
Q 3580 5874 3688 5764 
Q 3796 5655 3796 5511 
Q 3796 5355 3691 5250 
Q 3587 5146 3433 5146 
Q 3277 5146 3172 5250 
Q 3068 5355 3068 5511 
Q 3068 5655 3175 5764 
Q 3283 5874 3433 5874 
z
" transform="scale(0.015625)"/>
       <path id="DejaVuSerif-73" d="M 359 184 
L 359 959 
L 691 959 
Q 703 588 923 403 
Q 1144 219 1575 219 
Q 1963 219 2166 364 
Q 2369 509 2369 788 
Q 2369 1006 2220 1140 
Q 2072 1275 1594 1428 
L 1178 1569 
Q 750 1706 558 1912 
Q 366 2119 366 2438 
Q 366 2894 700 3153 
Q 1034 3413 1625 3413 
Q 1888 3413 2178 3344 
Q 2469 3275 2778 3144 
L 2778 2419 
L 2447 2419 
Q 2434 2741 2221 2922 
Q 2009 3103 1644 3103 
Q 1281 3103 1095 2975 
Q 909 2847 909 2591 
Q 909 2381 1050 2254 
Q 1191 2128 1613 1997 
L 2069 1856 
Q 2541 1709 2748 1489 
Q 2956 1269 2956 922 
Q 2956 450 2595 179 
Q 2234 -91 1600 -91 
Q 1278 -91 972 -22 
Q 666 47 359 184 
z
" transform="scale(0.015625)"/>
      </defs>
      <use xlink:href="#DejaVuSerif-dc"/>
      <use xlink:href="#DejaVuSerif-62" x="84.277344"/>
      <use xlink:href="#DejaVuSerif-65" x="148.291016"/>
      <use xlink:href="#DejaVuSerif-72" x="207.470703"/>
      <use xlink:href="#DejaVuSerif-67" x="255.273438"/>
      <use xlink:href="#DejaVuSerif-61" x="319.287109"/>
      <use xlink:href="#DejaVuSerif-6e" x="378.90625"/>
      <use xlink:href="#DejaVuSerif-67" x="443.310547"/>
      <use xlink:href="#DejaVuSerif-73" x="507.324219"/>
      <use xlink:href="#DejaVuSerif-74" x="558.642578"/>
      <use xlink:href="#DejaVuSerif-61" x="598.828125"/>
      <use xlink:href="#DejaVuSerif-67" x="658.447266"/>
      <use xlink:href="#DejaVuSerif-20" x="722.460938"/>
      <use xlink:href="#DejaVuSerif-31" x="754.248047"/>
     </g>
    </g>
    <g id="line2d_23">
     <path d="M 260.728281 96.845449 
L 271.728281 96.845449 
L 282.728281 96.845449 
" style="fill: none; stroke-dasharray: 15,4.5; stroke-dashoffset: 7.5; stroke: #8768b4; stroke-width: 1.5"/>
    </g>
    <g id="text_16">
     <!-- Sommertag -->
     <g transform="translate(291.528281 100.695449)scale(0.11 -0.11)">
      <defs>
       <path id="DejaVuSerif-53" d="M 594 225 
L 594 1288 
L 953 1284 
Q 969 753 1261 498 
Q 1553 244 2150 244 
Q 2706 244 2998 464 
Q 3291 684 3291 1106 
Q 3291 1444 3114 1625 
Q 2938 1806 2369 1978 
L 1753 2163 
Q 1084 2366 811 2669 
Q 538 2972 538 3500 
Q 538 4094 959 4422 
Q 1381 4750 2144 4750 
Q 2469 4750 2856 4679 
Q 3244 4609 3681 4475 
L 3681 3481 
L 3328 3481 
Q 3275 3975 2998 4195 
Q 2722 4416 2156 4416 
Q 1663 4416 1405 4214 
Q 1147 4013 1147 3628 
Q 1147 3294 1340 3103 
Q 1534 2913 2163 2725 
L 2741 2553 
Q 3375 2363 3645 2067 
Q 3916 1772 3916 1275 
Q 3916 597 3481 253 
Q 3047 -91 2188 -91 
Q 1803 -91 1404 -12 
Q 1006 66 594 225 
z
" transform="scale(0.015625)"/>
       <path id="DejaVuSerif-6f" d="M 1925 219 
Q 2388 219 2623 584 
Q 2859 950 2859 1663 
Q 2859 2375 2623 2739 
Q 2388 3103 1925 3103 
Q 1463 3103 1227 2739 
Q 991 2375 991 1663 
Q 991 950 1228 584 
Q 1466 219 1925 219 
z
M 1925 -91 
Q 1200 -91 759 389 
Q 319 869 319 1663 
Q 319 2456 758 2934 
Q 1197 3413 1925 3413 
Q 2653 3413 3092 2934 
Q 3531 2456 3531 1663 
Q 3531 869 3092 389 
Q 2653 -91 1925 -91 
z
" transform="scale(0.015625)"/>
      </defs>
      <use xlink:href="#DejaVuSerif-53"/>
      <use xlink:href="#DejaVuSerif-6f" x="68.505859"/>
      <use xlink:href="#DejaVuSerif-6d" x="128.710938"/>
      <use xlink:href="#DejaVuSerif-6d" x="223.535156"/>
      <use xlink:href="#DejaVuSerif-65" x="318.359375"/>
      <use xlink:href="#DejaVuSerif-72" x="377.539062"/>
      <use xlink:href="#DejaVuSerif-74" x="425.341797"/>
      <use xlink:href="#DejaVuSerif-61" x="465.527344"/>
      <use xlink:href="#DejaVuSerif-67" x="525.146484"/>
     </g>
    </g>
    <g id="line2d_24">
     <path d="M 260.728281 113.147793 
L 271.728281 113.147793 
L 282.728281 113.147793 
" style="fill: none; stroke-dasharray: 4.5,1.5,3,1.5,3,1.5; stroke-dashoffset: 1.5; stroke: #b45955; stroke-width: 1.5"/>
    </g>
    <g id="text_17">
     <!-- Hochsommertag -->
     <g transform="translate(291.528281 116.997793)scale(0.11 -0.11)">
      <defs>
       <path id="DejaVuSerif-48" d="M 353 0 
L 353 331 
L 947 331 
L 947 4331 
L 353 4331 
L 353 4666 
L 2175 4666 
L 2175 4331 
L 1581 4331 
L 1581 2719 
L 4000 2719 
L 4000 4331 
L 3406 4331 
L 3406 4666 
L 5228 4666 
L 5228 4331 
L 4634 4331 
L 4634 331 
L 5228 331 
L 5228 0 
L 3406 0 
L 3406 331 
L 4000 331 
L 4000 2338 
L 1581 2338 
L 1581 331 
L 2175 331 
L 2175 0 
L 353 0 
z
" transform="scale(0.015625)"/>
       <path id="DejaVuSerif-63" d="M 3291 997 
Q 3169 466 2822 187 
Q 2475 -91 1925 -91 
Q 1200 -91 759 389 
Q 319 869 319 1663 
Q 319 2459 759 2936 
Q 1200 3413 1925 3413 
Q 2241 3413 2553 3339 
Q 2866 3266 3181 3116 
L 3181 2266 
L 2847 2266 
Q 2781 2703 2561 2903 
Q 2341 3103 1931 3103 
Q 1466 3103 1228 2742 
Q 991 2381 991 1663 
Q 991 944 1227 581 
Q 1463 219 1931 219 
Q 2303 219 2525 412 
Q 2747 606 2828 997 
L 3291 997 
z
" transform="scale(0.015625)"/>
       <path id="DejaVuSerif-68" d="M 263 0 
L 263 331 
L 781 331 
L 781 4531 
L 231 4531 
L 231 4863 
L 1356 4863 
L 1356 2731 
Q 1516 3069 1770 3241 
Q 2025 3413 2363 3413 
Q 2913 3413 3172 3097 
Q 3431 2781 3431 2113 
L 3431 331 
L 3944 331 
L 3944 0 
L 2356 0 
L 2356 331 
L 2853 331 
L 2853 1931 
Q 2853 2541 2704 2764 
Q 2556 2988 2175 2988 
Q 1775 2988 1565 2697 
Q 1356 2406 1356 1850 
L 1356 331 
L 1856 331 
L 1856 0 
L 263 0 
z
" transform="scale(0.015625)"/>
      </defs>
      <use xlink:href="#DejaVuSerif-48"/>
      <use xlink:href="#DejaVuSerif-6f" x="87.207031"/>
      <use xlink:href="#DejaVuSerif-63" x="147.412109"/>
      <use xlink:href="#DejaVuSerif-68" x="203.417969"/>
      <use xlink:href="#DejaVuSerif-73" x="267.822266"/>
      <use xlink:href="#DejaVuSerif-6f" x="319.140625"/>
      <use xlink:href="#DejaVuSerif-6d" x="379.345703"/>
      <use xlink:href="#DejaVuSerif-6d" x="474.169922"/>
      <use xlink:href="#DejaVuSerif-65" x="568.994141"/>
      <use xlink:href="#DejaVuSerif-72" x="628.173828"/>
      <use xlink:href="#DejaVuSerif-74" x="675.976562"/>
      <use xlink:href="#DejaVuSerif-61" x="716.162109"/>
      <use xlink:href="#DejaVuSerif-67" x="775.78125"/>
     </g>
    </g>
    <g id="line2d_25">
     <path d="M 260.728281 131.187793 
L 271.728281 131.187793 
L 282.728281 131.187793 
" style="fill: none; stroke-dasharray: 4.5,7.5,1.5,7.5,1.5,7.5; stroke-dashoffset: 0; stroke: #cb74f4; stroke-width: 1.5"/>
    </g>
    <g id="text_18">
     <!-- Übergangstag 2 -->
     <g transform="translate(291.528281 135.037793)scale(0.11 -0.11)">
      <use xlink:href="#DejaVuSerif-dc"/>
      <use xlink:href="#DejaVuSerif-62" x="84.277344"/>
      <use xlink:href="#DejaVuSerif-65" x="148.291016"/>
      <use xlink:href="#DejaVuSerif-72" x="207.470703"/>
      <use xlink:href="#DejaVuSerif-67" x="255.273438"/>
      <use xlink:href="#DejaVuSerif-61" x="319.287109"/>
      <use xlink:href="#DejaVuSerif-6e" x="378.90625"/>
      <use xlink:href="#DejaVuSerif-67" x="443.310547"/>
      <use xlink:href="#DejaVuSerif-73" x="507.324219"/>
      <use xlink:href="#DejaVuSerif-74" x="558.642578"/>
      <use xlink:href="#DejaVuSerif-61" x="598.828125"/>
      <use xlink:href="#DejaVuSerif-67" x="658.447266"/>
      <use xlink:href="#DejaVuSerif-20" x="722.460938"/>
      <use xlink:href="#DejaVuSerif-32" x="754.248047"/>
     </g>
    </g>
    <g id="line2d_26">
     <path d="M 260.728281 149.227793 
L 271.728281 149.227793 
L 282.728281 149.227793 
" style="fill: none; stroke-dasharray: 7.5,7.5; stroke-dashoffset: 0; stroke: #808080; stroke-width: 1.5"/>
    </g>
    <g id="text_19">
     <!-- bewölkter Übergangstag -->
     <g transform="translate(291.528281 153.077793)scale(0.11 -0.11)">
      <use xlink:href="#DejaVuSerif-62"/>
      <use xlink:href="#DejaVuSerif-65" x="64.013672"/>
      <use xlink:href="#DejaVuSerif-77" x="123.193359"/>
      <use xlink:href="#DejaVuSerif-f6" x="208.789062"/>
      <use xlink:href="#DejaVuSerif-6c" x="268.994141"/>
      <use xlink:href="#DejaVuSerif-6b" x="300.976562"/>
      <use xlink:href="#DejaVuSerif-74" x="361.572266"/>
      <use xlink:href="#DejaVuSerif-65" x="401.757812"/>
      <use xlink:href="#DejaVuSerif-72" x="460.9375"/>
      <use xlink:href="#DejaVuSerif-20" x="508.740234"/>
      <use xlink:href="#DejaVuSerif-dc" x="540.527344"/>
      <use xlink:href="#DejaVuSerif-62" x="624.804688"/>
      <use xlink:href="#DejaVuSerif-65" x="688.818359"/>
      <use xlink:href="#DejaVuSerif-72" x="747.998047"/>
      <use xlink:href="#DejaVuSerif-67" x="795.800781"/>
      <use xlink:href="#DejaVuSerif-61" x="859.814453"/>
      <use xlink:href="#DejaVuSerif-6e" x="919.433594"/>
      <use xlink:href="#DejaVuSerif-67" x="983.837891"/>
      <use xlink:href="#DejaVuSerif-73" x="1047.851562"/>
      <use xlink:href="#DejaVuSerif-74" x="1099.169922"/>
      <use xlink:href="#DejaVuSerif-61" x="1139.355469"/>
      <use xlink:href="#DejaVuSerif-67" x="1198.974609"/>
     </g>
    </g>
   </g>
  </g>
  <g id="axes_2">
   <g id="patch_8">
    <path d="M 56.741094 351.671719 
L 249.728281 351.671719 
L 249.728281 197.188945 
L 56.741094 197.188945 
z
" style="fill: #ffffff"/>
   </g>
   <g id="matplotlib.axis_3">
    <g id="xtick_4">
     <g id="line2d_27">
      <g>
       <use xlink:href="#m4fe4c2dccc" x="65.513239" y="351.671719" style="stroke: #000000; stroke-width: 0.8"/>
      </g>
     </g>
     <g id="text_20">
      <!-- 0 -->
      <g transform="translate(62.013864 367.03)scale(0.11 -0.11)">
       <use xlink:href="#DejaVuSerif-30"/>
      </g>
     </g>
    </g>
    <g id="xtick_5">
     <g id="line2d_28">
      <g>
       <use xlink:href="#m4fe4c2dccc" x="139.383932" y="351.671719" style="stroke: #000000; stroke-width: 0.8"/>
      </g>
     </g>
     <g id="text_21">
      <!-- 10 -->
      <g transform="translate(132.385182 367.03)scale(0.11 -0.11)">
       <use xlink:href="#DejaVuSerif-31"/>
       <use xlink:href="#DejaVuSerif-30" x="63.623047"/>
      </g>
     </g>
    </g>
    <g id="xtick_6">
     <g id="line2d_29">
      <g>
       <use xlink:href="#m4fe4c2dccc" x="213.254626" y="351.671719" style="stroke: #000000; stroke-width: 0.8"/>
      </g>
     </g>
     <g id="text_22">
      <!-- 20 -->
      <g transform="translate(206.255876 367.03)scale(0.11 -0.11)">
       <use xlink:href="#DejaVuSerif-32"/>
       <use xlink:href="#DejaVuSerif-30" x="63.623047"/>
      </g>
     </g>
    </g>
    <g id="text_23">
     <!-- Tageszeit in h -->
     <g transform="translate(114.652187 381.675938)scale(0.11 -0.11)">
      <defs>
       <path id="DejaVuSerif-7a" d="M 256 0 
L 256 269 
L 2338 2988 
L 691 2988 
L 691 2413 
L 359 2413 
L 359 3322 
L 3078 3322 
L 3078 3053 
L 997 331 
L 2803 331 
L 2803 934 
L 3138 934 
L 3138 0 
L 256 0 
z
" transform="scale(0.015625)"/>
      </defs>
      <use xlink:href="#DejaVuSerif-54"/>
      <use xlink:href="#DejaVuSerif-61" x="58.949219"/>
      <use xlink:href="#DejaVuSerif-67" x="118.568359"/>
      <use xlink:href="#DejaVuSerif-65" x="182.582031"/>
      <use xlink:href="#DejaVuSerif-73" x="241.761719"/>
      <use xlink:href="#DejaVuSerif-7a" x="293.080078"/>
      <use xlink:href="#DejaVuSerif-65" x="345.765625"/>
      <use xlink:href="#DejaVuSerif-69" x="404.945312"/>
      <use xlink:href="#DejaVuSerif-74" x="436.927734"/>
      <use xlink:href="#DejaVuSerif-20" x="477.113281"/>
      <use xlink:href="#DejaVuSerif-69" x="508.900391"/>
      <use xlink:href="#DejaVuSerif-6e" x="540.882812"/>
      <use xlink:href="#DejaVuSerif-20" x="605.287109"/>
      <use xlink:href="#DejaVuSerif-68" x="637.074219"/>
     </g>
    </g>
   </g>
   <g id="matplotlib.axis_4">
    <g id="ytick_8">
     <g id="line2d_30">
      <g>
       <use xlink:href="#m3e428ec980" x="56.741094" y="347.991749" style="stroke: #000000; stroke-width: 0.8"/>
      </g>
     </g>
     <g id="text_24">
      <!-- −10 -->
      <g transform="translate(26.525938 352.17089)scale(0.11 -0.11)">
       <use xlink:href="#DejaVuSerif-2212"/>
       <use xlink:href="#DejaVuSerif-31" x="83.789062"/>
       <use xlink:href="#DejaVuSerif-30" x="147.412109"/>
      </g>
     </g>
    </g>
    <g id="ytick_9">
     <g id="line2d_31">
      <g>
       <use xlink:href="#m3e428ec980" x="56.741094" y="310.014766" style="stroke: #000000; stroke-width: 0.8"/>
      </g>
     </g>
     <g id="text_25">
      <!-- 0 -->
      <g transform="translate(42.742344 314.193906)scale(0.11 -0.11)">
       <use xlink:href="#DejaVuSerif-30"/>
      </g>
     </g>
    </g>
    <g id="ytick_10">
     <g id="line2d_32">
      <g>
       <use xlink:href="#m3e428ec980" x="56.741094" y="272.037782" style="stroke: #000000; stroke-width: 0.8"/>
      </g>
     </g>
     <g id="text_26">
      <!-- 10 -->
      <g transform="translate(35.743594 276.216923)scale(0.11 -0.11)">
       <use xlink:href="#DejaVuSerif-31"/>
       <use xlink:href="#DejaVuSerif-30" x="63.623047"/>
      </g>
     </g>
    </g>
    <g id="ytick_11">
     <g id="line2d_33">
      <g>
       <use xlink:href="#m3e428ec980" x="56.741094" y="234.060799" style="stroke: #000000; stroke-width: 0.8"/>
      </g>
     </g>
     <g id="text_27">
      <!-- 20 -->
      <g transform="translate(35.743594 238.239939)scale(0.11 -0.11)">
       <use xlink:href="#DejaVuSerif-32"/>
       <use xlink:href="#DejaVuSerif-30" x="63.623047"/>
      </g>
     </g>
    </g>
    <g id="text_28">
     <!-- Temperatur in °C -->
     <g transform="translate(20.238281 322.965254)rotate(-90)scale(0.11 -0.11)">
      <use xlink:href="#DejaVuSerif-54"/>
      <use xlink:href="#DejaVuSerif-65" x="58.949219"/>
      <use xlink:href="#DejaVuSerif-6d" x="118.128906"/>
      <use xlink:href="#DejaVuSerif-70" x="212.953125"/>
      <use xlink:href="#DejaVuSerif-65" x="276.966797"/>
      <use xlink:href="#DejaVuSerif-72" x="336.146484"/>
      <use xlink:href="#DejaVuSerif-61" x="383.949219"/>
      <use xlink:href="#DejaVuSerif-74" x="443.568359"/>
      <use xlink:href="#DejaVuSerif-75" x="483.753906"/>
      <use xlink:href="#DejaVuSerif-72" x="548.158203"/>
      <use xlink:href="#DejaVuSerif-20" x="595.960938"/>
      <use xlink:href="#DejaVuSerif-69" x="627.748047"/>
      <use xlink:href="#DejaVuSerif-6e" x="659.730469"/>
      <use xlink:href="#DejaVuSerif-20" x="724.134766"/>
      <use xlink:href="#DejaVuSerif-b0" x="755.921875"/>
      <use xlink:href="#DejaVuSerif-43" x="805.921875"/>
     </g>
    </g>
   </g>
   <g id="line2d_34">
    <path d="M 65.513239 337.016401 
L 67.360006 337.396171 
L 69.206773 337.77594 
L 71.053541 338.193687 
L 72.900308 338.573457 
L 74.747075 339.029181 
L 76.593843 339.522882 
L 78.44061 339.978606 
L 80.287377 340.472306 
L 82.134145 340.662191 
L 83.980912 340.852076 
L 85.827679 341.041961 
L 87.674447 341.231846 
L 89.521214 341.3078 
L 91.367981 341.421731 
L 93.214749 341.497685 
L 95.061516 341.611616 
L 96.908283 342.06734 
L 98.755051 342.56104 
L 100.601818 343.016764 
L 102.448586 343.510465 
L 104.295353 343.586419 
L 106.14212 343.70035 
L 107.988888 343.776304 
L 109.835655 343.890235 
L 111.682422 343.966189 
L 113.52919 344.08012 
L 115.375957 344.156074 
L 117.222724 344.270005 
L 119.069492 344.345959 
L 120.916259 344.45989 
L 122.763026 344.535844 
L 124.609794 344.649775 
L 126.456561 343.70035 
L 128.303328 342.750925 
L 130.150096 341.801501 
L 131.996863 340.852076 
L 133.84363 339.143112 
L 135.690398 337.396171 
L 137.537165 335.687206 
L 139.383932 333.978242 
L 141.2307 332.762979 
L 143.077467 331.509738 
L 144.924234 330.294475 
L 146.771002 329.041234 
L 148.617769 327.218339 
L 150.464536 325.433421 
L 152.311304 323.610526 
L 154.158071 321.825607 
L 156.004839 321.521792 
L 157.851606 321.255953 
L 159.698373 320.952137 
L 161.545141 320.686298 
L 163.391908 320.192597 
L 165.238675 319.736873 
L 167.085443 319.243173 
L 168.93221 318.749472 
L 170.778977 319.243173 
L 172.625745 319.736873 
L 174.472512 320.192597 
L 176.319279 320.686298 
L 178.166047 321.521792 
L 180.012814 322.395262 
L 181.859581 323.230756 
L 183.706349 324.104226 
L 185.553116 324.863766 
L 187.399883 325.623306 
L 189.246651 326.382845 
L 191.093418 327.142385 
L 192.940185 327.71204 
L 194.786953 328.281695 
L 196.63372 328.851349 
L 198.480487 329.421004 
L 200.327255 329.800774 
L 202.174022 330.180544 
L 204.020789 330.560314 
L 205.867557 330.940083 
L 207.714324 331.243899 
L 209.561092 331.509738 
L 211.407859 331.813554 
L 213.254626 332.079393 
L 215.101394 332.459163 
L 216.948161 332.838933 
L 218.794928 333.218702 
L 220.641696 333.598472 
L 222.488463 333.978242 
L 224.33523 334.358012 
L 226.181998 334.737782 
L 228.028765 335.117552 
L 229.875532 335.421368 
L 231.7223 335.687206 
L 233.569067 335.991022 
L 235.415834 336.256861 
L 237.262602 336.256861 
L 239.109369 336.256861 
L 240.956136 336.256861 
" clip-path="url(#p0d2e2548e5)" style="fill: none; stroke: #ec635c; stroke-width: 1.5; stroke-linecap: square"/>
   </g>
   <g id="line2d_35">
    <path d="M 65.513239 315.711313 
L 67.360006 316.470853 
L 69.206773 317.230392 
L 71.053541 317.989932 
L 72.900308 318.749472 
L 74.747075 319.357103 
L 76.593843 319.926758 
L 78.44061 320.496413 
L 80.287377 321.066068 
L 82.134145 321.142022 
L 83.980912 321.255953 
L 85.827679 321.331907 
L 87.674447 321.445838 
L 89.521214 320.952137 
L 91.367981 320.496413 
L 93.214749 320.002712 
L 95.061516 319.546988 
L 96.908283 319.053288 
L 98.755051 318.559587 
L 100.601818 318.103863 
L 102.448586 317.610162 
L 104.295353 317.724093 
L 106.14212 317.800047 
L 107.988888 317.913978 
L 109.835655 317.989932 
L 111.682422 317.800047 
L 113.52919 317.610162 
L 115.375957 317.420277 
L 117.222724 317.230392 
L 119.069492 316.394899 
L 120.916259 315.521428 
L 122.763026 314.685935 
L 124.609794 313.812464 
L 126.456561 312.673154 
L 128.303328 311.533845 
L 130.150096 310.394535 
L 131.996863 309.255226 
L 133.84363 309.065341 
L 135.690398 308.875456 
L 137.537165 308.685571 
L 139.383932 308.495686 
L 141.2307 308.381755 
L 143.077467 308.305801 
L 144.924234 308.19187 
L 146.771002 308.115916 
L 148.617769 307.242446 
L 150.464536 306.406952 
L 152.311304 305.533482 
L 154.158071 304.697988 
L 156.004839 304.204287 
L 157.851606 303.748563 
L 159.698373 303.254862 
L 161.545141 302.799139 
L 163.391908 302.419369 
L 165.238675 302.039599 
L 167.085443 301.659829 
L 168.93221 301.280059 
L 170.778977 301.356013 
L 172.625745 301.469944 
L 174.472512 301.545898 
L 176.319279 301.659829 
L 178.166047 303.254862 
L 180.012814 304.887873 
L 181.859581 306.482906 
L 183.706349 308.115916 
L 185.553116 307.812101 
L 187.399883 307.546262 
L 189.246651 307.242446 
L 191.093418 306.976607 
L 192.940185 306.862676 
L 194.786953 306.786722 
L 196.63372 306.672791 
L 198.480487 306.596837 
L 200.327255 307.052561 
L 202.174022 307.546262 
L 204.020789 308.001985 
L 205.867557 308.495686 
L 207.714324 309.33118 
L 209.561092 310.20465 
L 211.407859 311.078121 
L 213.254626 311.913615 
L 215.101394 312.293385 
L 216.948161 312.673154 
L 218.794928 313.052924 
L 220.641696 313.432694 
L 222.488463 313.812464 
L 224.33523 314.192234 
L 226.181998 314.572004 
L 228.028765 314.951773 
L 229.875532 315.331543 
L 231.7223 315.711313 
L 233.569067 316.091083 
L 235.415834 316.470853 
L 237.262602 316.470853 
L 239.109369 316.470853 
L 240.956136 316.470853 
" clip-path="url(#p0d2e2548e5)" style="fill: none; stroke-dasharray: 5.55,2.4; stroke-dashoffset: 0; stroke: #4b81c4; stroke-width: 1.5"/>
   </g>
   <g id="line2d_36">
    <path d="M 65.513239 308.495686 
L 67.360006 308.381755 
L 69.206773 308.305801 
L 71.053541 308.19187 
L 72.900308 308.115916 
L 74.747075 308.19187 
L 76.593843 308.305801 
L 78.44061 308.381755 
L 80.287377 308.495686 
L 82.134145 308.685571 
L 83.980912 308.875456 
L 85.827679 309.065341 
L 87.674447 309.255226 
L 89.521214 309.255226 
L 91.367981 309.255226 
L 93.214749 309.255226 
L 95.061516 309.255226 
L 96.908283 309.445111 
L 98.755051 309.634996 
L 100.601818 309.824881 
L 102.448586 310.014766 
L 104.295353 309.824881 
L 106.14212 309.634996 
L 107.988888 309.445111 
L 109.835655 309.255226 
L 111.682422 309.141295 
L 113.52919 309.065341 
L 115.375957 308.95141 
L 117.222724 308.875456 
L 119.069492 308.685571 
L 120.916259 308.495686 
L 122.763026 308.305801 
L 124.609794 308.115916 
L 126.456561 308.115916 
L 128.303328 308.115916 
L 130.150096 308.115916 
L 131.996863 308.115916 
L 133.84363 308.115916 
L 135.690398 308.115916 
L 137.537165 308.115916 
L 139.383932 308.115916 
L 141.2307 308.115916 
L 143.077467 308.115916 
L 144.924234 308.115916 
L 146.771002 308.115916 
L 148.617769 308.115916 
L 150.464536 308.115916 
L 152.311304 308.115916 
L 154.158071 308.115916 
L 156.004839 308.19187 
L 157.851606 308.305801 
L 159.698373 308.381755 
L 161.545141 308.495686 
L 163.391908 308.381755 
L 165.238675 308.305801 
L 167.085443 308.19187 
L 168.93221 308.115916 
L 170.778977 308.001985 
L 172.625745 307.926031 
L 174.472512 307.812101 
L 176.319279 307.736147 
L 178.166047 307.812101 
L 180.012814 307.926031 
L 181.859581 308.001985 
L 183.706349 308.115916 
L 185.553116 308.305801 
L 187.399883 308.495686 
L 189.246651 308.685571 
L 191.093418 308.875456 
L 192.940185 308.95141 
L 194.786953 309.065341 
L 196.63372 309.141295 
L 198.480487 309.255226 
L 200.327255 309.521065 
L 202.174022 309.824881 
L 204.020789 310.128697 
L 205.867557 310.394535 
L 207.714324 310.014766 
L 209.561092 309.634996 
L 211.407859 309.255226 
L 213.254626 308.875456 
L 215.101394 308.685571 
L 216.948161 308.495686 
L 218.794928 308.305801 
L 220.641696 308.115916 
L 222.488463 308.115916 
L 224.33523 308.115916 
L 226.181998 308.115916 
L 228.028765 308.115916 
L 229.875532 308.305801 
L 231.7223 308.495686 
L 233.569067 308.685571 
L 235.415834 308.875456 
L 237.262602 308.875456 
L 239.109369 308.875456 
L 240.956136 308.875456 
" clip-path="url(#p0d2e2548e5)" style="fill: none; stroke-dasharray: 9.6,2.4,1.5,2.4; stroke-dashoffset: 0; stroke: #f49961; stroke-width: 1.5"/>
   </g>
   <g id="line2d_37">
    <path d="M 65.513239 278.797685 
L 67.360006 279.671156 
L 69.206773 280.506649 
L 71.053541 281.38012 
L 72.900308 282.253591 
L 74.747075 282.899199 
L 76.593843 283.582785 
L 78.44061 284.228394 
L 80.287377 284.911979 
L 82.134145 285.177818 
L 83.980912 285.481634 
L 85.827679 285.747473 
L 87.674447 286.051289 
L 89.521214 286.620944 
L 91.367981 287.190598 
L 93.214749 287.760253 
L 95.061516 288.329908 
L 96.908283 288.595747 
L 98.755051 288.899563 
L 100.601818 289.165402 
L 102.448586 289.469217 
L 104.295353 287.190598 
L 106.14212 284.911979 
L 107.988888 282.63336 
L 109.835655 280.316764 
L 111.682422 276.898836 
L 113.52919 273.480907 
L 115.375957 270.062979 
L 117.222724 266.64505 
L 119.069492 264.366431 
L 120.916259 262.049835 
L 122.763026 259.771216 
L 124.609794 257.492597 
L 126.456561 256.353288 
L 128.303328 255.213978 
L 130.150096 254.074669 
L 131.996863 252.935359 
L 133.84363 251.606165 
L 135.690398 250.276971 
L 137.537165 248.947776 
L 139.383932 247.618582 
L 141.2307 247.048927 
L 143.077467 246.479272 
L 144.924234 245.909617 
L 146.771002 245.339963 
L 148.617769 245.605802 
L 150.464536 245.909617 
L 152.311304 246.175456 
L 154.158071 246.479272 
L 156.004839 245.150078 
L 157.851606 243.782906 
L 159.698373 242.453712 
L 161.545141 241.124518 
L 163.391908 241.124518 
L 165.238675 241.124518 
L 167.085443 241.124518 
L 168.93221 241.124518 
L 170.778977 241.238448 
L 172.625745 241.314402 
L 174.472512 241.428333 
L 176.319279 241.504287 
L 178.166047 242.073942 
L 180.012814 242.643597 
L 181.859581 243.213252 
L 183.706349 243.782906 
L 185.553116 244.542446 
L 187.399883 245.339963 
L 189.246651 246.099502 
L 191.093418 246.859042 
L 192.940185 247.998352 
L 194.786953 249.137661 
L 196.63372 250.276971 
L 198.480487 251.41628 
L 200.327255 253.580968 
L 202.174022 255.783633 
L 204.020789 257.986298 
L 205.867557 260.150986 
L 207.714324 261.100411 
L 209.561092 262.049835 
L 211.407859 262.99926 
L 213.254626 263.986662 
L 215.101394 264.176546 
L 216.948161 264.366431 
L 218.794928 264.556316 
L 220.641696 264.746201 
L 222.488463 265.201925 
L 224.33523 265.695626 
L 226.181998 266.15135 
L 228.028765 266.64505 
L 229.875532 267.40459 
L 231.7223 268.16413 
L 233.569067 268.923669 
L 235.415834 269.683209 
L 237.262602 269.683209 
L 239.109369 269.683209 
L 240.956136 269.683209 
" clip-path="url(#p0d2e2548e5)" style="fill: none; stroke-dasharray: 1.5,2.475; stroke-dashoffset: 0; stroke: #808080; stroke-width: 1.5"/>
   </g>
   <g id="line2d_38">
    <path d="M 65.513239 260.150986 
L 67.360006 260.454802 
L 69.206773 260.720641 
L 71.053541 261.024457 
L 72.900308 261.290296 
L 74.747075 261.783997 
L 76.593843 262.23972 
L 78.44061 262.733421 
L 80.287377 263.189145 
L 82.134145 263.303076 
L 83.980912 263.37903 
L 85.827679 263.492961 
L 87.674447 263.568915 
L 89.521214 264.442385 
L 91.367981 265.315856 
L 93.214749 266.15135 
L 95.061516 267.02482 
L 96.908283 267.40459 
L 98.755051 267.78436 
L 100.601818 268.16413 
L 102.448586 268.5439 
L 104.295353 267.670429 
L 106.14212 266.834935 
L 107.988888 265.961465 
L 109.835655 265.125971 
L 111.682422 262.049835 
L 113.52919 259.011677 
L 115.375957 255.973518 
L 117.222724 252.935359 
L 119.069492 249.327546 
L 120.916259 245.719733 
L 122.763026 242.073942 
L 124.609794 238.466129 
L 126.456561 236.18751 
L 128.303328 233.908891 
L 130.150096 231.630272 
L 131.996863 229.351653 
L 133.84363 228.022458 
L 135.690398 226.693264 
L 137.537165 225.326092 
L 139.383932 223.996898 
L 141.2307 222.401865 
L 143.077467 220.768854 
L 144.924234 219.173821 
L 146.771002 217.540811 
L 148.617769 216.66734 
L 150.464536 215.831847 
L 152.311304 214.958376 
L 154.158071 214.122882 
L 156.004839 213.553227 
L 157.851606 212.983573 
L 159.698373 212.413918 
L 161.545141 211.844263 
L 163.391908 211.654378 
L 165.238675 211.464493 
L 167.085443 211.274608 
L 168.93221 211.084724 
L 170.778977 211.350562 
L 172.625745 211.654378 
L 174.472512 211.920217 
L 176.319279 212.224033 
L 178.166047 213.059527 
L 180.012814 213.932997 
L 181.859581 214.768491 
L 183.706349 215.641962 
L 185.553116 218.30035 
L 187.399883 220.958739 
L 189.246651 223.617128 
L 191.093418 226.275517 
L 192.940185 229.237722 
L 194.786953 232.199926 
L 196.63372 235.124154 
L 198.480487 238.086359 
L 200.327255 239.605438 
L 202.174022 241.124518 
L 204.020789 242.643597 
L 205.867557 244.162676 
L 207.714324 244.846262 
L 209.561092 245.529848 
L 211.407859 246.175456 
L 213.254626 246.859042 
L 215.101394 247.694536 
L 216.948161 248.568006 
L 218.794928 249.4035 
L 220.641696 250.276971 
L 222.488463 251.226395 
L 224.33523 252.17582 
L 226.181998 253.125244 
L 228.028765 254.074669 
L 229.875532 254.454439 
L 231.7223 254.834209 
L 233.569067 255.213978 
L 235.415834 255.593748 
L 237.262602 255.593748 
L 239.109369 255.593748 
L 240.956136 255.593748 
" clip-path="url(#p0d2e2548e5)" style="fill: none; stroke-dasharray: 15,4.5; stroke-dashoffset: 7.5; stroke: #8768b4; stroke-width: 1.5"/>
   </g>
   <g id="line2d_39">
    <path d="M 65.513239 246.859042 
L 67.360006 247.884421 
L 69.206773 248.947776 
L 71.053541 249.973155 
L 72.900308 251.03651 
L 74.747075 251.606165 
L 76.593843 252.17582 
L 78.44061 252.745474 
L 80.287377 253.315129 
L 82.134145 253.884784 
L 83.980912 254.454439 
L 85.827679 255.024093 
L 87.674447 255.593748 
L 89.521214 255.593748 
L 91.367981 255.593748 
L 93.214749 255.593748 
L 95.061516 255.593748 
L 96.908283 254.074669 
L 98.755051 252.55559 
L 100.601818 251.03651 
L 102.448586 249.517431 
L 104.295353 248.454075 
L 106.14212 247.428697 
L 107.988888 246.365341 
L 109.835655 245.339963 
L 111.682422 243.403137 
L 113.52919 241.504287 
L 115.375957 239.605438 
L 117.222724 237.706589 
L 119.069492 235.314039 
L 120.916259 232.959466 
L 122.763026 230.566916 
L 124.609794 228.212343 
L 126.456561 226.959103 
L 128.303328 225.705862 
L 130.150096 224.490599 
L 131.996863 223.237358 
L 133.84363 222.21198 
L 135.690398 221.148624 
L 137.537165 220.123246 
L 139.383932 219.05989 
L 141.2307 218.034512 
L 143.077467 216.971156 
L 144.924234 215.9078 
L 146.771002 214.882422 
L 148.617769 213.629181 
L 150.464536 212.413918 
L 152.311304 211.160678 
L 154.158071 209.945414 
L 156.004839 209.565644 
L 157.851606 209.185874 
L 159.698373 208.806105 
L 161.545141 208.426335 
L 163.391908 207.552864 
L 165.238675 206.679393 
L 167.085443 205.8439 
L 168.93221 204.970429 
L 170.778977 204.780544 
L 172.625745 204.590659 
L 174.472512 204.400774 
L 176.319279 204.21089 
L 178.166047 204.21089 
L 180.012814 204.21089 
L 181.859581 204.21089 
L 183.706349 204.21089 
L 185.553116 204.21089 
L 187.399883 204.21089 
L 189.246651 204.21089 
L 191.093418 204.21089 
L 192.940185 205.350199 
L 194.786953 206.489509 
L 196.63372 207.628818 
L 198.480487 208.806105 
L 200.327255 211.350562 
L 202.174022 213.932997 
L 204.020789 216.477455 
L 205.867557 219.05989 
L 207.714324 222.287934 
L 209.561092 225.515977 
L 211.407859 228.781998 
L 213.254626 232.010041 
L 215.101394 233.529121 
L 216.948161 235.0482 
L 218.794928 236.567279 
L 220.641696 238.086359 
L 222.488463 239.985208 
L 224.33523 241.884057 
L 226.181998 243.782906 
L 228.028765 245.719733 
L 229.875532 246.555226 
L 231.7223 247.428697 
L 233.569067 248.26419 
L 235.415834 249.137661 
L 237.262602 249.137661 
L 239.109369 249.137661 
L 240.956136 249.137661 
" clip-path="url(#p0d2e2548e5)" style="fill: none; stroke-dasharray: 4.5,1.5,3,1.5,3,1.5; stroke-dashoffset: 1.5; stroke: #b45955; stroke-width: 1.5"/>
   </g>
   <g id="line2d_40">
    <path d="M 65.513239 265.885511 
L 67.360006 266.15135 
L 69.206773 266.455165 
L 71.053541 266.721004 
L 72.900308 267.02482 
L 74.747075 266.910889 
L 76.593843 266.834935 
L 78.44061 266.721004 
L 80.287377 266.64505 
L 82.134145 266.64505 
L 83.980912 266.64505 
L 85.827679 266.64505 
L 87.674447 266.64505 
L 89.521214 266.834935 
L 91.367981 267.02482 
L 93.214749 267.214705 
L 95.061516 267.40459 
L 96.908283 267.594475 
L 98.755051 267.78436 
L 100.601818 267.974245 
L 102.448586 268.16413 
L 104.295353 267.670429 
L 106.14212 267.214705 
L 107.988888 266.721004 
L 109.835655 266.265281 
L 111.682422 265.77158 
L 113.52919 265.315856 
L 115.375957 264.822155 
L 117.222724 264.366431 
L 119.069492 264.062616 
L 120.916259 263.796777 
L 122.763026 263.492961 
L 124.609794 263.189145 
L 126.456561 262.733421 
L 128.303328 262.23972 
L 130.150096 261.783997 
L 131.996863 261.290296 
L 133.84363 260.720641 
L 135.690398 260.150986 
L 137.537165 259.581331 
L 139.383932 259.011677 
L 141.2307 257.796413 
L 143.077467 256.543173 
L 144.924234 255.327909 
L 146.771002 254.074669 
L 148.617769 252.821428 
L 150.464536 251.606165 
L 152.311304 250.352924 
L 154.158071 249.137661 
L 156.004839 248.64396 
L 157.851606 248.188236 
L 159.698373 247.694536 
L 161.545141 247.238812 
L 163.391908 249.137661 
L 165.238675 251.03651 
L 167.085443 252.935359 
L 168.93221 254.834209 
L 170.778977 255.024093 
L 172.625745 255.213978 
L 174.472512 255.403863 
L 176.319279 255.593748 
L 178.166047 255.783633 
L 180.012814 255.973518 
L 181.859581 256.163403 
L 183.706349 256.353288 
L 185.553116 255.973518 
L 187.399883 255.593748 
L 189.246651 255.213978 
L 191.093418 254.834209 
L 192.940185 254.454439 
L 194.786953 254.074669 
L 196.63372 253.694899 
L 198.480487 253.315129 
L 200.327255 253.770853 
L 202.174022 254.264554 
L 204.020789 254.758255 
L 205.867557 255.213978 
L 207.714324 255.213978 
L 209.561092 255.213978 
L 211.407859 255.213978 
L 213.254626 255.213978 
L 215.101394 255.593748 
L 216.948161 255.973518 
L 218.794928 256.353288 
L 220.641696 256.733058 
L 222.488463 256.846989 
L 224.33523 256.922943 
L 226.181998 257.036874 
L 228.028765 257.112828 
L 229.875532 257.112828 
L 231.7223 257.112828 
L 233.569067 257.112828 
L 235.415834 257.112828 
L 237.262602 257.112828 
L 239.109369 257.112828 
L 240.956136 257.112828 
" clip-path="url(#p0d2e2548e5)" style="fill: none; stroke-dasharray: 4.5,7.5,1.5,7.5,1.5,7.5; stroke-dashoffset: 0; stroke: #cb74f4; stroke-width: 1.5"/>
   </g>
   <g id="line2d_41">
    <path d="M 65.513239 293.266916 
L 67.360006 293.077031 
L 69.206773 292.887146 
L 71.053541 292.697261 
L 72.900308 292.507376 
L 74.747075 292.431422 
L 76.593843 292.317491 
L 78.44061 292.241537 
L 80.287377 292.127606 
L 82.134145 292.127606 
L 83.980912 292.127606 
L 85.827679 292.127606 
L 87.674447 292.127606 
L 89.521214 291.861767 
L 91.367981 291.557952 
L 93.214749 291.254136 
L 95.061516 290.988297 
L 96.908283 290.304711 
L 98.755051 289.659102 
L 100.601818 288.975517 
L 102.448586 288.329908 
L 104.295353 288.519793 
L 106.14212 288.709678 
L 107.988888 288.899563 
L 109.835655 289.089448 
L 111.682422 288.405862 
L 113.52919 287.760253 
L 115.375957 287.076668 
L 117.222724 286.431059 
L 119.069492 286.431059 
L 120.916259 286.431059 
L 122.763026 286.431059 
L 124.609794 286.431059 
L 126.456561 286.317128 
L 128.303328 286.241174 
L 130.150096 286.127243 
L 131.996863 286.051289 
L 133.84363 285.367703 
L 135.690398 284.722095 
L 137.537165 284.038509 
L 139.383932 283.3929 
L 141.2307 282.63336 
L 143.077467 281.835844 
L 144.924234 281.076304 
L 146.771002 280.316764 
L 148.617769 278.531846 
L 150.464536 276.708951 
L 152.311304 274.924033 
L 154.158071 273.101138 
L 156.004839 272.721368 
L 157.851606 272.341598 
L 159.698373 271.961828 
L 161.545141 271.582058 
L 163.391908 271.582058 
L 165.238675 271.582058 
L 167.085443 271.582058 
L 168.93221 271.582058 
L 170.778977 272.227667 
L 172.625745 272.911253 
L 174.472512 273.594838 
L 176.319279 274.240447 
L 178.166047 274.810102 
L 180.012814 275.379757 
L 181.859581 275.949411 
L 183.706349 276.519066 
L 185.553116 277.392537 
L 187.399883 278.22803 
L 189.246651 279.101501 
L 191.093418 279.936995 
L 192.940185 280.696534 
L 194.786953 281.456074 
L 196.63372 282.253591 
L 198.480487 283.01313 
L 200.327255 283.089084 
L 202.174022 283.203015 
L 204.020789 283.278969 
L 205.867557 283.3929 
L 207.714324 283.278969 
L 209.561092 283.203015 
L 211.407859 283.089084 
L 213.254626 283.01313 
L 215.101394 282.329545 
L 216.948161 281.645959 
L 218.794928 281.00035 
L 220.641696 280.316764 
L 222.488463 280.430695 
L 224.33523 280.506649 
L 226.181998 280.62058 
L 228.028765 280.696534 
L 229.875532 281.076304 
L 231.7223 281.456074 
L 233.569067 281.835844 
L 235.415834 282.253591 
L 237.262602 282.253591 
L 239.109369 282.253591 
L 240.956136 282.253591 
" clip-path="url(#p0d2e2548e5)" style="fill: none; stroke-dasharray: 7.5,7.5; stroke-dashoffset: 0; stroke: #808080; stroke-width: 1.5"/>
   </g>
   <g id="patch_9">
    <path d="M 56.741094 351.671719 
L 56.741094 197.188945 
" style="fill: none; stroke: #000000; stroke-width: 0.5; stroke-linejoin: miter; stroke-linecap: square"/>
   </g>
   <g id="patch_10">
    <path d="M 249.728281 351.671719 
L 249.728281 197.188945 
" style="fill: none; stroke: #000000; stroke-width: 0.5; stroke-linejoin: miter; stroke-linecap: square"/>
   </g>
   <g id="patch_11">
    <path d="M 56.741094 351.671719 
L 249.728281 351.671719 
" style="fill: none; stroke: #000000; stroke-width: 0.5; stroke-linejoin: miter; stroke-linecap: square"/>
   </g>
   <g id="patch_12">
    <path d="M 56.741094 197.188945 
L 249.728281 197.188945 
" style="fill: none; stroke: #000000; stroke-width: 0.5; stroke-linejoin: miter; stroke-linecap: square"/>
   </g>
  </g>
 </g>
 <defs>
  <clipPath id="p2d26e4ed4e">
   <rect x="56.741094" y="13.180234" width="192.987187" height="154.482773"/>
  </clipPath>
  <clipPath id="p0d2e2548e5">
   <rect x="56.741094" y="197.188945" width="192.987187" height="154.482773"/>
  </clipPath>
 </defs>
</svg>
