<?xml version="1.0" encoding="utf-8" standalone="no"?>
<!DOCTYPE svg PUBLIC "-//W3C//DTD SVG 1.1//EN"
  "http://www.w3.org/Graphics/SVG/1.1/DTD/svg11.dtd">
<svg xmlns:xlink="http://www.w3.org/1999/xlink" width="447.84pt" height="208.8pt" viewBox="0 0 447.84 208.8" xmlns="http://www.w3.org/2000/svg" version="1.1">
 <metadata>
  <rdf:RDF xmlns:dc="http://purl.org/dc/elements/1.1/" xmlns:cc="http://creativecommons.org/ns#" xmlns:rdf="http://www.w3.org/1999/02/22-rdf-syntax-ns#">
   <cc:Work>
    <dc:type rdf:resource="http://purl.org/dc/dcmitype/StillImage"/>
    <dc:date>2023-05-14T20:39:31.631723</dc:date>
    <dc:format>image/svg+xml</dc:format>
    <dc:creator>
     <cc:Agent>
      <dc:title>Matplotlib v3.5.3, https://matplotlib.org/</dc:title>
     </cc:Agent>
    </dc:creator>
   </cc:Work>
  </rdf:RDF>
 </metadata>
 <defs>
  <style type="text/css">*{stroke-linejoin: round; stroke-linecap: butt}</style>
 </defs>
 <g id="figure_1">
  <g id="patch_1">
   <path d="M 0 208.8 
L 447.84 208.8 
L 447.84 0 
L 0 0 
z
" style="fill: #ffffff"/>
  </g>
  <g id="axes_1">
   <g id="patch_2">
    <path d="M 49.742344 164.471719 
L 249.728281 164.471719 
L 249.728281 11.88 
L 49.742344 11.88 
z
" style="fill: #ffffff"/>
   </g>
   <g id="matplotlib.axis_1">
    <g id="xtick_1">
     <g id="line2d_1">
      <defs>
       <path id="m7f4bd2ad7b" d="M 0 0 
L 0 3.5 
" style="stroke: #000000; stroke-width: 0.8"/>
      </defs>
      <g>
       <use xlink:href="#m7f4bd2ad7b" x="58.832614" y="164.471719" style="stroke: #000000; stroke-width: 0.8"/>
      </g>
     </g>
     <g id="text_1">
      <!-- 0 -->
      <g transform="translate(55.333239 179.83)scale(0.11 -0.11)">
       <defs>
        <path id="DejaVuSerif-30" d="M 2034 219 
Q 2513 219 2750 744 
Q 2988 1269 2988 2328 
Q 2988 3391 2750 3916 
Q 2513 4441 2034 4441 
Q 1556 4441 1318 3916 
Q 1081 3391 1081 2328 
Q 1081 1269 1318 744 
Q 1556 219 2034 219 
z
M 2034 -91 
Q 1275 -91 848 546 
Q 422 1184 422 2328 
Q 422 3475 848 4112 
Q 1275 4750 2034 4750 
Q 2797 4750 3222 4112 
Q 3647 3475 3647 2328 
Q 3647 1184 3222 546 
Q 2797 -91 2034 -91 
z
" transform="scale(0.015625)"/>
       </defs>
       <use xlink:href="#DejaVuSerif-30"/>
      </g>
     </g>
    </g>
    <g id="xtick_2">
     <g id="line2d_2">
      <g>
       <use xlink:href="#m7f4bd2ad7b" x="97.107434" y="164.471719" style="stroke: #000000; stroke-width: 0.8"/>
      </g>
     </g>
     <g id="text_2">
      <!-- 5 -->
      <g transform="translate(93.608059 179.83)scale(0.11 -0.11)">
       <defs>
        <path id="DejaVuSerif-35" d="M 3219 4666 
L 3219 4153 
L 1081 4153 
L 1081 2816 
Q 1244 2928 1461 2984 
Q 1678 3041 1947 3041 
Q 2703 3041 3140 2622 
Q 3578 2203 3578 1478 
Q 3578 738 3136 323 
Q 2694 -91 1894 -91 
Q 1572 -91 1234 -12 
Q 897 66 544 225 
L 544 1131 
L 897 1131 
Q 925 688 1179 453 
Q 1434 219 1894 219 
Q 2388 219 2653 544 
Q 2919 869 2919 1478 
Q 2919 2084 2655 2407 
Q 2391 2731 1894 2731 
Q 1613 2731 1398 2631 
Q 1184 2531 1019 2322 
L 750 2322 
L 750 4666 
L 3219 4666 
z
" transform="scale(0.015625)"/>
       </defs>
       <use xlink:href="#DejaVuSerif-35"/>
      </g>
     </g>
    </g>
    <g id="xtick_3">
     <g id="line2d_3">
      <g>
       <use xlink:href="#m7f4bd2ad7b" x="135.382255" y="164.471719" style="stroke: #000000; stroke-width: 0.8"/>
      </g>
     </g>
     <g id="text_3">
      <!-- 10 -->
      <g transform="translate(128.383505 179.83)scale(0.11 -0.11)">
       <defs>
        <path id="DejaVuSerif-31" d="M 909 0 
L 909 331 
L 1722 331 
L 1722 4213 
L 781 3603 
L 781 4013 
L 1919 4750 
L 2350 4750 
L 2350 331 
L 3163 331 
L 3163 0 
L 909 0 
z
" transform="scale(0.015625)"/>
       </defs>
       <use xlink:href="#DejaVuSerif-31"/>
       <use xlink:href="#DejaVuSerif-30" x="63.623047"/>
      </g>
     </g>
    </g>
    <g id="xtick_4">
     <g id="line2d_4">
      <g>
       <use xlink:href="#m7f4bd2ad7b" x="173.657075" y="164.471719" style="stroke: #000000; stroke-width: 0.8"/>
      </g>
     </g>
     <g id="text_4">
      <!-- 15 -->
      <g transform="translate(166.658325 179.83)scale(0.11 -0.11)">
       <use xlink:href="#DejaVuSerif-31"/>
       <use xlink:href="#DejaVuSerif-35" x="63.623047"/>
      </g>
     </g>
    </g>
    <g id="xtick_5">
     <g id="line2d_5">
      <g>
       <use xlink:href="#m7f4bd2ad7b" x="211.931896" y="164.471719" style="stroke: #000000; stroke-width: 0.8"/>
      </g>
     </g>
     <g id="text_5">
      <!-- 20 -->
      <g transform="translate(204.933146 179.83)scale(0.11 -0.11)">
       <defs>
        <path id="DejaVuSerif-32" d="M 819 3553 
L 469 3553 
L 469 4384 
Q 803 4563 1142 4656 
Q 1481 4750 1806 4750 
Q 2534 4750 2956 4397 
Q 3378 4044 3378 3438 
Q 3378 2753 2422 1800 
Q 2347 1728 2309 1691 
L 1131 513 
L 3078 513 
L 3078 1088 
L 3444 1088 
L 3444 0 
L 434 0 
L 434 341 
L 1850 1753 
Q 2319 2222 2519 2614 
Q 2719 3006 2719 3438 
Q 2719 3909 2473 4175 
Q 2228 4441 1797 4441 
Q 1350 4441 1106 4219 
Q 863 3997 819 3553 
z
" transform="scale(0.015625)"/>
       </defs>
       <use xlink:href="#DejaVuSerif-32"/>
       <use xlink:href="#DejaVuSerif-30" x="63.623047"/>
      </g>
     </g>
    </g>
    <g id="text_6">
     <!-- Tageszeit in h -->
     <g transform="translate(111.152812 194.475937)scale(0.11 -0.11)">
      <defs>
       <path id="DejaVuSerif-54" d="M 1222 0 
L 1222 331 
L 1819 331 
L 1819 4294 
L 447 4294 
L 447 3566 
L 63 3566 
L 63 4666 
L 4206 4666 
L 4206 3566 
L 3822 3566 
L 3822 4294 
L 2450 4294 
L 2450 331 
L 3047 331 
L 3047 0 
L 1222 0 
z
" transform="scale(0.015625)"/>
       <path id="DejaVuSerif-61" d="M 2547 1044 
L 2547 1747 
L 1806 1747 
Q 1378 1747 1168 1562 
Q 959 1378 959 997 
Q 959 650 1171 447 
Q 1384 244 1747 244 
Q 2106 244 2326 466 
Q 2547 688 2547 1044 
z
M 3122 2075 
L 3122 331 
L 3634 331 
L 3634 0 
L 2547 0 
L 2547 359 
Q 2356 128 2106 18 
Q 1856 -91 1522 -91 
Q 969 -91 644 203 
Q 319 497 319 997 
Q 319 1513 691 1797 
Q 1063 2081 1741 2081 
L 2547 2081 
L 2547 2309 
Q 2547 2688 2317 2895 
Q 2088 3103 1672 3103 
Q 1328 3103 1125 2947 
Q 922 2791 872 2484 
L 575 2484 
L 575 3156 
Q 875 3284 1158 3348 
Q 1441 3413 1709 3413 
Q 2400 3413 2761 3070 
Q 3122 2728 3122 2075 
z
" transform="scale(0.015625)"/>
       <path id="DejaVuSerif-67" d="M 3359 2988 
L 3359 72 
Q 3359 -644 2965 -1033 
Q 2572 -1422 1844 -1422 
Q 1516 -1422 1216 -1362 
Q 916 -1303 641 -1184 
L 641 -488 
L 941 -488 
Q 997 -813 1206 -963 
Q 1416 -1113 1806 -1113 
Q 2313 -1113 2548 -827 
Q 2784 -541 2784 72 
L 2784 519 
Q 2616 206 2355 57 
Q 2094 -91 1709 -91 
Q 1097 -91 708 395 
Q 319 881 319 1663 
Q 319 2444 706 2928 
Q 1094 3413 1709 3413 
Q 2094 3413 2355 3264 
Q 2616 3116 2784 2803 
L 2784 3322 
L 3909 3322 
L 3909 2988 
L 3359 2988 
z
M 2784 1825 
Q 2784 2422 2554 2737 
Q 2325 3053 1888 3053 
Q 1444 3053 1217 2703 
Q 991 2353 991 1663 
Q 991 975 1217 622 
Q 1444 269 1888 269 
Q 2325 269 2554 583 
Q 2784 897 2784 1497 
L 2784 1825 
z
" transform="scale(0.015625)"/>
       <path id="DejaVuSerif-65" d="M 3469 1600 
L 991 1600 
L 991 1575 
Q 991 903 1244 561 
Q 1497 219 1991 219 
Q 2369 219 2611 417 
Q 2853 616 2950 1006 
L 3413 1006 
Q 3275 459 2904 184 
Q 2534 -91 1931 -91 
Q 1203 -91 761 389 
Q 319 869 319 1663 
Q 319 2450 753 2931 
Q 1188 3413 1894 3413 
Q 2647 3413 3050 2948 
Q 3453 2484 3469 1600 
z
M 2791 1931 
Q 2772 2513 2545 2808 
Q 2319 3103 1894 3103 
Q 1497 3103 1269 2806 
Q 1041 2509 991 1931 
L 2791 1931 
z
" transform="scale(0.015625)"/>
       <path id="DejaVuSerif-73" d="M 359 184 
L 359 959 
L 691 959 
Q 703 588 923 403 
Q 1144 219 1575 219 
Q 1963 219 2166 364 
Q 2369 509 2369 788 
Q 2369 1006 2220 1140 
Q 2072 1275 1594 1428 
L 1178 1569 
Q 750 1706 558 1912 
Q 366 2119 366 2438 
Q 366 2894 700 3153 
Q 1034 3413 1625 3413 
Q 1888 3413 2178 3344 
Q 2469 3275 2778 3144 
L 2778 2419 
L 2447 2419 
Q 2434 2741 2221 2922 
Q 2009 3103 1644 3103 
Q 1281 3103 1095 2975 
Q 909 2847 909 2591 
Q 909 2381 1050 2254 
Q 1191 2128 1613 1997 
L 2069 1856 
Q 2541 1709 2748 1489 
Q 2956 1269 2956 922 
Q 2956 450 2595 179 
Q 2234 -91 1600 -91 
Q 1278 -91 972 -22 
Q 666 47 359 184 
z
" transform="scale(0.015625)"/>
       <path id="DejaVuSerif-7a" d="M 256 0 
L 256 269 
L 2338 2988 
L 691 2988 
L 691 2413 
L 359 2413 
L 359 3322 
L 3078 3322 
L 3078 3053 
L 997 331 
L 2803 331 
L 2803 934 
L 3138 934 
L 3138 0 
L 256 0 
z
" transform="scale(0.015625)"/>
       <path id="DejaVuSerif-69" d="M 622 4353 
Q 622 4497 726 4603 
Q 831 4709 978 4709 
Q 1122 4709 1226 4603 
Q 1331 4497 1331 4353 
Q 1331 4206 1228 4103 
Q 1125 4000 978 4000 
Q 831 4000 726 4103 
Q 622 4206 622 4353 
z
M 1356 331 
L 1900 331 
L 1900 0 
L 231 0 
L 231 331 
L 781 331 
L 781 2988 
L 231 2988 
L 231 3322 
L 1356 3322 
L 1356 331 
z
" transform="scale(0.015625)"/>
       <path id="DejaVuSerif-74" d="M 691 2988 
L 184 2988 
L 184 3322 
L 691 3322 
L 691 4353 
L 1269 4353 
L 1269 3322 
L 2350 3322 
L 2350 2988 
L 1269 2988 
L 1269 878 
Q 1269 456 1350 337 
Q 1431 219 1650 219 
Q 1875 219 1978 351 
Q 2081 484 2088 781 
L 2522 781 
Q 2497 328 2275 118 
Q 2053 -91 1600 -91 
Q 1103 -91 897 129 
Q 691 350 691 878 
L 691 2988 
z
" transform="scale(0.015625)"/>
       <path id="DejaVuSerif-20" transform="scale(0.015625)"/>
       <path id="DejaVuSerif-6e" d="M 263 0 
L 263 331 
L 781 331 
L 781 2988 
L 231 2988 
L 231 3322 
L 1356 3322 
L 1356 2731 
Q 1516 3069 1770 3241 
Q 2025 3413 2363 3413 
Q 2913 3413 3172 3097 
Q 3431 2781 3431 2113 
L 3431 331 
L 3944 331 
L 3944 0 
L 2356 0 
L 2356 331 
L 2853 331 
L 2853 1931 
Q 2853 2541 2703 2767 
Q 2553 2994 2175 2994 
Q 1775 2994 1565 2701 
Q 1356 2409 1356 1850 
L 1356 331 
L 1856 331 
L 1856 0 
L 263 0 
z
" transform="scale(0.015625)"/>
       <path id="DejaVuSerif-68" d="M 263 0 
L 263 331 
L 781 331 
L 781 4531 
L 231 4531 
L 231 4863 
L 1356 4863 
L 1356 2731 
Q 1516 3069 1770 3241 
Q 2025 3413 2363 3413 
Q 2913 3413 3172 3097 
Q 3431 2781 3431 2113 
L 3431 331 
L 3944 331 
L 3944 0 
L 2356 0 
L 2356 331 
L 2853 331 
L 2853 1931 
Q 2853 2541 2704 2764 
Q 2556 2988 2175 2988 
Q 1775 2988 1565 2697 
Q 1356 2406 1356 1850 
L 1356 331 
L 1856 331 
L 1856 0 
L 263 0 
z
" transform="scale(0.015625)"/>
      </defs>
      <use xlink:href="#DejaVuSerif-54"/>
      <use xlink:href="#DejaVuSerif-61" x="58.949219"/>
      <use xlink:href="#DejaVuSerif-67" x="118.568359"/>
      <use xlink:href="#DejaVuSerif-65" x="182.582031"/>
      <use xlink:href="#DejaVuSerif-73" x="241.761719"/>
      <use xlink:href="#DejaVuSerif-7a" x="293.080078"/>
      <use xlink:href="#DejaVuSerif-65" x="345.765625"/>
      <use xlink:href="#DejaVuSerif-69" x="404.945312"/>
      <use xlink:href="#DejaVuSerif-74" x="436.927734"/>
      <use xlink:href="#DejaVuSerif-20" x="477.113281"/>
      <use xlink:href="#DejaVuSerif-69" x="508.900391"/>
      <use xlink:href="#DejaVuSerif-6e" x="540.882812"/>
      <use xlink:href="#DejaVuSerif-20" x="605.287109"/>
      <use xlink:href="#DejaVuSerif-68" x="637.074219"/>
     </g>
    </g>
   </g>
   <g id="matplotlib.axis_2">
    <g id="ytick_1">
     <g id="line2d_6">
      <defs>
       <path id="maa12140056" d="M 0 0 
L -3.5 0 
" style="stroke: #000000; stroke-width: 0.8"/>
      </defs>
      <g>
       <use xlink:href="#maa12140056" x="49.742344" y="135.505682" style="stroke: #000000; stroke-width: 0.8"/>
      </g>
     </g>
     <g id="text_7">
      <!-- 0 -->
      <g transform="translate(35.743594 139.684822)scale(0.11 -0.11)">
       <use xlink:href="#DejaVuSerif-30"/>
      </g>
     </g>
    </g>
    <g id="ytick_2">
     <g id="line2d_7">
      <g>
       <use xlink:href="#maa12140056" x="49.742344" y="89.12663" style="stroke: #000000; stroke-width: 0.8"/>
      </g>
     </g>
     <g id="text_8">
      <!-- 10 -->
      <g transform="translate(28.744844 93.305771)scale(0.11 -0.11)">
       <use xlink:href="#DejaVuSerif-31"/>
       <use xlink:href="#DejaVuSerif-30" x="63.623047"/>
      </g>
     </g>
    </g>
    <g id="ytick_3">
     <g id="line2d_8">
      <g>
       <use xlink:href="#maa12140056" x="49.742344" y="42.747578" style="stroke: #000000; stroke-width: 0.8"/>
      </g>
     </g>
     <g id="text_9">
      <!-- 20 -->
      <g transform="translate(28.744844 46.926719)scale(0.11 -0.11)">
       <use xlink:href="#DejaVuSerif-32"/>
       <use xlink:href="#DejaVuSerif-30" x="63.623047"/>
      </g>
     </g>
    </g>
    <g id="text_10">
     <!-- Temperatur in °C -->
     <g transform="translate(22.457187 136.710781)rotate(-90)scale(0.11 -0.11)">
      <defs>
       <path id="DejaVuSerif-6d" d="M 3316 2675 
Q 3481 3041 3739 3227 
Q 3997 3413 4341 3413 
Q 4863 3413 5119 3089 
Q 5375 2766 5375 2113 
L 5375 331 
L 5894 331 
L 5894 0 
L 4300 0 
L 4300 331 
L 4800 331 
L 4800 2047 
Q 4800 2556 4650 2772 
Q 4500 2988 4153 2988 
Q 3769 2988 3567 2697 
Q 3366 2406 3366 1850 
L 3366 331 
L 3866 331 
L 3866 0 
L 2291 0 
L 2291 331 
L 2791 331 
L 2791 2069 
Q 2791 2566 2641 2777 
Q 2491 2988 2144 2988 
Q 1759 2988 1557 2697 
Q 1356 2406 1356 1850 
L 1356 331 
L 1856 331 
L 1856 0 
L 263 0 
L 263 331 
L 781 331 
L 781 2994 
L 231 2994 
L 231 3322 
L 1356 3322 
L 1356 2731 
Q 1516 3063 1762 3238 
Q 2009 3413 2322 3413 
Q 2709 3413 2968 3220 
Q 3228 3028 3316 2675 
z
" transform="scale(0.015625)"/>
       <path id="DejaVuSerif-70" d="M 1313 1825 
L 1313 1497 
Q 1313 897 1542 583 
Q 1772 269 2209 269 
Q 2650 269 2876 622 
Q 3103 975 3103 1663 
Q 3103 2353 2876 2703 
Q 2650 3053 2209 3053 
Q 1772 3053 1542 2737 
Q 1313 2422 1313 1825 
z
M 738 2988 
L 184 2988 
L 184 3322 
L 1313 3322 
L 1313 2803 
Q 1481 3116 1742 3264 
Q 2003 3413 2388 3413 
Q 3000 3413 3387 2928 
Q 3775 2444 3775 1663 
Q 3775 881 3387 395 
Q 3000 -91 2388 -91 
Q 2003 -91 1742 57 
Q 1481 206 1313 519 
L 1313 -997 
L 1856 -997 
L 1856 -1331 
L 184 -1331 
L 184 -997 
L 738 -997 
L 738 2988 
z
" transform="scale(0.015625)"/>
       <path id="DejaVuSerif-72" d="M 3059 3328 
L 3059 2497 
L 2728 2497 
Q 2713 2744 2591 2866 
Q 2469 2988 2234 2988 
Q 1809 2988 1582 2694 
Q 1356 2400 1356 1850 
L 1356 331 
L 2022 331 
L 2022 0 
L 263 0 
L 263 331 
L 781 331 
L 781 2994 
L 231 2994 
L 231 3322 
L 1356 3322 
L 1356 2731 
Q 1525 3078 1790 3245 
Q 2056 3413 2438 3413 
Q 2578 3413 2733 3391 
Q 2888 3369 3059 3328 
z
" transform="scale(0.015625)"/>
       <path id="DejaVuSerif-75" d="M 2266 3322 
L 3341 3322 
L 3341 331 
L 3884 331 
L 3884 0 
L 2766 0 
L 2766 588 
Q 2606 256 2353 82 
Q 2100 -91 1766 -91 
Q 1213 -91 952 223 
Q 691 538 691 1209 
L 691 2988 
L 172 2988 
L 172 3322 
L 1269 3322 
L 1269 1388 
Q 1269 781 1417 556 
Q 1566 331 1947 331 
Q 2347 331 2556 625 
Q 2766 919 2766 1478 
L 2766 2988 
L 2266 2988 
L 2266 3322 
z
" transform="scale(0.015625)"/>
       <path id="DejaVuSerif-b0" d="M 1600 4319 
Q 1363 4319 1200 4155 
Q 1038 3991 1038 3750 
Q 1038 3513 1198 3353 
Q 1359 3194 1600 3194 
Q 1838 3194 2000 3355 
Q 2163 3516 2163 3750 
Q 2163 3984 1997 4151 
Q 1831 4319 1600 4319 
z
M 1600 4750 
Q 1800 4750 1984 4673 
Q 2169 4597 2303 4453 
Q 2447 4313 2519 4134 
Q 2591 3956 2591 3750 
Q 2591 3338 2302 3052 
Q 2013 2766 1594 2766 
Q 1172 2766 890 3047 
Q 609 3328 609 3750 
Q 609 4169 896 4459 
Q 1184 4750 1600 4750 
z
" transform="scale(0.015625)"/>
       <path id="DejaVuSerif-43" d="M 4513 1234 
Q 4306 581 3820 245 
Q 3334 -91 2591 -91 
Q 2134 -91 1743 65 
Q 1353 222 1050 525 
Q 700 875 529 1320 
Q 359 1766 359 2328 
Q 359 3416 987 4083 
Q 1616 4750 2644 4750 
Q 3025 4750 3456 4650 
Q 3888 4550 4384 4347 
L 4384 3272 
L 4031 3272 
Q 3916 3859 3567 4137 
Q 3219 4416 2591 4416 
Q 1844 4416 1459 3886 
Q 1075 3356 1075 2328 
Q 1075 1303 1459 773 
Q 1844 244 2591 244 
Q 3113 244 3450 492 
Q 3788 741 3938 1234 
L 4513 1234 
z
" transform="scale(0.015625)"/>
      </defs>
      <use xlink:href="#DejaVuSerif-54"/>
      <use xlink:href="#DejaVuSerif-65" x="58.949219"/>
      <use xlink:href="#DejaVuSerif-6d" x="118.128906"/>
      <use xlink:href="#DejaVuSerif-70" x="212.953125"/>
      <use xlink:href="#DejaVuSerif-65" x="276.966797"/>
      <use xlink:href="#DejaVuSerif-72" x="336.146484"/>
      <use xlink:href="#DejaVuSerif-61" x="383.949219"/>
      <use xlink:href="#DejaVuSerif-74" x="443.568359"/>
      <use xlink:href="#DejaVuSerif-75" x="483.753906"/>
      <use xlink:href="#DejaVuSerif-72" x="548.158203"/>
      <use xlink:href="#DejaVuSerif-20" x="595.960938"/>
      <use xlink:href="#DejaVuSerif-69" x="627.748047"/>
      <use xlink:href="#DejaVuSerif-6e" x="659.730469"/>
      <use xlink:href="#DejaVuSerif-20" x="724.134766"/>
      <use xlink:href="#DejaVuSerif-b0" x="755.921875"/>
      <use xlink:href="#DejaVuSerif-43" x="805.921875"/>
     </g>
    </g>
   </g>
   <g id="line2d_9">
    <path d="M 58.832614 157.535732 
L 60.746355 156.700909 
L 62.660096 155.912465 
L 64.573837 155.077642 
L 66.487578 154.242819 
L 68.401319 154.010924 
L 70.31506 153.779028 
L 72.228801 153.547133 
L 74.142542 153.315238 
L 76.056283 152.71231 
L 77.970024 152.155762 
L 79.883765 151.552834 
L 81.797506 150.949906 
L 83.711247 150.857148 
L 85.624988 150.718011 
L 87.538729 150.625253 
L 89.45247 150.486116 
L 91.366211 150.022325 
L 93.279952 149.558535 
L 95.193693 149.094744 
L 97.107434 148.630954 
L 99.021175 148.491816 
L 100.934916 148.399058 
L 102.848657 148.259921 
L 104.762398 148.167163 
L 106.676139 147.703373 
L 108.58988 147.239582 
L 110.503621 146.729412 
L 112.417362 146.265622 
L 114.331103 146.033727 
L 116.244844 145.801831 
L 118.158586 145.569936 
L 120.072327 145.338041 
L 121.986068 144.87425 
L 123.899809 144.41046 
L 125.81355 143.946669 
L 127.727291 143.482879 
L 129.641032 143.343742 
L 131.554773 143.250984 
L 133.468514 143.111846 
L 135.382255 143.019088 
L 137.295996 142.648056 
L 139.209737 142.323403 
L 141.123478 141.95237 
L 143.037219 141.581338 
L 144.95096 140.792894 
L 146.864701 139.958071 
L 148.778442 139.123248 
L 150.692183 138.334804 
L 152.605924 138.334804 
L 154.519665 138.334804 
L 156.433406 138.334804 
L 158.347147 138.334804 
L 160.260888 138.102909 
L 162.174629 137.871014 
L 164.08837 137.592739 
L 166.002111 137.360844 
L 167.915852 137.268086 
L 169.829593 137.128949 
L 171.743334 137.036191 
L 173.657075 136.897053 
L 175.570816 136.804295 
L 177.484557 136.665158 
L 179.398298 136.5724 
L 181.312039 136.433263 
L 183.225781 136.665158 
L 185.139522 136.897053 
L 187.053263 137.128949 
L 188.967004 137.360844 
L 190.880745 137.128949 
L 192.794486 136.897053 
L 194.708227 136.665158 
L 196.621968 136.433263 
L 198.535709 136.433263 
L 200.44945 136.433263 
L 202.363191 136.433263 
L 204.276932 136.433263 
L 206.190673 136.340505 
L 208.104414 136.201368 
L 210.018155 136.10861 
L 211.931896 135.969472 
L 213.845637 136.10861 
L 215.759378 136.201368 
L 217.673119 136.340505 
L 219.58686 136.433263 
L 221.500601 136.433263 
L 223.414342 136.433263 
L 225.328083 136.433263 
L 227.241824 136.433263 
L 229.155565 136.5724 
L 231.069306 136.665158 
L 232.983047 136.804295 
L 234.896788 136.897053 
L 236.810529 136.897053 
L 238.72427 136.897053 
L 240.638011 136.897053 
" clip-path="url(#p2fb3ace562)" style="fill: none; stroke: #ec635c; stroke-width: 1.5; stroke-linecap: square"/>
   </g>
   <g id="line2d_10">
    <path d="M 58.832614 130.821398 
L 60.746355 130.68226 
L 62.660096 130.589502 
L 64.573837 130.450365 
L 66.487578 130.357607 
L 68.401319 130.125712 
L 70.31506 129.893817 
L 72.228801 129.661921 
L 74.142542 129.430026 
L 76.056283 129.522784 
L 77.970024 129.661921 
L 79.883765 129.754679 
L 81.797506 129.893817 
L 83.711247 130.125712 
L 85.624988 130.357607 
L 87.538729 130.589502 
L 89.45247 130.821398 
L 91.366211 130.821398 
L 93.279952 130.821398 
L 95.193693 130.821398 
L 97.107434 130.821398 
L 99.021175 130.68226 
L 100.934916 130.589502 
L 102.848657 130.450365 
L 104.762398 130.357607 
L 106.676139 129.986575 
L 108.58988 129.661921 
L 110.503621 129.290889 
L 112.417362 128.966236 
L 114.331103 128.827098 
L 116.244844 128.687961 
L 118.158586 128.595203 
L 120.072327 128.456066 
L 121.986068 128.595203 
L 123.899809 128.687961 
L 125.81355 128.827098 
L 127.727291 128.966236 
L 129.641032 128.827098 
L 131.554773 128.687961 
L 133.468514 128.595203 
L 135.382255 128.456066 
L 137.295996 128.131413 
L 139.209737 127.76038 
L 141.123478 127.435727 
L 143.037219 127.064694 
L 144.95096 126.600904 
L 146.864701 126.137113 
L 148.778442 125.673323 
L 150.692183 125.209532 
L 152.605924 124.606605 
L 154.519665 124.003677 
L 156.433406 123.447128 
L 158.347147 122.844201 
L 160.260888 122.519547 
L 162.174629 122.148515 
L 164.08837 121.777482 
L 166.002111 121.452829 
L 167.915852 121.220934 
L 169.829593 120.989039 
L 171.743334 120.757143 
L 173.657075 120.525248 
L 175.570816 120.849901 
L 177.484557 121.220934 
L 179.398298 121.545587 
L 181.312039 121.91662 
L 183.225781 122.287652 
L 185.139522 122.612305 
L 187.053263 122.983338 
L 188.967004 123.307991 
L 190.880745 123.447128 
L 192.794486 123.539886 
L 194.708227 123.679024 
L 196.621968 123.771782 
L 198.535709 123.771782 
L 200.44945 123.771782 
L 202.363191 123.771782 
L 204.276932 123.771782 
L 206.190673 123.910919 
L 208.104414 124.003677 
L 210.018155 124.142814 
L 211.931896 124.281951 
L 213.845637 124.003677 
L 215.759378 123.771782 
L 217.673119 123.539886 
L 219.58686 123.307991 
L 221.500601 123.447128 
L 223.414342 123.539886 
L 225.328083 123.679024 
L 227.241824 123.771782 
L 229.155565 124.142814 
L 231.069306 124.513847 
L 232.983047 124.8385 
L 234.896788 125.209532 
L 236.810529 125.209532 
L 238.72427 125.209532 
L 240.638011 125.209532 
" clip-path="url(#p2fb3ace562)" style="fill: none; stroke-dasharray: 5.55,2.4; stroke-dashoffset: 0; stroke: #4b81c4; stroke-width: 1.5"/>
   </g>
   <g id="line2d_11">
    <path d="M 58.832614 110.18272 
L 60.746355 110.089961 
L 62.660096 109.950824 
L 64.573837 109.858066 
L 66.487578 109.718929 
L 68.401319 110.089961 
L 70.31506 110.414615 
L 72.228801 110.785647 
L 74.142542 111.15668 
L 76.056283 111.388575 
L 77.970024 111.62047 
L 79.883765 111.852365 
L 81.797506 112.084261 
L 83.711247 111.945123 
L 85.624988 111.852365 
L 87.538729 111.713228 
L 89.45247 111.62047 
L 91.366211 111.481333 
L 93.279952 111.388575 
L 95.193693 111.249438 
L 97.107434 111.15668 
L 99.021175 110.924784 
L 100.934916 110.64651 
L 102.848657 110.414615 
L 104.762398 110.18272 
L 106.676139 109.858066 
L 108.58988 109.487034 
L 110.503621 109.16238 
L 112.417362 108.791348 
L 114.331103 108.420316 
L 116.244844 108.095662 
L 118.158586 107.72463 
L 120.072327 107.399976 
L 121.986068 106.936186 
L 123.899809 106.472395 
L 125.81355 105.962226 
L 127.727291 105.498435 
L 129.641032 104.570854 
L 131.554773 103.643273 
L 133.468514 102.715692 
L 135.382255 101.788111 
L 137.295996 101.509837 
L 139.209737 101.277942 
L 141.123478 101.046046 
L 143.037219 100.814151 
L 144.95096 99.283642 
L 146.864701 97.799513 
L 148.778442 96.269004 
L 150.692183 94.738495 
L 152.605924 94.599358 
L 154.519665 94.5066 
L 156.433406 94.367463 
L 158.347147 94.274705 
L 160.260888 94.042809 
L 162.174629 93.810914 
L 164.08837 93.579019 
L 166.002111 93.347124 
L 167.915852 93.579019 
L 169.829593 93.810914 
L 171.743334 94.042809 
L 173.657075 94.274705 
L 175.570816 95.109528 
L 177.484557 95.897972 
L 179.398298 96.732794 
L 181.312039 97.567617 
L 183.225781 98.031408 
L 185.139522 98.495198 
L 187.053263 98.958989 
L 188.967004 99.422779 
L 190.880745 99.88657 
L 192.794486 100.350361 
L 194.708227 100.814151 
L 196.621968 101.277942 
L 198.535709 101.509837 
L 200.44945 101.788111 
L 202.363191 102.020006 
L 204.276932 102.251902 
L 206.190673 102.483797 
L 208.104414 102.715692 
L 210.018155 102.947587 
L 211.931896 103.179483 
L 213.845637 103.504136 
L 215.759378 103.875168 
L 217.673119 104.246201 
L 219.58686 104.570854 
L 221.500601 104.478096 
L 223.414342 104.338959 
L 225.328083 104.246201 
L 227.241824 104.107064 
L 229.155565 105.034645 
L 231.069306 105.962226 
L 232.983047 106.936186 
L 234.896788 107.863767 
L 236.810529 107.863767 
L 238.72427 107.863767 
L 240.638011 107.863767 
" clip-path="url(#p2fb3ace562)" style="fill: none; stroke-dasharray: 9.6,2.4,1.5,2.4; stroke-dashoffset: 0; stroke: #f49961; stroke-width: 1.5"/>
   </g>
   <g id="line2d_12">
    <path d="M 58.832614 132.212769 
L 60.746355 132.67656 
L 62.660096 133.14035 
L 64.573837 133.65052 
L 66.487578 134.11431 
L 68.401319 134.809996 
L 70.31506 135.505682 
L 72.228801 136.201368 
L 74.142542 136.897053 
L 76.056283 137.268086 
L 77.970024 137.592739 
L 79.883765 137.963772 
L 81.797506 138.334804 
L 83.711247 138.427562 
L 85.624988 138.566699 
L 87.538729 138.659457 
L 89.45247 138.798595 
L 91.366211 139.03049 
L 93.279952 139.262385 
L 95.193693 139.49428 
L 97.107434 139.726176 
L 99.021175 139.03049 
L 100.934916 138.334804 
L 102.848657 137.592739 
L 104.762398 136.897053 
L 106.676139 132.120011 
L 108.58988 127.29659 
L 110.503621 122.519547 
L 112.417362 117.696126 
L 114.331103 113.707527 
L 116.244844 109.718929 
L 118.158586 105.730331 
L 120.072327 101.788111 
L 121.986068 98.727094 
L 123.899809 95.666076 
L 125.81355 92.605059 
L 127.727291 89.59042 
L 129.641032 88.291807 
L 131.554773 86.993194 
L 133.468514 85.69458 
L 135.382255 84.442346 
L 137.295996 82.216151 
L 139.209737 79.989957 
L 141.123478 77.763762 
L 143.037219 75.537568 
L 144.95096 74.93464 
L 146.864701 74.331712 
L 148.778442 73.775164 
L 150.692183 73.172236 
L 152.605924 71.085179 
L 154.519665 68.951742 
L 156.433406 66.864685 
L 158.347147 64.731249 
L 160.260888 63.710909 
L 162.174629 62.644191 
L 164.08837 61.577473 
L 166.002111 60.510755 
L 167.915852 60.881787 
L 169.829593 61.206441 
L 171.743334 61.577473 
L 173.657075 61.948506 
L 175.570816 62.644191 
L 177.484557 63.339877 
L 179.398298 64.035563 
L 181.312039 64.731249 
L 183.225781 66.029862 
L 185.139522 67.328476 
L 187.053263 68.627089 
L 188.967004 69.879323 
L 190.880745 74.238954 
L 192.794486 78.552206 
L 194.708227 82.911837 
L 196.621968 87.225089 
L 198.535709 88.523702 
L 200.44945 89.822316 
L 202.363191 91.120929 
L 204.276932 92.373164 
L 206.190673 92.976091 
L 208.104414 93.579019 
L 210.018155 94.135568 
L 211.931896 94.738495 
L 213.845637 97.335722 
L 215.759378 99.88657 
L 217.673119 102.483797 
L 219.58686 105.034645 
L 221.500601 106.333258 
L 223.414342 107.631872 
L 225.328083 108.930485 
L 227.241824 110.18272 
L 229.155565 111.017542 
L 231.069306 111.852365 
L 232.983047 112.640809 
L 234.896788 113.475632 
L 236.810529 113.475632 
L 238.72427 113.475632 
L 240.638011 113.475632 
" clip-path="url(#p2fb3ace562)" style="fill: none; stroke-dasharray: 1.5,2.475; stroke-dashoffset: 0; stroke: #808080; stroke-width: 1.5"/>
   </g>
   <g id="line2d_13">
    <path d="M 58.832614 69.879323 
L 60.746355 71.177937 
L 62.660096 72.47655 
L 64.573837 73.775164 
L 66.487578 75.073777 
L 68.401319 75.398431 
L 70.31506 75.769463 
L 72.228801 76.094116 
L 74.142542 76.465149 
L 76.056283 76.928939 
L 77.970024 77.39273 
L 79.883765 77.85652 
L 81.797506 78.320311 
L 83.711247 78.459448 
L 85.624988 78.552206 
L 87.538729 78.691343 
L 89.45247 78.784101 
L 91.366211 78.691343 
L 93.279952 78.552206 
L 95.193693 78.459448 
L 97.107434 78.320311 
L 99.021175 78.552206 
L 100.934916 78.784101 
L 102.848657 79.015997 
L 104.762398 79.294271 
L 106.676139 77.85652 
L 108.58988 76.465149 
L 110.503621 75.073777 
L 112.417362 73.636027 
L 114.331103 72.244655 
L 116.244844 70.853283 
L 118.158586 69.415533 
L 120.072327 68.024161 
L 121.986068 67.421234 
L 123.899809 66.864685 
L 125.81355 66.261757 
L 127.727291 65.65883 
L 129.641032 64.963144 
L 131.554773 64.267458 
L 133.468514 63.571772 
L 135.382255 62.876087 
L 137.295996 61.948506 
L 139.209737 60.974545 
L 141.123478 60.046964 
L 143.037219 59.119383 
L 144.95096 59.351279 
L 146.864701 59.583174 
L 148.778442 59.815069 
L 150.692183 60.046964 
L 152.605924 59.351279 
L 154.519665 58.655593 
L 156.433406 57.959907 
L 158.347147 57.264221 
L 160.260888 57.588875 
L 162.174629 57.959907 
L 164.08837 58.28456 
L 166.002111 58.655593 
L 167.915852 58.748351 
L 169.829593 58.887488 
L 171.743334 59.026625 
L 173.657075 59.119383 
L 175.570816 59.25852 
L 177.484557 59.351279 
L 179.398298 59.490416 
L 181.312039 59.583174 
L 183.225781 60.649892 
L 185.139522 61.71661 
L 187.053263 62.736949 
L 188.967004 63.803668 
L 190.880745 64.870386 
L 192.794486 65.937104 
L 194.708227 66.957443 
L 196.621968 68.024161 
L 198.535709 68.024161 
L 200.44945 68.024161 
L 202.363191 68.024161 
L 204.276932 68.024161 
L 206.190673 68.627089 
L 208.104414 69.183638 
L 210.018155 69.786565 
L 211.931896 70.389493 
L 213.845637 71.780865 
L 215.759378 73.172236 
L 217.673119 74.563608 
L 219.58686 76.001358 
L 221.500601 76.928939 
L 223.414342 77.85652 
L 225.328083 78.784101 
L 227.241824 79.758061 
L 229.155565 81.149433 
L 231.069306 82.540805 
L 232.983047 83.978555 
L 234.896788 85.369927 
L 236.810529 85.369927 
L 238.72427 85.369927 
L 240.638011 85.369927 
" clip-path="url(#p2fb3ace562)" style="fill: none; stroke-dasharray: 15,4.5; stroke-dashoffset: 7.5; stroke: #8768b4; stroke-width: 1.5"/>
   </g>
   <g id="line2d_14">
    <path d="M 58.832614 65.65883 
L 60.746355 66.168999 
L 62.660096 66.63279 
L 64.573837 67.09658 
L 66.487578 67.560371 
L 68.401319 68.487952 
L 70.31506 69.415533 
L 72.228801 70.389493 
L 74.142542 71.317074 
L 76.056283 71.873623 
L 77.970024 72.47655 
L 79.883765 73.079478 
L 81.797506 73.636027 
L 83.711247 73.867922 
L 85.624988 74.099817 
L 87.538729 74.331712 
L 89.45247 74.563608 
L 91.366211 72.615687 
L 93.279952 70.621388 
L 95.193693 68.627089 
L 97.107434 66.63279 
L 99.021175 63.339877 
L 100.934916 60.046964 
L 102.848657 56.800431 
L 104.762398 53.507518 
L 106.676139 50.910291 
L 108.58988 48.359443 
L 110.503621 45.762216 
L 112.417362 43.164989 
L 114.331103 41.912755 
L 116.244844 40.614142 
L 118.158586 39.315528 
L 120.072327 38.016915 
L 121.986068 36.857438 
L 123.899809 35.697962 
L 125.81355 34.538486 
L 127.727291 33.33263 
L 129.641032 31.477468 
L 131.554773 29.575927 
L 133.468514 27.720765 
L 135.382255 25.865603 
L 137.295996 25.401813 
L 139.209737 24.891643 
L 141.123478 24.427852 
L 143.037219 23.964062 
L 144.95096 24.427852 
L 146.864701 24.891643 
L 148.778442 25.401813 
L 150.692183 25.865603 
L 152.605924 24.56699 
L 154.519665 23.268376 
L 156.433406 21.969763 
L 158.347147 20.671149 
L 160.260888 21.645109 
L 162.174629 22.57269 
L 164.08837 23.500271 
L 166.002111 24.427852 
L 167.915852 23.036481 
L 169.829593 21.645109 
L 171.743334 20.207359 
L 173.657075 18.815987 
L 175.570816 19.743568 
L 177.484557 20.671149 
L 179.398298 21.645109 
L 181.312039 22.57269 
L 183.225781 22.665449 
L 185.139522 22.804586 
L 187.053263 22.897344 
L 188.967004 23.036481 
L 190.880745 24.335094 
L 192.794486 25.633708 
L 194.708227 26.885942 
L 196.621968 28.184556 
L 198.535709 29.344032 
L 200.44945 30.549887 
L 202.363191 31.709364 
L 204.276932 32.86884 
L 206.190673 34.167453 
L 208.104414 35.466067 
L 210.018155 36.76468 
L 211.931896 38.016915 
L 213.845637 39.686561 
L 215.759378 41.309827 
L 217.673119 42.933094 
L 219.58686 44.60274 
L 221.500601 45.298426 
L 223.414342 45.994112 
L 225.328083 46.689797 
L 227.241824 47.385483 
L 229.155565 48.591339 
L 231.069306 49.750815 
L 232.983047 50.910291 
L 234.896788 52.069767 
L 236.810529 52.069767 
L 238.72427 52.069767 
L 240.638011 52.069767 
" clip-path="url(#p2fb3ace562)" style="fill: none; stroke-dasharray: 4.5,1.5,3,1.5,3,1.5; stroke-dashoffset: 1.5; stroke: #b45955; stroke-width: 1.5"/>
   </g>
   <g id="line2d_15">
    <path d="M 58.832614 89.59042 
L 60.746355 89.915074 
L 62.660096 90.286106 
L 64.573837 90.657139 
L 66.487578 90.981792 
L 68.401319 91.58472 
L 70.31506 92.141268 
L 72.228801 92.744196 
L 74.142542 93.347124 
L 76.056283 93.347124 
L 77.970024 93.347124 
L 79.883765 93.347124 
L 81.797506 93.347124 
L 83.711247 94.135568 
L 85.624988 94.97039 
L 87.538729 95.805213 
L 89.45247 96.593657 
L 91.366211 96.269004 
L 93.279952 95.897972 
L 95.193693 95.573318 
L 97.107434 95.202286 
L 99.021175 93.439882 
L 100.934916 91.677478 
L 102.848657 89.915074 
L 104.762398 88.15267 
L 106.676139 84.535104 
L 108.58988 80.917538 
L 110.503621 77.299972 
L 112.417362 73.636027 
L 114.331103 69.786565 
L 116.244844 65.937104 
L 118.158586 62.041264 
L 120.072327 58.191802 
L 121.986068 56.058366 
L 123.899809 53.971309 
L 125.81355 51.837872 
L 127.727291 49.750815 
L 129.641032 49.147887 
L 131.554773 48.591339 
L 133.468514 47.988411 
L 135.382255 47.385483 
L 137.295996 46.226007 
L 139.209737 45.066531 
L 141.123478 43.907054 
L 143.037219 42.701199 
L 144.95096 44.231708 
L 146.864701 45.762216 
L 148.778442 47.292725 
L 150.692183 48.823234 
L 152.605924 48.823234 
L 154.519665 48.823234 
L 156.433406 48.823234 
L 158.347147 48.823234 
L 160.260888 48.220306 
L 162.174629 47.617378 
L 164.08837 47.06083 
L 166.002111 46.457902 
L 167.915852 46.133249 
L 169.829593 45.762216 
L 171.743334 45.391184 
L 173.657075 45.066531 
L 175.570816 45.298426 
L 177.484557 45.530321 
L 179.398298 45.762216 
L 181.312039 45.994112 
L 183.225781 47.06083 
L 185.139522 48.127548 
L 187.053263 49.147887 
L 188.967004 50.214605 
L 190.880745 52.811832 
L 192.794486 55.36268 
L 194.708227 57.959907 
L 196.621968 60.510755 
L 198.535709 62.505054 
L 200.44945 64.499353 
L 202.363191 66.493653 
L 204.276932 68.487952 
L 206.190673 68.719847 
L 208.104414 68.951742 
L 210.018155 69.183638 
L 211.931896 69.415533 
L 213.845637 69.55467 
L 215.759378 69.647428 
L 217.673119 69.786565 
L 219.58686 69.879323 
L 221.500601 70.714146 
L 223.414342 71.548969 
L 225.328083 72.337413 
L 227.241824 73.172236 
L 229.155565 73.311373 
L 231.069306 73.404131 
L 232.983047 73.543268 
L 234.896788 73.636027 
L 236.810529 73.636027 
L 238.72427 73.636027 
L 240.638011 73.636027 
" clip-path="url(#p2fb3ace562)" style="fill: none; stroke-dasharray: 4.5,7.5,1.5,7.5,1.5,7.5; stroke-dashoffset: 0; stroke: #cb74f4; stroke-width: 1.5"/>
   </g>
   <g id="line2d_16">
    <path d="M 58.832614 104.570854 
L 60.746355 104.478096 
L 62.660096 104.338959 
L 64.573837 104.246201 
L 66.487578 104.107064 
L 68.401319 103.643273 
L 70.31506 103.179483 
L 72.228801 102.715692 
L 74.142542 102.251902 
L 76.056283 101.509837 
L 77.970024 100.814151 
L 79.883765 100.118465 
L 81.797506 99.422779 
L 83.711247 99.561917 
L 85.624988 99.654675 
L 87.538729 99.793812 
L 89.45247 99.88657 
L 91.366211 101.046046 
L 93.279952 102.251902 
L 95.193693 103.411378 
L 97.107434 104.570854 
L 99.021175 104.709991 
L 100.934916 104.802749 
L 102.848657 104.941887 
L 104.762398 105.034645 
L 106.676139 104.941887 
L 108.58988 104.802749 
L 110.503621 104.709991 
L 112.417362 104.570854 
L 114.331103 101.417079 
L 116.244844 98.263303 
L 118.158586 95.109528 
L 120.072327 91.909373 
L 121.986068 90.378864 
L 123.899809 88.894735 
L 125.81355 87.364226 
L 127.727291 85.833717 
L 129.641032 84.303209 
L 131.554773 82.7727 
L 133.468514 81.242191 
L 135.382255 79.758061 
L 137.295996 80.917538 
L 139.209737 82.077014 
L 141.123478 83.23649 
L 143.037219 84.442346 
L 144.95096 83.23649 
L 146.864701 82.077014 
L 148.778442 80.917538 
L 150.692183 79.758061 
L 152.605924 78.459448 
L 154.519665 77.160835 
L 156.433406 75.862221 
L 158.347147 74.563608 
L 160.260888 75.398431 
L 162.174629 76.233254 
L 164.08837 77.068076 
L 166.002111 77.85652 
L 167.915852 77.624625 
L 169.829593 77.39273 
L 171.743334 77.160835 
L 173.657075 76.928939 
L 175.570816 79.294271 
L 177.484557 81.613224 
L 179.398298 83.978555 
L 181.312039 86.297508 
L 183.225781 88.15267 
L 185.139522 90.054211 
L 187.053263 91.909373 
L 188.967004 93.810914 
L 190.880745 93.810914 
L 192.794486 93.810914 
L 194.708227 93.810914 
L 196.621968 93.810914 
L 198.535709 92.605059 
L 200.44945 91.445583 
L 202.363191 90.286106 
L 204.276932 89.12663 
L 206.190673 90.981792 
L 208.104414 92.883333 
L 210.018155 94.738495 
L 211.931896 96.593657 
L 213.845637 97.057448 
L 215.759378 97.567617 
L 217.673119 98.031408 
L 219.58686 98.495198 
L 221.500601 98.124166 
L 223.414342 97.799513 
L 225.328083 97.42848 
L 227.241824 97.057448 
L 229.155565 97.196585 
L 231.069306 97.335722 
L 232.983047 97.42848 
L 234.896788 97.567617 
L 236.810529 97.567617 
L 238.72427 97.567617 
L 240.638011 97.567617 
" clip-path="url(#p2fb3ace562)" style="fill: none; stroke-dasharray: 7.5,7.5; stroke-dashoffset: 0; stroke: #808080; stroke-width: 1.5"/>
   </g>
   <g id="patch_3">
    <path d="M 49.742344 164.471719 
L 49.742344 11.88 
" style="fill: none; stroke: #000000; stroke-width: 0.5; stroke-linejoin: miter; stroke-linecap: square"/>
   </g>
   <g id="patch_4">
    <path d="M 249.728281 164.471719 
L 249.728281 11.88 
" style="fill: none; stroke: #000000; stroke-width: 0.5; stroke-linejoin: miter; stroke-linecap: square"/>
   </g>
   <g id="patch_5">
    <path d="M 49.742344 164.471719 
L 249.728281 164.471719 
" style="fill: none; stroke: #000000; stroke-width: 0.5; stroke-linejoin: miter; stroke-linecap: square"/>
   </g>
   <g id="patch_6">
    <path d="M 49.742344 11.88 
L 249.728281 11.88 
" style="fill: none; stroke: #000000; stroke-width: 0.5; stroke-linejoin: miter; stroke-linecap: square"/>
   </g>
   <g id="legend_1">
    <g id="patch_7">
     <path d="M 257.428281 158.776094 
L 433.76 158.776094 
Q 435.96 158.776094 435.96 156.576094 
L 435.96 19.775625 
Q 435.96 17.575625 433.76 17.575625 
L 257.428281 17.575625 
Q 255.228281 17.575625 255.228281 19.775625 
L 255.228281 156.576094 
Q 255.228281 158.776094 257.428281 158.776094 
z
" style="fill: #ffffff; opacity: 0.8; stroke: #cccccc; stroke-width: 1.5; stroke-linejoin: miter"/>
    </g>
    <g id="line2d_17">
     <path d="M 260.728281 27.583906 
L 271.728281 27.583906 
L 282.728281 27.583906 
" style="fill: none; stroke: #ec635c; stroke-width: 1.5; stroke-linecap: square"/>
    </g>
    <g id="text_11">
     <!-- kalter Wintertag -->
     <g transform="translate(291.528281 31.433906)scale(0.11 -0.11)">
      <defs>
       <path id="DejaVuSerif-6b" d="M 1831 0 
L 219 0 
L 219 331 
L 738 331 
L 738 4531 
L 184 4531 
L 184 4863 
L 1313 4863 
L 1313 1697 
L 2713 2988 
L 2234 2988 
L 2234 3322 
L 3738 3322 
L 3738 2988 
L 3169 2988 
L 2181 2075 
L 3444 331 
L 3922 331 
L 3922 0 
L 2284 0 
L 2284 331 
L 2759 331 
L 1766 1697 
L 1313 1275 
L 1313 331 
L 1831 331 
L 1831 0 
z
" transform="scale(0.015625)"/>
       <path id="DejaVuSerif-6c" d="M 1313 331 
L 1856 331 
L 1856 0 
L 184 0 
L 184 331 
L 738 331 
L 738 4531 
L 184 4531 
L 184 4863 
L 1313 4863 
L 1313 331 
z
" transform="scale(0.015625)"/>
       <path id="DejaVuSerif-57" d="M 4878 0 
L 4366 0 
L 3297 3794 
L 2228 0 
L 1716 0 
L 494 4331 
L 31 4331 
L 31 4666 
L 1734 4666 
L 1734 4331 
L 1153 4331 
L 2125 884 
L 3188 4666 
L 3694 4666 
L 4775 844 
L 5753 4331 
L 5216 4331 
L 5216 4666 
L 6559 4666 
L 6559 4331 
L 6100 4331 
L 4878 0 
z
" transform="scale(0.015625)"/>
      </defs>
      <use xlink:href="#DejaVuSerif-6b"/>
      <use xlink:href="#DejaVuSerif-61" x="60.595703"/>
      <use xlink:href="#DejaVuSerif-6c" x="120.214844"/>
      <use xlink:href="#DejaVuSerif-74" x="152.197266"/>
      <use xlink:href="#DejaVuSerif-65" x="192.382812"/>
      <use xlink:href="#DejaVuSerif-72" x="251.5625"/>
      <use xlink:href="#DejaVuSerif-20" x="299.365234"/>
      <use xlink:href="#DejaVuSerif-57" x="331.152344"/>
      <use xlink:href="#DejaVuSerif-69" x="432.185547"/>
      <use xlink:href="#DejaVuSerif-6e" x="464.167969"/>
      <use xlink:href="#DejaVuSerif-74" x="528.572266"/>
      <use xlink:href="#DejaVuSerif-65" x="568.757812"/>
      <use xlink:href="#DejaVuSerif-72" x="627.9375"/>
      <use xlink:href="#DejaVuSerif-74" x="675.740234"/>
      <use xlink:href="#DejaVuSerif-61" x="715.925781"/>
      <use xlink:href="#DejaVuSerif-67" x="775.544922"/>
     </g>
    </g>
    <g id="line2d_18">
     <path d="M 260.728281 43.88625 
L 271.728281 43.88625 
L 282.728281 43.88625 
" style="fill: none; stroke-dasharray: 5.55,2.4; stroke-dashoffset: 0; stroke: #4b81c4; stroke-width: 1.5"/>
    </g>
    <g id="text_12">
     <!-- Wintertag -->
     <g transform="translate(291.528281 47.73625)scale(0.11 -0.11)">
      <use xlink:href="#DejaVuSerif-57"/>
      <use xlink:href="#DejaVuSerif-69" x="101.033203"/>
      <use xlink:href="#DejaVuSerif-6e" x="133.015625"/>
      <use xlink:href="#DejaVuSerif-74" x="197.419922"/>
      <use xlink:href="#DejaVuSerif-65" x="237.605469"/>
      <use xlink:href="#DejaVuSerif-72" x="296.785156"/>
      <use xlink:href="#DejaVuSerif-74" x="344.587891"/>
      <use xlink:href="#DejaVuSerif-61" x="384.773438"/>
      <use xlink:href="#DejaVuSerif-67" x="444.392578"/>
     </g>
    </g>
    <g id="line2d_19">
     <path d="M 260.728281 60.257344 
L 271.728281 60.257344 
L 282.728281 60.257344 
" style="fill: none; stroke-dasharray: 9.6,2.4,1.5,2.4; stroke-dashoffset: 0; stroke: #f49961; stroke-width: 1.5"/>
    </g>
    <g id="text_13">
     <!-- bewölkter Tag -->
     <g transform="translate(291.528281 64.107344)scale(0.11 -0.11)">
      <defs>
       <path id="DejaVuSerif-62" d="M 738 331 
L 738 4531 
L 184 4531 
L 184 4863 
L 1313 4863 
L 1313 2803 
Q 1481 3116 1742 3264 
Q 2003 3413 2388 3413 
Q 3000 3413 3387 2928 
Q 3775 2444 3775 1663 
Q 3775 881 3387 395 
Q 3000 -91 2388 -91 
Q 2003 -91 1742 57 
Q 1481 206 1313 519 
L 1313 0 
L 184 0 
L 184 331 
L 738 331 
z
M 1313 1497 
Q 1313 897 1542 583 
Q 1772 269 2209 269 
Q 2650 269 2876 622 
Q 3103 975 3103 1663 
Q 3103 2353 2876 2703 
Q 2650 3053 2209 3053 
Q 1772 3053 1542 2737 
Q 1313 2422 1313 1825 
L 1313 1497 
z
" transform="scale(0.015625)"/>
       <path id="DejaVuSerif-77" d="M 3072 3322 
L 3922 728 
L 4672 2988 
L 4191 2988 
L 4191 3322 
L 5394 3322 
L 5394 2988 
L 5025 2988 
L 4038 0 
L 3559 0 
L 2741 2484 
L 1919 0 
L 1459 0 
L 475 2988 
L 103 2988 
L 103 3322 
L 1606 3322 
L 1606 2988 
L 1069 2988 
L 1813 728 
L 2669 3322 
L 3072 3322 
z
" transform="scale(0.015625)"/>
       <path id="DejaVuSerif-f6" d="M 1925 219 
Q 2388 219 2623 584 
Q 2859 950 2859 1663 
Q 2859 2375 2623 2739 
Q 2388 3103 1925 3103 
Q 1463 3103 1227 2739 
Q 991 2375 991 1663 
Q 991 950 1228 584 
Q 1466 219 1925 219 
z
M 1925 -91 
Q 1200 -91 759 389 
Q 319 869 319 1663 
Q 319 2456 758 2934 
Q 1197 3413 1925 3413 
Q 2653 3413 3092 2934 
Q 3531 2456 3531 1663 
Q 3531 869 3092 389 
Q 2653 -91 1925 -91 
z
M 1319 4903 
Q 1469 4903 1576 4795 
Q 1684 4688 1684 4538 
Q 1684 4378 1581 4275 
Q 1478 4172 1319 4172 
Q 1162 4172 1059 4275 
Q 956 4378 956 4538 
Q 956 4688 1064 4795 
Q 1172 4903 1319 4903 
z
M 2537 4903 
Q 2684 4903 2792 4795 
Q 2900 4688 2900 4538 
Q 2900 4378 2797 4275 
Q 2694 4172 2537 4172 
Q 2378 4172 2275 4275 
Q 2172 4378 2172 4538 
Q 2172 4688 2279 4795 
Q 2387 4903 2537 4903 
z
" transform="scale(0.015625)"/>
      </defs>
      <use xlink:href="#DejaVuSerif-62"/>
      <use xlink:href="#DejaVuSerif-65" x="64.013672"/>
      <use xlink:href="#DejaVuSerif-77" x="123.193359"/>
      <use xlink:href="#DejaVuSerif-f6" x="208.789062"/>
      <use xlink:href="#DejaVuSerif-6c" x="268.994141"/>
      <use xlink:href="#DejaVuSerif-6b" x="300.976562"/>
      <use xlink:href="#DejaVuSerif-74" x="361.572266"/>
      <use xlink:href="#DejaVuSerif-65" x="401.757812"/>
      <use xlink:href="#DejaVuSerif-72" x="460.9375"/>
      <use xlink:href="#DejaVuSerif-20" x="508.740234"/>
      <use xlink:href="#DejaVuSerif-54" x="540.527344"/>
      <use xlink:href="#DejaVuSerif-61" x="599.476562"/>
      <use xlink:href="#DejaVuSerif-67" x="659.095703"/>
     </g>
    </g>
    <g id="line2d_20">
     <path d="M 260.728281 78.297344 
L 271.728281 78.297344 
L 282.728281 78.297344 
" style="fill: none; stroke-dasharray: 1.5,2.475; stroke-dashoffset: 0; stroke: #808080; stroke-width: 1.5"/>
    </g>
    <g id="text_14">
     <!-- Übergangstag 1 -->
     <g transform="translate(291.528281 82.147344)scale(0.11 -0.11)">
      <defs>
       <path id="DejaVuSerif-dc" d="M 897 4331 
L 300 4331 
L 300 4666 
L 2125 4666 
L 2125 4331 
L 1528 4331 
L 1528 1919 
Q 1528 1025 1820 672 
Q 2113 319 2828 319 
Q 3544 319 3836 672 
Q 4128 1025 4128 1919 
L 4128 4331 
L 3531 4331 
L 3531 4666 
L 5106 4666 
L 5106 4331 
L 4513 4331 
L 4513 1856 
Q 4513 791 4103 350 
Q 3694 -91 2713 -91 
Q 1731 -91 1314 353 
Q 897 797 897 1856 
L 897 4331 
z
M 2215 5874 
Q 2365 5874 2472 5764 
Q 2580 5655 2580 5511 
Q 2580 5355 2475 5250 
Q 2371 5146 2215 5146 
Q 2062 5146 1957 5250 
Q 1852 5355 1852 5511 
Q 1852 5655 1960 5764 
Q 2068 5874 2215 5874 
z
M 3433 5874 
Q 3580 5874 3688 5764 
Q 3796 5655 3796 5511 
Q 3796 5355 3691 5250 
Q 3587 5146 3433 5146 
Q 3277 5146 3172 5250 
Q 3068 5355 3068 5511 
Q 3068 5655 3175 5764 
Q 3283 5874 3433 5874 
z
" transform="scale(0.015625)"/>
      </defs>
      <use xlink:href="#DejaVuSerif-dc"/>
      <use xlink:href="#DejaVuSerif-62" x="84.277344"/>
      <use xlink:href="#DejaVuSerif-65" x="148.291016"/>
      <use xlink:href="#DejaVuSerif-72" x="207.470703"/>
      <use xlink:href="#DejaVuSerif-67" x="255.273438"/>
      <use xlink:href="#DejaVuSerif-61" x="319.287109"/>
      <use xlink:href="#DejaVuSerif-6e" x="378.90625"/>
      <use xlink:href="#DejaVuSerif-67" x="443.310547"/>
      <use xlink:href="#DejaVuSerif-73" x="507.324219"/>
      <use xlink:href="#DejaVuSerif-74" x="558.642578"/>
      <use xlink:href="#DejaVuSerif-61" x="598.828125"/>
      <use xlink:href="#DejaVuSerif-67" x="658.447266"/>
      <use xlink:href="#DejaVuSerif-20" x="722.460938"/>
      <use xlink:href="#DejaVuSerif-31" x="754.248047"/>
     </g>
    </g>
    <g id="line2d_21">
     <path d="M 260.728281 94.599688 
L 271.728281 94.599688 
L 282.728281 94.599688 
" style="fill: none; stroke-dasharray: 15,4.5; stroke-dashoffset: 7.5; stroke: #8768b4; stroke-width: 1.5"/>
    </g>
    <g id="text_15">
     <!-- Sommertag -->
     <g transform="translate(291.528281 98.449688)scale(0.11 -0.11)">
      <defs>
       <path id="DejaVuSerif-53" d="M 594 225 
L 594 1288 
L 953 1284 
Q 969 753 1261 498 
Q 1553 244 2150 244 
Q 2706 244 2998 464 
Q 3291 684 3291 1106 
Q 3291 1444 3114 1625 
Q 2938 1806 2369 1978 
L 1753 2163 
Q 1084 2366 811 2669 
Q 538 2972 538 3500 
Q 538 4094 959 4422 
Q 1381 4750 2144 4750 
Q 2469 4750 2856 4679 
Q 3244 4609 3681 4475 
L 3681 3481 
L 3328 3481 
Q 3275 3975 2998 4195 
Q 2722 4416 2156 4416 
Q 1663 4416 1405 4214 
Q 1147 4013 1147 3628 
Q 1147 3294 1340 3103 
Q 1534 2913 2163 2725 
L 2741 2553 
Q 3375 2363 3645 2067 
Q 3916 1772 3916 1275 
Q 3916 597 3481 253 
Q 3047 -91 2188 -91 
Q 1803 -91 1404 -12 
Q 1006 66 594 225 
z
" transform="scale(0.015625)"/>
       <path id="DejaVuSerif-6f" d="M 1925 219 
Q 2388 219 2623 584 
Q 2859 950 2859 1663 
Q 2859 2375 2623 2739 
Q 2388 3103 1925 3103 
Q 1463 3103 1227 2739 
Q 991 2375 991 1663 
Q 991 950 1228 584 
Q 1466 219 1925 219 
z
M 1925 -91 
Q 1200 -91 759 389 
Q 319 869 319 1663 
Q 319 2456 758 2934 
Q 1197 3413 1925 3413 
Q 2653 3413 3092 2934 
Q 3531 2456 3531 1663 
Q 3531 869 3092 389 
Q 2653 -91 1925 -91 
z
" transform="scale(0.015625)"/>
      </defs>
      <use xlink:href="#DejaVuSerif-53"/>
      <use xlink:href="#DejaVuSerif-6f" x="68.505859"/>
      <use xlink:href="#DejaVuSerif-6d" x="128.710938"/>
      <use xlink:href="#DejaVuSerif-6d" x="223.535156"/>
      <use xlink:href="#DejaVuSerif-65" x="318.359375"/>
      <use xlink:href="#DejaVuSerif-72" x="377.539062"/>
      <use xlink:href="#DejaVuSerif-74" x="425.341797"/>
      <use xlink:href="#DejaVuSerif-61" x="465.527344"/>
      <use xlink:href="#DejaVuSerif-67" x="525.146484"/>
     </g>
    </g>
    <g id="line2d_22">
     <path d="M 260.728281 110.902031 
L 271.728281 110.902031 
L 282.728281 110.902031 
" style="fill: none; stroke-dasharray: 4.5,1.5,3,1.5,3,1.5; stroke-dashoffset: 1.5; stroke: #b45955; stroke-width: 1.5"/>
    </g>
    <g id="text_16">
     <!-- Hochsommertag -->
     <g transform="translate(291.528281 114.752031)scale(0.11 -0.11)">
      <defs>
       <path id="DejaVuSerif-48" d="M 353 0 
L 353 331 
L 947 331 
L 947 4331 
L 353 4331 
L 353 4666 
L 2175 4666 
L 2175 4331 
L 1581 4331 
L 1581 2719 
L 4000 2719 
L 4000 4331 
L 3406 4331 
L 3406 4666 
L 5228 4666 
L 5228 4331 
L 4634 4331 
L 4634 331 
L 5228 331 
L 5228 0 
L 3406 0 
L 3406 331 
L 4000 331 
L 4000 2338 
L 1581 2338 
L 1581 331 
L 2175 331 
L 2175 0 
L 353 0 
z
" transform="scale(0.015625)"/>
       <path id="DejaVuSerif-63" d="M 3291 997 
Q 3169 466 2822 187 
Q 2475 -91 1925 -91 
Q 1200 -91 759 389 
Q 319 869 319 1663 
Q 319 2459 759 2936 
Q 1200 3413 1925 3413 
Q 2241 3413 2553 3339 
Q 2866 3266 3181 3116 
L 3181 2266 
L 2847 2266 
Q 2781 2703 2561 2903 
Q 2341 3103 1931 3103 
Q 1466 3103 1228 2742 
Q 991 2381 991 1663 
Q 991 944 1227 581 
Q 1463 219 1931 219 
Q 2303 219 2525 412 
Q 2747 606 2828 997 
L 3291 997 
z
" transform="scale(0.015625)"/>
      </defs>
      <use xlink:href="#DejaVuSerif-48"/>
      <use xlink:href="#DejaVuSerif-6f" x="87.207031"/>
      <use xlink:href="#DejaVuSerif-63" x="147.412109"/>
      <use xlink:href="#DejaVuSerif-68" x="203.417969"/>
      <use xlink:href="#DejaVuSerif-73" x="267.822266"/>
      <use xlink:href="#DejaVuSerif-6f" x="319.140625"/>
      <use xlink:href="#DejaVuSerif-6d" x="379.345703"/>
      <use xlink:href="#DejaVuSerif-6d" x="474.169922"/>
      <use xlink:href="#DejaVuSerif-65" x="568.994141"/>
      <use xlink:href="#DejaVuSerif-72" x="628.173828"/>
      <use xlink:href="#DejaVuSerif-74" x="675.976562"/>
      <use xlink:href="#DejaVuSerif-61" x="716.162109"/>
      <use xlink:href="#DejaVuSerif-67" x="775.78125"/>
     </g>
    </g>
    <g id="line2d_23">
     <path d="M 260.728281 128.942031 
L 271.728281 128.942031 
L 282.728281 128.942031 
" style="fill: none; stroke-dasharray: 4.5,7.5,1.5,7.5,1.5,7.5; stroke-dashoffset: 0; stroke: #cb74f4; stroke-width: 1.5"/>
    </g>
    <g id="text_17">
     <!-- Übergangstag 2 -->
     <g transform="translate(291.528281 132.792031)scale(0.11 -0.11)">
      <use xlink:href="#DejaVuSerif-dc"/>
      <use xlink:href="#DejaVuSerif-62" x="84.277344"/>
      <use xlink:href="#DejaVuSerif-65" x="148.291016"/>
      <use xlink:href="#DejaVuSerif-72" x="207.470703"/>
      <use xlink:href="#DejaVuSerif-67" x="255.273438"/>
      <use xlink:href="#DejaVuSerif-61" x="319.287109"/>
      <use xlink:href="#DejaVuSerif-6e" x="378.90625"/>
      <use xlink:href="#DejaVuSerif-67" x="443.310547"/>
      <use xlink:href="#DejaVuSerif-73" x="507.324219"/>
      <use xlink:href="#DejaVuSerif-74" x="558.642578"/>
      <use xlink:href="#DejaVuSerif-61" x="598.828125"/>
      <use xlink:href="#DejaVuSerif-67" x="658.447266"/>
      <use xlink:href="#DejaVuSerif-20" x="722.460938"/>
      <use xlink:href="#DejaVuSerif-32" x="754.248047"/>
     </g>
    </g>
    <g id="line2d_24">
     <path d="M 260.728281 146.982031 
L 271.728281 146.982031 
L 282.728281 146.982031 
" style="fill: none; stroke-dasharray: 7.5,7.5; stroke-dashoffset: 0; stroke: #808080; stroke-width: 1.5"/>
    </g>
    <g id="text_18">
     <!-- bewölkter Übergangstag -->
     <g transform="translate(291.528281 150.832031)scale(0.11 -0.11)">
      <use xlink:href="#DejaVuSerif-62"/>
      <use xlink:href="#DejaVuSerif-65" x="64.013672"/>
      <use xlink:href="#DejaVuSerif-77" x="123.193359"/>
      <use xlink:href="#DejaVuSerif-f6" x="208.789062"/>
      <use xlink:href="#DejaVuSerif-6c" x="268.994141"/>
      <use xlink:href="#DejaVuSerif-6b" x="300.976562"/>
      <use xlink:href="#DejaVuSerif-74" x="361.572266"/>
      <use xlink:href="#DejaVuSerif-65" x="401.757812"/>
      <use xlink:href="#DejaVuSerif-72" x="460.9375"/>
      <use xlink:href="#DejaVuSerif-20" x="508.740234"/>
      <use xlink:href="#DejaVuSerif-dc" x="540.527344"/>
      <use xlink:href="#DejaVuSerif-62" x="624.804688"/>
      <use xlink:href="#DejaVuSerif-65" x="688.818359"/>
      <use xlink:href="#DejaVuSerif-72" x="747.998047"/>
      <use xlink:href="#DejaVuSerif-67" x="795.800781"/>
      <use xlink:href="#DejaVuSerif-61" x="859.814453"/>
      <use xlink:href="#DejaVuSerif-6e" x="919.433594"/>
      <use xlink:href="#DejaVuSerif-67" x="983.837891"/>
      <use xlink:href="#DejaVuSerif-73" x="1047.851562"/>
      <use xlink:href="#DejaVuSerif-74" x="1099.169922"/>
      <use xlink:href="#DejaVuSerif-61" x="1139.355469"/>
      <use xlink:href="#DejaVuSerif-67" x="1198.974609"/>
     </g>
    </g>
   </g>
  </g>
 </g>
 <defs>
  <clipPath id="p2fb3ace562">
   <rect x="49.742344" y="11.88" width="199.985937" height="152.591719"/>
  </clipPath>
 </defs>
</svg>
