<?xml version="1.0" encoding="utf-8" standalone="no"?>
<!DOCTYPE svg PUBLIC "-//W3C//DTD SVG 1.1//EN"
  "http://www.w3.org/Graphics/SVG/1.1/DTD/svg11.dtd">
<svg xmlns:xlink="http://www.w3.org/1999/xlink" width="447.84pt" height="252pt" viewBox="0 0 447.84 252" xmlns="http://www.w3.org/2000/svg" version="1.1">
 <metadata>
  <rdf:RDF xmlns:dc="http://purl.org/dc/elements/1.1/" xmlns:cc="http://creativecommons.org/ns#" xmlns:rdf="http://www.w3.org/1999/02/22-rdf-syntax-ns#">
   <cc:Work>
    <dc:type rdf:resource="http://purl.org/dc/dcmitype/StillImage"/>
    <dc:date>2023-05-04T13:38:26.822238</dc:date>
    <dc:format>image/svg+xml</dc:format>
    <dc:creator>
     <cc:Agent>
      <dc:title>Matplotlib v3.5.3, https://matplotlib.org/</dc:title>
     </cc:Agent>
    </dc:creator>
   </cc:Work>
  </rdf:RDF>
 </metadata>
 <defs>
  <style type="text/css">*{stroke-linejoin: round; stroke-linecap: butt}</style>
 </defs>
 <g id="figure_1">
  <g id="patch_1">
   <path d="M 0 252 
L 447.84 252 
L 447.84 0 
L 0 0 
z
" style="fill: #ffffff"/>
  </g>
  <g id="axes_1">
   <g id="patch_2">
    <path d="M 75.173761 187.320737 
Q 95.485586 158.169187 116.756149 127.641656 
" style="fill: none; stroke: #000000; stroke-width: 1.5; stroke-linecap: round"/>
    <path d="M 77.357619 186.131668 
L 75.173761 187.320737 
L 75.53282 184.86021 
" style="fill: none; stroke: #000000; stroke-width: 1.5; stroke-linecap: round"/>
   </g>
   <g id="text_1">
    <g id="patch_3">
     <path d="M 15.466079 212.998456 
L 114.313921 212.998456 
L 114.313921 191.082485 
L 15.466079 191.082485 
z
" style="fill: #ffffff; stroke: #ec635c; stroke-width: 1.5; stroke-linejoin: miter"/>
    </g>
    <!-- gini = 0.41 -->
    <g transform="translate(49.254599 197.309018)scale(0.055602 -0.055602)">
     <defs>
      <path id="DejaVuSerif-67" d="M 3359 2988 
L 3359 72 
Q 3359 -644 2965 -1033 
Q 2572 -1422 1844 -1422 
Q 1516 -1422 1216 -1362 
Q 916 -1303 641 -1184 
L 641 -488 
L 941 -488 
Q 997 -813 1206 -963 
Q 1416 -1113 1806 -1113 
Q 2313 -1113 2548 -827 
Q 2784 -541 2784 72 
L 2784 519 
Q 2616 206 2355 57 
Q 2094 -91 1709 -91 
Q 1097 -91 708 395 
Q 319 881 319 1663 
Q 319 2444 706 2928 
Q 1094 3413 1709 3413 
Q 2094 3413 2355 3264 
Q 2616 3116 2784 2803 
L 2784 3322 
L 3909 3322 
L 3909 2988 
L 3359 2988 
z
M 2784 1825 
Q 2784 2422 2554 2737 
Q 2325 3053 1888 3053 
Q 1444 3053 1217 2703 
Q 991 2353 991 1663 
Q 991 975 1217 622 
Q 1444 269 1888 269 
Q 2325 269 2554 583 
Q 2784 897 2784 1497 
L 2784 1825 
z
" transform="scale(0.015625)"/>
      <path id="DejaVuSerif-69" d="M 622 4353 
Q 622 4497 726 4603 
Q 831 4709 978 4709 
Q 1122 4709 1226 4603 
Q 1331 4497 1331 4353 
Q 1331 4206 1228 4103 
Q 1125 4000 978 4000 
Q 831 4000 726 4103 
Q 622 4206 622 4353 
z
M 1356 331 
L 1900 331 
L 1900 0 
L 231 0 
L 231 331 
L 781 331 
L 781 2988 
L 231 2988 
L 231 3322 
L 1356 3322 
L 1356 331 
z
" transform="scale(0.015625)"/>
      <path id="DejaVuSerif-6e" d="M 263 0 
L 263 331 
L 781 331 
L 781 2988 
L 231 2988 
L 231 3322 
L 1356 3322 
L 1356 2731 
Q 1516 3069 1770 3241 
Q 2025 3413 2363 3413 
Q 2913 3413 3172 3097 
Q 3431 2781 3431 2113 
L 3431 331 
L 3944 331 
L 3944 0 
L 2356 0 
L 2356 331 
L 2853 331 
L 2853 1931 
Q 2853 2541 2703 2767 
Q 2553 2994 2175 2994 
Q 1775 2994 1565 2701 
Q 1356 2409 1356 1850 
L 1356 331 
L 1856 331 
L 1856 0 
L 263 0 
z
" transform="scale(0.015625)"/>
      <path id="DejaVuSerif-20" transform="scale(0.015625)"/>
      <path id="DejaVuSerif-3d" d="M 678 2894 
L 4684 2894 
L 4684 2394 
L 678 2394 
L 678 2894 
z
M 678 1619 
L 4684 1619 
L 4684 1119 
L 678 1119 
L 678 1619 
z
" transform="scale(0.015625)"/>
      <path id="DejaVuSerif-30" d="M 2034 219 
Q 2513 219 2750 744 
Q 2988 1269 2988 2328 
Q 2988 3391 2750 3916 
Q 2513 4441 2034 4441 
Q 1556 4441 1318 3916 
Q 1081 3391 1081 2328 
Q 1081 1269 1318 744 
Q 1556 219 2034 219 
z
M 2034 -91 
Q 1275 -91 848 546 
Q 422 1184 422 2328 
Q 422 3475 848 4112 
Q 1275 4750 2034 4750 
Q 2797 4750 3222 4112 
Q 3647 3475 3647 2328 
Q 3647 1184 3222 546 
Q 2797 -91 2034 -91 
z
" transform="scale(0.015625)"/>
      <path id="DejaVuSerif-2e" d="M 603 325 
Q 603 500 722 622 
Q 841 744 1019 744 
Q 1191 744 1312 622 
Q 1434 500 1434 325 
Q 1434 153 1312 31 
Q 1191 -91 1019 -91 
Q 841 -91 722 29 
Q 603 150 603 325 
z
" transform="scale(0.015625)"/>
      <path id="DejaVuSerif-34" d="M 2234 1581 
L 2234 4063 
L 641 1581 
L 2234 1581 
z
M 3609 0 
L 1484 0 
L 1484 331 
L 2234 331 
L 2234 1247 
L 197 1247 
L 197 1588 
L 2241 4750 
L 2859 4750 
L 2859 1581 
L 3750 1581 
L 3750 1247 
L 2859 1247 
L 2859 331 
L 3609 331 
L 3609 0 
z
" transform="scale(0.015625)"/>
      <path id="DejaVuSerif-31" d="M 909 0 
L 909 331 
L 1722 331 
L 1722 4213 
L 781 3603 
L 781 4013 
L 1919 4750 
L 2350 4750 
L 2350 331 
L 3163 331 
L 3163 0 
L 909 0 
z
" transform="scale(0.015625)"/>
     </defs>
     <use xlink:href="#DejaVuSerif-67"/>
     <use xlink:href="#DejaVuSerif-69" x="64.013672"/>
     <use xlink:href="#DejaVuSerif-6e" x="95.996094"/>
     <use xlink:href="#DejaVuSerif-69" x="160.400391"/>
     <use xlink:href="#DejaVuSerif-20" x="192.382812"/>
     <use xlink:href="#DejaVuSerif-3d" x="224.169922"/>
     <use xlink:href="#DejaVuSerif-20" x="307.958984"/>
     <use xlink:href="#DejaVuSerif-30" x="339.746094"/>
     <use xlink:href="#DejaVuSerif-2e" x="403.369141"/>
     <use xlink:href="#DejaVuSerif-34" x="435.15625"/>
     <use xlink:href="#DejaVuSerif-31" x="498.779297"/>
    </g>
    <!-- samples = 17835 -->
    <g transform="translate(40.487759 203.614262)scale(0.055602 -0.055602)">
     <defs>
      <path id="DejaVuSerif-73" d="M 359 184 
L 359 959 
L 691 959 
Q 703 588 923 403 
Q 1144 219 1575 219 
Q 1963 219 2166 364 
Q 2369 509 2369 788 
Q 2369 1006 2220 1140 
Q 2072 1275 1594 1428 
L 1178 1569 
Q 750 1706 558 1912 
Q 366 2119 366 2438 
Q 366 2894 700 3153 
Q 1034 3413 1625 3413 
Q 1888 3413 2178 3344 
Q 2469 3275 2778 3144 
L 2778 2419 
L 2447 2419 
Q 2434 2741 2221 2922 
Q 2009 3103 1644 3103 
Q 1281 3103 1095 2975 
Q 909 2847 909 2591 
Q 909 2381 1050 2254 
Q 1191 2128 1613 1997 
L 2069 1856 
Q 2541 1709 2748 1489 
Q 2956 1269 2956 922 
Q 2956 450 2595 179 
Q 2234 -91 1600 -91 
Q 1278 -91 972 -22 
Q 666 47 359 184 
z
" transform="scale(0.015625)"/>
      <path id="DejaVuSerif-61" d="M 2547 1044 
L 2547 1747 
L 1806 1747 
Q 1378 1747 1168 1562 
Q 959 1378 959 997 
Q 959 650 1171 447 
Q 1384 244 1747 244 
Q 2106 244 2326 466 
Q 2547 688 2547 1044 
z
M 3122 2075 
L 3122 331 
L 3634 331 
L 3634 0 
L 2547 0 
L 2547 359 
Q 2356 128 2106 18 
Q 1856 -91 1522 -91 
Q 969 -91 644 203 
Q 319 497 319 997 
Q 319 1513 691 1797 
Q 1063 2081 1741 2081 
L 2547 2081 
L 2547 2309 
Q 2547 2688 2317 2895 
Q 2088 3103 1672 3103 
Q 1328 3103 1125 2947 
Q 922 2791 872 2484 
L 575 2484 
L 575 3156 
Q 875 3284 1158 3348 
Q 1441 3413 1709 3413 
Q 2400 3413 2761 3070 
Q 3122 2728 3122 2075 
z
" transform="scale(0.015625)"/>
      <path id="DejaVuSerif-6d" d="M 3316 2675 
Q 3481 3041 3739 3227 
Q 3997 3413 4341 3413 
Q 4863 3413 5119 3089 
Q 5375 2766 5375 2113 
L 5375 331 
L 5894 331 
L 5894 0 
L 4300 0 
L 4300 331 
L 4800 331 
L 4800 2047 
Q 4800 2556 4650 2772 
Q 4500 2988 4153 2988 
Q 3769 2988 3567 2697 
Q 3366 2406 3366 1850 
L 3366 331 
L 3866 331 
L 3866 0 
L 2291 0 
L 2291 331 
L 2791 331 
L 2791 2069 
Q 2791 2566 2641 2777 
Q 2491 2988 2144 2988 
Q 1759 2988 1557 2697 
Q 1356 2406 1356 1850 
L 1356 331 
L 1856 331 
L 1856 0 
L 263 0 
L 263 331 
L 781 331 
L 781 2994 
L 231 2994 
L 231 3322 
L 1356 3322 
L 1356 2731 
Q 1516 3063 1762 3238 
Q 2009 3413 2322 3413 
Q 2709 3413 2968 3220 
Q 3228 3028 3316 2675 
z
" transform="scale(0.015625)"/>
      <path id="DejaVuSerif-70" d="M 1313 1825 
L 1313 1497 
Q 1313 897 1542 583 
Q 1772 269 2209 269 
Q 2650 269 2876 622 
Q 3103 975 3103 1663 
Q 3103 2353 2876 2703 
Q 2650 3053 2209 3053 
Q 1772 3053 1542 2737 
Q 1313 2422 1313 1825 
z
M 738 2988 
L 184 2988 
L 184 3322 
L 1313 3322 
L 1313 2803 
Q 1481 3116 1742 3264 
Q 2003 3413 2388 3413 
Q 3000 3413 3387 2928 
Q 3775 2444 3775 1663 
Q 3775 881 3387 395 
Q 3000 -91 2388 -91 
Q 2003 -91 1742 57 
Q 1481 206 1313 519 
L 1313 -997 
L 1856 -997 
L 1856 -1331 
L 184 -1331 
L 184 -997 
L 738 -997 
L 738 2988 
z
" transform="scale(0.015625)"/>
      <path id="DejaVuSerif-6c" d="M 1313 331 
L 1856 331 
L 1856 0 
L 184 0 
L 184 331 
L 738 331 
L 738 4531 
L 184 4531 
L 184 4863 
L 1313 4863 
L 1313 331 
z
" transform="scale(0.015625)"/>
      <path id="DejaVuSerif-65" d="M 3469 1600 
L 991 1600 
L 991 1575 
Q 991 903 1244 561 
Q 1497 219 1991 219 
Q 2369 219 2611 417 
Q 2853 616 2950 1006 
L 3413 1006 
Q 3275 459 2904 184 
Q 2534 -91 1931 -91 
Q 1203 -91 761 389 
Q 319 869 319 1663 
Q 319 2450 753 2931 
Q 1188 3413 1894 3413 
Q 2647 3413 3050 2948 
Q 3453 2484 3469 1600 
z
M 2791 1931 
Q 2772 2513 2545 2808 
Q 2319 3103 1894 3103 
Q 1497 3103 1269 2806 
Q 1041 2509 991 1931 
L 2791 1931 
z
" transform="scale(0.015625)"/>
      <path id="DejaVuSerif-37" d="M 3609 4347 
L 1784 0 
L 1319 0 
L 3059 4153 
L 903 4153 
L 903 3578 
L 538 3578 
L 538 4666 
L 3609 4666 
L 3609 4347 
z
" transform="scale(0.015625)"/>
      <path id="DejaVuSerif-38" d="M 2981 1275 
Q 2981 1775 2732 2051 
Q 2484 2328 2034 2328 
Q 1584 2328 1336 2051 
Q 1088 1775 1088 1275 
Q 1088 772 1336 495 
Q 1584 219 2034 219 
Q 2484 219 2732 495 
Q 2981 772 2981 1275 
z
M 2853 3541 
Q 2853 3966 2637 4203 
Q 2422 4441 2034 4441 
Q 1650 4441 1433 4203 
Q 1216 3966 1216 3541 
Q 1216 3113 1433 2875 
Q 1650 2638 2034 2638 
Q 2422 2638 2637 2875 
Q 2853 3113 2853 3541 
z
M 2516 2484 
Q 3047 2413 3344 2092 
Q 3641 1772 3641 1275 
Q 3641 619 3225 264 
Q 2809 -91 2034 -91 
Q 1263 -91 845 264 
Q 428 619 428 1275 
Q 428 1772 725 2092 
Q 1022 2413 1556 2484 
Q 1084 2569 832 2842 
Q 581 3116 581 3541 
Q 581 4103 968 4426 
Q 1356 4750 2034 4750 
Q 2713 4750 3100 4426 
Q 3488 4103 3488 3541 
Q 3488 3116 3236 2842 
Q 2984 2569 2516 2484 
z
" transform="scale(0.015625)"/>
      <path id="DejaVuSerif-33" d="M 622 4469 
Q 988 4606 1323 4678 
Q 1659 4750 1953 4750 
Q 2638 4750 3022 4454 
Q 3406 4159 3406 3634 
Q 3406 3213 3140 2930 
Q 2875 2647 2388 2547 
Q 2963 2466 3280 2130 
Q 3597 1794 3597 1259 
Q 3597 606 3158 257 
Q 2719 -91 1894 -91 
Q 1528 -91 1179 -12 
Q 831 66 488 225 
L 488 1131 
L 838 1131 
Q 869 681 1141 450 
Q 1413 219 1906 219 
Q 2384 219 2661 495 
Q 2938 772 2938 1253 
Q 2938 1803 2653 2086 
Q 2369 2369 1819 2369 
L 1522 2369 
L 1522 2688 
L 1678 2688 
Q 2225 2688 2498 2914 
Q 2772 3141 2772 3597 
Q 2772 4006 2547 4223 
Q 2322 4441 1900 4441 
Q 1478 4441 1245 4241 
Q 1013 4041 972 3647 
L 622 3647 
L 622 4469 
z
" transform="scale(0.015625)"/>
      <path id="DejaVuSerif-35" d="M 3219 4666 
L 3219 4153 
L 1081 4153 
L 1081 2816 
Q 1244 2928 1461 2984 
Q 1678 3041 1947 3041 
Q 2703 3041 3140 2622 
Q 3578 2203 3578 1478 
Q 3578 738 3136 323 
Q 2694 -91 1894 -91 
Q 1572 -91 1234 -12 
Q 897 66 544 225 
L 544 1131 
L 897 1131 
Q 925 688 1179 453 
Q 1434 219 1894 219 
Q 2388 219 2653 544 
Q 2919 869 2919 1478 
Q 2919 2084 2655 2407 
Q 2391 2731 1894 2731 
Q 1613 2731 1398 2631 
Q 1184 2531 1019 2322 
L 750 2322 
L 750 4666 
L 3219 4666 
z
" transform="scale(0.015625)"/>
     </defs>
     <use xlink:href="#DejaVuSerif-73"/>
     <use xlink:href="#DejaVuSerif-61" x="51.318359"/>
     <use xlink:href="#DejaVuSerif-6d" x="110.9375"/>
     <use xlink:href="#DejaVuSerif-70" x="205.761719"/>
     <use xlink:href="#DejaVuSerif-6c" x="269.775391"/>
     <use xlink:href="#DejaVuSerif-65" x="301.757812"/>
     <use xlink:href="#DejaVuSerif-73" x="360.9375"/>
     <use xlink:href="#DejaVuSerif-20" x="412.255859"/>
     <use xlink:href="#DejaVuSerif-3d" x="444.042969"/>
     <use xlink:href="#DejaVuSerif-20" x="527.832031"/>
     <use xlink:href="#DejaVuSerif-31" x="559.619141"/>
     <use xlink:href="#DejaVuSerif-37" x="623.242188"/>
     <use xlink:href="#DejaVuSerif-38" x="686.865234"/>
     <use xlink:href="#DejaVuSerif-33" x="750.488281"/>
     <use xlink:href="#DejaVuSerif-35" x="814.111328"/>
    </g>
    <!-- value = [13408, 1720, 526, 2181] -->
    <g transform="translate(17.467744 209.840448)scale(0.055602 -0.055602)">
     <defs>
      <path id="DejaVuSerif-76" d="M 1581 0 
L 359 2988 
L -19 2988 
L -19 3322 
L 1509 3322 
L 1509 2988 
L 978 2988 
L 1913 703 
L 2847 2988 
L 2350 2988 
L 2350 3322 
L 3597 3322 
L 3597 2988 
L 3225 2988 
L 2003 0 
L 1581 0 
z
" transform="scale(0.015625)"/>
      <path id="DejaVuSerif-75" d="M 2266 3322 
L 3341 3322 
L 3341 331 
L 3884 331 
L 3884 0 
L 2766 0 
L 2766 588 
Q 2606 256 2353 82 
Q 2100 -91 1766 -91 
Q 1213 -91 952 223 
Q 691 538 691 1209 
L 691 2988 
L 172 2988 
L 172 3322 
L 1269 3322 
L 1269 1388 
Q 1269 781 1417 556 
Q 1566 331 1947 331 
Q 2347 331 2556 625 
Q 2766 919 2766 1478 
L 2766 2988 
L 2266 2988 
L 2266 3322 
z
" transform="scale(0.015625)"/>
      <path id="DejaVuSerif-5b" d="M 550 4863 
L 2003 4863 
L 2003 4531 
L 1147 4531 
L 1147 -513 
L 2003 -513 
L 2003 -844 
L 550 -844 
L 550 4863 
z
" transform="scale(0.015625)"/>
      <path id="DejaVuSerif-2c" d="M 231 -622 
Q 525 -406 662 -114 
Q 800 178 800 594 
L 800 709 
L 1416 709 
Q 1391 175 1164 -208 
Q 938 -591 481 -872 
L 231 -622 
z
" transform="scale(0.015625)"/>
      <path id="DejaVuSerif-32" d="M 819 3553 
L 469 3553 
L 469 4384 
Q 803 4563 1142 4656 
Q 1481 4750 1806 4750 
Q 2534 4750 2956 4397 
Q 3378 4044 3378 3438 
Q 3378 2753 2422 1800 
Q 2347 1728 2309 1691 
L 1131 513 
L 3078 513 
L 3078 1088 
L 3444 1088 
L 3444 0 
L 434 0 
L 434 341 
L 1850 1753 
Q 2319 2222 2519 2614 
Q 2719 3006 2719 3438 
Q 2719 3909 2473 4175 
Q 2228 4441 1797 4441 
Q 1350 4441 1106 4219 
Q 863 3997 819 3553 
z
" transform="scale(0.015625)"/>
      <path id="DejaVuSerif-36" d="M 2094 219 
Q 2534 219 2771 542 
Q 3009 866 3009 1472 
Q 3009 2078 2771 2401 
Q 2534 2725 2094 2725 
Q 1647 2725 1412 2412 
Q 1178 2100 1178 1509 
Q 1178 888 1415 553 
Q 1653 219 2094 219 
z
M 1075 2569 
Q 1288 2803 1556 2918 
Q 1825 3034 2163 3034 
Q 2859 3034 3264 2615 
Q 3669 2197 3669 1472 
Q 3669 763 3233 336 
Q 2797 -91 2069 -91 
Q 1278 -91 853 498 
Q 428 1088 428 2181 
Q 428 3406 931 4078 
Q 1434 4750 2350 4750 
Q 2597 4750 2869 4703 
Q 3141 4656 3425 4563 
L 3425 3794 
L 3072 3794 
Q 3034 4109 2831 4275 
Q 2628 4441 2284 4441 
Q 1678 4441 1381 3981 
Q 1084 3522 1075 2569 
z
" transform="scale(0.015625)"/>
      <path id="DejaVuSerif-5d" d="M 1947 4863 
L 1947 -844 
L 494 -844 
L 494 -513 
L 1350 -513 
L 1350 4531 
L 494 4531 
L 494 4863 
L 1947 4863 
z
" transform="scale(0.015625)"/>
     </defs>
     <use xlink:href="#DejaVuSerif-76"/>
     <use xlink:href="#DejaVuSerif-61" x="56.494141"/>
     <use xlink:href="#DejaVuSerif-6c" x="116.113281"/>
     <use xlink:href="#DejaVuSerif-75" x="148.095703"/>
     <use xlink:href="#DejaVuSerif-65" x="212.5"/>
     <use xlink:href="#DejaVuSerif-20" x="271.679688"/>
     <use xlink:href="#DejaVuSerif-3d" x="303.466797"/>
     <use xlink:href="#DejaVuSerif-20" x="387.255859"/>
     <use xlink:href="#DejaVuSerif-5b" x="419.042969"/>
     <use xlink:href="#DejaVuSerif-31" x="458.056641"/>
     <use xlink:href="#DejaVuSerif-33" x="521.679688"/>
     <use xlink:href="#DejaVuSerif-34" x="585.302734"/>
     <use xlink:href="#DejaVuSerif-30" x="648.925781"/>
     <use xlink:href="#DejaVuSerif-38" x="712.548828"/>
     <use xlink:href="#DejaVuSerif-2c" x="776.171875"/>
     <use xlink:href="#DejaVuSerif-20" x="807.958984"/>
     <use xlink:href="#DejaVuSerif-31" x="839.746094"/>
     <use xlink:href="#DejaVuSerif-37" x="903.369141"/>
     <use xlink:href="#DejaVuSerif-32" x="966.992188"/>
     <use xlink:href="#DejaVuSerif-30" x="1030.615234"/>
     <use xlink:href="#DejaVuSerif-2c" x="1094.238281"/>
     <use xlink:href="#DejaVuSerif-20" x="1126.025391"/>
     <use xlink:href="#DejaVuSerif-35" x="1157.8125"/>
     <use xlink:href="#DejaVuSerif-32" x="1221.435547"/>
     <use xlink:href="#DejaVuSerif-36" x="1285.058594"/>
     <use xlink:href="#DejaVuSerif-2c" x="1348.681641"/>
     <use xlink:href="#DejaVuSerif-20" x="1380.46875"/>
     <use xlink:href="#DejaVuSerif-32" x="1412.255859"/>
     <use xlink:href="#DejaVuSerif-31" x="1475.878906"/>
     <use xlink:href="#DejaVuSerif-38" x="1539.501953"/>
     <use xlink:href="#DejaVuSerif-31" x="1603.125"/>
     <use xlink:href="#DejaVuSerif-5d" x="1666.748047"/>
    </g>
   </g>
   <g id="patch_4">
    <path d="M 160.626239 187.320737 
Q 140.314414 158.169187 119.043851 127.641656 
" style="fill: none; stroke: #000000; stroke-width: 1.5; stroke-linecap: round"/>
    <path d="M 160.26718 184.86021 
L 160.626239 187.320737 
L 158.442381 186.131668 
" style="fill: none; stroke: #000000; stroke-width: 1.5; stroke-linecap: round"/>
   </g>
   <g id="text_2">
    <g id="patch_5">
     <path d="M 139.174403 212.998456 
L 202.645597 212.998456 
L 202.645597 191.082485 
L 139.174403 191.082485 
z
" style="fill: #ffffff; stroke: #ec635c; stroke-width: 1.5; stroke-linejoin: miter"/>
    </g>
    <!-- gini = 0.0 -->
    <g transform="translate(157.043432 197.309018)scale(0.055602 -0.055602)">
     <use xlink:href="#DejaVuSerif-67"/>
     <use xlink:href="#DejaVuSerif-69" x="64.013672"/>
     <use xlink:href="#DejaVuSerif-6e" x="95.996094"/>
     <use xlink:href="#DejaVuSerif-69" x="160.400391"/>
     <use xlink:href="#DejaVuSerif-20" x="192.382812"/>
     <use xlink:href="#DejaVuSerif-3d" x="224.169922"/>
     <use xlink:href="#DejaVuSerif-20" x="307.958984"/>
     <use xlink:href="#DejaVuSerif-30" x="339.746094"/>
     <use xlink:href="#DejaVuSerif-2e" x="403.369141"/>
     <use xlink:href="#DejaVuSerif-30" x="435.15625"/>
    </g>
    <!-- samples = 422 -->
    <g transform="translate(150.045424 203.614262)scale(0.055602 -0.055602)">
     <use xlink:href="#DejaVuSerif-73"/>
     <use xlink:href="#DejaVuSerif-61" x="51.318359"/>
     <use xlink:href="#DejaVuSerif-6d" x="110.9375"/>
     <use xlink:href="#DejaVuSerif-70" x="205.761719"/>
     <use xlink:href="#DejaVuSerif-6c" x="269.775391"/>
     <use xlink:href="#DejaVuSerif-65" x="301.757812"/>
     <use xlink:href="#DejaVuSerif-73" x="360.9375"/>
     <use xlink:href="#DejaVuSerif-20" x="412.255859"/>
     <use xlink:href="#DejaVuSerif-3d" x="444.042969"/>
     <use xlink:href="#DejaVuSerif-20" x="527.832031"/>
     <use xlink:href="#DejaVuSerif-34" x="559.619141"/>
     <use xlink:href="#DejaVuSerif-32" x="623.242188"/>
     <use xlink:href="#DejaVuSerif-32" x="686.865234"/>
    </g>
    <!-- value = [0, 0, 0, 422] -->
    <g transform="translate(141.176068 209.840448)scale(0.055602 -0.055602)">
     <use xlink:href="#DejaVuSerif-76"/>
     <use xlink:href="#DejaVuSerif-61" x="56.494141"/>
     <use xlink:href="#DejaVuSerif-6c" x="116.113281"/>
     <use xlink:href="#DejaVuSerif-75" x="148.095703"/>
     <use xlink:href="#DejaVuSerif-65" x="212.5"/>
     <use xlink:href="#DejaVuSerif-20" x="271.679688"/>
     <use xlink:href="#DejaVuSerif-3d" x="303.466797"/>
     <use xlink:href="#DejaVuSerif-20" x="387.255859"/>
     <use xlink:href="#DejaVuSerif-5b" x="419.042969"/>
     <use xlink:href="#DejaVuSerif-30" x="458.056641"/>
     <use xlink:href="#DejaVuSerif-2c" x="521.679688"/>
     <use xlink:href="#DejaVuSerif-20" x="553.466797"/>
     <use xlink:href="#DejaVuSerif-30" x="585.253906"/>
     <use xlink:href="#DejaVuSerif-2c" x="648.876953"/>
     <use xlink:href="#DejaVuSerif-20" x="680.664062"/>
     <use xlink:href="#DejaVuSerif-30" x="712.451172"/>
     <use xlink:href="#DejaVuSerif-2c" x="776.074219"/>
     <use xlink:href="#DejaVuSerif-20" x="807.861328"/>
     <use xlink:href="#DejaVuSerif-34" x="839.648438"/>
     <use xlink:href="#DejaVuSerif-32" x="903.271484"/>
     <use xlink:href="#DejaVuSerif-32" x="966.894531"/>
     <use xlink:href="#DejaVuSerif-5d" x="1030.517578"/>
    </g>
   </g>
   <g id="patch_6">
    <path d="M 287.213761 187.320737 
Q 307.525586 158.169187 328.796149 127.641656 
" style="fill: none; stroke: #000000; stroke-width: 1.5; stroke-linecap: round"/>
    <path d="M 289.397619 186.131668 
L 287.213761 187.320737 
L 287.57282 184.86021 
" style="fill: none; stroke: #000000; stroke-width: 1.5; stroke-linecap: round"/>
   </g>
   <g id="text_3">
    <g id="patch_7">
     <path d="M 229.274912 212.998456 
L 324.585088 212.998456 
L 324.585088 191.082485 
L 229.274912 191.082485 
z
" style="fill: #ffffff; stroke: #ec635c; stroke-width: 1.5; stroke-linejoin: miter"/>
    </g>
    <!-- gini = 0.415 -->
    <g transform="translate(259.525767 197.309018)scale(0.055602 -0.055602)">
     <use xlink:href="#DejaVuSerif-67"/>
     <use xlink:href="#DejaVuSerif-69" x="64.013672"/>
     <use xlink:href="#DejaVuSerif-6e" x="95.996094"/>
     <use xlink:href="#DejaVuSerif-69" x="160.400391"/>
     <use xlink:href="#DejaVuSerif-20" x="192.382812"/>
     <use xlink:href="#DejaVuSerif-3d" x="224.169922"/>
     <use xlink:href="#DejaVuSerif-20" x="307.958984"/>
     <use xlink:href="#DejaVuSerif-30" x="339.746094"/>
     <use xlink:href="#DejaVuSerif-2e" x="403.369141"/>
     <use xlink:href="#DejaVuSerif-34" x="435.15625"/>
     <use xlink:href="#DejaVuSerif-31" x="498.779297"/>
     <use xlink:href="#DejaVuSerif-35" x="562.402344"/>
    </g>
    <!-- samples = 12169 -->
    <g transform="translate(252.527759 203.614262)scale(0.055602 -0.055602)">
     <defs>
      <path id="DejaVuSerif-39" d="M 2994 2091 
Q 2784 1856 2512 1740 
Q 2241 1625 1900 1625 
Q 1206 1625 804 2044 
Q 403 2463 403 3188 
Q 403 3897 839 4323 
Q 1275 4750 2003 4750 
Q 2794 4750 3217 4161 
Q 3641 3572 3641 2478 
Q 3641 1253 3137 581 
Q 2634 -91 1722 -91 
Q 1475 -91 1203 -44 
Q 931 3 647 97 
L 647 872 
L 997 872 
Q 1038 556 1241 387 
Q 1444 219 1784 219 
Q 2391 219 2687 676 
Q 2984 1134 2994 2091 
z
M 1978 4441 
Q 1534 4441 1298 4117 
Q 1063 3794 1063 3188 
Q 1063 2581 1298 2256 
Q 1534 1931 1978 1931 
Q 2422 1931 2658 2245 
Q 2894 2559 2894 3150 
Q 2894 3772 2656 4106 
Q 2419 4441 1978 4441 
z
" transform="scale(0.015625)"/>
     </defs>
     <use xlink:href="#DejaVuSerif-73"/>
     <use xlink:href="#DejaVuSerif-61" x="51.318359"/>
     <use xlink:href="#DejaVuSerif-6d" x="110.9375"/>
     <use xlink:href="#DejaVuSerif-70" x="205.761719"/>
     <use xlink:href="#DejaVuSerif-6c" x="269.775391"/>
     <use xlink:href="#DejaVuSerif-65" x="301.757812"/>
     <use xlink:href="#DejaVuSerif-73" x="360.9375"/>
     <use xlink:href="#DejaVuSerif-20" x="412.255859"/>
     <use xlink:href="#DejaVuSerif-3d" x="444.042969"/>
     <use xlink:href="#DejaVuSerif-20" x="527.832031"/>
     <use xlink:href="#DejaVuSerif-31" x="559.619141"/>
     <use xlink:href="#DejaVuSerif-32" x="623.242188"/>
     <use xlink:href="#DejaVuSerif-31" x="686.865234"/>
     <use xlink:href="#DejaVuSerif-36" x="750.488281"/>
     <use xlink:href="#DejaVuSerif-39" x="814.111328"/>
    </g>
    <!-- value = [1144, 598, 9125, 1302] -->
    <g transform="translate(231.276577 209.840448)scale(0.055602 -0.055602)">
     <use xlink:href="#DejaVuSerif-76"/>
     <use xlink:href="#DejaVuSerif-61" x="56.494141"/>
     <use xlink:href="#DejaVuSerif-6c" x="116.113281"/>
     <use xlink:href="#DejaVuSerif-75" x="148.095703"/>
     <use xlink:href="#DejaVuSerif-65" x="212.5"/>
     <use xlink:href="#DejaVuSerif-20" x="271.679688"/>
     <use xlink:href="#DejaVuSerif-3d" x="303.466797"/>
     <use xlink:href="#DejaVuSerif-20" x="387.255859"/>
     <use xlink:href="#DejaVuSerif-5b" x="419.042969"/>
     <use xlink:href="#DejaVuSerif-31" x="458.056641"/>
     <use xlink:href="#DejaVuSerif-31" x="521.679688"/>
     <use xlink:href="#DejaVuSerif-34" x="585.302734"/>
     <use xlink:href="#DejaVuSerif-34" x="648.925781"/>
     <use xlink:href="#DejaVuSerif-2c" x="712.548828"/>
     <use xlink:href="#DejaVuSerif-20" x="744.335938"/>
     <use xlink:href="#DejaVuSerif-35" x="776.123047"/>
     <use xlink:href="#DejaVuSerif-39" x="839.746094"/>
     <use xlink:href="#DejaVuSerif-38" x="903.369141"/>
     <use xlink:href="#DejaVuSerif-2c" x="966.992188"/>
     <use xlink:href="#DejaVuSerif-20" x="998.779297"/>
     <use xlink:href="#DejaVuSerif-39" x="1030.566406"/>
     <use xlink:href="#DejaVuSerif-31" x="1094.189453"/>
     <use xlink:href="#DejaVuSerif-32" x="1157.8125"/>
     <use xlink:href="#DejaVuSerif-35" x="1221.435547"/>
     <use xlink:href="#DejaVuSerif-2c" x="1285.058594"/>
     <use xlink:href="#DejaVuSerif-20" x="1316.845703"/>
     <use xlink:href="#DejaVuSerif-31" x="1348.632812"/>
     <use xlink:href="#DejaVuSerif-33" x="1412.255859"/>
     <use xlink:href="#DejaVuSerif-30" x="1475.878906"/>
     <use xlink:href="#DejaVuSerif-32" x="1539.501953"/>
     <use xlink:href="#DejaVuSerif-5d" x="1603.125"/>
    </g>
   </g>
   <g id="patch_8">
    <path d="M 372.666239 187.320737 
Q 352.354414 158.169187 331.083851 127.641656 
" style="fill: none; stroke: #000000; stroke-width: 1.5; stroke-linecap: round"/>
    <path d="M 372.30718 184.86021 
L 372.666239 187.320737 
L 370.482381 186.131668 
" style="fill: none; stroke: #000000; stroke-width: 1.5; stroke-linecap: round"/>
   </g>
   <g id="text_4">
    <g id="patch_9">
     <path d="M 337.063744 212.998456 
L 428.836256 212.998456 
L 428.836256 191.082485 
L 337.063744 191.082485 
z
" style="fill: #ffffff; stroke: #ec635c; stroke-width: 1.5; stroke-linejoin: miter"/>
    </g>
    <!-- gini = 0.647 -->
    <g transform="translate(365.545767 197.309018)scale(0.055602 -0.055602)">
     <use xlink:href="#DejaVuSerif-67"/>
     <use xlink:href="#DejaVuSerif-69" x="64.013672"/>
     <use xlink:href="#DejaVuSerif-6e" x="95.996094"/>
     <use xlink:href="#DejaVuSerif-69" x="160.400391"/>
     <use xlink:href="#DejaVuSerif-20" x="192.382812"/>
     <use xlink:href="#DejaVuSerif-3d" x="224.169922"/>
     <use xlink:href="#DejaVuSerif-20" x="307.958984"/>
     <use xlink:href="#DejaVuSerif-30" x="339.746094"/>
     <use xlink:href="#DejaVuSerif-2e" x="403.369141"/>
     <use xlink:href="#DejaVuSerif-36" x="435.15625"/>
     <use xlink:href="#DejaVuSerif-34" x="498.779297"/>
     <use xlink:href="#DejaVuSerif-37" x="562.402344"/>
    </g>
    <!-- samples = 4614 -->
    <g transform="translate(360.316591 203.614262)scale(0.055602 -0.055602)">
     <use xlink:href="#DejaVuSerif-73"/>
     <use xlink:href="#DejaVuSerif-61" x="51.318359"/>
     <use xlink:href="#DejaVuSerif-6d" x="110.9375"/>
     <use xlink:href="#DejaVuSerif-70" x="205.761719"/>
     <use xlink:href="#DejaVuSerif-6c" x="269.775391"/>
     <use xlink:href="#DejaVuSerif-65" x="301.757812"/>
     <use xlink:href="#DejaVuSerif-73" x="360.9375"/>
     <use xlink:href="#DejaVuSerif-20" x="412.255859"/>
     <use xlink:href="#DejaVuSerif-3d" x="444.042969"/>
     <use xlink:href="#DejaVuSerif-20" x="527.832031"/>
     <use xlink:href="#DejaVuSerif-34" x="559.619141"/>
     <use xlink:href="#DejaVuSerif-36" x="623.242188"/>
     <use xlink:href="#DejaVuSerif-31" x="686.865234"/>
     <use xlink:href="#DejaVuSerif-34" x="750.488281"/>
    </g>
    <!-- value = [462, 2256, 1401, 495] -->
    <g transform="translate(339.065409 209.840448)scale(0.055602 -0.055602)">
     <use xlink:href="#DejaVuSerif-76"/>
     <use xlink:href="#DejaVuSerif-61" x="56.494141"/>
     <use xlink:href="#DejaVuSerif-6c" x="116.113281"/>
     <use xlink:href="#DejaVuSerif-75" x="148.095703"/>
     <use xlink:href="#DejaVuSerif-65" x="212.5"/>
     <use xlink:href="#DejaVuSerif-20" x="271.679688"/>
     <use xlink:href="#DejaVuSerif-3d" x="303.466797"/>
     <use xlink:href="#DejaVuSerif-20" x="387.255859"/>
     <use xlink:href="#DejaVuSerif-5b" x="419.042969"/>
     <use xlink:href="#DejaVuSerif-34" x="458.056641"/>
     <use xlink:href="#DejaVuSerif-36" x="521.679688"/>
     <use xlink:href="#DejaVuSerif-32" x="585.302734"/>
     <use xlink:href="#DejaVuSerif-2c" x="648.925781"/>
     <use xlink:href="#DejaVuSerif-20" x="680.712891"/>
     <use xlink:href="#DejaVuSerif-32" x="712.5"/>
     <use xlink:href="#DejaVuSerif-32" x="776.123047"/>
     <use xlink:href="#DejaVuSerif-35" x="839.746094"/>
     <use xlink:href="#DejaVuSerif-36" x="903.369141"/>
     <use xlink:href="#DejaVuSerif-2c" x="966.992188"/>
     <use xlink:href="#DejaVuSerif-20" x="998.779297"/>
     <use xlink:href="#DejaVuSerif-31" x="1030.566406"/>
     <use xlink:href="#DejaVuSerif-34" x="1094.189453"/>
     <use xlink:href="#DejaVuSerif-30" x="1157.8125"/>
     <use xlink:href="#DejaVuSerif-31" x="1221.435547"/>
     <use xlink:href="#DejaVuSerif-2c" x="1285.058594"/>
     <use xlink:href="#DejaVuSerif-20" x="1316.845703"/>
     <use xlink:href="#DejaVuSerif-34" x="1348.632812"/>
     <use xlink:href="#DejaVuSerif-39" x="1412.255859"/>
     <use xlink:href="#DejaVuSerif-35" x="1475.878906"/>
     <use xlink:href="#DejaVuSerif-5d" x="1539.501953"/>
    </g>
   </g>
   <g id="patch_10">
    <path d="M 141.537616 109.037636 
Q 181.236109 80.549979 222.297136 51.084568 
" style="fill: none; stroke: #000000; stroke-width: 1.5; stroke-linecap: round"/>
    <path d="M 143.99292 108.64444 
L 141.537616 109.037636 
L 142.696241 106.837475 
" style="fill: none; stroke: #000000; stroke-width: 1.5; stroke-linecap: round"/>
   </g>
   <g id="text_5">
    <g id="patch_11">
     <path d="M 68.476079 140.071079 
L 167.323921 140.071079 
L 167.323921 111.928921 
L 68.476079 111.928921 
z
" style="fill: #ffffff; stroke: #ec635c; stroke-width: 1.5; stroke-linejoin: miter"/>
    </g>
    <!-- X[5] &lt;= 2502.5 -->
    <g transform="translate(95.828691 118.155454)scale(0.055602 -0.055602)">
     <defs>
      <path id="DejaVuSerif-58" d="M 2119 1997 
L 978 331 
L 1581 331 
L 1581 0 
L 38 0 
L 38 331 
L 575 331 
L 1919 2291 
L 556 4331 
L 56 4331 
L 56 4666 
L 1906 4666 
L 1906 4331 
L 1356 4331 
L 2356 2828 
L 3384 4331 
L 2784 4331 
L 2784 4666 
L 4313 4666 
L 4313 4331 
L 3788 4331 
L 2553 2534 
L 4025 331 
L 4525 331 
L 4525 0 
L 2675 0 
L 2675 331 
L 3231 331 
L 2119 1997 
z
" transform="scale(0.015625)"/>
      <path id="DejaVuSerif-3c" d="M 4684 3188 
L 1441 2003 
L 4684 825 
L 4684 294 
L 678 1747 
L 678 2266 
L 4684 3719 
L 4684 3188 
z
" transform="scale(0.015625)"/>
     </defs>
     <use xlink:href="#DejaVuSerif-58"/>
     <use xlink:href="#DejaVuSerif-5b" x="71.191406"/>
     <use xlink:href="#DejaVuSerif-35" x="110.205078"/>
     <use xlink:href="#DejaVuSerif-5d" x="173.828125"/>
     <use xlink:href="#DejaVuSerif-20" x="212.841797"/>
     <use xlink:href="#DejaVuSerif-3c" x="244.628906"/>
     <use xlink:href="#DejaVuSerif-3d" x="328.417969"/>
     <use xlink:href="#DejaVuSerif-20" x="412.207031"/>
     <use xlink:href="#DejaVuSerif-32" x="443.994141"/>
     <use xlink:href="#DejaVuSerif-35" x="507.617188"/>
     <use xlink:href="#DejaVuSerif-30" x="571.240234"/>
     <use xlink:href="#DejaVuSerif-32" x="634.863281"/>
     <use xlink:href="#DejaVuSerif-2e" x="698.486328"/>
     <use xlink:href="#DejaVuSerif-35" x="730.273438"/>
    </g>
    <!-- gini = 0.431 -->
    <g transform="translate(100.495767 124.38164)scale(0.055602 -0.055602)">
     <use xlink:href="#DejaVuSerif-67"/>
     <use xlink:href="#DejaVuSerif-69" x="64.013672"/>
     <use xlink:href="#DejaVuSerif-6e" x="95.996094"/>
     <use xlink:href="#DejaVuSerif-69" x="160.400391"/>
     <use xlink:href="#DejaVuSerif-20" x="192.382812"/>
     <use xlink:href="#DejaVuSerif-3d" x="224.169922"/>
     <use xlink:href="#DejaVuSerif-20" x="307.958984"/>
     <use xlink:href="#DejaVuSerif-30" x="339.746094"/>
     <use xlink:href="#DejaVuSerif-2e" x="403.369141"/>
     <use xlink:href="#DejaVuSerif-34" x="435.15625"/>
     <use xlink:href="#DejaVuSerif-33" x="498.779297"/>
     <use xlink:href="#DejaVuSerif-31" x="562.402344"/>
    </g>
    <!-- samples = 18257 -->
    <g transform="translate(93.497759 130.686884)scale(0.055602 -0.055602)">
     <use xlink:href="#DejaVuSerif-73"/>
     <use xlink:href="#DejaVuSerif-61" x="51.318359"/>
     <use xlink:href="#DejaVuSerif-6d" x="110.9375"/>
     <use xlink:href="#DejaVuSerif-70" x="205.761719"/>
     <use xlink:href="#DejaVuSerif-6c" x="269.775391"/>
     <use xlink:href="#DejaVuSerif-65" x="301.757812"/>
     <use xlink:href="#DejaVuSerif-73" x="360.9375"/>
     <use xlink:href="#DejaVuSerif-20" x="412.255859"/>
     <use xlink:href="#DejaVuSerif-3d" x="444.042969"/>
     <use xlink:href="#DejaVuSerif-20" x="527.832031"/>
     <use xlink:href="#DejaVuSerif-31" x="559.619141"/>
     <use xlink:href="#DejaVuSerif-38" x="623.242188"/>
     <use xlink:href="#DejaVuSerif-32" x="686.865234"/>
     <use xlink:href="#DejaVuSerif-35" x="750.488281"/>
     <use xlink:href="#DejaVuSerif-37" x="814.111328"/>
    </g>
    <!-- value = [13408, 1720, 526, 2603] -->
    <g transform="translate(70.477744 136.91307)scale(0.055602 -0.055602)">
     <use xlink:href="#DejaVuSerif-76"/>
     <use xlink:href="#DejaVuSerif-61" x="56.494141"/>
     <use xlink:href="#DejaVuSerif-6c" x="116.113281"/>
     <use xlink:href="#DejaVuSerif-75" x="148.095703"/>
     <use xlink:href="#DejaVuSerif-65" x="212.5"/>
     <use xlink:href="#DejaVuSerif-20" x="271.679688"/>
     <use xlink:href="#DejaVuSerif-3d" x="303.466797"/>
     <use xlink:href="#DejaVuSerif-20" x="387.255859"/>
     <use xlink:href="#DejaVuSerif-5b" x="419.042969"/>
     <use xlink:href="#DejaVuSerif-31" x="458.056641"/>
     <use xlink:href="#DejaVuSerif-33" x="521.679688"/>
     <use xlink:href="#DejaVuSerif-34" x="585.302734"/>
     <use xlink:href="#DejaVuSerif-30" x="648.925781"/>
     <use xlink:href="#DejaVuSerif-38" x="712.548828"/>
     <use xlink:href="#DejaVuSerif-2c" x="776.171875"/>
     <use xlink:href="#DejaVuSerif-20" x="807.958984"/>
     <use xlink:href="#DejaVuSerif-31" x="839.746094"/>
     <use xlink:href="#DejaVuSerif-37" x="903.369141"/>
     <use xlink:href="#DejaVuSerif-32" x="966.992188"/>
     <use xlink:href="#DejaVuSerif-30" x="1030.615234"/>
     <use xlink:href="#DejaVuSerif-2c" x="1094.238281"/>
     <use xlink:href="#DejaVuSerif-20" x="1126.025391"/>
     <use xlink:href="#DejaVuSerif-35" x="1157.8125"/>
     <use xlink:href="#DejaVuSerif-32" x="1221.435547"/>
     <use xlink:href="#DejaVuSerif-36" x="1285.058594"/>
     <use xlink:href="#DejaVuSerif-2c" x="1348.681641"/>
     <use xlink:href="#DejaVuSerif-20" x="1380.46875"/>
     <use xlink:href="#DejaVuSerif-32" x="1412.255859"/>
     <use xlink:href="#DejaVuSerif-36" x="1475.878906"/>
     <use xlink:href="#DejaVuSerif-30" x="1539.501953"/>
     <use xlink:href="#DejaVuSerif-33" x="1603.125"/>
     <use xlink:href="#DejaVuSerif-5d" x="1666.748047"/>
    </g>
   </g>
   <g id="patch_12">
    <path d="M 306.302384 109.037636 
Q 266.603891 80.549979 225.542864 51.084568 
" style="fill: none; stroke: #000000; stroke-width: 1.5; stroke-linecap: round"/>
    <path d="M 305.143759 106.837475 
L 306.302384 109.037636 
L 303.84708 108.64444 
" style="fill: none; stroke: #000000; stroke-width: 1.5; stroke-linecap: round"/>
   </g>
   <g id="text_6">
    <g id="patch_13">
     <path d="M 278.747247 140.071079 
L 381.132753 140.071079 
L 381.132753 111.928921 
L 278.747247 111.928921 
z
" style="fill: #ffffff; stroke: #ec635c; stroke-width: 1.5; stroke-linejoin: miter"/>
    </g>
    <!-- X[0] &lt;= 279.125 -->
    <g transform="translate(306.099859 118.155454)scale(0.055602 -0.055602)">
     <use xlink:href="#DejaVuSerif-58"/>
     <use xlink:href="#DejaVuSerif-5b" x="71.191406"/>
     <use xlink:href="#DejaVuSerif-30" x="110.205078"/>
     <use xlink:href="#DejaVuSerif-5d" x="173.828125"/>
     <use xlink:href="#DejaVuSerif-20" x="212.841797"/>
     <use xlink:href="#DejaVuSerif-3c" x="244.628906"/>
     <use xlink:href="#DejaVuSerif-3d" x="328.417969"/>
     <use xlink:href="#DejaVuSerif-20" x="412.207031"/>
     <use xlink:href="#DejaVuSerif-32" x="443.994141"/>
     <use xlink:href="#DejaVuSerif-37" x="507.617188"/>
     <use xlink:href="#DejaVuSerif-39" x="571.240234"/>
     <use xlink:href="#DejaVuSerif-2e" x="634.863281"/>
     <use xlink:href="#DejaVuSerif-31" x="666.650391"/>
     <use xlink:href="#DejaVuSerif-32" x="730.273438"/>
     <use xlink:href="#DejaVuSerif-35" x="793.896484"/>
    </g>
    <!-- gini = 0.557 -->
    <g transform="translate(312.535767 124.38164)scale(0.055602 -0.055602)">
     <use xlink:href="#DejaVuSerif-67"/>
     <use xlink:href="#DejaVuSerif-69" x="64.013672"/>
     <use xlink:href="#DejaVuSerif-6e" x="95.996094"/>
     <use xlink:href="#DejaVuSerif-69" x="160.400391"/>
     <use xlink:href="#DejaVuSerif-20" x="192.382812"/>
     <use xlink:href="#DejaVuSerif-3d" x="224.169922"/>
     <use xlink:href="#DejaVuSerif-20" x="307.958984"/>
     <use xlink:href="#DejaVuSerif-30" x="339.746094"/>
     <use xlink:href="#DejaVuSerif-2e" x="403.369141"/>
     <use xlink:href="#DejaVuSerif-35" x="435.15625"/>
     <use xlink:href="#DejaVuSerif-35" x="498.779297"/>
     <use xlink:href="#DejaVuSerif-37" x="562.402344"/>
    </g>
    <!-- samples = 16783 -->
    <g transform="translate(305.537759 130.686884)scale(0.055602 -0.055602)">
     <use xlink:href="#DejaVuSerif-73"/>
     <use xlink:href="#DejaVuSerif-61" x="51.318359"/>
     <use xlink:href="#DejaVuSerif-6d" x="110.9375"/>
     <use xlink:href="#DejaVuSerif-70" x="205.761719"/>
     <use xlink:href="#DejaVuSerif-6c" x="269.775391"/>
     <use xlink:href="#DejaVuSerif-65" x="301.757812"/>
     <use xlink:href="#DejaVuSerif-73" x="360.9375"/>
     <use xlink:href="#DejaVuSerif-20" x="412.255859"/>
     <use xlink:href="#DejaVuSerif-3d" x="444.042969"/>
     <use xlink:href="#DejaVuSerif-20" x="527.832031"/>
     <use xlink:href="#DejaVuSerif-31" x="559.619141"/>
     <use xlink:href="#DejaVuSerif-36" x="623.242188"/>
     <use xlink:href="#DejaVuSerif-37" x="686.865234"/>
     <use xlink:href="#DejaVuSerif-38" x="750.488281"/>
     <use xlink:href="#DejaVuSerif-33" x="814.111328"/>
    </g>
    <!-- value = [1606, 2854, 10526, 1797] -->
    <g transform="translate(280.748912 136.91307)scale(0.055602 -0.055602)">
     <use xlink:href="#DejaVuSerif-76"/>
     <use xlink:href="#DejaVuSerif-61" x="56.494141"/>
     <use xlink:href="#DejaVuSerif-6c" x="116.113281"/>
     <use xlink:href="#DejaVuSerif-75" x="148.095703"/>
     <use xlink:href="#DejaVuSerif-65" x="212.5"/>
     <use xlink:href="#DejaVuSerif-20" x="271.679688"/>
     <use xlink:href="#DejaVuSerif-3d" x="303.466797"/>
     <use xlink:href="#DejaVuSerif-20" x="387.255859"/>
     <use xlink:href="#DejaVuSerif-5b" x="419.042969"/>
     <use xlink:href="#DejaVuSerif-31" x="458.056641"/>
     <use xlink:href="#DejaVuSerif-36" x="521.679688"/>
     <use xlink:href="#DejaVuSerif-30" x="585.302734"/>
     <use xlink:href="#DejaVuSerif-36" x="648.925781"/>
     <use xlink:href="#DejaVuSerif-2c" x="712.548828"/>
     <use xlink:href="#DejaVuSerif-20" x="744.335938"/>
     <use xlink:href="#DejaVuSerif-32" x="776.123047"/>
     <use xlink:href="#DejaVuSerif-38" x="839.746094"/>
     <use xlink:href="#DejaVuSerif-35" x="903.369141"/>
     <use xlink:href="#DejaVuSerif-34" x="966.992188"/>
     <use xlink:href="#DejaVuSerif-2c" x="1030.615234"/>
     <use xlink:href="#DejaVuSerif-20" x="1062.402344"/>
     <use xlink:href="#DejaVuSerif-31" x="1094.189453"/>
     <use xlink:href="#DejaVuSerif-30" x="1157.8125"/>
     <use xlink:href="#DejaVuSerif-35" x="1221.435547"/>
     <use xlink:href="#DejaVuSerif-32" x="1285.058594"/>
     <use xlink:href="#DejaVuSerif-36" x="1348.681641"/>
     <use xlink:href="#DejaVuSerif-2c" x="1412.304688"/>
     <use xlink:href="#DejaVuSerif-20" x="1444.091797"/>
     <use xlink:href="#DejaVuSerif-31" x="1475.878906"/>
     <use xlink:href="#DejaVuSerif-37" x="1539.501953"/>
     <use xlink:href="#DejaVuSerif-39" x="1603.125"/>
     <use xlink:href="#DejaVuSerif-37" x="1666.748047"/>
     <use xlink:href="#DejaVuSerif-5d" x="1730.371094"/>
    </g>
   </g>
   <g id="patch_14">
    <path d="M 223.92 49.92 
Q 223.92 49.92 223.92 49.92 
" style="fill: none; stroke: #000000; stroke-width: 1.5; stroke-linecap: round"/>
   </g>
   <g id="text_7">
    <g id="patch_15">
     <path d="M 170.958415 63.991079 
L 276.881585 63.991079 
L 276.881585 35.848921 
L 170.958415 35.848921 
z
" style="fill: #ffffff; stroke: #ec635c; stroke-width: 1.5; stroke-linejoin: miter"/>
    </g>
    <!-- X[1] &lt;= 481.66 -->
    <g transform="translate(201.848691 42.075454)scale(0.055602 -0.055602)">
     <use xlink:href="#DejaVuSerif-58"/>
     <use xlink:href="#DejaVuSerif-5b" x="71.191406"/>
     <use xlink:href="#DejaVuSerif-31" x="110.205078"/>
     <use xlink:href="#DejaVuSerif-5d" x="173.828125"/>
     <use xlink:href="#DejaVuSerif-20" x="212.841797"/>
     <use xlink:href="#DejaVuSerif-3c" x="244.628906"/>
     <use xlink:href="#DejaVuSerif-3d" x="328.417969"/>
     <use xlink:href="#DejaVuSerif-20" x="412.207031"/>
     <use xlink:href="#DejaVuSerif-34" x="443.994141"/>
     <use xlink:href="#DejaVuSerif-38" x="507.617188"/>
     <use xlink:href="#DejaVuSerif-31" x="571.240234"/>
     <use xlink:href="#DejaVuSerif-2e" x="634.863281"/>
     <use xlink:href="#DejaVuSerif-36" x="666.650391"/>
     <use xlink:href="#DejaVuSerif-36" x="730.273438"/>
    </g>
    <!-- gini = 0.684 -->
    <g transform="translate(206.515767 48.30164)scale(0.055602 -0.055602)">
     <use xlink:href="#DejaVuSerif-67"/>
     <use xlink:href="#DejaVuSerif-69" x="64.013672"/>
     <use xlink:href="#DejaVuSerif-6e" x="95.996094"/>
     <use xlink:href="#DejaVuSerif-69" x="160.400391"/>
     <use xlink:href="#DejaVuSerif-20" x="192.382812"/>
     <use xlink:href="#DejaVuSerif-3d" x="224.169922"/>
     <use xlink:href="#DejaVuSerif-20" x="307.958984"/>
     <use xlink:href="#DejaVuSerif-30" x="339.746094"/>
     <use xlink:href="#DejaVuSerif-2e" x="403.369141"/>
     <use xlink:href="#DejaVuSerif-36" x="435.15625"/>
     <use xlink:href="#DejaVuSerif-38" x="498.779297"/>
     <use xlink:href="#DejaVuSerif-34" x="562.402344"/>
    </g>
    <!-- samples = 35040 -->
    <g transform="translate(199.517759 54.606884)scale(0.055602 -0.055602)">
     <use xlink:href="#DejaVuSerif-73"/>
     <use xlink:href="#DejaVuSerif-61" x="51.318359"/>
     <use xlink:href="#DejaVuSerif-6d" x="110.9375"/>
     <use xlink:href="#DejaVuSerif-70" x="205.761719"/>
     <use xlink:href="#DejaVuSerif-6c" x="269.775391"/>
     <use xlink:href="#DejaVuSerif-65" x="301.757812"/>
     <use xlink:href="#DejaVuSerif-73" x="360.9375"/>
     <use xlink:href="#DejaVuSerif-20" x="412.255859"/>
     <use xlink:href="#DejaVuSerif-3d" x="444.042969"/>
     <use xlink:href="#DejaVuSerif-20" x="527.832031"/>
     <use xlink:href="#DejaVuSerif-33" x="559.619141"/>
     <use xlink:href="#DejaVuSerif-35" x="623.242188"/>
     <use xlink:href="#DejaVuSerif-30" x="686.865234"/>
     <use xlink:href="#DejaVuSerif-34" x="750.488281"/>
     <use xlink:href="#DejaVuSerif-30" x="814.111328"/>
    </g>
    <!-- value = [15014, 4574, 11052, 4400] -->
    <g transform="translate(172.96008 60.83307)scale(0.055602 -0.055602)">
     <use xlink:href="#DejaVuSerif-76"/>
     <use xlink:href="#DejaVuSerif-61" x="56.494141"/>
     <use xlink:href="#DejaVuSerif-6c" x="116.113281"/>
     <use xlink:href="#DejaVuSerif-75" x="148.095703"/>
     <use xlink:href="#DejaVuSerif-65" x="212.5"/>
     <use xlink:href="#DejaVuSerif-20" x="271.679688"/>
     <use xlink:href="#DejaVuSerif-3d" x="303.466797"/>
     <use xlink:href="#DejaVuSerif-20" x="387.255859"/>
     <use xlink:href="#DejaVuSerif-5b" x="419.042969"/>
     <use xlink:href="#DejaVuSerif-31" x="458.056641"/>
     <use xlink:href="#DejaVuSerif-35" x="521.679688"/>
     <use xlink:href="#DejaVuSerif-30" x="585.302734"/>
     <use xlink:href="#DejaVuSerif-31" x="648.925781"/>
     <use xlink:href="#DejaVuSerif-34" x="712.548828"/>
     <use xlink:href="#DejaVuSerif-2c" x="776.171875"/>
     <use xlink:href="#DejaVuSerif-20" x="807.958984"/>
     <use xlink:href="#DejaVuSerif-34" x="839.746094"/>
     <use xlink:href="#DejaVuSerif-35" x="903.369141"/>
     <use xlink:href="#DejaVuSerif-37" x="966.992188"/>
     <use xlink:href="#DejaVuSerif-34" x="1030.615234"/>
     <use xlink:href="#DejaVuSerif-2c" x="1094.238281"/>
     <use xlink:href="#DejaVuSerif-20" x="1126.025391"/>
     <use xlink:href="#DejaVuSerif-31" x="1157.8125"/>
     <use xlink:href="#DejaVuSerif-31" x="1221.435547"/>
     <use xlink:href="#DejaVuSerif-30" x="1285.058594"/>
     <use xlink:href="#DejaVuSerif-35" x="1348.681641"/>
     <use xlink:href="#DejaVuSerif-32" x="1412.304688"/>
     <use xlink:href="#DejaVuSerif-2c" x="1475.927734"/>
     <use xlink:href="#DejaVuSerif-20" x="1507.714844"/>
     <use xlink:href="#DejaVuSerif-34" x="1539.501953"/>
     <use xlink:href="#DejaVuSerif-34" x="1603.125"/>
     <use xlink:href="#DejaVuSerif-30" x="1666.748047"/>
     <use xlink:href="#DejaVuSerif-30" x="1730.371094"/>
     <use xlink:href="#DejaVuSerif-5d" x="1793.994141"/>
    </g>
   </g>
  </g>
 </g>
</svg>
