<?xml version="1.0" encoding="utf-8" standalone="no"?>
<!DOCTYPE svg PUBLIC "-//W3C//DTD SVG 1.1//EN"
  "http://www.w3.org/Graphics/SVG/1.1/DTD/svg11.dtd">
<svg xmlns:xlink="http://www.w3.org/1999/xlink" width="447.84pt" height="252pt" viewBox="0 0 447.84 252" xmlns="http://www.w3.org/2000/svg" version="1.1">
 <metadata>
  <rdf:RDF xmlns:dc="http://purl.org/dc/elements/1.1/" xmlns:cc="http://creativecommons.org/ns#" xmlns:rdf="http://www.w3.org/1999/02/22-rdf-syntax-ns#">
   <cc:Work>
    <dc:type rdf:resource="http://purl.org/dc/dcmitype/StillImage"/>
    <dc:date>2023-05-05T13:29:51.914644</dc:date>
    <dc:format>image/svg+xml</dc:format>
    <dc:creator>
     <cc:Agent>
      <dc:title>Matplotlib v3.5.3, https://matplotlib.org/</dc:title>
     </cc:Agent>
    </dc:creator>
   </cc:Work>
  </rdf:RDF>
 </metadata>
 <defs>
  <style type="text/css">*{stroke-linejoin: round; stroke-linecap: butt}</style>
 </defs>
 <g id="figure_1">
  <g id="patch_1">
   <path d="M 0 252 
L 447.84 252 
L 447.84 0 
L 0 0 
z
" style="fill: #ffffff"/>
  </g>
  <g id="axes_1">
   <g id="patch_2">
    <path d="M 58.174531 207.828125 
L 435.96 207.828125 
L 435.96 11.88 
L 58.174531 11.88 
z
" style="fill: #ffffff"/>
   </g>
   <g id="matplotlib.axis_1">
    <g id="xtick_1">
     <g id="line2d_1">
      <defs>
       <path id="m2ce81ea352" d="M 0 0 
L 0 3.5 
" style="stroke: #000000; stroke-width: 0.8"/>
      </defs>
      <g>
       <use xlink:href="#m2ce81ea352" x="75.346598" y="207.828125" style="stroke: #000000; stroke-width: 0.8"/>
      </g>
     </g>
     <g id="text_1">
      <!-- 0,00 -->
      <g transform="translate(63.100504 223.186406)scale(0.11 -0.11)">
       <defs>
        <path id="DejaVuSerif-30" d="M 2034 219 
Q 2513 219 2750 744 
Q 2988 1269 2988 2328 
Q 2988 3391 2750 3916 
Q 2513 4441 2034 4441 
Q 1556 4441 1318 3916 
Q 1081 3391 1081 2328 
Q 1081 1269 1318 744 
Q 1556 219 2034 219 
z
M 2034 -91 
Q 1275 -91 848 546 
Q 422 1184 422 2328 
Q 422 3475 848 4112 
Q 1275 4750 2034 4750 
Q 2797 4750 3222 4112 
Q 3647 3475 3647 2328 
Q 3647 1184 3222 546 
Q 2797 -91 2034 -91 
z
" transform="scale(0.015625)"/>
        <path id="DejaVuSerif-2c" d="M 231 -622 
Q 525 -406 662 -114 
Q 800 178 800 594 
L 800 709 
L 1416 709 
Q 1391 175 1164 -208 
Q 938 -591 481 -872 
L 231 -622 
z
" transform="scale(0.015625)"/>
       </defs>
       <use xlink:href="#DejaVuSerif-30"/>
       <use xlink:href="#DejaVuSerif-2c" x="63.623047"/>
       <use xlink:href="#DejaVuSerif-30" x="95.410156"/>
       <use xlink:href="#DejaVuSerif-30" x="159.033203"/>
      </g>
     </g>
    </g>
    <g id="xtick_2">
     <g id="line2d_2">
      <g>
       <use xlink:href="#m2ce81ea352" x="155.967314" y="207.828125" style="stroke: #000000; stroke-width: 0.8"/>
      </g>
     </g>
     <g id="text_2">
      <!-- 0,02 -->
      <g transform="translate(143.72122 223.186406)scale(0.11 -0.11)">
       <defs>
        <path id="DejaVuSerif-32" d="M 819 3553 
L 469 3553 
L 469 4384 
Q 803 4563 1142 4656 
Q 1481 4750 1806 4750 
Q 2534 4750 2956 4397 
Q 3378 4044 3378 3438 
Q 3378 2753 2422 1800 
Q 2347 1728 2309 1691 
L 1131 513 
L 3078 513 
L 3078 1088 
L 3444 1088 
L 3444 0 
L 434 0 
L 434 341 
L 1850 1753 
Q 2319 2222 2519 2614 
Q 2719 3006 2719 3438 
Q 2719 3909 2473 4175 
Q 2228 4441 1797 4441 
Q 1350 4441 1106 4219 
Q 863 3997 819 3553 
z
" transform="scale(0.015625)"/>
       </defs>
       <use xlink:href="#DejaVuSerif-30"/>
       <use xlink:href="#DejaVuSerif-2c" x="63.623047"/>
       <use xlink:href="#DejaVuSerif-30" x="95.410156"/>
       <use xlink:href="#DejaVuSerif-32" x="159.033203"/>
      </g>
     </g>
    </g>
    <g id="xtick_3">
     <g id="line2d_3">
      <g>
       <use xlink:href="#m2ce81ea352" x="236.588029" y="207.828125" style="stroke: #000000; stroke-width: 0.8"/>
      </g>
     </g>
     <g id="text_3">
      <!-- 0,04 -->
      <g transform="translate(224.341935 223.186406)scale(0.11 -0.11)">
       <defs>
        <path id="DejaVuSerif-34" d="M 2234 1581 
L 2234 4063 
L 641 1581 
L 2234 1581 
z
M 3609 0 
L 1484 0 
L 1484 331 
L 2234 331 
L 2234 1247 
L 197 1247 
L 197 1588 
L 2241 4750 
L 2859 4750 
L 2859 1581 
L 3750 1581 
L 3750 1247 
L 2859 1247 
L 2859 331 
L 3609 331 
L 3609 0 
z
" transform="scale(0.015625)"/>
       </defs>
       <use xlink:href="#DejaVuSerif-30"/>
       <use xlink:href="#DejaVuSerif-2c" x="63.623047"/>
       <use xlink:href="#DejaVuSerif-30" x="95.410156"/>
       <use xlink:href="#DejaVuSerif-34" x="159.033203"/>
      </g>
     </g>
    </g>
    <g id="xtick_4">
     <g id="line2d_4">
      <g>
       <use xlink:href="#m2ce81ea352" x="317.208744" y="207.828125" style="stroke: #000000; stroke-width: 0.8"/>
      </g>
     </g>
     <g id="text_4">
      <!-- 0,06 -->
      <g transform="translate(304.962651 223.186406)scale(0.11 -0.11)">
       <defs>
        <path id="DejaVuSerif-36" d="M 2094 219 
Q 2534 219 2771 542 
Q 3009 866 3009 1472 
Q 3009 2078 2771 2401 
Q 2534 2725 2094 2725 
Q 1647 2725 1412 2412 
Q 1178 2100 1178 1509 
Q 1178 888 1415 553 
Q 1653 219 2094 219 
z
M 1075 2569 
Q 1288 2803 1556 2918 
Q 1825 3034 2163 3034 
Q 2859 3034 3264 2615 
Q 3669 2197 3669 1472 
Q 3669 763 3233 336 
Q 2797 -91 2069 -91 
Q 1278 -91 853 498 
Q 428 1088 428 2181 
Q 428 3406 931 4078 
Q 1434 4750 2350 4750 
Q 2597 4750 2869 4703 
Q 3141 4656 3425 4563 
L 3425 3794 
L 3072 3794 
Q 3034 4109 2831 4275 
Q 2628 4441 2284 4441 
Q 1678 4441 1381 3981 
Q 1084 3522 1075 2569 
z
" transform="scale(0.015625)"/>
       </defs>
       <use xlink:href="#DejaVuSerif-30"/>
       <use xlink:href="#DejaVuSerif-2c" x="63.623047"/>
       <use xlink:href="#DejaVuSerif-30" x="95.410156"/>
       <use xlink:href="#DejaVuSerif-36" x="159.033203"/>
      </g>
     </g>
    </g>
    <g id="xtick_5">
     <g id="line2d_5">
      <g>
       <use xlink:href="#m2ce81ea352" x="397.82946" y="207.828125" style="stroke: #000000; stroke-width: 0.8"/>
      </g>
     </g>
     <g id="text_5">
      <!-- 0,08 -->
      <g transform="translate(385.583366 223.186406)scale(0.11 -0.11)">
       <defs>
        <path id="DejaVuSerif-38" d="M 2981 1275 
Q 2981 1775 2732 2051 
Q 2484 2328 2034 2328 
Q 1584 2328 1336 2051 
Q 1088 1775 1088 1275 
Q 1088 772 1336 495 
Q 1584 219 2034 219 
Q 2484 219 2732 495 
Q 2981 772 2981 1275 
z
M 2853 3541 
Q 2853 3966 2637 4203 
Q 2422 4441 2034 4441 
Q 1650 4441 1433 4203 
Q 1216 3966 1216 3541 
Q 1216 3113 1433 2875 
Q 1650 2638 2034 2638 
Q 2422 2638 2637 2875 
Q 2853 3113 2853 3541 
z
M 2516 2484 
Q 3047 2413 3344 2092 
Q 3641 1772 3641 1275 
Q 3641 619 3225 264 
Q 2809 -91 2034 -91 
Q 1263 -91 845 264 
Q 428 619 428 1275 
Q 428 1772 725 2092 
Q 1022 2413 1556 2484 
Q 1084 2569 832 2842 
Q 581 3116 581 3541 
Q 581 4103 968 4426 
Q 1356 4750 2034 4750 
Q 2713 4750 3100 4426 
Q 3488 4103 3488 3541 
Q 3488 3116 3236 2842 
Q 2984 2569 2516 2484 
z
" transform="scale(0.015625)"/>
       </defs>
       <use xlink:href="#DejaVuSerif-30"/>
       <use xlink:href="#DejaVuSerif-2c" x="63.623047"/>
       <use xlink:href="#DejaVuSerif-30" x="95.410156"/>
       <use xlink:href="#DejaVuSerif-38" x="159.033203"/>
      </g>
     </g>
    </g>
    <g id="text_6">
     <!-- $\alpha$ -->
     <g transform="translate(243.437266 237.832344)scale(0.11 -0.11)">
      <defs>
       <path id="DejaVuSans-Oblique-3b1" d="M 2619 1628 
L 2622 2350 
Q 2625 3088 2069 3091 
Q 1653 3094 1394 2747 
Q 1069 2319 959 1747 
Q 825 1059 994 731 
Q 1169 397 1547 397 
Q 1966 397 2319 1063 
L 2619 1628 
z
M 2166 3578 
Q 3141 3594 3128 2584 
Q 3128 2584 3616 3500 
L 4128 3500 
L 3119 1603 
L 3109 919 
Q 3109 766 3194 638 
Q 3291 488 3391 488 
L 3669 488 
L 3575 0 
L 3228 0 
Q 2934 0 2722 263 
Q 2622 394 2619 669 
Q 2416 334 2066 50 
Q 1900 -81 1453 -78 
Q 722 -72 456 397 
Q 184 884 353 1747 
Q 534 2675 1009 3097 
Q 1544 3569 2166 3578 
z
" transform="scale(0.015625)"/>
      </defs>
      <use xlink:href="#DejaVuSans-Oblique-3b1" transform="translate(0 0.84375)"/>
     </g>
    </g>
   </g>
   <g id="matplotlib.axis_2">
    <g id="ytick_1">
     <g id="line2d_6">
      <defs>
       <path id="m5e6eb39dda" d="M 0 0 
L -3.5 0 
" style="stroke: #000000; stroke-width: 0.8"/>
      </defs>
      <g>
       <use xlink:href="#m5e6eb39dda" x="58.174531" y="187.920924" style="stroke: #000000; stroke-width: 0.8"/>
      </g>
     </g>
     <g id="text_7">
      <!-- 0,76 -->
      <g transform="translate(26.682344 192.100065)scale(0.11 -0.11)">
       <defs>
        <path id="DejaVuSerif-37" d="M 3609 4347 
L 1784 0 
L 1319 0 
L 3059 4153 
L 903 4153 
L 903 3578 
L 538 3578 
L 538 4666 
L 3609 4666 
L 3609 4347 
z
" transform="scale(0.015625)"/>
       </defs>
       <use xlink:href="#DejaVuSerif-30"/>
       <use xlink:href="#DejaVuSerif-2c" x="63.623047"/>
       <use xlink:href="#DejaVuSerif-37" x="95.410156"/>
       <use xlink:href="#DejaVuSerif-36" x="159.033203"/>
      </g>
     </g>
    </g>
    <g id="ytick_2">
     <g id="line2d_7">
      <g>
       <use xlink:href="#m5e6eb39dda" x="58.174531" y="139.902892" style="stroke: #000000; stroke-width: 0.8"/>
      </g>
     </g>
     <g id="text_8">
      <!-- 0,78 -->
      <g transform="translate(26.682344 144.082033)scale(0.11 -0.11)">
       <use xlink:href="#DejaVuSerif-30"/>
       <use xlink:href="#DejaVuSerif-2c" x="63.623047"/>
       <use xlink:href="#DejaVuSerif-37" x="95.410156"/>
       <use xlink:href="#DejaVuSerif-38" x="159.033203"/>
      </g>
     </g>
    </g>
    <g id="ytick_3">
     <g id="line2d_8">
      <g>
       <use xlink:href="#m5e6eb39dda" x="58.174531" y="91.88486" style="stroke: #000000; stroke-width: 0.8"/>
      </g>
     </g>
     <g id="text_9">
      <!-- 0,80 -->
      <g transform="translate(26.682344 96.064001)scale(0.11 -0.11)">
       <use xlink:href="#DejaVuSerif-30"/>
       <use xlink:href="#DejaVuSerif-2c" x="63.623047"/>
       <use xlink:href="#DejaVuSerif-38" x="95.410156"/>
       <use xlink:href="#DejaVuSerif-30" x="159.033203"/>
      </g>
     </g>
    </g>
    <g id="ytick_4">
     <g id="line2d_9">
      <g>
       <use xlink:href="#m5e6eb39dda" x="58.174531" y="43.866829" style="stroke: #000000; stroke-width: 0.8"/>
      </g>
     </g>
     <g id="text_10">
      <!-- 0,82 -->
      <g transform="translate(26.682344 48.045969)scale(0.11 -0.11)">
       <use xlink:href="#DejaVuSerif-30"/>
       <use xlink:href="#DejaVuSerif-2c" x="63.623047"/>
       <use xlink:href="#DejaVuSerif-38" x="95.410156"/>
       <use xlink:href="#DejaVuSerif-32" x="159.033203"/>
      </g>
     </g>
    </g>
    <g id="text_11">
     <!-- Genauigkeit -->
     <g transform="translate(20.238281 143.704844)rotate(-90)scale(0.11 -0.11)">
      <defs>
       <path id="DejaVuSerif-47" d="M 4097 3272 
Q 3988 3856 3641 4136 
Q 3294 4416 2675 4416 
Q 1869 4416 1472 3897 
Q 1075 3378 1075 2328 
Q 1075 1300 1484 772 
Q 1894 244 2688 244 
Q 3041 244 3362 331 
Q 3684 419 3975 594 
L 3975 1797 
L 3097 1797 
L 3097 2131 
L 4609 2131 
L 4609 391 
Q 4194 150 3714 29 
Q 3234 -91 2688 -91 
Q 1631 -91 995 570 
Q 359 1231 359 2328 
Q 359 3434 996 4092 
Q 1634 4750 2713 4750 
Q 3113 4750 3539 4658 
Q 3966 4566 4447 4378 
L 4447 3272 
L 4097 3272 
z
" transform="scale(0.015625)"/>
       <path id="DejaVuSerif-65" d="M 3469 1600 
L 991 1600 
L 991 1575 
Q 991 903 1244 561 
Q 1497 219 1991 219 
Q 2369 219 2611 417 
Q 2853 616 2950 1006 
L 3413 1006 
Q 3275 459 2904 184 
Q 2534 -91 1931 -91 
Q 1203 -91 761 389 
Q 319 869 319 1663 
Q 319 2450 753 2931 
Q 1188 3413 1894 3413 
Q 2647 3413 3050 2948 
Q 3453 2484 3469 1600 
z
M 2791 1931 
Q 2772 2513 2545 2808 
Q 2319 3103 1894 3103 
Q 1497 3103 1269 2806 
Q 1041 2509 991 1931 
L 2791 1931 
z
" transform="scale(0.015625)"/>
       <path id="DejaVuSerif-6e" d="M 263 0 
L 263 331 
L 781 331 
L 781 2988 
L 231 2988 
L 231 3322 
L 1356 3322 
L 1356 2731 
Q 1516 3069 1770 3241 
Q 2025 3413 2363 3413 
Q 2913 3413 3172 3097 
Q 3431 2781 3431 2113 
L 3431 331 
L 3944 331 
L 3944 0 
L 2356 0 
L 2356 331 
L 2853 331 
L 2853 1931 
Q 2853 2541 2703 2767 
Q 2553 2994 2175 2994 
Q 1775 2994 1565 2701 
Q 1356 2409 1356 1850 
L 1356 331 
L 1856 331 
L 1856 0 
L 263 0 
z
" transform="scale(0.015625)"/>
       <path id="DejaVuSerif-61" d="M 2547 1044 
L 2547 1747 
L 1806 1747 
Q 1378 1747 1168 1562 
Q 959 1378 959 997 
Q 959 650 1171 447 
Q 1384 244 1747 244 
Q 2106 244 2326 466 
Q 2547 688 2547 1044 
z
M 3122 2075 
L 3122 331 
L 3634 331 
L 3634 0 
L 2547 0 
L 2547 359 
Q 2356 128 2106 18 
Q 1856 -91 1522 -91 
Q 969 -91 644 203 
Q 319 497 319 997 
Q 319 1513 691 1797 
Q 1063 2081 1741 2081 
L 2547 2081 
L 2547 2309 
Q 2547 2688 2317 2895 
Q 2088 3103 1672 3103 
Q 1328 3103 1125 2947 
Q 922 2791 872 2484 
L 575 2484 
L 575 3156 
Q 875 3284 1158 3348 
Q 1441 3413 1709 3413 
Q 2400 3413 2761 3070 
Q 3122 2728 3122 2075 
z
" transform="scale(0.015625)"/>
       <path id="DejaVuSerif-75" d="M 2266 3322 
L 3341 3322 
L 3341 331 
L 3884 331 
L 3884 0 
L 2766 0 
L 2766 588 
Q 2606 256 2353 82 
Q 2100 -91 1766 -91 
Q 1213 -91 952 223 
Q 691 538 691 1209 
L 691 2988 
L 172 2988 
L 172 3322 
L 1269 3322 
L 1269 1388 
Q 1269 781 1417 556 
Q 1566 331 1947 331 
Q 2347 331 2556 625 
Q 2766 919 2766 1478 
L 2766 2988 
L 2266 2988 
L 2266 3322 
z
" transform="scale(0.015625)"/>
       <path id="DejaVuSerif-69" d="M 622 4353 
Q 622 4497 726 4603 
Q 831 4709 978 4709 
Q 1122 4709 1226 4603 
Q 1331 4497 1331 4353 
Q 1331 4206 1228 4103 
Q 1125 4000 978 4000 
Q 831 4000 726 4103 
Q 622 4206 622 4353 
z
M 1356 331 
L 1900 331 
L 1900 0 
L 231 0 
L 231 331 
L 781 331 
L 781 2988 
L 231 2988 
L 231 3322 
L 1356 3322 
L 1356 331 
z
" transform="scale(0.015625)"/>
       <path id="DejaVuSerif-67" d="M 3359 2988 
L 3359 72 
Q 3359 -644 2965 -1033 
Q 2572 -1422 1844 -1422 
Q 1516 -1422 1216 -1362 
Q 916 -1303 641 -1184 
L 641 -488 
L 941 -488 
Q 997 -813 1206 -963 
Q 1416 -1113 1806 -1113 
Q 2313 -1113 2548 -827 
Q 2784 -541 2784 72 
L 2784 519 
Q 2616 206 2355 57 
Q 2094 -91 1709 -91 
Q 1097 -91 708 395 
Q 319 881 319 1663 
Q 319 2444 706 2928 
Q 1094 3413 1709 3413 
Q 2094 3413 2355 3264 
Q 2616 3116 2784 2803 
L 2784 3322 
L 3909 3322 
L 3909 2988 
L 3359 2988 
z
M 2784 1825 
Q 2784 2422 2554 2737 
Q 2325 3053 1888 3053 
Q 1444 3053 1217 2703 
Q 991 2353 991 1663 
Q 991 975 1217 622 
Q 1444 269 1888 269 
Q 2325 269 2554 583 
Q 2784 897 2784 1497 
L 2784 1825 
z
" transform="scale(0.015625)"/>
       <path id="DejaVuSerif-6b" d="M 1831 0 
L 219 0 
L 219 331 
L 738 331 
L 738 4531 
L 184 4531 
L 184 4863 
L 1313 4863 
L 1313 1697 
L 2713 2988 
L 2234 2988 
L 2234 3322 
L 3738 3322 
L 3738 2988 
L 3169 2988 
L 2181 2075 
L 3444 331 
L 3922 331 
L 3922 0 
L 2284 0 
L 2284 331 
L 2759 331 
L 1766 1697 
L 1313 1275 
L 1313 331 
L 1831 331 
L 1831 0 
z
" transform="scale(0.015625)"/>
       <path id="DejaVuSerif-74" d="M 691 2988 
L 184 2988 
L 184 3322 
L 691 3322 
L 691 4353 
L 1269 4353 
L 1269 3322 
L 2350 3322 
L 2350 2988 
L 1269 2988 
L 1269 878 
Q 1269 456 1350 337 
Q 1431 219 1650 219 
Q 1875 219 1978 351 
Q 2081 484 2088 781 
L 2522 781 
Q 2497 328 2275 118 
Q 2053 -91 1600 -91 
Q 1103 -91 897 129 
Q 691 350 691 878 
L 691 2988 
z
" transform="scale(0.015625)"/>
      </defs>
      <use xlink:href="#DejaVuSerif-47"/>
      <use xlink:href="#DejaVuSerif-65" x="79.882812"/>
      <use xlink:href="#DejaVuSerif-6e" x="139.0625"/>
      <use xlink:href="#DejaVuSerif-61" x="203.466797"/>
      <use xlink:href="#DejaVuSerif-75" x="263.085938"/>
      <use xlink:href="#DejaVuSerif-69" x="327.490234"/>
      <use xlink:href="#DejaVuSerif-67" x="359.472656"/>
      <use xlink:href="#DejaVuSerif-6b" x="423.486328"/>
      <use xlink:href="#DejaVuSerif-65" x="484.082031"/>
      <use xlink:href="#DejaVuSerif-69" x="543.261719"/>
      <use xlink:href="#DejaVuSerif-74" x="575.244141"/>
     </g>
    </g>
   </g>
   <g id="line2d_10">
    <path d="M 75.346598 98.517388 
L 75.479487 98.517388 
L 75.583959 101.448892 
L 75.585969 101.448892 
L 75.618764 101.448892 
L 75.706849 105.3881 
L 75.769381 105.3881 
L 75.828792 112.900078 
L 75.84473 112.900078 
L 75.880972 112.900078 
L 75.966061 117.114115 
L 76.055898 117.114115 
L 76.055898 118.03021 
L 76.159337 118.03021 
L 76.18726 118.03021 
L 76.18726 118.946305 
L 76.313289 118.946305 
L 76.349916 123.618389 
L 76.406255 123.618389 
L 76.465477 123.618389 
L 76.475392 125.633798 
L 76.562822 125.633798 
L 76.73083 125.633798 
L 76.73083 127.924035 
L 77.160021 127.924035 
L 77.160021 129.573006 
L 78.235821 129.573006 
L 78.235821 130.855539 
L 78.270335 130.855539 
L 78.621647 130.855539 
L 78.621647 135.802451 
L 78.645329 135.802451 
L 79.524198 135.802451 
L 79.524198 143.955696 
L 80.204551 143.955696 
L 80.204551 148.536171 
L 148.18375 148.536171 
L 148.18375 162.369204 
L 227.656843 162.369204 
L 227.656843 198.921392 
L 418.787933 198.921392 
L 418.787933 198.921392 
" clip-path="url(#p83e2275ed2)" style="fill: none; stroke: #ec635c; stroke-width: 1.5; stroke-linecap: square"/>
    <defs>
     <path id="m6efe408ada" d="M 0 1.5 
C 0.397805 1.5 0.77937 1.341951 1.06066 1.06066 
C 1.341951 0.77937 1.5 0.397805 1.5 0 
C 1.5 -0.397805 1.341951 -0.77937 1.06066 -1.06066 
C 0.77937 -1.341951 0.397805 -1.5 0 -1.5 
C -0.397805 -1.5 -0.77937 -1.341951 -1.06066 -1.06066 
C -1.341951 -0.77937 -1.5 -0.397805 -1.5 0 
C -1.5 0.397805 -1.341951 0.77937 -1.06066 1.06066 
C -0.77937 1.341951 -0.397805 1.5 0 1.5 
z
" style="stroke: #ec635c; stroke-width: 1.5"/>
    </defs>
    <g clip-path="url(#p83e2275ed2)">
     <use xlink:href="#m6efe408ada" x="75.346598" y="98.517388" style="fill: #ec635c; stroke: #ec635c; stroke-width: 1.5"/>
     <use xlink:href="#m6efe408ada" x="75.350632" y="98.517388" style="fill: #ec635c; stroke: #ec635c; stroke-width: 1.5"/>
     <use xlink:href="#m6efe408ada" x="75.376561" y="98.517388" style="fill: #ec635c; stroke: #ec635c; stroke-width: 1.5"/>
     <use xlink:href="#m6efe408ada" x="75.428338" y="98.517388" style="fill: #ec635c; stroke: #ec635c; stroke-width: 1.5"/>
     <use xlink:href="#m6efe408ada" x="75.441484" y="98.517388" style="fill: #ec635c; stroke: #ec635c; stroke-width: 1.5"/>
     <use xlink:href="#m6efe408ada" x="75.455379" y="98.517388" style="fill: #ec635c; stroke: #ec635c; stroke-width: 1.5"/>
     <use xlink:href="#m6efe408ada" x="75.472694" y="98.517388" style="fill: #ec635c; stroke: #ec635c; stroke-width: 1.5"/>
     <use xlink:href="#m6efe408ada" x="75.479487" y="98.700607" style="fill: #ec635c; stroke: #ec635c; stroke-width: 1.5"/>
     <use xlink:href="#m6efe408ada" x="75.485015" y="98.700607" style="fill: #ec635c; stroke: #ec635c; stroke-width: 1.5"/>
     <use xlink:href="#m6efe408ada" x="75.518736" y="98.700607" style="fill: #ec635c; stroke: #ec635c; stroke-width: 1.5"/>
     <use xlink:href="#m6efe408ada" x="75.545371" y="100.441187" style="fill: #ec635c; stroke: #ec635c; stroke-width: 1.5"/>
     <use xlink:href="#m6efe408ada" x="75.558539" y="100.441187" style="fill: #ec635c; stroke: #ec635c; stroke-width: 1.5"/>
     <use xlink:href="#m6efe408ada" x="75.562503" y="101.082454" style="fill: #ec635c; stroke: #ec635c; stroke-width: 1.5"/>
     <use xlink:href="#m6efe408ada" x="75.583959" y="101.448892" style="fill: #ec635c; stroke: #ec635c; stroke-width: 1.5"/>
     <use xlink:href="#m6efe408ada" x="75.585969" y="101.448892" style="fill: #ec635c; stroke: #ec635c; stroke-width: 1.5"/>
     <use xlink:href="#m6efe408ada" x="75.592359" y="101.448892" style="fill: #ec635c; stroke: #ec635c; stroke-width: 1.5"/>
     <use xlink:href="#m6efe408ada" x="75.618764" y="102.181767" style="fill: #ec635c; stroke: #ec635c; stroke-width: 1.5"/>
     <use xlink:href="#m6efe408ada" x="75.632487" y="102.548205" style="fill: #ec635c; stroke: #ec635c; stroke-width: 1.5"/>
     <use xlink:href="#m6efe408ada" x="75.647642" y="104.288786" style="fill: #ec635c; stroke: #ec635c; stroke-width: 1.5"/>
     <use xlink:href="#m6efe408ada" x="75.648036" y="104.288786" style="fill: #ec635c; stroke: #ec635c; stroke-width: 1.5"/>
     <use xlink:href="#m6efe408ada" x="75.649457" y="104.288786" style="fill: #ec635c; stroke: #ec635c; stroke-width: 1.5"/>
     <use xlink:href="#m6efe408ada" x="75.653401" y="104.288786" style="fill: #ec635c; stroke: #ec635c; stroke-width: 1.5"/>
     <use xlink:href="#m6efe408ada" x="75.656893" y="104.288786" style="fill: #ec635c; stroke: #ec635c; stroke-width: 1.5"/>
     <use xlink:href="#m6efe408ada" x="75.670169" y="104.288786" style="fill: #ec635c; stroke: #ec635c; stroke-width: 1.5"/>
     <use xlink:href="#m6efe408ada" x="75.67404" y="104.288786" style="fill: #ec635c; stroke: #ec635c; stroke-width: 1.5"/>
     <use xlink:href="#m6efe408ada" x="75.6833" y="104.288786" style="fill: #ec635c; stroke: #ec635c; stroke-width: 1.5"/>
     <use xlink:href="#m6efe408ada" x="75.685806" y="104.288786" style="fill: #ec635c; stroke: #ec635c; stroke-width: 1.5"/>
     <use xlink:href="#m6efe408ada" x="75.706849" y="105.3881" style="fill: #ec635c; stroke: #ec635c; stroke-width: 1.5"/>
     <use xlink:href="#m6efe408ada" x="75.769381" y="106.945461" style="fill: #ec635c; stroke: #ec635c; stroke-width: 1.5"/>
     <use xlink:href="#m6efe408ada" x="75.779521" y="107.12868" style="fill: #ec635c; stroke: #ec635c; stroke-width: 1.5"/>
     <use xlink:href="#m6efe408ada" x="75.807397" y="109.052479" style="fill: #ec635c; stroke: #ec635c; stroke-width: 1.5"/>
     <use xlink:href="#m6efe408ada" x="75.828792" y="112.900078" style="fill: #ec635c; stroke: #ec635c; stroke-width: 1.5"/>
     <use xlink:href="#m6efe408ada" x="75.84473" y="112.900078" style="fill: #ec635c; stroke: #ec635c; stroke-width: 1.5"/>
     <use xlink:href="#m6efe408ada" x="75.880972" y="114.823877" style="fill: #ec635c; stroke: #ec635c; stroke-width: 1.5"/>
     <use xlink:href="#m6efe408ada" x="75.885868" y="115.007096" style="fill: #ec635c; stroke: #ec635c; stroke-width: 1.5"/>
     <use xlink:href="#m6efe408ada" x="75.896827" y="116.014801" style="fill: #ec635c; stroke: #ec635c; stroke-width: 1.5"/>
     <use xlink:href="#m6efe408ada" x="75.92971" y="116.381239" style="fill: #ec635c; stroke: #ec635c; stroke-width: 1.5"/>
     <use xlink:href="#m6efe408ada" x="75.949181" y="116.381239" style="fill: #ec635c; stroke: #ec635c; stroke-width: 1.5"/>
     <use xlink:href="#m6efe408ada" x="75.966061" y="117.114115" style="fill: #ec635c; stroke: #ec635c; stroke-width: 1.5"/>
     <use xlink:href="#m6efe408ada" x="75.992266" y="117.114115" style="fill: #ec635c; stroke: #ec635c; stroke-width: 1.5"/>
     <use xlink:href="#m6efe408ada" x="75.998999" y="117.114115" style="fill: #ec635c; stroke: #ec635c; stroke-width: 1.5"/>
     <use xlink:href="#m6efe408ada" x="75.99972" y="117.114115" style="fill: #ec635c; stroke: #ec635c; stroke-width: 1.5"/>
     <use xlink:href="#m6efe408ada" x="76.055898" y="118.03021" style="fill: #ec635c; stroke: #ec635c; stroke-width: 1.5"/>
     <use xlink:href="#m6efe408ada" x="76.056211" y="118.03021" style="fill: #ec635c; stroke: #ec635c; stroke-width: 1.5"/>
     <use xlink:href="#m6efe408ada" x="76.159337" y="118.03021" style="fill: #ec635c; stroke: #ec635c; stroke-width: 1.5"/>
     <use xlink:href="#m6efe408ada" x="76.18726" y="118.946305" style="fill: #ec635c; stroke: #ec635c; stroke-width: 1.5"/>
     <use xlink:href="#m6efe408ada" x="76.313289" y="121.328151" style="fill: #ec635c; stroke: #ec635c; stroke-width: 1.5"/>
     <use xlink:href="#m6efe408ada" x="76.323255" y="121.328151" style="fill: #ec635c; stroke: #ec635c; stroke-width: 1.5"/>
     <use xlink:href="#m6efe408ada" x="76.349916" y="123.618389" style="fill: #ec635c; stroke: #ec635c; stroke-width: 1.5"/>
     <use xlink:href="#m6efe408ada" x="76.36744" y="123.618389" style="fill: #ec635c; stroke: #ec635c; stroke-width: 1.5"/>
     <use xlink:href="#m6efe408ada" x="76.398224" y="123.618389" style="fill: #ec635c; stroke: #ec635c; stroke-width: 1.5"/>
     <use xlink:href="#m6efe408ada" x="76.406255" y="123.618389" style="fill: #ec635c; stroke: #ec635c; stroke-width: 1.5"/>
     <use xlink:href="#m6efe408ada" x="76.465477" y="124.534484" style="fill: #ec635c; stroke: #ec635c; stroke-width: 1.5"/>
     <use xlink:href="#m6efe408ada" x="76.475392" y="125.633798" style="fill: #ec635c; stroke: #ec635c; stroke-width: 1.5"/>
     <use xlink:href="#m6efe408ada" x="76.486704" y="125.633798" style="fill: #ec635c; stroke: #ec635c; stroke-width: 1.5"/>
     <use xlink:href="#m6efe408ada" x="76.516817" y="125.633798" style="fill: #ec635c; stroke: #ec635c; stroke-width: 1.5"/>
     <use xlink:href="#m6efe408ada" x="76.562822" y="125.633798" style="fill: #ec635c; stroke: #ec635c; stroke-width: 1.5"/>
     <use xlink:href="#m6efe408ada" x="76.578208" y="125.633798" style="fill: #ec635c; stroke: #ec635c; stroke-width: 1.5"/>
     <use xlink:href="#m6efe408ada" x="76.590151" y="125.633798" style="fill: #ec635c; stroke: #ec635c; stroke-width: 1.5"/>
     <use xlink:href="#m6efe408ada" x="76.620564" y="125.633798" style="fill: #ec635c; stroke: #ec635c; stroke-width: 1.5"/>
     <use xlink:href="#m6efe408ada" x="76.73083" y="127.924035" style="fill: #ec635c; stroke: #ec635c; stroke-width: 1.5"/>
     <use xlink:href="#m6efe408ada" x="76.875005" y="127.924035" style="fill: #ec635c; stroke: #ec635c; stroke-width: 1.5"/>
     <use xlink:href="#m6efe408ada" x="76.966467" y="127.924035" style="fill: #ec635c; stroke: #ec635c; stroke-width: 1.5"/>
     <use xlink:href="#m6efe408ada" x="77.042941" y="127.924035" style="fill: #ec635c; stroke: #ec635c; stroke-width: 1.5"/>
     <use xlink:href="#m6efe408ada" x="77.160021" y="129.573006" style="fill: #ec635c; stroke: #ec635c; stroke-width: 1.5"/>
     <use xlink:href="#m6efe408ada" x="77.662662" y="129.573006" style="fill: #ec635c; stroke: #ec635c; stroke-width: 1.5"/>
     <use xlink:href="#m6efe408ada" x="77.922547" y="129.573006" style="fill: #ec635c; stroke: #ec635c; stroke-width: 1.5"/>
     <use xlink:href="#m6efe408ada" x="77.982344" y="129.573006" style="fill: #ec635c; stroke: #ec635c; stroke-width: 1.5"/>
     <use xlink:href="#m6efe408ada" x="78.235821" y="130.855539" style="fill: #ec635c; stroke: #ec635c; stroke-width: 1.5"/>
     <use xlink:href="#m6efe408ada" x="78.270335" y="130.855539" style="fill: #ec635c; stroke: #ec635c; stroke-width: 1.5"/>
     <use xlink:href="#m6efe408ada" x="78.392451" y="130.855539" style="fill: #ec635c; stroke: #ec635c; stroke-width: 1.5"/>
     <use xlink:href="#m6efe408ada" x="78.489772" y="130.855539" style="fill: #ec635c; stroke: #ec635c; stroke-width: 1.5"/>
     <use xlink:href="#m6efe408ada" x="78.502478" y="130.855539" style="fill: #ec635c; stroke: #ec635c; stroke-width: 1.5"/>
     <use xlink:href="#m6efe408ada" x="78.621647" y="135.802451" style="fill: #ec635c; stroke: #ec635c; stroke-width: 1.5"/>
     <use xlink:href="#m6efe408ada" x="78.645329" y="135.802451" style="fill: #ec635c; stroke: #ec635c; stroke-width: 1.5"/>
     <use xlink:href="#m6efe408ada" x="79.524198" y="143.955696" style="fill: #ec635c; stroke: #ec635c; stroke-width: 1.5"/>
     <use xlink:href="#m6efe408ada" x="80.204551" y="148.536171" style="fill: #ec635c; stroke: #ec635c; stroke-width: 1.5"/>
     <use xlink:href="#m6efe408ada" x="80.933507" y="148.536171" style="fill: #ec635c; stroke: #ec635c; stroke-width: 1.5"/>
     <use xlink:href="#m6efe408ada" x="81.978556" y="148.536171" style="fill: #ec635c; stroke: #ec635c; stroke-width: 1.5"/>
     <use xlink:href="#m6efe408ada" x="82.085626" y="148.536171" style="fill: #ec635c; stroke: #ec635c; stroke-width: 1.5"/>
     <use xlink:href="#m6efe408ada" x="82.368466" y="148.536171" style="fill: #ec635c; stroke: #ec635c; stroke-width: 1.5"/>
     <use xlink:href="#m6efe408ada" x="83.42592" y="148.536171" style="fill: #ec635c; stroke: #ec635c; stroke-width: 1.5"/>
     <use xlink:href="#m6efe408ada" x="86.763504" y="148.536171" style="fill: #ec635c; stroke: #ec635c; stroke-width: 1.5"/>
     <use xlink:href="#m6efe408ada" x="94.832775" y="148.536171" style="fill: #ec635c; stroke: #ec635c; stroke-width: 1.5"/>
     <use xlink:href="#m6efe408ada" x="100.756153" y="148.536171" style="fill: #ec635c; stroke: #ec635c; stroke-width: 1.5"/>
     <use xlink:href="#m6efe408ada" x="102.879891" y="148.536171" style="fill: #ec635c; stroke: #ec635c; stroke-width: 1.5"/>
     <use xlink:href="#m6efe408ada" x="111.871501" y="148.536171" style="fill: #ec635c; stroke: #ec635c; stroke-width: 1.5"/>
     <use xlink:href="#m6efe408ada" x="148.18375" y="162.369204" style="fill: #ec635c; stroke: #ec635c; stroke-width: 1.5"/>
     <use xlink:href="#m6efe408ada" x="227.656843" y="198.921392" style="fill: #ec635c; stroke: #ec635c; stroke-width: 1.5"/>
     <use xlink:href="#m6efe408ada" x="418.787933" y="198.921392" style="fill: #ec635c; stroke: #ec635c; stroke-width: 1.5"/>
    </g>
   </g>
   <g id="line2d_11">
    <path d="M 75.346598 29.718659 
L 75.562503 29.718659 
L 75.562503 30.611851 
L 75.670169 30.611851 
L 75.885868 30.611851 
L 75.92971 27.039081 
L 75.992266 27.039081 
L 76.055898 27.039081 
L 76.055898 20.786733 
L 76.159337 20.786733 
L 76.18726 20.786733 
L 76.18726 23.466311 
L 76.313289 23.466311 
L 76.349916 26.145888 
L 76.406255 26.145888 
L 76.475392 26.145888 
L 76.475392 24.359503 
L 76.578208 24.359503 
L 76.73083 24.359503 
L 76.73083 27.932273 
L 78.235821 27.932273 
L 78.235821 31.505044 
L 78.270335 31.505044 
L 78.621647 31.505044 
L 78.621647 37.757392 
L 78.645329 37.757392 
L 79.524198 37.757392 
L 79.524198 44.902932 
L 148.18375 44.902932 
L 148.18375 84.203404 
L 227.656843 84.203404 
L 227.656843 85.98979 
L 418.787933 85.98979 
L 418.787933 85.98979 
" clip-path="url(#p83e2275ed2)" style="fill: none; stroke-dasharray: 5.55,2.4; stroke-dashoffset: 0; stroke: #4b81c4; stroke-width: 1.5"/>
    <defs>
     <path id="m9eec44b31b" d="M 0 1.5 
C 0.397805 1.5 0.77937 1.341951 1.06066 1.06066 
C 1.341951 0.77937 1.5 0.397805 1.5 0 
C 1.5 -0.397805 1.341951 -0.77937 1.06066 -1.06066 
C 0.77937 -1.341951 0.397805 -1.5 0 -1.5 
C -0.397805 -1.5 -0.77937 -1.341951 -1.06066 -1.06066 
C -1.341951 -0.77937 -1.5 -0.397805 -1.5 0 
C -1.5 0.397805 -1.341951 0.77937 -1.06066 1.06066 
C -0.77937 1.341951 -0.397805 1.5 0 1.5 
z
" style="stroke: #4b81c4; stroke-width: 1.5"/>
    </defs>
    <g clip-path="url(#p83e2275ed2)">
     <use xlink:href="#m9eec44b31b" x="75.346598" y="29.718659" style="fill: #4b81c4; stroke: #4b81c4; stroke-width: 1.5"/>
     <use xlink:href="#m9eec44b31b" x="75.350632" y="29.718659" style="fill: #4b81c4; stroke: #4b81c4; stroke-width: 1.5"/>
     <use xlink:href="#m9eec44b31b" x="75.376561" y="29.718659" style="fill: #4b81c4; stroke: #4b81c4; stroke-width: 1.5"/>
     <use xlink:href="#m9eec44b31b" x="75.428338" y="29.718659" style="fill: #4b81c4; stroke: #4b81c4; stroke-width: 1.5"/>
     <use xlink:href="#m9eec44b31b" x="75.441484" y="29.718659" style="fill: #4b81c4; stroke: #4b81c4; stroke-width: 1.5"/>
     <use xlink:href="#m9eec44b31b" x="75.455379" y="29.718659" style="fill: #4b81c4; stroke: #4b81c4; stroke-width: 1.5"/>
     <use xlink:href="#m9eec44b31b" x="75.472694" y="29.718659" style="fill: #4b81c4; stroke: #4b81c4; stroke-width: 1.5"/>
     <use xlink:href="#m9eec44b31b" x="75.479487" y="29.718659" style="fill: #4b81c4; stroke: #4b81c4; stroke-width: 1.5"/>
     <use xlink:href="#m9eec44b31b" x="75.485015" y="29.718659" style="fill: #4b81c4; stroke: #4b81c4; stroke-width: 1.5"/>
     <use xlink:href="#m9eec44b31b" x="75.518736" y="29.718659" style="fill: #4b81c4; stroke: #4b81c4; stroke-width: 1.5"/>
     <use xlink:href="#m9eec44b31b" x="75.545371" y="29.718659" style="fill: #4b81c4; stroke: #4b81c4; stroke-width: 1.5"/>
     <use xlink:href="#m9eec44b31b" x="75.558539" y="29.718659" style="fill: #4b81c4; stroke: #4b81c4; stroke-width: 1.5"/>
     <use xlink:href="#m9eec44b31b" x="75.562503" y="30.611851" style="fill: #4b81c4; stroke: #4b81c4; stroke-width: 1.5"/>
     <use xlink:href="#m9eec44b31b" x="75.583959" y="30.611851" style="fill: #4b81c4; stroke: #4b81c4; stroke-width: 1.5"/>
     <use xlink:href="#m9eec44b31b" x="75.585969" y="30.611851" style="fill: #4b81c4; stroke: #4b81c4; stroke-width: 1.5"/>
     <use xlink:href="#m9eec44b31b" x="75.592359" y="30.611851" style="fill: #4b81c4; stroke: #4b81c4; stroke-width: 1.5"/>
     <use xlink:href="#m9eec44b31b" x="75.618764" y="30.611851" style="fill: #4b81c4; stroke: #4b81c4; stroke-width: 1.5"/>
     <use xlink:href="#m9eec44b31b" x="75.632487" y="30.611851" style="fill: #4b81c4; stroke: #4b81c4; stroke-width: 1.5"/>
     <use xlink:href="#m9eec44b31b" x="75.647642" y="30.611851" style="fill: #4b81c4; stroke: #4b81c4; stroke-width: 1.5"/>
     <use xlink:href="#m9eec44b31b" x="75.648036" y="30.611851" style="fill: #4b81c4; stroke: #4b81c4; stroke-width: 1.5"/>
     <use xlink:href="#m9eec44b31b" x="75.649457" y="30.611851" style="fill: #4b81c4; stroke: #4b81c4; stroke-width: 1.5"/>
     <use xlink:href="#m9eec44b31b" x="75.653401" y="30.611851" style="fill: #4b81c4; stroke: #4b81c4; stroke-width: 1.5"/>
     <use xlink:href="#m9eec44b31b" x="75.656893" y="30.611851" style="fill: #4b81c4; stroke: #4b81c4; stroke-width: 1.5"/>
     <use xlink:href="#m9eec44b31b" x="75.670169" y="30.611851" style="fill: #4b81c4; stroke: #4b81c4; stroke-width: 1.5"/>
     <use xlink:href="#m9eec44b31b" x="75.67404" y="30.611851" style="fill: #4b81c4; stroke: #4b81c4; stroke-width: 1.5"/>
     <use xlink:href="#m9eec44b31b" x="75.6833" y="30.611851" style="fill: #4b81c4; stroke: #4b81c4; stroke-width: 1.5"/>
     <use xlink:href="#m9eec44b31b" x="75.685806" y="30.611851" style="fill: #4b81c4; stroke: #4b81c4; stroke-width: 1.5"/>
     <use xlink:href="#m9eec44b31b" x="75.706849" y="30.611851" style="fill: #4b81c4; stroke: #4b81c4; stroke-width: 1.5"/>
     <use xlink:href="#m9eec44b31b" x="75.769381" y="30.611851" style="fill: #4b81c4; stroke: #4b81c4; stroke-width: 1.5"/>
     <use xlink:href="#m9eec44b31b" x="75.779521" y="30.611851" style="fill: #4b81c4; stroke: #4b81c4; stroke-width: 1.5"/>
     <use xlink:href="#m9eec44b31b" x="75.807397" y="30.611851" style="fill: #4b81c4; stroke: #4b81c4; stroke-width: 1.5"/>
     <use xlink:href="#m9eec44b31b" x="75.828792" y="30.611851" style="fill: #4b81c4; stroke: #4b81c4; stroke-width: 1.5"/>
     <use xlink:href="#m9eec44b31b" x="75.84473" y="30.611851" style="fill: #4b81c4; stroke: #4b81c4; stroke-width: 1.5"/>
     <use xlink:href="#m9eec44b31b" x="75.880972" y="30.611851" style="fill: #4b81c4; stroke: #4b81c4; stroke-width: 1.5"/>
     <use xlink:href="#m9eec44b31b" x="75.885868" y="27.932273" style="fill: #4b81c4; stroke: #4b81c4; stroke-width: 1.5"/>
     <use xlink:href="#m9eec44b31b" x="75.896827" y="27.932273" style="fill: #4b81c4; stroke: #4b81c4; stroke-width: 1.5"/>
     <use xlink:href="#m9eec44b31b" x="75.92971" y="27.039081" style="fill: #4b81c4; stroke: #4b81c4; stroke-width: 1.5"/>
     <use xlink:href="#m9eec44b31b" x="75.949181" y="27.039081" style="fill: #4b81c4; stroke: #4b81c4; stroke-width: 1.5"/>
     <use xlink:href="#m9eec44b31b" x="75.966061" y="27.039081" style="fill: #4b81c4; stroke: #4b81c4; stroke-width: 1.5"/>
     <use xlink:href="#m9eec44b31b" x="75.992266" y="27.039081" style="fill: #4b81c4; stroke: #4b81c4; stroke-width: 1.5"/>
     <use xlink:href="#m9eec44b31b" x="75.998999" y="27.039081" style="fill: #4b81c4; stroke: #4b81c4; stroke-width: 1.5"/>
     <use xlink:href="#m9eec44b31b" x="75.99972" y="27.039081" style="fill: #4b81c4; stroke: #4b81c4; stroke-width: 1.5"/>
     <use xlink:href="#m9eec44b31b" x="76.055898" y="20.786733" style="fill: #4b81c4; stroke: #4b81c4; stroke-width: 1.5"/>
     <use xlink:href="#m9eec44b31b" x="76.056211" y="20.786733" style="fill: #4b81c4; stroke: #4b81c4; stroke-width: 1.5"/>
     <use xlink:href="#m9eec44b31b" x="76.159337" y="20.786733" style="fill: #4b81c4; stroke: #4b81c4; stroke-width: 1.5"/>
     <use xlink:href="#m9eec44b31b" x="76.18726" y="23.466311" style="fill: #4b81c4; stroke: #4b81c4; stroke-width: 1.5"/>
     <use xlink:href="#m9eec44b31b" x="76.313289" y="24.359503" style="fill: #4b81c4; stroke: #4b81c4; stroke-width: 1.5"/>
     <use xlink:href="#m9eec44b31b" x="76.323255" y="24.359503" style="fill: #4b81c4; stroke: #4b81c4; stroke-width: 1.5"/>
     <use xlink:href="#m9eec44b31b" x="76.349916" y="26.145888" style="fill: #4b81c4; stroke: #4b81c4; stroke-width: 1.5"/>
     <use xlink:href="#m9eec44b31b" x="76.36744" y="26.145888" style="fill: #4b81c4; stroke: #4b81c4; stroke-width: 1.5"/>
     <use xlink:href="#m9eec44b31b" x="76.398224" y="26.145888" style="fill: #4b81c4; stroke: #4b81c4; stroke-width: 1.5"/>
     <use xlink:href="#m9eec44b31b" x="76.406255" y="26.145888" style="fill: #4b81c4; stroke: #4b81c4; stroke-width: 1.5"/>
     <use xlink:href="#m9eec44b31b" x="76.465477" y="26.145888" style="fill: #4b81c4; stroke: #4b81c4; stroke-width: 1.5"/>
     <use xlink:href="#m9eec44b31b" x="76.475392" y="24.359503" style="fill: #4b81c4; stroke: #4b81c4; stroke-width: 1.5"/>
     <use xlink:href="#m9eec44b31b" x="76.486704" y="24.359503" style="fill: #4b81c4; stroke: #4b81c4; stroke-width: 1.5"/>
     <use xlink:href="#m9eec44b31b" x="76.516817" y="24.359503" style="fill: #4b81c4; stroke: #4b81c4; stroke-width: 1.5"/>
     <use xlink:href="#m9eec44b31b" x="76.562822" y="24.359503" style="fill: #4b81c4; stroke: #4b81c4; stroke-width: 1.5"/>
     <use xlink:href="#m9eec44b31b" x="76.578208" y="24.359503" style="fill: #4b81c4; stroke: #4b81c4; stroke-width: 1.5"/>
     <use xlink:href="#m9eec44b31b" x="76.590151" y="24.359503" style="fill: #4b81c4; stroke: #4b81c4; stroke-width: 1.5"/>
     <use xlink:href="#m9eec44b31b" x="76.620564" y="24.359503" style="fill: #4b81c4; stroke: #4b81c4; stroke-width: 1.5"/>
     <use xlink:href="#m9eec44b31b" x="76.73083" y="27.932273" style="fill: #4b81c4; stroke: #4b81c4; stroke-width: 1.5"/>
     <use xlink:href="#m9eec44b31b" x="76.875005" y="27.932273" style="fill: #4b81c4; stroke: #4b81c4; stroke-width: 1.5"/>
     <use xlink:href="#m9eec44b31b" x="76.966467" y="27.932273" style="fill: #4b81c4; stroke: #4b81c4; stroke-width: 1.5"/>
     <use xlink:href="#m9eec44b31b" x="77.042941" y="27.932273" style="fill: #4b81c4; stroke: #4b81c4; stroke-width: 1.5"/>
     <use xlink:href="#m9eec44b31b" x="77.160021" y="27.932273" style="fill: #4b81c4; stroke: #4b81c4; stroke-width: 1.5"/>
     <use xlink:href="#m9eec44b31b" x="77.662662" y="27.932273" style="fill: #4b81c4; stroke: #4b81c4; stroke-width: 1.5"/>
     <use xlink:href="#m9eec44b31b" x="77.922547" y="27.932273" style="fill: #4b81c4; stroke: #4b81c4; stroke-width: 1.5"/>
     <use xlink:href="#m9eec44b31b" x="77.982344" y="27.932273" style="fill: #4b81c4; stroke: #4b81c4; stroke-width: 1.5"/>
     <use xlink:href="#m9eec44b31b" x="78.235821" y="31.505044" style="fill: #4b81c4; stroke: #4b81c4; stroke-width: 1.5"/>
     <use xlink:href="#m9eec44b31b" x="78.270335" y="31.505044" style="fill: #4b81c4; stroke: #4b81c4; stroke-width: 1.5"/>
     <use xlink:href="#m9eec44b31b" x="78.392451" y="31.505044" style="fill: #4b81c4; stroke: #4b81c4; stroke-width: 1.5"/>
     <use xlink:href="#m9eec44b31b" x="78.489772" y="31.505044" style="fill: #4b81c4; stroke: #4b81c4; stroke-width: 1.5"/>
     <use xlink:href="#m9eec44b31b" x="78.502478" y="31.505044" style="fill: #4b81c4; stroke: #4b81c4; stroke-width: 1.5"/>
     <use xlink:href="#m9eec44b31b" x="78.621647" y="37.757392" style="fill: #4b81c4; stroke: #4b81c4; stroke-width: 1.5"/>
     <use xlink:href="#m9eec44b31b" x="78.645329" y="37.757392" style="fill: #4b81c4; stroke: #4b81c4; stroke-width: 1.5"/>
     <use xlink:href="#m9eec44b31b" x="79.524198" y="44.902932" style="fill: #4b81c4; stroke: #4b81c4; stroke-width: 1.5"/>
     <use xlink:href="#m9eec44b31b" x="80.204551" y="44.902932" style="fill: #4b81c4; stroke: #4b81c4; stroke-width: 1.5"/>
     <use xlink:href="#m9eec44b31b" x="80.933507" y="44.902932" style="fill: #4b81c4; stroke: #4b81c4; stroke-width: 1.5"/>
     <use xlink:href="#m9eec44b31b" x="81.978556" y="44.902932" style="fill: #4b81c4; stroke: #4b81c4; stroke-width: 1.5"/>
     <use xlink:href="#m9eec44b31b" x="82.085626" y="44.902932" style="fill: #4b81c4; stroke: #4b81c4; stroke-width: 1.5"/>
     <use xlink:href="#m9eec44b31b" x="82.368466" y="44.902932" style="fill: #4b81c4; stroke: #4b81c4; stroke-width: 1.5"/>
     <use xlink:href="#m9eec44b31b" x="83.42592" y="44.902932" style="fill: #4b81c4; stroke: #4b81c4; stroke-width: 1.5"/>
     <use xlink:href="#m9eec44b31b" x="86.763504" y="44.902932" style="fill: #4b81c4; stroke: #4b81c4; stroke-width: 1.5"/>
     <use xlink:href="#m9eec44b31b" x="94.832775" y="44.902932" style="fill: #4b81c4; stroke: #4b81c4; stroke-width: 1.5"/>
     <use xlink:href="#m9eec44b31b" x="100.756153" y="44.902932" style="fill: #4b81c4; stroke: #4b81c4; stroke-width: 1.5"/>
     <use xlink:href="#m9eec44b31b" x="102.879891" y="44.902932" style="fill: #4b81c4; stroke: #4b81c4; stroke-width: 1.5"/>
     <use xlink:href="#m9eec44b31b" x="111.871501" y="44.902932" style="fill: #4b81c4; stroke: #4b81c4; stroke-width: 1.5"/>
     <use xlink:href="#m9eec44b31b" x="148.18375" y="84.203404" style="fill: #4b81c4; stroke: #4b81c4; stroke-width: 1.5"/>
     <use xlink:href="#m9eec44b31b" x="227.656843" y="85.98979" style="fill: #4b81c4; stroke: #4b81c4; stroke-width: 1.5"/>
     <use xlink:href="#m9eec44b31b" x="418.787933" y="85.98979" style="fill: #4b81c4; stroke: #4b81c4; stroke-width: 1.5"/>
    </g>
   </g>
   <g id="patch_3">
    <path d="M 58.174531 207.828125 
L 58.174531 11.88 
" style="fill: none; stroke: #000000; stroke-width: 0.5; stroke-linejoin: miter; stroke-linecap: square"/>
   </g>
   <g id="patch_4">
    <path d="M 435.96 207.828125 
L 435.96 11.88 
" style="fill: none; stroke: #000000; stroke-width: 0.5; stroke-linejoin: miter; stroke-linecap: square"/>
   </g>
   <g id="patch_5">
    <path d="M 58.174531 207.828125 
L 435.96 207.828125 
" style="fill: none; stroke: #000000; stroke-width: 0.5; stroke-linejoin: miter; stroke-linecap: square"/>
   </g>
   <g id="patch_6">
    <path d="M 58.174531 11.88 
L 435.96 11.88 
" style="fill: none; stroke: #000000; stroke-width: 0.5; stroke-linejoin: miter; stroke-linecap: square"/>
   </g>
   <g id="legend_1">
    <g id="patch_7">
     <path d="M 304.565 55.328281 
L 428.26 55.328281 
Q 430.46 55.328281 430.46 53.128281 
L 430.46 19.58 
Q 430.46 17.38 428.26 17.38 
L 304.565 17.38 
Q 302.365 17.38 302.365 19.58 
L 302.365 53.128281 
Q 302.365 55.328281 304.565 55.328281 
z
" style="fill: #ffffff; opacity: 0.8; stroke: #cccccc; stroke-width: 1.5; stroke-linejoin: miter"/>
    </g>
    <g id="line2d_12">
     <path d="M 307.865 27.388281 
L 318.865 27.388281 
L 318.865 27.388281 
L 329.865 27.388281 
L 329.865 27.388281 
" style="fill: none; stroke: #ec635c; stroke-width: 1.5; stroke-linecap: square"/>
     <g>
      <use xlink:href="#m6efe408ada" x="318.865" y="27.388281" style="fill: #ec635c; stroke: #ec635c; stroke-width: 1.5"/>
     </g>
    </g>
    <g id="text_12">
     <!-- Validierungsset -->
     <g transform="translate(338.665 31.238281)scale(0.11 -0.11)">
      <defs>
       <path id="DejaVuSerif-56" d="M 1119 4331 
L 2497 750 
L 3872 4331 
L 3347 4331 
L 3347 4666 
L 4716 4666 
L 4716 4331 
L 4263 4331 
L 2597 0 
L 2059 0 
L 403 4331 
L -63 4331 
L -63 4666 
L 1638 4666 
L 1638 4331 
L 1119 4331 
z
" transform="scale(0.015625)"/>
       <path id="DejaVuSerif-6c" d="M 1313 331 
L 1856 331 
L 1856 0 
L 184 0 
L 184 331 
L 738 331 
L 738 4531 
L 184 4531 
L 184 4863 
L 1313 4863 
L 1313 331 
z
" transform="scale(0.015625)"/>
       <path id="DejaVuSerif-64" d="M 3359 331 
L 3909 331 
L 3909 0 
L 2784 0 
L 2784 519 
Q 2616 206 2355 57 
Q 2094 -91 1709 -91 
Q 1097 -91 708 395 
Q 319 881 319 1663 
Q 319 2444 706 2928 
Q 1094 3413 1709 3413 
Q 2094 3413 2355 3264 
Q 2616 3116 2784 2803 
L 2784 4531 
L 2241 4531 
L 2241 4863 
L 3359 4863 
L 3359 331 
z
M 2784 1497 
L 2784 1825 
Q 2784 2422 2554 2737 
Q 2325 3053 1888 3053 
Q 1444 3053 1217 2703 
Q 991 2353 991 1663 
Q 991 975 1217 622 
Q 1444 269 1888 269 
Q 2325 269 2554 583 
Q 2784 897 2784 1497 
z
" transform="scale(0.015625)"/>
       <path id="DejaVuSerif-72" d="M 3059 3328 
L 3059 2497 
L 2728 2497 
Q 2713 2744 2591 2866 
Q 2469 2988 2234 2988 
Q 1809 2988 1582 2694 
Q 1356 2400 1356 1850 
L 1356 331 
L 2022 331 
L 2022 0 
L 263 0 
L 263 331 
L 781 331 
L 781 2994 
L 231 2994 
L 231 3322 
L 1356 3322 
L 1356 2731 
Q 1525 3078 1790 3245 
Q 2056 3413 2438 3413 
Q 2578 3413 2733 3391 
Q 2888 3369 3059 3328 
z
" transform="scale(0.015625)"/>
       <path id="DejaVuSerif-73" d="M 359 184 
L 359 959 
L 691 959 
Q 703 588 923 403 
Q 1144 219 1575 219 
Q 1963 219 2166 364 
Q 2369 509 2369 788 
Q 2369 1006 2220 1140 
Q 2072 1275 1594 1428 
L 1178 1569 
Q 750 1706 558 1912 
Q 366 2119 366 2438 
Q 366 2894 700 3153 
Q 1034 3413 1625 3413 
Q 1888 3413 2178 3344 
Q 2469 3275 2778 3144 
L 2778 2419 
L 2447 2419 
Q 2434 2741 2221 2922 
Q 2009 3103 1644 3103 
Q 1281 3103 1095 2975 
Q 909 2847 909 2591 
Q 909 2381 1050 2254 
Q 1191 2128 1613 1997 
L 2069 1856 
Q 2541 1709 2748 1489 
Q 2956 1269 2956 922 
Q 2956 450 2595 179 
Q 2234 -91 1600 -91 
Q 1278 -91 972 -22 
Q 666 47 359 184 
z
" transform="scale(0.015625)"/>
      </defs>
      <use xlink:href="#DejaVuSerif-56"/>
      <use xlink:href="#DejaVuSerif-61" x="63.091797"/>
      <use xlink:href="#DejaVuSerif-6c" x="122.710938"/>
      <use xlink:href="#DejaVuSerif-69" x="154.693359"/>
      <use xlink:href="#DejaVuSerif-64" x="186.675781"/>
      <use xlink:href="#DejaVuSerif-69" x="250.689453"/>
      <use xlink:href="#DejaVuSerif-65" x="282.671875"/>
      <use xlink:href="#DejaVuSerif-72" x="341.851562"/>
      <use xlink:href="#DejaVuSerif-75" x="389.654297"/>
      <use xlink:href="#DejaVuSerif-6e" x="454.058594"/>
      <use xlink:href="#DejaVuSerif-67" x="518.462891"/>
      <use xlink:href="#DejaVuSerif-73" x="582.476562"/>
      <use xlink:href="#DejaVuSerif-73" x="633.794922"/>
      <use xlink:href="#DejaVuSerif-65" x="685.113281"/>
      <use xlink:href="#DejaVuSerif-74" x="744.292969"/>
     </g>
    </g>
    <g id="line2d_13">
     <path d="M 307.865 43.690625 
L 318.865 43.690625 
L 318.865 43.690625 
L 329.865 43.690625 
L 329.865 43.690625 
" style="fill: none; stroke-dasharray: 5.55,2.4; stroke-dashoffset: 0; stroke: #4b81c4; stroke-width: 1.5"/>
     <g>
      <use xlink:href="#m9eec44b31b" x="318.865" y="43.690625" style="fill: #4b81c4; stroke: #4b81c4; stroke-width: 1.5"/>
     </g>
    </g>
    <g id="text_13">
     <!-- Testset -->
     <g transform="translate(338.665 47.540625)scale(0.11 -0.11)">
      <defs>
       <path id="DejaVuSerif-54" d="M 1222 0 
L 1222 331 
L 1819 331 
L 1819 4294 
L 447 4294 
L 447 3566 
L 63 3566 
L 63 4666 
L 4206 4666 
L 4206 3566 
L 3822 3566 
L 3822 4294 
L 2450 4294 
L 2450 331 
L 3047 331 
L 3047 0 
L 1222 0 
z
" transform="scale(0.015625)"/>
      </defs>
      <use xlink:href="#DejaVuSerif-54"/>
      <use xlink:href="#DejaVuSerif-65" x="58.949219"/>
      <use xlink:href="#DejaVuSerif-73" x="118.128906"/>
      <use xlink:href="#DejaVuSerif-74" x="169.447266"/>
      <use xlink:href="#DejaVuSerif-73" x="209.632812"/>
      <use xlink:href="#DejaVuSerif-65" x="260.951172"/>
      <use xlink:href="#DejaVuSerif-74" x="320.130859"/>
     </g>
    </g>
   </g>
  </g>
 </g>
 <defs>
  <clipPath id="p83e2275ed2">
   <rect x="58.174531" y="11.88" width="377.785469" height="195.948125"/>
  </clipPath>
 </defs>
</svg>
